<svg width="83" height="82" viewBox="0 0 83 82" fill="none" xmlns="http://www.w3.org/2000/svg">
  <path
    d="M81.2676 38.7072C80.8519 38.1543 80.3274 37.6924 79.7265 37.3497C79.1256 37.007 78.461 36.7908 77.7734 36.7144C77.0859 36.638 76.39 36.703 75.7286 36.9055C75.0671 37.1079 74.454 37.4435 73.927 37.8916L69.2725 41.8405C69.1882 41.7046 69.1366 41.5551 69.0333 41.4327C68.289 40.429 67.1959 39.7404 65.9692 39.5024V32.2882C65.9579 30.0844 65.4588 27.9104 64.5079 25.9223L74.1255 16.3047V20.0538C74.1255 20.4144 74.2687 20.7601 74.5236 21.0151C74.7786 21.27 75.1243 21.4132 75.4849 21.4132C75.8454 21.4132 76.1912 21.27 76.4461 21.0151C76.701 20.7601 76.8442 20.4144 76.8442 20.0538V13.0231C76.8442 12.7543 76.7644 12.4916 76.6151 12.2681C76.4657 12.0446 76.2534 11.8704 76.005 11.7675C75.7567 11.6647 75.4834 11.6377 75.2197 11.6902C74.9561 11.7426 74.7139 11.872 74.5238 12.0621L57.4147 29.1712C57.1591 29.425 56.8138 29.5681 56.4536 29.5695H30.2449C29.9282 29.5695 29.6214 29.6801 29.3776 29.8821L5.88486 49.3117L4.14894 47.2155L11.9504 40.7653C12.2047 40.5287 12.3589 40.2037 12.3812 39.8571C12.4035 39.5105 12.2922 39.1684 12.0702 38.9012C11.8483 38.6341 11.5324 38.462 11.1876 38.4203C10.8427 38.3787 10.495 38.4706 10.2158 38.6773L1.36766 45.9866C1.09006 46.2167 0.915205 46.5475 0.881554 46.9065C0.847903 47.2654 0.958214 47.623 1.18822 47.9006L4.65327 52.0916C4.76655 52.2292 4.90595 52.3431 5.06343 52.4266C5.22091 52.5101 5.39336 52.5617 5.57085 52.5782C5.61571 52.5782 5.65785 52.5782 5.69999 52.5782C6.01507 52.5791 6.32068 52.4705 6.56455 52.271L30.7342 32.2882H40.625C39.3286 33.3262 38.2584 34.6187 37.4803 36.086C36.7023 37.5533 36.2329 39.1644 36.1011 40.82C35.9693 42.4756 36.1778 44.1406 36.7139 45.7125C37.25 47.2845 38.1022 48.73 39.2181 49.9601H37.8981C36.3737 49.9547 34.8512 50.0675 33.3442 50.2972V36.3663C33.3442 36.0058 33.201 35.66 32.9461 35.4051C32.6912 35.1502 32.3454 35.007 31.9849 35.007C31.6243 35.007 31.2786 35.1502 31.0236 35.4051C30.7687 35.66 30.6255 36.0058 30.6255 36.3663V50.8845C29.085 51.3122 27.5952 51.9047 26.1817 52.6516L23.3447 54.1592C13.0611 59.5975 5.06717 68.5415 0.813034 79.3688C0.747697 79.535 0.715736 79.7124 0.718974 79.891C0.722212 80.0695 0.760586 80.2457 0.831905 80.4094C0.903225 80.5732 1.00609 80.7212 1.13464 80.8452C1.26318 80.9691 1.41488 81.0666 1.58108 81.1319C1.74728 81.1973 1.92472 81.2292 2.10327 81.226C2.28182 81.2227 2.45798 81.1844 2.6217 81.113C2.78542 81.0417 2.93349 80.9389 3.05746 80.8103C3.18142 80.6818 3.27885 80.5301 3.34419 80.3639C7.35874 70.1397 14.9058 61.6936 24.6157 56.5585L27.4541 55.0496C30.6805 53.3931 34.2728 52.5777 37.8981 52.6788H47.0331C47.5621 52.6582 48.0802 52.8319 48.4897 53.1673C48.8992 53.5027 49.1717 53.9764 49.2557 54.499C49.2865 54.784 49.2568 55.0723 49.1687 55.3451C49.0805 55.6178 48.9358 55.869 48.744 56.082C48.5522 56.2951 48.3177 56.4653 48.0557 56.5816C47.7937 56.6979 47.5101 56.7577 47.2235 56.757H35.6688C35.3082 56.757 34.9625 56.9002 34.7075 57.1551C34.4526 57.41 34.3094 57.7558 34.3094 58.1163C34.3094 58.4769 34.4526 58.8226 34.7075 59.0776C34.9625 59.3325 35.3082 59.4757 35.6688 59.4757H61.4969C61.8153 59.4759 62.1237 59.3643 62.3683 59.1603L75.682 48.057C76.0938 47.697 76.6191 47.4934 77.1659 47.482C77.7127 47.4706 78.2461 47.652 78.6726 47.9944C78.8964 48.1959 79.0766 48.441 79.2019 48.7148C79.3272 48.9886 79.3951 49.2852 79.4012 49.5863C79.4081 49.8807 79.3541 50.1735 79.2428 50.4462C79.1315 50.7189 78.9651 50.9657 78.7542 51.1713L66.1527 63.7727C63.6053 66.3138 60.2926 67.946 56.7255 68.4177L50.7306 69.2061C50.373 69.2533 50.0488 69.4407 49.8293 69.727C49.6098 70.0133 49.513 70.375 49.5602 70.7327C49.6075 71.0903 49.7948 71.4146 50.0811 71.6341C50.3674 71.8536 50.7292 71.9503 51.0868 71.9031L57.0789 71.1133C61.2389 70.5639 65.1025 68.6608 68.0735 65.6976L80.6709 53.1002C81.1434 52.632 81.5154 52.0724 81.7644 51.4556C82.0133 50.8388 82.1339 50.1777 82.1188 49.5127C82.1036 48.8477 81.9531 48.1928 81.6763 47.5879C81.3996 46.9831 81.0024 46.441 80.5091 45.9948C80.4738 45.9622 80.4316 45.9404 80.3949 45.9078L81.1983 44.8855C81.8873 44.0065 82.2674 42.9249 82.2799 41.8081C82.2925 40.6913 81.9367 39.6015 81.2676 38.7072ZM66.8583 43.0572C66.987 43.2341 67.0904 43.4281 67.1655 43.6336L65.9692 44.6476V42.3476C66.3194 42.5062 66.6245 42.7496 66.8569 43.0558L66.8583 43.0572ZM61.0048 56.757H51.5245C51.8966 55.9698 52.0474 55.0962 51.9609 54.2299C51.9324 53.9757 51.8815 53.7246 51.8086 53.4795C53.7798 52.9011 55.5714 51.8307 57.015 50.3693C57.2506 50.109 57.3764 49.7678 57.3661 49.4169C57.3558 49.066 57.2102 48.7328 56.9597 48.4868C56.7092 48.2409 56.3733 48.1014 56.0223 48.0976C55.6713 48.0937 55.3324 48.2258 55.0766 48.4661C53.7525 49.8085 52.0572 50.724 50.2086 51.0952C49.9793 50.9094 49.7336 50.7447 49.4746 50.6031C49.5895 50.4079 49.6522 50.1865 49.6567 49.9601V48.3506C50.563 48.0314 51.3271 47.4017 51.8136 46.5732C52.3001 45.7446 52.4777 44.7706 52.3148 43.8236C52.152 42.8767 51.6593 42.0179 50.924 41.3994C50.1887 40.7809 49.2582 40.4426 48.2974 40.4445C48.0285 40.4445 47.7657 40.3647 47.5421 40.2154C47.3186 40.066 47.1444 39.8537 47.0415 39.6053C46.9386 39.3569 46.9117 39.0836 46.9641 38.8199C47.0166 38.5562 47.146 38.314 47.3361 38.1239C47.5262 37.9338 47.7685 37.8043 48.0322 37.7518C48.2959 37.6994 48.5692 37.7263 48.8176 37.8292C49.066 37.9321 49.2783 38.1063 49.4276 38.3299C49.577 38.5534 49.6567 38.8162 49.6567 39.0851C49.6567 39.4456 49.8 39.7914 50.0549 40.0463C50.3098 40.3012 50.6556 40.4445 51.0161 40.4445C51.3766 40.4445 51.7224 40.3012 51.9773 40.0463C52.2323 39.7914 52.3755 39.4456 52.3755 39.0851C52.372 38.2446 52.1089 37.4258 51.6223 36.7406C51.1356 36.0554 50.4491 35.5372 49.6567 35.2571V33.6476C49.6567 33.2871 49.5135 32.9413 49.2586 32.6864C49.0037 32.4314 48.6579 32.2882 48.2974 32.2882C47.9368 32.2882 47.5911 32.4314 47.3361 32.6864C47.0812 32.9413 46.938 33.2871 46.938 33.6476V35.2571C46.0317 35.5763 45.2677 36.2059 44.7812 37.0345C44.2946 37.8631 44.1171 38.8371 44.2799 39.784C44.4427 40.731 44.9354 41.5898 45.6707 42.2083C46.406 42.8267 47.3365 43.165 48.2974 43.1632C48.5662 43.1632 48.829 43.2429 49.0526 43.3923C49.2761 43.5417 49.4504 43.754 49.5533 44.0024C49.6561 44.2508 49.6831 44.5241 49.6306 44.7878C49.5782 45.0515 49.4487 45.2937 49.2586 45.4838C49.0685 45.6739 48.8263 45.8034 48.5626 45.8558C48.2989 45.9083 48.0255 45.8814 47.7772 45.7785C47.5288 45.6756 47.3165 45.5014 47.1671 45.2778C47.0177 45.0543 46.938 44.7914 46.938 44.5226C46.938 44.1621 46.7948 43.8163 46.5398 43.5614C46.2849 43.3064 45.9391 43.1632 45.5786 43.1632C45.2181 43.1632 44.8723 43.3064 44.6174 43.5614C44.3625 43.8163 44.2192 44.1621 44.2192 44.5226C44.2227 45.363 44.4858 46.1819 44.9725 46.8671C45.4591 47.5523 46.1456 48.0704 46.938 48.3506V49.9601H43.4036C41.9767 49.1044 40.799 47.8895 39.9882 46.4366C39.1773 44.9837 38.7616 43.3436 38.7825 41.6799C38.8034 40.0162 39.2601 38.387 40.1072 36.9549C40.9543 35.5228 42.162 34.3379 43.61 33.5183C45.058 32.6987 46.6955 32.273 48.3593 32.2839C50.0232 32.2947 51.655 32.7416 53.0922 33.58C54.5294 34.4184 55.7216 35.619 56.5499 37.062C57.3783 38.505 57.8138 40.14 57.813 41.8038C57.8148 42.6633 57.6991 43.5191 57.4691 44.3472C57.3723 44.6943 57.4172 45.0656 57.594 45.3796C57.7709 45.6935 58.0651 45.9244 58.4121 46.0215C58.7591 46.1186 59.1305 46.074 59.4446 45.8974C59.7587 45.7209 59.9898 45.4268 60.0872 45.0799C60.7253 42.7786 60.6755 40.3408 59.9437 38.0676C59.212 35.7943 57.8304 33.7851 55.9697 32.2882H56.4536C56.9894 32.2897 57.5201 32.1849 58.015 31.9798C58.5099 31.7747 58.9592 31.4734 59.3368 31.0933L62.4471 27.9831C62.9724 29.3579 63.2446 30.8164 63.2505 32.2882L63.2573 54.8783L61.0048 56.757ZM73.9474 45.9662L65.9692 52.6177V48.216L75.6847 39.9578C76.1296 39.5817 76.6981 39.384 77.2804 39.4027C77.8626 39.4214 78.4172 39.6554 78.837 40.0593C79.2568 40.4632 79.512 41.0084 79.5532 41.5895C79.5944 42.1705 79.4186 42.7463 79.06 43.2053L77.7958 44.8081C77.1096 44.7363 76.4159 44.8017 75.7552 45.0005C75.0946 45.1994 74.48 45.5276 73.9474 45.9662Z"
    fill="#29538E" />
  <path
    d="M45.3487 69.8996L36.9477 71.0021C35.0329 71.2537 33.2196 72.0103 31.6938 73.1942C30.168 74.3782 28.9847 75.9468 28.2654 77.7391L27.6115 79.3582C27.4774 79.6924 27.4813 80.0662 27.6225 80.3976C27.7637 80.7289 28.0306 80.9906 28.3646 81.1253C28.5259 81.1917 28.6986 81.2258 28.873 81.2259C29.1444 81.226 29.4095 81.1448 29.6343 80.9929C29.8591 80.841 30.0333 80.6253 30.1345 80.3736L30.7884 78.7519C31.327 77.4066 32.2143 76.2292 33.359 75.3406C34.5037 74.4521 35.8644 73.8845 37.3012 73.6963L45.7021 72.5953C46.0598 72.5484 46.3841 72.3614 46.6039 72.0753C46.8236 71.7893 46.9208 71.4277 46.8739 71.07C46.827 70.7124 46.64 70.388 46.354 70.1683C46.0679 69.9485 45.7063 69.8514 45.3487 69.8983V69.8996Z"
    fill="#29538E" />
  <path
    d="M80.9222 2.38202H64.6097C64.2492 2.38202 63.9034 2.52524 63.6485 2.78017C63.3936 3.0351 63.2503 3.38086 63.2503 3.74139V9.17889C63.2503 9.53942 63.3936 9.88518 63.6485 10.1401C63.9034 10.395 64.2492 10.5383 64.6097 10.5383H68.3589L59.145 19.7521C58.4267 19.2835 57.6694 18.8774 56.8817 18.5382C57.2948 18.0411 57.5825 17.452 57.7205 16.8206C57.8585 16.1892 57.8429 15.5338 57.6749 14.9097C57.5069 14.2855 57.1915 13.7109 56.7551 13.234C56.3188 12.7572 55.7743 12.3921 55.1675 12.1695C55.3163 11.0157 55.7018 9.90497 56.2999 8.90702L58.9778 4.44147C59.0745 4.28083 59.1368 4.10194 59.161 3.91604C59.1851 3.73014 59.1706 3.54125 59.1182 3.36125C59.0659 3.18124 58.9769 3.01401 58.8568 2.87005C58.7367 2.7261 58.5882 2.60854 58.4205 2.52475L55.2029 0.916612C54.3145 0.474527 53.3262 0.27161 52.3355 0.327867C51.3448 0.384124 50.3859 0.697613 49.5533 1.23742C49.1155 1.52138 48.6108 1.68528 48.0898 1.71272C47.5687 1.74016 47.0496 1.63016 46.5844 1.39375L45.4235 0.802425C44.6294 0.399889 43.7521 0.188649 42.8618 0.185581C41.9715 0.182512 41.0928 0.3877 40.2959 0.784753L36.8146 2.52475C36.6225 2.62141 36.4561 2.76226 36.329 2.93574C36.2019 3.10921 36.1178 3.31036 36.0836 3.52265C36.0493 3.73495 36.066 3.95234 36.1321 4.15697C36.1982 4.36159 36.3119 4.54761 36.4639 4.69975L36.5767 4.81258C38.6683 6.90638 40.2389 9.46222 41.1619 12.2742C40.5584 12.5482 40.0313 12.9659 39.6266 13.4907C39.2219 14.0155 38.9519 14.6315 38.8402 15.2847C38.7285 15.938 38.7785 16.6087 38.9858 17.2381C39.1931 17.8676 39.5515 18.4367 40.0295 18.8957C37.5187 20.0755 35.3516 21.8781 33.7342 24.132H29.266C28.3173 24.1327 27.3984 24.4634 26.6668 25.0673L14.4066 35.2041C14.1289 35.4341 13.9538 35.7651 13.92 36.1242C13.8863 36.4832 13.9965 36.841 14.2265 37.1188C14.4565 37.3966 14.7875 37.5716 15.1466 37.6054C15.5056 37.6392 15.8634 37.5289 16.1412 37.2989L28.4001 27.1621C28.6441 26.9615 28.9501 26.8515 29.266 26.8508H55.3279C55.6884 26.8507 56.0341 26.7074 56.289 26.4525L72.6015 10.14C72.7915 9.94986 72.921 9.70767 72.9734 9.44401C73.0258 9.18036 72.9989 8.90708 72.896 8.65872C72.7932 8.41037 72.619 8.19808 72.3955 8.04871C72.172 7.89933 71.9092 7.81958 71.6404 7.81952H65.9691V5.10077H79.5628V20.0539C79.5628 20.4144 79.7061 20.7602 79.961 21.0151C80.2159 21.2701 80.5617 21.4133 80.9222 21.4133C81.2828 21.4133 81.6285 21.2701 81.8834 21.0151C82.1384 20.7602 82.2816 20.4144 82.2816 20.0539V3.74139C82.2816 3.38086 82.1384 3.0351 81.8834 2.78017C81.6285 2.52524 81.2828 2.38202 80.9222 2.38202ZM41.5126 3.21532C41.9286 3.00816 42.3874 2.90125 42.8522 2.90314C43.317 2.90503 43.7748 3.01566 44.1892 3.22619L45.3501 3.81752C46.2414 4.26922 47.2357 4.47907 48.2335 4.42612C49.2314 4.37316 50.1979 4.05924 51.0364 3.51574C51.4712 3.23406 51.9719 3.07051 52.4891 3.04119C53.0064 3.01187 53.5223 3.1178 53.9862 3.34853L55.8893 4.3001L53.9685 7.50686C53.1636 8.84871 52.6491 10.3445 52.4583 11.8976H50.1827L50.9453 9.60846C51.0569 9.28553 51.0427 8.93243 50.9057 8.61944C50.7687 8.30646 50.5189 8.05654 50.2059 7.91944C49.893 7.78233 49.5399 7.7681 49.2169 7.87956C48.894 7.99102 48.6248 8.22002 48.4631 8.52096C47.8691 7.70668 47.0882 7.04701 46.1861 6.59744C45.8634 6.43628 45.49 6.40991 45.1478 6.52412C44.8057 6.63833 44.523 6.88377 44.3618 7.20644C44.2007 7.52911 44.1743 7.90259 44.2885 8.24471C44.4027 8.58683 44.6482 8.86957 44.9708 9.03072C45.5106 9.30315 45.971 9.71008 46.3077 10.2122C46.6444 10.7144 46.8459 11.2949 46.893 11.8976H43.8942C43.029 9.05067 41.5856 6.41286 39.6543 4.14921L41.5126 3.21532ZM42.8597 17.3351C42.4992 17.3351 42.1534 17.1919 41.8985 16.937C41.6436 16.6821 41.5003 16.3363 41.5003 15.9758C41.5003 15.6152 41.6436 15.2695 41.8985 15.0145C42.1534 14.7596 42.4992 14.6164 42.8597 14.6164H53.7347C54.0953 14.6164 54.441 14.7596 54.6959 15.0145C54.9509 15.2695 55.0941 15.6152 55.0941 15.9758C55.0941 16.3363 54.9509 16.6821 54.6959 16.937C54.441 17.1919 54.0953 17.3351 53.7347 17.3351H42.8597ZM54.7651 24.132H37.2741C38.5318 22.8425 40.0346 21.8174 41.6941 21.1171C43.3537 20.4168 45.1366 20.0553 46.9378 20.0539H51.016C53.1788 20.0528 55.3022 20.6326 57.1644 21.7327L54.7651 24.132Z"
    fill="#29538E" />
  <path
    d="M3.72059 33.1182C3.84765 33.2832 4.01093 33.4169 4.19784 33.5088C4.38475 33.6007 4.59029 33.6485 4.79858 33.6483C5.09795 33.6492 5.38898 33.5497 5.62508 33.3656L22.9326 20.0546H29.2673C29.6278 20.0545 29.9735 19.9112 30.2284 19.6563L35.6659 14.2188C35.9135 13.9624 36.0505 13.619 36.0474 13.2626C36.0443 12.9062 35.9014 12.5652 35.6493 12.3132C35.3973 12.0612 35.0564 11.9182 34.6999 11.9151C34.3435 11.912 34.0001 12.049 33.7437 12.2966L28.7045 17.3358H22.4704C22.1708 17.3356 21.8795 17.435 21.6426 17.6186L3.97072 31.2123C3.68486 31.4319 3.49792 31.7561 3.45102 32.1135C3.40411 32.4709 3.50108 32.8323 3.72059 33.1182Z"
    fill="#29538E" />
  <path
    d="M75.2041 25.2097L69.0869 31.3269C68.957 31.4523 68.8535 31.6023 68.7822 31.7682C68.711 31.934 68.6735 32.1124 68.6719 32.2929C68.6704 32.4734 68.7048 32.6524 68.7731 32.8194C68.8415 32.9865 68.9424 33.1383 69.07 33.2659C69.1977 33.3936 69.3494 33.4945 69.5165 33.5628C69.6836 33.6312 69.8626 33.6656 70.0431 33.664C70.2236 33.6625 70.4019 33.6249 70.5678 33.5537C70.7336 33.4825 70.8836 33.3789 71.009 33.2491L77.1262 27.1319C77.3738 26.8755 77.5109 26.5321 77.5078 26.1757C77.5047 25.8193 77.3617 25.4783 77.1097 25.2263C76.8576 24.9742 76.5167 24.8313 76.1602 24.8282C75.8038 24.8251 75.4604 24.9621 75.2041 25.2097Z"
    fill="#29538E" />
  <path
    d="M3.4375 24.1318C3.73172 24.1324 4.0181 24.037 4.25312 23.86L15.1281 15.7037C15.4165 15.4874 15.6072 15.1654 15.6582 14.8085C15.7092 14.4516 15.6163 14.089 15.4 13.8006C15.1837 13.5122 14.8616 13.3215 14.5047 13.2705C14.1478 13.2195 13.7853 13.3124 13.4969 13.5287L2.62188 21.685C2.39363 21.8562 2.22503 22.0948 2.13996 22.3671C2.05489 22.6395 2.05766 22.9317 2.14788 23.2023C2.23811 23.473 2.4112 23.7084 2.64266 23.8752C2.87411 24.0421 3.15219 24.1318 3.4375 24.1318Z"
    fill="#29538E" />
  <path
    d="M12.4292 56.4712L24.6635 46.9555C24.8046 46.8459 24.9226 46.7096 25.011 46.5544C25.0993 46.3991 25.1562 46.228 25.1784 46.0508C25.2007 45.8736 25.1877 45.6937 25.1404 45.5215C25.0932 45.3492 25.0124 45.188 24.9028 45.047C24.7932 44.9059 24.6569 44.7879 24.5016 44.6995C24.3464 44.6112 24.1753 44.5543 23.9981 44.532C23.8208 44.5098 23.641 44.5227 23.4687 44.57C23.2965 44.6173 23.1352 44.6981 22.9942 44.8077L10.7598 54.3233C10.475 54.5447 10.2898 54.8701 10.2449 55.2281C10.2001 55.586 10.2992 55.9471 10.5206 56.2319C10.742 56.5167 11.0674 56.7019 11.4253 56.7468C11.7832 56.7917 12.1443 56.6925 12.4292 56.4712Z"
    fill="#29538E" />
</svg>