<svg width="83" height="73" viewBox="0 0 83 73" fill="none" xmlns="http://www.w3.org/2000/svg">
  <path
    d="M40.1406 24.6475C39.4196 24.6475 38.728 24.361 38.2182 23.8512C37.7083 23.3413 37.4219 22.6498 37.4219 21.9287C37.4219 21.5682 37.2787 21.2224 37.0237 20.9675C36.7688 20.7126 36.423 20.5693 36.0625 20.5693C35.702 20.5693 35.3562 20.7126 35.1013 20.9675C34.8463 21.2224 34.7031 21.5682 34.7031 21.9287C34.7076 23.1307 35.1103 24.2973 35.8481 25.2462C36.586 26.195 37.6174 26.8727 38.7812 27.1732V28.7256C38.7812 29.0861 38.9245 29.4319 39.1794 29.6868C39.4343 29.9417 39.7801 30.085 40.1406 30.085C40.5012 30.085 40.8469 29.9417 41.1018 29.6868C41.3568 29.4319 41.5 29.0861 41.5 28.7256V27.1732C42.78 26.8437 43.8958 26.0584 44.6379 24.9647C45.38 23.8709 45.6975 22.5439 45.5306 21.2328C45.3637 19.9216 44.7241 18.7164 43.7317 17.8434C42.7393 16.9704 41.4624 16.4896 40.1406 16.4912C39.6029 16.4912 39.0773 16.3318 38.6302 16.033C38.1831 15.7343 37.8346 15.3097 37.6288 14.8129C37.4231 14.3161 37.3692 13.7694 37.4741 13.2421C37.579 12.7147 37.838 12.2302 38.2182 11.85C38.5984 11.4698 39.0828 11.2109 39.6102 11.106C40.1376 11.001 40.6843 11.0549 41.181 11.2607C41.6778 11.4664 42.1024 11.8149 42.4012 12.262C42.6999 12.7091 42.8594 13.2347 42.8594 13.7725C42.8594 14.133 43.0026 14.4788 43.2575 14.7337C43.5125 14.9886 43.8582 15.1318 44.2188 15.1318C44.5793 15.1318 44.925 14.9886 45.18 14.7337C45.4349 14.4788 45.5781 14.133 45.5781 13.7725C45.5736 12.5705 45.171 11.4039 44.4331 10.455C43.6953 9.50613 42.6638 8.82848 41.5 8.52799V6.97559C41.5 6.61506 41.3568 6.2693 41.1018 6.01436C40.8469 5.75943 40.5012 5.61621 40.1406 5.61621C39.7801 5.61621 39.4343 5.75943 39.1794 6.01436C38.9245 6.2693 38.7812 6.61506 38.7812 6.97559V8.52799C37.5012 8.85745 36.3854 9.64274 35.6433 10.7365C34.9012 11.8302 34.5838 13.1572 34.7507 14.4684C34.9175 15.7796 35.5572 16.9848 36.5496 17.8578C37.542 18.7308 38.8189 19.2116 40.1406 19.21C40.8617 19.21 41.5532 19.4964 42.0631 20.0063C42.5729 20.5161 42.8594 21.2077 42.8594 21.9287C42.8594 22.6498 42.5729 23.3413 42.0631 23.8512C41.5532 24.361 40.8617 24.6475 40.1406 24.6475Z"
    fill="#29538E" />
  <path
    d="M19.75 26.0068C20.5008 26.0068 21.1094 25.3982 21.1094 24.6475C21.1094 23.8967 20.5008 23.2881 19.75 23.2881C18.9992 23.2881 18.3906 23.8967 18.3906 24.6475C18.3906 25.3982 18.9992 26.0068 19.75 26.0068Z"
    fill="#29538E" />
  <path
    d="M73.0036 37.0273C74.9471 35.3833 76.247 33.1055 76.6739 30.5961C78.3428 29.8432 79.7593 28.6252 80.7538 27.088C81.7484 25.5508 82.2787 23.7595 82.2814 21.9287C82.2787 19.7283 81.7432 17.5614 80.7208 15.613C80.5532 15.2938 80.2656 15.0542 79.9213 14.947C79.577 14.8398 79.2042 14.8738 78.885 15.0414C78.5657 15.2091 78.3261 15.4967 78.2189 15.8409C78.1117 16.1852 78.1457 16.558 78.3134 16.8772C79.1373 18.4333 79.5663 20.1679 79.5626 21.9287C79.5599 22.9788 79.3128 24.0138 78.8409 24.9519C78.369 25.89 77.6853 26.7054 76.8439 27.3336C76.8353 26.2576 76.4018 25.2287 75.6379 24.471C74.8741 23.7132 73.8417 23.288 72.7657 23.2881H71.4064V21.9287C71.4064 20.8471 70.9767 19.8098 70.2119 19.045C69.4471 18.2802 68.4098 17.8506 67.3282 17.8506H56.4532C55.3717 17.8506 54.3344 17.4209 53.5696 16.6561C52.8048 15.8913 52.3751 14.854 52.3751 13.7724V11.0537H68.6876C71.0227 11.0513 73.2954 11.8075 75.1637 13.2083C75.453 13.4235 75.816 13.515 76.1728 13.4626C76.5295 13.4102 76.8509 13.2183 77.0661 12.9289C77.2814 12.6396 77.3728 12.2766 77.3205 11.9199C77.2681 11.5631 77.0761 11.2417 76.7868 11.0265C74.4497 9.27611 71.6075 8.3316 68.6876 8.33493H54.9906C52.8254 4.92797 49.5544 2.36929 45.7264 1.08816C41.8983 -0.192971 37.7462 -0.118595 33.9665 1.29881C33.7953 1.35861 33.6379 1.45204 33.5034 1.57359C33.3689 1.69515 33.2601 1.84237 33.1834 2.00661C33.1066 2.17084 33.0635 2.34876 33.0565 2.52991C33.0496 2.71106 33.0789 2.89176 33.1428 3.0614C33.2068 3.23104 33.304 3.38617 33.4287 3.51769C33.5535 3.6492 33.7033 3.75443 33.8694 3.82718C34.0354 3.89993 34.2143 3.93874 34.3956 3.94132C34.5768 3.9439 34.7568 3.9102 34.9248 3.8422C37.8327 2.75373 41.0081 2.60165 44.0067 3.40724C47.0053 4.21282 49.677 5.93576 51.6478 8.33493H51.0157C50.6552 8.33493 50.3094 8.47815 50.0545 8.73308C49.7996 8.98802 49.6564 9.33378 49.6564 9.69431V13.7724C49.6607 15.2952 50.1762 16.7723 51.1203 17.9671C52.0644 19.1619 53.3823 20.005 54.8628 20.3613C54.3295 23.5131 52.7988 26.4105 50.496 28.6275C48.1932 30.8445 45.2398 32.2641 42.07 32.6773C38.9003 33.0906 35.6816 32.4759 32.8873 30.9235C30.093 29.3711 27.8706 26.963 26.547 24.0534V19.2099C26.5452 17.6394 26.201 16.0881 25.5383 14.6642C26.2551 11.3961 28.0407 8.46008 30.6129 6.32034C30.8898 6.08924 31.0635 5.75761 31.0959 5.39841C31.1283 5.03921 31.0166 4.68186 30.7855 4.40498C30.5544 4.12809 30.2228 3.95435 29.8636 3.92197C29.5044 3.8896 29.147 4.00124 28.8702 4.23234C26.4758 6.23347 24.6479 8.82726 23.5686 11.7551C22.5556 10.6761 21.3324 9.81594 19.9743 9.22772C18.6162 8.63949 17.152 8.33566 15.672 8.33493H14.3126C12.1028 8.33184 9.92628 8.87294 7.9752 9.91045C7.66973 10.0871 7.44492 10.3756 7.34831 10.715C7.2517 11.0544 7.29086 11.4181 7.45751 11.7292C7.62416 12.0402 7.90523 12.2743 8.24132 12.3819C8.5774 12.4894 8.94215 12.4621 9.25845 12.3057C10.815 11.48 12.5507 11.0501 14.3126 11.0537H15.672C17.599 11.0561 19.463 11.7396 20.9349 12.9833C22.4067 14.227 23.3916 15.951 23.7154 17.8506H17.0314C15.4651 17.8525 13.9474 18.3944 12.734 19.3849C11.5207 20.3754 10.6859 21.7539 10.3704 23.2881H8.87511C7.99682 23.2911 7.14307 23.5782 6.44137 24.1064C5.73968 24.6346 5.22768 25.3757 4.98186 26.2189C3.98501 25.0112 3.43909 23.4946 3.43761 21.9287C3.42744 19.5957 4.18132 17.3236 5.58406 15.4594C5.80038 15.171 5.89326 14.8085 5.84228 14.4515C5.79129 14.0946 5.60061 13.7726 5.31219 13.5563C5.02377 13.34 4.66122 13.2471 4.30432 13.2981C3.94741 13.3491 3.62538 13.5397 3.40906 13.8282C1.65186 16.1621 0.707009 19.0072 0.71886 21.9287C0.718153 23.4727 1.09583 24.9934 1.81885 26.3577C2.54188 27.722 3.58821 28.8883 4.86631 29.7546C5.11916 32.5794 6.47259 35.1916 8.6345 37.0273C6.42247 37.4059 4.41527 38.5537 2.96702 40.2681C1.51878 41.9824 0.722563 44.1532 0.71886 46.3974V70.8662C0.71886 71.2267 0.86208 71.5725 1.11701 71.8274C1.37194 72.0823 1.71771 72.2256 2.07824 72.2256C2.43876 72.2256 2.78453 72.0823 3.03946 71.8274C3.29439 71.5725 3.43761 71.2267 3.43761 70.8662V46.3974C3.43977 44.5954 4.15656 42.8679 5.43075 41.5937C6.70495 40.3195 8.43251 39.6027 10.2345 39.6006H21.1095C22.9115 39.6027 24.639 40.3195 25.9132 41.5937C27.1874 42.8679 27.9042 44.5954 27.9064 46.3974C27.9064 46.758 28.0496 47.1037 28.3045 47.3587C28.5594 47.6136 28.9052 47.7568 29.2657 47.7568C29.6263 47.7568 29.972 47.6136 30.227 47.3587C30.4819 47.1037 30.6251 46.758 30.6251 46.3974C30.6224 44.1481 29.8236 41.9724 28.3703 40.2556C26.917 38.5388 24.903 37.3918 22.685 37.0177C23.8436 36.0396 24.7842 34.8295 25.4462 33.4653C26.1081 32.1012 26.4766 30.6134 26.528 29.098C28.3061 31.2582 30.5731 32.9638 33.1414 34.0737C35.7097 35.1837 38.5054 35.666 41.2972 35.4808C44.0889 35.2956 46.7964 34.4482 49.1956 33.0088C51.5948 31.5693 53.6166 29.5792 55.0939 27.2031V28.7256C55.0949 30.3056 55.441 31.8663 56.1081 33.2986C56.7751 34.7309 57.7471 36.0002 58.9558 37.0177C56.7378 37.3918 54.7238 38.5388 53.2705 40.2556C51.8172 41.9724 51.0185 44.1481 51.0157 46.3974V50.9948L49.8643 51.5699L47.1456 49.1923C47.2286 48.2293 47.0216 47.2635 46.5512 46.4191C46.0808 45.5748 45.3685 44.8905 44.506 44.4542C43.6435 44.018 42.6702 43.8498 41.7113 43.9713C40.7524 44.0928 39.8518 44.4984 39.1253 45.1359L31.7724 51.5699L18.9943 45.1808C18.6716 45.0196 18.2981 44.9933 17.956 45.1075C17.6139 45.2217 17.3312 45.4671 17.17 45.7898C17.0089 46.1125 16.9825 46.4859 17.0967 46.8281C17.2109 47.1702 17.4563 47.4529 17.779 47.6141L31.3728 54.4109C31.6143 54.5315 31.8864 54.5774 32.1541 54.5428C32.4219 54.5082 32.6733 54.3946 32.8762 54.2166L36.9938 50.6142L40.2563 53.8767L34.2057 59.9273C33.8415 60.291 33.3816 60.5439 32.8794 60.6565C32.3772 60.7691 31.8533 60.7369 31.3687 60.5635L14.7694 54.6325C14.6012 54.5725 14.4229 54.5463 14.2446 54.5552C14.0662 54.5641 13.8914 54.6081 13.7301 54.6846C13.4043 54.8391 13.1532 55.1167 13.0321 55.4563C12.9721 55.6245 12.9458 55.8028 12.9548 55.9811C12.9637 56.1594 13.0077 56.3342 13.0842 56.4956C13.1607 56.6569 13.2682 56.8016 13.4006 56.9213C13.533 57.0411 13.6877 57.1336 13.8559 57.1936L27.9064 62.211V70.8662C27.9064 71.2267 28.0496 71.5725 28.3045 71.8274C28.5594 72.0823 28.9052 72.2256 29.2657 72.2256C29.6263 72.2256 29.972 72.0823 30.227 71.8274C30.4819 71.5725 30.6251 71.2267 30.6251 70.8662V63.1667C31.5747 63.4787 32.5924 63.5204 33.5644 63.2873C34.5364 63.0543 35.4244 62.5555 36.1292 61.8467L40.8204 57.1555L45.5116 61.8467C46.2165 62.5555 47.1045 63.0543 48.0765 63.2873C49.0485 63.5204 50.0661 63.4787 51.0157 63.1667V70.8662C51.0157 71.2267 51.159 71.5725 51.4139 71.8274C51.6688 72.0823 52.0146 72.2256 52.3751 72.2256C52.7356 72.2256 53.0814 72.0823 53.3363 71.8274C53.5913 71.5725 53.7345 71.2267 53.7345 70.8662V62.211L67.785 57.1936C67.9531 57.1336 68.1078 57.0411 68.2403 56.9213C68.3727 56.8016 68.4802 56.6569 68.5567 56.4956C68.6332 56.3342 68.6771 56.1594 68.6861 55.9811C68.695 55.8028 68.6688 55.6245 68.6088 55.4563C68.5488 55.2881 68.4563 55.1334 68.3365 55.001C68.2167 54.8686 68.0721 54.7611 67.9107 54.6846C67.7494 54.6081 67.5746 54.5641 67.3963 54.5552C67.218 54.5463 67.0396 54.5725 66.8715 54.6325L50.2708 60.5608C49.7862 60.7341 49.2623 60.7664 48.7601 60.6538C48.2579 60.5411 47.798 60.2883 47.4338 59.9246L42.7426 55.2334L45.7563 52.2196C45.8705 52.1054 45.9602 51.9763 46.0608 51.854L48.7605 54.2166C49.0084 54.4338 49.3268 54.5536 49.6564 54.5537C49.8666 54.5555 50.0745 54.5089 50.264 54.4177L63.8578 47.6209C64.0175 47.5411 64.16 47.4306 64.2771 47.2957C64.3942 47.1609 64.4835 47.0043 64.5401 46.8349C64.5966 46.6655 64.6193 46.4866 64.6067 46.3084C64.5941 46.1303 64.5466 45.9564 64.4668 45.7966C64.387 45.6368 64.2765 45.4943 64.1416 45.3773C64.0067 45.2602 63.8501 45.1708 63.6807 45.1143C63.3386 45.0001 62.9651 45.0264 62.6425 45.1876L53.7345 49.6355V46.3974C53.7366 44.5954 54.4534 42.8679 55.7276 41.5937C57.0018 40.3195 58.7294 39.6027 60.5314 39.6006H71.4064C73.2083 39.6027 74.9359 40.3195 76.2101 41.5937C77.4843 42.8679 78.2011 44.5954 78.2032 46.3974V51.8349C78.2032 52.1955 78.3465 52.5412 78.6014 52.7962C78.8563 53.0511 79.2021 53.1943 79.5626 53.1943C79.9231 53.1943 80.2689 53.0511 80.5238 52.7962C80.7788 52.5412 80.922 52.1955 80.922 51.8349V46.3974C80.9195 44.1525 80.1234 41.9807 78.6744 40.266C77.2254 38.5513 75.2167 37.4041 73.0036 37.0273ZM8.87511 26.0068H10.2345V28.7256H8.87511C8.51458 28.7256 8.16882 28.5823 7.91389 28.3274C7.65896 28.0725 7.51574 27.7267 7.51574 27.3662C7.51574 27.0057 7.65896 26.6599 7.91389 26.405C8.16882 26.15 8.51458 26.0068 8.87511 26.0068ZM15.672 36.8818C13.9621 36.89 12.2935 36.357 10.9051 35.359C9.51673 34.3611 8.47971 32.9493 7.94258 31.326C8.24767 31.4021 8.56069 31.4418 8.87511 31.4443H11.5939C11.9544 31.4443 12.3002 31.3011 12.5551 31.0462C12.81 30.7912 12.9532 30.4455 12.9532 30.0849V24.6474C12.9532 23.5658 13.3829 22.5286 14.1477 21.7638C14.9125 20.999 15.9498 20.5693 17.0314 20.5693H23.8282V28.7256C23.8261 30.8881 22.9661 32.9614 21.4369 34.4905C19.9078 36.0196 17.8345 36.8796 15.672 36.8818ZM42.1798 51.9518L39.0532 48.8253L40.9251 47.194C41.3417 46.828 41.8843 46.6386 42.4382 46.6657C42.992 46.6928 43.5135 46.9345 43.8923 47.3394C44.2711 47.7443 44.4774 48.2808 44.4676 48.8352C44.4578 49.3896 44.2325 49.9185 43.8396 50.3097L42.1798 51.9518ZM72.7657 26.0068C73.1263 26.0068 73.472 26.15 73.727 26.405C73.9819 26.6599 74.1251 27.0057 74.1251 27.3662C74.1251 27.7267 73.9819 28.0725 73.727 28.3274C73.472 28.5823 73.1263 28.7256 72.7657 28.7256H71.4064V26.0068H72.7657ZM57.8126 28.7256V20.5693H67.3282C67.6888 20.5693 68.0345 20.7125 68.2895 20.9675C68.5444 21.2224 68.6876 21.5682 68.6876 21.9287V30.0849C68.6876 30.4455 68.8308 30.7912 69.0858 31.0462C69.3407 31.3011 69.6865 31.4443 70.047 31.4443H72.7657C73.0634 31.4443 73.3584 31.4266 73.6493 31.3994C73.0204 33.221 71.7656 34.7604 70.1083 35.7437C68.4511 36.7271 66.4987 37.0907 64.5985 36.7699C62.6983 36.4491 60.9735 35.4646 59.731 33.9916C58.4884 32.5186 57.8087 30.6526 57.8126 28.7256Z"
    fill="#29538E" />
  <path
    d="M79.5625 55.9131C79.202 55.9131 78.8562 56.0563 78.6013 56.3112C78.3463 56.5662 78.2031 56.9119 78.2031 57.2725V70.8662C78.2031 71.2267 78.3463 71.5725 78.6013 71.8274C78.8562 72.0824 79.202 72.2256 79.5625 72.2256C79.923 72.2256 80.2688 72.0824 80.5237 71.8274C80.7787 71.5725 80.9219 71.2267 80.9219 70.8662V57.2725C80.9219 56.9119 80.7787 56.5662 80.5237 56.3112C80.2688 56.0563 79.923 55.9131 79.5625 55.9131Z"
    fill="#29538E" />
  <path
    d="M61.8906 26.0068C62.6414 26.0068 63.25 25.3982 63.25 24.6475C63.25 23.8967 62.6414 23.2881 61.8906 23.2881C61.1399 23.2881 60.5312 23.8967 60.5312 24.6475C60.5312 25.3982 61.1399 26.0068 61.8906 26.0068Z"
    fill="#29538E" />
</svg>