<svg width="87" height="88" viewBox="0 0 87 88" fill="none" xmlns="http://www.w3.org/2000/svg">
  <path
    d="M21.6782 14.6958L25.2316 11.1315L27.9667 13.8584C28.1771 14.0684 28.4506 14.2037 28.7452 14.2435C29.0398 14.2833 29.3394 14.2253 29.598 14.0786C31.5296 12.9967 33.5831 12.1484 35.7151 11.5515C35.9997 11.4705 36.25 11.2988 36.4281 11.0625C36.6063 10.8263 36.7024 10.5383 36.702 10.2425V6.38184H50.2958V10.2425C50.2958 10.5383 50.3923 10.826 50.5707 11.062C50.749 11.298 50.9995 11.4694 51.2841 11.5502C53.4163 12.1465 55.4698 12.9949 57.4013 14.0773C57.6598 14.224 57.9594 14.2819 58.254 14.2421C58.5486 14.2023 58.8221 14.0671 59.0325 13.857L61.7676 11.1301L71.377 20.7382L68.6474 23.4746C68.4373 23.685 68.3021 23.9585 68.2623 24.2531C68.2225 24.5477 68.2804 24.8473 68.4271 25.1059C69.5092 27.0374 70.3575 29.091 70.9542 31.2231C71.0353 31.5076 71.207 31.7579 71.4432 31.9361C71.6795 32.1142 71.9674 32.2103 72.2633 32.21H76.1239V41.7256C76.1239 42.0861 76.2671 42.4319 76.5221 42.6868C76.777 42.9417 77.1228 43.085 77.4833 43.085C77.8438 43.085 78.1896 42.9417 78.4445 42.6868C78.6995 42.4319 78.8427 42.0861 78.8427 41.7256V30.8506C78.8427 30.4901 78.6995 30.1443 78.4445 29.8894C78.1896 29.6344 77.8438 29.4912 77.4833 29.4912H73.2692C72.7449 27.8328 72.0805 26.2221 71.2832 24.6763L74.2534 21.6966C74.5079 21.4417 74.6508 21.0963 74.6508 20.7362C74.6508 20.376 74.5079 20.0306 74.2534 19.7758L62.7259 8.24826C62.4711 7.99383 62.1257 7.85093 61.7655 7.85093C61.4054 7.85093 61.06 7.99383 60.8051 8.24826L57.8281 11.2171C56.283 10.4209 54.6726 9.75826 53.0145 9.23652V5.02246C53.0145 4.66193 52.8713 4.31617 52.6164 4.06124C52.3615 3.80631 52.0157 3.66309 51.6552 3.66309H35.3427C34.9821 3.66309 34.6364 3.80631 34.3814 4.06124C34.1265 4.31617 33.9833 4.66193 33.9833 5.02246V9.23652C32.3247 9.76025 30.7139 10.4247 29.1684 11.2226L26.1886 8.2469C25.9337 7.99206 25.588 7.84889 25.2276 7.84889C24.8671 7.84889 24.5214 7.99206 24.2665 8.2469L19.7534 12.7709C19.5061 13.0276 19.3695 13.3712 19.3731 13.7276C19.3767 14.0841 19.5202 14.4248 19.7726 14.6765C20.025 14.9282 20.3661 15.0707 20.7226 15.0733C21.079 15.0759 21.4222 14.9383 21.6782 14.6903V14.6958Z"
    fill="#29538E" />
  <path
    d="M39.0225 44.0457C39.1284 43.9406 39.2716 43.8817 39.4208 43.8817C39.57 43.8817 39.7132 43.9406 39.8191 44.0457C40.0755 44.2934 40.4188 44.4304 40.7753 44.4273C41.1317 44.4242 41.4726 44.2812 41.7247 44.0292C41.9767 43.7771 42.1197 43.4362 42.1228 43.0798C42.1259 42.7233 41.9889 42.38 41.7412 42.1236C41.1253 41.5091 40.2908 41.1641 39.4208 41.1641C38.5508 41.1641 37.7163 41.5091 37.1003 42.1236C36.8527 42.38 36.7157 42.7233 36.7188 43.0798C36.7219 43.4362 36.8649 43.7771 37.1169 44.0292C37.3689 44.2812 37.7099 44.4242 38.0663 44.4273C38.4227 44.4304 38.7661 44.2934 39.0225 44.0457Z"
    fill="#29538E" />
  <path
    d="M47.1787 44.0457C47.2847 43.9406 47.4278 43.8817 47.577 43.8817C47.7263 43.8817 47.8694 43.9406 47.9753 44.0457C48.2317 44.2934 48.5751 44.4304 48.9315 44.4273C49.2879 44.4242 49.6289 44.2812 49.8809 44.0292C50.133 43.7771 50.2759 43.4362 50.279 43.0798C50.2821 42.7233 50.1451 42.38 49.8975 42.1236C49.2816 41.5091 48.4471 41.1641 47.577 41.1641C46.707 41.1641 45.8725 41.5091 45.2566 42.1236C45.009 42.38 44.872 42.7233 44.8751 43.0798C44.8781 43.4362 45.0211 43.7771 45.2731 44.0292C45.5252 44.2812 45.8661 44.4242 46.2226 44.4273C46.579 44.4304 46.9224 44.2934 47.1787 44.0457Z"
    fill="#29538E" />
  <path
    d="M38.2911 49.1266C38.192 49.2752 38.1231 49.4417 38.0884 49.6169C38.0537 49.792 38.0539 49.9723 38.0888 50.1474C38.1238 50.3225 38.1929 50.4889 38.2922 50.6373C38.3915 50.7857 38.5191 50.913 38.6677 51.0121C40.0976 51.9692 41.7795 52.4802 43.5002 52.4802C45.2209 52.4802 46.9029 51.9692 48.3328 51.0121C48.4813 50.913 48.6089 50.7857 48.7082 50.6373C48.8075 50.4889 48.8766 50.3224 48.9116 50.1474C48.9466 49.9723 48.9467 49.792 48.912 49.6169C48.8773 49.4418 48.8084 49.2752 48.7094 49.1266C48.6103 48.9781 48.4829 48.8506 48.3346 48.7513C48.1862 48.6519 48.0197 48.5828 47.8446 48.5479C47.6695 48.5129 47.4893 48.5128 47.3142 48.5475C47.139 48.5822 46.9724 48.651 46.8239 48.7501C45.8402 49.4076 44.6835 49.7586 43.5002 49.7586C42.317 49.7586 41.1603 49.4076 40.1766 48.7501C40.028 48.651 39.8615 48.5821 39.6863 48.5474C39.5112 48.5127 39.3309 48.5128 39.1558 48.5478C38.9808 48.5828 38.8143 48.6519 38.6659 48.7512C38.5175 48.8505 38.3902 48.9781 38.2911 49.1266Z"
    fill="#29538E" />
  <path
    d="M55.7344 70.2725C55.3738 70.2725 55.0281 70.4157 54.7732 70.6706C54.5182 70.9255 54.375 71.2713 54.375 71.6318V83.8662C54.375 84.2267 54.5182 84.5725 54.7732 84.8274C55.0281 85.0824 55.3738 85.2256 55.7344 85.2256C56.0949 85.2256 56.4407 85.0824 56.6956 84.8274C56.9505 84.5725 57.0938 84.2267 57.0938 83.8662V71.6318C57.0938 71.2713 56.9505 70.9255 56.6956 70.6706C56.4407 70.4157 56.0949 70.2725 55.7344 70.2725Z"
    fill="#29538E" />
  <path
    d="M31.2656 70.2725C30.9051 70.2725 30.5593 70.4157 30.3044 70.6706C30.0495 70.9255 29.9062 71.2713 29.9062 71.6318V83.8662C29.9062 84.2267 30.0495 84.5725 30.3044 84.8274C30.5593 85.0824 30.9051 85.2256 31.2656 85.2256C31.6262 85.2256 31.9719 85.0824 32.2269 84.8274C32.4818 84.5725 32.625 84.2267 32.625 83.8662V71.6318C32.625 71.2713 32.4818 70.9255 32.2269 70.6706C31.9719 70.4157 31.6262 70.2725 31.2656 70.2725Z"
    fill="#29538E" />
  <path
    d="M84.0088 61.3003C83.8821 61.1314 83.718 60.9944 83.5292 60.9C83.3404 60.8057 83.1323 60.7565 82.9213 60.7565H81.7821C80.4161 60.7554 79.077 61.1368 77.9166 61.8576C76.7562 62.5783 75.8208 63.6096 75.2163 64.8346H72.0463C70.3226 64.8396 68.6655 65.5003 67.4112 66.6826C66.1569 67.865 65.3996 69.4802 65.2929 71.2006L65.2494 71.2794V70.2721C65.2467 69.3569 65.1409 68.4449 64.934 67.5534L74.258 58.2294C74.5128 57.9745 74.656 57.6288 74.656 57.2684C74.656 56.9079 74.5128 56.5622 74.258 56.3073L71.2864 53.3357C72.0846 51.7898 72.7517 50.1796 73.2806 48.5221H77.4838C77.8443 48.5221 78.1901 48.3789 78.445 48.124C78.6999 47.8691 78.8431 47.5233 78.8431 47.1628C78.8431 46.8022 78.6999 46.4565 78.445 46.2015C78.1901 45.9466 77.8443 45.8034 77.4838 45.8034H72.2706C71.9748 45.8034 71.687 45.8999 71.451 46.0783C71.215 46.2566 71.0436 46.5071 70.9629 46.7917C70.3588 48.9263 69.507 50.983 68.4249 52.9197C68.2787 53.1787 68.2214 53.4785 68.262 53.7732C68.3025 54.0678 68.4385 54.3411 68.6492 54.551L71.3747 57.2765L63.9104 64.7422C63.0963 63.1431 61.9411 61.7421 60.5264 60.6382C59.1117 59.5342 57.472 58.7542 55.7229 58.3531C59.0787 56.0667 61.7268 52.886 63.3672 49.1714C65.0076 45.4569 65.5746 41.3571 65.004 37.3367C64.4333 33.3164 62.7479 29.5363 60.1387 26.4249C57.5294 23.3135 54.1008 20.9953 50.2413 19.7329C46.3819 18.4706 42.246 18.3147 38.3025 19.2828C34.3589 20.251 30.7655 22.3045 27.9294 25.2106C25.0933 28.1167 23.128 31.7591 22.2563 35.7251C21.3846 39.691 21.6413 43.8219 22.9973 47.6494C23.1184 47.989 23.3695 48.2666 23.6953 48.4211C24.0211 48.5756 24.395 48.5943 24.7346 48.4732C25.0742 48.3521 25.3518 48.101 25.5063 47.7752C25.6608 47.4494 25.6795 47.0755 25.5584 46.7359C24.6216 44.0953 24.2818 41.2798 24.5634 38.4921C24.845 35.7044 25.741 33.0137 27.1869 30.6137V34.9284C27.1936 36.4566 27.5676 37.9609 28.2774 39.3143C28.9871 40.6678 30.0118 41.8308 31.265 42.7054V47.1628C31.2662 49.1735 31.763 51.153 32.7114 52.9261C33.6598 54.6991 35.0306 56.2111 36.7025 57.3282V58.0378H36.5C33.021 56.6682 30.0225 54.3042 27.8788 51.2409C27.6719 50.9456 27.3561 50.7447 27.001 50.6822C26.6459 50.6197 26.2805 50.7009 25.9852 50.9079C25.6899 51.1148 25.489 51.4306 25.4265 51.7857C25.364 52.1408 25.4452 52.5062 25.6522 52.8015C27.1777 54.9798 29.0887 56.8608 31.2908 58.3518C29.5389 58.7508 27.896 59.5299 26.4784 60.634C25.0608 61.738 23.903 63.14 23.087 64.7408L15.6227 57.2765L18.3414 54.5401C18.5517 54.3298 18.6872 54.0565 18.7272 53.7618C18.7673 53.4672 18.7096 53.1676 18.563 52.9089C17.481 50.9773 16.6326 48.9238 16.0359 46.7917C15.9555 46.5082 15.7851 46.2585 15.5505 46.0803C15.3159 45.9021 15.0297 45.8049 14.735 45.8034H10.8744V32.2096H14.735C15.0308 32.2096 15.3186 32.1131 15.5546 31.9348C15.7906 31.7564 15.962 31.506 16.0427 31.2214C16.6394 29.0893 17.4877 27.0358 18.5698 25.1042C18.7164 24.8455 18.7741 24.5458 18.734 24.2512C18.694 23.9566 18.5585 23.6832 18.3482 23.4729L15.6295 20.7392L17.833 18.5452C18.0813 18.2894 18.219 17.9463 18.2167 17.5898C18.2144 17.2333 18.0722 16.892 17.8206 16.6395C17.5691 16.3869 17.2284 16.2432 16.872 16.2393C16.5155 16.2355 16.1719 16.3718 15.915 16.619L12.7463 19.7727C12.4914 20.0276 12.3482 20.3733 12.3482 20.7338C12.3482 21.0943 12.4914 21.44 12.7463 21.6949L15.7165 24.6746C14.9181 26.2205 14.2532 27.8318 13.7291 29.4909H9.51502C9.15449 29.4909 8.80873 29.6341 8.5538 29.889C8.29887 30.144 8.15565 30.4897 8.15565 30.8503V47.1628C8.15565 47.5233 8.29887 47.8691 8.5538 48.124C8.80873 48.3789 9.15449 48.5221 9.51502 48.5221H13.7291C14.2528 50.1807 14.9172 51.7916 15.7151 53.3371L12.7395 56.3168C12.485 56.5717 12.3421 56.9171 12.3421 57.2772C12.3421 57.6373 12.485 57.9827 12.7395 58.2376L22.0621 67.5602C21.8561 68.4495 21.7513 69.3593 21.7494 70.2721V71.2794L21.7059 71.2006C21.5992 69.4802 20.8419 67.865 19.5876 66.6826C18.3333 65.5003 16.6762 64.8396 14.9525 64.8346H11.7825C11.178 63.6096 10.2426 62.5783 9.08219 61.8576C7.92177 61.1368 6.58271 60.7554 5.21668 60.7565H4.07752C3.86713 60.7566 3.65964 60.8055 3.47137 60.8994C3.2831 60.9934 3.1192 61.1297 2.99257 61.2977C2.86594 61.4657 2.78003 61.6608 2.74161 61.8677C2.70319 62.0745 2.71331 62.2875 2.77116 62.4897L4.36163 68.0632C4.77231 69.4805 5.63108 70.7266 6.80933 71.6149C7.98758 72.5033 9.4219 72.986 10.8975 72.9909H12.7096L17.7882 84.4178C17.9346 84.7473 18.2058 85.0052 18.5423 85.1347C18.8789 85.2642 19.253 85.2547 19.5826 85.1084C19.9121 84.962 20.17 84.6907 20.2995 84.3542C20.429 84.0177 20.4195 83.6435 20.2731 83.314L18.0098 78.2245L21.7236 76.8311L25.9988 84.5266C26.0856 84.6826 26.2022 84.82 26.3421 84.9309C26.4819 85.0419 26.6423 85.1242 26.8139 85.1732C26.9856 85.2221 27.1653 85.2368 27.3426 85.2164C27.5199 85.1959 27.6915 85.1408 27.8476 85.054C28.0036 84.9672 28.141 84.8506 28.2519 84.7107C28.3629 84.5709 28.4452 84.4105 28.4942 84.2389C28.5431 84.0672 28.5578 83.8875 28.5374 83.7102C28.5169 83.5329 28.4617 83.3613 28.375 83.2052L24.4681 76.1732V70.2721C24.471 67.7493 25.4745 65.3307 27.2584 63.5468C29.0423 61.7629 31.461 60.7594 33.9838 60.7565H34.363L36.7719 67.983C36.8332 68.1686 36.9338 68.3388 37.0669 68.4819C37.2 68.6251 37.3624 68.7379 37.543 68.8126C37.7237 68.8873 37.9183 68.9222 38.1137 68.9148C38.309 68.9075 38.5005 68.8581 38.675 68.77L39.5069 68.3527C39.6915 69.2762 40.19 70.1073 40.9177 70.705C41.6455 71.3026 42.5577 71.63 43.4994 71.6315C43.6353 71.6315 43.7713 71.6043 43.8963 71.5921L44.8017 80.6415L43.4994 81.9437L42.1971 80.6415L42.7572 75.0422C42.775 74.8646 42.7577 74.6852 42.7062 74.5142C42.6548 74.3433 42.5701 74.1842 42.4571 74.046C42.229 73.7668 41.8993 73.5897 41.5405 73.5537C41.3629 73.5358 41.1835 73.5531 41.0126 73.6046C40.8416 73.6561 40.6825 73.7407 40.5443 73.8537C40.2652 74.0819 40.0881 74.4116 40.052 74.7703L39.4281 81.0098C39.408 81.2103 39.4327 81.4127 39.5004 81.6024C39.5681 81.7921 39.6771 81.9644 39.8196 82.1069L42.5383 84.8256C42.7932 85.0805 43.1389 85.2236 43.4994 85.2236C43.8599 85.2236 44.2056 85.0805 44.4605 84.8256L47.1792 82.1069C47.3217 81.9644 47.4307 81.7921 47.4984 81.6024C47.5661 81.4127 47.5908 81.2103 47.5707 81.0098L46.4995 70.2925C47.0028 69.7485 47.3479 69.0773 47.4973 68.3514L48.3293 68.7687C48.5038 68.8567 48.6952 68.9061 48.8906 68.9135C49.0859 68.9208 49.2805 68.886 49.4612 68.8112C49.6418 68.7365 49.8042 68.6238 49.9373 68.4806C50.0704 68.3374 50.171 68.1672 50.2324 67.9816L52.6358 60.7565H53.015C55.5378 60.7594 57.9565 61.7629 59.7404 63.5468C61.5243 65.3307 62.5278 67.7493 62.5306 70.2721V76.1732L58.6238 83.2052C58.4486 83.5203 58.4057 83.8921 58.5046 84.2389C58.6035 84.5856 58.8361 84.8788 59.1512 85.054C59.4663 85.2292 59.8381 85.2721 60.1849 85.1732C60.5316 85.0742 60.8248 84.8417 61 84.5266L65.2752 76.8311L68.9877 78.2245L66.7257 83.314C66.6532 83.4772 66.6136 83.653 66.6091 83.8315C66.6045 84.01 66.6352 84.1876 66.6993 84.3542C66.7635 84.5208 66.8598 84.6732 66.9828 84.8026C67.1058 84.932 67.2531 85.0359 67.4162 85.1084C67.5794 85.1808 67.7552 85.2205 67.9337 85.225C68.1122 85.2295 68.2898 85.1988 68.4565 85.1347C68.6231 85.0706 68.7754 84.9743 68.9048 84.8513C69.0342 84.7283 69.1381 84.581 69.2106 84.4178L74.2892 72.9909H76.1013C77.5769 72.9861 79.0113 72.5032 80.1894 71.6145C81.3675 70.7259 82.2258 69.4794 82.6358 68.0618L84.2276 62.4884C84.2852 62.2869 84.2954 62.0748 84.2574 61.8687C84.2195 61.6626 84.1344 61.468 84.0088 61.3003ZM6.97571 67.3141L5.88821 63.5256C6.72985 63.6498 7.52049 64.0052 8.17211 64.5521C8.82372 65.0991 9.31073 65.8162 9.57891 66.6236C9.6694 66.8953 9.84336 67.1314 10.076 67.2984C10.3086 67.4654 10.588 67.5546 10.8744 67.5534H14.9525C15.7957 67.5544 16.6179 67.8163 17.3064 68.303C17.9949 68.7898 18.516 69.4776 18.7982 70.2721H10.8975C10.0119 70.2692 9.15117 69.9793 8.44415 69.4461C7.73713 68.9128 7.22193 68.1648 6.97571 67.3141ZM16.8991 75.7341L15.6852 72.9909H19.5907L20.39 74.4278L16.8991 75.7341ZM62.5306 40.3659C62.544 44.1823 61.4014 47.9132 59.2532 51.0677C57.1051 54.2221 54.0521 56.6521 50.4961 58.0378H50.2963V57.3282C51.9682 56.2111 53.339 54.6991 54.2874 52.9261C55.2358 51.153 55.7326 49.1735 55.7338 47.1628V42.7054C57.3958 41.5504 58.6452 39.8947 59.2999 37.9796C59.9547 36.0646 59.9804 33.9905 59.3733 32.0598C58.7662 30.1291 57.5581 28.4429 55.9252 27.2472C54.2924 26.0514 52.3201 25.4087 50.2963 25.4128H31.7653C34.5692 23.2028 37.939 21.8275 41.4886 21.4444C45.0381 21.0612 48.6238 21.6857 51.8348 23.2464C55.0458 24.807 57.7522 27.2407 59.6438 30.2685C61.5355 33.2963 62.536 36.7957 62.5306 40.3659ZM43.4994 62.9125L39.4213 58.8344V58.6835C42.0568 59.635 44.942 59.635 47.5775 58.6835V58.8344L43.4994 62.9125ZM33.9838 47.1628V35.744C36.9511 37.0815 40.1071 37.9527 43.3403 38.3268C43.6952 38.3628 44.0501 38.2579 44.3283 38.0346C44.6065 37.8114 44.7858 37.4877 44.8276 37.1335C44.8693 36.7792 44.7701 36.4227 44.5514 36.1409C44.3327 35.8591 44.012 35.6746 43.6584 35.6271C40.324 35.24 37.0826 34.274 34.0803 32.7724L33.232 32.3483C33.0244 32.2446 32.7937 32.1957 32.5619 32.2064C32.33 32.217 32.1048 32.2869 31.9076 32.4093C31.7104 32.5317 31.5478 32.7025 31.4353 32.9055C31.3228 33.1085 31.2642 33.3369 31.265 33.569V38.9848C30.3866 37.8145 29.9098 36.3917 29.9056 34.9284V28.1315H50.2963C51.5574 28.1285 52.7943 28.4772 53.8681 29.1385C54.9419 29.7997 55.81 30.7473 56.3749 31.8748C56.9398 33.0023 57.179 34.265 57.0658 35.521C56.9525 36.777 56.4912 37.9765 55.7338 38.9848V36.2878C55.7338 36.0811 55.6867 35.8772 55.596 35.6915C55.5054 35.5058 55.3736 35.3433 55.2107 35.2161C55.0478 35.089 54.8581 35.0007 54.6559 34.9579C54.4538 34.9151 54.2445 34.919 54.0441 34.9692C52.341 35.3932 50.6029 35.6612 48.8513 35.7698C48.6727 35.7811 48.4982 35.8274 48.3376 35.9061C48.1769 35.9848 48.0334 36.0944 47.9151 36.2286C47.7968 36.3627 47.7062 36.5189 47.6482 36.6881C47.5903 36.8574 47.5663 37.0363 47.5775 37.2149C47.5888 37.3934 47.6351 37.5679 47.7138 37.7286C47.7925 37.8892 47.9021 38.0327 48.0362 38.151C48.1704 38.2693 48.3266 38.36 48.4958 38.4179C48.665 38.4758 48.844 38.4998 49.0225 38.4886C50.3628 38.4027 51.6962 38.2324 53.015 37.9788V47.1628C53.015 49.6865 52.0125 52.1068 50.228 53.8913C48.4434 55.6759 46.0231 56.6784 43.4994 56.6784C40.9757 56.6784 38.5554 55.6759 36.7708 53.8913C34.9863 52.1068 33.9838 49.6865 33.9838 47.1628ZM37.2286 60.7565H37.5005L41.2061 64.4622L38.8571 65.6367L37.2286 60.7565ZM44.8588 67.5534C44.8588 67.9139 44.7156 68.2597 44.4606 68.5146C44.2057 68.7696 43.8599 68.9128 43.4994 68.9128C43.1389 68.9128 42.7931 68.7696 42.5382 68.5146C42.2832 68.2597 42.14 67.9139 42.14 67.5534V67.0341L43.4994 66.3544L44.8588 67.0341V67.5534ZM48.143 65.6367L45.794 64.4622L49.4997 60.7565H49.7716L48.143 65.6367ZM70.0942 75.7341L66.6088 74.4278L67.4081 72.9909H71.3136L70.0942 75.7341ZM80.0176 67.3141C79.7715 68.1638 79.2571 68.911 78.5512 69.4442C77.8453 69.9773 76.9859 70.2678 76.1013 70.2721H68.2006C68.4828 69.4776 69.0039 68.7898 69.6924 68.303C70.3809 67.8163 71.2031 67.5544 72.0463 67.5534H76.1244C76.4098 67.5535 76.688 67.4637 76.9196 67.2968C77.1511 67.1299 77.3243 66.8944 77.4144 66.6236C77.6826 65.8162 78.1696 65.0991 78.8213 64.5521C79.4729 64.0052 80.2635 63.6498 81.1051 63.5256L80.0176 67.3141Z"
    fill="#29538E" />
</svg>