<svg width="87" height="88" viewBox="0 0 87 88" fill="none" xmlns="http://www.w3.org/2000/svg">
  <path
    d="M36.6524 19.9618L42.2925 20.1725L55.5994 33.4604L55.1916 35.8203C55.1488 36.0703 55.1767 36.3272 55.2723 36.5622C55.3679 36.7971 55.5273 37.0006 55.7325 37.1497C55.9377 37.2987 56.1806 37.3874 56.4335 37.4057C56.6865 37.424 56.9395 37.3711 57.164 37.253L58.6227 36.4864L69.4283 47.2988C69.6847 47.5464 70.0281 47.6835 70.3845 47.6804C70.7409 47.6773 71.0819 47.5343 71.3339 47.2823C71.586 47.0302 71.7289 46.6893 71.732 46.3329C71.7351 45.9764 71.5981 45.6331 71.3505 45.3767L61.1402 35.1664L66.6103 32.2859L76.0594 37.253C76.2838 37.3703 76.5365 37.4226 76.789 37.404C77.0415 37.3853 77.2838 37.2965 77.4886 37.1476C77.6934 36.9986 77.8525 36.7955 77.948 36.5609C78.0435 36.3264 78.0716 36.0699 78.0291 35.8203L76.2252 25.2987L83.8744 17.848C84.0562 17.671 84.1847 17.4466 84.2456 17.2003C84.3065 16.954 84.2972 16.6956 84.2189 16.4543C84.1405 16.213 83.9962 15.9984 83.8022 15.8349C83.6083 15.6713 83.3724 15.5653 83.1213 15.5289L71.8494 13.8976C71.6717 13.8695 71.4901 13.877 71.3153 13.9195C71.1405 13.9621 70.9758 14.039 70.8309 14.1456C70.686 14.2523 70.5638 14.3867 70.4712 14.541C70.3787 14.6953 70.3177 14.8665 70.2917 15.0445C70.2658 15.2226 70.2755 15.404 70.3203 15.5783C70.365 15.7526 70.4439 15.9163 70.5524 16.0598C70.6609 16.2034 70.7968 16.324 70.9522 16.4146C71.1076 16.5052 71.2795 16.5641 71.4579 16.5878L75.4436 17.1669L67.9697 18.8376V10.8472L68.3517 11.6207C68.5159 11.9358 68.7971 12.1741 69.1348 12.2845C69.4726 12.3949 69.8402 12.3687 70.1588 12.2114C70.4775 12.0541 70.7219 11.7783 70.8397 11.443C70.9575 11.1077 70.9393 10.7397 70.7891 10.4176L67.8338 4.42142C67.7087 4.20948 67.5305 4.03382 67.3168 3.9118C67.1031 3.78977 66.8612 3.72559 66.6151 3.72559C66.369 3.72559 66.1271 3.78977 65.9134 3.9118C65.6997 4.03382 65.5215 4.20948 65.3964 4.42142L60.6672 13.9941L50.1021 15.5289C49.851 15.5653 49.6152 15.6713 49.4212 15.8349C49.2272 15.9984 49.0829 16.213 49.0045 16.4543C48.9262 16.6956 48.9169 16.954 48.9778 17.2003C49.0387 17.4466 49.1672 17.671 49.349 17.848L56.9928 25.2987L56.1554 30.1802L43.8367 17.8724C43.5944 17.6303 43.2696 17.4885 42.9273 17.4755L36.7557 17.2444C36.5767 17.2353 36.3976 17.2621 36.2291 17.3233C36.0605 17.3845 35.9059 17.4788 35.7744 17.6007C35.6429 17.7225 35.5371 17.8695 35.4633 18.0329C35.3895 18.1963 35.3492 18.3729 35.3447 18.5521C35.338 18.7306 35.3665 18.9086 35.4286 19.076C35.4906 19.2434 35.5851 19.397 35.7065 19.5279C35.828 19.6588 35.974 19.7645 36.1363 19.8389C36.2986 19.9134 36.474 19.9551 36.6524 19.9618ZM65.9782 29.5468L60.5067 32.4232L66.6103 23.0313L72.7139 32.4232L67.2425 29.5468C67.0475 29.4443 66.8306 29.3908 66.6103 29.3908C66.3901 29.3908 66.1732 29.4443 65.9782 29.5468ZM73.4263 25.0608L74.2419 29.7846L68.8207 21.4408L78.5402 19.259L73.815 23.851C73.6576 24.005 73.54 24.195 73.4723 24.4045C73.4045 24.6141 73.3888 24.837 73.4263 25.054V25.0608ZM61.7642 16.577C61.9825 16.5455 62.19 16.4613 62.3685 16.3318C62.5471 16.2023 62.6915 16.0312 62.7891 15.8334L65.251 10.8485V18.8376L57.7744 17.1601L61.7642 16.577ZM54.6845 19.2481L64.4054 21.4299L58.9842 29.7778L59.7999 25.054C59.837 24.8368 59.8208 24.6138 59.7526 24.4042C59.6844 24.1946 59.5663 24.0047 59.4084 23.851L54.6845 19.2481Z"
    fill="#29538E" />
  <path
    d="M75.1976 49.2199C74.9427 48.9645 74.5968 48.8208 74.2359 48.8204C73.8751 48.82 73.5289 48.963 73.2734 49.2179C73.018 49.4728 72.8743 49.8187 72.8739 50.1795C72.8735 50.5404 73.0165 50.8866 73.2714 51.1421L80.3646 58.2353C81.127 59.0028 81.5549 60.0408 81.5549 61.1226C81.5549 62.2044 81.127 63.2424 80.3646 64.0099L63.0598 81.3148C62.2927 82.077 61.2552 82.5048 60.1738 82.5048C59.0924 82.5048 58.0549 82.077 57.2879 81.3148L41.5381 65.546L47.1714 60.0772C47.3531 59.9002 47.4817 59.6759 47.5426 59.4296C47.6035 59.1833 47.5942 58.9249 47.5158 58.6835C47.4375 58.4422 47.2932 58.2277 47.0992 58.0641C46.9052 57.9006 46.6694 57.7946 46.4183 57.7581L32.5663 55.7449L26.3729 43.187C26.2479 42.9747 26.0697 42.7988 25.8558 42.6765C25.642 42.5543 25.3999 42.49 25.1536 42.49C24.9073 42.49 24.6652 42.5543 24.4513 42.6765C24.2375 42.7988 24.0592 42.9747 23.9342 43.187L22.3642 46.3666L19.2376 43.24L18.7088 29.006C19.459 29.222 20.2276 29.3676 21.0048 29.441C21.4414 30.1277 22.0267 30.7077 22.7173 31.1381C23.408 31.5685 24.1864 31.8384 24.9953 31.9279C25.8041 32.0174 26.6228 31.9242 27.3908 31.6552C28.1588 31.3862 28.8567 30.9482 29.4329 30.3735C30.0681 29.7407 30.5369 28.9607 30.7976 28.1029C31.0584 27.2451 31.103 26.3361 30.9275 25.4569C30.7519 24.5777 30.3617 23.7555 29.7916 23.0636C29.2214 22.3717 28.489 21.8315 27.6595 21.4911C26.8301 21.1507 25.9294 21.0207 25.0375 21.1126C24.1457 21.2046 23.2904 21.5156 22.5479 22.0181C21.8053 22.5206 21.1986 23.1988 20.7816 23.9925C20.3646 24.7862 20.1503 25.6707 20.1579 26.5673C19.6303 26.4533 19.1108 26.3048 18.6028 26.1228L18.3486 19.2837L31.2395 19.7595C31.4188 19.77 31.5983 19.7441 31.7672 19.6834C31.9362 19.6227 32.0912 19.5284 32.2227 19.4062C32.3543 19.284 32.4598 19.1365 32.5328 18.9725C32.6059 18.8084 32.645 18.6313 32.6478 18.4518C32.6546 18.2734 32.6261 18.0954 32.564 17.9279C32.5019 17.7605 32.4074 17.607 32.286 17.4761C32.1646 17.3451 32.0185 17.2394 31.8562 17.165C31.6939 17.0905 31.5185 17.0488 31.3401 17.0421L27.001 16.8831C25.7799 14.3563 24.1348 12.0574 22.1371 10.0862C19.5395 7.3849 16.3202 5.36035 12.7602 4.18924C9.30192 3.17243 6.3779 3.62782 4.53187 5.47521C2.68584 7.3226 2.22093 10.2439 3.2459 13.7035C4.41762 17.2598 6.44113 20.4757 9.14015 23.071C11.1118 25.0687 13.4106 26.7147 15.937 27.9375L16.5297 43.8694C16.5414 44.2124 16.6834 44.5381 16.9267 44.7802L21.0877 48.9412L17.7328 55.7381L3.88345 57.7513C3.63075 57.7864 3.39302 57.8919 3.19744 58.0557C3.00186 58.2195 2.85633 58.4351 2.77748 58.6777C2.69864 58.9203 2.68966 59.1803 2.75159 59.4277C2.81351 59.6752 2.94382 59.9003 3.12764 60.0772L10.4397 67.2058C10.698 67.4582 11.046 67.5976 11.4071 67.5934C11.7682 67.5892 12.1129 67.4417 12.3653 67.1834C12.6176 66.925 12.7571 66.577 12.7529 66.2159C12.7486 65.8548 12.6012 65.5102 12.3428 65.2578L8.4659 61.4747L22.9446 64.7249L14.5817 77.5941L15.9547 69.5956C16.0156 69.2401 15.9328 68.875 15.7246 68.5805C15.5163 68.2861 15.1996 68.0864 14.8441 68.0255C14.4886 67.9646 14.1235 68.0473 13.829 68.2556C13.5346 68.4639 13.3349 68.7806 13.274 69.1361L10.7877 83.6366C10.7449 83.8866 10.7728 84.1435 10.8684 84.3785C10.964 84.6134 11.1234 84.8169 11.3286 84.966C11.5339 85.115 11.7767 85.2037 12.0297 85.222C12.2826 85.2402 12.5357 85.1874 12.7602 85.0693L25.1495 78.5566L37.5389 85.0693C37.7634 85.1874 38.0164 85.2402 38.2694 85.222C38.5223 85.2037 38.7652 85.115 38.9704 84.966C39.1756 84.8169 39.335 84.6134 39.4306 84.3785C39.5262 84.1435 39.5541 83.8866 39.5113 83.6366L37.146 69.8403L39.5929 67.4505L55.3752 83.241C56.6531 84.5101 58.381 85.2223 60.182 85.2223C61.9829 85.2223 63.7108 84.5101 64.9887 83.241L82.2936 65.9361C83.5635 64.6582 84.2762 62.9297 84.2762 61.128C84.2762 59.3264 83.5635 57.5979 82.2936 56.3199L75.1976 49.2199ZM27.5012 28.4446C27.124 28.8215 26.6443 29.0792 26.1217 29.1856C25.5991 29.2919 25.0568 29.2422 24.5623 29.0427C25.3787 28.7562 26.1202 28.2898 26.732 27.678C27.3438 27.0663 27.8102 26.3247 28.0966 25.5083C28.2959 26.0023 28.3457 26.5439 28.2399 27.0659C28.134 27.5879 27.8772 28.0673 27.5012 28.4446ZM23.6542 24.5975C23.9064 24.3449 24.206 24.1446 24.5359 24.0081C24.8658 23.8716 25.2194 23.8017 25.5764 23.8023C25.6307 23.8023 25.6837 23.8145 25.7381 23.8186C25.6576 24.5505 25.3302 25.2332 24.8098 25.754C24.2894 26.2749 23.6071 26.603 22.8753 26.6842C22.8493 26.301 22.9053 25.9167 23.0396 25.5568C23.174 25.197 23.3835 24.87 23.6542 24.5975ZM11.0623 21.1488C8.68433 18.8758 6.89674 16.057 5.85454 12.9368C5.14087 10.5117 5.35973 8.49303 6.45403 7.39737C7.54833 6.30171 9.56836 6.08421 11.9935 6.79789C15.1136 7.84008 17.9324 9.62767 20.2055 12.0057C21.6297 13.426 22.8635 15.0253 23.8758 16.7635L16.9715 16.5093C16.7845 16.5009 16.5979 16.5319 16.4237 16.6003C16.2494 16.6687 16.0915 16.7729 15.9601 16.9062C15.828 17.0384 15.7245 17.1965 15.6562 17.3705C15.5879 17.5445 15.5563 17.7308 15.5632 17.9176L15.8201 24.8232C14.0817 23.8098 12.4823 22.5746 11.0623 21.1488ZM31.4652 58.3264L38.7392 59.3826L26.5048 62.1285V49.61L30.4375 57.5787C30.5349 57.7776 30.6795 57.9497 30.8586 58.08C31.0377 58.2103 31.2459 58.2949 31.4652 58.3264ZM11.5558 59.3839L18.8298 58.3264C19.0479 58.2947 19.255 58.2104 19.4334 58.0809C19.6117 57.9514 19.7558 57.7804 19.8534 57.5828L23.7901 49.61V62.1299L11.5558 59.3839ZM24.5133 75.8174L16.1015 80.2395L25.1495 66.3222L34.1934 80.2395L25.7816 75.8174C25.5869 75.7143 25.3699 75.6605 25.1495 75.6605C24.9292 75.6605 24.7122 75.7143 24.5174 75.8174H24.5133ZM34.3443 69.5929L35.7159 77.5914L27.3544 64.7222L41.8331 61.472L34.7358 68.3898C34.5779 68.5436 34.4598 68.7334 34.3916 68.943C34.3234 69.1526 34.3072 69.3756 34.3443 69.5929Z"
    fill="#29538E" />
  <path
    d="M37.3256 38.2686C38.112 38.2295 38.8702 37.963 39.508 37.5014C40.1459 37.0397 40.6361 36.4029 40.9191 35.6681C41.202 34.9333 41.2656 34.1322 41.1022 33.362C40.9387 32.5917 40.5552 31.8855 39.9981 31.329L38.0746 29.4069C37.8149 29.1613 37.471 29.0244 37.1135 29.0244C36.7561 29.0244 36.4122 29.1613 36.1524 29.4069L28.4625 37.0955C28.2076 37.3504 28.0645 37.6961 28.0645 38.0566C28.0645 38.417 28.2076 38.7627 28.4625 39.0176L30.386 40.9412C30.9413 41.5012 31.6477 41.8875 32.4189 42.0527C33.1901 42.2179 33.9927 42.1549 34.7287 41.8715C35.4647 41.588 36.1022 41.0964 36.5634 40.4566C37.0245 39.8168 37.2894 39.0565 37.3256 38.2686ZM37.1135 32.2874L38.076 33.2485C38.3309 33.5035 38.474 33.8494 38.4739 34.21C38.4737 34.5706 38.3304 34.9164 38.0753 35.1713C37.8202 35.4262 37.4743 35.5693 37.1137 35.5692C36.7531 35.5691 36.4073 35.4257 36.1524 35.1706L35.1914 34.2095L37.1135 32.2874ZM34.2303 39.0163C33.9754 39.2711 33.6297 39.4143 33.2692 39.4143C32.9088 39.4143 32.5631 39.2711 32.3081 39.0163L31.3471 38.0538L33.2692 36.1317L34.2303 37.0928C34.3571 37.2191 34.4577 37.3692 34.5264 37.5344C34.595 37.6997 34.6303 37.8769 34.6303 38.0559C34.6303 38.2349 34.595 38.4121 34.5264 38.5773C34.4577 38.7426 34.3571 38.8927 34.2303 39.019V39.0163Z"
    fill="#29538E" />
  <path
    d="M39.997 48.631C39.8672 48.7564 39.7636 48.9064 39.6924 49.0722C39.6211 49.2381 39.5836 49.4164 39.5821 49.5969C39.5805 49.7774 39.6149 49.9564 39.6832 50.1235C39.7516 50.2906 39.8525 50.4423 39.9802 50.57C40.1078 50.6976 40.2596 50.7985 40.4266 50.8669C40.5937 50.9352 40.7727 50.9696 40.9532 50.9681C41.1337 50.9665 41.3121 50.929 41.4779 50.8578C41.6438 50.7865 41.7938 50.683 41.9192 50.5531L43.8427 48.631C44.5516 47.9166 44.9693 46.9639 45.0145 45.9584C45.7995 45.9181 46.556 45.6512 47.1925 45.19C47.829 44.7287 48.3183 44.0929 48.601 43.3595C48.8837 42.626 48.9479 41.8264 48.7857 41.0572C48.6235 40.2881 48.2418 39.5824 47.687 39.0256L45.7635 37.1021C45.5086 36.8473 45.1629 36.7041 44.8024 36.7041C44.4419 36.7041 44.0962 36.8473 43.8413 37.1021L36.1513 44.7935C36.0215 44.9188 35.9179 45.0688 35.8467 45.2347C35.7754 45.4005 35.7379 45.5789 35.7364 45.7594C35.7348 45.9399 35.7692 46.1189 35.8376 46.286C35.9059 46.453 36.0068 46.6048 36.1345 46.7325C36.2621 46.8601 36.4139 46.961 36.581 47.0294C36.748 47.0977 36.927 47.1321 37.1075 47.1306C37.288 47.129 37.4664 47.0915 37.6322 47.0202C37.7981 46.949 37.9481 46.8454 38.0735 46.7156L40.9581 43.831L41.9192 44.7935C42.174 45.0484 42.3172 45.3941 42.3172 45.7545C42.3172 46.115 42.174 46.4607 41.9192 46.7156L39.997 48.631ZM44.8024 39.9799L45.7635 40.941C46.0111 41.1974 46.1481 41.5407 46.145 41.8972C46.1419 42.2536 45.999 42.5945 45.7469 42.8466C45.4949 43.0986 45.1539 43.2416 44.7975 43.2447C44.4411 43.2478 44.0977 43.1108 43.8413 42.8631L42.8802 41.9021L44.8024 39.9799Z"
    fill="#29538E" />
  <path
    d="M47.6876 56.3211C47.5578 56.4465 47.4542 56.5965 47.383 56.7624C47.3117 56.9282 47.2742 57.1066 47.2727 57.2871C47.2711 57.4676 47.3055 57.6466 47.3738 57.8137C47.4422 57.9807 47.5431 58.1325 47.6708 58.2601C47.7984 58.3878 47.9502 58.4887 48.1172 58.5571C48.2843 58.6254 48.4633 58.6598 48.6438 58.6582C48.8243 58.6567 49.0027 58.6192 49.1685 58.5479C49.3344 58.4767 49.4844 58.3731 49.6098 58.2433L55.3762 52.4755C56.1408 51.7107 56.5703 50.6736 56.5703 49.5922C56.5703 48.5108 56.1408 47.4738 55.3762 46.709C54.5995 45.9669 53.5666 45.5527 52.4923 45.5527C51.418 45.5527 50.3851 45.9669 49.6084 46.709L43.8406 52.4755C43.593 52.7318 43.4559 53.0752 43.459 53.4316C43.4621 53.7881 43.6051 54.129 43.8571 54.3811C44.1092 54.6331 44.4501 54.7761 44.8065 54.7792C45.163 54.7823 45.5064 54.6452 45.7627 54.3976L48.6487 51.513L50.5695 53.4365L47.6876 56.3211ZM50.5708 49.5922L51.5333 48.6311C51.7918 48.3838 52.1359 48.2457 52.4937 48.2457C52.8515 48.2457 53.1955 48.3838 53.4541 48.6311C53.7089 48.8861 53.8521 49.2318 53.8521 49.5922C53.8521 49.9527 53.7089 50.2984 53.4541 50.5533L52.493 51.5144L50.5708 49.5922Z"
    fill="#29538E" />
  <path
    d="M55.6237 66.1276C55.8841 66.2888 56.1913 66.3572 56.4956 66.322C56.7998 66.2867 57.0832 66.1497 57.2998 65.9332L64.9898 58.2432C65.2374 57.9869 65.3744 57.6435 65.3713 57.2871C65.3682 56.9306 65.2253 56.5897 64.9732 56.3376C64.7212 56.0856 64.3802 55.9426 64.0238 55.9395C63.6674 55.9365 63.324 56.0735 63.0676 56.3211L59.449 59.9411L61.4731 53.8701C61.5704 53.5795 61.5667 53.2645 61.4625 52.9763C61.3582 52.688 61.1597 52.4435 60.899 52.2823C60.6383 52.1211 60.3308 52.0527 60.0264 52.0883C59.722 52.1238 59.4385 52.2612 59.222 52.4781L51.532 60.1681C51.2844 60.4245 51.1473 60.7679 51.1504 61.1243C51.1535 61.4807 51.2965 61.8217 51.5485 62.0737C51.8006 62.3258 52.1415 62.4687 52.498 62.4718C52.8544 62.4749 53.1978 62.3379 53.4541 62.0903L57.0728 58.4716L55.0487 64.5439C54.9525 64.8341 54.9569 65.1483 55.0613 65.4356C55.1656 65.723 55.3637 65.9668 55.6237 66.1276Z"
    fill="#29538E" />
  <path
    d="M61.1444 71.6999C61.5231 72.0786 61.9727 72.3791 62.4675 72.5841C62.9623 72.7891 63.4927 72.8946 64.0283 72.8946C64.5639 72.8946 65.0943 72.7891 65.5891 72.5841C66.0839 72.3791 66.5335 72.0786 66.9122 71.6999L70.7565 67.8556C71.5211 67.0908 71.9505 66.0537 71.9505 64.9723C71.9505 63.891 71.5211 62.8539 70.7565 62.0891L68.8344 60.1656C68.5795 59.9107 68.2337 59.7676 67.8733 59.7676C67.5128 59.7676 67.1671 59.9107 66.9122 60.1656L59.2222 67.8556C58.9674 68.1105 58.8242 68.4562 58.8242 68.8167C58.8242 69.1771 58.9674 69.5228 59.2222 69.7777L61.1444 71.6999ZM67.8733 63.0488L68.8344 64.0113C69.0892 64.2662 69.2324 64.6119 69.2324 64.9723C69.2324 65.3328 69.0892 65.6785 68.8344 65.9334L64.9901 69.7777C64.7351 70.0326 64.3894 70.1757 64.029 70.1757C63.6685 70.1757 63.3228 70.0326 63.0679 69.7777L62.1055 68.8167L67.8733 63.0488Z"
    fill="#29538E" />
</svg>