<svg width="87" height="88" viewBox="0 0 87 88" fill="none" xmlns="http://www.w3.org/2000/svg">
  <path
    d="M82.5766 76.0797L67.0675 61.8702C69.7103 57.8957 70.965 53.1591 70.6363 48.3975C70.3076 43.636 68.4139 39.1167 65.25 35.5431V22.6943C65.25 22.3338 65.1068 21.988 64.8518 21.7331C64.5969 21.4782 64.2512 21.335 63.8906 21.335H4.07812C3.7176 21.335 3.37183 21.4782 3.1169 21.7331C2.86197 21.988 2.71875 22.3338 2.71875 22.6943V32.21C2.71875 32.5705 2.86197 32.9163 3.1169 33.1712C3.37183 33.4261 3.7176 33.5693 4.07812 33.5693C4.43865 33.5693 4.78442 33.4261 5.03935 33.1712C5.29428 32.9163 5.4375 32.5705 5.4375 32.21V24.0537H62.5312V32.9304C59.0044 30.0856 54.6738 28.4191 50.1497 28.1657C45.6256 27.9123 41.136 29.0848 37.3135 31.518C37.0088 31.7111 36.7934 32.0173 36.7145 32.3692C36.6356 32.7211 36.6997 33.09 36.8928 33.3947C37.0858 33.6993 37.392 33.9148 37.7439 33.9937C38.0959 34.0726 38.4647 34.0084 38.7694 33.8154C42.8647 31.2155 47.795 30.2695 52.5618 31.1689C57.3285 32.0683 61.5752 34.7459 64.4415 38.6593C67.3078 42.5727 68.5795 47.4293 67.999 52.2453C67.4184 57.0613 65.029 61.4765 61.3147 64.5966C57.6005 67.7167 52.8391 69.3084 47.9952 69.0492C43.1513 68.7901 38.587 66.6994 35.2269 63.2008C31.8668 59.7021 29.9622 55.0571 29.8988 50.2067C29.8354 45.3563 31.6181 40.6631 34.8856 37.0779C35.1286 36.8113 35.2558 36.4591 35.2391 36.0987C35.2224 35.7384 35.0632 35.3994 34.7966 35.1564C34.53 34.9134 34.1778 34.7863 33.8174 34.803C33.4571 34.8197 33.1181 34.9788 32.8751 35.2454C30.8189 37.509 29.2622 40.1801 28.3063 43.085H27.1875V39.0068C27.1875 38.6463 27.0443 38.3005 26.7893 38.0456C26.5344 37.7907 26.1887 37.6475 25.8281 37.6475H20.3906V34.9287H25.8281C26.1887 34.9287 26.5344 34.7855 26.7893 34.5306C27.0443 34.2756 27.1875 33.9299 27.1875 33.5693V28.1318C27.1875 27.7713 27.0443 27.4255 26.7893 27.1706C26.5344 26.9157 26.1887 26.7725 25.8281 26.7725H12.2344C11.8738 26.7725 11.5281 26.9157 11.2732 27.1706C11.0182 27.4255 10.875 27.7713 10.875 28.1318V33.5693C10.875 33.9299 11.0182 34.2756 11.2732 34.5306C11.5281 34.7855 11.8738 34.9287 12.2344 34.9287H17.6719V37.6475H12.2344C11.8738 37.6475 11.5281 37.7907 11.2732 38.0456C11.0182 38.3005 10.875 38.6463 10.875 39.0068V43.085H9.51562C9.1551 43.085 8.80933 43.2282 8.5544 43.4831C8.29947 43.738 8.15625 44.0838 8.15625 44.4443V49.8818C8.15625 50.2424 8.29947 50.5881 8.5544 50.8431C8.80933 51.098 9.1551 51.2412 9.51562 51.2412H10.875V53.96H9.51562C9.1551 53.96 8.80933 54.1032 8.5544 54.3581C8.29947 54.613 8.15625 54.9588 8.15625 55.3193V60.7568C8.15625 61.1174 8.29947 61.4631 8.5544 61.7181C8.80933 61.973 9.1551 62.1162 9.51562 62.1162H14.9531C15.3137 62.1162 15.6594 61.973 15.9143 61.7181C16.1693 61.4631 16.3125 61.1174 16.3125 60.7568V59.3975H21.75V60.7568C21.75 61.1174 21.8932 61.4631 22.1482 61.7181C22.4031 61.973 22.7488 62.1162 23.1094 62.1162H28.5469C28.9074 62.1162 29.2532 61.973 29.5081 61.7181C29.763 61.4631 29.9062 61.1174 29.9062 60.7568V60.3884C30.8066 62.0031 31.9078 63.4972 33.1837 64.835H5.4375V37.6475C5.4375 37.2869 5.29428 36.9412 5.03935 36.6862C4.78442 36.4313 4.43865 36.2881 4.07812 36.2881C3.7176 36.2881 3.37183 36.4313 3.1169 36.6862C2.86197 36.9412 2.71875 37.2869 2.71875 37.6475V66.1943C2.71875 66.5549 2.86197 66.9006 3.1169 67.1556C3.37183 67.4105 3.7176 67.5537 4.07812 67.5537H36.3062C39.8763 70.1248 44.1456 71.5461 48.5445 71.628C52.9433 71.7098 57.2625 70.4483 60.9258 68.0118L66.0833 73.6383C66.327 73.904 66.6663 74.062 67.0265 74.0775C67.3867 74.0931 67.7384 73.9649 68.0041 73.7212C68.2698 73.4775 68.4278 73.1382 68.4434 72.778C68.4589 72.4177 68.3307 72.0661 68.087 71.8004L63.0981 66.3561C63.9249 65.6445 64.6974 64.872 65.409 64.0452L80.7346 78.0807C80.9906 78.3156 81.1959 78.6003 81.3383 78.9172C81.4806 79.2341 81.5569 79.5767 81.5625 79.924C81.5696 80.2657 81.5073 80.6053 81.3792 80.9221C81.2512 81.239 81.0601 81.5266 80.8176 81.7673C80.5828 82.0161 80.297 82.211 79.9797 82.3386C79.6624 82.4663 79.3213 82.5237 78.9797 82.5068C78.6348 82.502 78.2944 82.4272 77.9792 82.287C77.664 82.1468 77.3805 81.9441 77.1459 81.6912L71.7628 75.8038C71.6423 75.672 71.497 75.5653 71.3353 75.4897C71.1735 75.4141 70.9985 75.3711 70.8201 75.3631C70.6417 75.3552 70.4636 75.3824 70.2957 75.4433C70.1279 75.5042 69.9737 75.5976 69.842 75.7181C69.7102 75.8386 69.6035 75.9839 69.5279 76.1456C69.4523 76.3074 69.4093 76.4824 69.4013 76.6608C69.3934 76.8391 69.4206 77.0173 69.4816 77.1851C69.5425 77.353 69.6358 77.5072 69.7563 77.6389L75.1449 83.5318C75.6273 84.0553 76.211 84.4754 76.8606 84.7665C77.5102 85.0577 78.2122 85.2138 78.924 85.2256H79.0286C80.0882 85.2225 81.1223 84.9 81.9958 84.3001C82.8692 83.7002 83.5414 82.8508 83.9246 81.8629C84.3078 80.875 84.3841 79.7945 84.1436 78.7625C83.9032 77.7305 83.357 76.7951 82.5766 76.0783V76.0797ZM13.5938 29.4912H24.4688V32.21H13.5938V29.4912ZM27.1875 45.8037V48.5225H24.4688V45.8037H27.1875ZM10.875 45.8037H13.5938V48.5225H10.875V45.8037ZM13.5938 59.3975H10.875V56.6787H13.5938V59.3975ZM27.1875 59.3975H24.4688V56.6787H27.1875V59.3975ZM23.1094 53.96C22.7488 53.96 22.4031 54.1032 22.1482 54.3581C21.8932 54.613 21.75 54.9588 21.75 55.3193V56.6787H16.3125V55.3193C16.3125 54.9588 16.1693 54.613 15.9143 54.3581C15.6594 54.1032 15.3137 53.96 14.9531 53.96H13.5938V51.2412H14.9531C15.3137 51.2412 15.6594 51.098 15.9143 50.8431C16.1693 50.5881 16.3125 50.2424 16.3125 49.8818V44.4443C16.3125 44.0838 16.1693 43.738 15.9143 43.4831C15.6594 43.2282 15.3137 43.085 14.9531 43.085H13.5938V40.3662H24.4688V43.085H23.1094C22.7488 43.085 22.4031 43.2282 22.1482 43.4831C21.8932 43.738 21.75 44.0838 21.75 44.4443V49.8818C21.75 50.2424 21.8932 50.5881 22.1482 50.8431C22.4031 51.098 22.7488 51.2412 23.1094 51.2412H27.2568C27.3083 52.1535 27.4177 53.0616 27.5844 53.96H23.1094Z"
    fill="#29538E" />
  <path
    d="M62.5645 56.153C62.7328 56.2127 62.9112 56.2387 63.0895 56.2295C63.2678 56.2203 63.4425 56.1761 63.6037 56.0993C63.7649 56.0226 63.9094 55.9148 64.029 55.7822C64.1485 55.6496 64.2408 55.4948 64.3005 55.3265C65.6559 51.4931 65.5299 47.2915 63.9473 43.5461C62.3646 39.8008 59.4396 36.782 55.746 35.0821C52.0524 33.3822 47.8569 33.1238 43.9826 34.3577C40.1084 35.5915 36.835 38.2286 34.8048 41.7515C32.7745 45.2743 32.134 49.4287 33.0088 53.3995C33.8836 57.3703 36.2106 60.8708 39.5333 63.2144C42.8559 65.5579 46.9344 66.5753 50.9685 66.0669C55.0026 65.5585 58.7011 63.561 61.3384 60.4663C61.5727 60.1921 61.6886 59.8361 61.6604 59.4765C61.6322 59.1169 61.4624 58.7832 61.1882 58.5489C60.914 58.3146 60.558 58.1987 60.1984 58.2269C59.8388 58.2551 59.5051 58.4249 59.2708 58.6991C57.0558 61.3064 53.946 62.9913 50.5522 63.4229C47.1584 63.8545 43.7258 63.0015 40.9288 61.0316C38.1317 59.0617 36.1723 56.1171 35.4353 52.7763C34.6983 49.4355 35.2371 45.9398 36.9458 42.976C38.6545 40.0121 41.4096 37.7942 44.67 36.7579C47.9304 35.7216 51.4605 35.9418 54.5669 37.3752C57.6732 38.8087 60.1314 41.3518 61.4585 44.505C62.7856 47.6582 62.8858 51.1937 61.7394 54.4171C61.6187 54.7567 61.6378 55.1304 61.7926 55.4559C61.9473 55.7814 62.225 56.0322 62.5645 56.153Z"
    fill="#29538E" />
  <path
    d="M57.0935 49.8818C57.454 49.8818 57.7998 49.7386 58.0547 49.4837C58.3096 49.2288 58.4528 48.883 58.4528 48.5225V44.4443C58.4528 44.0838 58.3096 43.738 58.0547 43.4831C57.7998 43.2282 57.454 43.085 57.0935 43.085H53.0153C52.6548 43.085 52.3091 43.2282 52.0541 43.4831C51.7992 43.738 51.656 44.0838 51.656 44.4443C51.656 44.8049 51.7992 45.1506 52.0541 45.4056C52.3091 45.6605 52.6548 45.8037 53.0153 45.8037H53.5591L49.0392 49.4196L47.1809 47.5614C46.926 47.3065 46.5803 47.1634 46.2198 47.1634C45.8594 47.1634 45.5137 47.3065 45.2587 47.5614L39.8213 52.9989C39.6914 53.1243 39.5879 53.2743 39.5166 53.4401C39.4454 53.606 39.4079 53.7844 39.4063 53.9649C39.4047 54.1453 39.4391 54.3244 39.5075 54.4914C39.5758 54.6585 39.6768 54.8103 39.8044 54.9379C39.932 55.0655 40.0838 55.1665 40.2509 55.2348C40.4179 55.3032 40.5969 55.3376 40.7774 55.336C40.9579 55.3344 41.1363 55.2969 41.3022 55.2257C41.468 55.1544 41.618 55.0509 41.7434 54.921L46.2185 50.4446L47.9761 52.2023C48.2126 52.4386 48.5278 52.5795 48.8616 52.598C49.1954 52.6166 49.5243 52.5115 49.7855 52.3029L55.7341 47.5451V48.5225C55.7341 48.883 55.8773 49.2288 56.1322 49.4837C56.3872 49.7386 56.7329 49.8818 57.0935 49.8818Z"
    fill="#29538E" />
  <path
    d="M66.6101 15.8981H69.3288V36.2887C69.3288 36.6493 69.472 36.995 69.727 37.25C69.9819 37.5049 70.3277 37.6481 70.6882 37.6481H78.8444C79.205 37.6481 79.5507 37.5049 79.8057 37.25C80.0606 36.995 80.2038 36.6493 80.2038 36.2887V26.7731C80.2038 26.4126 80.0606 26.0668 79.8057 25.8119C79.5507 25.5569 79.205 25.4137 78.8444 25.4137C78.4839 25.4137 78.1381 25.5569 77.8832 25.8119C77.6283 26.0668 77.4851 26.4126 77.4851 26.7731V34.9294H72.0476V14.5387C72.0476 14.1782 71.9043 13.8324 71.6494 13.5775C71.3945 13.3226 71.0487 13.1794 70.6882 13.1794H69.5653L74.7663 7.1111L79.9673 13.1794H78.8444C78.4839 13.1794 78.1381 13.3226 77.8832 13.5775C77.6283 13.8324 77.4851 14.1782 77.4851 14.5387V21.3356C77.4851 21.6961 77.6283 22.0419 77.8832 22.2968C78.1381 22.5518 78.4839 22.695 78.8444 22.695C79.205 22.695 79.5507 22.5518 79.8057 22.2968C80.0606 22.0419 80.2038 21.6961 80.2038 21.3356V15.8981H82.9226C83.1823 15.8979 83.4366 15.8232 83.6552 15.683C83.8738 15.5427 84.0477 15.3428 84.1563 15.1068C84.2648 14.8708 84.3035 14.6087 84.2677 14.3514C84.2319 14.0942 84.1232 13.8525 83.9543 13.6551L75.7981 4.13951C75.6668 3.99672 75.5073 3.88273 75.3297 3.80476C75.1521 3.72678 74.9603 3.68652 74.7663 3.68652C74.5723 3.68652 74.3805 3.72678 74.2029 3.80476C74.0253 3.88273 73.8658 3.99672 73.7345 4.13951L65.5783 13.6551C65.4095 13.8525 65.3007 14.0942 65.2649 14.3514C65.2291 14.6087 65.2678 14.8708 65.3763 15.1068C65.4849 15.3428 65.6588 15.5427 65.8774 15.683C66.0961 15.8232 66.3503 15.8979 66.6101 15.8981Z"
    fill="#29538E" />
</svg>