<svg width="500" height="480" viewBox="0 0 500 480" fill="none" xmlns="http://www.w3.org/2000/svg">
  <g clip-path="url(#clip0)">
    <path
      d="M242.028 19.4555C100.521 5.36235 18.6269 88.2046 3.82232 226.267C-10.6096 360.231 22.0372 478.961 156.769 478.961C199.443 478.961 249.458 451.362 297.926 437.179C402.45 406.689 492.497 408.609 499.6 272.16C507.324 123.076 376.104 32.8033 242.028 19.4555ZM59.1559 221.75C51.8722 221.75 51.8948 210.458 59.1559 210.458C66.417 210.458 66.417 221.75 59.1559 221.75Z"
      fill="#29538E" />
    <path opacity="0.75"
      d="M242.028 19.4555C100.521 5.36235 18.6269 88.2046 3.82232 226.267C-10.6096 360.231 22.0372 478.961 156.769 478.961C199.443 478.961 249.458 451.362 297.926 437.179C402.45 406.689 492.497 408.609 499.6 272.16C507.324 123.076 376.104 32.8033 242.028 19.4555ZM59.1559 221.75C51.8722 221.75 51.8948 210.458 59.1559 210.458C66.417 210.458 66.417 221.75 59.1559 221.75Z"
      fill="white" />
    <path d="M12.8555 457.154H487.143" stroke="#263238" stroke-linecap="round" stroke-linejoin="round" />
    <path
      d="M189.561 0.833984H40.8609C37.866 0.833984 34.9936 2.02373 32.8759 4.1415C30.7581 6.25927 29.5684 9.13157 29.5684 12.1265V315.896C29.5684 318.891 30.7581 321.764 32.8759 323.882C34.9936 325.999 37.866 327.189 40.8609 327.189H189.561C192.556 327.189 195.429 325.999 197.546 323.882C199.664 321.764 200.854 318.891 200.854 315.896V12.1265C200.854 10.6436 200.562 9.17515 199.994 7.80507C199.427 6.435 198.595 5.19011 197.546 4.1415C196.498 3.09289 195.253 2.26109 193.883 1.69358C192.513 1.12608 191.044 0.833984 189.561 0.833984ZM59.1549 221.75C51.8712 221.75 51.8938 210.458 59.1549 210.458C66.416 210.458 66.416 221.75 59.1549 221.75Z"
      fill="#263238" stroke="#263238" stroke-linecap="round" stroke-linejoin="round" />
    <path
      d="M118.046 13.8774C118.046 14.438 117.88 14.986 117.568 15.4521C117.257 15.9182 116.814 16.2815 116.296 16.4961C115.778 16.7106 115.208 16.7667 114.658 16.6574C114.109 16.548 113.604 16.2781 113.207 15.8817C112.811 15.4852 112.541 14.9802 112.431 14.4304C112.322 13.8805 112.378 13.3106 112.593 12.7927C112.807 12.2748 113.171 11.8321 113.637 11.5207C114.103 11.2092 114.651 11.043 115.211 11.043C115.963 11.043 116.684 11.3416 117.216 11.8732C117.747 12.4047 118.046 13.1257 118.046 13.8774Z"
      fill="#29538E" stroke="#263238" stroke-linecap="round" stroke-linejoin="round" />
    <path
      d="M146.955 15.0958L145.205 19.1385C144.592 20.5606 143.575 21.7714 142.28 22.6206C140.986 23.4698 139.47 23.92 137.921 23.9153H92.5026C90.9561 23.9178 89.4428 23.4666 88.1501 22.6175C86.8574 21.7685 85.8422 20.5589 85.2302 19.1385L83.4686 15.0958C82.8558 13.6737 81.8389 12.4629 80.544 11.6137C79.2491 10.7645 77.7334 10.3143 76.1849 10.319H44.7803C44.0215 10.319 43.2702 10.4687 42.5694 10.7594C41.8685 11.0501 41.2319 11.4761 40.6959 12.0132C40.1599 12.5502 39.7351 13.1877 39.4458 13.8891C39.1565 14.5905 39.0083 15.3421 39.0098 16.1008V311.989C39.0158 313.515 39.6263 314.977 40.7079 316.054C41.7894 317.132 43.2537 317.736 44.7803 317.736H185.632C187.166 317.736 188.636 317.127 189.721 316.043C190.805 314.959 191.414 313.488 191.414 311.955V16.0895C191.417 15.3284 191.27 14.5741 190.981 13.87C190.691 13.1659 190.266 12.5259 189.729 11.9866C189.192 11.4473 188.553 11.0194 187.85 10.7274C187.147 10.4355 186.394 10.2852 185.632 10.2852H154.239C152.687 10.2833 151.168 10.7385 149.873 11.5939C148.578 12.4494 147.563 13.6674 146.955 15.0958Z"
      fill="#29538E" />
    <path opacity="0.5"
      d="M185.632 10.2852H154.239C152.687 10.2833 151.168 10.7385 149.873 11.5939C148.578 12.4494 147.563 13.6674 146.955 15.0958L145.205 19.1385C144.592 20.5606 143.575 21.7714 142.28 22.6206C140.986 23.4698 139.47 23.92 137.921 23.9153H92.5026C90.9561 23.9178 89.4428 23.4666 88.1501 22.6175C86.8574 21.7685 85.8422 20.5589 85.2302 19.1385L83.4686 15.0958C82.8558 13.6737 81.8389 12.4629 80.544 11.6137C79.2491 10.7645 77.7334 10.3143 76.1849 10.319H44.7803C44.0215 10.319 43.2702 10.4687 42.5694 10.7594C41.8685 11.0501 41.2319 11.4761 40.6959 12.0132C40.1599 12.5502 39.7351 13.1877 39.4458 13.8891C39.1565 14.5905 39.0083 15.3421 39.0098 16.1008V311.989C39.0158 313.515 39.6263 314.977 40.7079 316.054C41.7894 317.132 43.2537 317.736 44.7803 317.736H185.632C187.166 317.736 188.636 317.127 189.721 316.043C190.805 314.959 191.414 313.488 191.414 311.955V16.0895C191.417 15.3284 191.27 14.5741 190.981 13.87C190.691 13.1659 190.266 12.5259 189.729 11.9866C189.192 11.4473 188.553 11.0194 187.85 10.7274C187.147 10.4355 186.394 10.2852 185.632 10.2852ZM59.1557 221.75C51.872 221.75 51.8946 210.457 59.1557 210.457C66.4168 210.457 66.4168 221.75 59.1557 221.75Z"
      fill="white" stroke="#263238" stroke-linecap="round" stroke-linejoin="round" />
    <path
      d="M146.955 15.0958L145.205 19.1385C144.592 20.5606 143.575 21.7714 142.28 22.6206C140.986 23.4698 139.47 23.92 137.921 23.9153H92.5026C90.9561 23.9178 89.4428 23.4666 88.1501 22.6175C86.8574 21.7685 85.8422 20.5589 85.2302 19.1385L83.4686 15.0958C82.8558 13.6737 81.8389 12.4629 80.544 11.6137C79.2492 10.7645 77.7334 10.3143 76.1849 10.319H44.7803C44.0215 10.319 43.2702 10.4687 42.5694 10.7594C41.8685 11.0501 41.2319 11.4761 40.6959 12.0132C40.1599 12.5502 39.7351 13.1877 39.4458 13.8891C39.1565 14.5905 39.0083 15.3421 39.0098 16.1008V311.989C39.0158 313.515 39.6263 314.977 40.7079 316.054C41.7894 317.132 43.2537 317.736 44.7803 317.736H185.632C187.166 317.736 188.636 317.127 189.721 316.043C190.805 314.959 191.414 313.488 191.414 311.955V16.0895C191.417 15.3284 191.27 14.5741 190.981 13.87C190.691 13.1659 190.266 12.5259 189.729 11.9866C189.192 11.4473 188.553 11.0194 187.85 10.7274C187.147 10.4355 186.394 10.2852 185.632 10.2852H154.239C152.687 10.2833 151.168 10.7385 149.873 11.5939C148.578 12.4494 147.563 13.6674 146.955 15.0958V15.0958Z"
      stroke="#263238" stroke-linecap="round" stroke-linejoin="round" />
    <path
      d="M181.577 31.166H48.8441C46.0188 31.166 43.7285 33.4563 43.7285 36.2815V52.0685C43.7285 54.8938 46.0188 57.1841 48.8441 57.1841H181.577C184.402 57.1841 186.692 54.8938 186.692 52.0685V36.2815C186.692 33.4563 184.402 31.166 181.577 31.166Z"
      fill="white" stroke="#263238" stroke-width="0.75" stroke-linecap="round" stroke-linejoin="round" />
    <path
      d="M119.784 45.1566C120.313 44.6273 120.68 43.958 120.841 43.2275C121.003 42.4969 120.953 41.7354 120.696 41.0325C120.44 40.3296 119.988 39.7145 119.394 39.2595C118.8 38.8045 118.089 38.5285 117.343 38.4639C116.598 38.3993 115.85 38.5489 115.186 38.895C114.523 39.2411 113.972 39.7694 113.599 40.4177C113.225 41.0661 113.045 41.8075 113.078 42.555C113.112 43.3024 113.358 44.0248 113.788 44.6371C113.695 44.6722 113.611 44.726 113.54 44.7952L109.711 48.6234C109.641 48.6918 109.586 48.7734 109.548 48.8636C109.51 48.9538 109.49 49.0506 109.49 49.1485C109.49 49.2463 109.51 49.3432 109.548 49.4334C109.586 49.5235 109.641 49.6052 109.711 49.6736C109.779 49.7433 109.859 49.7987 109.949 49.8365C110.038 49.8743 110.134 49.8938 110.231 49.8938C110.328 49.8938 110.424 49.8743 110.513 49.8365C110.602 49.7987 110.683 49.7433 110.75 49.6736L114.578 45.8454C114.655 45.778 114.713 45.6926 114.748 45.597C115.505 46.1279 116.425 46.3748 117.346 46.2942C118.268 46.2136 119.131 45.8108 119.784 45.1566ZM114.906 44.4564C114.493 44.0423 114.212 43.5152 114.098 42.9414C113.985 42.3677 114.044 41.7732 114.268 41.233C114.492 40.6929 114.871 40.2312 115.358 39.9065C115.844 39.5817 116.416 39.4084 117.001 39.4084C117.586 39.4084 118.157 39.5817 118.644 39.9065C119.13 40.2312 119.509 40.6929 119.733 41.233C119.958 41.7732 120.017 42.3677 119.903 42.9414C119.79 43.5152 119.509 44.0423 119.096 44.4564C118.821 44.732 118.494 44.9506 118.135 45.0997C117.775 45.2489 117.39 45.3257 117.001 45.3257C116.612 45.3257 116.226 45.2489 115.867 45.0997C115.507 44.9506 115.181 44.732 114.906 44.4564Z"
      fill="#263238" />
    <path
      d="M66.7766 38.9118H51.4977C51.3668 38.9133 51.2369 38.8887 51.1157 38.8393C50.9944 38.7898 50.8842 38.7167 50.7917 38.6241C50.6991 38.5316 50.6259 38.4214 50.5765 38.3001C50.5271 38.1789 50.5025 38.049 50.504 37.9181C50.504 37.7881 50.5297 37.6594 50.5798 37.5395C50.6299 37.4195 50.7033 37.3107 50.7957 37.2193C50.8881 37.128 50.9978 37.0558 51.1183 37.0071C51.2388 36.9584 51.3678 36.9341 51.4977 36.9356H66.7766C67.0382 36.9356 67.2893 37.0387 67.4753 37.2227C67.6613 37.4066 67.7673 37.6565 67.7703 37.9181C67.7703 38.1816 67.6656 38.4344 67.4793 38.6208C67.2929 38.8071 67.0401 38.9118 66.7766 38.9118Z"
      fill="#263238" stroke="#263238" stroke-width="0.75" stroke-linecap="round" stroke-linejoin="round" />
    <path
      d="M64.8004 44.57H51.4977C51.3678 44.5715 51.2388 44.5472 51.1183 44.4985C50.9978 44.4498 50.8881 44.3777 50.7957 44.2863C50.7033 44.1949 50.6299 44.0861 50.5798 43.9662C50.5297 43.8462 50.504 43.7175 50.504 43.5876C50.5025 43.4566 50.5271 43.3267 50.5765 43.2055C50.6259 43.0842 50.6991 42.9741 50.7917 42.8815C50.8842 42.7889 50.9944 42.7158 51.1156 42.6664C51.2369 42.617 51.3668 42.5923 51.4977 42.5938H64.8004C65.0639 42.5938 65.3167 42.6985 65.503 42.8849C65.6894 43.0712 65.7941 43.324 65.7941 43.5876C65.7911 43.8492 65.6851 44.099 65.4991 44.283C65.313 44.4669 65.062 44.57 64.8004 44.57Z"
      fill="#263238" stroke="#263238" stroke-width="0.75" stroke-linecap="round" stroke-linejoin="round" />
    <path
      d="M62.8254 50.238H51.5328C51.2692 50.238 51.0165 50.1333 50.8301 49.9469C50.6438 49.7606 50.5391 49.5078 50.5391 49.2442C50.5391 49.1143 50.5648 48.9856 50.6149 48.8656C50.665 48.7457 50.7384 48.6369 50.8308 48.5455C50.9232 48.4541 51.0329 48.382 51.1534 48.3333C51.2739 48.2846 51.4028 48.2603 51.5328 48.2618H62.8254C63.087 48.2618 63.338 48.3649 63.5241 48.5488C63.7101 48.7328 63.8161 48.9826 63.8191 49.2442C63.8162 49.5069 63.7105 49.7579 63.5248 49.9437C63.3391 50.1294 63.088 50.235 62.8254 50.238Z"
      fill="#263238" stroke="#263238" stroke-width="0.75" stroke-linecap="round" stroke-linejoin="round" />
    <path
      d="M181.577 64.873H48.8441C46.0188 64.873 43.7285 67.1633 43.7285 69.9886V140.443C43.7285 143.268 46.0188 145.558 48.8441 145.558H181.577C184.402 145.558 186.692 143.268 186.692 140.443V69.9886C186.692 67.1633 184.402 64.873 181.577 64.873Z"
      fill="white" stroke="#263238" stroke-width="0.75" stroke-linecap="round" stroke-linejoin="round" />
    <path d="M168.727 75.0254H61.707V135.429H168.727V75.0254Z" fill="#29538E" stroke="#263238" stroke-width="0.75"
      stroke-linecap="round" stroke-linejoin="round" />
    <path
      d="M136.125 111.615H70.5151C70.0469 111.615 69.5976 111.429 69.2654 111.099C68.9333 110.769 68.7452 110.321 68.7422 109.853C68.7422 109.383 68.929 108.932 69.2615 108.599C69.594 108.267 70.0449 108.08 70.5151 108.08H136.125C136.595 108.08 137.046 108.267 137.379 108.599C137.711 108.932 137.898 109.383 137.898 109.853C137.898 110.085 137.852 110.315 137.763 110.53C137.673 110.744 137.543 110.939 137.378 111.103C137.213 111.266 137.018 111.396 136.803 111.484C136.587 111.572 136.357 111.616 136.125 111.615Z"
      fill="#263238" stroke="#263238" stroke-width="0.75" stroke-linecap="round" stroke-linejoin="round" />
    <path
      d="M130.964 119.067H70.5151C70.0458 119.064 69.5966 118.877 69.2647 118.545C68.9329 118.213 68.7451 117.764 68.7422 117.294C68.7422 116.824 68.929 116.373 69.2615 116.041C69.594 115.708 70.0449 115.521 70.5151 115.521H130.964C131.434 115.521 131.885 115.708 132.218 116.041C132.55 116.373 132.737 116.824 132.737 117.294C132.734 117.764 132.546 118.213 132.215 118.545C131.883 118.877 131.433 119.064 130.964 119.067Z"
      fill="#263238" stroke="#263238" stroke-width="0.75" stroke-linecap="round" stroke-linejoin="round" />
    <path
      d="M103.32 129.028C103.32 129.332 103.23 129.629 103.061 129.881C102.892 130.134 102.652 130.331 102.372 130.447C102.091 130.563 101.782 130.593 101.484 130.534C101.186 130.475 100.913 130.329 100.698 130.114C100.483 129.899 100.337 129.625 100.278 129.328C100.218 129.03 100.249 128.721 100.365 128.44C100.481 128.16 100.678 127.92 100.931 127.751C101.183 127.582 101.48 127.492 101.784 127.492C102.191 127.492 102.582 127.654 102.87 127.942C103.158 128.23 103.32 128.621 103.32 129.028Z"
      fill="white" />
    <path
      d="M112.23 129.028C112.23 129.332 112.14 129.629 111.971 129.881C111.802 130.134 111.562 130.331 111.282 130.447C111.001 130.563 110.692 130.593 110.394 130.534C110.096 130.475 109.823 130.329 109.608 130.114C109.393 129.899 109.247 129.625 109.188 129.328C109.128 129.03 109.159 128.721 109.275 128.44C109.391 128.16 109.588 127.92 109.841 127.751C110.093 127.582 110.39 127.492 110.694 127.492C111.101 127.492 111.492 127.654 111.78 127.942C112.068 128.23 112.23 128.621 112.23 129.028Z"
      fill="white" />
    <path
      d="M121.263 129.028C121.263 129.332 121.173 129.629 121.004 129.881C120.835 130.134 120.596 130.331 120.315 130.447C120.034 130.563 119.725 130.593 119.428 130.534C119.13 130.475 118.856 130.329 118.641 130.114C118.426 129.899 118.28 129.625 118.221 129.328C118.162 129.03 118.192 128.721 118.308 128.44C118.425 128.16 118.621 127.92 118.874 127.751C119.127 127.582 119.423 127.492 119.727 127.492C120.134 127.492 120.525 127.654 120.813 127.942C121.101 128.23 121.263 128.621 121.263 129.028Z"
      fill="white" />
    <path
      d="M130.173 129.028C130.173 129.332 130.083 129.629 129.914 129.881C129.746 130.134 129.506 130.331 129.225 130.447C128.944 130.563 128.636 130.593 128.338 130.534C128.04 130.475 127.766 130.329 127.551 130.114C127.337 129.899 127.19 129.625 127.131 129.328C127.072 129.03 127.102 128.721 127.218 128.44C127.335 128.16 127.532 127.92 127.784 127.751C128.037 127.582 128.334 127.492 128.637 127.492C128.839 127.492 129.039 127.532 129.225 127.609C129.411 127.686 129.581 127.799 129.723 127.942C129.866 128.085 129.979 128.254 130.056 128.44C130.133 128.627 130.173 128.826 130.173 129.028Z"
      fill="white" />
    <path
      d="M174.633 112.665C174.361 112.671 174.097 112.579 173.888 112.405C173.761 112.313 173.654 112.194 173.576 112.058C173.497 111.922 173.447 111.771 173.43 111.615C173.413 111.459 173.429 111.301 173.477 111.151C173.524 111.001 173.603 110.863 173.707 110.745L178.224 105.223L173.707 99.7011C173.509 99.457 173.417 99.1444 173.449 98.832C173.482 98.5196 173.638 98.2331 173.882 98.0354C174.126 97.8378 174.439 97.7451 174.751 97.778C175.063 97.8108 175.35 97.9664 175.548 98.2105L180.629 104.478C180.8 104.689 180.893 104.952 180.893 105.223C180.893 105.494 180.8 105.757 180.629 105.968L175.548 112.236C175.436 112.37 175.296 112.477 175.138 112.552C174.98 112.626 174.807 112.664 174.633 112.665Z"
      fill="#29538E" />
    <path
      d="M55.7673 112.665C55.5908 112.666 55.4163 112.628 55.2562 112.554C55.0962 112.48 54.9545 112.371 54.8413 112.236L49.7596 105.968C49.5891 105.757 49.4961 105.494 49.4961 105.223C49.4961 104.952 49.5891 104.689 49.7596 104.478L54.8413 98.2105C55.0389 97.9664 55.3255 97.8108 55.6379 97.778C55.9502 97.7451 56.2628 97.8378 56.5069 98.0354C56.751 98.2331 56.9066 98.5196 56.9394 98.832C56.9722 99.1444 56.8796 99.457 56.682 99.7011L52.1649 105.223L56.682 110.745C56.786 110.863 56.8644 111.001 56.912 111.151C56.9596 111.301 56.9754 111.459 56.9583 111.615C56.9413 111.771 56.8919 111.922 56.8132 112.058C56.7345 112.194 56.6283 112.313 56.5013 112.405C56.2951 112.576 56.035 112.668 55.7673 112.665Z"
      fill="#29538E" />
    <path
      d="M67.9297 155.113H55.2029C50.1699 155.113 46.0898 159.193 46.0898 164.226V176.953C46.0898 181.986 50.1699 186.066 55.2029 186.066H67.9297C72.9627 186.066 77.0427 181.986 77.0427 176.953V164.226C77.0427 159.193 72.9627 155.113 67.9297 155.113Z"
      fill="#29538E" stroke="#263238" stroke-width="0.75" stroke-linecap="round" stroke-linejoin="round" />
    <path opacity="0.5"
      d="M61.5719 180.126C59.0442 180.126 56.62 179.122 54.8326 177.334C53.0452 175.547 52.041 173.123 52.041 170.595C52.0395 169.342 52.285 168.102 52.7633 166.944C53.2416 165.787 53.9434 164.734 54.8286 163.848C55.7137 162.962 56.7649 162.259 57.922 161.779C59.0791 161.3 60.3194 161.053 61.5719 161.053C62.8245 161.053 64.0648 161.3 65.2219 161.779C66.379 162.259 67.4301 162.962 68.3153 163.848C69.2005 164.734 69.9023 165.787 70.3806 166.944C70.8589 168.102 71.1044 169.342 71.1029 170.595C71.1029 173.123 70.0987 175.547 68.3113 177.334C66.5239 179.122 64.0997 180.126 61.5719 180.126Z"
      fill="white" />
    <path
      d="M75.2811 195.405H47.8628C47.3926 195.405 46.9416 195.218 46.6091 194.886C46.2766 194.553 46.0898 194.103 46.0898 193.632C46.0898 193.162 46.2766 192.711 46.6091 192.379C46.9416 192.046 47.3926 191.859 47.8628 191.859H75.2811C75.7513 191.859 76.2023 192.046 76.5348 192.379C76.8673 192.711 77.0541 193.162 77.0541 193.632C77.0541 194.103 76.8673 194.553 76.5348 194.886C76.2023 195.218 75.7513 195.405 75.2811 195.405Z"
      fill="#263238" stroke="#263238" stroke-width="0.75" stroke-linecap="round" stroke-linejoin="round" />
    <path
      d="M181.577 207.285H48.8441C48.1713 207.285 47.5052 207.418 46.8838 207.676C46.2624 207.933 45.698 208.311 45.2228 208.787C44.7477 209.264 44.3711 209.829 44.1147 210.451C43.8583 211.073 43.727 211.739 43.7285 212.412V246.99C43.7285 248.347 44.2675 249.648 45.2268 250.607C46.1862 251.566 47.4873 252.105 48.8441 252.105H181.577C182.934 252.105 184.235 251.566 185.194 250.607C186.153 249.648 186.692 248.347 186.692 246.99V212.412C186.694 211.739 186.563 211.073 186.306 210.451C186.05 209.829 185.673 209.264 185.198 208.787C184.723 208.311 184.158 207.933 183.537 207.676C182.916 207.418 182.25 207.285 181.577 207.285ZM59.1542 221.751C51.8705 221.751 51.8931 210.458 59.1542 210.458C66.4153 210.458 66.4153 221.751 59.1542 221.751Z"
      fill="white" stroke="#263238" stroke-width="0.75" stroke-linecap="round" stroke-linejoin="round" />
    <path
      d="M64.3714 214.377C65.2748 217.641 63.5357 221.751 59.1542 221.751C54.7727 221.751 53.0336 217.641 53.9371 214.377H50.8203V245.014H97.3118V214.377H64.3714Z"
      fill="#29538E" stroke="#263238" stroke-width="0.75" stroke-linecap="round" stroke-linejoin="round" />
    <path
      d="M170.093 218.013H104.472C104.002 218.013 103.551 217.826 103.219 217.493C102.886 217.161 102.699 216.71 102.699 216.24C102.702 215.77 102.89 215.321 103.222 214.989C103.554 214.657 104.003 214.47 104.472 214.467H170.093C170.563 214.47 171.012 214.657 171.344 214.989C171.675 215.321 171.863 215.77 171.866 216.24C171.866 216.71 171.679 217.161 171.347 217.493C171.014 217.826 170.563 218.013 170.093 218.013Z"
      fill="#263238" stroke="#263238" stroke-width="0.75" stroke-linecap="round" stroke-linejoin="round" />
    <path
      d="M164.921 225.454H104.472C104.002 225.454 103.551 225.267 103.219 224.935C102.886 224.602 102.699 224.151 102.699 223.681C102.702 223.212 102.89 222.763 103.222 222.431C103.554 222.099 104.003 221.911 104.472 221.908H164.921C165.391 221.908 165.842 222.095 166.175 222.427C166.507 222.76 166.694 223.211 166.694 223.681C166.694 224.151 166.507 224.602 166.175 224.935C165.842 225.267 165.391 225.454 164.921 225.454Z"
      fill="#263238" stroke="#263238" stroke-width="0.75" stroke-linecap="round" stroke-linejoin="round" />
    <path
      d="M168.32 232.896H104.472C104.002 232.896 103.551 232.709 103.219 232.377C102.886 232.044 102.699 231.593 102.699 231.123C102.702 230.655 102.89 230.207 103.222 229.877C103.555 229.547 104.004 229.361 104.472 229.361H168.32C168.789 229.361 169.238 229.547 169.57 229.877C169.902 230.207 170.09 230.655 170.093 231.123C170.093 231.593 169.906 232.044 169.574 232.377C169.241 232.709 168.791 232.896 168.32 232.896Z"
      fill="#263238" stroke="#263238" stroke-width="0.75" stroke-linecap="round" stroke-linejoin="round" />
    <path
      d="M157.095 240.337H104.472C104.002 240.337 103.551 240.151 103.219 239.818C102.886 239.486 102.699 239.035 102.699 238.564C102.702 238.096 102.89 237.648 103.222 237.318C103.555 236.988 104.004 236.803 104.472 236.803H157.095C157.564 236.803 158.013 236.988 158.345 237.318C158.677 237.648 158.865 238.096 158.868 238.564C158.868 239.035 158.682 239.486 158.349 239.818C158.017 240.151 157.566 240.337 157.095 240.337Z"
      fill="#263238" stroke="#263238" stroke-width="0.75" stroke-linecap="round" stroke-linejoin="round" />
    <path
      d="M181.577 259.072H48.8441C46.0188 259.072 43.7285 261.363 43.7285 264.188V298.777C43.7285 301.602 46.0188 303.892 48.8441 303.892H181.577C184.402 303.892 186.692 301.602 186.692 298.777V264.188C186.692 261.363 184.402 259.072 181.577 259.072Z"
      fill="white" stroke="#263238" stroke-width="0.75" stroke-linecap="round" stroke-linejoin="round" />
    <path d="M97.3118 266.152H50.8203V296.789H97.3118V266.152Z" fill="#29538E" stroke="#263238" stroke-width="0.75"
      stroke-linecap="round" stroke-linejoin="round" />
    <path
      d="M170.093 269.8H104.472C104.003 269.797 103.554 269.609 103.222 269.277C102.89 268.945 102.702 268.496 102.699 268.027C102.699 267.557 102.886 267.106 103.219 266.773C103.551 266.441 104.002 266.254 104.472 266.254H170.093C170.563 266.254 171.014 266.441 171.347 266.773C171.679 267.106 171.866 267.557 171.866 268.027C171.863 268.496 171.675 268.945 171.344 269.277C171.012 269.609 170.563 269.797 170.093 269.8Z"
      fill="#263238" stroke="#263238" stroke-width="0.75" stroke-linecap="round" stroke-linejoin="round" />
    <path
      d="M174.338 277.241H104.437C103.968 277.238 103.518 277.05 103.187 276.719C102.855 276.387 102.667 275.938 102.664 275.468C102.664 274.998 102.851 274.547 103.183 274.215C103.516 273.882 103.967 273.695 104.437 273.695H174.338C174.808 273.695 175.259 273.882 175.592 274.215C175.924 274.547 176.111 274.998 176.111 275.468C176.111 275.938 175.924 276.389 175.592 276.722C175.259 277.054 174.808 277.241 174.338 277.241Z"
      fill="#263238" stroke="#263238" stroke-width="0.75" stroke-linecap="round" stroke-linejoin="round" />
    <path
      d="M161.229 292.126H104.472C104.003 292.123 103.554 291.935 103.222 291.603C102.89 291.272 102.702 290.822 102.699 290.353C102.699 289.883 102.886 289.432 103.219 289.099C103.551 288.767 104.002 288.58 104.472 288.58H161.229C161.699 288.58 162.15 288.767 162.482 289.099C162.815 289.432 163.002 289.883 163.002 290.353C163.002 290.823 162.815 291.274 162.482 291.607C162.15 291.939 161.699 292.126 161.229 292.126Z"
      fill="#263238" stroke="#263238" stroke-width="0.75" stroke-linecap="round" stroke-linejoin="round" />
    <path
      d="M168.908 284.785H104.472C104.002 284.785 103.551 284.598 103.219 284.265C102.886 283.933 102.699 283.482 102.699 283.012C102.702 282.543 102.89 282.095 103.222 281.765C103.555 281.435 104.004 281.25 104.472 281.25H168.908C169.14 281.249 169.37 281.293 169.585 281.381C169.8 281.469 169.996 281.598 170.16 281.762C170.325 281.926 170.456 282.12 170.545 282.335C170.635 282.549 170.68 282.779 170.68 283.012C170.68 283.482 170.494 283.933 170.161 284.265C169.829 284.598 169.378 284.785 168.908 284.785Z"
      fill="#263238" stroke="#263238" stroke-width="0.75" stroke-linecap="round" stroke-linejoin="round" />
    <path
      d="M139.41 155.113H126.683C121.65 155.113 117.57 159.193 117.57 164.226V176.953C117.57 181.986 121.65 186.066 126.683 186.066H139.41C144.443 186.066 148.523 181.986 148.523 176.953V164.226C148.523 159.193 144.443 155.113 139.41 155.113Z"
      fill="#29538E" stroke="#263238" stroke-width="0.75" stroke-linecap="round" stroke-linejoin="round" />
    <path opacity="0.5"
      d="M133.052 180.126C130.525 180.126 128.1 179.122 126.313 177.334C124.526 175.547 123.521 173.123 123.521 170.595C123.52 169.342 123.765 168.102 124.244 166.944C124.722 165.787 125.424 164.734 126.309 163.848C127.194 162.962 128.245 162.259 129.402 161.779C130.56 161.3 131.8 161.053 133.052 161.053C134.305 161.053 135.545 161.3 136.702 161.779C137.859 162.259 138.911 162.962 139.796 163.848C140.681 164.734 141.383 165.787 141.861 166.944C142.339 168.102 142.585 169.342 142.583 170.595C142.583 173.123 141.579 175.547 139.792 177.334C138.004 179.122 135.58 180.126 133.052 180.126Z"
      fill="white" />
    <path
      d="M146.762 195.405H119.343C118.873 195.405 118.422 195.218 118.09 194.886C117.757 194.553 117.57 194.103 117.57 193.632C117.57 193.162 117.757 192.711 118.09 192.379C118.422 192.046 118.873 191.859 119.343 191.859H146.762C146.994 191.859 147.224 191.905 147.438 191.995C147.653 192.084 147.848 192.215 148.011 192.379C148.175 192.544 148.305 192.74 148.392 192.955C148.48 193.17 148.525 193.4 148.523 193.632C148.525 193.865 148.48 194.095 148.392 194.31C148.305 194.525 148.175 194.721 148.011 194.885C147.848 195.05 147.653 195.181 147.438 195.27C147.224 195.359 146.994 195.405 146.762 195.405Z"
      fill="#263238" stroke="#263238" stroke-width="0.75" stroke-linecap="round" stroke-linejoin="round" />
    <path
      d="M175.152 155.113H162.426C157.393 155.113 153.312 159.193 153.312 164.226V176.953C153.312 181.986 157.393 186.066 162.426 186.066H175.152C180.185 186.066 184.265 181.986 184.265 176.953V164.226C184.265 159.193 180.185 155.113 175.152 155.113Z"
      fill="#29538E" stroke="#263238" stroke-width="0.75" stroke-linecap="round" stroke-linejoin="round" />
    <path opacity="0.5"
      d="M168.795 180.126C166.267 180.126 163.843 179.122 162.055 177.334C160.268 175.547 159.264 173.123 159.264 170.595C159.262 169.342 159.508 168.102 159.986 166.944C160.464 165.787 161.166 164.734 162.051 163.848C162.936 162.962 163.988 162.259 165.145 161.779C166.302 161.3 167.542 161.053 168.795 161.053C170.047 161.053 171.287 161.3 172.445 161.779C173.602 162.259 174.653 162.962 175.538 163.848C176.423 164.734 177.125 165.787 177.603 166.944C178.082 168.102 178.327 169.342 178.326 170.595C178.326 173.123 177.321 175.547 175.534 177.334C173.747 179.122 171.322 180.126 168.795 180.126Z"
      fill="white" />
    <path
      d="M182.504 195.405H155.142C154.672 195.405 154.221 195.218 153.888 194.886C153.556 194.553 153.369 194.103 153.369 193.632C153.369 193.162 153.556 192.711 153.888 192.379C154.221 192.046 154.672 191.859 155.142 191.859H182.56C182.793 191.859 183.023 191.905 183.237 191.995C183.452 192.084 183.646 192.215 183.81 192.379C183.974 192.544 184.103 192.74 184.191 192.955C184.279 193.17 184.324 193.4 184.322 193.632C184.324 193.869 184.277 194.104 184.186 194.323C184.095 194.542 183.96 194.74 183.79 194.906C183.621 195.071 183.419 195.201 183.198 195.287C182.977 195.373 182.741 195.413 182.504 195.405Z"
      fill="#263238" stroke="#263238" stroke-width="0.75" stroke-linecap="round" stroke-linejoin="round" />
    <path
      d="M103.67 155.113H90.9432C85.9102 155.113 81.8301 159.193 81.8301 164.226V176.953C81.8301 181.986 85.9102 186.066 90.9432 186.066H103.67C108.703 186.066 112.783 181.986 112.783 176.953V164.226C112.783 159.193 108.703 155.113 103.67 155.113Z"
      fill="#29538E" stroke="#263238" stroke-width="0.75" stroke-linecap="round" stroke-linejoin="round" />
    <path
      d="M111.021 195.405H83.603C83.1328 195.405 82.6818 195.218 82.3494 194.886C82.0169 194.553 81.8301 194.103 81.8301 193.632C81.8301 193.162 82.0169 192.711 82.3494 192.379C82.6818 192.046 83.1328 191.859 83.603 191.859H111.021C111.254 191.859 111.484 191.905 111.698 191.995C111.913 192.084 112.107 192.215 112.271 192.379C112.435 192.544 112.564 192.74 112.652 192.955C112.74 193.17 112.784 193.4 112.783 193.632C112.784 193.865 112.74 194.095 112.652 194.31C112.564 194.525 112.435 194.721 112.271 194.885C112.107 195.05 111.913 195.181 111.698 195.27C111.484 195.359 111.254 195.405 111.021 195.405Z"
      fill="#263238" stroke="#263238" stroke-width="0.75" stroke-linecap="round" stroke-linejoin="round" />
    <path opacity="0.5"
      d="M97.3122 180.126C94.7844 180.126 92.3602 179.122 90.5728 177.334C88.7854 175.547 87.7813 173.123 87.7813 170.595C87.7798 169.342 88.0252 168.102 88.5035 166.944C88.9818 165.787 89.6836 164.734 90.5688 163.848C91.454 162.962 92.5052 162.259 93.6622 161.779C94.8193 161.3 96.0596 161.053 97.3122 161.053C98.5648 161.053 99.805 161.3 100.962 161.779C102.119 162.259 103.17 162.962 104.056 163.848C104.941 164.734 105.643 165.787 106.121 166.944C106.599 168.102 106.845 169.342 106.843 170.595C106.843 173.123 105.839 175.547 104.052 177.334C102.264 179.122 99.8399 180.126 97.3122 180.126Z"
      fill="white" />
    <path
      d="M147.439 446.7H132.951C129.604 446.7 126.379 445.444 123.915 443.178C121.452 440.913 119.929 437.805 119.648 434.47L116.746 405.527H163.565L160.787 434.47C160.504 437.812 158.973 440.925 156.501 443.191C154.028 445.456 150.793 446.709 147.439 446.7Z"
      fill="white" />
    <path
      d="M161.917 422.228L162.076 422.014C162.143 421.856 162.301 421.517 162.347 421.37C162.392 421.223 162.426 420.964 162.459 420.76C162.493 420.557 162.459 420.67 162.459 420.625C162.55 419.834 162.618 419.033 162.73 418.242H118.328C118.908 419.503 119.051 420.922 118.735 422.274V422.33C118.735 422.703 118.735 423.064 118.735 423.459C118.735 423.595 118.735 423.73 118.735 423.866V423.888C118.87 424.306 118.87 424.34 118.735 424.024V424.08C118.978 424.729 119.123 425.41 119.164 426.102H161.319C161.138 425.451 161.098 424.769 161.202 424.101C161.305 423.433 161.549 422.795 161.917 422.228Z"
      fill="#29538E" />
    <path
      d="M147.439 446.7H132.951C129.604 446.7 126.379 445.444 123.915 443.178C121.452 440.913 119.929 437.805 119.648 434.47L116.746 405.527H163.565L160.787 434.47C160.504 437.812 158.973 440.925 156.501 443.191C154.028 445.456 150.793 446.709 147.439 446.7V446.7Z"
      stroke="#263238" stroke-linecap="round" stroke-linejoin="round" />
    <path
      d="M147.44 446.699H132.952C130.567 446.703 128.225 446.059 126.176 444.836L125.781 449.455H154.611L154.216 444.836C152.168 446.059 149.826 446.703 147.44 446.699Z"
      fill="white" stroke="#263238" stroke-linecap="round" stroke-linejoin="round" />
    <path
      d="M168.693 409.717C166.649 409.232 164.718 410.09 162.956 411.738L162.38 417.577C163.984 414.923 165.892 413.06 167.88 413.568C172.137 414.584 173.639 420.005 172.284 425.64C170.929 431.275 166.389 434.99 162.121 433.973L160.766 433.657L160.687 434.47C160.611 435.302 160.463 436.126 160.246 436.932L160.788 437.056C167.406 438.649 174.249 433.827 176.067 426.272C177.885 418.717 175.344 411.321 168.693 409.717Z"
      fill="white" stroke="#263238" stroke-linecap="round" stroke-linejoin="round" />
    <path
      d="M140.279 442.995C135.57 443.706 130.364 447.579 130.929 451.295C131.494 455.01 137.625 457.167 142.334 456.455C146.129 455.868 146.851 452.672 148.907 450.673C154.948 444.813 178.267 444.914 186.906 445.163C187.305 445.174 187.702 445.097 188.068 444.938C188.435 444.779 188.761 444.541 189.026 444.242C189.29 443.942 189.484 443.588 189.596 443.205C189.708 442.821 189.734 442.418 189.673 442.023C189.559 441.333 189.183 440.713 188.623 440.292C188.064 439.872 187.364 439.683 186.669 439.765C179.487 440.589 159.397 443.017 149.991 445.411C147.235 446.055 144.085 442.419 140.279 442.995Z"
      fill="white" stroke="#263238" stroke-linecap="round" stroke-linejoin="round" />
    <path
      d="M155.898 457.653H122.528C117.453 457.651 112.424 456.681 107.712 454.796L96.8827 450.471C96.6243 450.365 96.4105 450.173 96.2778 449.927C96.1451 449.681 96.1017 449.397 96.155 449.122C96.2082 448.848 96.3548 448.601 96.5699 448.423C96.7849 448.244 97.0551 448.146 97.3344 448.145H181.114C181.393 448.146 181.663 448.244 181.879 448.423C182.094 448.601 182.24 448.848 182.293 449.122C182.347 449.397 182.303 449.681 182.171 449.927C182.038 450.173 181.824 450.365 181.566 450.471L170.736 454.796C166.017 456.685 160.981 457.655 155.898 457.653Z"
      fill="white" stroke="#263238" stroke-linecap="round" stroke-linejoin="round" />
    <path d="M141.013 346.647C140.03 345.007 138.681 343.616 137.072 342.582" stroke="#263238" stroke-linecap="round"
      stroke-linejoin="round" />
    <path d="M139.67 367.528C143.238 360.402 143.634 355.027 142.787 351.131" stroke="#263238" stroke-linecap="round"
      stroke-linejoin="round" />
    <path d="M133.911 388.758C133.03 383.924 133.719 377.838 137.999 370.588" stroke="#263238" stroke-linecap="round"
      stroke-linejoin="round" />
    <path d="M142.572 402.342C139.001 399.7 136.284 396.068 134.758 391.896" stroke="#263238" stroke-linecap="round"
      stroke-linejoin="round" />
    <path d="M153.357 359.329C152.57 357.738 151.374 356.385 149.891 355.41" stroke="#263238" stroke-linecap="round"
      stroke-linejoin="round" />
    <path d="M152.385 374.042C154.643 369.119 154.971 365.324 154.429 362.479" stroke="#263238" stroke-linecap="round"
      stroke-linejoin="round" />
    <path d="M154.191 402.343C154.191 402.343 141.081 393.591 150.6 377.42" stroke="#263238" stroke-linecap="round"
      stroke-linejoin="round" />
    <path d="M129.687 372.858C129.691 371.867 129.546 370.882 129.258 369.934" stroke="#263238" stroke-linecap="round"
      stroke-linejoin="round" />
    <path d="M126.492 382.715C127.788 380.619 128.748 378.332 129.338 375.939" stroke="#263238" stroke-linecap="round"
      stroke-linejoin="round" />
    <path d="M129.327 402.341C129.327 402.341 120.474 396.435 125.104 385.459" stroke="#263238" stroke-linecap="round"
      stroke-linejoin="round" />
    <path
      d="M213.728 316.01C213.728 316.01 196.642 363.077 202.062 383.234C207.483 403.392 235.771 397.181 242.716 384.838C249.66 372.495 263.121 327.72 263.121 327.72L249.175 300.9L218.29 307.868L215.331 312.091L213.728 316.01Z"
      fill="#858585" />
    <path opacity="0.2"
      d="M246.07 382.545C246.106 381.413 246.458 380.314 247.086 379.372C246.742 378.885 246.527 378.318 246.464 377.725C246.401 377.132 246.491 376.533 246.725 375.984C248.633 369.208 252.676 361.157 254.822 354.393C257.08 347.357 261.428 339.396 261.597 331.932C261.823 320.063 249.988 314.925 239.724 312.734C234.247 323.79 213.751 363.709 200.934 367.91C201.126 371.298 201.882 374.606 201.577 377.983C201.577 378.107 201.577 378.22 201.577 378.344C201.932 379.055 202.172 379.817 202.289 380.603C202.373 381.259 202.373 381.923 202.289 382.579L246.07 382.545Z"
      fill="black" />
    <path
      d="M213.728 316.01C213.728 316.01 196.642 363.077 202.062 383.234C207.483 403.392 235.771 397.181 242.716 384.838C249.66 372.495 263.121 327.72 263.121 327.72L249.175 300.9L218.29 307.868L215.331 312.091L213.728 316.01Z"
      stroke="#263238" stroke-linecap="round" stroke-linejoin="round" />
    <path
      d="M373.914 142.579C373.914 142.579 380.463 136.628 375.574 130.372C375.574 130.372 382.112 125.719 377.392 117.668C377.392 117.668 384.574 108.554 375.574 102.479C375.574 102.479 380.17 92.9933 369.622 93.174C369.622 93.174 371.407 83.1688 360.859 86.9179C360.859 86.9179 361.571 76.9014 352.638 81.3733C352.638 81.3733 348.697 72.4409 344.056 81.7346C344.056 81.7346 339.539 69.9339 331.713 74.0444C331.713 74.0444 316.513 67.0769 314.368 76.0093C314.368 76.0093 304.532 73.5136 301.946 80.3005C301.946 80.3005 290.947 78.8776 290.416 88.3521C290.416 88.3521 280.038 91.9205 283.257 99.6446C283.257 99.6446 278.627 105.731 282.636 111.807C282.636 111.807 278.785 115.917 283.257 123.427C283.257 123.427 281.292 131.117 286.645 136.662L351.904 147.39L354.942 162.228L367.601 157.225L373.914 142.579Z"
      fill="#263238" stroke="#263238" stroke-linecap="round" stroke-linejoin="round" />
    <path d="M332.752 79.8607C330.369 76.7778 325.976 74.0902 318.309 77.4441" stroke="#7F7F7F" stroke-width="0.75"
      stroke-linecap="round" stroke-linejoin="round" />
    <path d="M335.293 85.111C335.058 84.1803 334.729 83.276 334.311 82.4121" stroke="#7F7F7F" stroke-width="0.75"
      stroke-linecap="round" stroke-linejoin="round" />
    <path d="M324.023 84.4107C324.023 84.4107 312.403 91.5702 308.111 81.373" stroke="#7F7F7F" stroke-width="0.75"
      stroke-linecap="round" stroke-linejoin="round" />
    <path d="M342.666 93.2523C342.666 93.2523 329.68 97.4531 327.918 86.5332" stroke="#7F7F7F" stroke-width="0.75"
      stroke-linecap="round" stroke-linejoin="round" />
    <path d="M332.278 102.321C330.02 99.0573 325.57 95.918 317.496 99.4413" stroke="#7F7F7F" stroke-width="0.75"
      stroke-linecap="round" stroke-linejoin="round" />
    <path d="M334.479 107.131C334.246 106.205 333.921 105.304 333.508 104.443" stroke="#7F7F7F" stroke-width="0.75"
      stroke-linecap="round" stroke-linejoin="round" />
    <path d="M307.423 106.646C306.747 105.815 306.196 104.891 305.785 103.902" stroke="#7F7F7F" stroke-width="0.75"
      stroke-linecap="round" stroke-linejoin="round" />
    <path d="M321.708 106.939C321.708 106.939 314.029 111.66 308.857 107.967" stroke="#7F7F7F" stroke-width="0.75"
      stroke-linecap="round" stroke-linejoin="round" />
    <path d="M373.506 123.055C373.506 123.055 376.77 112.993 365.443 111.627" stroke="#7F7F7F" stroke-width="0.75"
      stroke-linecap="round" stroke-linejoin="round" />
    <path d="M353.146 118.74C353.146 118.74 348.934 126.25 357.753 129.152" stroke="#7F7F7F" stroke-width="0.75"
      stroke-linecap="round" stroke-linejoin="round" />
    <path d="M366.493 118.311C366.493 118.311 356.262 118.514 357.357 110.293" stroke="#7F7F7F" stroke-width="0.75"
      stroke-linecap="round" stroke-linejoin="round" />
    <path d="M365.445 133.929C365.445 133.929 358.161 126.735 364.812 121.789" stroke="#7F7F7F" stroke-width="0.75"
      stroke-linecap="round" stroke-linejoin="round" />
    <path d="M310.143 100.672C310.143 100.672 313.407 90.6105 302.08 89.2441" stroke="#7F7F7F" stroke-width="0.75"
      stroke-linecap="round" stroke-linejoin="round" />
    <path d="M289.783 96.4043C289.783 96.4043 285.571 103.914 294.39 106.816" stroke="#7F7F7F" stroke-width="0.75"
      stroke-linecap="round" stroke-linejoin="round" />
    <path d="M303.132 95.9298C303.132 95.9298 292.901 96.1331 293.996 87.9121" stroke="#7F7F7F" stroke-width="0.75"
      stroke-linecap="round" stroke-linejoin="round" />
    <path d="M302.081 111.546C302.081 111.546 294.798 104.364 301.449 99.418" stroke="#7F7F7F" stroke-width="0.75"
      stroke-linecap="round" stroke-linejoin="round" />
    <path d="M365.411 101.621C365.411 101.621 368.685 91.5593 357.348 90.1816" stroke="#7F7F7F" stroke-width="0.75"
      stroke-linecap="round" stroke-linejoin="round" />
    <path d="M345.05 97.3066C345.05 97.3066 340.838 104.816 349.658 107.718" stroke="#7F7F7F" stroke-width="0.75"
      stroke-linecap="round" stroke-linejoin="round" />
    <path d="M358.409 96.8658C358.409 96.8658 348.178 97.0804 349.273 88.8594" stroke="#7F7F7F" stroke-width="0.75"
      stroke-linecap="round" stroke-linejoin="round" />
    <path
      d="M437.208 247.962C437.208 247.962 419.14 342.819 416.43 457.156H253.907C253.907 457.156 272.336 360.119 251.648 233.564C251.682 233.53 335.473 173.894 437.208 247.962Z"
      fill="#29538E" />
    <path opacity="0.2"
      d="M430.782 257.131C430.782 257.131 410.049 290.568 406.469 322.312C404.389 339.849 403.198 357.48 402.901 375.138L310.641 350.87C310.641 350.87 366.415 397.994 396.103 417.7C409.112 426.327 416.497 454.457 416.497 454.457L418.428 413.804L416 327.529L437.253 267.859L430.782 257.131Z"
      fill="black" />
    <path opacity="0.2"
      d="M349.883 250.23L330.425 235.324L309.884 249.496L303.662 228.888L323.289 221.197L348.9 224.235L357.482 235.719L349.883 250.23Z"
      fill="black" />
    <path
      d="M437.208 247.962C437.208 247.962 419.14 342.819 416.43 457.156H253.907C253.907 457.156 272.336 360.119 251.648 233.564C251.682 233.53 335.473 173.894 437.208 247.962Z"
      stroke="#263238" stroke-linecap="round" stroke-linejoin="round" />
    <path
      d="M461.352 327.224C461.352 327.224 463.859 393.624 440.415 416.627C440.415 416.627 412.263 423.063 329.929 360.48C329.929 360.48 321.753 361.192 317.507 356.189C317.507 356.189 304.238 360.841 297.282 353.332C297.282 353.332 288.361 353.682 286.362 345.427C286.362 345.427 280.716 346.139 278.728 343.643C278.728 343.643 271.953 343.993 270.993 340.425C270.033 336.856 277.69 333.965 277.69 333.965C277.69 333.965 277.836 325.756 281.235 323.26C283.24 321.771 285.44 320.566 287.774 319.68C287.774 319.68 265.279 306.129 268.023 298.586C270.767 291.042 274.539 304.3 295.938 313.605C295.938 313.605 306.689 313.955 308.755 317.896L334.785 339.702C334.785 339.702 342.396 341.734 344.892 342.57C361.074 347.968 383.761 357.589 410.705 359.373L415.933 316.462C415.933 316.462 448.602 308.625 461.352 327.224Z"
      fill="#858585" />
    <path opacity="0.2"
      d="M426.931 316.01L419.275 359.724L410.67 359.408L411.415 353.332L415.3 321.363L418.428 307.383L425.068 308.806L426.931 316.01Z"
      fill="black" />
    <path opacity="0.2"
      d="M457.669 376.549C457.669 376.549 449.561 403.03 439.725 412.685C439.725 412.685 448.669 398.739 409.337 388.734C370.005 378.729 332.276 355.003 332.276 355.003C332.276 355.003 318.725 344.196 312.605 346.183C306.484 348.171 308.991 351.254 310.64 350.847C312.288 350.441 314.569 351.073 314.705 353.309C314.84 355.545 314.919 357.103 312.254 357.341C313.959 356.82 315.704 356.443 317.472 356.211C318.601 356.595 322.971 359.283 324.247 359.746C326.088 360.446 327.883 359.633 329.972 360.502C333.744 362.083 338.047 367.413 342.202 369.536C344.585 370.779 369.485 388.339 372.003 389.649C399.761 404.069 408.851 407.92 408.851 407.92L423.531 414.391L435.061 416.649H440.414L448.002 406.294L455.083 387.921L456.427 380.332L457.669 376.549Z"
      fill="black" />
    <path opacity="0.2"
      d="M307.366 357.577C306.681 357.104 306.123 356.469 305.743 355.728C305.362 354.987 305.171 354.164 305.186 353.331C305.457 350.734 299.969 354.528 296.943 350.485C296.943 350.485 290.529 350.068 286.328 342.152C286.328 342.152 279.36 343.371 278.333 340.277C278.333 340.277 277.825 330.757 277.023 331.153C276.221 331.548 274.211 332.903 274.211 332.903L276.221 345.46L287.739 354.89L301.144 360.254H307.366V357.577Z"
      fill="black" />
    <path opacity="0.2"
      d="M285.074 319.714C285.074 319.714 287.942 320.007 295.045 317.218C295.045 317.218 284.599 314.575 277.824 309.155C271.048 303.735 269.479 297.772 267.751 300.313C266.023 302.854 273.138 310.77 273.138 310.77L285.074 319.714Z"
      fill="black" />
    <path
      d="M461.352 327.224C461.352 327.224 463.859 393.624 440.415 416.627C440.415 416.627 412.263 423.063 329.929 360.48C329.929 360.48 321.753 361.192 317.507 356.189C317.507 356.189 304.238 360.841 297.282 353.332C297.282 353.332 288.361 353.682 286.362 345.427C286.362 345.427 280.716 346.139 278.728 343.643C278.728 343.643 271.953 343.993 270.993 340.425C270.033 336.856 277.69 333.965 277.69 333.965C277.69 333.965 277.836 325.756 281.235 323.26C283.24 321.771 285.44 320.566 287.774 319.68C287.774 319.68 265.279 306.129 268.023 298.586C270.767 291.042 274.539 304.3 295.938 313.605C295.938 313.605 306.689 313.955 308.755 317.896L334.785 339.702C334.785 339.702 342.396 341.734 344.892 342.57C361.074 347.968 383.761 357.589 410.705 359.373L415.933 316.462C415.933 316.462 448.602 308.625 461.352 327.224Z"
      stroke="#263238" stroke-linecap="round" stroke-linejoin="round" />
    <path d="M413.246 359.723C422.382 360.174 426.165 357.871 433.81 368.17" stroke="#263238" stroke-linecap="round"
      stroke-linejoin="round" />
    <path
      d="M301.144 325.258C301.144 325.258 287.988 330.904 287.288 334.292C286.746 338.007 286.425 341.752 286.328 345.505"
      stroke="#263238" stroke-linecap="round" stroke-linejoin="round" />
    <path
      d="M308.1 332.768C307.271 334.543 305.989 336.069 304.385 337.194C300.692 339.916 296.559 340.277 296.48 343.631C296.401 346.985 297.203 353.331 297.203 353.331"
      stroke="#263238" stroke-linecap="round" stroke-linejoin="round" />
    <path d="M277.656 334L278.695 343.678" stroke="#263238" stroke-linecap="round" stroke-linejoin="round" />
    <path d="M287.74 319.714L298.615 316.01" stroke="#263238" stroke-linecap="round" stroke-linejoin="round" />
    <path d="M313.915 345.021C311.97 346.905 309.764 348.498 307.365 349.753" stroke="#263238" stroke-linecap="round"
      stroke-linejoin="round" />
    <path
      d="M251.681 233.529C251.681 233.529 213.524 248.673 211.604 315.705C211.596 316.027 211.678 316.344 211.84 316.621C212.001 316.899 212.237 317.126 212.52 317.278C212.803 317.431 213.122 317.501 213.443 317.483C213.764 317.464 214.073 317.357 214.337 317.173C220.22 312.972 235.443 307.304 260.986 332.192C261.253 332.451 261.589 332.626 261.954 332.695C262.319 332.764 262.696 332.725 263.039 332.582C263.381 332.439 263.674 332.198 263.882 331.89C264.089 331.582 264.201 331.22 264.205 330.849V330.758C264.205 323.61 264.114 308.851 262.624 291.573C261.054 273.042 257.904 251.597 251.681 233.529Z"
      fill="#29538E" stroke="#263238" stroke-linecap="round" stroke-linejoin="round" />
    <path d="M221.564 304.526C230.486 302.877 246.566 303.543 262.715 322.312" stroke="#263238" stroke-linecap="round"
      stroke-linejoin="round" />
    <path d="M214.428 306.751C215.753 306.112 217.137 305.601 218.561 305.227" stroke="#263238" stroke-linecap="round"
      stroke-linejoin="round" />
    <path
      d="M372.479 218.251C372.479 218.251 359.877 198.67 363.366 164.871L311.816 168.259C311.816 168.259 311.364 212.955 294.877 215.326L308.338 232.547L320.206 233.428L340.725 233.519L370.627 223.863L372.479 218.251Z"
      fill="#858585" />
    <path
      d="M358.645 171.42C354.656 172.875 350.564 174.034 346.404 174.887C346.146 175.733 345.665 176.494 345.011 177.091C344.358 177.687 343.555 178.096 342.689 178.275C336.963 179.539 331.103 179.901 325.343 180.973C319.584 182.046 314.051 183.3 308.337 183.537C302.194 183.785 296.186 182.408 290.269 180.928L289.885 180.838C292.516 183.785 295.057 186.755 296.446 190.55C297.394 193.181 297.496 196.196 298.704 198.658C299.291 199.922 300.376 200.826 301.031 202.045"
      stroke="#263238" stroke-linecap="round" stroke-linejoin="round" />
    <path
      d="M372.479 218.251C372.479 218.251 359.877 198.67 363.366 164.871L311.816 168.259C311.816 168.259 311.364 212.955 294.877 215.326L308.338 232.547L320.206 233.428L340.725 233.519L370.627 223.863L372.479 218.251Z"
      stroke="#263238" stroke-linecap="round" stroke-linejoin="round" />
    <path
      d="M362.756 147.22C362.756 147.22 365.771 135.419 372.479 137.057C379.187 138.694 374.896 177.021 360.678 167.366C360.678 167.366 360.678 186.507 348.607 198.748C336.535 210.989 323.176 214.648 313.475 214.648C303.775 214.648 289.117 185.287 286.678 170.313C284.239 155.339 285.052 120.705 288.53 116.414C292.008 112.123 334.909 117.216 344.44 113.196C353.971 109.175 343.243 130.36 348.347 135.453C353.451 140.546 357.2 136.583 356.127 156.909L360.407 152.889L362.756 147.22Z"
      fill="#858585" stroke="#263238" stroke-linecap="round" stroke-linejoin="round" />
    <path
      d="M323.289 156.92C323.289 158.829 324.497 160.376 325.988 160.376C327.479 160.376 328.687 158.829 328.687 156.92C328.687 155.012 327.479 153.465 325.988 153.465C324.497 153.465 323.289 155.012 323.289 156.92Z"
      fill="#263238" />
    <path
      d="M295.238 156.92C295.238 158.829 296.447 160.376 297.937 160.376C299.428 160.376 300.636 158.829 300.636 156.92C300.636 155.012 299.428 153.465 297.937 153.465C296.447 153.465 295.238 155.012 295.238 156.92Z"
      fill="#263238" />
    <path d="M340.657 144.488C340.657 144.488 332.605 136.086 320.33 144.488" stroke="#263238" stroke-width="4"
      stroke-linecap="round" stroke-linejoin="round" />
    <path d="M302.929 145.39C302.929 145.39 292.912 134.854 288.621 142.623" stroke="#263238" stroke-width="4"
      stroke-linecap="round" stroke-linejoin="round" />
    <path
      d="M335.101 185.141C335.101 185.141 311.048 193.17 300.783 186.27C300.817 186.326 313.736 208.765 335.101 185.141Z"
      fill="white" stroke="#263238" stroke-linecap="round" stroke-linejoin="round" />
    <path
      d="M321.696 168.27C321.696 168.27 325.592 171.815 323.13 174.864C322.574 175.504 321.84 175.964 321.022 176.188C320.204 176.411 319.339 176.386 318.534 176.118C317.815 175.812 317.024 175.718 316.253 175.848C315.483 175.979 314.765 176.327 314.187 176.852C312.041 179.178 306.508 178.647 304.712 175.723C303.887 175.425 303.024 175.246 302.149 175.192C301.57 175.198 301.007 175.001 300.558 174.636C300.108 174.271 299.8 173.761 299.687 173.193C299.45 171.702 299.936 169.805 302.883 168.315"
      stroke="#263238" stroke-linecap="round" stroke-linejoin="round" />
    <path d="M306.857 151.139C308.088 155.486 308.524 160.019 308.145 164.52" stroke="#263238" stroke-linecap="round"
      stroke-linejoin="round" />
    <path
      d="M330.11 184.757C330.11 184.757 319.732 182.306 313.51 185.276C313.157 185.459 312.763 185.546 312.367 185.528C311.97 185.51 311.585 185.388 311.251 185.175C309.953 184.316 307.299 183.232 302.951 184.192"
      stroke="#263238" stroke-width="0.75" stroke-linecap="round" stroke-linejoin="round" />
    <path
      d="M372.129 215.698C367.386 219.911 350.854 228.911 328.652 233.529L338.691 235.144L351.418 252.309C351.418 252.309 377.662 238.08 383.591 218.51L377.707 215.235C376.844 214.724 375.844 214.494 374.844 214.577C373.845 214.66 372.896 215.052 372.129 215.698Z"
      fill="#29538E" stroke="#263238" stroke-linecap="round" stroke-linejoin="round" />
    <path
      d="M297.678 214.568C301.641 219.616 307.412 229.113 329.229 233.529L319.416 235.143L308.022 252.308C308.022 252.308 288.824 239.435 287.062 216.364L291.986 213.394C292.916 212.865 294.006 212.693 295.053 212.909C296.1 213.125 297.033 213.715 297.678 214.568Z"
      fill="#29538E" stroke="#263238" stroke-linecap="round" stroke-linejoin="round" />
    <path
      d="M331.713 158.795C329.91 159.587 327.962 159.996 325.993 159.996C324.024 159.996 322.076 159.587 320.273 158.795"
      stroke="#263238" stroke-width="0.75" stroke-linecap="round" stroke-linejoin="round" />
    <path
      d="M303.662 158.795C301.859 159.587 299.912 159.996 297.942 159.996C295.973 159.996 294.025 159.587 292.223 158.795"
      stroke="#263238" stroke-width="0.75" stroke-linecap="round" stroke-linejoin="round" />
    <path
      d="M437.208 247.961C437.208 247.961 466.196 258.486 463.102 329.911C463.084 330.165 462.992 330.408 462.837 330.61C462.682 330.812 462.471 330.964 462.23 331.047C461.989 331.13 461.73 331.14 461.483 331.077C461.236 331.013 461.014 330.879 460.843 330.69C456.507 325.236 444.537 315.524 416.746 321.656C416.495 321.709 416.235 321.702 415.987 321.636C415.739 321.569 415.511 321.445 415.32 321.273C415.13 321.101 414.983 320.887 414.891 320.647C414.799 320.408 414.765 320.15 414.792 319.895C415.899 309.325 421.647 264.121 437.208 247.961Z"
      fill="#29538E" stroke="#263238" stroke-linecap="round" stroke-linejoin="round" />
    <path d="M419.275 311.979L417.57 312.385" stroke="#263238" stroke-linecap="round" stroke-linejoin="round" />
    <path d="M432.714 310.466C428.831 310.447 424.956 310.825 421.15 311.595" stroke="#263238" stroke-linecap="round"
      stroke-linejoin="round" />
    <path d="M455.084 316.608C449.027 312.93 442.142 310.833 435.062 310.51" stroke="#263238" stroke-linecap="round"
      stroke-linejoin="round" />
    <path d="M460.729 320.98C459.648 319.946 458.497 318.988 457.285 318.111" stroke="#263238" stroke-linecap="round"
      stroke-linejoin="round" />
    <path
      d="M277.824 309.156C277.651 309.38 277.426 309.559 277.168 309.677C276.91 309.795 276.628 309.849 276.345 309.834H250.214C249.468 309.776 248.753 309.508 248.153 309.06C247.554 308.612 247.093 308.003 246.826 307.304L226.285 249.882C226.163 249.595 226.109 249.283 226.126 248.972C226.144 248.661 226.233 248.357 226.386 248.086L228.442 245.828C228.614 245.605 228.837 245.429 229.093 245.313C229.349 245.197 229.629 245.145 229.91 245.161H256.041C256.787 245.219 257.502 245.487 258.101 245.935C258.701 246.383 259.161 246.992 259.429 247.691L279.913 305.113C280.035 305.4 280.089 305.712 280.072 306.023C280.054 306.334 279.965 306.638 279.812 306.909L277.824 309.156Z"
      fill="white" stroke="#263238" stroke-linecap="round" stroke-linejoin="round" />
    <path
      d="M250.214 309.833H276.345C276.652 309.854 276.958 309.792 277.233 309.654C277.507 309.516 277.74 309.307 277.906 309.049C278.072 308.79 278.166 308.492 278.177 308.185C278.189 307.878 278.118 307.573 277.971 307.303L257.487 249.881C257.22 249.181 256.759 248.573 256.16 248.125C255.56 247.677 254.845 247.409 254.099 247.351H227.934C227.628 247.332 227.322 247.394 227.048 247.532C226.774 247.67 226.542 247.879 226.375 248.137C226.208 248.394 226.113 248.691 226.099 248.998C226.086 249.304 226.154 249.609 226.297 249.881L246.781 307.303C247.052 308.009 247.519 308.622 248.128 309.071C248.736 309.519 249.46 309.784 250.214 309.833Z"
      fill="#263238" stroke="#263238" stroke-linecap="round" stroke-linejoin="round" />
    <path
      d="M250.496 260.755H256.695C257.002 260.776 257.308 260.714 257.583 260.576C257.857 260.438 258.09 260.229 258.256 259.971C258.422 259.712 258.516 259.414 258.527 259.107C258.539 258.8 258.468 258.495 258.321 258.225L256.063 252.026C255.796 251.327 255.335 250.718 254.736 250.27C254.136 249.822 253.421 249.554 252.675 249.496H246.476C246.169 249.475 245.863 249.537 245.588 249.675C245.314 249.813 245.081 250.022 244.915 250.28C244.749 250.539 244.655 250.837 244.644 251.144C244.632 251.451 244.703 251.756 244.849 252.026L247.052 258.225C247.326 258.93 247.796 259.543 248.406 259.991C249.016 260.439 249.741 260.704 250.496 260.755Z"
      fill="#858585" stroke="#263238" stroke-linecap="round" stroke-linejoin="round" />
    <path
      d="M246.499 252.513C246.653 252.926 246.924 253.285 247.279 253.545C247.634 253.806 248.058 253.958 248.498 253.981C248.675 253.991 248.852 253.954 249.01 253.873C249.169 253.793 249.303 253.672 249.399 253.523C249.496 253.373 249.551 253.201 249.559 253.024C249.567 252.847 249.528 252.67 249.446 252.513C249.287 252.102 249.015 251.745 248.661 251.483C248.307 251.222 247.887 251.065 247.448 251.033C247.269 251.022 247.09 251.059 246.93 251.14C246.77 251.221 246.635 251.343 246.538 251.494C246.441 251.645 246.386 251.819 246.38 251.998C246.373 252.177 246.414 252.355 246.499 252.513Z"
      fill="black" />
    <path
      d="M252.879 255.12C253.039 255.53 253.311 255.887 253.665 256.149C254.018 256.411 254.439 256.567 254.878 256.599C255.057 256.611 255.236 256.574 255.396 256.493C255.556 256.412 255.691 256.29 255.788 256.139C255.885 255.988 255.939 255.814 255.946 255.635C255.953 255.456 255.912 255.278 255.827 255.12C255.673 254.707 255.402 254.348 255.047 254.087C254.692 253.826 254.268 253.675 253.828 253.652C253.651 253.642 253.474 253.679 253.315 253.759C253.157 253.84 253.023 253.961 252.927 254.11C252.83 254.259 252.775 254.431 252.767 254.609C252.758 254.786 252.797 254.963 252.879 255.12Z"
      fill="black" />
    <path
      d="M248.362 257.741C248.516 258.154 248.787 258.513 249.142 258.774C249.497 259.035 249.921 259.186 250.361 259.209C250.538 259.219 250.715 259.182 250.874 259.102C251.032 259.021 251.166 258.9 251.263 258.751C251.359 258.602 251.414 258.43 251.422 258.252C251.431 258.075 251.392 257.899 251.31 257.741C251.15 257.331 250.878 256.974 250.524 256.712C250.171 256.45 249.75 256.294 249.311 256.262C249.132 256.25 248.953 256.287 248.793 256.368C248.633 256.449 248.498 256.571 248.401 256.722C248.304 256.873 248.25 257.047 248.243 257.226C248.236 257.406 248.277 257.583 248.362 257.741Z"
      fill="black" />
    <path
      d="M227.143 316.011C227.143 316.011 201.272 364.151 202.063 383.235C202.853 402.32 214.846 408.711 214.846 408.711C214.846 408.711 247.188 407.108 247.718 368.747L252.089 331.481C252.089 331.481 263.381 327.642 267.898 319.771C267.898 319.771 279.191 315.932 282.737 309.495C286.283 303.058 288.383 294.735 284.826 293.403C281.269 292.07 278.784 303.792 275.69 306.005C273.624 307.485 270.315 309.393 268.361 310.522C268.152 310.629 267.922 310.691 267.687 310.705C267.452 310.718 267.217 310.683 266.997 310.601C266.776 310.52 266.575 310.393 266.405 310.23C266.236 310.067 266.102 309.87 266.012 309.653C265.861 309.333 265.824 308.971 265.908 308.627C265.992 308.284 266.193 307.98 266.475 307.767C269.145 305.856 271.529 303.574 273.556 300.991C276.944 296.474 286.531 283.285 281.766 280.337C277 277.39 269.197 291.765 266.103 294.148C264.217 295.639 261.586 297.344 259.926 298.428C259.396 298.74 258.779 298.872 258.168 298.802C257.557 298.733 256.985 298.467 256.538 298.044L256.346 297.875C255.871 297.467 255.543 296.915 255.413 296.303C255.282 295.691 255.356 295.053 255.623 294.487C256.497 292.598 257.492 290.769 258.605 289.01C260.66 286.289 263.404 283.669 267.639 278.779C272.054 273.72 275.972 270.14 272.991 267.814C267.13 263.297 251.964 280.428 249.966 282.573C248.69 284.139 247.634 285.872 246.826 287.723C246.727 287.919 246.588 288.094 246.419 288.236C246.25 288.377 246.055 288.484 245.844 288.548C245.633 288.612 245.411 288.633 245.192 288.61C244.973 288.587 244.76 288.519 244.568 288.412C244.296 288.266 244.064 288.057 243.893 287.8C243.722 287.544 243.616 287.25 243.585 286.944C243.405 284.809 243.055 279.852 243.518 278.011C244.184 275.346 246.081 273.494 248.825 268.571C251.242 264.291 254.042 259.774 252.032 257.899C247.73 253.868 239.193 266.21 239.193 266.21L233.061 277.254C233.061 277.254 235.613 271.608 232.474 268.932C229.334 266.256 229.515 272.421 226.827 275.64C224.14 278.858 226.714 285.566 225.98 290.388C225.535 293.228 225.286 296.096 225.235 298.97L227.143 316.011Z"
      fill="#858585" />
    <path opacity="0.2"
      d="M262.716 317.862C259.142 315.166 255.924 312.028 253.14 308.523C249.933 304.334 247.787 298.71 243.767 298.71C239.747 298.71 236.415 293.289 232.045 296.451C227.675 299.613 233.174 313.955 232.045 319.759C230.916 325.564 237.94 422.657 205.09 396.492C205.619 398.456 206.377 400.351 207.348 402.138C207.386 402.205 207.427 402.269 207.473 402.33C207.732 402.658 207.992 402.985 208.184 403.268L208.32 403.606C210.083 405.908 212.419 407.707 215.095 408.824C215.558 408.824 216.055 408.767 216.574 408.767L217.094 408.541L218.381 408.078C219.242 407.42 220.264 407.007 221.34 406.881L222.345 406.723C223.756 406.281 225.198 405.941 226.659 405.707C227.043 405.583 227.427 405.436 227.788 405.289C232.594 402.44 236.932 398.867 240.65 394.697C241.488 392.246 242.606 389.9 243.981 387.706C245.111 385.787 246.24 384.07 246.15 381.8C246.049 380.489 246.453 379.188 247.279 378.164C247.764 371.547 247.945 365.11 249.018 358.504C250.204 351.288 251.547 344.174 251.525 336.822C251.524 336.512 251.547 336.203 251.593 335.896C251.493 335.142 251.539 334.375 251.728 333.638C252.156 332.235 253.074 331.033 254.314 330.25C255.33 329.516 256.505 329.019 257.51 328.285C258.025 327.935 258.611 327.704 259.226 327.607C261.056 325.541 265.437 320.109 262.716 317.862Z"
      fill="black" />
    <path opacity="0.2"
      d="M271.862 297.929C271.027 297.263 270.27 296.506 269.604 295.671C269.463 295.484 269.28 295.332 269.07 295.227C268.861 295.123 268.63 295.068 268.395 295.068C268.161 295.068 267.93 295.123 267.72 295.227C267.511 295.332 267.328 295.484 267.187 295.671C265.775 297.636 263.348 300.56 260.705 301.927C260.705 301.927 263.122 307.291 265.538 306.218C267.266 305.45 270.439 301.995 272.099 300.097C272.231 299.942 272.33 299.761 272.39 299.566C272.45 299.37 272.469 299.165 272.447 298.962C272.425 298.759 272.362 298.563 272.261 298.385C272.16 298.208 272.025 298.053 271.862 297.929Z"
      fill="black" />
    <path opacity="0.2"
      d="M256.224 287.033C254.667 286.495 253.262 285.593 252.124 284.402C252.034 284.298 251.92 284.217 251.792 284.167C251.664 284.117 251.525 284.099 251.388 284.115C251.251 284.13 251.12 284.179 251.007 284.257C250.893 284.334 250.8 284.438 250.735 284.56L247.969 289.856C247.969 289.856 249.945 292.951 252.791 293.741C253.901 291.863 255.154 290.073 256.54 288.388C256.631 288.287 256.697 288.165 256.731 288.032C256.766 287.9 256.767 287.761 256.736 287.628C256.705 287.495 256.642 287.371 256.553 287.268C256.464 287.164 256.351 287.084 256.224 287.033Z"
      fill="black" />
    <path opacity="0.2"
      d="M242.288 276.711C242.288 276.711 239.013 281.002 235.852 279.794V287.439L242.288 287.044C242.288 287.044 241.091 283.148 242.288 276.711Z"
      fill="black" />
    <path opacity="0.2"
      d="M279.575 311.447C279.575 311.447 274.166 313.774 270.146 313.92C269.735 313.923 269.337 314.062 269.014 314.315C268.691 314.569 268.462 314.922 268.362 315.321L267.752 317.861C267.752 317.861 272.867 317.206 279.575 311.447Z"
      fill="black" />
    <path opacity="0.2"
      d="M233.625 275.424C233.625 275.424 231.694 279.534 229.413 281.138C227.132 282.741 229.684 283.871 229.413 287.597C229.413 287.597 232.88 278.292 233.625 275.424Z"
      fill="black" />
    <path
      d="M227.143 316.011C227.143 316.011 201.272 364.151 202.063 383.235C202.853 402.32 214.846 408.711 214.846 408.711C214.846 408.711 247.188 407.108 247.718 368.747L252.089 331.481C252.089 331.481 263.381 327.642 267.898 319.771C267.898 319.771 279.191 315.932 282.737 309.495C286.283 303.058 288.383 294.735 284.826 293.403C281.269 292.07 278.784 303.792 275.69 306.005C273.624 307.485 270.315 309.393 268.361 310.522C268.152 310.629 267.922 310.691 267.687 310.705C267.452 310.718 267.217 310.683 266.997 310.601C266.776 310.52 266.575 310.393 266.405 310.23C266.236 310.067 266.102 309.87 266.012 309.653V309.653C265.861 309.333 265.824 308.971 265.908 308.627C265.992 308.284 266.193 307.98 266.475 307.767C269.145 305.856 271.529 303.574 273.556 300.991C276.944 296.474 286.531 283.285 281.766 280.337C277 277.39 269.197 291.765 266.103 294.148C264.217 295.639 261.586 297.344 259.926 298.428C259.396 298.74 258.779 298.872 258.168 298.802C257.557 298.733 256.985 298.467 256.538 298.044L256.346 297.875C255.871 297.467 255.543 296.915 255.413 296.303C255.282 295.691 255.356 295.053 255.623 294.487C256.497 292.598 257.492 290.769 258.605 289.01C260.66 286.289 263.404 283.669 267.639 278.779C272.054 273.72 275.972 270.14 272.991 267.814C267.13 263.297 251.964 280.428 249.966 282.573C248.69 284.139 247.634 285.872 246.826 287.723C246.727 287.919 246.588 288.094 246.419 288.236C246.25 288.377 246.055 288.484 245.844 288.548C245.633 288.612 245.411 288.633 245.192 288.61C244.973 288.587 244.76 288.519 244.568 288.412V288.412C244.296 288.266 244.064 288.057 243.893 287.8C243.722 287.544 243.616 287.25 243.585 286.944C243.405 284.809 243.055 279.852 243.518 278.011C244.184 275.346 246.081 273.494 248.825 268.571C251.242 264.291 254.042 259.774 252.032 257.899C247.73 253.868 239.193 266.21 239.193 266.21L233.061 277.254C233.061 277.254 235.613 271.608 232.474 268.932C229.334 266.256 229.515 272.421 226.827 275.64C224.14 278.858 226.714 285.566 225.98 290.388C225.535 293.228 225.286 296.096 225.235 298.97L227.143 316.011Z"
      stroke="#263238" stroke-linecap="round" stroke-linejoin="round" />
    <path d="M232.699 278.586C232.699 278.586 229.571 289.314 227.73 289.878" stroke="#263238" stroke-linecap="round"
      stroke-linejoin="round" />
    <path d="M389.486 440.037C390.966 440.229 392.445 440.41 394.003 440.579" stroke="#263238" stroke-linecap="round"
      stroke-linejoin="round" />
    <path d="M324.203 427.863C338.996 431.929 358.408 435.937 383.85 439.314" stroke="#263238" stroke-linecap="round"
      stroke-linejoin="round" />
    <path d="M282.658 410.043C287.921 414.165 298.4 420.206 318.794 426.327" stroke="#263238" stroke-linecap="round"
      stroke-linejoin="round" />
    <path d="M277.656 404.826C278.277 405.907 279.067 406.883 279.994 407.717" stroke="#263238" stroke-linecap="round"
      stroke-linejoin="round" />
    <path
      d="M334.457 238.916L332.537 293.843C331.233 293.852 329.94 293.595 328.737 293.09C327.535 292.584 326.447 291.839 325.541 290.9C324.635 289.961 323.929 288.848 323.467 287.628C323.004 286.409 322.793 285.107 322.848 283.804L324.418 238.916"
      stroke="#263238" stroke-width="0.75" stroke-linecap="round" stroke-linejoin="round" />
    <path
      d="M332.615 243.964C332.615 244.634 332.417 245.289 332.044 245.846C331.672 246.403 331.143 246.837 330.524 247.094C329.905 247.35 329.224 247.417 328.567 247.287C327.91 247.156 327.306 246.833 326.832 246.359C326.358 245.886 326.036 245.282 325.905 244.625C325.774 243.968 325.841 243.287 326.098 242.667C326.354 242.048 326.788 241.519 327.345 241.147C327.903 240.775 328.558 240.576 329.228 240.576C330.126 240.576 330.988 240.933 331.623 241.568C332.258 242.204 332.615 243.065 332.615 243.964Z"
      fill="#29538E" stroke="#263238" stroke-width="0.75" stroke-linecap="round" stroke-linejoin="round" />
    <path
      d="M327.761 284.289C329.632 284.289 331.149 282.772 331.149 280.901C331.149 279.03 329.632 277.514 327.761 277.514C325.89 277.514 324.373 279.03 324.373 280.901C324.373 282.772 325.89 284.289 327.761 284.289Z"
      fill="#29538E" stroke="#263238" stroke-width="0.75" stroke-linecap="round" stroke-linejoin="round" />
    <path d="M333.666 183.266C334.635 184.65 335.925 185.777 337.426 186.552L333.666 183.266Z" fill="#858585" />
    <path d="M333.666 183.266C334.635 184.65 335.925 185.777 337.426 186.552" stroke="#263238" stroke-width="0.75"
      stroke-linecap="round" stroke-linejoin="round" />
    <path d="M304.385 190.754C304.385 190.754 305.988 192.719 310.223 192.866" stroke="#263238" stroke-width="0.75"
      stroke-linecap="round" stroke-linejoin="round" />
    <path d="M335.1 185.141C332.427 187.255 329.53 189.069 326.461 190.55L335.1 185.141Z" fill="#858585" />
    <path d="M335.1 185.141C332.427 187.255 329.53 189.069 326.461 190.55" stroke="#263238" stroke-width="0.75"
      stroke-linecap="round" stroke-linejoin="round" />
    <path
      d="M302.137 191.035C302.137 191.035 305.863 203.457 317.641 201.989C329.419 200.521 333.665 189.127 333.665 189.127"
      stroke="#263238" stroke-width="0.75" stroke-linecap="round" stroke-linejoin="round" />
    <path
      d="M444.526 108.903H409.226C408.821 108.903 408.434 108.742 408.148 108.456C407.862 108.17 407.701 107.782 407.701 107.378C407.7 107.177 407.738 106.979 407.814 106.793C407.89 106.607 408.003 106.439 408.144 106.297C408.286 106.155 408.455 106.043 408.641 105.967C408.826 105.89 409.025 105.852 409.226 105.854H444.56C444.965 105.854 445.352 106.014 445.638 106.3C445.924 106.586 446.085 106.974 446.085 107.378C446.083 107.581 446.042 107.781 445.962 107.968C445.883 108.154 445.768 108.323 445.623 108.465C445.478 108.606 445.307 108.718 445.118 108.793C444.93 108.868 444.729 108.906 444.526 108.903Z"
      fill="#263238" stroke="#263238" stroke-width="0.75" stroke-linecap="round" stroke-linejoin="round" />
    <path
      d="M443.51 116.502H409.226C408.821 116.502 408.434 116.342 408.148 116.056C407.862 115.77 407.701 115.382 407.701 114.978C407.7 114.777 407.738 114.578 407.814 114.392C407.89 114.207 408.003 114.038 408.144 113.896C408.286 113.754 408.455 113.642 408.641 113.566C408.826 113.49 409.025 113.452 409.226 113.453H443.544C443.948 113.453 444.336 113.614 444.622 113.9C444.908 114.186 445.068 114.573 445.068 114.978C445.067 115.18 445.025 115.381 444.946 115.567C444.867 115.754 444.751 115.923 444.607 116.064C444.462 116.206 444.29 116.318 444.102 116.393C443.914 116.468 443.713 116.505 443.51 116.502Z"
      fill="#263238" stroke="#263238" stroke-width="0.75" stroke-linecap="round" stroke-linejoin="round" />
    <path
      d="M433.347 121.053H409.192C408.351 121.053 407.668 121.735 407.668 122.577C407.668 123.419 408.351 124.102 409.192 124.102H433.347C434.189 124.102 434.872 123.419 434.872 122.577C434.872 121.735 434.189 121.053 433.347 121.053Z"
      fill="#263238" stroke="#263238" stroke-width="0.75" stroke-linecap="round" stroke-linejoin="round" />
    <path
      d="M448.92 131.408C450.247 131.408 451.519 130.881 452.457 129.943C453.395 129.005 453.923 127.733 453.923 126.406V107.039"
      stroke="#263238" stroke-width="0.75" stroke-linecap="round" stroke-linejoin="round" />
    <path d="M446.04 131.396H426.787L413.416 144.767V131.396H410.988" stroke="#263238" stroke-width="0.75"
      stroke-linecap="round" stroke-linejoin="round" />
    <path
      d="M399.785 107.039V126.395C399.785 127.721 400.312 128.994 401.25 129.932C402.189 130.87 403.461 131.397 404.788 131.397H407.667"
      stroke="#263238" stroke-width="0.75" stroke-linecap="round" stroke-linejoin="round" />
    <path
      d="M453.922 103.809C453.922 102.482 453.395 101.21 452.456 100.272C451.518 99.3337 450.246 98.8066 448.919 98.8066H404.788C403.461 98.8066 402.189 99.3337 401.25 100.272C400.312 101.21 399.785 102.482 399.785 103.809"
      stroke="#263238" stroke-width="0.75" stroke-linecap="round" stroke-linejoin="round" />
    <path
      d="M472.306 169.874C472.303 168.548 471.775 167.277 470.837 166.34C469.9 165.402 468.629 164.874 467.303 164.871H393.416"
      stroke="#263238" stroke-width="0.75" stroke-linecap="round" stroke-linejoin="round" />
    <path
      d="M415.438 197.462H467.304C468.631 197.462 469.903 196.935 470.842 195.996C471.78 195.058 472.307 193.786 472.307 192.459V173.262"
      stroke="#263238" stroke-width="0.75" stroke-linecap="round" stroke-linejoin="round" />
    <path d="M398.713 204.44V210.831L412.095 197.461" stroke="#263238" stroke-width="0.75" stroke-linecap="round"
      stroke-linejoin="round" />
    <path
      d="M385.094 192.459C385.094 193.786 385.621 195.058 386.559 195.996C387.497 196.935 388.77 197.462 390.096 197.462H398.713V201.651"
      stroke="#263238" stroke-width="0.75" stroke-linecap="round" stroke-linejoin="round" />
    <path
      d="M390.096 164.871C388.77 164.871 387.497 165.398 386.559 166.336C385.621 167.274 385.094 168.547 385.094 169.874V189.003"
      stroke="#263238" stroke-width="0.75" stroke-linecap="round" stroke-linejoin="round" />
    <path
      d="M402.981 187.196L396.895 190.392L398.058 183.617L393.123 178.806L399.932 177.824L402.981 171.646L406.03 177.824L412.829 178.806L407.905 183.617L409.068 190.392L402.981 187.196Z"
      stroke="#263238" stroke-width="0.75" stroke-linecap="round" stroke-linejoin="round" />
    <path
      d="M428.695 187.196L422.608 190.392L423.771 183.617L418.848 178.806L425.657 177.824L428.695 171.646L431.744 177.824L438.553 178.806L433.618 183.617L434.781 190.392L428.695 187.196Z"
      stroke="#263238" stroke-width="0.75" stroke-linecap="round" stroke-linejoin="round" />
    <path
      d="M454.408 187.196L448.321 190.392L449.484 183.617L444.561 178.806L451.37 177.824L454.408 171.646L457.457 177.824L464.266 178.806L459.343 183.617L460.506 190.392L454.408 187.196Z"
      stroke="#263238" stroke-width="0.75" stroke-linecap="round" stroke-linejoin="round" />
    <path
      d="M237.577 151.038V130.045H242.094V153.127C242.094 157.971 239.666 160.738 235.002 160.738C230.338 160.738 227.91 157.971 227.91 153.127V130.045H232.664V153.466C232.664 155.634 233.568 156.413 235.081 156.413C236.594 156.413 237.509 155.634 237.509 153.466"
      stroke="#263238" stroke-width="0.75" stroke-linecap="round" stroke-linejoin="round" />
    <path
      d="M256.276 147.616L260.793 160.298H255.757L252.256 149.75L248.71 160.298H244.193L249.693 144.827L244.453 130.045H249.467L252.674 139.813H252.753L256.039 130.045H260.556L255.328 144.827"
      stroke="#263238" stroke-width="0.75" stroke-linecap="round" stroke-linejoin="round" />
    <path
      d="M243.415 63.6565L249.998 60.7656V64.2211L240.964 68.0719L250.077 71.9114V75.3782L236.854 69.6642V66.4684L240.964 64.6503"
      stroke="#263238" stroke-width="0.75" stroke-linecap="round" stroke-linejoin="round" />
    <path d="M257.169 72.0239L264.678 52.9395H268.778L256.853 83.2035H252.742L255.836 75.3778" stroke="#263238"
      stroke-width="0.75" stroke-linecap="round" stroke-linejoin="round" />
    <path
      d="M273.803 74.3957L271.545 75.3782V71.9114L280.669 68.0719L271.545 64.2211V60.7656L284.78 66.4119V69.6077L277.18 72.8938"
      stroke="#263238" stroke-width="0.75" stroke-linecap="round" stroke-linejoin="round" />
  </g>
  <defs>
    <clipPath id="clip0">
      <rect width="499" height="478.633" fill="white" transform="translate(0.5 0.5)" />
    </clipPath>
  </defs>
</svg>