<svg width="22" height="22" viewBox="0 0 22 22" fill="none" xmlns="http://www.w3.org/2000/svg">
  <path
    d="M7.22181 6.44569C8.26423 6.44569 9.11318 7.29464 9.11318 8.33478C9.11318 9.3772 8.26423 10.2262 7.22181 10.2262C6.18167 10.2262 5.33271 9.3772 5.33271 8.33478C5.33271 7.29237 6.17939 6.44569 7.22181 6.44569ZM9.72771 11.9855C9.51604 12.3064 9.35671 12.7616 9.35671 13.2168C9.35671 13.7062 9.5388 14.1204 9.94848 14.4004C10.3058 14.6416 10.8475 14.7941 11.635 14.7941C12.1335 14.7941 12.1335 15.5543 11.635 15.5543C10.6859 15.5543 10.0008 15.3472 9.52514 15.024C8.90834 14.6052 8.5988 13.9543 8.5988 13.2168C8.5988 12.8959 8.65798 12.575 8.75585 12.2791C7.30147 12.7298 6.57997 13.9565 6.06559 15.3085C5.89034 15.7728 5.1825 15.5065 5.35775 15.0422C6.0929 13.103 7.1945 11.6418 9.38175 11.3755C9.72088 11.3346 9.93255 11.7215 9.72771 11.9855ZM14.191 15.1742C14.191 15.6727 13.4331 15.6727 13.4331 15.1742V13.4581H12.1995C11.7602 13.4581 11.3755 13.2282 11.157 12.8481C10.8794 12.3747 10.9135 11.7943 11.1184 11.3004L12.7639 7.34244C13.2351 6.21126 14.3594 6.10656 14.8465 7.28098L16.492 11.2367C16.6992 11.7374 16.7515 12.3497 16.4898 12.8413C16.2872 13.2282 15.9208 13.4581 15.4906 13.4581H14.191V15.1742ZM15.7933 11.528L14.1477 7.57004C13.9224 7.02607 13.6698 7.1376 13.4627 7.63377L11.8171 11.5895C11.7078 11.8558 11.66 12.2108 11.8103 12.4703C11.8968 12.6182 12.0288 12.6979 12.1995 12.6979H13.8018H13.8132H13.8223H15.4906C15.6431 12.6979 15.7478 12.6296 15.8206 12.4885C15.9685 12.2108 15.9094 11.808 15.7933 11.528ZM7.22181 7.2036C6.59818 7.2036 6.09063 7.71115 6.09063 8.33478C6.09063 8.96069 6.59818 9.46596 7.22181 9.46596C7.84999 9.46596 8.35299 8.96296 8.35299 8.33478C8.35299 7.70888 7.84999 7.2036 7.22181 7.2036ZM5.33499 2.47176C4.92303 2.74943 4.50197 2.12125 4.91393 1.84358C6.73474 0.623629 8.80819 0 11 0C17.0747 0 22 4.92531 22 11C22 17.0747 17.0747 22 11 22C4.92531 22 0 17.0747 0 11C0 8.81047 0.653217 6.66418 1.87772 4.8502C2.15767 4.43824 2.78585 4.86158 2.5059 5.27354C1.35878 6.97372 0.757914 8.94931 0.757914 11C0.757914 16.6559 5.34409 21.2421 11 21.2421C16.6559 21.2421 21.2421 16.6559 21.2421 11C21.2421 5.34409 16.6559 0.757914 11 0.757914C8.96296 0.757914 7.02835 1.3383 5.33499 2.47176Z"
    fill="black" />
</svg>