<svg width="22" height="22" viewBox="0 0 22 22" fill="none" xmlns="http://www.w3.org/2000/svg">
  <g clip-path="url(#clip0)">
    <path
      d="M13.0729 19.0329L7.27833 14.8312C7.27833 14.8312 6.67089 14.421 6.89993 14.1238C6.92633 14.0609 7.0532 13.9162 7.359 13.8375C7.99089 13.6762 8.84473 14.1631 9.41747 14.4973C9.98996 14.8314 10.6803 15.134 10.6803 15.134L7.75207 7.80316L7.74473 7.78752C7.74473 7.78752 7.7066 7.66578 7.76209 7.53867C7.82833 7.38418 8.0168 7.24485 8.30598 7.13705C8.58513 7.03267 8.81296 7.00969 8.94911 7.07129C9.04029 7.11236 9.08038 7.19156 9.0904 7.21723L9.09113 7.22407L11.1105 12.2809L11.9868 11.9524L11.1711 9.91051L12.2723 9.49789C12.3481 9.48812 12.6762 9.48396 12.892 10.0261L13.444 11.4055L14.3203 11.077L13.8563 9.91589L14.84 9.54825H14.8407L14.8722 9.53554L14.8417 9.54825C14.9426 9.53969 15.1411 9.63918 15.3118 10.0655L15.8627 11.4444L16.7383 11.1159L16.2397 9.86676L17.1346 9.53138L17.1536 9.52405C17.1536 9.52405 17.217 9.51354 17.2793 9.53896C17.3998 9.58736 17.5166 9.74307 17.611 9.97872C17.611 9.97872 18.6841 12.7473 18.8777 14.1225C19.0923 15.6493 19.0148 17.6012 18.9471 18.5934C19.2837 18.2412 19.6 17.8696 19.8878 17.4753C19.8885 17.4746 19.889 17.4741 19.8895 17.4731V17.4726C21.2156 15.6557 22 13.4178 22 10.9961C22 4.92116 17.0752 -0.00390625 10.9998 -0.00390625C10.4087 -0.00390625 9.82887 0.0440048 9.26273 0.133716C11.1924 1.26989 12.4914 3.36307 12.4914 5.76498C12.4914 6.82343 12.234 7.82003 11.7874 8.70443L10.8323 9.0618L9.98678 6.94614C9.97553 6.91192 9.95084 6.85496 9.91711 6.79018C10.0014 6.46165 10.0508 6.11943 10.0508 5.76449C10.0508 3.487 8.20478 1.64096 5.92729 1.64096C3.6498 1.64096 1.804 3.487 1.804 5.76449C1.804 8.04198 3.65004 9.88851 5.92753 9.88851C6.46922 9.88851 6.98549 9.7812 7.45922 9.59127L8.32016 11.7473L8.35804 11.8392C7.61371 12.1337 6.80484 12.3009 5.95589 12.3009C3.47233 12.3009 1.31242 10.9154 0.206556 8.87505C0.0721111 9.56194 0 10.2701 0 10.9961C0 17.0715 4.92482 21.9961 10.9998 21.9961C12.0699 21.9961 13.1022 21.8392 14.08 21.5544L13.0729 19.0329ZM6.89602 7.18545C6.76109 7.49638 6.78504 7.78018 6.82489 7.95863C6.54793 8.07229 6.24531 8.1356 5.92753 8.1356C4.61804 8.1356 3.55667 7.07374 3.55667 5.76425C3.55667 4.45476 4.61804 3.39338 5.92753 3.39338C7.23702 3.39338 8.2984 4.45476 8.2984 5.76425C8.2984 5.91434 8.283 6.06027 8.25636 6.20254C8.16176 6.22698 8.0674 6.2502 7.96767 6.2876C7.42769 6.49074 7.06616 6.79312 6.89602 7.18545Z"
      fill="black" />
  </g>
  <defs>
    <clipPath id="clip0">
      <rect width="22" height="22" fill="white" />
    </clipPath>
  </defs>
</svg>