<svg width="22" height="22" viewBox="0 0 22 22" fill="none" xmlns="http://www.w3.org/2000/svg">
  <path
    d="M20.7777 5.96536C20.5577 5.52536 20.0199 5.35424 19.5799 5.57424C19.1399 5.79424 18.9688 6.33202 19.1888 6.77202C19.8733 8.09202 20.2155 9.48536 20.2155 10.9765C20.2155 16.0609 16.0844 20.1676 11.0244 20.1676C9.31328 20.1676 7.62662 19.6787 6.15995 18.7742C5.74439 18.5054 5.18217 18.652 4.91328 19.0676C4.64439 19.4831 4.79106 20.0454 5.20662 20.3142C6.94217 21.4387 8.94662 22.0009 10.9999 22.0009C17.0622 22.0009 21.9999 17.0631 21.9999 11.0009C21.9999 9.26536 21.5844 7.5298 20.7777 5.96536Z"
    fill="black" />
  <path
    d="M1.63778 15.6933C1.76 15.6933 1.85778 15.6689 1.98 15.62C2.44444 15.4244 2.66444 14.9111 2.46889 14.4467C2.02889 13.3467 1.80889 12.1978 1.80889 11C1.80889 5.91556 5.94 1.80889 11 1.80889C12.54 1.80889 14.0311 2.2 15.3756 2.90889C15.8156 3.15333 16.3533 2.98222 16.5978 2.54222C16.8422 2.10222 16.6711 1.56444 16.2311 1.32C14.6422 0.464444 12.8333 0 11 0C4.93778 0 0 4.93778 0 11C0 12.4178 0.268889 13.8111 0.806667 15.1311C0.953333 15.4733 1.27111 15.6933 1.63778 15.6933Z"
    fill="black" />
  <path
    d="M7.26082 14.0303L9.19194 15.5214C9.58305 15.8147 10.1453 15.7658 10.463 15.3747L20.0453 3.00581L20.5342 3.39692C20.6075 3.47025 20.7053 3.4947 20.803 3.4947C20.8764 3.4947 20.9497 3.47025 20.9986 3.44581C21.1453 3.37247 21.243 3.20136 21.243 3.03025L21.2186 0.439141C21.2186 0.292474 21.1453 0.170252 21.0475 0.0969189C20.9497 0.0235856 20.803 -0.0253034 20.6808 0.0235855L18.1386 0.585808C17.9675 0.634697 17.8453 0.756919 17.7964 0.92803C17.7475 1.09914 17.8208 1.27025 17.9675 1.36803L18.6275 1.88136L9.58305 13.5414L7.65194 12.0503C7.26082 11.7569 6.6986 11.8058 6.38082 12.1969L1.83416 18.088C1.80971 18.088 1.76082 18.088 1.73638 18.088C0.85638 18.088 0.123047 18.7969 0.123047 19.7014C0.123047 20.1658 0.318602 20.5814 0.660825 20.8747C0.685269 20.8991 0.709714 20.948 0.758602 20.9725C0.831936 21.0458 0.929713 21.0947 1.02749 21.1191C1.24749 21.2169 1.49194 21.2903 1.73638 21.2903C2.61638 21.2903 3.34971 20.5814 3.34971 19.6769C3.34971 19.5058 3.32527 19.3347 3.27638 19.188L7.26082 14.0303Z"
    fill="black" />
</svg>