<svg width="23" height="14" viewBox="0 0 23 14" fill="none" xmlns="http://www.w3.org/2000/svg">
  <g clip-path="url(#clip0)">
    <path
      d="M11.5 0.205078C9.01042 0.211225 6.58962 1.02459 4.5991 2.52371C2.60859 4.02282 1.15517 6.12725 0.455895 8.52273C0.419262 8.62783 0.389086 8.73509 0.365538 8.8439C0.122335 9.71794 -0.000647109 10.6212 2.56052e-06 11.5286V12.558C2.56052e-06 12.6672 0.0432742 12.772 0.120298 12.8492C0.197322 12.9264 0.301789 12.9698 0.410717 12.9698C0.519645 12.9698 0.624112 12.9264 0.701136 12.8492C0.778159 12.772 0.821431 12.6672 0.821431 12.558V11.7345C0.821638 10.8317 0.934783 9.93255 1.15822 9.05802C1.15822 8.96743 1.2075 8.87684 1.24036 8.7739C1.81886 6.88302 2.98908 5.22904 4.57789 4.05662C6.16671 2.88421 8.08974 2.25564 10.0625 2.2639H10.4732C12.9234 2.26608 15.2727 3.24288 17.0052 4.97988C18.7378 6.71688 19.7121 9.07212 19.7143 11.5286V12.558C19.7143 12.6672 19.7576 12.772 19.8346 12.8492C19.9116 12.9264 20.0161 12.9698 20.125 12.9698H22.5893C22.6982 12.9698 22.8027 12.9264 22.8797 12.8492C22.9567 12.772 23 12.6672 23 12.558V11.7345C23 8.6767 21.7884 5.74415 19.6317 3.58196C17.4751 1.41978 14.55 0.205078 11.5 0.205078ZM11.9107 1.54331V1.03684C13.6453 1.10576 15.337 1.5976 16.8393 2.46978L16.3341 3.34684C15.0254 2.3984 13.5082 1.77979 11.9107 1.54331ZM10.0625 1.44037C9.31491 1.44226 8.56978 1.52649 7.84054 1.69155C8.88309 1.30713 9.97932 1.08899 11.0893 1.04508V1.45684C10.8839 1.45684 10.6786 1.43625 10.4732 1.43625L10.0625 1.44037ZM16.9913 3.8492L17.5375 2.90214C18.079 3.27605 18.5849 3.69922 19.0489 4.16625C19.7824 4.89455 20.4051 5.72697 20.8971 6.63684L19.6363 7.36978C19.0221 6.01639 18.1192 4.8146 16.9913 3.8492ZM22.1786 12.1463H20.5357V11.5286C20.5355 10.3736 20.3369 9.22719 19.9484 8.13978L21.2586 7.38625C21.8662 8.75487 22.1797 10.2364 22.1786 11.7345V12.1463Z"
      fill="black" />
    <path
      d="M14.1699 5.35151C14.0867 5.30362 13.9894 5.28646 13.8948 5.30301C13.8003 5.31956 13.7145 5.36877 13.6524 5.4421C13.1965 5.99798 9.19617 10.7045 8.84706 11.3221C8.70311 11.5721 8.62721 11.8556 8.62695 12.1442C8.6267 12.4328 8.7021 12.7164 8.84561 12.9667C8.98911 13.2169 9.19568 13.4249 9.44462 13.5699C9.69356 13.7148 9.97613 13.7917 10.264 13.7927C10.4043 13.7923 10.5438 13.7729 10.6788 13.735C10.887 13.6801 11.0821 13.584 11.2528 13.4525C11.4235 13.321 11.5662 13.1567 11.6728 12.9692C12.0219 12.3597 14.1001 6.52916 14.3342 5.86622C14.3733 5.77499 14.3783 5.67265 14.3481 5.57807C14.3179 5.48348 14.2546 5.40302 14.1699 5.35151ZM10.9787 12.5574C10.87 12.7459 10.6913 12.8836 10.4817 12.9403C10.3774 12.9684 10.2685 12.9756 10.1614 12.9615C10.0543 12.9474 9.95096 12.9122 9.85742 12.858C9.76349 12.8031 9.68136 12.7301 9.61579 12.6431C9.55022 12.5562 9.50252 12.4571 9.47545 12.3515C9.44741 12.2469 9.44024 12.1378 9.45433 12.0304C9.46843 11.923 9.50352 11.8194 9.5576 11.7256C9.7342 11.4209 11.2949 9.53092 12.8105 7.72328C12.0096 9.95092 11.1553 12.2527 10.9787 12.5574Z"
      fill="black" />
    <path
      d="M2.05329 10.9102C1.97206 10.9102 1.89265 10.9343 1.82511 10.9796C1.75757 11.0248 1.70493 11.0891 1.67384 11.1643C1.64276 11.2396 1.63462 11.3224 1.65047 11.4023C1.66632 11.4821 1.70543 11.5555 1.76287 11.6131C1.82031 11.6707 1.8935 11.7099 1.97317 11.7258C2.05284 11.7417 2.13542 11.7335 2.21047 11.7023C2.28551 11.6712 2.34966 11.6184 2.39479 11.5507C2.43992 11.483 2.46401 11.4034 2.46401 11.3219C2.46401 11.2127 2.42074 11.108 2.34371 11.0308C2.26669 10.9535 2.16222 10.9102 2.05329 10.9102Z"
      fill="black" />
    <path
      d="M10.2681 12.5579C10.3771 12.5579 10.4815 12.5145 10.5586 12.4373C10.6356 12.3601 10.6789 12.2553 10.6789 12.1461C10.6789 12.0369 10.6356 11.9322 10.5586 11.855C10.4815 11.7778 10.3771 11.7344 10.2681 11.7344C10.1592 11.7344 10.0547 11.7778 9.97772 11.855C9.90069 11.9322 9.85742 12.0369 9.85742 12.1461C9.85742 12.2553 9.90069 12.3601 9.97772 12.4373C10.0547 12.5145 10.1592 12.5579 10.2681 12.5579Z"
      fill="black" />
    <path
      d="M3.9395 7.16864C4.03146 7.17004 4.12122 7.14047 4.19442 7.08464C4.26761 7.02882 4.32 6.94999 4.3432 6.86077C4.36639 6.77155 4.35905 6.67711 4.32234 6.59257C4.28564 6.50803 4.22169 6.43829 4.14075 6.39452C4.09356 6.36748 4.04151 6.35003 3.98759 6.34316C3.93367 6.33628 3.87893 6.34013 3.82649 6.35447C3.77405 6.3688 3.72494 6.39336 3.68196 6.42672C3.63899 6.46009 3.60299 6.50162 3.57602 6.54893C3.54905 6.59625 3.53164 6.64842 3.52479 6.70248C3.51793 6.75654 3.52177 6.81142 3.53607 6.864C3.55037 6.91657 3.57486 6.96581 3.60814 7.00889C3.64142 7.05198 3.68284 7.08807 3.73004 7.11511C3.79384 7.15138 3.86617 7.16986 3.9395 7.16864Z"
      fill="black" />
    <path
      d="M8.08318 4.07925C8.1276 4.04804 8.16542 4.00832 8.19444 3.96238C8.22347 3.91645 8.24313 3.8652 8.2523 3.8116C8.26146 3.75801 8.25995 3.70312 8.24784 3.65012C8.23573 3.59711 8.21327 3.54703 8.18176 3.50277C8.14045 3.44611 8.08538 3.40098 8.02178 3.37165C7.95818 3.34233 7.88816 3.32979 7.81837 3.33522C7.74857 3.34065 7.68132 3.36388 7.623 3.4027C7.56468 3.44152 7.51723 3.49464 7.48514 3.55701C7.45305 3.61939 7.4374 3.68895 7.43967 3.7591C7.44194 3.82924 7.46205 3.89764 7.4981 3.9578C7.53416 4.01796 7.58495 4.06789 7.64565 4.10284C7.70636 4.13778 7.77497 4.15659 7.84497 4.15748C7.93057 4.15693 8.01385 4.12957 8.08318 4.07925Z"
      fill="black" />
  </g>
  <defs>
    <clipPath id="clip0">
      <rect width="23" height="14" fill="white" />
    </clipPath>
  </defs>
</svg>