<svg width="22" height="22" viewBox="0 0 22 22" fill="none" xmlns="http://www.w3.org/2000/svg">
  <g clip-path="url(#clip0)">
    <path
      d="M10.6334 21.2664C9.24223 21.2717 7.86472 20.9917 6.586 20.4436C5.30728 19.8956 4.15451 19.0912 3.1989 18.0801L2.66797 18.5861C3.69534 19.6648 4.93112 20.5236 6.30036 21.1104C7.66959 21.6972 9.14375 21.9998 10.6334 21.9998C12.1231 21.9998 13.5973 21.6972 14.9665 21.1104C16.3357 20.5236 17.5715 19.6648 18.5989 18.5861L18.068 18.0801C17.1124 19.0912 15.9596 19.8956 14.6809 20.4436C13.4022 20.9917 12.0246 21.2717 10.6334 21.2664Z"
      fill="black" />
    <path d="M0.367188 15.4007H0.733854H3.30052V12.834H0.367188V15.4007Z" fill="black" />
    <path
      d="M0.367188 11.7339V12.1005H3.30052V11.7339C3.30052 11.6366 3.26189 11.5433 3.19313 11.4746C3.12436 11.4058 3.0311 11.3672 2.93385 11.3672H0.733854C0.636608 11.3672 0.543345 11.4058 0.474582 11.4746C0.405818 11.5433 0.367188 11.6366 0.367188 11.7339Z"
      fill="black" />
    <path
      d="M0.367188 16.4995C0.367188 16.5967 0.405818 16.69 0.474582 16.7588C0.543345 16.8275 0.636608 16.8661 0.733854 16.8661H2.93385C3.0311 16.8661 3.12436 16.8275 3.19313 16.7588C3.26189 16.69 3.30052 16.5967 3.30052 16.4995V16.1328H0.367188V16.4995Z"
      fill="black" />
    <path d="M12.0996 15.4H18.6996V11H12.0996V15.0333V15.4Z" fill="black" />
    <path
      d="M20.1661 15.3999V9.89987C20.1661 9.80262 20.1275 9.70936 20.0588 9.6406C19.99 9.57183 19.8967 9.5332 19.7995 9.5332H10.9995C10.9022 9.5332 10.809 9.57183 10.7402 9.6406C10.6714 9.70936 10.6328 9.80262 10.6328 9.89987V15.3999H11.3661V10.6332C11.3661 10.536 11.4048 10.4427 11.4735 10.3739C11.5423 10.3052 11.6356 10.2665 11.7328 10.2665H19.0661C19.1634 10.2665 19.2567 10.3052 19.3254 10.3739C19.3942 10.4427 19.4328 10.536 19.4328 10.6332V15.3999H20.1661Z"
      fill="black" />
    <path
      d="M1.09961 9.89987V10.6332H2.93294C3.22468 10.6332 3.50447 10.7491 3.71076 10.9554C3.91705 11.1617 4.03294 11.4415 4.03294 11.7332V15.3999H6.23294V9.89987C6.23294 9.80262 6.19431 9.70936 6.12555 9.6406C6.05679 9.57183 5.96352 9.5332 5.86628 9.5332H1.46628C1.36903 9.5332 1.27577 9.57183 1.207 9.6406C1.13824 9.70936 1.09961 9.80262 1.09961 9.89987Z"
      fill="black" />
    <path
      d="M9.16693 15.4004H8.43359V16.8671H9.00413C8.87215 16.6451 8.80178 16.392 8.80026 16.1337V15.7671C8.80026 15.6698 8.83889 15.5765 8.90765 15.5078C8.97642 15.439 9.06968 15.4004 9.16693 15.4004Z"
      fill="black" />
    <path
      d="M20.5332 16.1328H9.5332C9.5332 16.3273 9.61046 16.5138 9.74799 16.6514C9.88552 16.7889 10.072 16.8661 10.2665 16.8661H20.1665C20.361 16.8661 20.5476 16.7889 20.6851 16.6514C20.8226 16.5138 20.8999 16.3273 20.8999 16.1328H20.5332Z"
      fill="black" />
    <path
      d="M3.66602 5.49948V8.79948H5.86602C6.15775 8.79948 6.43754 8.91537 6.64383 9.12166C6.85012 9.32795 6.96602 9.60774 6.96602 9.89948V12.4661H9.89935V9.89948C9.89935 9.60774 10.0152 9.32795 10.2215 9.12166C10.4278 8.91537 10.7076 8.79948 10.9993 8.79948H16.1327V5.49948C16.1327 5.40223 16.0941 5.30897 16.0253 5.24021C15.9565 5.17144 15.8633 5.13281 15.766 5.13281H4.03268C3.93544 5.13281 3.84217 5.17144 3.77341 5.24021C3.70465 5.30897 3.66602 5.40223 3.66602 5.49948Z"
      fill="black" />
    <path
      d="M9.89924 13.2012H6.9659V16.5012C6.96469 16.6264 6.94186 16.7504 6.89844 16.8678H7.69924V15.0345C7.69924 14.9373 7.73787 14.844 7.80663 14.7752C7.87539 14.7065 7.96866 14.6678 8.0659 14.6678H9.89924V13.2012Z"
      fill="black" />
    <path
      d="M6.23231 16.4995V16.1328H4.03231V16.4995C4.0311 16.6247 4.00827 16.7487 3.96484 16.8661H5.86564C5.96289 16.8661 6.05615 16.8275 6.12492 16.7588C6.19368 16.69 6.23231 16.5967 6.23231 16.4995Z"
      fill="black" />
    <path
      d="M10.6328 0.73297C12.9259 0.728541 15.1542 1.49358 16.961 2.90564C18.7678 4.31769 20.0486 6.2951 20.5984 8.52134L21.3101 8.3446C20.7248 5.9943 19.3804 3.90278 17.4853 2.39437C15.5903 0.885964 13.2505 0.0449513 10.8288 0.00175141C8.40712 -0.0414484 6.03883 0.715578 4.09119 2.15544C2.14355 3.5953 0.725397 5.63754 0.0566406 7.96547L0.761374 8.16714C1.38269 6.02781 2.68025 4.14728 4.45978 2.80712C6.23931 1.46695 8.40506 0.739253 10.6328 0.73297Z"
      fill="black" />
    <path
      d="M10.6325 1.46683C8.57057 1.46154 6.56359 2.13117 4.91797 3.37349L5.35797 3.96016C6.47069 3.12518 7.76561 2.56608 9.13639 2.32877C10.5072 2.09146 11.9147 2.18271 13.2433 2.59503C14.572 3.00735 15.7839 3.72898 16.7795 4.70065C17.7751 5.67231 18.526 6.86629 18.9705 8.18453L19.6653 7.94913C19.027 6.05954 17.8121 4.41773 16.1917 3.25487C14.5713 2.092 12.627 1.46664 10.6325 1.46683Z"
      fill="black" />
    <path
      d="M2.07261 6.80469C1.89047 7.17544 1.73248 7.55757 1.59961 7.94869L2.29444 8.18409C2.41683 7.823 2.56258 7.47025 2.73078 7.12809L2.07261 6.80469Z"
      fill="black" />
    <path
      d="M10.633 19.7989C8.5746 19.7973 6.58191 19.0744 5.00132 17.7559L4.53125 18.3187C6.17887 19.6952 8.24351 20.4742 10.3898 20.5291C12.536 20.5841 14.6378 19.9117 16.3537 18.6212L15.9137 18.0345C14.3937 19.1842 12.5388 19.804 10.633 19.7989Z"
      fill="black" />
  </g>
  <defs>
    <clipPath id="clip0">
      <rect width="21.2667" height="22" fill="white" />
    </clipPath>
  </defs>
</svg>