<svg width="22" height="22" viewBox="0 0 22 22" fill="none" xmlns="http://www.w3.org/2000/svg">
  <path
    d="M4.8157 5.01562H17.1804C17.4007 5.01562 17.6008 5.10558 17.7457 5.25047C17.8905 5.39537 17.9805 5.59544 17.9805 5.81568V16.1867C17.9805 16.407 17.8905 16.6071 17.7457 16.752C17.6008 16.8969 17.4007 16.9868 17.1804 16.9868H4.8157C4.59544 16.9868 4.39537 16.8969 4.25047 16.752C4.10558 16.6071 4.01562 16.407 4.01562 16.1867V5.81568C4.01562 5.59544 4.10558 5.39537 4.25047 5.25047C4.39537 5.10558 4.59544 5.01562 4.8157 5.01562ZM17.1804 5.45203H4.8157C4.71592 5.45203 4.62504 5.49301 4.55902 5.55902C4.49302 5.62502 4.45203 5.71591 4.45203 5.81568V16.1867C4.45203 16.2865 4.49302 16.3774 4.55902 16.4434C4.62504 16.5094 4.71592 16.5504 4.8157 16.5504H17.1804C17.2802 16.5504 17.3711 16.5094 17.4371 16.4434C17.5031 16.3774 17.5441 16.2865 17.5441 16.1867V5.81568C17.5441 5.71591 17.5031 5.62502 17.4371 5.55902C17.3711 5.49301 17.2802 5.45203 17.1804 5.45203Z"
    fill="black" />
  <path
    d="M10.9966 8.54102C12.0728 8.54102 13.0477 8.9674 13.7538 9.65674C14.4617 10.3477 14.8995 11.3022 14.8995 12.3562C14.8995 13.4101 14.4617 14.3646 13.7538 15.0556C13.0477 15.7449 12.0728 16.1713 10.9966 16.1713C9.92048 16.1713 8.94561 15.7449 8.23944 15.0556C7.5316 14.3646 7.09375 13.4101 7.09375 12.3562C7.09375 11.3022 7.5316 10.3477 8.23944 9.65674C8.94561 8.9674 9.92051 8.54102 10.9966 8.54102ZM13.4504 9.96872C12.823 9.35625 11.9555 8.97742 10.9966 8.97742C10.0378 8.97742 9.17031 9.35625 8.54289 9.96872C7.91719 10.5795 7.53015 11.4236 7.53015 12.3562C7.53015 13.2887 7.91719 14.1328 8.54289 14.7436C9.1703 15.3561 10.0378 15.7349 10.9966 15.7349C11.9555 15.7349 12.823 15.3561 13.4504 14.7436C14.0761 14.1328 14.4631 13.2887 14.4631 12.3562C14.4631 11.4236 14.0761 10.5795 13.4504 9.96872Z"
    fill="black" />
  <path
    d="M10.9997 8.54102C11.4973 8.54102 11.9292 8.99606 12.2253 9.73175C12.4973 10.4075 12.6655 11.3357 12.6655 12.3561C12.6655 13.3766 12.4973 14.3048 12.2253 14.9805C11.9292 15.7163 11.4973 16.1713 10.9997 16.1713C10.5021 16.1713 10.0702 15.7163 9.77416 14.9805C9.5022 14.3048 9.33398 13.3766 9.33398 12.3561C9.33398 11.3357 9.5022 10.4075 9.77416 9.73175C10.0702 8.99606 10.5022 8.54102 10.9997 8.54102ZM11.8213 9.89371C11.5935 9.32757 11.3016 8.97742 10.9997 8.97742C10.6979 8.97742 10.406 9.32757 10.1782 9.89371C9.92622 10.5198 9.77039 11.3901 9.77039 12.3561C9.77039 13.3223 9.92622 14.1925 10.1782 14.8186C10.406 15.3847 10.6979 15.7349 10.9997 15.7349C11.3016 15.7349 11.5935 15.3847 11.8213 14.8186C12.0732 14.1925 12.2291 13.3223 12.2291 12.3561C12.2291 11.3901 12.0732 10.5198 11.8213 9.89371Z"
    fill="black" />
  <path d="M7.31192 12.1426H7.09375V12.579H7.31192H14.6813H14.8995V12.1426H14.6813H7.31192Z" fill="black" />
  <path d="M4.23633 7.41406H17.7648V7.85047H4.23633V7.41406Z" fill="black" />
  <path
    d="M12.769 6.21875C12.6485 6.21875 12.5508 6.31644 12.5508 6.43695C12.5508 6.55745 12.6485 6.65515 12.769 6.65515H13.2527C13.3732 6.65515 13.4709 6.55745 13.4709 6.43695C13.4709 6.31644 13.3732 6.21875 13.2527 6.21875H12.769Z"
    fill="black" />
  <path
    d="M14.3608 6.21875C14.2403 6.21875 14.1426 6.31644 14.1426 6.43695C14.1426 6.55745 14.2403 6.65515 14.3608 6.65515H14.8445C14.965 6.65515 15.0627 6.55745 15.0627 6.43695C15.0627 6.31644 14.965 6.21875 14.8445 6.21875H14.3608Z"
    fill="black" />
  <path
    d="M15.9545 6.21875C15.834 6.21875 15.7363 6.31644 15.7363 6.43695C15.7363 6.55745 15.834 6.65515 15.9545 6.65515H16.4383C16.5588 6.65515 16.6565 6.55745 16.6565 6.43695C16.6565 6.31644 16.5588 6.21875 16.4383 6.21875H15.9545Z"
    fill="black" />
  <path fill-rule="evenodd" clip-rule="evenodd"
    d="M11 0C17.0751 0 22 4.92487 22 11C22 17.0751 17.0751 22 11 22C4.92487 22 0 17.0751 0 11C0 4.92484 4.92487 0 11 0ZM11 0.537117C16.7785 0.537117 21.4629 5.22148 21.4629 11C21.4629 16.7785 16.7785 21.4629 11 21.4629C5.22148 21.4629 0.537088 16.7785 0.537088 11C0.537088 5.22151 5.22148 0.537117 11 0.537117Z"
    fill="black" />
</svg>