<svg width="491" height="491" viewBox="0 0 491 491" fill="none" xmlns="http://www.w3.org/2000/svg">
  <g opacity="0.7">
    <path opacity="0.7"
      d="M58.1249 141.743C49.3557 165.311 45.7616 189.056 45.0349 211.622C44.917 214.814 44.8778 217.976 44.8974 221.118C44.9766 231.022 45.6522 240.913 46.9203 250.736C48.4646 262.676 50.8636 274.49 54.0987 286.087C58.7764 302.981 65.2315 319.331 73.3558 334.863C78.7152 345.237 85.0132 355.098 92.1709 364.323C165.261 456.71 213.86 446.733 233.471 445.319C263.658 443.149 365.53 351.047 387.586 329.993C409.642 308.939 433.269 289.063 449.58 262.765C465.891 236.467 497.874 149.403 364.735 66.3552C356.343 61.5019 347.68 57.1315 338.79 53.2651C183.192 -22.4863 86.927 64.3224 58.1249 141.743Z"
      fill="#29538E" />
  </g>
  <g opacity="0.7">
    <path opacity="0.7"
      d="M57.8789 141.526C49.0998 165.094 45.5155 188.839 44.779 211.415C44.671 214.597 44.6317 217.769 44.6514 220.911C44.726 230.812 45.4016 240.699 46.6743 250.519C50.4822 279.906 59.4269 308.395 73.0999 334.686C78.4638 345.059 84.765 354.92 91.9248 364.146C164.976 456.572 213.604 446.585 233.225 445.171C263.402 443 365.284 350.899 387.34 329.845C409.396 308.79 433.023 288.915 449.334 262.627C465.645 236.338 497.658 149.196 364.489 66.148C356.098 61.2891 347.44 56.909 338.554 53.0285C182.946 -22.6935 86.681 64.1153 57.8789 141.526Z"
      fill="white" />
  </g>
  <path
    d="M106.273 427.613C106.338 428.04 106.534 428.437 106.836 428.747C107.137 429.057 107.528 429.265 107.953 429.342C108.379 429.418 108.817 429.36 109.208 429.175C109.599 428.99 109.922 428.688 110.132 428.31C114.522 420.454 125.422 405.665 149.334 394.843C171.92 384.64 152.947 359.207 135.409 367.672C116.495 376.794 102.443 401.855 106.273 427.613Z"
    fill="#29538E" />
  <path opacity="0.2"
    d="M109.15 424.943C110.35 421.531 112.194 418.38 114.58 415.663C120.472 408.72 129.055 401.08 120.836 405.244C126.397 401.084 132.413 397.569 138.767 394.766C148.145 390.838 130.243 391.289 130.243 391.289C130.243 391.289 151.15 378.69 147.919 374.821C145.248 371.649 132.669 381.627 132.669 381.627C132.669 381.627 134.937 372.877 132.669 372.631C130.4 372.386 122.75 390.17 122.75 390.17C122.75 390.17 123.654 384.592 120.855 385.191C118.056 385.79 105.948 412.304 109.15 424.943Z"
    fill="#263238" />
  <path
    d="M93.34 427.004C93.3284 427.388 93.1955 427.759 92.9605 428.064C92.7255 428.369 92.4002 428.591 92.0311 428.7C91.6621 428.809 91.2681 428.799 90.9053 428.67C90.5426 428.542 90.2296 428.302 90.0111 427.986C85.4153 421.446 74.466 409.446 52.4201 402.071C31.6312 395.118 45.9389 371.04 62.1615 376.912C79.6411 383.207 94.3319 403.996 93.34 427.004Z"
    fill="#29538E" />
  <path opacity="0.2"
    d="M90.2165 423.38C88.8329 420.599 86.9295 418.109 84.6093 416.044C78.8155 410.751 70.7336 405.144 78.1673 407.834C72.9892 404.882 67.4946 402.524 61.7876 400.803C53.3915 398.476 68.6616 396.964 68.6616 396.964C68.6616 396.964 49.5224 388.43 51.8694 384.787C53.8334 381.841 65.6174 389 65.6174 389C65.6174 389 62.7499 381.782 64.6354 381.34C66.5208 380.898 74.9562 395.206 74.9562 395.206C74.9562 395.206 73.5814 390.551 76.0266 390.777C78.4718 391.003 91.5913 412.283 90.2165 423.38Z"
    fill="black" />
  <path d="M63.0059 391.318C63.0059 391.318 86.6328 403.102 95.2351 438.592" stroke="#263238" stroke-width="0.75"
    stroke-linecap="round" stroke-linejoin="round" />
  <path
    d="M101.963 428.358C101.712 428.828 101.322 429.207 100.846 429.445C100.37 429.682 99.832 429.766 99.3065 429.684C98.7809 429.602 98.2939 429.358 97.9129 428.987C97.532 428.616 97.276 428.135 97.1804 427.612C95.3342 416.643 88.745 395.039 65.3538 372.767C43.2882 351.772 75.9397 329.746 92.8498 346.695C111.144 364.96 117.125 399.861 101.963 428.358Z"
    fill="#29538E" />
  <path opacity="0.2"
    d="M99.5664 423.97C99.4124 419.443 98.3854 414.988 96.5419 410.851C92.0247 400.353 84.6597 388.078 92.9478 396.072C87.8337 389.06 81.9363 382.655 75.37 376.981C65.55 368.9 86.8986 375.921 86.8986 375.921C86.8986 375.921 66.5418 353.188 71.9035 349.731C76.3029 346.893 87.6155 363.479 87.6155 363.479C87.6155 363.479 88.1851 352.147 90.9936 352.677C93.8021 353.207 96.316 377.306 96.316 377.306C96.316 377.306 97.298 370.284 100.45 372.022C103.602 373.761 108.169 409.967 99.5664 423.97Z"
    fill="#263238" />
  <path d="M85.2188 365.432C85.2188 365.432 107.913 394.253 97.3563 444.11" stroke="#263238" stroke-width="0.75"
    stroke-linecap="round" stroke-linejoin="round" />
  <path d="M136.166 383.963C136.166 383.963 110.968 400.009 105.508 440.86" stroke="#263238" stroke-width="0.75"
    stroke-linecap="round" stroke-linejoin="round" />
  <path
    d="M115.739 457.613H84.3154C82.6296 457.626 80.9979 457.019 79.7305 455.907C78.4631 454.796 77.6485 453.257 77.4414 451.584L75.772 437.198C75.7389 436.879 75.7732 436.557 75.8728 436.253C75.9724 435.949 76.1349 435.669 76.3499 435.432C76.5648 435.195 76.8273 435.006 77.1203 434.877C77.4133 434.748 77.7301 434.682 78.0502 434.684H121.926C122.246 434.682 122.563 434.748 122.856 434.877C123.149 435.006 123.411 435.195 123.626 435.432C123.841 435.669 124.004 435.949 124.103 436.253C124.203 436.557 124.237 436.879 124.204 437.198L122.535 451.584C122.329 453.243 121.526 454.771 120.275 455.881C119.024 456.991 117.412 457.607 115.739 457.613Z"
    fill="white" stroke="#263238" stroke-miterlimit="10" />
  <path d="M83.6082 441.508H78.875" stroke="#263238" stroke-linecap="round" stroke-linejoin="round" />
  <path d="M121.435 441.508H88.7637" stroke="#263238" stroke-linecap="round" stroke-linejoin="round" />
  <path
    d="M394.127 406.117C394.215 406.274 393.39 407.05 396.091 407.168C402.778 407.462 414.621 407.05 419.089 400.971C425.463 392.3 410.821 393.056 412.215 388.264C413.61 383.472 429.371 387.439 432.464 380.604C435.558 373.77 424.107 375.076 424.608 371.56C425.109 368.045 437.139 372.631 441.116 365.383C445.093 358.136 434.595 361.996 436.304 358.991C438.013 355.986 451.358 343.514 445.977 340.706C440.595 337.897 428.153 350.928 424.009 352.313C419.865 353.698 418.972 340.883 413.531 345.154C408.091 349.426 411.567 368.791 405.273 371.167C400.559 372.945 403.152 366.022 397.338 366.257C389.443 366.611 386.762 393.724 394.127 406.117Z"
    fill="#29538E" />
  <g opacity="0.1">
    <path opacity="0.1"
      d="M394.127 406.117C394.215 406.274 393.39 407.05 396.091 407.168C402.778 407.462 414.621 407.05 419.089 400.971C425.463 392.3 410.821 393.056 412.215 388.264C413.61 383.472 429.371 387.439 432.464 380.604C435.558 373.77 424.107 375.076 424.608 371.56C425.109 368.045 437.139 372.631 441.116 365.383C445.093 358.136 434.595 361.996 436.304 358.991C438.013 355.986 451.358 343.514 445.977 340.706C440.595 337.897 428.153 350.928 424.009 352.313C419.865 353.698 418.972 340.883 413.531 345.154C408.091 349.426 411.567 368.791 405.273 371.167C400.559 372.945 403.152 366.022 397.338 366.257C389.443 366.611 386.762 393.724 394.127 406.117Z"
      fill="black" />
  </g>
  <path d="M420.718 366.287C420.718 366.287 394.764 384.081 389.059 429.361" stroke="#263238" stroke-width="0.75"
    stroke-linecap="round" stroke-linejoin="round" />
  <path d="M424.687 371.875C418.412 370.53 414.572 371.767 414.572 371.767" stroke="#263238" stroke-width="0.75"
    stroke-linecap="round" stroke-linejoin="round" />
  <path d="M417.577 353.168C417.577 353.168 409.721 363.607 409.721 377.217" stroke="#263238" stroke-width="0.75"
    stroke-linecap="round" stroke-linejoin="round" />
  <path d="M402.021 388.707C402.021 388.707 407.648 383.424 415.102 386.124" stroke="#263238" stroke-width="0.75"
    stroke-linecap="round" stroke-linejoin="round" />
  <path d="M397.966 396.729C396.088 391.396 395.631 385.666 396.64 380.104" stroke="#263238" stroke-width="0.75"
    stroke-linecap="round" stroke-linejoin="round" />
  <path
    d="M386.191 413.08C380.682 413.188 371.275 408.072 367.582 403.093C363.89 398.114 374.378 401.129 373.298 397.201C372.218 393.273 359.216 396.17 356.82 390.494C354.424 384.818 363.802 386.124 363.429 383.217C363.055 380.31 353.343 380.9 350.221 374.87C347.098 368.841 355.651 372.219 354.306 369.715C352.96 367.21 342.257 356.683 346.735 354.484C351.212 352.284 361.258 363.263 364.627 364.481C367.995 365.698 368.771 358.127 373.15 361.751C377.53 365.374 374.25 381.214 379.406 383.305C383.236 384.857 381.605 377.61 386.024 379.436C393.782 382.648 388.43 413.04 386.191 413.08Z"
    fill="#29538E" />
  <g opacity="0.3">
    <path opacity="0.3"
      d="M386.191 413.08C380.682 413.188 371.275 408.072 367.582 403.093C363.89 398.114 374.378 401.129 373.298 397.201C372.218 393.273 359.216 396.17 356.82 390.494C354.424 384.818 363.802 386.124 363.429 383.217C363.055 380.31 353.343 380.9 350.221 374.87C347.098 368.841 355.651 372.219 354.306 369.715C352.96 367.21 342.257 356.683 346.735 354.484C351.212 352.284 361.258 363.263 364.627 364.481C367.995 365.698 368.771 358.127 373.15 361.751C377.53 365.374 374.25 381.214 379.406 383.305C383.236 384.857 381.605 377.61 386.024 379.436C393.782 382.648 388.43 413.04 386.191 413.08Z"
      fill="white" />
  </g>
  <path d="M359.609 366.287C359.609 366.287 387.105 393.223 388.657 433.485" stroke="#263238" stroke-width="0.75"
    stroke-linecap="round" stroke-linejoin="round" />
  <path d="M358.941 378.788C362.898 378.76 366.818 379.542 370.46 381.086V381.086" stroke="#263238" stroke-width="0.75"
    stroke-linecap="round" stroke-linejoin="round" />
  <path d="M369.232 364.529C369.232 364.529 375.409 374.231 374.3 386.212" stroke="#263238" stroke-width="0.75"
    stroke-linecap="round" stroke-linejoin="round" />
  <path
    d="M378.258 392.997C376.758 391.616 374.936 390.632 372.958 390.138C370.979 389.644 368.909 389.655 366.936 390.169"
    stroke="#263238" stroke-width="0.75" stroke-linecap="round" stroke-linejoin="round" />
  <path d="M383.256 404.172C385.318 399.612 386.157 394.593 385.691 389.609" stroke="#263238" stroke-width="0.75"
    stroke-linecap="round" stroke-linejoin="round" />
  <path
    d="M362.359 432.846C362.359 446.82 374.487 458.123 389.443 458.123C404.399 458.123 416.566 446.811 416.566 432.846C416.566 424.99 407.944 417.94 400.432 413.305H378.533C371.021 417.94 362.359 424.981 362.359 432.846Z"
    fill="white" stroke="#263238" stroke-miterlimit="10" />
  <path d="M373.181 433.898H368.447" stroke="#263238" stroke-linecap="round" stroke-linejoin="round" />
  <path d="M411.007 433.898H378.336" stroke="#263238" stroke-linecap="round" stroke-linejoin="round" />
  <path d="M352.027 80.8874V70.5371" stroke="#263238" stroke-linecap="round" stroke-linejoin="round" />
  <path d="M355.849 77.7734L352.048 81.5738L348.248 77.7734" stroke="#263238" stroke-linecap="round"
    stroke-linejoin="round" />
  <path d="M356.761 68.1895H347.383" stroke="#263238" stroke-linecap="round" stroke-linejoin="round" />
  <path
    d="M349.013 61.7674C349.964 61.5546 350.936 61.446 351.91 61.4434C354.88 61.4508 357.76 62.4665 360.077 64.3241C362.394 66.1816 364.012 68.771 364.666 71.6681C365.319 74.5652 364.97 77.5983 363.674 80.2709C362.379 82.9434 360.215 85.0969 357.536 86.3788C354.856 87.6606 351.822 87.9948 348.928 87.3266C346.034 86.6584 343.453 85.0275 341.607 82.7009C339.761 80.3742 338.76 77.4898 338.768 74.5199C338.775 71.55 339.791 68.6706 341.648 66.3534"
    stroke="#263238" stroke-linecap="round" stroke-linejoin="round" />
  <path d="M344.684 63.6421C345.236 63.2748 345.814 62.9467 346.412 62.6602" stroke="#263238" stroke-linecap="round"
    stroke-linejoin="round" />
  <path d="M133.258 68.5918H153.497V78.9421H122.623V68.5918H125.009" stroke="#263238" stroke-linecap="round"
    stroke-linejoin="round" />
  <path d="M127.867 68.5918H130.744" stroke="#263238" stroke-linecap="round" stroke-linejoin="round" />
  <path d="M144.011 88.1348L138.06 94.0857L132.1 88.1348H134.888V82.1348H141.222V88.1348H144.011Z" stroke="#263238"
    stroke-linecap="round" stroke-linejoin="round" />
  <path d="M297.861 371.756H318.787L303.763 388.98L288.738 371.756H293.147" stroke="#263238" stroke-linecap="round"
    stroke-linejoin="round" />
  <path d="M303.762 358.193H313.396L303.762 369.241L294.129 358.193H298.852" stroke="#263238" stroke-linecap="round"
    stroke-linejoin="round" />
  <path d="M448.057 103.307H41.3418V332.898H448.057V103.307Z" fill="#BFBFBF" stroke="#263238" stroke-linecap="round"
    stroke-linejoin="round" />
  <path d="M443.795 107.795H45.6035V328.519H443.795V107.795Z" fill="#29538E" />
  <path opacity="0.9" d="M443.795 107.795H45.6035V328.519H443.795V107.795Z" fill="white" stroke="#263238"
    stroke-miterlimit="10" />
  <path d="M443.795 107.795H45.6035V328.519H443.795V107.795Z" stroke="#263238" stroke-miterlimit="10" />
  <path d="M443.795 107.646H45.6035V130.311H443.795V107.646Z" fill="#29538E" stroke="#263238" stroke-linecap="round"
    stroke-linejoin="round" />
  <path opacity="0.2" d="M362.121 112.066H313.424V125.873H362.121V112.066Z" fill="black" />
  <path d="M351.939 114.875H321.615V123.458H351.939V114.875Z" fill="white" stroke="#263238" stroke-linecap="round"
    stroke-linejoin="round" />
  <path d="M133.061 114.875H72.2461V123.458H133.061V114.875Z" fill="white" stroke="#263238" stroke-linecap="round"
    stroke-linejoin="round" />
  <path d="M305.293 114.875H274.969V123.458H305.293V114.875Z" fill="white" stroke="#263238" stroke-linecap="round"
    stroke-linejoin="round" />
  <path d="M398.584 114.875H368.26V123.458H398.584V114.875Z" fill="white" stroke="#263238" stroke-linecap="round"
    stroke-linejoin="round" />
  <path
    d="M103.415 204.698C119.647 204.698 132.806 191.732 132.806 175.738C132.806 159.745 119.647 146.779 103.415 146.779C87.1824 146.779 74.0234 159.745 74.0234 175.738C74.0234 191.732 87.1824 204.698 103.415 204.698Z"
    fill="#29538E" stroke="#263238" stroke-linecap="round" stroke-linejoin="round" />
  <path d="M74.9258 215.805H132.52" stroke="#263238" stroke-width="2" stroke-linecap="round" stroke-linejoin="round" />
  <path d="M101.136 230.133H86.4941V238.264H101.136V230.133Z" fill="#263238" stroke="#263238" stroke-linecap="round"
    stroke-linejoin="round" />
  <path d="M115.768 245.902H86.4941V254.033H115.768V245.902Z" fill="#263238" stroke="#263238" stroke-linecap="round"
    stroke-linejoin="round" />
  <path d="M108.569 261.674H86.4941V269.805H108.569V261.674Z" fill="#263238" stroke="#263238" stroke-linecap="round"
    stroke-linejoin="round" />
  <path d="M118.979 277.445H86.4941V285.576H118.979V277.445Z" fill="#263238" stroke="#263238" stroke-linecap="round"
    stroke-linejoin="round" />
  <path d="M428.623 143.363H147.908V314.978H428.623V143.363Z" fill="white" stroke="#263238" stroke-linecap="round"
    stroke-linejoin="round" />
  <path d="M413.472 187.551H362.771V274.222H413.472V187.551Z" fill="#BFBFBF" stroke="#263238" stroke-linecap="round"
    stroke-linejoin="round" />
  <path d="M372.758 199.709H403.494" stroke="#263238" stroke-width="2" stroke-linecap="round" stroke-linejoin="round" />
  <path d="M372.758 227.98H403.494" stroke="#263238" stroke-width="2" stroke-linecap="round" stroke-linejoin="round" />
  <path d="M372.758 256.242H403.494" stroke="#263238" stroke-width="2" stroke-linecap="round" stroke-linejoin="round" />
  <path d="M362.771 129.957H312.07V216.628H362.771V129.957Z" fill="#BFBFBF" stroke="#263238" stroke-linecap="round"
    stroke-linejoin="round" />
  <path opacity="0.2" d="M357.929 192.078H317.441V205.885H357.929V192.078Z" fill="white" />
  <path d="M322.332 142.379H353.069" stroke="#263238" stroke-width="2" stroke-linecap="round" stroke-linejoin="round" />
  <path d="M322.332 170.641H353.069" stroke="#263238" stroke-width="2" stroke-linecap="round" stroke-linejoin="round" />
  <path d="M322.332 198.912H353.069" stroke="#29538E" stroke-width="2" stroke-linecap="round" stroke-linejoin="round" />
  <path
    d="M359.707 206.819L356.192 208.989L358.666 212.898L355.455 214.881L352.98 210.973L349.661 213.015L348.395 200.014L359.707 206.819Z"
    fill="white" stroke="#263238" stroke-linecap="round" stroke-linejoin="round" />
  <path
    d="M244.085 221.186L247.581 208.027C236.848 200.623 225.898 190.351 215.951 181.513C211.541 177.411 207.475 172.954 203.794 168.187L187.208 147.929C184.262 144.295 176.985 131.451 169.532 137.431C164.17 141.104 164.121 154.125 167.086 161.981C170.209 170.279 173.862 175.366 180.304 180.462C186.746 185.559 203.293 202.93 206.052 205.11C217.63 214.322 230.298 218.593 244.085 221.186Z"
    fill="#263238" />
  <path
    d="M244.085 221.186L247.581 208.027C236.848 200.623 225.898 190.351 215.951 181.513C211.541 177.411 207.475 172.954 203.794 168.187L187.208 147.929C184.262 144.295 176.985 131.451 169.532 137.431C164.17 141.104 164.121 154.125 167.086 161.981C170.209 170.279 173.862 175.366 180.304 180.462C186.746 185.559 203.293 202.93 206.052 205.11C217.63 214.322 230.298 218.593 244.085 221.186Z"
    stroke="#263238" stroke-width="0.920831" stroke-linecap="round" stroke-linejoin="round" />
  <path
    d="M266.828 151.484L266.543 152.986C266.543 152.868 268.006 152.004 268.752 152.367C269.23 152.634 269.67 152.964 270.059 153.349L271.63 151.267L268.468 150.58L266.828 151.484Z"
    fill="#263238" stroke="#263238" stroke-linecap="round" stroke-linejoin="round" />
  <path
    d="M268.469 150.551L266.829 151.484C266.604 152.32 266.485 153.181 266.475 154.047C266.524 154.951 268.036 155.589 268.861 155.952C270.197 155.393 272.21 153.988 273.545 153.399C275.509 151.062 276.963 154.126 275.156 157.141C275.156 157.141 270.315 160.695 266.887 162.689C264.54 163.024 262.214 163.503 259.925 164.123C258.678 161.943 255.113 157.101 255.113 157.101C256.704 155.982 260.917 147.831 263.126 145.219L269.951 144.807C271.974 144.669 272.554 146.368 274.37 148.597L268.469 150.551Z"
    fill="#757575" stroke="#263238" stroke-linecap="round" stroke-linejoin="round" />
  <path
    d="M263.5 145.198L273.114 144.02C277.749 144.186 281.854 144.569 284.652 145.984C285.133 146.229 285.733 146.317 286.017 146.769C286.498 147.525 285.919 148.036 285.084 148.37C284.159 148.688 283.165 148.749 282.207 148.547C280.44 148.164 274.351 148.547 274.351 148.547C271.695 149.085 269.146 150.06 266.809 151.434"
    fill="#757575" />
  <path
    d="M263.5 145.198L273.114 144.02C277.749 144.186 281.854 144.569 284.652 145.984C285.133 146.229 285.733 146.317 286.017 146.769C286.498 147.525 285.919 148.036 285.084 148.37C284.159 148.688 283.165 148.749 282.207 148.547C280.44 148.164 274.351 148.547 274.351 148.547C271.695 149.085 269.146 150.06 266.809 151.434"
    stroke="#263238" stroke-linecap="round" stroke-linejoin="round" />
  <path
    d="M274.232 151.827C274.185 152.351 273.956 152.841 273.584 153.212C272.327 153.958 270.736 154.931 269.411 155.539C268.614 155.216 267.872 154.773 267.211 154.224L266.484 153.605C266.592 153.045 267.525 152.436 268.085 152.318C269.067 152.112 270.049 153.3 270.049 153.3C269.391 152.554 269.656 152.849 269.656 152.849C269.46 152.751 269.332 152.603 269.136 152.505C269.208 152.219 269.366 151.963 269.588 151.769C270.158 151.884 270.751 151.812 271.277 151.562C270.471 152.181 269.185 151.101 268.458 150.531L274.232 151.827Z"
    fill="#757575" stroke="#263238" stroke-linecap="round" stroke-linejoin="round" />
  <path
    d="M262.125 165.684L254.721 154.047C240.904 158.957 224.701 162.188 210.443 165.526C204.079 167.019 217.248 190.715 221.019 189.635C236.78 185.127 249.674 176.456 262.125 165.684Z"
    fill="#263238" />
  <path opacity="0.4"
    d="M210.441 165.526C207.775 166.138 205.077 166.604 202.359 166.921L217.757 190.322C219.289 190.037 220.418 189.802 221.017 189.635C236.778 185.127 249.672 176.456 262.124 165.684L254.72 154.047C240.903 158.967 224.7 162.188 210.441 165.526Z"
    fill="black" stroke="#263238" stroke-linecap="round" stroke-linejoin="round" />
  <path
    d="M262.125 165.684L254.721 154.047C240.904 158.957 224.701 162.188 210.443 165.526C204.079 167.019 217.248 190.715 221.019 189.635C236.78 185.127 249.674 176.456 262.125 165.684Z"
    stroke="#263238" stroke-linecap="round" stroke-linejoin="round" />
  <path
    d="M161.116 457.739L172.036 458.044H172.645H182.651C186.324 458.044 185.863 455.373 186.285 451.739C186.795 447.311 184.409 442.725 184.409 442.725H167.578C166.973 443.7 166.467 444.733 166.065 445.808C157.021 452.279 161.116 457.739 161.116 457.739Z"
    fill="#263238" stroke="#263238" stroke-linecap="round" stroke-linejoin="round" />
  <path
    d="M243.171 457.74L232.86 458.034H231.662H222.412C218.062 458.034 217.865 454.538 217.954 450.178C218.102 447.564 218.801 445.01 220.006 442.686H237.594C238.296 443.767 238.875 444.923 239.322 446.132C248.278 454.764 243.171 457.74 243.171 457.74Z"
    fill="#263238" stroke="#263238" stroke-linecap="round" stroke-linejoin="round" />
  <path d="M232.841 458.035H232.124H231.643H232.841Z" fill="#263238" stroke="#263238" stroke-linecap="round"
    stroke-linejoin="round" />
  <path
    d="M255.124 272.614C255.124 272.614 249.998 363.94 247.032 379.907C246.129 384.817 241.788 418.961 241.14 426.198C241.14 426.198 242.475 432.67 241.228 437.982L240.001 440.801C237.909 445.171 219.497 445.377 218.878 444.189C218.259 443 215.863 442.725 218.662 426.12C218.966 424.274 219.457 404.732 220.243 378.542C220.498 369.949 221.696 363.213 220.724 341.57C220.724 340.588 215.883 284.496 215.814 283.533L214.832 283.916C214.714 285.016 214.616 286.067 214.508 287.069C214.031 291.897 213.16 296.679 211.906 301.367L194.23 367.161V379.121C194.505 393.684 193.248 410.987 189.222 425.01L189.614 428.663C190.351 435.537 191.932 443.472 184.233 444.797L168.521 445.554C165.909 445.554 162.943 445.288 163.11 442.696L164.613 432.081C167.834 419.815 166.724 380.594 167.274 367.927L173.814 273.507L177.644 245.52L252.492 243.988L255.124 272.614Z"
    fill="#29538E" />
  <path opacity="0.2"
    d="M214.644 259.66C202.497 260.642 189.809 258.423 175.728 253.768C175.529 253.678 175.346 253.555 175.188 253.405C175.188 253.405 204.009 255.222 253.335 248.023C253.335 248.023 247.6 249.408 235.924 254.387C229.165 257.29 221.977 259.072 214.644 259.66Z"
    fill="black" />
  <path opacity="0.2"
    d="M188.268 283.985C191.587 289.798 200.837 289.788 204.245 295.543C207.495 301.022 209.155 310.774 206.788 320.466L209.793 309.242C213.24 303.35 212.435 299.353 213.721 292.774C213.917 291.792 214.458 285.251 214.791 283.936C214.791 283.936 205.953 286.224 205.217 286.253C197.94 286.528 194.984 285.654 188.268 283.985Z"
    fill="black" />
  <path opacity="0.2"
    d="M222.058 339.644C222.313 342.826 222.795 346.115 224.572 348.757C226.349 351.398 229.796 353.166 232.791 352.105C234.245 351.585 235.462 350.475 237.043 350.357C237.504 350.299 237.971 350.384 238.382 350.6C238.793 350.816 239.128 351.153 239.341 351.565C239.468 351.918 239.49 352.3 239.407 352.665C239.323 353.031 239.137 353.365 238.87 353.628C237.682 355.199 235.983 356.387 235.06 358.125C234.137 359.863 234.49 362.564 236.395 363.094C234.49 363.035 231.878 363.644 232.006 365.539C232.133 367.7 235.934 368.485 235.59 370.577C231.693 375.456 229.192 381.3 228.353 387.487C226.556 400.764 232.782 413.53 230.641 426.404C230.449 427.413 230.631 428.459 231.153 429.344C231.675 430.23 232.502 430.895 233.479 431.215C233.617 431.257 233.758 431.29 233.901 431.314C230.291 432.502 226.516 433.112 222.716 433.12C221.066 435.026 230.926 444.639 230.916 443.49C230.916 443.353 226.438 445.621 226.3 445.602C220.723 444.688 218.7 447.153 214.438 441.674C213.515 440.475 212.898 439.069 212.641 437.579C203.862 387.261 218.268 326.407 216.323 284.387C216.402 284.78 228.107 288.933 236.572 285.064C238.919 284.004 229.934 293.107 226.801 303.153C223.109 314.897 221.037 327.3 222.058 339.644Z"
    fill="black" />
  <path opacity="0.2"
    d="M191.351 353.894C190.589 355.212 189.459 356.28 188.101 356.967C185.597 357.949 175.757 345.674 173.214 344.8C176.366 354.571 182.297 358.598 185.351 363.714C185.875 364.402 186.133 365.256 186.078 366.12C185.518 369.066 175.384 366.424 174.49 369.292C176.71 371.354 184.556 372.591 187.099 370.951C189.437 392.221 184.261 415.524 171.977 433.053C174.981 434.369 178.242 432.523 180.697 430.342C180.765 435.252 177.063 442.745 173.263 445.603C177.8 446.585 186.324 445.004 189.289 441.429C193.217 436.676 190.183 429.577 190.556 423.419C190.743 420.287 191.872 417.302 192.805 414.316C196.353 402.971 197.3 390.971 195.574 379.21C194.985 375.223 194.091 371.216 194.386 367.19C194.68 363.164 196.212 359.128 197.626 355.239C198.766 352.097 207.937 329.304 204.402 329.354C204.402 329.354 193.639 350.575 191.351 353.894Z"
    fill="black" />
  <path
    d="M255.124 272.614C255.124 272.614 249.998 363.94 247.032 379.907C246.129 384.817 241.788 418.961 241.14 426.198C241.14 426.198 242.475 432.67 241.228 437.982L240.001 440.801C237.909 445.171 219.497 445.377 218.878 444.189C218.259 443 215.863 442.725 218.662 426.12C218.966 424.274 219.457 404.732 220.243 378.542C220.498 369.949 221.696 363.213 220.724 341.57C220.724 340.588 215.883 284.496 215.814 283.533L214.832 283.916C214.714 285.016 214.616 286.067 214.508 287.069C214.031 291.897 213.16 296.679 211.906 301.367L194.23 367.161V379.121C194.505 393.684 193.248 410.987 189.222 425.01L189.614 428.663C190.351 435.537 191.932 443.472 184.233 444.797L168.521 445.554C165.909 445.554 162.943 445.288 163.11 442.696L164.613 432.081C167.834 419.815 166.724 380.594 167.274 367.927L173.814 273.507L177.644 245.52L252.492 243.988L255.124 272.614Z"
    stroke="#263238" stroke-linecap="round" stroke-linejoin="round" />
  <path
    d="M204.393 127.444L211.316 110.259L208.979 95.1163L211.316 78.5598L225.673 73.149L237.535 73.0508L241.758 76.6547L242.897 81.6727C242.897 81.6727 246.658 94.9199 245.352 97.1196C244.046 99.3193 242.985 101.45 242.985 101.45C242.985 101.45 245.833 107.961 245.931 110.573C246.069 113.696 242.357 110.799 241.149 114.344C239.941 117.889 238.949 126.128 234.53 125.863C230.111 125.598 227.745 125.283 226.674 129.025C225.604 132.766 222.923 142.969 222.923 142.969L204.393 127.444Z"
    fill="#757575" />
  <path opacity="0.3"
    d="M222.403 88.8223C222.168 92.603 223.7 95.6963 221.274 102.57C221.274 102.57 219.477 98.1218 217.179 98.0727C216.763 98.0285 216.343 98.0774 215.948 98.2158C215.554 98.3542 215.195 98.5787 214.898 98.8729C214.601 99.1672 214.373 99.5238 214.231 99.917C214.089 100.31 214.036 100.73 214.076 101.146C214.076 103.042 214.871 105.398 216.56 106.322C216.56 106.322 214.655 110.799 214.233 112.508C213.114 112.508 211.287 110.279 211.287 110.279L209.166 96.0891C213.275 93.1515 217.719 90.7122 222.403 88.8223Z"
    fill="black" />
  <path
    d="M204.393 127.444L211.316 110.259L208.979 95.1163L211.316 78.5598L225.673 73.149L237.535 73.0508L241.758 76.6547L242.897 81.6727C242.897 81.6727 246.658 94.9199 245.352 97.1196C244.046 99.3193 242.985 101.45 242.985 101.45C242.985 101.45 245.833 107.961 245.931 110.573C246.069 113.696 242.357 110.799 241.149 114.344C239.941 117.889 238.949 126.128 234.53 125.863C230.111 125.598 227.745 125.283 226.674 129.025C225.604 132.766 222.923 142.969 222.923 142.969L204.393 127.444Z"
    stroke="#263238" stroke-linecap="round" stroke-linejoin="round" />
  <path
    d="M239.431 100.252C239.304 101.156 238.754 101.833 238.204 101.755C237.654 101.676 237.3 100.881 237.438 99.9774C237.575 99.074 238.116 98.3964 238.665 98.4749C239.215 98.5535 239.608 99.3489 239.431 100.252Z"
    fill="#263238" />
  <path d="M235.268 96.0887C235.268 96.0887 238.292 91.8661 242.142 95.2049" stroke="#263238" stroke-linecap="round"
    stroke-linejoin="round" />
  <path
    d="M236.75 115.001C235.693 114.897 234.678 114.527 233.801 113.926C232.924 113.325 232.213 112.513 231.732 111.564"
    stroke="#263238" stroke-linecap="round" stroke-linejoin="round" />
  <path
    d="M233.264 125.696C233.264 125.696 223.877 121.002 221.48 117.84L226.734 128.995C226.734 128.995 227.333 123.82 233.264 125.696Z"
    fill="#263238" stroke="#263238" stroke-linecap="round" stroke-linejoin="round" />
  <path
    d="M199.709 129.183C199.709 129.183 205.002 128.997 213.388 129.36C219.81 129.741 226.208 130.452 232.557 131.491C232.557 131.491 230.377 124.617 224.338 124.116C218.298 123.615 204.265 123.586 204.265 123.586L199.709 129.183Z"
    fill="white" stroke="#263238" stroke-linecap="round" stroke-linejoin="round" />
  <path
    d="M252.374 186.197L251.883 189.879C249.842 205.07 250.397 220.497 253.523 235.503L256.027 247.601C256.027 247.601 234.423 252.423 220.351 254.033C188.141 257.725 172.007 252.698 172.007 252.698C171.834 246.825 172.345 240.953 173.529 235.198C182.171 194.151 166.134 143.872 170.337 137.47C173.47 132.668 199.621 129.044 199.621 129.044C199.621 129.044 223.719 128.367 232.527 131.43L233.608 132.108C245.333 136.115 254.632 140.426 259.69 144.03L257.834 148.655C257.765 150.923 252.374 186.197 252.374 186.197Z"
    fill="#263238" />
  <path
    d="M168.325 199.051C168.325 199.051 172.184 211.964 168.188 220.959L174.58 222.923C174.58 222.923 176.034 212.062 175.14 203.283L168.325 199.051Z"
    fill="#29538E" />
  <path opacity="0.6"
    d="M168.325 199.051C168.325 199.051 172.184 211.964 168.188 220.959L174.58 222.923C174.58 222.923 176.034 212.062 175.14 203.283L168.325 199.051Z"
    fill="white" />
  <g opacity="0.2">
    <path opacity="0.2"
      d="M196.881 203.274C198.089 205.797 199.316 208.439 199.267 211.238C199.139 217.532 192.864 221.745 187.306 224.848C199.691 220.731 212.813 219.311 225.791 220.684C222.482 220.331 216.609 213.938 214.105 211.846C210.14 208.51 206.357 204.963 202.773 201.221C195.973 194.238 189.978 186.513 184.9 178.193C188.819 186.58 192.884 194.907 196.881 203.274Z"
      fill="black" />
  </g>
  <g opacity="0.2">
    <path opacity="0.2"
      d="M223.709 209.47C226.707 210.045 229.798 209.904 232.731 209.06C235.664 208.215 238.357 206.69 240.59 204.609C237.722 202.792 233.981 203.96 230.593 204.373C226.722 204.809 222.807 204.152 219.29 202.478C217.817 201.771 212.229 196.399 210.737 197.44C206.269 200.514 221.578 209.047 223.709 209.47Z"
      fill="black" />
  </g>
  <g opacity="0.2">
    <path opacity="0.2"
      d="M234.698 230.427C232.106 230.574 227.824 228.031 225.084 227.481C221.632 226.81 218.123 226.482 214.606 226.499C206.851 226.722 199.178 228.153 191.863 230.741C194.367 234.669 208.184 231.949 212.299 231.723L234.698 230.427Z"
      fill="black" />
  </g>
  <path
    d="M252.374 186.197L251.883 189.879C249.842 205.07 250.397 220.497 253.523 235.503L256.027 247.601C256.027 247.601 234.423 252.423 220.351 254.033C188.141 257.725 172.007 252.698 172.007 252.698C171.834 246.825 172.345 240.953 173.529 235.198C182.171 194.151 166.134 143.872 170.337 137.47C173.47 132.668 199.621 129.044 199.621 129.044C199.621 129.044 223.719 128.367 232.527 131.43L233.608 132.108C245.333 136.115 254.632 140.426 259.69 144.03L257.834 148.655C257.765 150.923 252.374 186.197 252.374 186.197Z"
    stroke="#263238" stroke-linecap="round" stroke-linejoin="round" />
  <path d="M181.904 172.576C190.987 192.125 205.582 208.596 223.895 219.967" stroke="#757575" stroke-linecap="round"
    stroke-linejoin="round" />
  <path d="M180.207 168.717C180.541 169.542 180.551 169.542 180.904 170.347" stroke="#757575" stroke-linecap="round"
    stroke-linejoin="round" />
  <path d="M177.742 162.031C178.184 163.347 178.655 164.653 179.156 165.959" stroke="#757575" stroke-linecap="round"
    stroke-linejoin="round" />
  <path
    d="M212.111 204.256C215.091 207.442 218.9 209.734 223.11 210.875C229.247 212.387 236.593 210.138 239.539 204.619"
    stroke="#757575" stroke-linecap="round" stroke-linejoin="round" />
  <path d="M208.35 199.789C208.958 200.643 209.597 201.478 210.314 202.293" stroke="#757575" stroke-linecap="round"
    stroke-linejoin="round" />
  <path d="M189.24 231.644C204.543 225.795 221.418 225.531 236.897 230.898" stroke="#757575" stroke-linecap="round"
    stroke-linejoin="round" />
  <path d="M203.607 222.394C209.077 220.749 214.91 220.749 220.38 222.394" stroke="#757575" stroke-linecap="round"
    stroke-linejoin="round" />
  <path d="M222.914 134.27C231.754 134.313 240.532 135.745 248.927 138.512" stroke="#263238" stroke-linecap="round"
    stroke-linejoin="round" />
  <path
    d="M214.076 101.146C214.406 102.677 214.99 104.14 215.804 105.477C217.287 107.441 218.75 107.706 220.263 107.343"
    stroke="#263238" stroke-linecap="round" stroke-linejoin="round" />
  <path
    d="M243.684 81.9687C244.329 82.0823 244.945 82.3224 245.497 82.675C246.049 83.0276 246.525 83.4859 246.899 84.0234C247.274 84.5609 247.538 85.1671 247.677 85.8071C247.816 86.4471 247.827 87.1083 247.71 87.7527C248.431 87.1856 248.93 86.3843 249.122 85.4875C249.314 84.5907 249.186 83.655 248.761 82.8427C247.926 81.3206 245.363 81.3402 243.684 81.9687Z"
    fill="#263238" stroke="#263238" stroke-linecap="round" stroke-linejoin="round" />
  <path
    d="M242.839 78.0104C241.667 75.684 240.11 73.5724 238.234 71.7649C231.733 65.3917 213.684 73.0415 209.559 77.1069C205.219 81.3394 206.004 97.1201 207.909 96.7469C212.986 95.7649 222.639 94.9892 222.639 94.9892C226.057 94.1839 222.05 86.1511 225.153 84.5407C238.086 77.7943 242.279 83.922 243.045 82.3508C243.811 80.7796 244.361 78.8942 242.839 78.0104Z"
    fill="#263238" stroke="#263238" stroke-linecap="round" stroke-linejoin="round" />
  <path
    d="M204.03 96.4434C201.811 97.9851 198.55 97.2486 196.331 98.7903C194.632 99.9687 194.023 102.139 193.709 104.162C193.002 108.743 193.233 113.42 194.387 117.91C198.316 115.322 201.754 112.057 204.54 108.267C207.045 104.761 206.288 100.087 204.03 96.4434Z"
    fill="#263238" stroke="#263238" stroke-linecap="round" stroke-linejoin="round" />
  <path
    d="M207.024 94.459C206.182 94.5307 205.388 94.8803 204.766 95.4529C204.144 96.0254 203.731 96.7883 203.59 97.6216C203.45 98.4549 203.59 99.3113 203.989 100.056C204.389 100.801 205.024 101.392 205.796 101.736C206.295 101.99 206.861 102.081 207.414 101.997C207.967 101.912 208.48 101.656 208.88 101.264C209.291 100.651 209.509 99.93 209.508 99.1922C209.675 97.4737 209.41 95.1464 207.682 94.8616"
    fill="#29538E" />
  <path
    d="M207.024 94.459C206.182 94.5307 205.388 94.8803 204.766 95.4529C204.144 96.0254 203.731 96.7883 203.59 97.6216C203.45 98.4549 203.59 99.3113 203.989 100.056C204.389 100.801 205.024 101.392 205.796 101.736C206.295 101.99 206.861 102.081 207.414 101.997C207.967 101.912 208.48 101.656 208.88 101.264C209.291 100.651 209.509 99.93 209.508 99.1922C209.675 97.4737 209.41 95.1464 207.682 94.8616"
    stroke="#263238" stroke-linecap="round" stroke-linejoin="round" />
  <path
    d="M311.785 154.458C313.523 153.3 316.047 152.838 317.039 151.012C318.348 148.661 319.631 146.311 320.888 143.961C320.217 140.635 318.557 137.588 316.125 135.221C318.649 130.665 319.729 128.543 322.263 123.987C322.263 122.259 321.399 121.728 320.171 122.386C317.225 126.57 314.957 129.368 312.011 133.552C310.214 132.846 308.269 132.606 306.355 132.854C304.414 134.794 303.001 137.197 302.25 139.836C301.283 143.27 301.539 146.932 302.976 150.197C304.692 150.053 306.414 150.373 307.964 151.123C309.513 151.873 310.833 153.025 311.785 154.458Z"
    fill="#757575" stroke="#263238" stroke-linecap="round" stroke-linejoin="round" />
  <path
    d="M251.274 171.663C251.066 173.43 251.294 175.221 251.937 176.88C252.581 178.538 253.621 180.014 254.966 181.178C260.338 185.853 278.858 197.961 282.904 198.422C284.482 198.595 286.078 198.505 287.628 198.157C293.176 196.979 312.079 155.106 312.079 155.106C311.097 152.455 306.855 150.275 303.978 150.196C301.101 150.118 299.578 151.031 297.86 153.309C297.732 153.486 282.649 172.949 282.649 172.949C280.302 172.949 270.492 160.704 269.686 158.524C267.31 152.052 263.294 146.101 259.719 144.02C259.719 144.029 254.436 144.756 251.274 171.663Z"
    fill="#263238" stroke="#263238" stroke-linecap="round" stroke-linejoin="round" />
  <path d="M283.906 174.492C283.906 174.492 289.258 178.057 291.124 180.541" stroke="#757575" stroke-linecap="round"
    stroke-linejoin="round" />
  <path d="M283.975 176.76C285.347 178.334 286.051 180.38 285.939 182.465" stroke="#757575" stroke-linecap="round"
    stroke-linejoin="round" />
  <path d="M269.156 157.199C270.62 160.644 271.168 164.409 270.747 168.129" stroke="#757575" stroke-linecap="round"
    stroke-linejoin="round" />
  <path
    d="M239.244 358.195C235.606 360.327 231.505 361.544 227.293 361.74C231.146 361.435 235.011 362.153 238.498 363.822"
    stroke="#263238" stroke-linecap="round" stroke-linejoin="round" />
  <path d="M226.301 368.016C230.517 368.723 234.69 369.664 238.802 370.834" stroke="#263238" stroke-linecap="round"
    stroke-linejoin="round" />
  <path
    d="M246.236 279.311C237.781 286.676 226.017 288.973 215.794 283.553C205.768 287.825 191.195 287.334 182.406 280.862"
    stroke="#263238" stroke-linecap="round" stroke-linejoin="round" />
  <path d="M250.251 275.117C249.603 275.922 248.926 276.698 248.219 277.425" stroke="#263238" stroke-linecap="round"
    stroke-linejoin="round" />
  <path d="M229.365 260.172H221.254" stroke="#263238" stroke-linecap="round" stroke-linejoin="round" />
  <path d="M235.551 260.172H231.938" stroke="#263238" stroke-linecap="round" stroke-linejoin="round" />
  <path d="M246.826 260.172H237.771" stroke="#263238" stroke-linecap="round" stroke-linejoin="round" />
  <path d="M190.596 260.172H209.313" stroke="#263238" stroke-linecap="round" stroke-linejoin="round" />
  <path d="M183.742 260.172H186.963" stroke="#263238" stroke-linecap="round" stroke-linejoin="round" />
  <path
    d="M168.992 432.484C171.892 433.329 174.979 433.287 177.856 432.365C180.732 431.443 183.268 429.682 185.136 427.309"
    stroke="#263238" stroke-linecap="round" stroke-linejoin="round" />
  <path d="M222.393 432.63C224.609 433.306 226.961 433.415 229.23 432.947C231.5 432.478 233.616 431.448 235.384 429.949"
    fill="#29538E" />
  <path d="M222.393 432.63C224.609 433.306 226.961 433.415 229.23 432.947C231.5 432.478 233.616 431.448 235.384 429.949"
    stroke="#263238" stroke-linecap="round" stroke-linejoin="round" />
  <path d="M190.595 368.163H190.163C186.579 372.346 178.949 372.552 174.451 369.292L183.711 367.328" stroke="#263238"
    stroke-linecap="round" stroke-linejoin="round" />
  <path d="M176.367 351.459C179.47 357.083 184.064 361.741 189.644 364.922" stroke="#263238" stroke-linecap="round"
    stroke-linejoin="round" />
  <path d="M173.215 343.562C173.553 344.898 173.976 346.21 174.482 347.491" stroke="#263238" stroke-linecap="round"
    stroke-linejoin="round" />
  <path
    d="M261.211 146.318C260.738 146.336 260.278 146.482 259.882 146.742C259.486 147.002 259.168 147.364 258.962 147.791C254.917 154.469 252.933 164.004 253.944 176.456"
    stroke="#757575" stroke-linecap="round" stroke-linejoin="round" />
  <path d="M175.629 134.938C170.385 140.829 170.385 154.46 173.115 169.533" stroke="#757575" stroke-linecap="round"
    stroke-linejoin="round" />
  <path d="M214.959 262.842L215.509 279.025" stroke="#263238" stroke-linecap="round" stroke-linejoin="round" />
  <path d="M214.754 256.656L214.872 260.172" stroke="#263238" stroke-linecap="round" stroke-linejoin="round" />
  <path d="M451.426 458.064H38.7695" stroke="#263238" stroke-linecap="round" stroke-linejoin="round" />
</svg>