<svg width="17" height="27" viewBox="0 0 17 27" fill="none" xmlns="http://www.w3.org/2000/svg">
  <path
    d="M14.3438 0H2.53125C1.13379 0 0 1.13379 0 2.53125V24.4688C0 25.8662 1.13379 27 2.53125 27H14.3438C15.7412 27 16.875 25.8662 16.875 24.4688V2.53125C16.875 1.13379 15.7412 0 14.3438 0ZM8.4375 25.3125C7.5041 25.3125 6.75 24.5584 6.75 23.625C6.75 22.6916 7.5041 21.9375 8.4375 21.9375C9.3709 21.9375 10.125 22.6916 10.125 23.625C10.125 24.5584 9.3709 25.3125 8.4375 25.3125ZM14.3438 19.6172C14.3438 19.9652 14.059 20.25 13.7109 20.25H3.16406C2.81602 20.25 2.53125 19.9652 2.53125 19.6172V3.16406C2.53125 2.81602 2.81602 2.53125 3.16406 2.53125H13.7109C14.059 2.53125 14.3438 2.81602 14.3438 3.16406V19.6172Z"
    fill="white" />
</svg>