<svg width="34" height="27" viewBox="0 0 34 27" fill="none" xmlns="http://www.w3.org/2000/svg">
  <path
    d="M11.8125 13.5C15.5408 13.5 18.5625 10.4783 18.5625 6.75C18.5625 3.02168 15.5408 0 11.8125 0C8.08418 0 5.0625 3.02168 5.0625 6.75C5.0625 10.4783 8.08418 13.5 11.8125 13.5ZM16.5375 15.1875H15.6568C14.4861 15.7254 13.1836 16.0312 11.8125 16.0312C10.4414 16.0312 9.14414 15.7254 7.96816 15.1875H7.0875C3.17461 15.1875 0 18.3621 0 22.275V24.4688C0 25.8662 1.13379 27 2.53125 27H21.0938C22.4912 27 23.625 25.8662 23.625 24.4688V22.275C23.625 18.3621 20.4504 15.1875 16.5375 15.1875ZM33.5707 8.41641L32.1047 6.93457C31.8621 6.68672 31.4666 6.68672 31.2188 6.9293L25.6922 12.4137L23.2928 9.99844C23.0502 9.75059 22.6547 9.75059 22.4068 9.99316L20.925 11.4645C20.6771 11.707 20.6771 12.1025 20.9197 12.3504L25.2281 16.6904C25.4707 16.9383 25.8662 16.9383 26.1141 16.6957L33.5654 9.30234C33.808 9.05449 33.8133 8.65899 33.5707 8.41641Z"
    fill="white" />
</svg>