<svg width="27" height="27" viewBox="0 0 27 27" fill="none" xmlns="http://www.w3.org/2000/svg">
  <path
    d="M6.0438 27H0.445992V8.97348H6.0438V27ZM3.24188 6.5145C1.45189 6.5145 0 5.03188 0 3.24188C1.2812e-08 2.38208 0.341554 1.5575 0.949525 0.949525C1.5575 0.341554 2.38208 0 3.24188 0C4.10168 0 4.92627 0.341554 5.53424 0.949525C6.14221 1.5575 6.48376 2.38208 6.48376 3.24188C6.48376 5.03188 5.03127 6.5145 3.24188 6.5145ZM26.9946 27H21.4088V18.2248C21.4088 16.1335 21.3666 13.4515 18.4984 13.4515C15.588 13.4515 15.142 15.7236 15.142 18.0741V27H9.55026V8.97348H14.919V11.4325H14.9974C15.7447 10.0161 17.5703 8.52146 20.2938 8.52146C25.9592 8.52146 27.0006 12.2521 27.0006 17.0978V27H26.9946Z"
    fill="white" />
</svg>