<svg width="27" height="27" viewBox="0 0 27 27" fill="none" xmlns="http://www.w3.org/2000/svg">
  <path
    d="M8.80822 16.3129C6.69252 16.4489 4.77246 17.2547 3.68297 20.1255C3.55904 20.453 3.26109 20.6518 2.91357 20.6518C2.3277 20.6518 0.51627 19.1927 0 18.8404C0.000527344 23.1831 2.00074 27 6.75053 27C10.751 27 13.5005 24.6918 13.5005 20.6619C13.5005 20.4979 13.4662 20.3412 13.4494 20.1804L8.80822 16.3129ZM24.1471 0C23.3476 0 22.5983 0.353848 22.0266 0.867481C11.2472 10.4968 10.1255 10.723 10.1255 13.5575C10.1255 14.2799 10.2969 14.9687 10.5859 15.5983L13.9514 18.4027C14.3316 18.4976 14.7234 18.5625 15.1321 18.5625C18.4075 18.5625 20.3059 16.1647 26.2675 5.03824C26.6567 4.2815 27.0005 3.46412 27.0005 2.61299C27.0005 1.08844 25.6294 0 24.1471 0Z"
    fill="white" />
</svg>