<svg width="27" height="24" viewBox="0 0 27 24" fill="none" xmlns="http://www.w3.org/2000/svg">
  <path
    d="M25.3125 6.75H1.6875C0.755525 6.75 0 5.99447 0 5.0625V1.6875C0 0.755525 0.755525 0 1.6875 0H25.3125C26.2445 0 27 0.755525 27 1.6875V5.0625C27 5.99447 26.2445 6.75 25.3125 6.75ZM22.7812 2.10938C22.0823 2.10938 21.5156 2.67601 21.5156 3.375C21.5156 4.07399 22.0823 4.64062 22.7812 4.64062C23.4802 4.64062 24.0469 4.07399 24.0469 3.375C24.0469 2.67601 23.4802 2.10938 22.7812 2.10938ZM19.4062 2.10938C18.7073 2.10938 18.1406 2.67601 18.1406 3.375C18.1406 4.07399 18.7073 4.64062 19.4062 4.64062C20.1052 4.64062 20.6719 4.07399 20.6719 3.375C20.6719 2.67601 20.1052 2.10938 19.4062 2.10938ZM25.3125 15.1875H1.6875C0.755525 15.1875 0 14.432 0 13.5V10.125C0 9.19303 0.755525 8.4375 1.6875 8.4375H25.3125C26.2445 8.4375 27 9.19303 27 10.125V13.5C27 14.432 26.2445 15.1875 25.3125 15.1875ZM22.7812 10.5469C22.0823 10.5469 21.5156 11.1135 21.5156 11.8125C21.5156 12.5115 22.0823 13.0781 22.7812 13.0781C23.4802 13.0781 24.0469 12.5115 24.0469 11.8125C24.0469 11.1135 23.4802 10.5469 22.7812 10.5469ZM19.4062 10.5469C18.7073 10.5469 18.1406 11.1135 18.1406 11.8125C18.1406 12.5115 18.7073 13.0781 19.4062 13.0781C20.1052 13.0781 20.6719 12.5115 20.6719 11.8125C20.6719 11.1135 20.1052 10.5469 19.4062 10.5469ZM25.3125 23.625H1.6875C0.755525 23.625 0 22.8695 0 21.9375V18.5625C0 17.6305 0.755525 16.875 1.6875 16.875H25.3125C26.2445 16.875 27 17.6305 27 18.5625V21.9375C27 22.8695 26.2445 23.625 25.3125 23.625ZM22.7812 18.9844C22.0823 18.9844 21.5156 19.551 21.5156 20.25C21.5156 20.949 22.0823 21.5156 22.7812 21.5156C23.4802 21.5156 24.0469 20.949 24.0469 20.25C24.0469 19.551 23.4802 18.9844 22.7812 18.9844ZM19.4062 18.9844C18.7073 18.9844 18.1406 19.551 18.1406 20.25C18.1406 20.949 18.7073 21.5156 19.4062 21.5156C20.1052 21.5156 20.6719 20.949 20.6719 20.25C20.6719 19.551 20.1052 18.9844 19.4062 18.9844Z"
    fill="white" />
</svg>