<svg width="27" height="24" viewBox="0 0 27 24" fill="none" xmlns="http://www.w3.org/2000/svg">
  <path
    d="M16.875 16.0312C16.875 16.4974 16.4974 16.875 16.0312 16.875H10.9688C10.5026 16.875 10.125 16.4974 10.125 16.0312V13.5H0V21.0938C0 22.4438 1.18125 23.625 2.53125 23.625H24.4688C25.8188 23.625 27 22.4438 27 21.0938V13.5H16.875V16.0312ZM24.4688 5.0625H20.25V2.53125C20.25 1.18125 19.0688 0 17.7188 0H9.28125C7.93125 0 6.75 1.18125 6.75 2.53125V5.0625H2.53125C1.18125 5.0625 0 6.24375 0 7.59375V11.8125H27V7.59375C27 6.24375 25.8188 5.0625 24.4688 5.0625ZM16.875 5.0625H10.125V3.375H16.875V5.0625Z"
    fill="#FCFCFC" />
</svg>