<svg width="39" height="35" viewBox="0 0 39 35" fill="none" xmlns="http://www.w3.org/2000/svg">
  <g filter="url(#filter0_d)">
    <path
      d="M33.1094 3.375H27.625V1.26562C27.625 0.564258 27.0607 0 26.3594 0H12.0156C11.3143 0 10.75 0.564258 10.75 1.26562V3.375H5.26563C4.56426 3.375 4 3.93926 4 4.64062V7.59375C4 9.47637 5.18652 11.4117 7.26426 12.9041C8.92539 14.1012 10.9451 14.8605 13.065 15.1031C14.7209 17.8506 16.6563 18.9844 16.6563 18.9844V22.7812H14.125C12.2635 22.7812 10.75 23.8729 10.75 25.7344V26.3672C10.75 26.7152 11.0348 27 11.3828 27H26.9922C27.3402 27 27.625 26.7152 27.625 26.3672V25.7344C27.625 23.8729 26.1115 22.7812 24.25 22.7812H21.7188V18.9844C21.7188 18.9844 23.6541 17.8506 25.31 15.1031C27.4352 14.8605 29.4549 14.1012 31.1107 12.9041C33.1832 11.4117 34.375 9.47637 34.375 7.59375V4.64062C34.375 3.93926 33.8107 3.375 33.1094 3.375ZM9.23652 10.1672C7.94981 9.23906 7.375 8.20547 7.375 7.59375V6.75H10.7605C10.8133 8.46914 11.0664 9.97734 11.4355 11.2957C10.6393 11.0215 9.8957 10.6418 9.23652 10.1672ZM31 7.59375C31 8.44277 30.0666 9.49746 29.1385 10.1672C28.4793 10.6418 27.7305 11.0215 26.9342 11.2957C27.3033 9.97734 27.5564 8.46914 27.6092 6.75H31V7.59375Z"
      fill="white" />
  </g>
  <defs>
    <filter id="filter0_d" x="0" y="0" width="38.375" height="35" filterUnits="userSpaceOnUse"
      color-interpolation-filters="sRGB">
      <feFlood flood-opacity="0" result="BackgroundImageFix" />
      <feColorMatrix in="SourceAlpha" type="matrix" values="0 0 0 0 0 0 0 0 0 0 0 0 0 0 0 0 0 0 127 0" />
      <feOffset dy="4" />
      <feGaussianBlur stdDeviation="2" />
      <feColorMatrix type="matrix" values="0 0 0 0 0 0 0 0 0 0 0 0 0 0 0 0 0 0 0.25 0" />
      <feBlend mode="normal" in2="BackgroundImageFix" result="effect1_dropShadow" />
      <feBlend mode="normal" in="SourceGraphic" in2="effect1_dropShadow" result="shape" />
    </filter>
  </defs>
</svg>