<svg width="28" height="27" viewBox="0 0 28 27" fill="none" xmlns="http://www.w3.org/2000/svg">
  <path
    d="M13.506 6.57754C9.67427 6.57754 6.58357 9.66825 6.58357 13.5C6.58357 17.3318 9.67427 20.4225 13.506 20.4225C17.3378 20.4225 20.4285 17.3318 20.4285 13.5C20.4285 9.66825 17.3378 6.57754 13.506 6.57754ZM13.506 18.0005C11.0298 18.0005 9.00552 15.9822 9.00552 13.5C9.00552 11.0178 11.0238 8.9995 13.506 8.9995C15.9882 8.9995 18.0065 11.0178 18.0065 13.5C18.0065 15.9822 15.9822 18.0005 13.506 18.0005ZM22.3263 6.29438C22.3263 7.19207 21.6033 7.90902 20.7116 7.90902C19.814 7.90902 19.097 7.18604 19.097 6.29438C19.097 5.40271 19.82 4.67974 20.7116 4.67974C21.6033 4.67974 22.3263 5.40271 22.3263 6.29438ZM26.9111 7.93311C26.8087 5.77022 26.3147 3.85435 24.7302 2.27586C23.1517 0.697367 21.2358 0.203336 19.0729 0.0948901C16.8437 -0.03163 10.1623 -0.03163 7.93311 0.0948901C5.77625 0.197311 3.86037 0.691342 2.27586 2.26983C0.691342 3.84832 0.203336 5.7642 0.0948901 7.92709C-0.03163 10.1563 -0.03163 16.8377 0.0948901 19.0669C0.197311 21.2298 0.691342 23.1457 2.27586 24.7241C3.86037 26.3026 5.77022 26.7967 7.93311 26.9051C10.1623 27.0316 16.8437 27.0316 19.0729 26.9051C21.2358 26.8027 23.1517 26.3087 24.7302 24.7241C26.3087 23.1457 26.8027 21.2298 26.9111 19.0669C27.0377 16.8377 27.0377 10.1623 26.9111 7.93311ZM24.0313 21.4587C23.5614 22.6396 22.6516 23.5493 21.4647 24.0253C19.6874 24.7302 15.4701 24.5675 13.506 24.5675C11.542 24.5675 7.31859 24.7241 5.54731 24.0253C4.36645 23.5553 3.45671 22.6456 2.98075 21.4587C2.27586 19.6814 2.43853 15.4641 2.43853 13.5C2.43853 11.5359 2.28188 7.31256 2.98075 5.54128C3.45069 4.36043 4.36043 3.45069 5.54731 2.97473C7.32461 2.26983 11.542 2.4325 13.506 2.4325C15.4701 2.4325 19.6935 2.27586 21.4647 2.97473C22.6456 3.44466 23.5553 4.3544 24.0313 5.54128C24.7362 7.31859 24.5735 11.5359 24.5735 13.5C24.5735 15.4641 24.7362 19.6874 24.0313 21.4587Z"
    fill="white" />
</svg>