<svg width="28" height="22" viewBox="0 0 28 22" fill="none" xmlns="http://www.w3.org/2000/svg">
  <path
    d="M11.7671 21.5773L9.19371 20.8306C8.92371 20.7547 8.77184 20.472 8.84777 20.202L14.6064 0.365463C14.6823 0.095463 14.965 -0.056412 15.235 0.0195255L17.8084 0.766244C18.0784 0.842182 18.2303 1.12484 18.1543 1.39484L12.3957 21.2314C12.3156 21.5014 12.0371 21.6575 11.7671 21.5773ZM6.95777 16.8439L8.79293 14.8864C8.98699 14.6797 8.97434 14.3506 8.75918 14.1608L4.93699 10.7984L8.75918 7.43609C8.97434 7.24624 8.99121 6.91718 8.79293 6.71046L6.95777 4.75296C6.76793 4.55046 6.4473 4.53781 6.24059 4.73187L0.161367 10.4272C-0.0537891 10.6255 -0.0537891 10.9672 0.161367 11.1655L6.24059 16.865C6.4473 17.0591 6.76793 17.0506 6.95777 16.8439ZM20.7615 16.8692L26.8407 11.1697C27.0559 10.9714 27.0559 10.6297 26.8407 10.4314L20.7615 4.72765C20.559 4.53781 20.2384 4.54624 20.0443 4.74874L18.2092 6.70624C18.0151 6.91296 18.0278 7.24203 18.2429 7.43187L22.0651 10.7984L18.2429 14.1608C18.0278 14.3506 18.0109 14.6797 18.2092 14.8864L20.0443 16.8439C20.2342 17.0506 20.5548 17.0591 20.7615 16.8692Z"
    fill="white" />
</svg>