<svg width="8" height="9" viewBox="0 0 8 9" fill="none" xmlns="http://www.w3.org/2000/svg">
  <path
    d="M5.49322 4.41716L7.79262 2.11776C8.07479 1.83559 8.07479 1.3781 7.79262 1.0957L7.28159 0.584674C6.99943 0.302505 6.54193 0.302505 6.25954 0.584674L3.96013 2.88408L1.66073 0.584674C1.37856 0.302505 0.921071 0.302505 0.638672 0.584674L0.127642 1.0957C-0.154527 1.37787 -0.154527 1.83536 0.127642 2.11776L2.42705 4.41716L0.127642 6.71657C-0.154527 6.99874 -0.154527 7.45623 0.127642 7.73863L0.638672 8.24966C0.920841 8.53182 1.37856 8.53182 1.66073 8.24966L3.96013 5.95025L6.25954 8.24966C6.54171 8.53182 6.99943 8.53182 7.28159 8.24966L7.79262 7.73863C8.07479 7.45646 8.07479 6.99897 7.79262 6.71657L5.49322 4.41716Z"
    fill="#E1E1E1" />
</svg>