<svg width="53" height="40" viewBox="0 0 53 40" fill="none" xmlns="http://www.w3.org/2000/svg">
  <path
    d="M47.8974 0H4.61538C2.07046 0 0 2.07046 0 4.61538V35.3846C0 37.9295 2.07046 40 4.61538 40H47.8974C50.4424 40 52.5128 37.9295 52.5128 35.3846V4.61538C52.5128 2.07046 50.4424 0 47.8974 0ZM49.4359 35.3846C49.4359 36.2329 48.7457 36.9231 47.8974 36.9231H4.61538C3.76708 36.9231 3.07692 36.2329 3.07692 35.3846V4.61538C3.07692 3.76708 3.76708 3.07692 4.61538 3.07692H47.8974C48.7457 3.07692 49.4359 3.76708 49.4359 4.61538V35.3846Z"
    fill="#172E4F" />
  <path
    d="M15.3851 18.4609C10.2952 18.4609 6.1543 22.6019 6.1543 27.6917V29.2302C6.1543 31.7751 8.22476 33.8456 10.7697 33.8456H20.0005C22.5454 33.8456 24.6158 31.7751 24.6158 29.2302V27.6917C24.6158 22.6019 20.4749 18.4609 15.3851 18.4609ZM21.5389 29.2302C21.5389 30.0785 20.8488 30.7686 20.0005 30.7686H10.7697C9.92137 30.7686 9.23122 30.0785 9.23122 29.2302V27.6917C9.23122 24.2985 11.9918 21.5379 15.3851 21.5379C18.7783 21.5379 21.5389 24.2985 21.5389 27.6917V29.2302Z"
    fill="#172E4F" />
  <path
    d="M15.3843 6.1543C11.9911 6.1543 9.23047 8.91491 9.23047 12.3081C9.23047 15.7014 11.9911 18.462 15.3843 18.462C18.7775 18.462 21.5382 15.7014 21.5382 12.3081C21.5382 8.91491 18.7775 6.1543 15.3843 6.1543ZM15.3843 15.3851C13.6877 15.3851 12.3074 14.0048 12.3074 12.3081C12.3074 10.6115 13.6877 9.23122 15.3843 9.23122C17.0809 9.23122 18.4612 10.6115 18.4612 12.3081C18.4612 14.0048 17.0809 15.3851 15.3843 15.3851Z"
    fill="#172E4F" />
  <path
    d="M44.8196 27.6914H29.4349C28.5853 27.6914 27.8965 28.3802 27.8965 29.2299C27.8965 30.0795 28.5853 30.7683 29.4349 30.7683H44.8196C45.6692 30.7683 46.358 30.0795 46.358 29.2299C46.358 28.3802 45.6692 27.6914 44.8196 27.6914Z"
    fill="#172E4F" />
  <path
    d="M44.8196 21.5391H29.4349C28.5853 21.5391 27.8965 22.2279 27.8965 23.0775C27.8965 23.9272 28.5853 24.616 29.4349 24.616H44.8196C45.6692 24.616 46.358 23.9272 46.358 23.0775C46.358 22.2279 45.6692 21.5391 44.8196 21.5391Z"
    fill="#172E4F" />
  <path
    d="M44.8196 15.3848H29.4349C28.5853 15.3848 27.8965 16.0736 27.8965 16.9232C27.8965 17.7729 28.5853 18.4617 29.4349 18.4617H44.8196C45.6692 18.4617 46.358 17.7729 46.358 16.9232C46.358 16.0736 45.6692 15.3848 44.8196 15.3848Z"
    fill="#172E4F" />
  <path
    d="M41.7438 9.23047H32.5131C31.6634 9.23047 30.9746 9.91929 30.9746 10.7689C30.9746 11.6186 31.6634 12.3074 32.5131 12.3074H41.7438C42.5935 12.3074 43.2823 11.6186 43.2823 10.7689C43.2823 9.91929 42.5935 9.23047 41.7438 9.23047Z"
    fill="#172E4F" />
</svg>