<svg width="87" height="87" viewBox="0 0 87 87" fill="none" xmlns="http://www.w3.org/2000/svg">
<path d="M43.5 87C67.4522 87 87 67.4507 87 43.5C87 19.5478 67.4507 0 43.5 0C19.548 0 0 19.5493 0 43.5C0 67.452 19.5493 87 43.5 87ZM43.5 5.09766C64.6752 5.09766 81.9023 22.3248 81.9023 43.5C81.9023 64.6752 64.6752 81.9023 43.5 81.9023C22.3248 81.9023 5.09766 64.6752 5.09766 43.5C5.09766 22.3248 22.3248 5.09766 43.5 5.09766Z" fill="#29538E"/>
<path d="M43.5 76.8047C61.7928 76.8047 76.8047 61.789 76.8047 43.5C76.8047 25.2074 61.789 10.1953 43.5 10.1953C25.2099 10.1953 10.1953 25.2084 10.1953 43.5C10.1953 61.7901 25.2084 76.8047 43.5 76.8047ZM43.5 15.293C59.0535 15.293 71.707 27.9465 71.707 43.5C71.707 59.0535 59.0535 71.707 43.5 71.707C27.9465 71.707 15.293 59.0535 15.293 43.5C15.293 27.9465 27.9465 15.293 43.5 15.293Z" fill="#29538E"/>
<path d="M31.126 60.531L43.5002 54.0255L55.8743 60.531L53.5112 46.7522L63.5219 36.9939L49.6873 34.9836L43.5002 22.4473L37.3132 34.9836L23.4785 36.9939L33.4895 46.7522L31.126 60.531ZM40.6984 39.6429L43.5002 33.9658L46.3021 39.643L52.5673 40.5535L48.0337 44.9726L49.1039 51.2125L43.5002 48.2662L37.8964 51.2123L38.9665 44.9725L34.4329 40.5533L40.6984 39.6429Z" fill="#29538E"/>
</svg>
