<svg width="87" height="87" viewBox="0 0 87 87" fill="none" xmlns="http://www.w3.org/2000/svg">
<path d="M25.6445 21.3839C25.6445 32.6353 34.7983 41.7891 46.0498 41.7891C57.3012 41.7891 66.455 32.6353 66.455 21.3839C66.455 10.0386 57.3012 0.808594 46.0498 0.808594C34.7983 0.808594 25.6445 10.0386 25.6445 21.3839ZM51.0661 18.8332H41.0333C41.3064 14.6974 43.2327 5.90991 46.0498 5.90991C49.0675 5.90991 50.8394 15.4009 51.0661 18.8332ZM46.0498 36.6878C44.4185 36.6878 41.5499 31.9074 41.0304 23.9345L51.0691 23.9328C50.5496 31.9057 47.6808 36.6878 46.0498 36.6878ZM38.0916 8.17132C36.8973 11.1855 36.1481 14.885 35.9218 18.8332H30.9548C31.6976 14.3245 34.3742 10.4688 38.0916 8.17132ZM30.9594 23.9345H35.9223C36.1469 27.827 36.8827 31.4654 38.0555 34.4288C34.3649 32.1587 31.7064 28.3671 30.9594 23.9345ZM54.0439 34.4288C55.2168 31.4654 55.9526 27.8253 56.1771 23.9328L61.14 23.9345C60.393 28.3671 57.7345 32.1587 54.0439 34.4288ZM61.1446 18.8332H56.1776C55.9513 14.885 55.202 11.1855 54.0078 8.17132C57.7251 10.4688 60.4018 14.3245 61.1446 18.8332Z" fill="#29538E"/>
<path d="M32.8737 72.227H53.22C59.3703 72.227 65.3439 69.7809 69.6093 65.5162C74.3273 60.7988 80.9577 54.17 85.1948 49.9364L86.9998 48.1328L85.1955 46.3285C80.2246 41.3576 72.1389 41.354 67.1639 46.3181L58.6486 54.6637L58.6304 54.6817C57.9351 55.377 57.1287 55.9203 56.2525 56.2986V46.7204H25.8407C22.4342 46.7204 19.2316 48.0469 16.8233 50.4554C16.7962 50.4823 0.027377 67.2517 0 67.279L18.9111 86.1898C19.6467 85.4542 24.7691 80.3314 32.8737 72.227ZM20.4301 54.0627C21.8753 52.6175 23.7968 51.8217 25.8407 51.8217H51.1512V56.923H30.5759V62.0244H53.2196C56.6213 62.0244 59.82 60.7012 62.228 58.2985L70.7426 49.9536L70.7608 49.9356C73.1134 47.5829 76.6295 47.0845 79.4751 48.4404C75.353 52.5599 69.9938 57.918 66.0027 61.9087C62.6866 65.2242 58.0278 67.1257 53.2201 67.1257H30.7607L26.1245 71.7617L14.4277 60.0629L20.4301 54.0627ZM7.21394 67.2784L10.8207 63.6702L22.5175 75.3689L18.9109 78.9753L7.21394 67.2784Z" fill="#29538E"/>
</svg>
