<svg width="87" height="87" viewBox="0 0 87 87" fill="none" xmlns="http://www.w3.org/2000/svg">
  <path
    d="M28.207 87H63.8906C63.8906 81.9326 63.8906 52.8511 63.8906 49.1993L68.9883 39.004C68.9883 34.0637 68.9883 9.39328 68.9883 5.09766H58.793V0C55.1194 0 26.6769 0 23.1094 0V20.5605H18.0117V39.4581L28.207 49.6534V87ZM58.793 81.9023H33.3047V61.3418H58.793V81.9023ZM63.8906 10.1953V20.5605H58.793C58.793 17.2408 58.793 13.4497 58.793 10.1953H63.8906ZM53.6953 5.09766V20.5605H48.5977V5.09766H53.6953ZM43.5 5.09766V20.5605H38.4023V5.09766H43.5ZM28.207 5.09766H33.3047V20.5605H28.207V5.09766ZM23.1094 37.3466V25.6565H43.0633C42.0113 28.6252 39.1767 30.7559 35.8535 30.7559C33.4585 30.7559 30.5944 30.7559 28.207 30.7559V35.8535H38.4023C41.2132 35.8535 43.5 38.1403 43.5 40.9512H48.5977C48.5977 37.5255 46.8978 34.4916 44.299 32.642C46.3265 30.8435 47.78 28.412 48.3412 25.6582H63.8906V37.8007L58.793 47.996V56.2441H33.3047V47.5419L23.1094 37.3466Z"
    fill="#29538E" />
  <path d="M0.0458984 26.9238L10.9785 23.4364L12.5282 28.2945L1.59559 31.7819L0.0458984 26.9238Z" fill="#29538E" />
  <path d="M74.501 12.8359L85.4336 9.34852L86.9833 14.2066L76.0507 17.694L74.501 12.8359Z" fill="#29538E" />
  <path d="M0.0478516 14.2051L1.59754 9.34701L12.5301 12.8344L10.9804 17.6925L0.0478516 14.2051Z" fill="#29538E" />
  <path d="M74.4863 28.2617L76.036 23.4037L86.9686 26.8911L85.4189 31.7491L74.4863 28.2617Z" fill="#29538E" />
</svg>