<svg width="515" height="430" viewBox="0 0 515 430" fill="none" xmlns="http://www.w3.org/2000/svg">
<g clip-path="url(#clip0)">
<path d="M257.5 429.654C399.919 429.654 515.373 422.914 515.373 414.599C515.373 406.284 399.919 399.543 257.5 399.543C115.08 399.543 -0.374023 406.284 -0.374023 414.599C-0.374023 422.914 115.08 429.654 257.5 429.654Z" fill="#F5F5F5"/>
<path d="M445.711 239.612L444.439 240.002L447.606 250.327L448.878 249.937L445.711 239.612Z" fill="#29538E"/>
<path d="M433.484 199.737L432.213 200.127L441.634 230.848L442.906 230.458L433.484 199.737Z" fill="#29538E"/>
<path d="M389.17 71.1406H341.862L243.242 392.642C242.48 395.146 242.315 397.794 242.76 400.374C243.205 402.953 244.249 405.393 245.807 407.496C247.365 409.6 249.394 411.31 251.732 412.488C254.07 413.666 256.651 414.28 259.269 414.281H471.776C474.397 414.281 476.981 413.667 479.322 412.487C481.662 411.308 483.693 409.596 485.252 407.489C486.811 405.382 487.853 402.938 488.296 400.355C488.739 397.772 488.57 395.121 487.803 392.615L389.17 71.1406Z" fill="#29538E"/>
<path opacity="0.2" d="M389.17 71.1406H365.523L335.531 414.281H471.776C474.397 414.281 476.982 413.667 479.322 412.487C481.663 411.308 483.694 409.596 485.252 407.489C486.811 405.382 487.854 402.938 488.297 400.355C488.74 397.772 488.57 395.121 487.803 392.615L389.17 71.1406Z" fill="#263238"/>
<path opacity="0.2" d="M389.17 71.1406H378.064L411.913 414.281H471.763C474.384 414.281 476.968 413.667 479.309 412.487C481.649 411.308 483.68 409.596 485.239 407.489C486.797 405.382 487.84 402.938 488.283 400.355C488.726 397.772 488.557 395.121 487.789 392.615L389.17 71.1406Z" fill="#263238"/>
<path opacity="0.2" d="M341.862 71.1406H353.26L271.691 414.281H259.269C256.648 414.281 254.064 413.667 251.723 412.487C249.383 411.308 247.352 409.596 245.793 407.489C244.235 405.382 243.192 402.938 242.749 400.355C242.306 397.772 242.475 395.121 243.243 392.615L341.862 71.1406Z" fill="white"/>
<path d="M365.149 58.3594C372.056 58.3564 378.771 60.6317 384.253 64.8324C389.736 69.0331 393.679 74.9248 395.473 81.5945L410.742 138.385L406.685 156.34L391.151 141.631L376.428 175.439L363.021 151.938L346.37 175.439L339.135 140.194L323.999 160.251L320.408 137.055L334.772 81.7807C336.534 75.0676 340.471 69.1277 345.967 64.8899C351.463 60.6522 358.209 58.3556 365.149 58.3594Z" fill="#29538E"/>
<path opacity="0.7" d="M365.149 58.3594C372.056 58.3564 378.771 60.6317 384.253 64.8324C389.736 69.0331 393.679 74.9248 395.473 81.5945L410.742 138.385L406.685 156.34L391.151 141.631L376.428 175.439L363.021 151.938L346.37 175.439L339.135 140.194L323.999 160.251L320.408 137.055L334.772 81.7807C336.534 75.0676 340.471 69.1277 345.967 64.8899C351.463 60.6522 358.209 58.3556 365.149 58.3594Z" fill="white"/>
<path d="M335.531 415.611C335.276 415.612 335.027 415.54 334.813 415.403C334.598 415.266 334.427 415.071 334.32 414.84L311.777 366.002C311.66 365.748 311.627 365.463 311.682 365.188C311.737 364.914 311.877 364.663 312.083 364.473L399.863 282.252L345.333 176.012C345.203 175.753 345.157 175.46 345.2 175.174L364.272 61.6852C364.33 61.3324 364.526 61.0173 364.817 60.809C365.107 60.6007 365.469 60.5164 365.821 60.5746C366.174 60.6328 366.489 60.8288 366.698 61.1194C366.906 61.4099 366.99 61.7714 366.932 62.1241L347.926 175.174L402.696 281.92C402.827 282.175 402.871 282.466 402.823 282.749C402.775 283.032 402.637 283.291 402.43 283.489L314.65 365.736L336.781 413.736C336.931 414.055 336.948 414.421 336.828 414.753C336.708 415.085 336.462 415.355 336.143 415.505C335.949 415.586 335.74 415.622 335.531 415.611Z" fill="white"/>
<path d="M414.606 285.616C416.322 278.346 411.819 271.061 404.548 269.345C397.278 267.629 389.993 272.132 388.277 279.402C386.561 286.673 391.064 293.957 398.334 295.673C405.605 297.389 412.89 292.887 414.606 285.616Z" fill="#29538E"/>
<path d="M401.46 297.386C398.521 297.386 395.649 296.515 393.206 294.882C390.763 293.25 388.859 290.93 387.734 288.215C386.61 285.501 386.316 282.513 386.889 279.632C387.462 276.75 388.877 274.103 390.955 272.025C393.032 269.947 395.68 268.533 398.561 267.959C401.443 267.386 404.43 267.68 407.145 268.805C409.859 269.929 412.18 271.833 413.812 274.276C415.444 276.719 416.316 279.592 416.316 282.53C416.312 286.469 414.746 290.246 411.961 293.031C409.175 295.816 405.399 297.383 401.46 297.386ZM401.46 270.347C399.047 270.347 396.688 271.063 394.682 272.403C392.677 273.744 391.113 275.65 390.191 277.879C389.268 280.108 389.027 282.561 389.499 284.927C389.971 287.294 391.133 289.467 392.84 291.172C394.547 292.877 396.722 294.038 399.088 294.507C401.455 294.976 403.908 294.732 406.136 293.807C408.364 292.882 410.268 291.317 411.607 289.309C412.945 287.302 413.658 284.943 413.656 282.53C413.652 279.298 412.366 276.199 410.079 273.915C407.792 271.63 404.692 270.347 401.46 270.347Z" fill="white"/>
<path d="M327.778 366.387C328.973 358.991 323.947 352.027 316.551 350.832C309.156 349.636 302.191 354.663 300.996 362.058C299.801 369.454 304.827 376.418 312.223 377.613C319.618 378.809 326.583 373.782 327.778 366.387Z" fill="#29538E"/>
<path d="M312.987 380.286C310.048 380.286 307.175 379.415 304.732 377.782C302.289 376.149 300.384 373.828 299.26 371.112C298.136 368.397 297.843 365.409 298.417 362.527C298.992 359.645 300.408 356.998 302.487 354.921C304.566 352.844 307.214 351.43 310.097 350.858C312.979 350.286 315.967 350.582 318.681 351.709C321.396 352.835 323.715 354.742 325.346 357.186C326.977 359.631 327.846 362.505 327.843 365.444C327.84 369.381 326.273 373.157 323.487 375.94C320.701 378.723 316.925 380.286 312.987 380.286ZM312.987 353.248C310.575 353.248 308.217 353.963 306.211 355.303C304.206 356.643 302.642 358.548 301.719 360.776C300.796 363.005 300.555 365.457 301.025 367.823C301.496 370.189 302.657 372.362 304.363 374.068C306.069 375.773 308.242 376.935 310.608 377.405C312.973 377.876 315.426 377.634 317.654 376.711C319.883 375.788 321.788 374.225 323.128 372.219C324.468 370.214 325.183 367.856 325.183 365.444C325.18 362.21 323.893 359.11 321.607 356.824C319.321 354.537 316.22 353.251 312.987 353.248Z" fill="white"/>
<path d="M346.491 188.925C353.961 188.925 360.017 182.869 360.017 175.399C360.017 167.929 353.961 161.873 346.491 161.873C339.021 161.873 332.965 167.929 332.965 175.399C332.965 182.869 339.021 188.925 346.491 188.925Z" fill="#29538E"/>
<path d="M346.491 190.255C343.553 190.255 340.68 189.384 338.237 187.751C335.794 186.119 333.89 183.799 332.766 181.084C331.641 178.37 331.347 175.383 331.92 172.501C332.493 169.619 333.908 166.972 335.986 164.894C338.064 162.817 340.711 161.402 343.593 160.828C346.474 160.255 349.461 160.549 352.176 161.674C354.891 162.798 357.211 164.702 358.843 167.145C360.476 169.589 361.347 172.461 361.347 175.399C361.343 179.338 359.777 183.115 356.992 185.9C354.207 188.685 350.43 190.252 346.491 190.255ZM346.491 163.203C344.079 163.203 341.721 163.918 339.715 165.258C337.709 166.599 336.146 168.503 335.223 170.732C334.3 172.96 334.059 175.413 334.529 177.778C335 180.144 336.161 182.317 337.867 184.023C339.573 185.729 341.746 186.89 344.112 187.361C346.477 187.831 348.93 187.59 351.158 186.667C353.387 185.744 355.291 184.181 356.632 182.175C357.972 180.169 358.687 177.811 358.687 175.399C358.683 172.166 357.397 169.065 355.111 166.779C352.824 164.493 349.724 163.206 346.491 163.203Z" fill="white"/>
<path d="M379.458 62.748C380.653 55.3525 375.626 48.3883 368.231 47.193C360.835 45.9978 353.871 51.0241 352.676 58.4197C351.481 65.8152 356.507 72.7795 363.903 73.9747C371.298 75.17 378.262 70.1436 379.458 62.748Z" fill="#29538E"/>
<path d="M365.563 76.7532C362.624 76.7532 359.751 75.8816 357.308 74.2486C354.865 72.6156 352.961 70.2946 351.837 67.5792C350.713 64.8639 350.419 61.8761 350.993 58.9939C351.568 56.1118 352.984 53.4647 355.063 51.3876C357.142 49.3104 359.79 47.8966 362.673 47.3249C365.556 46.7531 368.543 47.0492 371.257 48.1757C373.972 49.3022 376.291 51.2084 377.922 53.6532C379.553 56.098 380.422 58.9716 380.419 61.9104C380.412 65.8471 378.844 69.6204 376.059 72.4028C373.274 75.1852 369.5 76.7497 365.563 76.7532ZM365.563 49.7143C363.151 49.7143 360.793 50.4296 358.787 51.7697C356.782 53.1099 355.218 55.0146 354.295 57.2432C353.372 59.4717 353.131 61.924 353.601 64.2898C354.072 66.6556 355.234 68.8287 356.939 70.5344C358.645 72.24 360.818 73.4016 363.184 73.8722C365.55 74.3428 368.002 74.1013 370.23 73.1782C372.459 72.2551 374.364 70.6918 375.704 68.6862C377.044 66.6806 377.759 64.3226 377.759 61.9104C377.756 58.6769 376.47 55.5768 374.183 53.2904C371.897 51.0039 368.797 49.7178 365.563 49.7143Z" fill="white"/>
<path d="M365.523 61.9771C365.171 61.9771 364.832 61.8369 364.583 61.5875C364.333 61.3381 364.193 60.9998 364.193 60.6471V0.876875C364.193 0.524137 364.333 0.185845 364.583 -0.0635781C364.832 -0.313001 365.171 -0.453125 365.523 -0.453125C365.876 -0.453125 366.214 -0.313001 366.464 -0.0635781C366.713 0.185845 366.853 0.524137 366.853 0.876875V60.6471C366.853 60.9998 366.713 61.3381 366.464 61.5875C366.214 61.8369 365.876 61.9771 365.523 61.9771Z" fill="#29538E"/>
<path d="M311.885 25.7354C323.855 29.8052 335.718 21.7454 347.648 25.7354V5.41297C335.678 1.42297 323.802 9.48277 311.885 5.41297V25.7354Z" fill="#29538E"/>
<path opacity="0.2" d="M324.945 6.16926V26.4783C332.513 25.4808 340.081 23.1534 347.648 25.7336V5.41116C340.081 2.83096 332.513 5.15846 324.945 6.16926Z" fill="black"/>
<path d="M329.76 21.1858C341.73 25.2556 353.607 17.1958 365.523 21.1858V0.876699C353.553 -3.1931 341.69 4.8667 329.76 0.876699V21.1858Z" fill="#29538E"/>
<path d="M136.097 147.788L140.233 154.438L128.356 155.954C128.603 153.761 128.98 151.585 129.487 149.437C129.665 148.656 130.143 147.976 130.816 147.544C131.49 147.111 132.307 146.96 133.091 147.123L136.097 147.788Z" fill="#7F3E3B"/>
<path d="M139.249 165.104L130.006 162.272L128.356 155.967L140.233 154.451L139.249 165.104Z" fill="#7F3E3B"/>
<path d="M170.744 73.3222C172.154 72.8833 173.856 72.2981 175.426 71.7528C176.995 71.2075 178.618 70.609 180.2 69.9972C183.353 68.747 186.478 67.4569 189.51 66.0072C195.326 63.4641 200.71 60.0316 205.47 55.8327C206.448 54.9052 207.338 53.8902 208.13 52.8003L208.396 52.4146C208.463 52.4146 208.742 51.7363 208.197 52.9732C207.942 53.684 207.851 54.4433 207.931 55.1943C207.931 55.3273 207.931 55.4603 207.931 55.5933L207.997 55.8726C208.023 55.9589 208.054 56.0433 208.091 56.1253V56.2849C208.263 56.6706 208.317 56.644 208.29 56.5775C208.192 56.4079 208.086 56.2436 207.971 56.0854C207.074 54.9763 206.077 53.9523 204.992 53.0264C203.781 51.9624 202.505 50.8718 201.175 49.8078C195.855 45.5518 189.989 41.3756 184.31 37.1861L187.768 30.709C194.66 33.3437 201.331 36.5236 207.718 40.2185C209.341 41.1761 210.977 42.1603 212.599 43.3041C214.387 44.52 216.061 45.8955 217.6 47.4138C218.835 48.6141 219.812 50.0531 220.473 51.6432L220.646 52.1087L220.819 52.6939C220.819 52.8934 220.912 53.0663 220.965 53.2924C221.018 53.5185 221.031 53.7845 221.058 54.0239C221.178 55.2201 221.033 56.428 220.632 57.5617C220.417 58.1734 220.131 58.7581 219.781 59.304L219.342 60.0488C218.189 61.948 216.853 63.7298 215.352 65.3688C209.474 71.6464 202.744 75.7295 195.961 79.2407C192.574 80.9577 189.103 82.5025 185.56 83.8691C183.787 84.5607 182.014 85.2124 180.24 85.8242C178.432 86.4626 176.729 86.9813 174.708 87.5532L170.744 73.3222Z" fill="#7F3E3B"/>
<path d="M176.144 28.2347L169.068 32.8631L179.203 35.1906L181.796 28.0352L176.144 28.2347Z" fill="#7F3E3B"/>
<path d="M190.481 31.7991L181.796 28.0352L179.136 35.1773C179.136 35.1773 186.038 42.4125 190.414 37.5846L190.481 31.7991Z" fill="#7F3E3B"/>
<path d="M138.771 86.022C135.499 91.9538 132.187 98.0851 129.035 104.137C125.883 110.188 122.784 116.333 120.204 122.424C119.539 123.954 118.874 125.457 118.382 126.959L118.182 127.465C118.189 127.416 118.189 127.367 118.182 127.319C118.182 127.225 118.182 127.199 118.182 127.212C118.112 127.433 118.112 127.67 118.182 127.89C118.485 129.015 118.966 130.083 119.605 131.056C120.38 132.331 121.233 133.557 122.159 134.727C126.419 139.853 131.046 144.662 136.004 149.117L131.908 155.195C125.287 151.843 119.153 147.606 113.674 142.6C112.197 141.226 110.824 139.746 109.564 138.171C108.084 136.343 106.879 134.309 105.986 132.133C105.411 130.717 105.069 129.217 104.975 127.691C104.92 126.802 104.964 125.91 105.108 125.031C105.18 124.551 105.282 124.075 105.414 123.608L105.64 122.863C106.172 121.041 106.744 119.245 107.356 117.543C109.827 110.747 112.66 104.087 115.842 97.593C119.007 91.1558 122.292 84.9314 125.963 78.707L138.771 86.022Z" fill="#7F3E3B"/>
<path d="M148.094 43.4238C147.23 52.4146 148.506 61.1128 146.498 68.9199C146.498 68.9199 148.732 76.1684 162.006 76.1684C176.636 76.1684 168.656 68.9199 168.656 68.9199C160.609 67.018 160.596 61.1128 161.766 55.5534L148.094 43.4238Z" fill="#7F3E3B"/>
<path d="M144.676 71.4054C143.546 69.1178 142.282 66.4844 144.676 65.6598C147.336 64.7554 161.594 63.8377 166.608 65.5401C167.941 65.9003 169.083 66.7651 169.79 67.9515C170.497 69.138 170.716 70.5531 170.398 71.8975L144.676 71.4054Z" fill="#263238"/>
<path d="M116.2 398.414C115.28 398.2 114.387 397.878 113.54 397.457C113.496 397.435 113.46 397.401 113.436 397.358C113.413 397.315 113.403 397.266 113.407 397.217C113.409 397.168 113.425 397.12 113.454 397.08C113.482 397.04 113.521 397.009 113.567 396.991C114.006 396.845 117.81 395.488 118.887 396.326C119.001 396.418 119.088 396.541 119.137 396.679C119.186 396.818 119.197 396.967 119.166 397.111C119.148 397.36 119.066 397.601 118.929 397.811C118.792 398.02 118.603 398.191 118.382 398.308C117.69 398.601 116.917 398.639 116.2 398.414ZM114.338 397.27C116.041 398.002 117.411 398.228 118.089 397.869C118.238 397.786 118.364 397.667 118.454 397.523C118.545 397.379 118.598 397.214 118.608 397.044C118.608 396.845 118.608 396.765 118.515 396.725C117.983 396.286 115.881 396.765 114.338 397.27Z" fill="#29538E"/>
<path d="M113.607 397.482L113.474 397.415C113.441 397.383 113.418 397.343 113.406 397.298C113.394 397.254 113.395 397.207 113.408 397.163C113.408 397.03 114.339 394.077 115.762 393.346C115.932 393.248 116.121 393.189 116.317 393.172C116.512 393.156 116.709 393.184 116.892 393.252C117.076 393.293 117.241 393.395 117.357 393.543C117.474 393.692 117.535 393.875 117.531 394.064C117.531 395.274 114.937 397.123 113.727 397.469L113.607 397.482ZM116.613 393.691C116.403 393.649 116.184 393.687 116.001 393.798C115.069 394.581 114.396 395.629 114.073 396.804C115.31 396.218 117.012 394.769 117.025 394.05C117.025 393.984 117.025 393.838 116.719 393.731L116.613 393.691Z" fill="#29538E"/>
<path d="M184.735 405.382C183.792 405.362 182.855 405.232 181.942 404.996C181.895 404.984 181.853 404.959 181.82 404.924C181.787 404.888 181.765 404.844 181.756 404.797C181.747 404.747 181.754 404.696 181.775 404.651C181.796 404.606 181.832 404.568 181.876 404.544C182.261 404.291 185.706 402.177 186.89 402.788C187.019 402.858 187.127 402.962 187.202 403.089C187.277 403.215 187.316 403.359 187.315 403.507C187.347 403.754 187.316 404.005 187.226 404.238C187.135 404.47 186.987 404.676 186.797 404.837C186.192 405.248 185.464 405.441 184.735 405.382ZM182.674 404.637C184.496 405.009 185.892 404.943 186.464 404.451C186.595 404.34 186.695 404.197 186.756 404.037C186.816 403.876 186.835 403.703 186.81 403.533C186.81 403.334 186.717 403.267 186.65 403.241C186.038 402.921 184.083 403.839 182.674 404.637Z" fill="#29538E"/>
<path d="M182.009 404.97C181.961 404.982 181.911 404.982 181.863 404.97C181.827 404.942 181.798 404.905 181.78 404.864C181.761 404.822 181.753 404.776 181.757 404.731C181.757 404.598 182.023 401.525 183.259 400.515C183.407 400.389 183.578 400.294 183.764 400.237C183.949 400.18 184.144 400.161 184.337 400.182C184.526 400.185 184.708 400.252 184.854 400.373C184.999 400.494 185.098 400.662 185.135 400.847C185.361 402.044 183.233 404.372 182.129 404.97H182.009ZM184.164 400.634C183.948 400.64 183.742 400.72 183.579 400.86C182.834 401.827 182.394 402.994 182.315 404.212C183.419 403.374 184.776 401.552 184.643 400.9C184.643 400.834 184.643 400.688 184.27 400.648H184.164V400.634Z" fill="#29538E"/>
<path d="M170.518 404.625H180.28L180.386 382.002H170.611L170.518 404.625Z" fill="#7F3E3B"/>
<path d="M102.062 395.634L111.399 397.442L119.166 375.258L109.83 373.449L102.062 395.634Z" fill="#7F3E3B"/>
<path d="M112.663 396.14L101.89 393.852C101.705 393.812 101.512 393.839 101.345 393.926C101.177 394.013 101.045 394.157 100.972 394.331L97.5938 402.497C97.5161 402.701 97.4837 402.919 97.4987 403.136C97.5137 403.354 97.5759 403.565 97.681 403.757C97.786 403.948 97.9313 404.114 98.1069 404.243C98.2825 404.372 98.4841 404.462 98.6977 404.505C102.462 405.237 104.324 405.41 109.045 406.42C111.945 407.032 117.876 408.615 121.893 409.466C125.91 410.317 127.12 406.434 125.537 405.716C118.448 402.524 116.068 399.704 114.086 397.057C113.737 396.591 113.232 396.265 112.663 396.14Z" fill="#263238"/>
<path d="M180.174 403.494H169.534C169.342 403.494 169.157 403.56 169.009 403.681C168.861 403.802 168.759 403.971 168.722 404.159L167.126 412.844C167.089 413.058 167.1 413.277 167.157 413.487C167.214 413.696 167.317 413.89 167.458 414.056C167.599 414.221 167.775 414.353 167.973 414.442C168.17 414.531 168.386 414.576 168.603 414.573C172.446 414.573 178.006 414.294 182.847 414.294C188.499 414.294 188.779 414.6 195.415 414.6C199.405 414.6 200.376 410.543 198.687 410.171C190.973 408.508 189.377 408.322 182.581 404.252C181.863 403.783 181.03 403.521 180.174 403.494Z" fill="#263238"/>
<path d="M130.405 70.8737C121.414 73.3342 110.787 98.1919 110.787 98.1919L131.429 109.856C131.429 109.856 136.257 101.051 141.018 90.1454C146.005 78.7207 145.407 66.7906 130.405 70.8737Z" fill="#263238"/>
<path d="M188.805 114.777C188.805 125.683 188.074 139.249 186.451 156.087H134.182C133.544 148.506 136.669 113.062 129.234 77.2581C129.062 76.4541 129.056 75.6232 129.218 74.8169C129.379 74.0105 129.704 73.2459 130.173 72.5702C130.642 71.8945 131.244 71.3222 131.943 70.8887C132.641 70.4551 133.422 70.1695 134.235 70.0495C137.401 69.584 141.364 69.1052 145.261 68.919C152.658 68.4931 160.074 68.4931 167.472 68.919C170.534 69.2031 173.58 69.647 176.596 70.249C178.68 70.6495 180.612 71.6215 182.177 73.0565C183.741 74.4914 184.875 76.3329 185.454 78.3753C187.167 85.1821 188.166 92.1491 188.433 99.1632C188.699 103.659 188.845 108.819 188.805 114.777Z" fill="#263238"/>
<path d="M165.305 89.7601C173.444 94.2688 192.157 89.1217 192.157 89.1217L191.186 63.7852C184.402 64.6391 177.769 66.4295 171.476 69.1052C158.734 74.2656 156.128 84.6795 165.305 89.7601Z" fill="#263238"/>
<path d="M175.998 66.8574C175.998 66.8574 172.221 68.1874 170.824 68.5997C165.81 74.1059 162.685 86.0626 162.685 86.0626L169.069 94.4948C166.648 82.0061 175.998 66.8574 175.998 66.8574Z" fill="#29538E"/>
<path opacity="0.2" d="M175.998 66.8574C175.998 66.8574 172.221 68.1874 170.824 68.5997C165.81 74.1059 162.685 86.0626 162.685 86.0626L169.069 94.4948C166.648 82.0061 175.998 66.8574 175.998 66.8574Z" fill="black"/>
<path d="M188.819 129.58C183.831 133.424 173.923 124.486 173.923 124.486L174.215 129.022C183.299 136.616 188.673 132.852 188.673 132.852C188.876 131.774 188.925 130.672 188.819 129.58Z" fill="#29538E"/>
<path opacity="0.2" d="M188.819 129.58C183.831 133.424 173.923 124.486 173.923 124.486L174.215 129.022C183.299 136.616 188.673 132.852 188.673 132.852C188.876 131.774 188.925 130.672 188.819 129.58Z" fill="black"/>
<path d="M142.349 68.5996C140.854 68.7102 139.372 68.9505 137.92 69.3178C135.677 75.0384 135.173 81.2935 136.47 87.2994L142.216 84.7192C142.216 84.7192 140.354 76.021 142.349 68.5996Z" fill="#29538E"/>
<path opacity="0.2" d="M142.349 68.5996C140.854 68.7102 139.372 68.9505 137.92 69.3178C135.677 75.0384 135.173 81.2935 136.47 87.2994L142.216 84.7192C142.216 84.7192 140.354 76.021 142.349 68.5996Z" fill="black"/>
<path d="M135.605 86.1019C138.73 81.2208 162.724 81.7661 167.911 85.7694C173.098 89.7727 179.362 133.423 171.688 138.304C164.014 143.185 128.609 145.513 128.356 135.644C128.104 125.776 136.164 108.619 135.206 102.953C134.248 97.2872 131.362 92.7519 135.605 86.1019Z" fill="#29538E"/>
<path opacity="0.4" d="M135.938 101.345C135.938 101.345 144.689 104.75 163.202 100.613C159.598 102.502 140.579 106.798 135.938 101.345Z" fill="#263238"/>
<path opacity="0.4" d="M146.512 100.068C146.618 100.879 146.166 101.544 145.487 101.544C145.117 101.497 144.775 101.325 144.516 101.057C144.257 100.788 144.098 100.44 144.064 100.068C143.958 99.2568 144.41 98.5918 145.075 98.5918C145.447 98.636 145.793 98.8067 146.055 99.0755C146.316 99.3442 146.478 99.6947 146.512 100.068Z" fill="#263238"/>
<path opacity="0.4" d="M166.9 138.97H166.807C166.764 138.959 166.724 138.94 166.689 138.913C166.654 138.886 166.625 138.852 166.604 138.813C166.582 138.774 166.569 138.732 166.565 138.688C166.562 138.644 166.567 138.599 166.581 138.557C169.401 129.247 169.055 116.559 165.544 100.666C164.081 94.0157 165.743 87.6849 166.621 86.3682C166.645 86.3315 166.677 86.3 166.713 86.2755C166.75 86.251 166.791 86.2339 166.834 86.2253C166.878 86.2166 166.922 86.2166 166.965 86.2251C167.009 86.2337 167.05 86.2507 167.086 86.2751C167.123 86.2996 167.155 86.331 167.179 86.3676C167.204 86.4043 167.221 86.4454 167.229 86.4886C167.238 86.5318 167.238 86.5763 167.23 86.6196C167.221 86.6628 167.204 86.7039 167.18 86.7406C166.275 88.0706 164.839 94.428 166.182 100.519C169.733 116.479 170.079 129.394 167.219 138.744C167.195 138.809 167.152 138.866 167.095 138.906C167.038 138.946 166.97 138.969 166.9 138.97Z" fill="#263238"/>
<g opacity="0.2">
<path opacity="0.2" d="M180.386 382.002L180.333 393.666H170.558L170.611 382.002H180.386Z" fill="black"/>
<path opacity="0.2" d="M109.83 373.449L119.167 375.258L115.15 386.696L105.813 384.887L109.83 373.449Z" fill="black"/>
</g>
<path d="M167.911 156.086C167.911 156.086 159.704 230.739 154.69 258.669C149.211 289.259 120.815 385.458 120.815 385.458L103.312 381.734C103.312 381.734 122.863 291.786 125.497 261.449C128.343 228.531 134.182 156.033 134.182 156.033L167.911 156.086Z" fill="#29538E"/>
<path d="M124.739 379.608L121.76 386.005L102.062 381.815L103.472 375.844L124.739 379.608Z" fill="#263238"/>
<path opacity="0.2" d="M161.926 182.688C149.211 185.202 152.403 233.015 154.904 257.607C157.923 240.224 162.046 206.774 164.826 183.034C163.926 182.594 162.904 182.472 161.926 182.688Z" fill="black"/>
<path d="M186.452 156.088C186.452 156.088 190.614 229.145 190.708 258.937C190.787 289.926 183.885 391.405 183.885 391.405H167.339C167.339 391.405 162.884 291.735 160.969 261.304C158.881 228.054 152.098 156.088 152.098 156.088H186.452Z" fill="#29538E"/>
<path d="M186.81 384.807C186.89 384.807 186.145 391.683 186.145 391.683H166.009L165.237 385.551L186.81 384.807Z" fill="#263238"/>
<path d="M170.279 34.1123C170.385 34.897 170.89 35.4422 171.409 35.4422C171.928 35.4422 172.247 34.724 172.141 33.9394C172.034 33.1547 171.516 32.6094 171.01 32.6094C170.505 32.6094 170.172 33.3276 170.279 34.1123Z" fill="#263238"/>
<path d="M170.823 35.4961C172.101 37.7931 173.68 39.9088 175.518 41.787C175.026 42.226 174.443 42.5512 173.811 42.7397C173.179 42.9282 172.513 42.9753 171.861 42.8776L170.823 35.4961Z" fill="#630F0F"/>
<path d="M170.597 29.0198C170.667 28.9916 170.729 28.9483 170.78 28.8931C170.83 28.8379 170.868 28.7721 170.89 28.7006C170.906 28.6412 170.91 28.5792 170.902 28.5182C170.894 28.4572 170.874 28.3985 170.843 28.3453C170.812 28.2921 170.771 28.2456 170.722 28.2084C170.673 28.1712 170.617 28.1441 170.557 28.1287C169.849 27.9913 169.119 28.0233 168.425 28.2221C167.732 28.4208 167.095 28.7808 166.568 29.2725C166.513 29.3105 166.467 29.3597 166.433 29.4169C166.399 29.474 166.378 29.5378 166.371 29.6038C166.364 29.6699 166.371 29.7368 166.391 29.7999C166.412 29.863 166.446 29.921 166.491 29.9698C166.536 30.0187 166.591 30.0574 166.653 30.0832C166.714 30.1091 166.78 30.1215 166.846 30.1197C166.913 30.1179 166.978 30.1019 167.038 30.0728C167.097 30.0436 167.15 30.002 167.193 29.9508C167.61 29.5542 168.117 29.2638 168.67 29.104C169.223 28.9443 169.807 28.92 170.371 29.0331C170.447 29.0458 170.524 29.0413 170.597 29.0198Z" fill="#263238"/>
<path d="M143.891 35.138C145.846 44.6741 146.551 50.3266 152.057 54.7555C153.841 56.2147 155.989 57.1579 158.27 57.483C160.551 57.808 162.878 57.5025 164.997 56.5996C167.117 55.6966 168.949 54.2306 170.295 52.3605C171.641 50.4904 172.449 48.2876 172.633 45.9908C173.484 37.1596 170.145 23.0616 160.184 20.2021C158.047 19.527 155.77 19.4266 153.583 19.9111C151.395 20.3957 149.373 21.448 147.722 22.9622C146.07 24.4764 144.846 26.399 144.174 28.5365C143.501 30.674 143.404 32.9509 143.891 35.138Z" fill="#7F3E3B"/>
<path d="M164.4 36.5603C162.778 41.5877 153.76 51.1903 150.555 51.9351C147.35 52.6799 138.585 45.0989 137.8 41.1355C134.608 40.7764 131.15 34.4057 135.991 31.9053C132.4 30.0832 133.331 20.5737 140.633 21.2653C136.191 16.9827 141.524 9.73421 147.589 11.6627C149.039 7.96531 157.231 5.59791 161.953 11.2903C165.637 9.21551 172.088 13.3917 171.609 19.6427C171.359 21.5772 170.556 23.3984 169.296 24.8872C168.036 26.3761 166.373 27.4692 164.507 28.035C166.089 29.9103 164.4 36.5603 164.4 36.5603Z" fill="#263238"/>
<path d="M159.572 35.2297C160.115 37.6175 161.406 39.7699 163.256 41.3743C165.716 43.4757 167.685 41.76 167.631 38.8739C167.631 36.2139 166.235 32.0643 163.468 31.0668C160.702 30.0693 158.96 32.3702 159.572 35.2297Z" fill="#7F3E3B"/>
</g>
<defs>
<clipPath id="clip0">
<rect width="515" height="430" fill="white"/>
</clipPath>
</defs>
</svg>
