<svg width="40" height="39" viewBox="0 0 40 39" fill="none" xmlns="http://www.w3.org/2000/svg">
  <path
    d="M37.5607 0.0335465C37.5497 0.0362033 37.5387 0.0383912 37.5278 0.0413606L1.06047 9.98698C0.143958 10.237 -0.108203 11.4195 0.623587 12.0225L11.9734 21.373L9.88368 27.6421C9.57909 28.556 10.451 29.4297 11.3663 29.1247L17.6354 27.035L26.9859 38.3848C27.5914 39.1196 28.7718 38.8626 29.0214 37.9479L38.967 1.48056C38.9701 1.46907 38.9724 1.45743 38.9752 1.44587C39.1809 0.586706 38.4052 -0.170323 37.5607 0.0335465ZM3.86167 11.6529L32.756 3.77259L13.3467 19.467L3.86167 11.6529ZM17.3323 24.6649L12.8489 26.1594L14.3434 21.676L29.9604 9.04781L17.3323 24.6649ZM27.3554 35.1466L19.5411 25.6616L35.2357 6.25216L27.3554 35.1466Z"
    fill="#172E4F" />
</svg>