<svg width="609" height="420" viewBox="0 0 609 420" fill="none" xmlns="http://www.w3.org/2000/svg">
  <g clip-path="url(#clip0)">
    <path
      d="M572.174 415.101C576.348 399.844 589.944 348.629 599.179 296.758C610.187 234.829 619.822 149.529 575.762 113.744C531.703 77.9578 473.862 120.629 443.569 106.872C413.277 93.1149 411.904 24.3007 330.633 3.67209C249.361 -16.9565 203.943 54.5721 168.147 93.1007C132.35 131.629 92.3793 105.486 40.0854 146.772C-11.6654 187.601 32.2227 372.486 70.4925 415.101H572.174Z"
      fill="#29538E" />
    <path opacity="0.7"
      d="M572.174 415.101C576.348 399.844 589.944 348.629 599.179 296.758C610.187 234.829 619.822 149.529 575.762 113.744C531.703 77.9578 473.862 120.629 443.569 106.872C413.277 93.1149 411.904 24.3007 330.633 3.67209C249.361 -16.9565 203.943 54.5721 168.147 93.1007C132.35 131.629 92.3793 105.486 40.0854 146.772C-11.6654 187.601 32.2227 372.486 70.4925 415.101H572.174Z"
      fill="white" />
    <path
      d="M586.427 125.301H474.205C473.66 125.305 473.139 125.522 472.754 125.907C472.368 126.292 472.15 126.813 472.146 127.358V415.929C472.146 416.476 472.363 417.001 472.749 417.389C473.134 417.777 473.658 417.997 474.205 418.001H586.427C586.977 418.001 587.504 417.783 587.893 417.394C588.281 417.006 588.5 416.479 588.5 415.929V127.358C588.496 126.811 588.276 126.288 587.888 125.902C587.499 125.517 586.974 125.301 586.427 125.301ZM584.368 413.872H476.278V129.429H584.368V413.872Z"
      fill="white" />
    <path
      d="M484.112 188.8H576.534C576.806 188.8 577.075 188.746 577.325 188.642C577.576 188.538 577.804 188.385 577.995 188.192C578.186 188 578.338 187.771 578.44 187.52C578.543 187.269 578.595 187 578.593 186.728V137.971C578.595 137.701 578.543 137.432 578.44 137.182C578.337 136.931 578.186 136.704 577.994 136.512C577.802 136.321 577.575 136.17 577.324 136.067C577.074 135.964 576.805 135.912 576.534 135.914H484.112C483.84 135.912 483.571 135.964 483.32 136.067C483.068 136.169 482.84 136.32 482.647 136.512C482.454 136.703 482.301 136.93 482.197 137.181C482.093 137.431 482.039 137.7 482.039 137.971V186.728C482.039 187.278 482.257 187.805 482.646 188.193C483.035 188.582 483.562 188.8 484.112 188.8ZM486.171 140H574.461V184.628H486.171V140Z"
      fill="white" />
    <path
      d="M484.112 258.058H576.534C576.805 258.06 577.074 258.008 577.324 257.905C577.575 257.802 577.802 257.651 577.994 257.459C578.186 257.268 578.337 257.04 578.44 256.79C578.543 256.539 578.595 256.271 578.593 256V207.243C578.595 206.972 578.543 206.703 578.44 206.452C578.338 206.2 578.186 205.972 577.995 205.779C577.804 205.587 577.576 205.434 577.325 205.33C577.075 205.226 576.806 205.172 576.534 205.172H484.112C483.562 205.172 483.035 205.39 482.646 205.779C482.257 206.167 482.039 206.694 482.039 207.243V256C482.039 256.272 482.093 256.54 482.197 256.791C482.301 257.042 482.454 257.269 482.647 257.46C482.84 257.651 483.068 257.803 483.32 257.905C483.571 258.008 483.84 258.059 484.112 258.058ZM486.171 209.3H574.461V253.943H486.171V209.3Z"
      fill="white" />
    <path
      d="M484.112 327.329H576.534C577.08 327.329 577.604 327.112 577.99 326.727C578.376 326.341 578.593 325.818 578.593 325.272V276.501C578.593 275.955 578.376 275.432 577.99 275.046C577.604 274.66 577.08 274.443 576.534 274.443H484.112C483.565 274.443 483.04 274.66 482.651 275.045C482.263 275.43 482.043 275.954 482.039 276.501V325.272C482.043 325.819 482.263 326.342 482.651 326.727C483.04 327.113 483.565 327.329 484.112 327.329ZM486.171 278.572H574.461V323.2H486.171V278.572Z"
      fill="white" />
    <path
      d="M484.113 396.601H576.535C576.806 396.601 577.075 396.547 577.326 396.443C577.577 396.339 577.804 396.186 577.996 395.994C578.187 395.801 578.338 395.573 578.441 395.321C578.543 395.07 578.595 394.801 578.593 394.53V345.715C578.595 345.445 578.543 345.176 578.441 344.926C578.338 344.675 578.186 344.448 577.995 344.257C577.803 344.065 577.576 343.914 577.325 343.811C577.074 343.708 576.806 343.656 576.535 343.658H484.113C483.841 343.656 483.572 343.708 483.321 343.811C483.069 343.913 482.841 344.064 482.648 344.256C482.455 344.447 482.302 344.674 482.198 344.925C482.094 345.175 482.04 345.444 482.04 345.715V394.473C482.032 394.749 482.08 395.025 482.181 395.283C482.282 395.541 482.433 395.776 482.626 395.974C482.82 396.173 483.051 396.33 483.306 396.438C483.561 396.546 483.836 396.601 484.113 396.601ZM486.171 347.844H574.462V392.473H486.171V347.844Z"
      fill="white" />
    <path
      d="M445.856 22.8575H143.586C143.05 22.8573 142.535 23.0661 142.15 23.4397C141.766 23.8132 141.542 24.3219 141.527 24.8575V175.315C141.527 175.586 141.581 175.855 141.685 176.105C141.79 176.356 141.943 176.583 142.135 176.774C142.328 176.966 142.557 177.117 142.808 177.219C143.059 177.322 143.329 177.374 143.6 177.372H445.856C446.127 177.374 446.395 177.322 446.646 177.219C446.896 177.116 447.124 176.965 447.316 176.773C447.507 176.582 447.659 176.355 447.762 176.104C447.864 175.854 447.916 175.585 447.914 175.315V24.8575C447.903 24.3207 447.681 23.8099 447.296 23.4356C446.91 23.0613 446.393 22.8536 445.856 22.8575ZM443.783 26.986V166.586H145.645V26.9289L443.783 26.986Z"
      fill="white" />
    <path
      d="M513.834 320.4L507.329 418.572C507.293 419.071 507.07 419.538 506.704 419.88C506.338 420.221 505.857 420.412 505.356 420.415C505.093 420.415 504.832 420.362 504.59 420.259C504.347 420.156 504.128 420.006 503.946 419.816C503.763 419.627 503.62 419.403 503.526 419.157C503.432 418.911 503.388 418.649 503.398 418.386L506.071 320.4H513.834Z"
      fill="#263238" stroke="#263238" stroke-linecap="round" stroke-linejoin="round" />
    <path
      d="M530.473 320.4L536.977 418.572C537.01 419.07 537.23 419.537 537.593 419.879C537.957 420.221 538.437 420.412 538.936 420.415C539.2 420.415 539.461 420.362 539.704 420.259C539.947 420.157 540.167 420.006 540.351 419.817C540.535 419.628 540.679 419.404 540.775 419.158C540.871 418.912 540.916 418.65 540.909 418.386L538.207 320.458L530.473 320.4Z"
      fill="#263238" stroke="#263238" stroke-linecap="round" stroke-linejoin="round" />
    <path
      d="M465.256 320.4L471.76 418.572C471.793 419.07 472.013 419.537 472.377 419.879C472.74 420.221 473.22 420.412 473.719 420.415C473.983 420.415 474.244 420.362 474.487 420.259C474.731 420.157 474.951 420.006 475.135 419.817C475.319 419.628 475.463 419.404 475.558 419.158C475.654 418.912 475.699 418.65 475.692 418.386L472.976 320.458L465.256 320.4Z"
      fill="#263238" stroke="#263238" stroke-linecap="round" stroke-linejoin="round" />
    <path
      d="M438.681 320.4L432.177 418.572C432.141 419.071 431.917 419.538 431.552 419.88C431.186 420.221 430.704 420.412 430.204 420.415C429.94 420.413 429.68 420.359 429.438 420.255C429.195 420.152 428.976 420.002 428.793 419.813C428.609 419.624 428.465 419.401 428.368 419.156C428.272 418.911 428.225 418.649 428.231 418.386L430.947 320.458L438.681 320.4Z"
      fill="#263238" stroke="#263238" stroke-linecap="round" stroke-linejoin="round" />
    <path
      d="M552.003 221.429C552.003 221.429 487.1 219 481.611 219C476.121 219 474.849 221.429 474.849 221.429L465.585 286.7C465.585 286.7 436.779 278.486 431.132 279.557C425.485 280.629 433.92 321.586 433.92 321.586H466.514L467.1 319.129H540.695L560.237 226.1C559.051 221.843 552.003 221.429 552.003 221.429Z"
      fill="white" stroke="#263238" stroke-linecap="round" stroke-linejoin="round" />
    <path
      d="M527.299 262.256C527.299 262.256 533.904 305.113 526.327 310.113C525.155 310.884 518.793 314.542 512.846 313.942C508.071 313.456 474.333 313.942 474.333 313.942C474.333 313.942 469.644 305.027 468.701 298.456C467.757 291.884 475.134 263.684 475.134 263.684L527.299 262.256Z"
      fill="white" stroke="#263238" stroke-linecap="round" stroke-linejoin="round" />
    <path
      d="M472.047 285.213C472.047 285.213 423.213 290.284 420.911 291.656C418.609 293.027 408.045 302.242 409.86 308.227C411.676 314.213 407.101 314.67 411.29 315.599C415.479 316.527 474.849 316.513 474.849 316.513"
      fill="#29538E" />
    <path
      d="M472.047 285.213C472.047 285.213 423.213 290.284 420.911 291.656C418.609 293.027 408.045 302.242 409.86 308.227C411.676 314.213 407.101 314.67 411.29 315.599C415.479 316.527 474.849 316.513 474.849 316.513"
      stroke="#263238" stroke-linecap="round" stroke-linejoin="round" />
    <path d="M427.629 321.514H543.668V312.857H427.629V321.514Z" fill="white" stroke="#263238" stroke-linecap="round"
      stroke-linejoin="round" />
    <path
      d="M516.263 287.057H446.357C446.357 287.057 442.683 291.199 442.211 299.914C441.739 308.628 442.683 310.499 449.13 312.771C455.578 315.042 512.847 313.885 512.847 313.885"
      fill="#29538E" />
    <path
      d="M516.263 287.057H446.357C446.357 287.057 442.683 291.199 442.211 299.914C441.739 308.628 442.683 310.499 449.13 312.771C455.578 315.042 512.847 313.885 512.847 313.885"
      stroke="#263238" stroke-linecap="round" stroke-linejoin="round" />
    <path
      d="M461.181 397.915L453.862 380.586L441.868 382.857L451.046 398.315L445.756 408.9L434.319 416.372C434.319 416.372 432.99 417.686 438.708 417.243C444.427 416.8 456.292 417.243 456.292 417.243L463.769 408.457C463.769 408.457 466.485 403.986 461.181 397.915Z"
      fill="white" stroke="#263238" stroke-linecap="round" stroke-linejoin="round" />
    <path d="M464.384 405.484L464.684 416.813H462.897L460.51 411.156L464.384 405.484Z" fill="#263238" stroke="#263238"
      stroke-linecap="round" stroke-linejoin="round" />
    <path
      d="M456.308 417.299L463.784 408.513C463.784 408.513 465.714 405.242 463.055 400.527C457.737 409.613 450.661 412.342 450.661 412.342L443.284 410.57L434.335 416.427C434.335 416.427 433.006 417.742 438.724 417.299C444.442 416.856 456.308 417.299 456.308 417.299Z"
      fill="#263238" stroke="#263238" stroke-linecap="round" stroke-linejoin="round" />
    <path
      d="M432.433 309.614L456.951 383.685L439.553 386.771L405.243 309.628C405.243 309.628 402.484 298.114 409.846 294.443C417.208 290.771 438.866 288.914 438.866 288.914"
      fill="#29538E" />
    <path
      d="M432.433 309.614L456.951 383.685L439.553 386.771L405.243 309.628C405.243 309.628 402.484 298.114 409.846 294.443C417.208 290.771 438.866 288.914 438.866 288.914"
      stroke="#263238" stroke-linecap="round" stroke-linejoin="round" />
    <path
      d="M511.074 321.5C511.074 321.5 502.626 280.485 508.287 279.471C513.948 278.457 542.74 286.614 542.74 286.614L552.003 221.428C552.003 221.428 561.782 219.885 562.811 228.571C563.84 237.257 543.669 321.5 543.669 321.5H511.074Z"
      fill="#263238" stroke="#263238" stroke-linecap="round" stroke-linejoin="round" />
    <path
      d="M411.59 200.743L407.23 193.6C406.809 192.915 406.218 192.353 405.513 191.967C404.809 191.581 404.016 191.385 403.212 191.4L399.11 191.471L392.09 189.371C391.644 189.241 391.17 189.246 390.727 189.386C390.284 189.526 389.893 189.794 389.603 190.157L389.346 190.485L395.807 193.343L389.36 195.714L382.512 192.243C382.242 192.104 381.932 192.066 381.637 192.134C381.341 192.202 381.079 192.372 380.897 192.614C380.689 192.883 380.596 193.224 380.639 193.561C380.682 193.899 380.857 194.205 381.125 194.414L390.704 201.8C391.004 202.033 391.35 202.199 391.72 202.288C392.09 202.377 392.475 202.386 392.848 202.314L403.441 200.185L406.4 203.414L411.59 200.743Z"
      fill="white" stroke="#263238" stroke-linecap="round" stroke-linejoin="round" />
    <path
      d="M485.443 186.086L446.172 227.129L408.689 196.857L403.514 200.615L444.757 247.315L480.511 228.072L485.443 186.086Z"
      fill="white" stroke="#263238" stroke-linecap="round" stroke-linejoin="round" />
    <path
      d="M544.198 196.57L564.784 259.785L547.028 260.299L529.373 230.627C529.373 230.627 539.294 200.699 544.198 196.57Z"
      fill="white" stroke="#263238" stroke-linecap="round" stroke-linejoin="round" />
    <path
      d="M521.796 185.713L544.198 196.642L525.442 249.056L527.657 263.67L475.135 263.756L481.396 240.213L477.108 225.128C476.551 223.17 476.521 221.1 477.022 219.128L485.428 186.156L507.5 182.613L521.796 185.713Z"
      fill="white" stroke="#263238" stroke-linecap="round" stroke-linejoin="round" />
    <path
      d="M520.725 182.642C520.725 182.642 525.128 185.613 525.271 188.256C525.342 189.813 525.271 192.542 525.128 194.627C525.049 196.257 524.676 197.859 524.027 199.356L516.093 208.927L506.915 201.684L499.295 205.57C499.295 205.57 497.866 193.899 501.197 185.756C504.527 177.613 519.023 180.599 520.725 182.642Z"
      fill="white" stroke="#263238" stroke-linecap="round" stroke-linejoin="round" />
    <path
      d="M527.028 160C527.028 160 525.227 166.471 524.383 170.757C523.54 175.043 521.839 183.614 521.996 186.828C522.153 190.043 508.615 203.728 506.914 201.686C505.213 199.643 503.426 187.771 503.426 187.771L505.113 168.571C505.113 168.571 522.754 149.043 527.028 160Z"
      fill="white" stroke="#263238" stroke-linecap="round" stroke-linejoin="round" />
    <path
      d="M498.737 150C498.737 150 496.321 153.986 496.321 155.714C496.321 157.443 497.165 160.828 497.022 161.814C496.879 162.8 494.477 166.1 494.162 167.214C494.004 167.668 494.017 168.163 494.199 168.608C494.381 169.052 494.718 169.415 495.149 169.628C495.733 169.927 496.3 170.256 496.85 170.614C496.85 170.614 497.565 179.414 498.708 181.686C499.852 183.957 500.839 184.957 504.241 185.243C507.643 185.528 515.749 181.971 516.878 179.128C518.008 176.286 518.165 172.886 518.308 168.771C518.451 164.657 515.606 158.771 513.476 153.157C511.346 147.543 502.425 144.457 498.737 150Z"
      fill="white" stroke="#263238" stroke-linecap="round" stroke-linejoin="round" />
    <path
      d="M535.406 179.056C541.43 179.056 546.313 174.176 546.313 168.156C546.313 162.136 541.43 157.256 535.406 157.256C529.382 157.256 524.498 162.136 524.498 168.156C524.498 174.176 529.382 179.056 535.406 179.056Z"
      fill="#263238" stroke="#263238" stroke-linecap="round" stroke-linejoin="round" />
    <path
      d="M498.68 149.385C498.68 149.385 503.069 145.6 510.96 153.128C518.851 160.657 515.849 171.542 521.124 173.8C526.399 176.057 536.163 164.771 537.293 159.142C538.422 153.514 535.034 141.842 524.498 139.585C513.962 137.328 501.053 138.871 498.68 149.385Z"
      fill="#263238" stroke="#263238" stroke-linecap="round" stroke-linejoin="round" />
    <path
      d="M498.679 149.386C498.585 148.5 498.695 147.605 499 146.769C499.304 145.932 499.796 145.176 500.436 144.558C501.077 143.939 501.851 143.475 502.698 143.2C503.545 142.925 504.444 142.847 505.326 142.971C512.474 143.357 513.218 154.629 516.977 159.143C520.737 163.657 522.624 162.9 522.624 162.9C522.624 162.9 516.234 164.771 512.088 162.514C507.943 160.257 505.941 147.529 498.679 149.386Z"
      fill="#263238" stroke="#263238" stroke-linecap="round" stroke-linejoin="round" />
    <path
      d="M510.36 141.656C514.121 143.978 517.106 147.364 518.937 151.385C522.182 158.256 522.183 163.928 529.888 163.528C529.888 163.528 526.243 164.342 520.567 161.499C514.892 158.656 513.676 150.571 510.031 147.328C508.042 145.447 505.47 144.302 502.74 144.085"
      stroke="white" stroke-width="0.5" stroke-linecap="round" stroke-linejoin="round" />
    <path d="M537.292 159.143C537.292 159.143 536.963 169.457 529.043 171.628" stroke="white" stroke-width="0.5"
      stroke-linecap="round" stroke-linejoin="round" />
    <path
      d="M515.192 169.671C515.192 169.671 522.74 159.8 524.513 167.171C526.285 174.543 520.224 176.343 517.365 175.5C514.506 174.657 514.906 173.128 514.906 173.128"
      fill="white" />
    <path
      d="M515.192 169.671C515.192 169.671 522.74 159.8 524.513 167.171C526.285 174.543 520.224 176.343 517.365 175.5C514.506 174.657 514.906 173.128 514.906 173.128"
      stroke="#263238" stroke-linecap="round" stroke-linejoin="round" />
    <path
      d="M498.394 254.143C498.394 254.143 483.983 256.143 481.582 256.143C479.18 256.143 473.176 263.743 473.176 263.743H499.594L498.394 254.143Z"
      fill="white" stroke="#263238" stroke-linecap="round" stroke-linejoin="round" />
    <path
      d="M559.608 244.457L564.783 256.114C565.015 256.8 565.081 257.532 564.977 258.248C564.873 258.965 564.6 259.647 564.182 260.239C563.764 260.831 563.212 261.315 562.571 261.654C561.931 261.992 561.219 262.174 560.494 262.186L498.021 262.543L498.422 254.143L546.856 246.486"
      fill="white" />
    <path
      d="M559.608 244.457L564.783 256.114C565.015 256.8 565.081 257.532 564.977 258.248C564.873 258.965 564.6 259.647 564.182 260.239C563.764 260.831 563.212 261.315 562.571 261.654C561.931 261.992 561.219 262.174 560.494 262.186L498.021 262.543L498.422 254.143L546.856 246.486"
      stroke="#263238" stroke-linecap="round" stroke-linejoin="round" />
    <path d="M475.991 405.484L476.292 416.813H474.505L472.117 411.156L475.991 405.484Z" fill="#263238" stroke="#263238"
      stroke-linecap="round" stroke-linejoin="round" />
    <path
      d="M472.789 397.913L470.488 381.428L458.508 382.199L462.653 398.428L457.364 409.013L445.927 416.485C445.927 416.485 444.612 417.799 450.331 417.356C456.049 416.913 467.914 417.356 467.914 417.356L475.391 408.571C475.391 408.571 478.093 403.985 472.789 397.913Z"
      fill="white" stroke="#263238" stroke-linecap="round" stroke-linejoin="round" />
    <path
      d="M467.914 417.299L475.391 408.513C475.391 408.513 477.321 405.242 474.648 400.527C469.33 409.613 462.253 412.342 462.253 412.342L454.891 410.57L445.927 416.427C445.927 416.427 444.612 417.742 450.331 417.299C456.049 416.856 467.914 417.299 467.914 417.299Z"
      fill="#263238" stroke="#263238" stroke-linecap="round" stroke-linejoin="round" />
    <path
      d="M467.301 296.856L472.433 384.456L456.179 384.842L440.311 305.256C440.311 305.256 440.611 290.099 445.457 288.356C450.303 286.613 463.169 288.484 463.169 288.484"
      fill="#29538E" />
    <path
      d="M467.301 296.856L472.433 384.456L456.179 384.842L440.311 305.256C440.311 305.256 440.611 290.099 445.457 288.356C450.303 286.613 463.169 288.484 463.169 288.484"
      stroke="#263238" stroke-linecap="round" stroke-linejoin="round" />
    <path
      d="M396.25 108.301L416.421 164.801C416.421 164.801 413.762 177.587 405.756 177.058C397.751 176.529 395.621 165.329 393.491 163.729C391.36 162.129 388.158 149.872 388.158 149.872L396.25 108.301Z"
      fill="white" stroke="#263238" stroke-linecap="round" stroke-linejoin="round" />
    <path d="M344.07 96.9707L311.275 108.799L323.856 199.671H383.026L396.249 108.299L360.853 97.2278L344.07 96.9707Z"
      fill="white" stroke="#263238" stroke-linecap="round" stroke-linejoin="round" />
    <path
      d="M347.229 112.542L351.96 119.671L347.857 180.128L353.89 195.871L360.08 180.557L354.777 120.571L359.037 110.271L353.133 102.514L347.229 112.542Z"
      fill="#29538E" stroke="#263238" stroke-linecap="round" stroke-linejoin="round" />
    <path
      d="M353.777 109.599L345.329 115.928L339.768 99.4277L343.642 91.0705L360.925 90.6562L365.143 94.442L364.299 115.499L353.777 109.599Z"
      fill="white" stroke="#263238" stroke-linecap="round" stroke-linejoin="round" />
    <path
      d="M362.711 86.7853L361.396 97.3995L351.932 109.6L344.855 97.2281V77.3281C344.855 77.3281 357.25 80.4281 362.711 86.7853Z"
      fill="white" stroke="#263238" stroke-linecap="round" stroke-linejoin="round" />
    <path
      d="M339.996 64.7286C339.996 55.0858 347.03 47.2715 355.722 47.2715C364.413 47.2715 369.231 55.5143 369.231 65.1572C369.231 68.2715 368.588 73.6144 368.33 76.4572C367.887 81.3144 366.415 83.3715 363.541 87.7286C354.12 102.014 346.386 81.0572 342.426 74.0143C340.824 71.1824 339.986 67.9822 339.996 64.7286Z"
      fill="white" stroke="#263238" stroke-linecap="round" stroke-linejoin="round" />
    <path d="M362.554 67.7578L363.884 77.715L359.209 77.5864" fill="white" />
    <path d="M362.554 67.7578L363.884 77.715L359.209 77.5864" stroke="#263238" stroke-linecap="round"
      stroke-linejoin="round" />
    <path
      d="M372.99 66.0293L350.517 66.1293C350.241 67.0026 350.199 67.9331 350.394 68.8278C350.59 69.7226 351.017 70.5506 351.632 71.2293C353.062 72.6579 358.88 72.1579 359.809 71.7864C360.739 71.415 361.239 67.3293 361.239 67.3293H362.912C362.912 67.3293 363.097 71.615 365.499 71.9722C367.901 72.3293 371.032 72.215 371.632 71.7864C374.291 70.0007 372.99 66.0293 372.99 66.0293Z"
      fill="white" stroke="#263238" stroke-linecap="round" stroke-linejoin="round" />
    <path
      d="M342.769 75.6285C342.769 75.6285 347.829 85.9856 349.03 89.5713C350.231 93.157 356.178 95.957 362.197 93.957C368.215 91.957 366.586 83.057 366.586 83.057C366.586 83.057 360.195 77.5999 359.009 78.7713C357.822 79.9427 351.418 85.157 351.017 83.957C350.617 82.757 347.829 75.5856 347.829 75.5856L346.529 70.4999L349.202 68.7856C349.588 68.4644 349.839 68.0099 349.905 67.5124C349.971 67.0149 349.848 66.5107 349.559 66.0999L348.301 64.2856C348.146 64.0634 348.037 63.8124 347.981 63.5474C347.924 63.2824 347.921 63.0088 347.972 62.7427C348.301 61.1856 349.202 57.957 351.289 57.0285C354.148 55.8427 357.622 57.5713 360.824 58.3713C364.027 59.1713 367.5 56.2856 367.5 56.2856L368.93 61.0285C372.1 58.0559 374.352 54.239 375.42 50.0285C377.021 43.2427 360.653 40.457 355.406 40.457C350.16 40.457 341.84 43.3142 339.438 50.8285C337.036 58.3427 341.353 74.2856 342.769 75.6285Z"
      fill="#263238" stroke="#263238" stroke-linecap="round" stroke-linejoin="round" />
    <path
      d="M355.72 50.0723C355.72 50.0723 358.694 54.5294 354.791 55.458C350.888 56.3866 343.283 53.0437 339.938 54.3437"
      stroke="white" stroke-width="0.5" stroke-linecap="round" stroke-linejoin="round" />
    <path d="M349.031 59.899C349.031 59.899 342.912 59.1562 340.453 61.7562" stroke="white" stroke-width="0.5"
      stroke-linecap="round" stroke-linejoin="round" />
    <path d="M363.755 82.4292C363.755 82.4292 359.252 84.772 357.021 81.9863" stroke="white" stroke-width="0.5"
      stroke-linecap="round" stroke-linejoin="round" />
    <path
      d="M343.527 72.4708C343.527 72.4708 339.109 67.6136 339.109 72.9136C339.109 78.2136 340.439 78.2136 343.084 80.0565C345.728 81.8993 346.629 79.6136 346.629 79.6136"
      fill="white" />
    <path
      d="M343.527 72.4708C343.527 72.4708 339.109 67.6136 339.109 72.9136C339.109 78.2136 340.439 78.2136 343.084 80.0565C345.728 81.8993 346.629 79.6136 346.629 79.6136"
      stroke="#263238" stroke-linecap="round" stroke-linejoin="round" />
    <path
      d="M402.51 401.771H402.711L402.324 399.828L383.025 199.686H323.855L304.398 401.757H304.613L317.165 402.828C317.165 402.828 331.089 356.114 331.089 352.628C331.089 349.143 335.063 316.914 335.063 316.914L354.805 247.557L372.26 316.914C372.26 316.914 376.235 349.214 376.235 352.628C376.235 356.043 390.173 402.857 390.173 402.857L401.981 401.843H402.51V401.771Z"
      fill="#263238" stroke="#263238" stroke-linecap="round" stroke-linejoin="round" />
    <path d="M378.608 211.457L365.441 230.243" stroke="white" stroke-width="0.5" stroke-linecap="round"
      stroke-linejoin="round" />
    <path d="M371.56 215.686L363.568 228.843" stroke="white" stroke-width="0.5" stroke-linecap="round"
      stroke-linejoin="round" />
    <path d="M333.963 214.758L345.7 227.429" stroke="white" stroke-width="0.5" stroke-linecap="round"
      stroke-linejoin="round" />
    <path d="M333.02 219.443L349.931 236.358" stroke="white" stroke-width="0.5" stroke-linecap="round"
      stroke-linejoin="round" />
    <path d="M327.373 201.6H379.553" stroke="white" stroke-width="0.5" stroke-linecap="round" stroke-linejoin="round" />
    <path
      d="M304.613 401.758C304.613 401.758 297.079 407.686 292.733 409.315C288.388 410.943 280.268 415.272 280.268 415.272C280.268 415.272 280.268 417.986 287.315 417.986H314.978L314.506 401.758H304.613Z"
      fill="#263238" stroke="#263238" stroke-linecap="round" stroke-linejoin="round" />
    <path
      d="M314.878 415.029C303.831 415.533 292.765 415.356 281.74 414.5L280.311 415.271C280.311 415.271 280.311 417.986 287.358 417.986H315.021L314.878 415.029Z"
      fill="white" stroke="#263238" stroke-linecap="round" stroke-linejoin="round" />
    <path
      d="M401.368 401.758C401.368 401.758 408.916 407.686 413.247 409.315C417.579 410.943 425.728 415.272 425.728 415.272C425.728 415.272 425.728 417.986 418.666 417.986H391.018L391.518 401.758H401.368Z"
      fill="#263238" stroke="#263238" stroke-linecap="round" stroke-linejoin="round" />
    <path
      d="M391.103 415.029C402.15 415.533 413.216 415.356 424.241 414.5L425.671 415.271C425.671 415.271 425.671 417.986 418.608 417.986H391.018L391.103 415.029Z"
      fill="white" stroke="#263238" stroke-linecap="round" stroke-linejoin="round" />
    <path d="M311.275 108.801L289.488 166.929H310.389L318.194 151.072L311.275 108.801Z" fill="white" stroke="#263238"
      stroke-linecap="round" stroke-linejoin="round" />
    <path
      d="M406.585 157.929C397.865 154.329 369.888 152.543 368.43 152.543C366.971 152.543 321.497 148.8 317.765 148.257C314.034 147.714 309.76 156.257 309.76 156.257L329.488 155.714L353.491 160.514C353.491 160.514 402.096 178.1 405.756 177.043C406.255 176.877 406.706 176.593 407.071 176.214"
      fill="white" />
    <path
      d="M406.585 157.929C397.865 154.329 369.888 152.543 368.43 152.543C366.971 152.543 321.497 148.8 317.765 148.257C314.034 147.714 309.76 156.257 309.76 156.257L329.488 155.714L353.491 160.514C353.491 160.514 402.096 178.1 405.756 177.043C406.255 176.877 406.706 176.593 407.071 176.214"
      stroke="#263238" stroke-linecap="round" stroke-linejoin="round" />
    <path
      d="M304.957 155.199L380.153 147.742L380.696 154.128L315.622 173.856C315.622 173.856 303.899 176.514 294.822 174.914C285.744 173.314 290.032 164.256 292.163 158.928"
      fill="white" />
    <path
      d="M304.957 155.199L380.153 147.742L380.696 154.128L315.622 173.856C315.622 173.856 303.899 176.514 294.822 174.914C285.744 173.314 290.032 164.256 292.163 158.928"
      stroke="#263238" stroke-linecap="round" stroke-linejoin="round" />
    <path d="M380.166 147.742L394.562 147.199L398.822 155.728L380.695 154.142L380.166 147.742Z" fill="white"
      stroke="#263238" stroke-linecap="round" stroke-linejoin="round" />
    <path
      d="M476.049 273.084L488.329 419.184C488.361 419.402 488.438 419.611 488.554 419.798C488.67 419.985 488.823 420.146 489.004 420.272C489.184 420.398 489.389 420.485 489.605 420.529C489.821 420.573 490.043 420.572 490.259 420.527C490.627 420.436 490.949 420.215 491.167 419.905C491.385 419.596 491.484 419.218 491.445 418.841L483.082 273.127L476.049 273.084Z"
      fill="#263238" stroke="#263238" stroke-linecap="round" stroke-linejoin="round" />
    <path
      d="M558.578 273.084L570.901 419.67C570.931 419.888 571.007 420.098 571.122 420.286C571.238 420.475 571.391 420.637 571.572 420.763C571.753 420.889 571.959 420.976 572.175 421.019C572.392 421.062 572.615 421.06 572.831 421.013C573.199 420.922 573.521 420.701 573.739 420.391C573.957 420.081 574.056 419.704 574.018 419.327L565.626 273.084H558.578Z"
      fill="#263238" stroke="#263238" stroke-linecap="round" stroke-linejoin="round" />
    <path
      d="M217.996 273.084L211.577 417.913C211.542 418.292 211.643 418.673 211.863 418.984C212.084 419.296 212.408 419.519 212.778 419.613C212.99 419.667 213.212 419.675 213.428 419.637C213.644 419.598 213.849 419.514 214.029 419.389C214.209 419.265 214.361 419.103 214.473 418.914C214.585 418.726 214.656 418.516 214.679 418.298L225.072 273.084H217.996Z"
      fill="#263238" stroke="#263238" stroke-linecap="round" stroke-linejoin="round" />
    <path
      d="M141.928 273.084L135.467 417.37C135.435 417.752 135.539 418.132 135.762 418.443C135.984 418.754 136.31 418.977 136.682 419.07C136.894 419.122 137.115 419.129 137.33 419.089C137.545 419.05 137.749 418.965 137.928 418.841C138.108 418.717 138.259 418.556 138.372 418.369C138.485 418.182 138.557 417.973 138.583 417.756L148.933 273.027L141.928 273.084Z"
      fill="#263238" stroke="#263238" stroke-linecap="round" stroke-linejoin="round" />
    <path d="M574.647 264.984H137.354V277.527H574.647V264.984Z" fill="#29538E" stroke="#263238" stroke-linecap="round"
      stroke-linejoin="round" />
    <path d="M574.647 264.984H137.354V269.284H574.647V264.984Z" fill="#263238" stroke="#263238" stroke-linecap="round"
      stroke-linejoin="round" />
    <path d="M574.633 264.984H465.213V277.527H574.633V264.984Z" fill="#263238" stroke="#263238" stroke-linecap="round"
      stroke-linejoin="round" />
    <path d="M578.536 260.812H133.451V265.598H578.536V260.812Z" fill="#29538E" stroke="#263238" stroke-linecap="round"
      stroke-linejoin="round" />
    <path d="M578.521 260.812H469.773V265.598H578.521V260.812Z" fill="#263238" stroke="#263238" stroke-linecap="round"
      stroke-linejoin="round" />
    <path
      d="M232.592 260.385H292.32C292.548 260.386 292.771 260.321 292.961 260.196C293.152 260.072 293.302 259.894 293.392 259.685L309.932 221.999C310.008 221.822 310.039 221.63 310.022 221.438C310.004 221.246 309.94 221.062 309.833 220.902C309.727 220.742 309.582 220.611 309.412 220.52C309.242 220.43 309.052 220.383 308.86 220.385H249.132C248.908 220.385 248.689 220.449 248.502 220.571C248.314 220.693 248.165 220.866 248.074 221.071L231.591 258.756C231.514 258.928 231.48 259.116 231.493 259.304C231.505 259.492 231.563 259.674 231.661 259.834C231.76 259.995 231.896 260.129 232.058 260.225C232.221 260.321 232.404 260.376 232.592 260.385Z"
      fill="white" stroke="#263238" stroke-linecap="round" stroke-linejoin="round" />
    <path
      d="M238.196 257.441H289.16C289.351 257.441 289.538 257.386 289.697 257.282C289.857 257.178 289.984 257.03 290.061 256.855L304.171 224.698C304.247 224.547 304.283 224.378 304.275 224.208C304.267 224.038 304.215 223.874 304.124 223.73C304.034 223.586 303.907 223.468 303.758 223.388C303.608 223.307 303.44 223.266 303.27 223.27H252.306C252.111 223.268 251.92 223.325 251.757 223.431C251.595 223.538 251.467 223.691 251.391 223.87L237.31 256.055C237.243 256.204 237.215 256.367 237.227 256.53C237.24 256.692 237.292 256.849 237.38 256.986C237.468 257.124 237.588 257.237 237.731 257.316C237.873 257.396 238.033 257.439 238.196 257.441Z"
      fill="#29538E" stroke="#263238" stroke-linecap="round" stroke-linejoin="round" />
    <path d="M293.149 257.885H203.414V260.813H293.149V257.885Z" fill="white" stroke="#263238" stroke-linecap="round"
      stroke-linejoin="round" />
    <path d="M293.164 257.885H249.662V260.813H293.164V257.885Z" fill="white" stroke="#263238" stroke-linecap="round"
      stroke-linejoin="round" />
    <path d="M321.984 237.5H306.158V260.871H321.984V237.5Z" fill="white" stroke="#263238" stroke-linecap="round"
      stroke-linejoin="round" />
    <path
      d="M321.283 257.685H319.624C319.279 257.685 318.948 257.548 318.704 257.305C318.46 257.061 318.323 256.73 318.323 256.385C318.323 256.04 318.46 255.71 318.704 255.466C318.948 255.222 319.279 255.085 319.624 255.085H321.283C321.937 255.082 322.564 254.82 323.027 254.357C323.49 253.895 323.752 253.268 323.756 252.614V246.9C323.752 246.245 323.49 245.619 323.027 245.156C322.564 244.693 321.937 244.432 321.283 244.428H319.152C318.982 244.428 318.812 244.395 318.655 244.329C318.497 244.264 318.353 244.168 318.233 244.047C318.112 243.927 318.016 243.783 317.951 243.626C317.885 243.468 317.852 243.299 317.852 243.128C317.852 242.957 317.885 242.788 317.951 242.631C318.016 242.473 318.112 242.33 318.233 242.209C318.353 242.088 318.497 241.992 318.655 241.927C318.812 241.862 318.982 241.828 319.152 241.828H321.283C321.949 241.828 322.609 241.959 323.225 242.214C323.84 242.469 324.4 242.843 324.871 243.314C325.342 243.784 325.716 244.344 325.971 244.959C326.226 245.574 326.358 246.234 326.358 246.9V252.614C326.358 253.28 326.226 253.939 325.971 254.555C325.716 255.17 325.342 255.729 324.871 256.2C324.4 256.671 323.84 257.044 323.225 257.299C322.609 257.554 321.949 257.685 321.283 257.685Z"
      fill="white" stroke="#263238" stroke-linecap="round" stroke-linejoin="round" />
    <path
      d="M445.627 260.385H385.899C385.674 260.384 385.454 260.317 385.266 260.192C385.078 260.068 384.93 259.892 384.841 259.685L368.301 221.999C368.226 221.823 368.195 221.632 368.211 221.442C368.228 221.251 368.291 221.068 368.396 220.908C368.501 220.748 368.644 220.617 368.812 220.525C368.98 220.434 369.168 220.386 369.359 220.385H429.087C429.313 220.384 429.534 220.448 429.724 220.57C429.914 220.691 430.065 220.865 430.159 221.07L446.699 258.756C446.775 258.934 446.805 259.127 446.787 259.319C446.77 259.511 446.705 259.696 446.599 259.857C446.493 260.018 446.349 260.151 446.179 260.243C446.01 260.335 445.82 260.384 445.627 260.385Z"
      fill="white" stroke="#263238" stroke-linecap="round" stroke-linejoin="round" />
    <path d="M385.072 260.812H474.807V257.884H385.072V260.812Z" fill="white" stroke="#263238" stroke-linecap="round"
      stroke-linejoin="round" />
    <path d="M385.071 260.812H446.943V257.884H385.071V260.812Z" fill="white" stroke="#263238" stroke-linecap="round"
      stroke-linejoin="round" />
    <path
      d="M408.487 236.028C408.811 236.639 408.946 237.333 408.877 238.021C408.808 238.71 408.537 239.363 408.098 239.898C407.66 240.433 407.072 240.827 406.411 241.03C405.749 241.233 405.042 241.237 404.378 241.04C403.714 240.843 403.123 240.455 402.679 239.924C402.235 239.393 401.958 238.742 401.882 238.055C401.807 237.367 401.936 236.672 402.254 236.057C402.572 235.443 403.064 234.935 403.669 234.599C404.498 234.152 405.47 234.051 406.373 234.319C407.276 234.587 408.036 235.201 408.487 236.028Z"
      fill="white" stroke="#263238" stroke-linecap="round" stroke-linejoin="round" />
    <path
      d="M129.19 125.099L133.593 168.57L153.607 226.47L146.76 230.385L123.257 177.385L111.521 131.885C111.521 131.885 110.534 118.199 115.438 116.171C120.341 114.142 127.232 116.299 129.19 125.099Z"
      fill="white" stroke="#263238" stroke-linecap="round" stroke-linejoin="round" />
    <path
      d="M153.664 226.529C153.664 226.529 158.067 235.829 158.568 238.272C159.068 240.715 159.568 245.701 157.638 247.929C155.308 250.615 153.178 248.544 153.178 248.544C153.178 248.544 147.302 247.115 147.302 242.186C147.302 237.258 146.816 230.444 146.816 230.444L153.664 226.529Z"
      fill="white" stroke="#263238" stroke-linecap="round" stroke-linejoin="round" />
    <path d="M148.861 241.115L157.11 243.258" stroke="#263238" stroke-linecap="round" stroke-linejoin="round" />
    <path
      d="M150.833 235.558L153.178 239.243C153.178 239.243 147.717 248.572 150.648 246.129C153.578 243.686 159.054 240.715 158.567 238.272C157.74 235.708 156.647 233.238 155.308 230.9"
      fill="white" />
    <path
      d="M150.833 235.558L153.178 239.243C153.178 239.243 147.717 248.572 150.648 246.129C153.578 243.686 159.054 240.715 158.567 238.272C157.74 235.708 156.647 233.238 155.308 230.9"
      stroke="#263238" stroke-linecap="round" stroke-linejoin="round" />
    <path
      d="M105.789 72.8567C105.789 72.8567 100.757 67.4281 89.1485 70.9138C77.5404 74.3996 74.8528 92.971 75.2102 102.242C75.5675 111.514 84.5024 121.971 81.8005 126.614C79.0986 131.257 69.0201 142.085 69.7921 153.757C70.564 165.428 80.2423 174.642 94.1806 170.385C108.119 166.128 105.789 149.085 103.015 142.857C100.242 136.628 106.118 133.957 108.048 120.414C109.977 106.871 97.5973 95.6567 97.5973 85.9853C97.5973 76.3138 107.604 77.871 107.604 77.871L105.789 72.8567Z"
      fill="#263238" stroke="#263238" stroke-linecap="round" stroke-linejoin="round" />
    <path
      d="M88.3476 109.572C90.1775 113.344 92.3075 117.372 94.4233 121.715C101.485 136.115 95.9672 141.315 85.2311 149.287C74.495 157.258 76.9539 167.058 79.7129 168.572"
      stroke="white" stroke-width="0.5" stroke-linecap="round" stroke-linejoin="round" />
    <path
      d="M102.1 76.6719C102.1 76.6719 87.6897 77.9005 84.0014 87.0862C81.7712 92.6719 83.4867 98.929 86.7747 106.215"
      stroke="white" stroke-width="0.5" stroke-linecap="round" stroke-linejoin="round" />
    <path d="M91.5645 164.986C92.6731 165.403 93.8554 165.587 95.0383 165.529" stroke="white" stroke-width="0.5"
      stroke-linecap="round" stroke-linejoin="round" />
    <path
      d="M105.788 75.7148C105.788 75.7148 92.2933 78.1577 89.234 87.9577C86.1747 97.7577 104.259 112.243 105.174 122.901C106.089 133.558 93.2082 139.786 88.6336 148.058C85.417 153.858 85.7744 160.243 89.1625 163.458"
      stroke="white" stroke-width="0.5" stroke-linecap="round" stroke-linejoin="round" />
    <path
      d="M140.413 272.957C140.413 272.957 137.082 301.7 133.737 310.871C130.392 320.043 122.901 392.114 122.486 396.286C122.071 400.457 133.322 410.028 137.911 412.957C142.5 415.886 140.413 416.7 135.409 417.114C130.406 417.528 124.573 416.7 122.071 412.114C119.57 407.528 113.723 406.286 113.723 406.286L112.893 416.286H111.221L109.977 403.786C109.552 400.948 109.985 398.047 111.221 395.457C113.308 390.871 114.08 381.286 114.08 368.314C114.08 355.343 111.578 334.557 112.822 324.557C114.066 314.557 119.084 307.057 119.084 298.728C119.084 290.4 119.498 277.9 119.498 277.9L140.413 272.957Z"
      fill="white" stroke="#263238" stroke-linecap="round" stroke-linejoin="round" />
    <path
      d="M109.976 403.785C109.644 401.635 109.825 399.438 110.505 397.371C113.093 401.743 120.512 407.671 126.23 410.028C129.331 411.37 132.711 411.938 136.08 411.685C136.752 412.185 137.381 412.614 137.91 412.957C142.499 415.814 140.412 416.7 135.408 417.114C130.405 417.528 124.572 416.7 122.07 412.114C119.569 407.528 113.722 406.285 113.722 406.285L112.892 416.285H111.22L109.976 403.785Z"
      fill="#263238" stroke="#263238" stroke-linecap="round" stroke-linejoin="round" />
    <path
      d="M116.224 277.542C116.224 277.542 109.076 298.785 102.471 317.114C95.8667 335.442 79.9555 377.528 78.2829 385.028C76.6103 392.528 75.7811 406.285 71.135 413.371C66.4889 420.456 61.9571 423.785 62.7863 411.285C63.6154 398.785 71.135 389.613 72.7933 380.028C74.4516 370.442 75.2951 335.871 81.1277 320.456C86.9604 305.042 93.222 292.542 93.9939 287.956C94.564 283.393 94.841 278.798 94.8231 274.199L116.224 277.542Z"
      fill="white" stroke="#263238" stroke-linecap="round" stroke-linejoin="round" />
    <path
      d="M63.6444 405.928C63.706 408.284 64.4401 410.574 65.7602 412.528C68.1619 415.213 72.036 409.999 74.0517 406.813C73.3922 409.111 72.4308 411.311 71.1926 413.356C66.6036 420.428 62.0147 423.771 62.8438 411.271C62.9818 409.473 63.2493 407.687 63.6444 405.928Z"
      fill="#263238" stroke="#263238" stroke-linecap="round" stroke-linejoin="round" />
    <path
      d="M112.936 109.857C112.936 109.857 110.435 111.943 108.762 126.115C107.09 140.286 117.525 184.443 117.525 184.443C117.525 184.443 99.5985 213.786 95.4242 228.372C91.2498 242.957 88.748 297.6 88.748 297.6C88.748 297.6 97.5114 300.943 115.438 302.186C133.365 303.429 142.958 298.857 142.958 298.857C142.958 298.857 143.787 220.872 143.787 208.857C143.787 196.843 144.63 169.515 145.874 166.186C147.118 162.857 150.877 154.1 150.877 150.772C150.877 147.443 125.803 111.943 125.803 111.943L112.936 109.857Z"
      fill="white" stroke="#263238" stroke-linecap="round" stroke-linejoin="round" />
    <path
      d="M95.3812 228.372C98.6692 216.943 112.279 186.543 117.139 181.314C124.53 183.772 138.011 186.2 144.03 184.4C143.844 188.686 143.744 204.686 143.744 208.786C143.744 220.872 142.915 298.786 142.915 298.786C142.915 298.786 133.322 303.372 115.395 302.114C97.4684 300.857 88.7051 297.529 88.7051 297.529C88.7051 297.529 91.2068 242.957 95.3812 228.372Z"
      fill="#263238" stroke="#263238" stroke-linecap="round" stroke-linejoin="round" />
    <path
      d="M122.186 60.7429C122.186 60.7429 126.66 51 135.509 51C144.358 51 148.29 58.8571 146.331 65.7286C144.373 72.6 152.221 70.6429 153.207 75.0714C154.194 79.5 146.817 82.4286 142.886 82.4286C138.954 82.4286 122.186 60.7429 122.186 60.7429Z"
      fill="#263238" stroke="#263238" stroke-linecap="round" stroke-linejoin="round" />
    <path
      d="M135.109 59.7433C137.74 58.3148 140.828 57.2862 142.257 59.5148C145.016 63.8005 136.439 67.1719 139.198 71.7719C141.957 76.3719 148.705 75.1433 148.39 76.6719C148.076 78.2005 143.801 79.1148 143.801 79.1148"
      stroke="white" stroke-width="0.5" stroke-linecap="round" stroke-linejoin="round" />
    <path d="M130.605 62.8565C130.605 62.8565 131.449 62.1279 132.707 61.2422" stroke="white" stroke-width="0.5"
      stroke-linecap="round" stroke-linejoin="round" />
    <path
      d="M144.872 83.4133C144.246 82.9485 143.753 82.3279 143.443 81.6133C142.728 76.3419 141.184 71.1562 138.267 68.2419C133.856 64.0917 128.229 61.4632 122.213 60.7419C120.432 60.4795 118.614 60.646 116.91 61.2276C109.319 63.8847 102.8 69.1276 104.201 81.7705C105.745 95.699 116.595 99.1847 116.595 99.1847L117.367 107.756L128.203 112.785L128.589 103.499C128.589 103.499 135.937 106.585 138.596 106.199C141.255 105.813 142.084 102.328 143.242 97.299C143.668 95.0045 143.878 92.6754 143.871 90.3419L147.117 87.1133C148.961 85.2419 147.145 84.7847 144.872 83.4133Z"
      fill="white" stroke="#263238" stroke-linecap="round" stroke-linejoin="round" />
    <path
      d="M104.172 81.7705C102.742 69.1276 109.29 63.8847 116.881 61.2276C118.585 60.646 120.403 60.4795 122.185 60.7419C126.286 61.2898 130.234 62.6601 133.793 64.7704C131.62 64.3276 135.323 70.7133 131.92 74.7704C128.941 78.5368 125.142 81.5755 120.812 83.6562C120.812 83.6562 116.952 80.5562 115.78 84.8133C114.608 89.0704 115.008 92.1562 118.11 92.9419C121.213 93.7276 122.399 92.9419 122.399 92.9419C122.399 92.9419 120.341 97.8133 116.681 99.8276V99.1276C116.681 99.1276 105.787 95.7133 104.172 81.7705Z"
      fill="#263238" stroke="#263238" stroke-linecap="round" stroke-linejoin="round" />
    <path d="M133.737 110.272L131.664 121.529L109.562 109.858L111.65 99.4434L133.737 110.272Z" fill="white"
      stroke="#263238" stroke-linecap="round" stroke-linejoin="round" />
    <path
      d="M123.056 205.186C125.345 205.675 127.668 205.99 130.004 206.128C131.82 206.014 134.293 203.971 136.123 204.843C137.953 205.714 140.512 211.214 140.512 211.214C140.512 211.214 142.942 212.443 142.241 213.743C141.541 215.043 138.539 216.243 138.539 216.243C138.539 216.243 135.68 218.943 134.021 219.214C132.363 219.485 122.256 212.071 122.256 212.071L123.056 205.186Z"
      fill="white" stroke="#263238" stroke-linecap="round" stroke-linejoin="round" />
    <path
      d="M124.129 210.529C124.463 210.127 124.704 209.656 124.832 209.149C124.961 208.643 124.974 208.114 124.871 207.601C124.768 207.089 124.552 206.606 124.238 206.188C123.924 205.77 123.52 205.428 123.057 205.186L95.2799 179.186L125.53 132.186C126.879 129.701 127.207 126.788 126.443 124.066C125.68 121.343 123.884 119.025 121.439 117.603C118.993 116.182 116.089 115.768 113.343 116.45C110.597 117.132 108.225 118.857 106.731 121.258L80.5124 173.329C79.1492 174.651 78.361 176.456 78.3182 178.354C78.2754 180.251 78.9814 182.09 80.2837 183.472L80.3837 183.572C83.0141 187.629 111.949 208.843 120.412 211.615C121.069 211.823 121.774 211.831 122.436 211.637C123.098 211.444 123.687 211.058 124.129 210.529Z"
      fill="white" stroke="#263238" stroke-linecap="round" stroke-linejoin="round" />
    <path
      d="M234.036 138.572C234.036 138.572 237.624 149.672 237.624 151.829C237.598 153.387 237.479 154.942 237.267 156.486L240.426 161.386C240.611 161.701 240.669 162.076 240.586 162.432C240.504 162.788 240.288 163.099 239.983 163.301L235.108 166.158C235.108 166.158 234.393 177.586 233.679 179.015C232.964 180.443 220.812 180.101 220.812 180.101L216.867 187.615L196.424 179.743L201.799 165.043L200.684 142.858C200.684 142.858 213.236 131.772 234.036 138.572Z"
      fill="white" stroke="#263238" stroke-linecap="round" stroke-linejoin="round" />
    <path
      d="M220.042 165.572C220.042 165.572 216.482 168.915 213.809 169.143C211.136 169.372 202.444 167.358 201.772 166.472C201.1 165.586 195.096 153.115 195.31 147.101C195.525 141.086 195.768 132.186 202.215 129.301C208.663 126.415 218.927 127.286 224.274 123.958C229.62 120.629 238.083 117.943 242.544 123.729C247.004 129.515 243.659 137.529 240.099 140.872C236.539 144.215 232.079 145.158 232.522 146.586C232.965 148.015 235.639 149.701 234.08 151.929C232.522 154.158 226.933 156.215 226.933 157.043C226.933 157.872 228.276 161.058 226.718 161.501C225.16 161.943 223.587 158.386 222.029 158.386C220.471 158.386 217.154 162.686 220.042 165.572Z"
      fill="#263238" stroke="#263238" stroke-linecap="round" stroke-linejoin="round" />
    <path d="M210.735 155.357C210.093 156.075 209.545 156.872 209.105 157.729" stroke="white" stroke-width="0.5"
      stroke-linecap="round" stroke-linejoin="round" />
    <path
      d="M240.012 132.287C239.729 134.739 238.835 137.081 237.411 139.097C235.988 141.114 234.08 142.741 231.863 143.83C226.145 146.787 218.526 149.201 213.465 152.916"
      stroke="white" stroke-width="0.5" stroke-linecap="round" stroke-linejoin="round" />
    <path
      d="M232.521 146.658C232.521 146.658 227.446 150.944 222.014 155.358C218.307 158.226 214.186 160.514 209.791 162.144"
      stroke="white" stroke-width="0.5" stroke-linecap="round" stroke-linejoin="round" />
    <path
      d="M219.684 166.172L222.543 166.886C222.37 168.222 222.472 169.579 222.843 170.874C223.214 172.168 223.847 173.373 224.701 174.415"
      fill="white" />
    <path
      d="M219.684 166.172L222.543 166.886C222.37 168.222 222.472 169.579 222.843 170.874C223.214 172.168 223.847 173.373 224.701 174.415"
      stroke="#263238" stroke-linecap="round" stroke-linejoin="round" />
    <path d="M223 158.5L243.186 153.5" stroke="#263238" stroke-linecap="round" stroke-linejoin="round" />
    <path d="M237.996 153.1L242.599 153.3C242.599 153.3 244.186 158.5 239.397 159.1" stroke="#263238"
      stroke-linecap="round" stroke-linejoin="round" />
    <path
      d="M217.64 400.086C217.64 400.086 236.225 411.815 239.498 411.815C242.772 411.815 244.402 414.758 242.772 415.086C241.142 415.415 231.021 415.729 224.188 416.058C217.354 416.386 212.751 415.729 208.848 415.729C204.945 415.729 200.356 416.058 198.398 415.086C196.439 414.115 199.713 403.015 199.713 401.058C199.713 399.101 215.353 398.772 217.64 400.086Z"
      fill="#263238" stroke="#263238" stroke-linecap="round" stroke-linejoin="round" />
    <path
      d="M241.599 412.3C234.379 414.671 222.671 413.114 215.638 412.471C210.077 411.971 201.342 411.857 197.782 411.828C197.639 413.5 197.782 414.771 198.34 415.085C200.298 416.057 204.873 415.728 208.79 415.728C212.707 415.728 217.267 416.385 224.129 416.057C230.991 415.728 241.098 415.4 242.714 415.085C243.986 414.828 243.386 413.142 241.599 412.3Z"
      fill="white" stroke="#263238" stroke-linecap="round" stroke-linejoin="round" />
    <path
      d="M232.322 319.516L217.654 393.016L220.714 400.644C218.518 403.821 215.205 406.055 211.436 406.901C207.243 407.725 202.985 408.165 198.712 408.216C198.712 408.216 197.083 400.058 198.069 399.073C199.055 398.087 199.37 394.187 199.37 394.187L207.847 320.158L232.322 319.516Z"
      fill="#29538E" stroke="#263238" stroke-linecap="round" stroke-linejoin="round" />
    <path
      d="M277.023 397.601C277.023 397.601 288.46 407.058 293.678 408.687C298.896 410.316 304.443 411.944 304.443 413.573C304.443 415.201 292.048 416.83 282.584 415.858C273.121 414.887 258.753 410.644 255.494 410.644C252.234 410.644 252.878 402.158 252.878 400.858C252.878 399.558 268.875 389.116 277.023 397.601Z"
      fill="#263238" stroke="#263238" stroke-linecap="round" stroke-linejoin="round" />
    <path
      d="M304.5 413.573C304.5 412.987 303.771 412.401 302.613 411.815C293.272 413.064 283.802 412.997 274.479 411.615C265.087 410.273 257.224 408.473 253.207 407.473C253.55 409.23 254.222 410.644 255.552 410.644C258.811 410.644 273.178 414.93 282.642 415.858C292.106 416.787 304.5 415.201 304.5 413.573Z"
      fill="white" stroke="#263238" stroke-linecap="round" stroke-linejoin="round" />
    <path
      d="M220.256 286.573C230.041 285.824 239.877 286.044 249.619 287.23C266.259 289.187 303.443 291.516 304.086 295.716C304.729 299.916 275.237 388.187 275.237 390.458C275.237 392.73 277.839 395.03 278.496 396.33C278.911 397.257 279.135 398.258 279.154 399.273C279.154 399.273 271.163 407.844 264.958 410.173C258.754 412.501 253.522 410.316 252.235 410.316C250.949 410.316 250.934 401.516 251.921 397.273C252.907 393.03 254.522 382.273 254.851 381.301C255.18 380.33 273.05 317.558 273.05 317.558C273.05 317.558 224.444 325.387 195.409 322.116C166.375 318.844 163.43 314.301 161.8 307.444C160.17 300.587 163.43 286.901 163.43 286.901L220.256 286.573Z"
      fill="#29538E" stroke="#263238" stroke-linecap="round" stroke-linejoin="round" />
    <path d="M216.58 307.701C215.921 308.655 215.185 309.553 214.379 310.387" stroke="#263238" stroke-linecap="round"
      stroke-linejoin="round" />
    <path d="M225.474 290.158C223.598 294.853 221.435 299.428 218.998 303.858" stroke="#263238" stroke-linecap="round"
      stroke-linejoin="round" />
    <path d="M221.584 293.43C217.647 299.921 211.685 304.94 204.615 307.715" stroke="#263238" stroke-linecap="round"
      stroke-linejoin="round" />
    <path d="M295.666 311.428C296.781 311 297.853 310.557 298.868 310.1L295.666 311.428Z" fill="white" />
    <path d="M295.666 311.428C296.781 311 297.853 310.557 298.868 310.1" stroke="#263238" stroke-linecap="round"
      stroke-linejoin="round" />
    <path d="M273.049 317.557C279.328 316.346 285.533 314.776 291.633 312.857L273.049 317.557Z" fill="white" />
    <path d="M273.049 317.557C279.328 316.346 285.533 314.776 291.633 312.857" stroke="#263238" stroke-linecap="round"
      stroke-linejoin="round" />
    <path
      d="M310.776 209.257C311.462 206.529 312.605 206.743 311.69 205.843C310.432 204.586 309.417 206.072 305.772 208.114C302.127 210.157 298.495 212.657 298.495 212.657C298.575 211.899 298.89 211.185 299.396 210.614C300.318 209.108 300.812 207.38 300.826 205.614C300.826 204.186 299.682 204.472 299.225 205.843C298.767 207.214 294.679 209.7 294.45 210.843C294.221 211.986 293.406 216.472 293.406 216.472C292.105 218.429 292.105 227.557 292.105 227.557L265.615 247.443L252.234 263.157C252.234 263.157 258.11 272.614 261.369 271.314C264.629 270.014 266.259 268.7 274.093 262.172C280.726 256.643 297.352 231.143 297.352 231.143C300.248 229.326 302.988 227.271 305.543 225C308.491 221.667 310.233 217.441 310.49 213C310.428 211.746 310.524 210.488 310.776 209.257Z"
      fill="white" stroke="#263238" stroke-linecap="round" stroke-linejoin="round" />
    <path
      d="M188.205 179.087C188.205 179.087 190.721 169.659 201.414 171.544C212.108 173.43 220.285 182.23 222.172 185.373C224.059 188.516 187.576 184.116 187.576 184.116L188.205 179.087Z"
      fill="white" stroke="#263238" stroke-linecap="round" stroke-linejoin="round" />
    <path
      d="M249.848 261.429C249.848 261.429 247.36 264.115 249.848 268.343C251.549 271.272 254.551 273.515 260.298 272.529C265.673 271.586 273.75 258.243 273.75 248.857C273.75 239.472 266.831 238.857 264.315 240.686C261.799 242.515 249.848 261.429 249.848 261.429Z"
      fill="white" stroke="#263238" stroke-linecap="round" stroke-linejoin="round" />
    <path
      d="M192.836 177.986C192.836 177.986 167.39 190.058 163.801 192.272C160.213 194.486 157.926 222.915 157.926 227.815C157.926 232.715 161.514 280.672 162.486 288.786C163.458 296.9 194.795 302.486 205.245 299.543C215.695 296.6 225.874 289.186 225.874 286.572C225.874 283.958 224.887 261.8 225.545 257.558C226.202 253.315 232.064 235.386 232.064 235.386L249.876 263.786C249.876 263.786 251.749 267.272 258.368 264.529C267.832 260.615 268.618 245.486 268.618 245.486C268.618 245.486 258.182 227.229 255.237 218.1C252.292 208.972 250.948 202.115 249.69 200.486C248.432 198.858 219.012 185.158 213.794 181.572C210.839 179.348 207.396 177.863 203.75 177.239C200.104 176.615 196.362 176.871 192.836 177.986Z"
      fill="white" stroke="#263238" stroke-linecap="round" stroke-linejoin="round" />
    <path d="M231.993 235.386L223.516 222.986" stroke="#263238" stroke-linecap="round" stroke-linejoin="round" />
    <path d="M230.621 233.615L215.682 226.258" stroke="#263238" stroke-linecap="round" stroke-linejoin="round" />
    <path
      d="M186.346 327.144L199.383 419.744C199.413 419.958 199.488 420.164 199.602 420.349C199.716 420.533 199.868 420.691 200.047 420.813C200.226 420.936 200.428 421.02 200.641 421.059C200.855 421.099 201.074 421.094 201.285 421.044C201.651 420.953 201.973 420.735 202.193 420.429C202.413 420.123 202.517 419.748 202.486 419.372L193.293 325.615L186.346 327.144Z"
      fill="#263238" stroke="#263238" stroke-linecap="round" stroke-linejoin="round" />
    <path
      d="M148.891 327.873L127.104 418.816C127.054 419.027 127.049 419.246 127.089 419.459C127.129 419.672 127.212 419.874 127.335 420.053C127.457 420.232 127.616 420.383 127.8 420.497C127.984 420.611 128.19 420.686 128.405 420.716C128.778 420.771 129.158 420.689 129.474 420.483C129.79 420.278 130.02 419.965 130.121 419.602L155.424 331.344L148.891 327.873Z"
      fill="#263238" stroke="#263238" stroke-linecap="round" stroke-linejoin="round" />
    <path
      d="M188.462 326.744L174.596 419.216C174.564 419.429 174.576 419.646 174.631 419.854C174.687 420.063 174.785 420.257 174.919 420.426C175.053 420.595 175.22 420.734 175.411 420.836C175.601 420.937 175.81 420.998 176.025 421.016C176.401 421.036 176.772 420.92 177.068 420.689C177.365 420.458 177.569 420.128 177.641 419.758L195.239 329.644L188.462 326.744Z"
      fill="#263238" stroke="#263238" stroke-linecap="round" stroke-linejoin="round" />
    <path
      d="M237.553 327.143L250.59 419.743C250.62 419.958 250.695 420.164 250.809 420.348C250.923 420.532 251.075 420.69 251.254 420.813C251.433 420.935 251.635 421.019 251.848 421.058C252.062 421.098 252.281 421.093 252.492 421.043C252.858 420.953 253.18 420.735 253.4 420.428C253.62 420.122 253.724 419.747 253.693 419.372L244.458 325.586L237.553 327.143Z"
      fill="#263238" stroke="#263238" stroke-linecap="round" stroke-linejoin="round" />
    <path
      d="M128.262 231.043L144.13 334.143H256.981C256.981 334.143 258.653 304.429 253.678 293.929C248.704 283.429 187.275 305.943 185.059 305.357C183.415 304.943 185.845 251.715 188.861 230.915C189.073 229.45 188.966 227.958 188.549 226.539C188.132 225.119 187.415 223.806 186.445 222.688C185.476 221.57 184.277 220.674 182.93 220.06C181.584 219.446 180.12 219.128 178.64 219.129H138.469C136.977 219.127 135.503 219.449 134.147 220.072C132.792 220.694 131.588 221.603 130.618 222.735C129.647 223.868 128.934 225.197 128.528 226.631C128.121 228.065 128.03 229.571 128.262 231.043Z"
      fill="#29538E" stroke="#263238" stroke-linecap="round" stroke-linejoin="round" />
    <path
      d="M253.679 293.928C248.704 283.428 187.275 305.943 185.059 305.357C183.415 304.943 185.845 251.714 188.862 230.914C189.125 229.469 189.067 227.983 188.691 226.562C188.314 225.142 187.63 223.822 186.685 222.696C185.74 221.57 184.558 220.666 183.224 220.048C181.89 219.43 180.436 219.114 178.966 219.121C177.496 219.129 176.045 219.46 174.717 220.091C173.389 220.723 172.217 221.639 171.284 222.774C170.351 223.909 169.679 225.237 169.317 226.661C168.956 228.085 168.912 229.571 169.191 231.014L185.059 334.114H256.981C256.981 334.114 258.654 304.428 253.679 293.928Z"
      fill="#263238" stroke="#263238" stroke-linecap="round" stroke-linejoin="round" />
    <path d="M310.777 209.258C310.777 209.258 308.961 211.072 306.23 214.258L310.777 209.258Z" fill="white" />
    <path d="M310.777 209.258C310.777 209.258 308.961 211.072 306.23 214.258" stroke="#263238" stroke-linecap="round"
      stroke-linejoin="round" />
    <path d="M310.49 212.943C310.49 212.943 308.274 217.443 306.916 219.486L310.49 212.943Z" fill="white" />
    <path d="M310.49 212.943C310.49 212.943 308.274 217.443 306.916 219.486" stroke="#263238" stroke-linecap="round"
      stroke-linejoin="round" />
    <path
      d="M4.80301 265.059C7.17611 266.087 12.9659 265.959 12.9802 265.959C12.9945 265.959 11.7365 262.173 11.6221 261.944C10.3498 259.273 6.31836 254.887 3.04463 255.33C2.50269 255.418 1.98549 255.62 1.52682 255.921C1.06815 256.223 0.67833 256.618 0.382843 257.08C0.0873567 257.543 -0.107149 258.062 -0.187964 258.605C-0.26878 259.148 -0.234087 259.702 -0.0861494 260.23C0.45709 262.487 2.77301 264.173 4.80301 265.059Z"
      fill="#263238" />
    <path
      d="M80.7858 245.329C77.4978 244.972 73.6379 249.472 72.3942 252.172C72.2941 252.401 71.0932 256.229 71.1504 256.229C70.5214 256.929 69.8638 257.658 69.1633 258.544C67.8767 260.115 66.4471 261.915 65.0033 263.972C63.4481 266.177 62.0163 268.466 60.7145 270.829C59.2472 273.479 58.0131 276.252 57.0262 279.115C57.0324 279.148 57.0324 279.182 57.0262 279.215C57.0262 278.258 57.0262 275.544 57.0262 275.344C56.6402 272.415 54.167 266.987 50.9362 266.387C50.398 266.3 49.8475 266.327 49.3203 266.465C48.793 266.604 48.3008 266.852 47.8751 267.192C47.4495 267.533 47.1001 267.959 46.8492 268.442C46.5984 268.926 46.4517 269.457 46.4187 270.001C46.2186 272.329 47.8483 274.658 49.5495 276.115C51.408 277.772 56.5544 279.372 56.969 279.501C56.0342 282.47 55.3082 285.502 54.7961 288.572C54.4673 290.344 54.2099 292.129 53.9669 293.929C53.9669 293.087 53.9669 292.344 53.9669 292.244C53.5952 289.315 51.1078 283.887 47.8912 283.287C47.3487 283.202 46.7945 283.232 46.2644 283.375C45.7344 283.518 45.2403 283.771 44.8144 284.117C44.3884 284.463 44.04 284.895 43.7918 285.384C43.5437 285.874 43.4012 286.41 43.3737 286.958C43.1879 289.287 44.8033 291.615 46.5188 293.087C48.2343 294.558 52.5373 296.029 53.6667 296.387C53.5809 297.087 53.4809 297.815 53.3951 298.458C53.0091 301.772 52.6231 305.087 52.1514 308.315C51.9798 309.458 51.7797 310.572 51.5795 311.687C51.5795 310.944 51.5795 310.329 51.5795 310.258C51.1935 307.329 48.7204 301.901 45.4895 301.301C44.947 301.218 44.3931 301.25 43.8638 301.395C43.3345 301.54 42.8416 301.795 42.4171 302.142C41.9925 302.49 41.6457 302.922 41.3993 303.412C41.1528 303.902 41.0121 304.439 40.9863 304.987C40.8005 307.301 42.4159 309.629 44.1314 311.101C46.2659 312.511 48.6043 313.585 51.0649 314.287C50.8218 315.429 50.5788 316.558 50.2929 317.658C50.0785 318.401 49.9355 319.087 49.6782 319.858C49.4209 320.629 49.2064 321.287 48.9777 322.029C48.4773 323.387 47.977 324.801 47.4623 326.115C47.1049 327.044 46.7475 327.915 46.4044 328.787C46.576 327.658 46.8762 325.429 46.8905 325.244C46.8502 322.648 46.1465 320.105 44.8462 317.858C44.8816 317.573 44.8816 317.285 44.8462 317.001C44.7814 316.451 44.6002 315.921 44.3145 315.447C44.0289 314.972 43.6455 314.564 43.1898 314.249C42.734 313.934 42.2164 313.72 41.6713 313.62C41.1262 313.521 40.5662 313.539 40.0285 313.672C36.8263 314.515 34.8106 320.115 34.6533 323.058C34.6533 323.229 34.7677 325.129 34.8535 326.329C34.6962 325.629 34.539 324.901 34.3674 324.244C34.0386 322.815 33.6526 321.387 33.2666 319.958C33.0379 319.229 32.8235 318.529 32.5947 317.772C32.366 317.015 32.0801 316.344 31.8228 315.544C31.1937 313.815 30.479 312.101 29.707 310.387C30.9364 310.087 35.3109 308.958 37.0693 307.629C38.8277 306.301 40.6718 304.087 40.6575 301.758C40.6745 301.203 40.5729 300.651 40.3594 300.139C40.1459 299.627 39.8255 299.166 39.4195 298.788C39.0136 298.409 38.5315 298.121 38.0054 297.944C37.4793 297.766 36.9213 297.703 36.3688 297.758C33.0808 298.115 30.2216 303.344 29.6355 306.229C29.6355 306.415 29.3925 308.529 29.3067 309.701C28.8492 308.672 28.3775 307.644 27.8771 306.615C26.4475 303.672 24.8178 300.715 23.2596 297.772L21.83 295.058C22.2732 294.958 27.5483 293.758 29.464 292.201C31.3796 290.644 33.0665 288.672 33.0522 286.329C33.0669 285.775 32.9636 285.225 32.7494 284.713C32.5351 284.202 32.2146 283.742 31.8092 283.364C31.4038 282.986 30.9226 282.698 30.3975 282.52C29.8725 282.342 29.3155 282.277 28.7635 282.329C25.4754 282.687 22.6306 287.915 22.0301 290.801C22.0301 291.029 21.7013 294.072 21.6728 294.858C20.6435 292.872 19.6285 290.872 18.7135 288.872C17.4575 286.169 16.3783 283.387 15.4827 280.544C15.6828 280.544 21.201 279.258 23.1738 277.687C24.9179 276.344 26.7763 274.144 26.7478 271.815C26.7647 271.26 26.6631 270.709 26.4496 270.196C26.2361 269.684 25.9157 269.223 25.5097 268.845C25.1038 268.466 24.6217 268.178 24.0956 268.001C23.5695 267.823 23.0116 267.76 22.459 267.815C19.171 268.172 16.3261 273.401 15.7257 276.287C15.7257 276.515 15.3826 279.801 15.3683 280.401C15.3683 280.229 15.254 280.072 15.1968 279.901C14.3843 277.026 13.8246 274.087 13.5242 271.115C13.3526 269.472 13.2668 267.901 13.2097 266.358C14.2533 266.229 18.928 265.601 20.9723 264.415C23.0166 263.229 24.9465 261.287 25.261 258.972C25.3354 258.429 25.2946 257.876 25.1413 257.349C24.988 256.822 24.7255 256.333 24.371 255.914C24.0165 255.495 23.5778 255.156 23.0834 254.917C22.589 254.678 22.05 254.546 21.5012 254.529C18.1846 254.529 14.7822 259.415 13.8673 262.215C13.8673 262.372 13.4956 263.972 13.2668 265.144C13.2668 264.458 13.2668 263.715 13.2668 263.072C13.2668 260.572 13.4241 258.287 13.5813 256.272C13.6814 255.115 13.7958 254.072 13.9101 253.101C14.868 252.444 18.6849 249.758 19.8572 247.829C21.0294 245.901 21.9444 243.229 21.0866 241.058C20.9025 240.542 20.6117 240.071 20.2333 239.675C19.8548 239.279 19.3972 238.967 18.8901 238.76C18.3831 238.552 17.838 238.454 17.2903 238.471C16.7426 238.488 16.2047 238.62 15.7114 238.858C12.7665 240.372 11.9945 246.272 12.4806 249.187C12.4806 249.429 13.6385 253.287 13.6814 253.258C13.5528 254.187 13.4241 255.187 13.3097 256.287C13.1096 258.315 12.9094 260.572 12.838 263.115C12.7518 265.812 12.8186 268.512 13.0381 271.201C13.2487 274.218 13.7271 277.211 14.4677 280.144C14.4739 280.177 14.4739 280.211 14.4677 280.244C13.953 279.429 12.4234 277.201 12.2804 277.044C10.3505 274.815 5.30409 271.629 2.27339 272.929C1.77369 273.156 1.32738 273.485 0.963591 273.895C0.599802 274.306 0.32671 274.788 0.162131 275.311C-0.00244723 275.834 -0.0548129 276.386 0.00845424 276.931C0.0717214 277.476 0.249199 278.001 0.529304 278.472C1.65867 280.515 4.34628 281.529 6.53353 281.844C8.9924 282.201 14.1675 280.701 14.5821 280.587C15.4324 283.548 16.4783 286.449 17.7128 289.272C18.4276 290.915 19.1424 292.558 19.9859 294.187C19.5141 293.487 19.0852 292.872 19.028 292.758C17.0981 290.529 12.0517 287.344 9.021 288.644C8.52973 288.894 8.09707 289.245 7.75153 289.674C7.40599 290.104 7.15541 290.601 7.01629 291.135C6.87717 291.668 6.85267 292.224 6.94441 292.768C7.03615 293.311 7.24204 293.829 7.54853 294.287C8.6636 296.329 11.3655 297.344 13.5385 297.658C15.7114 297.972 20.186 296.801 21.3582 296.458C21.6728 297.087 21.973 297.715 22.2875 298.329C23.7171 301.315 25.3039 304.287 26.6906 307.244C27.1766 308.287 27.6198 309.329 28.1201 310.372L27.2767 309.172C25.3468 306.944 20.3004 303.772 17.2697 305.058C16.7707 305.287 16.3256 305.619 15.9632 306.031C15.6008 306.444 15.3293 306.927 15.1662 307.452C15.003 307.976 14.952 308.528 15.0164 309.073C15.0808 309.618 15.2591 310.143 15.5399 310.615C16.6692 312.658 19.3568 313.672 21.5298 313.987C24.1132 313.997 26.6829 313.612 29.1494 312.844C29.5783 313.929 30.0072 315.015 30.3646 316.072C30.6076 316.815 30.8792 317.501 31.0651 318.258C31.2509 319.015 31.4797 319.687 31.6798 320.458C32.0229 321.887 32.3803 323.315 32.6805 324.744C32.8949 325.701 33.0808 326.629 33.2666 327.601C32.7806 326.558 31.8371 324.529 31.7084 324.372C30.1359 321.872 25.6327 317.972 22.4304 318.787C21.9035 318.939 21.4144 319.2 20.9947 319.552C20.5751 319.905 20.2343 320.342 19.9944 320.835C19.7545 321.328 19.6209 321.866 19.6022 322.414C19.5835 322.961 19.6801 323.507 19.8858 324.015C20.6863 326.201 23.1881 327.615 25.2896 328.301C27.6198 329.001 32.752 328.301 33.3953 328.301C33.7098 329.829 33.9814 331.329 34.2387 332.744C35.0965 337.644 35.6683 341.772 35.9685 344.644C35.9685 345.158 36.0829 345.615 36.1258 346.072H26.1187L29.7499 416.887H46.7047L50.3358 346.072H41.0578L41.2723 345.658C42.5446 343.001 44.303 339.201 46.2043 334.544C46.819 333.115 47.4337 331.501 48.0485 329.872C48.6775 330.001 53.7668 331.029 56.1256 330.487C58.2842 330.001 60.8861 328.787 61.8439 326.672C62.0883 326.181 62.2262 325.643 62.2485 325.095C62.2708 324.546 62.177 323.999 61.9732 323.49C61.7695 322.98 61.4604 322.519 61.0661 322.137C60.6718 321.755 60.2013 321.46 59.6852 321.272C56.5544 320.215 51.7797 323.772 50.0213 326.144C49.9212 326.287 48.9634 327.929 48.3773 329.001L49.1349 327.001C49.6353 325.644 50.0928 324.258 50.5645 322.787L51.2078 320.601C51.4509 319.872 51.6081 319.087 51.8082 318.315C52.2228 316.529 52.5659 314.701 52.8804 312.844C54.067 313.272 58.3414 314.758 60.543 314.601C62.7445 314.444 65.5036 313.644 66.7759 311.744C67.0984 311.293 67.3214 310.778 67.4301 310.235C67.5388 309.691 67.5307 309.131 67.4063 308.591C67.282 308.05 67.0443 307.543 66.7088 307.101C66.3734 306.66 65.948 306.294 65.4607 306.029C62.6016 304.601 57.2549 307.315 55.1678 309.387C55.0391 309.529 53.7382 311.187 52.9948 312.115C53.1663 311.001 53.3379 309.887 53.4809 308.744C53.8954 305.472 54.1956 302.144 54.5244 298.829C54.6245 297.815 54.7389 296.801 54.839 295.787C55.2678 295.944 60.2999 297.815 62.7731 297.644C64.9604 297.487 67.7195 296.687 68.9918 294.787C69.3143 294.336 69.5373 293.821 69.646 293.278C69.7546 292.734 69.7465 292.174 69.6222 291.633C69.4979 291.093 69.2601 290.585 68.9247 290.144C68.5893 289.702 68.1638 289.337 67.6766 289.072C64.8174 287.572 59.4851 290.358 57.3836 292.429C57.2263 292.587 55.3107 294.987 54.8533 295.615C55.0963 293.387 55.3536 291.172 55.6967 288.987C56.1369 286.043 56.7721 283.132 57.598 280.272C57.7982 280.272 63.0304 282.315 65.5751 282.144C67.7623 281.987 70.5214 281.172 71.7937 279.287C72.1185 278.836 72.3434 278.322 72.4534 277.778C72.5633 277.234 72.5558 276.673 72.4313 276.132C72.3068 275.591 72.0682 275.083 71.7315 274.641C71.3947 274.2 70.9675 273.835 70.4785 273.572C67.6194 272.058 62.2871 274.844 60.1856 276.929C60.0283 277.087 57.9697 279.672 57.6266 280.158L57.7553 279.658C58.663 276.809 59.8206 274.046 61.2149 271.401C61.9725 269.972 62.7731 268.544 63.5737 267.258C64.5172 267.729 68.8345 269.829 71.1218 269.915C73.4092 270.001 76.154 269.501 77.6407 267.701C77.994 267.29 78.258 266.811 78.4158 266.293C78.5735 265.775 78.6217 265.23 78.5571 264.693C78.4926 264.155 78.3168 263.637 78.0408 263.171C77.7649 262.705 77.395 262.302 76.9545 261.987C74.1954 260.158 68.663 262.344 66.3613 264.187C66.2327 264.287 65.0604 265.444 64.2313 266.301C64.603 265.715 64.9747 265.101 65.3464 264.558C66.7759 262.472 68.1197 260.658 69.3778 259.044C70.0925 258.144 70.8073 257.344 71.3935 256.601C72.5514 256.601 77.2261 256.429 79.2704 255.472C81.3147 254.515 83.5592 252.787 84.0309 250.515C84.2286 249.961 84.2983 249.369 84.2347 248.784C84.1711 248.199 83.9759 247.637 83.6638 247.138C83.3516 246.639 82.9306 246.217 82.4322 245.904C81.9338 245.591 81.3709 245.394 80.7858 245.329ZM44.403 333.544C42.4159 338.115 40.5861 341.844 39.2852 344.429L38.5561 345.858H38.3416C38.3416 345.358 38.1987 344.801 38.1129 344.187C37.7126 341.329 37.0836 337.129 36.0972 332.201C35.797 330.644 35.4396 328.987 35.0536 327.287C36.5987 326.663 38.107 325.953 39.5711 325.158C41.5599 326.883 43.7776 328.325 46.1614 329.444C45.5753 330.829 44.9749 332.229 44.403 333.544Z"
      fill="#263238" />
    <path
      d="M63.4718 266.329C63.4718 266.329 64.5297 262.486 64.5583 262.229C64.9728 259.3 64.0436 253.429 61.0558 251.986C60.5593 251.764 60.0221 251.648 59.4782 251.645C58.9343 251.642 58.3958 251.752 57.8968 251.968C57.3979 252.184 56.9495 252.502 56.5803 252.901C56.211 253.3 55.9289 253.772 55.7521 254.286C54.9515 256.472 55.9665 259.157 57.1816 261.014C58.6112 263.243 63.4718 266.329 63.4718 266.329Z"
      fill="#263238" />
    <path d="M601.752 416.543H20.2715V423.657H601.752V416.543Z" fill="#263238" />
  </g>
  <defs>
    <clipPath id="clip0">
      <rect width="609" height="420" fill="white" />
    </clipPath>
  </defs>
</svg>