<svg width="49" height="40" viewBox="0 0 49 40" fill="none" xmlns="http://www.w3.org/2000/svg">
  <path
    d="M44.495 14.2748H33.6985C34.8093 12.3055 35.5491 10.4314 35.9049 8.68025C36.3583 6.44937 36.1663 4.45118 35.3496 2.90139C34.3962 1.09195 32.6187 0.00733685 30.5947 0C30.5878 0 30.5809 0 30.5741 0C29.1919 0 28.1595 0.504813 27.5058 1.50034C26.9969 2.27537 26.793 3.21973 26.557 4.31321C25.9905 6.93656 25.2186 10.5096 19.7603 14.2748C18.8631 14.2749 16.7943 14.275 15.4753 14.2749C14.8854 12.6115 13.2967 11.4164 11.4336 11.4164H1.42916C0.639925 11.4165 0 12.0564 0 12.8457V38.5708C0 39.3602 0.639925 40 1.42916 40H11.4334C13.2966 40 14.8851 38.805 15.4751 37.1417H17.146C21.9453 38.4758 26.9192 40 32.0962 40H38.7783C41.1424 40 43.0658 38.0766 43.0658 35.7125C43.0658 35.1545 42.9575 34.6217 42.7627 34.1322C45.207 33.466 46.573 30.8071 45.621 28.4155C48.693 27.5782 49.8126 23.792 47.6872 21.4207C50.1552 18.6672 48.1911 14.2748 44.495 14.2748ZM12.8625 15.7154H12.8624C12.8624 15.716 12.8625 15.7166 12.8625 15.7171V35.7125C12.8625 36.5005 12.2214 37.1416 11.4334 37.1416H2.85832V14.2748H11.4334C12.2215 14.2748 12.8625 14.916 12.8625 15.704V15.7154ZM37.3491 22.85H44.495C45.2831 22.85 45.9242 23.4911 45.9242 24.2791C45.9242 25.0672 45.283 25.7082 44.495 25.7082C43.8462 25.7082 38.0126 25.7082 37.3491 25.7082C36.5598 25.7082 35.92 26.3481 35.92 27.1374C35.92 27.9267 36.5599 28.5665 37.3491 28.5665H41.6366C42.4247 28.5665 43.0658 29.2077 43.0658 29.9957C43.0658 30.7838 42.4246 31.4249 41.6366 31.4249H37.3491C36.5598 31.4249 35.92 32.0648 35.92 32.854C35.92 33.6432 36.5599 34.2832 37.3491 34.2832H38.7783C39.5664 34.2832 40.2074 34.9243 40.2074 35.7123C40.2074 36.5003 39.5663 37.1415 38.7783 37.1415H32.0962C27.2719 37.1415 22.4122 35.6352 17.7225 34.3351C17.4798 34.2679 17.5062 34.3022 15.721 34.3022V17.1143C17.9094 17.1144 20.2067 17.1332 20.2067 17.1332C20.4864 17.1318 20.7592 17.0484 20.9918 16.8932C27.7356 12.3974 28.7467 7.71445 29.3508 4.91654C29.7958 2.85575 29.8707 2.85632 30.5842 2.85842C31.5608 2.86194 32.3552 3.35056 32.8209 4.23403C33.2691 5.08482 34.3865 8.3682 29.9439 14.9004C29.2998 15.8473 29.9798 17.1333 31.1257 17.1333H44.495C45.2831 17.1333 45.9242 17.7745 45.9242 18.5625C45.9242 19.3506 45.283 19.9917 44.495 19.9917H37.3491C36.5598 19.9917 35.92 20.6316 35.92 21.4208C35.92 22.2102 36.5598 22.85 37.3491 22.85Z"
    fill="#172E4F" />
</svg>