<svg width="87" height="87" viewBox="0 0 87 87" fill="none" xmlns="http://www.w3.org/2000/svg">
<path d="M3.75644 69.0091C5.85033 72.6356 9.86048 74.5043 13.8089 74.0338C25.6786 86.6578 39.6757 86.6259 40.9511 87.0003V71.5216C39.753 71.218 35.7388 70.9998 30.8033 68.1138L36.6269 64.7518L23.879 42.6717L18.0049 46.0632C18.0049 46.0632 18.0049 46.0632 18.0049 46.063C18.0049 40.4034 19.818 36.8073 20.18 35.5429L6.86897 27.8574C6.32676 29.5301 2.70737 35.9552 2.70737 46.063C2.70737 50.0657 3.28527 54.0072 4.42375 57.8016C2.0596 60.9702 1.65762 65.3737 3.75644 69.0091ZM8.17232 66.4595C6.76648 64.0245 7.60376 60.8997 10.0388 59.4939C12.4806 58.0841 15.5959 58.9207 17.0043 61.3603C18.4133 63.801 17.5789 66.9165 15.138 68.326C12.7031 69.7316 9.5785 68.8943 8.17232 66.4595ZM35.8518 75.6856V81.0508C29.5341 79.6541 23.6701 76.4964 18.895 71.9255C20.2424 70.8699 21.2921 69.502 21.9632 67.9274L24.4426 69.9123C27.8488 72.6393 31.7575 74.6126 35.8518 75.6856ZM22.0123 49.6372L29.6611 62.8851L22.2523 67.1622C23.2128 64.2961 22.8615 61.3064 21.4203 58.8107C19.9881 56.3298 17.5837 54.5198 14.6036 53.9145L22.0123 49.6372ZM9.47244 35.2487L14.0185 37.8734C13.2793 40.53 12.9055 43.276 12.9055 46.0628C12.9055 48.5738 13.3391 50.7127 13.7865 53.7813C12.0895 53.5771 10.3825 53.8032 8.79663 54.4421C8.13985 51.712 7.80637 48.9058 7.80637 46.0628C7.80637 42.3545 8.36575 38.729 9.47244 35.2487Z" fill="#29538E"/>
<path d="M80.131 27.8574L66.82 35.5427C67.172 36.7721 68.9951 40.4039 68.9951 46.0628V46.063L63.121 42.6715L50.3731 64.7516L56.1967 68.1137C51.2639 70.9979 47.2917 71.2065 46.0488 71.5214V87.0001C47.3253 86.6254 61.3227 86.6561 73.191 74.0336C77.1473 74.5051 81.1539 72.628 83.2434 69.0089C85.3422 65.3735 84.9402 60.9702 82.5762 57.8013C83.7147 54.0068 84.2926 50.0655 84.2926 46.0626C84.2928 35.943 80.6557 29.4759 80.131 27.8574ZM77.5275 35.2485C78.6342 38.7289 79.1936 42.354 79.1936 46.0628C79.1936 48.9059 78.8601 51.7122 78.2033 54.4421C76.6175 53.8032 74.9106 53.577 73.2135 53.7813C73.661 50.7107 74.0944 48.5716 74.0944 46.0628C74.0944 43.276 73.7207 40.53 72.9815 37.8734L77.5275 35.2485ZM64.9877 49.6372L72.3964 53.9147C69.4134 54.5205 67.0105 56.3324 65.5797 58.8107C64.1386 61.3064 63.7871 64.2961 64.7477 67.1622L57.3389 62.8852L64.9877 49.6372ZM51.1482 75.6856C55.2425 74.6126 59.1511 72.6394 62.5576 69.9123L65.0369 67.9274C65.708 69.5022 66.7576 70.8699 68.1051 71.9255C63.3299 76.4962 57.4659 79.6541 51.1483 81.0508V75.6856H51.1482ZM78.8275 66.4595C77.4216 68.8945 74.2969 69.7318 71.8618 68.326C69.4212 66.9167 68.5861 63.8015 69.9956 61.3603C71.4039 58.9212 74.5173 58.0831 76.961 59.494C79.396 60.8997 80.2333 64.0245 78.8275 66.4595Z" fill="#29538E"/>
<path d="M52.8954 6.35917C51.3592 2.68981 47.7616 0 43.5016 0C39.2565 0 35.6475 2.68097 34.1077 6.35917C17.4414 10.2893 10.5254 22.3894 9.42383 23.4438L22.7396 31.1316C23.6172 30.2287 25.8398 26.8572 30.7537 24.0254V30.765H56.2495V24.0251C61.1588 26.8541 63.3773 30.2197 64.2634 31.1316L77.5793 23.4438C76.6081 22.5142 69.4485 10.2626 52.8954 6.35917ZM43.5016 5.09917C46.2657 5.09917 48.6008 7.5121 48.6008 10.3683C48.6008 13.18 46.3133 15.4675 43.5016 15.4675C40.6899 15.4675 38.4024 13.18 38.4024 10.3683C38.4024 7.5121 40.7375 5.09917 43.5016 5.09917ZM21.6853 24.6349L17.1312 22.0056C21.5386 17.1745 27.1689 13.6529 33.4078 11.8166C33.6532 13.5344 34.3266 15.1158 35.3186 16.4475C33.7574 17.2036 27.5354 18.7077 21.6853 24.6349ZM35.8528 25.6658V17.1031C37.723 19.2246 40.4577 20.5667 43.5016 20.5667C46.5454 20.5667 49.2801 19.2246 51.1503 17.1031V25.6658H35.8528ZM65.3179 24.6349C59.4662 18.706 53.3207 17.2398 51.6846 16.4477C52.6765 15.116 53.35 13.5346 53.5952 11.817C59.8341 13.653 65.4644 17.1749 69.8718 22.006L65.3179 24.6349Z" fill="#29538E"/>
</svg>
