<svg width="87" height="87" viewBox="0 0 87 87" fill="none" xmlns="http://www.w3.org/2000/svg">
<g clip-path="url(#clip0)">
<path d="M21.4092 54.7759L0 76.1849L10.8151 87L32.2241 65.591L28.6191 61.986L32.2926 58.3126C45.2555 69.4541 64.8934 68.9718 77.2863 56.5785C90.2367 43.6283 90.2387 22.6657 77.2863 9.71347C64.3361 -3.23689 43.3736 -3.23876 30.4215 9.71347C18.0391 22.0959 17.5344 41.7312 28.6874 54.7074L25.014 58.3809L21.4092 54.7759ZM34.0266 13.3184C44.9846 2.36029 62.722 2.35893 73.6815 13.3184C84.6399 24.2769 84.6407 42.0142 73.6815 52.9733C62.7237 63.9313 44.9861 63.933 34.0266 52.9733C23.0681 42.0149 23.0673 24.2779 34.0266 13.3184ZM10.8151 79.7899L7.20992 76.1849L21.4092 61.9858L25.0141 65.5908L10.8151 79.7899Z" fill="#29538E"/>
<path d="M76.138 34.8503L77.6607 33.1499L76.138 31.4493C75.7342 30.9983 66.1069 20.4043 53.8459 20.4043C41.5849 20.4043 31.9572 30.9989 31.5539 31.4495L30.0312 33.1499L31.5539 34.8505C31.9577 35.3015 41.585 45.8955 53.8459 45.8955C62.2125 45.8955 71.0771 40.5021 76.138 34.8503ZM53.8459 25.5025C61.1313 25.5025 67.6119 30.4575 70.5986 33.1538C67.6217 35.8504 61.1629 40.7974 53.8459 40.7972C46.5599 40.7972 40.0787 35.8411 37.0932 33.1461C40.0702 30.4495 46.529 25.5025 53.8459 25.5025Z" fill="#29538E"/>
<path d="M46.1992 33.1493C46.199 37.3756 49.6195 40.7968 53.8466 40.7967C58.0631 40.7967 61.4939 37.3661 61.4939 33.1493C61.4941 28.923 58.0737 25.5018 53.8466 25.502C49.6302 25.502 46.1992 28.9324 46.1992 33.1493ZM56.3959 33.1493C56.3957 34.5552 55.2522 35.6984 53.8467 35.6984C52.4378 35.6984 51.2976 34.5583 51.2976 33.1493C51.2978 31.7435 52.441 30.6002 53.8467 30.6002C55.2557 30.6002 56.3959 31.7403 56.3959 33.1493Z" fill="#29538E"/>
</g>
<defs>
<clipPath id="clip0">
<rect width="87" height="87" fill="white"/>
</clipPath>
</defs>
</svg>
