<svg width="54" height="40" viewBox="0 0 54 40" fill="none" xmlns="http://www.w3.org/2000/svg">
  <path
    d="M49.7656 9.375H43.9062V3.51562C43.9062 1.57711 42.3291 0 40.3906 0H2.38281C0.444297 0 0 2.74898 0 4.6875V36.4844C0 38.4229 0.952109 39.5312 2.89062 39.5312C3.02305 39.5312 48.8727 40 49.7656 40C51.7041 40 53.2812 38.4229 53.2812 36.4844V12.8906C53.2812 10.9521 51.7041 9.375 49.7656 9.375ZM2.38281 3.16406C2.38281 2.51789 2.4007 2.34375 3.04688 2.34375H40.3906C41.0368 2.34375 41.5625 2.86945 41.5625 3.51562V4.6875H2.38281V3.16406ZM7.69531 37.6562C7.04914 37.6562 2.38281 37.6562 2.38281 36.4844V32.9688H32.1875V36.4844C32.1875 36.8952 32.259 37.2895 32.3891 37.6562H7.69531ZM32.1875 12.8906V30.625H2.38281V7.03125H41.5625V9.375H35.7031C33.7646 9.375 32.1875 10.9521 32.1875 12.8906ZM50.9375 36.4844C50.9375 37.1305 50.4118 37.6562 49.7656 37.6562H35.7031C35.057 37.6562 34.5312 37.1305 34.5312 36.4844V35.3125H50.9375V36.4844ZM50.9375 32.9688H34.5312V16.4062H50.9375V32.9688ZM50.9375 14.0625H34.5312V12.8906C34.5312 12.2445 35.057 11.7188 35.7031 11.7188H49.7656C50.4118 11.7188 50.9375 12.2445 50.9375 12.8906V14.0625Z"
    fill="#172E4F" />
</svg>