<svg width="22" height="22" viewBox="0 0 22 22" fill="none" xmlns="http://www.w3.org/2000/svg">
  <path
    d="M4.63857 16.3585H17.2507V5.53411H4.63857V16.3585ZM17.3576 16.5723H4.53169C4.47266 16.5723 4.4248 16.5244 4.4248 16.4654V5.4272C4.4248 5.36817 4.47266 5.32031 4.53169 5.32031H17.3576C17.4166 5.32031 17.4644 5.36817 17.4644 5.4272V16.4654C17.4644 16.5244 17.4166 16.5723 17.3576 16.5723Z"
    fill="black" />
  <path
    d="M14.8673 16.5723H7.02241C6.96562 16.5723 6.91917 16.528 6.91573 16.472C6.90729 16.3979 6.9008 16.3217 6.89633 16.2436C6.89171 16.163 6.88936 16.0847 6.88936 16.0089C6.88936 15.766 6.91083 15.5278 6.95196 15.2962C6.98912 15.0869 7.04242 14.883 7.11046 14.6859L5.93935 13.882L5.99947 13.7939L5.93897 13.882C5.8906 13.8488 5.8781 13.7829 5.91076 13.7343L6.46153 12.7803L6.46131 12.7802C6.49082 12.7291 6.5562 12.7116 6.60732 12.7411L6.60838 12.7417L7.88311 13.3506C8.17819 13.0111 8.5284 12.7212 8.91965 12.4952C9.30257 12.274 9.72485 12.1136 10.1733 12.0272L10.2839 10.6107L10.3904 10.6186L10.2839 10.6103C10.2882 10.5542 10.3351 10.5117 10.3904 10.5117H10.3905H11.4992C11.5573 10.5117 11.6045 10.558 11.6061 10.6156L11.7164 12.0272C12.1648 12.1136 12.5871 12.274 12.9701 12.4952C13.3613 12.7212 13.7115 13.0111 14.0065 13.3506L15.2898 12.7376L15.3358 12.8336L15.2897 12.7372C15.3426 12.7119 15.4059 12.734 15.4317 12.7865L15.9825 13.7405L15.8902 13.7939L15.9828 13.7405C16.012 13.7912 15.995 13.8559 15.9448 13.8858L14.7792 14.6859C14.8472 14.883 14.9005 15.087 14.9377 15.2963C14.9788 15.5279 15.0003 15.766 15.0003 16.0089C15.0003 16.0847 14.9979 16.163 14.9933 16.2436C14.9887 16.3236 14.9821 16.4016 14.9733 16.4775L14.8673 16.4654L14.9735 16.4776C14.9672 16.5321 14.9209 16.5723 14.8673 16.5722V16.5723ZM7.11868 16.3585H14.771C14.7749 16.316 14.778 16.2738 14.7804 16.2319C14.7845 16.1611 14.7865 16.0868 14.7865 16.0089C14.7865 15.7781 14.7662 15.5522 14.7273 15.333C14.6877 15.1103 14.629 14.8944 14.553 14.6869C14.533 14.6409 14.5477 14.5858 14.5906 14.5563L14.6511 14.6445L14.591 14.5564L15.7485 13.7618L15.2926 12.9722L14.0332 13.5738C13.9888 13.6003 13.9306 13.5913 13.8965 13.5504L13.9786 13.4819L13.8968 13.55C13.6074 13.203 13.2575 12.9076 12.8632 12.6798C12.4804 12.4587 12.0557 12.3017 11.6038 12.2236C11.5541 12.2178 11.5138 12.1776 11.5098 12.1258L11.6164 12.1175L11.5099 12.1254L11.4005 10.7255H10.4891L10.3802 12.1205C10.3788 12.1704 10.3424 12.2141 10.2914 12.2228L10.2733 12.1175L10.2913 12.2227C9.83737 12.3005 9.41083 12.4578 9.02655 12.6798C8.63494 12.9059 8.2872 13.1989 7.99897 13.5427C7.96966 13.5852 7.91303 13.6013 7.86499 13.5784L7.91106 13.4819L7.86513 13.578L6.59701 12.9722L6.14114 13.7618L7.29294 14.5524C7.3366 14.5781 7.357 14.6322 7.33886 14.6814L7.33871 14.6814C7.26168 14.8905 7.20228 15.1083 7.1624 15.3329C7.12348 15.5521 7.10315 15.778 7.10315 16.0089C7.10315 16.0868 7.10521 16.1611 7.10927 16.2319C7.11166 16.2738 7.11481 16.316 7.11868 16.3585L7.11868 16.3585Z"
    fill="black" />
  <path
    d="M13.2682 16.5726H8.61974C8.56595 16.5726 8.52145 16.5328 8.51396 16.4811C8.49958 16.4065 8.48839 16.329 8.48063 16.2487C8.47279 16.1675 8.46875 16.0875 8.46875 16.0093C8.46875 15.3255 8.7459 14.7065 9.19398 14.2584C9.64205 13.8104 10.2611 13.5332 10.9448 13.5332C11.6285 13.5332 12.2475 13.8104 12.6956 14.2584C13.1437 14.7065 13.4208 15.3255 13.4208 16.0093C13.4208 16.0875 13.4168 16.1675 13.409 16.2487C13.401 16.3308 13.3895 16.41 13.3746 16.4862L13.2699 16.4657L13.3748 16.4862C13.3647 16.5378 13.319 16.5734 13.2683 16.5726L13.2682 16.5726ZM8.70929 16.3588H13.1803C13.1871 16.3151 13.1927 16.2717 13.1968 16.2286C13.2036 16.1589 13.2071 16.0857 13.2071 16.0093C13.2071 15.3845 12.9538 14.819 12.5445 14.4096C12.1351 14.0002 11.5695 13.747 10.9448 13.747C10.3201 13.747 9.75447 14.0002 9.34511 14.4096C8.93572 14.819 8.68252 15.3845 8.68252 16.0093C8.68252 16.0857 8.68598 16.1589 8.69272 16.2286C8.69688 16.2717 8.70242 16.3151 8.70929 16.3588H8.70929Z"
    fill="black" />
  <path
    d="M4.63857 8.10481H17.2507V5.53409H4.63857V8.10481ZM17.3576 8.31859H4.53169C4.47266 8.31859 4.4248 8.27073 4.4248 8.2117V5.4272C4.4248 5.36817 4.47266 5.32031 4.53169 5.32031H17.3576C17.4166 5.32031 17.4644 5.36817 17.4644 5.4272V8.2117C17.4644 8.27073 17.4166 8.31859 17.3576 8.31859Z"
    fill="black" />
  <path
    d="M16.0806 6.29297C16.2258 6.29297 16.3573 6.35185 16.4525 6.44701C16.5476 6.54218 16.6065 6.67368 16.6065 6.81888C16.6065 6.96408 16.5476 7.09559 16.4525 7.19075C16.3573 7.28591 16.2258 7.34479 16.0806 7.34479C15.9354 7.34479 15.8039 7.28591 15.7087 7.19075C15.6136 7.09559 15.5547 6.96408 15.5547 6.81888C15.5547 6.67367 15.6136 6.54218 15.7087 6.44701C15.8039 6.35185 15.9354 6.29297 16.0806 6.29297ZM16.3013 6.59815C16.2449 6.54168 16.1668 6.50675 16.0806 6.50675C15.9944 6.50675 15.9163 6.54168 15.8599 6.59815C15.8034 6.65463 15.7685 6.73267 15.7685 6.81888C15.7685 6.90509 15.8034 6.98314 15.8599 7.03961C15.9163 7.09608 15.9944 7.13101 16.0806 7.13101C16.1668 7.13101 16.2448 7.09608 16.3013 7.03961C16.3578 6.98314 16.3927 6.90509 16.3927 6.81888C16.3927 6.73267 16.3578 6.65463 16.3013 6.59815Z"
    fill="black" />
  <path
    d="M14.7222 6.29297C14.8674 6.29297 14.9989 6.35185 15.0941 6.44701C15.1892 6.54218 15.2481 6.67368 15.2481 6.81888C15.2481 6.96408 15.1892 7.09559 15.0941 7.19075C14.9989 7.28591 14.8674 7.34479 14.7222 7.34479C14.577 7.34479 14.4455 7.28591 14.3503 7.19075C14.2552 7.09559 14.1963 6.96408 14.1963 6.81888C14.1963 6.67367 14.2552 6.54218 14.3503 6.44701C14.4455 6.35185 14.577 6.29297 14.7222 6.29297ZM14.9429 6.59815C14.8865 6.54168 14.8084 6.50675 14.7222 6.50675C14.636 6.50675 14.5579 6.54168 14.5015 6.59815C14.445 6.65463 14.4101 6.73267 14.4101 6.81888C14.4101 6.90509 14.445 6.98314 14.5015 7.03961C14.5579 7.09608 14.636 7.13101 14.7222 7.13101C14.8084 7.13101 14.8865 7.09608 14.9429 7.03961C14.9994 6.98314 15.0343 6.90509 15.0343 6.81888C15.0343 6.73267 14.9994 6.65463 14.9429 6.59815Z"
    fill="black" />
  <path
    d="M13.3648 6.29297C13.51 6.29297 13.6415 6.35185 13.7366 6.44701C13.8318 6.54218 13.8907 6.67368 13.8907 6.81888C13.8907 6.96408 13.8318 7.09559 13.7366 7.19075C13.6415 7.28591 13.51 7.34479 13.3648 7.34479C13.2196 7.34479 13.0881 7.28591 12.9929 7.19075C12.8977 7.09559 12.8389 6.96408 12.8389 6.81888C12.8389 6.67367 12.8977 6.54218 12.9929 6.44701C13.0881 6.35185 13.2196 6.29297 13.3648 6.29297ZM13.5855 6.59815C13.529 6.54168 13.451 6.50675 13.3648 6.50675C13.2786 6.50675 13.2005 6.54168 13.1441 6.59815C13.0876 6.65463 13.0526 6.73267 13.0526 6.81888C13.0526 6.90509 13.0876 6.98314 13.1441 7.03961C13.2005 7.09608 13.2786 7.13101 13.3648 7.13101C13.451 7.13101 13.529 7.09608 13.5855 7.03961C13.642 6.98314 13.6769 6.90509 13.6769 6.81888C13.6769 6.73267 13.642 6.65463 13.5855 6.59815Z"
    fill="black" />
  <path
    d="M14.9145 9.19815C14.9736 9.19815 15.0214 9.15029 15.0214 9.09126C15.0214 9.03223 14.9736 8.98438 14.9145 8.98438H4.53169C4.47266 8.98438 4.4248 9.03223 4.4248 9.09126C4.4248 9.15029 4.47266 9.19815 4.53169 9.19815H14.9145Z"
    fill="black" />
  <mask id="path-9-inside-1" fill="white">
    <path
      d="M10.9451 0.21875C13.9675 0.21875 16.5713 1.46646 18.552 3.44718C20.5327 5.4279 21.6714 7.97698 21.6714 10.9994C21.6714 14.0218 20.3685 16.5709 18.3878 18.5517C16.4071 20.5324 13.9675 21.6711 10.9451 21.6711C7.92263 21.6711 5.42825 20.5324 3.44753 18.5517C1.46681 16.5709 0.328125 13.9673 0.328125 10.9448C0.328125 7.92241 1.46681 5.42806 3.44753 3.44734C5.42825 1.46662 7.92261 0.21875 10.9451 0.21875ZM18.307 3.58289C16.4229 1.69881 13.8201 0.533489 10.9451 0.533489C8.07001 0.533489 5.46715 1.69881 3.5831 3.58289C1.69902 5.46696 0.5337 8.0698 0.5337 10.9448C0.5337 13.8199 1.69902 16.4227 3.5831 18.3068C5.46717 20.1909 8.07001 21.3562 10.9451 21.3562C13.8201 21.3562 16.423 20.1909 18.307 18.3068C20.1911 16.4227 21.3564 13.8199 21.3564 10.9448C21.3564 8.0698 20.1911 5.46694 18.307 3.58289Z" />
  </mask>
  <path
    d="M18.552 3.44718L18.9056 3.09363L18.9056 3.09362L18.552 3.44718ZM18.3878 18.5517L18.7414 18.9052H18.7414L18.3878 18.5517ZM3.44753 18.5517L3.09397 18.9052H3.09398L3.44753 18.5517ZM3.44753 3.44734L3.09397 3.09379L3.09397 3.09379L3.44753 3.44734ZM18.307 3.58289L17.9535 3.93644L17.9535 3.93644L18.307 3.58289ZM3.5831 3.58289L3.93665 3.93644L3.93665 3.93644L3.5831 3.58289ZM3.5831 18.3068L3.93665 17.9532L3.93665 17.9532L3.5831 18.3068ZM18.307 18.3068L17.9535 17.9532L17.9535 17.9532L18.307 18.3068ZM10.9451 0.71875C13.8205 0.71875 16.3008 1.90309 18.1985 3.80073L18.9056 3.09362C16.8418 1.02983 14.1145 -0.28125 10.9451 -0.28125V0.71875ZM18.1985 3.80073C20.0886 5.69089 21.1714 8.11405 21.1714 10.9994H22.1714C22.1714 7.8399 20.9768 5.16491 18.9056 3.09363L18.1985 3.80073ZM21.1714 10.9994C21.1714 13.866 19.939 16.2934 18.0343 18.1981L18.7414 18.9052C20.7981 16.8485 22.1714 14.1777 22.1714 10.9994H21.1714ZM18.0343 18.1981C16.14 20.0924 13.8249 21.1711 10.9451 21.1711V22.1711C14.1101 22.1711 16.6742 20.9724 18.7414 18.9052L18.0343 18.1981ZM10.9451 21.1711C8.06247 21.1711 5.69328 20.0903 3.80108 18.1981L3.09398 18.9052C5.16322 20.9745 7.78278 22.1711 10.9451 22.1711V21.1711ZM3.80108 18.1981C1.9129 16.3099 0.828125 13.8329 0.828125 10.9448H-0.171875C-0.171875 14.1016 1.02072 16.832 3.09397 18.9052L3.80108 18.1981ZM0.828125 10.9448C0.828125 8.06226 1.90889 5.69309 3.80108 3.80089L3.09397 3.09379C1.02473 5.16304 -0.171875 7.78257 -0.171875 10.9448H0.828125ZM3.80108 3.80089C5.70307 1.89891 8.07508 0.71875 10.9451 0.71875V-0.28125C7.77015 -0.28125 5.15342 1.03434 3.09397 3.09379L3.80108 3.80089ZM18.6606 3.22933C16.6866 1.25532 13.958 0.0334893 10.9451 0.0334893V1.03349C13.6822 1.03349 16.1593 2.1423 17.9535 3.93644L18.6606 3.22933ZM10.9451 0.0334893C7.93208 0.0334893 5.20353 1.25532 3.22954 3.22934L3.93665 3.93644C5.73077 2.1423 8.20794 1.03349 10.9451 1.03349V0.0334893ZM3.22954 3.22933C1.25553 5.20334 0.0337002 7.93187 0.0337002 10.9448H1.0337C1.0337 8.20773 2.14251 5.73057 3.93665 3.93644L3.22954 3.22933ZM0.0337002 10.9448C0.0337002 13.9578 1.25553 16.6864 3.22955 18.6604L3.93665 17.9532C2.14251 16.1591 1.0337 13.682 1.0337 10.9448H0.0337002ZM3.22954 18.6603C5.20355 20.6344 7.93208 21.8562 10.9451 21.8562V20.8562C8.20794 20.8562 5.73078 19.7474 3.93665 17.9532L3.22954 18.6603ZM10.9451 21.8562C13.958 21.8562 16.6866 20.6344 18.6606 18.6603L17.9535 17.9532C16.1593 19.7474 13.6822 20.8562 10.9451 20.8562V21.8562ZM18.6606 18.6603C20.6346 16.6863 21.8564 13.9578 21.8564 10.9448H20.8564C20.8564 13.6819 19.7476 16.1591 17.9535 17.9532L18.6606 18.6603ZM21.8564 10.9448C21.8564 7.93187 20.6346 5.20332 18.6606 3.22933L17.9535 3.93644C19.7476 5.73056 20.8564 8.20773 20.8564 10.9448H21.8564Z"
    fill="black" mask="url(#path-9-inside-1)" />
</svg>