<svg width="22" height="22" viewBox="0 0 22 22" fill="none" xmlns="http://www.w3.org/2000/svg">
  <path
    d="M9.83211 13.6371C10.3159 12.8997 10.9664 12.6909 11.6159 12.8162C12.2481 12.9382 12.8707 13.3912 13.3165 13.9773C13.7623 14.5633 14.0368 15.2896 13.9731 15.9586C13.9016 16.7096 13.4228 17.3785 12.3194 17.6977C12.0902 17.789 9.41438 18.6975 5.77775 12.9162L5.76857 12.9006C2.54733 6.79831 4.74969 4.95876 4.9046 4.83946C5.73063 4.04842 6.54697 3.96919 7.23139 4.28197C7.8434 4.56165 8.33555 5.16281 8.6202 5.842C8.90421 6.51961 8.9847 7.28469 8.77405 7.89372C8.55754 8.51972 8.05133 8.97916 7.17092 9.0293C6.60854 9.9539 7.81518 11.7019 7.81874 11.7071L7.83617 11.7374C7.8389 11.743 8.74971 13.6622 9.83211 13.6371L9.83211 13.6371ZM11.5278 13.2768C11.0358 13.1819 10.5373 13.361 10.1686 13.9802L10.1106 14.0776L9.99979 14.0931C8.59956 14.2882 7.52298 12.1635 7.42189 11.9571C7.29604 11.7699 5.9909 9.77214 6.86111 8.6556L6.93002 8.56721L7.04279 8.56569C7.76387 8.55597 8.16824 8.21439 8.33181 7.74141C8.50364 7.24457 8.43033 6.60214 8.18712 6.02185C7.94457 5.44314 7.53604 4.93585 7.03687 4.70773C6.51708 4.47019 5.88173 4.54623 5.21597 5.18996L5.19394 5.20924C5.18788 5.21376 3.04317 6.72938 6.17993 12.6757C9.7603 18.3623 12.1453 17.2627 12.1522 17.2597L12.1798 17.2496C13.0696 16.9951 13.4528 16.4832 13.507 15.9146C13.5591 15.3675 13.324 14.7595 12.944 14.26C12.5641 13.7605 12.0447 13.3766 11.5279 13.2769L11.5278 13.2768Z"
    fill="black" />
  <path
    d="M13.5964 15.1545C15.1287 14.1951 16.1927 12.793 16.6725 11.2873C17.147 9.7985 17.0489 8.20864 16.2646 6.85017C15.4804 5.49194 14.1527 4.61216 12.6263 4.2787C11.0819 3.94129 9.33512 4.16173 7.73792 5.00914L7.51953 4.5944C9.21748 3.69356 11.0778 3.45998 12.7254 3.81991C14.3774 4.18082 15.8167 5.13706 16.6701 6.61527C17.5234 8.09325 17.6319 9.81763 17.1185 11.4286C16.6062 13.0359 15.4735 14.5307 13.8442 15.5509L13.5964 15.1545L13.5964 15.1545Z"
    fill="black" />
  <path fill-rule="evenodd" clip-rule="evenodd"
    d="M10.7276 0C16.6523 0 21.4552 4.80291 21.4552 10.7276C21.4552 16.6523 16.6523 21.4552 10.7276 21.4552C4.80291 21.4552 0 16.6523 0 10.7276C0 4.80288 4.80291 0 10.7276 0ZM10.7276 0.523817C16.363 0.523817 20.9314 5.09218 20.9314 10.7276C20.9314 16.3631 16.363 20.9315 10.7276 20.9315C5.09218 20.9315 0.523789 16.3631 0.523789 10.7276C0.523789 5.09221 5.09218 0.523817 10.7276 0.523817Z"
    fill="black" />
</svg>