<svg width="22" height="22" viewBox="0 0 22 22" fill="none" xmlns="http://www.w3.org/2000/svg">
  <g clip-path="url(#clip0)">
    <path
      d="M0.73788 12.2053C1.96818 12.4927 2.36747 12.5764 2.56964 12.6231C2.69253 13.5208 2.92069 14.3432 3.24897 15.0715C2.58535 15.7566 1.46542 16.8794 2.15456 17.5424C3.2715 18.6242 3.85193 19.3219 4.36616 19.0085C4.78038 18.7589 5.23327 18.4828 5.72612 18.1805C6.43339 18.6652 7.218 18.9902 8.1719 19.1935C8.18565 19.7968 8.23464 20.3902 8.31843 20.9636C8.45719 21.7755 9.10499 21.7588 9.14901 21.7793C9.85271 21.7078 11.3075 21.9071 11.667 21.4599C11.716 21.3943 11.7409 21.3082 11.7508 21.2571C11.896 20.6692 12.0546 20.0129 12.2273 19.276C13.0132 19.1413 13.7518 18.9 14.4277 18.5576C14.9227 19.0487 15.4276 19.4794 15.9286 19.8384C16.2973 20.11 16.8138 20.124 17.1025 19.8232C17.7508 19.1428 18.7235 18.2892 18.6434 17.812C18.6288 17.7388 18.5901 17.6595 18.5544 17.6185C18.3005 17.1972 18.0216 16.7413 17.714 16.2385L17.5692 16.0018C18.1643 15.359 18.536 14.7082 18.8153 13.8215C21.3807 13.7792 21.3961 13.337 21.3324 12.1638C21.2164 10.0132 21.4508 10.4041 19.498 9.92663C19.4362 9.0505 18.942 7.77003 18.6039 7.03032C19.1815 6.38695 20.0097 5.50595 19.3842 4.90423C18.4693 4.0347 17.8736 3.34275 17.4342 3.34275C17.3333 3.34275 17.2509 3.38271 17.1713 3.43126C16.764 3.67978 16.4308 3.88198 16.061 4.11382C15.2072 3.57198 14.1132 3.14853 13.3582 2.95151L13.3578 2.93648C13.306 0.454682 12.7626 0.661872 11.7667 0.662785C10.7517 0.662785 9.87518 0.662785 9.78753 1.19109C9.68094 1.63863 9.55622 2.14687 9.40553 2.76224C8.51565 2.91886 7.65628 3.21169 6.84632 3.63407C6.17716 2.97359 5.10901 1.94145 4.44866 2.60282C2.37579 4.70786 2.64669 4.2825 3.80671 6.17138C3.47886 6.58818 2.67233 7.69526 2.55761 8.63478C1.6316 8.66134 0.18745 8.66663 0.213231 9.59513C0.238932 11.1215 0.142467 11.9707 0.73788 12.2053ZM2.76643 9.07048C2.88718 9.06898 2.98386 8.97101 2.98386 8.85048C2.98386 8.16599 3.61722 7.09048 4.24499 6.32821C4.30472 6.2556 4.31202 6.15333 4.26261 6.07319C3.55792 4.92528 3.34522 4.57896 3.33835 4.55189C3.54884 4.14269 3.31979 4.42499 4.76362 2.91005C5.12542 2.5489 6.0905 3.50624 6.56788 3.97739L6.65296 4.06118C6.72171 4.12929 6.82741 4.14347 6.91249 4.09749C7.7637 3.63386 8.67421 3.32255 9.61909 3.17237C9.79937 3.1441 9.77163 3.15959 10.2185 1.27853C10.2547 1.06102 11.9739 1.10692 12.4013 1.09956C12.8791 1.09956 12.9045 2.30054 12.9178 2.94571L12.9221 3.13069C12.9331 3.55724 14.0214 3.28087 15.9368 4.55812C16.0094 4.60667 16.1035 4.6071 16.1761 4.56112C16.2204 4.53319 17.4095 3.76679 17.4536 3.79327C17.7979 3.92554 18.0345 4.21131 19.0778 5.22026C19.1852 5.32361 19.1938 5.58357 19.037 5.80421C18.2906 6.83052 18.0325 6.84905 18.1441 7.08489C19.9399 10.8774 18.044 10.0304 20.3381 10.5825C20.5499 10.6321 20.6668 10.6643 20.7437 10.6771C20.8773 10.8397 20.8685 11.7392 20.8928 12.1876C20.9411 13.0667 21.1857 13.3547 18.649 13.3839C18.2306 13.3885 18.5446 14.3686 17.136 15.8196C16.9793 15.9807 17.0185 15.9249 18.178 17.8458C18.1828 17.8542 18.1961 17.8935 18.2021 17.9012C18.0412 18.2827 17.7834 18.4701 16.7725 19.5317C16.3931 19.9275 15.0146 18.5273 14.6262 18.1332C14.3505 17.8541 14.0556 18.5517 12.0129 18.865C11.8049 18.8968 11.8924 18.8417 11.3215 21.1612C11.3168 21.1844 11.3108 21.201 11.2974 21.2023C10.9674 21.3412 10.7234 21.3129 9.13913 21.3393C9.13593 21.3395 9.13674 21.3395 9.13397 21.3396C8.98659 21.3396 8.79839 21.1587 8.75327 20.8948C8.66475 20.2896 8.6162 19.6556 8.60889 19.0107C8.6076 18.906 8.53327 18.8169 8.43057 18.7971C4.47834 18.032 7.11447 16.8373 4.13843 18.6321C4.12554 18.6398 4.0989 18.6562 4.10405 18.6566C4.01924 18.6566 3.93943 18.6734 2.46093 17.2264C2.07926 16.8599 3.19999 15.7542 3.59487 15.3467L3.67007 15.2692C3.73409 15.2032 3.74999 15.1046 3.71046 15.0217C3.3521 14.2684 3.10975 13.4004 2.99159 12.4695C2.99382 12.2081 2.98665 12.2748 0.869793 11.7867C0.669559 11.7068 0.665262 11.0245 0.660106 10.2343C0.654413 9.35394 0.346407 9.10042 2.76643 9.07048Z"
      fill="black" />
    <path
      d="M10.5077 16.9976C12.4484 16.9976 13.6915 16.339 14.7363 15.4125C15.9421 14.2044 16.3612 14.1243 16.8426 11.6839C16.9423 11.1945 17.0557 10.6398 16.9883 10.0792C16.9075 9.43084 16.3459 7.91426 15.7366 7.14877C14.7225 5.86443 12.9935 5.09766 11.1114 5.09766C7.61672 5.09766 5.20161 7.71346 5.01974 9.42891C4.47648 14.5651 7.05428 16.9976 10.5077 16.9976ZM15.5012 14.0299C15.3478 13.9626 14.9649 13.7865 14.9339 13.7715C13.6327 13.1432 12.3852 12.3642 11.0981 11.717C10.7817 11.5579 10.4316 11.4127 10.3802 11.3937C11.5813 11.0343 11.2115 11.2388 12.712 10.855L16.5053 9.8858C16.7035 10.7413 16.2534 13.0857 15.5012 14.0299ZM16.4484 9.67329L12.6579 10.6419C11.2059 11.013 11.5828 10.8017 10.2098 11.2152C11.7292 8.00433 11.2571 9.26589 13.2118 5.90678C15.0009 6.55741 15.9132 7.76867 16.4484 9.67329ZM13.0027 5.82799C10.9535 9.34428 11.7605 7.50654 10.0819 10.9706C9.93306 9.40876 9.52163 7.4933 9.17726 5.83734C10.4784 5.43053 11.8186 5.44906 13.0027 5.82799ZM5.45716 9.47531C5.4808 9.25359 5.5229 9.0727 5.58091 8.9425C6.34162 7.32043 7.63458 6.37603 8.96717 5.90864C9.12079 6.64684 9.93529 10.703 9.92231 11.4603C10.3601 11.6305 10.3949 11.6094 10.9993 11.9134C12.4673 12.6521 13.82 13.526 15.3525 14.2065C11.7236 18.2862 4.62652 17.3428 5.45716 9.47531Z"
      fill="black" />
  </g>
  <defs>
    <clipPath id="clip0">
      <rect width="21.56" height="22" fill="white" />
    </clipPath>
  </defs>
</svg>