<svg width="23" height="22" viewBox="0 0 23 22" fill="none" xmlns="http://www.w3.org/2000/svg">
  <g clip-path="url(#clip0)">
    <path
      d="M21.8491 13.3256C21.8934 13.3096 21.9317 13.2803 21.9587 13.2418C21.9858 13.2032 22.0003 13.1573 22.0003 13.1102V9.85371C22.0003 9.80661 21.9858 9.76067 21.9587 9.72212C21.9317 9.68358 21.8934 9.65431 21.8491 9.63829L20.0845 9.01038C19.8978 8.35505 19.6371 7.72307 19.3076 7.12663L20.1097 5.43996C20.1301 5.39704 20.1366 5.34883 20.1284 5.30203C20.1202 5.25522 20.0977 5.21213 20.0639 5.17871L17.7722 2.88704C17.739 2.85374 17.6963 2.83148 17.65 2.82328C17.6036 2.81508 17.5559 2.82134 17.5133 2.84121L15.8358 3.63642C15.2345 3.30163 14.5972 3.03638 13.936 2.84579L13.3035 1.09267C13.2873 1.04801 13.2577 1.00946 13.2187 0.982368C13.1797 0.955273 13.1332 0.940963 13.0858 0.941417H9.83158C9.7841 0.940963 9.73764 0.955273 9.69864 0.982368C9.65964 1.00946 9.63002 1.04801 9.61388 1.09267L8.99284 2.83663C8.33556 3.02803 7.70208 3.29326 7.1045 3.62725L5.427 2.83204C5.38435 2.81217 5.33662 2.80592 5.29029 2.81412C5.24396 2.82232 5.20128 2.84458 5.16804 2.87788L2.87638 5.16954C2.84259 5.20296 2.82003 5.24606 2.81182 5.29286C2.80361 5.33967 2.81015 5.38787 2.83054 5.43079L3.63263 7.11746C3.30312 7.7139 3.04248 8.34588 2.85575 9.00121L1.09117 9.62913C1.0411 9.6415 0.996673 9.6704 0.965067 9.71116C0.933461 9.75191 0.916527 9.80214 0.917002 9.85371V13.1102C0.917022 13.1573 0.931552 13.2032 0.958616 13.2418C0.985679 13.2803 1.02396 13.3096 1.06825 13.3256L2.84888 13.9604C3.03719 14.6042 3.29619 15.2252 3.62117 15.812L2.80763 17.5239C2.78724 17.5668 2.7807 17.615 2.78891 17.6618C2.79712 17.7087 2.81968 17.7517 2.85346 17.7852L5.15658 20.0768C5.19009 20.1098 5.23289 20.1316 5.27921 20.1394C5.32553 20.1472 5.37312 20.1405 5.41554 20.1204L7.13888 19.3023C7.71983 19.6226 8.33476 19.877 8.97221 20.0608L9.62533 21.8712C9.6411 21.9163 9.67055 21.9553 9.70959 21.9829C9.74862 22.0104 9.79528 22.025 9.84304 22.0248H13.0858C13.1335 22.025 13.1802 22.0104 13.2192 21.9829C13.2582 21.9553 13.2877 21.9163 13.3035 21.8712L13.9428 20.0723C14.5803 19.8885 15.1952 19.634 15.7762 19.3137L17.4995 20.1318C17.5419 20.152 17.5895 20.1586 17.6358 20.1508C17.6822 20.143 17.725 20.1212 17.7585 20.0883L20.0501 17.7966C20.0839 17.7632 20.1065 17.7201 20.1147 17.6733C20.1229 17.6265 20.1164 17.5783 20.096 17.5354L19.2962 15.812C19.6211 15.2252 19.8801 14.6042 20.0685 13.9604L21.8491 13.3256ZM19.6583 13.722C19.4694 14.4096 19.1937 15.0704 18.8378 15.6883C18.8206 15.7212 18.8116 15.7577 18.8116 15.7949C18.8116 15.832 18.8206 15.8686 18.8378 15.9014L19.633 17.5766L17.5705 19.6391L15.8862 18.8393C15.8533 18.8221 15.8167 18.8131 15.7796 18.8131C15.7425 18.8131 15.7059 18.8221 15.673 18.8393C15.0596 19.1873 14.4053 19.4575 13.7251 19.6437C13.6894 19.6534 13.6566 19.6716 13.6295 19.6968C13.6023 19.7219 13.5817 19.7532 13.5693 19.7881L12.9253 21.5664H9.992L9.36638 19.8064C9.35398 19.7716 9.33334 19.7402 9.3062 19.7151C9.27906 19.6899 9.24624 19.6717 9.21054 19.662C8.53038 19.4758 7.87604 19.2056 7.26263 18.8577C7.22976 18.8404 7.19319 18.8314 7.15606 18.8314C7.11894 18.8314 7.08237 18.8404 7.0495 18.8577L5.36513 19.6575L3.30263 17.595L4.09784 15.9198C4.1151 15.8869 4.12412 15.8503 4.12412 15.8132C4.12412 15.7761 4.1151 15.7395 4.09784 15.7066C3.74201 15.0887 3.46632 14.428 3.27742 13.7404C3.2674 13.7051 3.24905 13.6727 3.22393 13.646C3.19881 13.6193 3.16764 13.599 3.13304 13.5868L1.37534 12.9498V10.0164L3.09867 9.39538C3.13352 9.38298 3.16486 9.36234 3.19 9.3352C3.21514 9.30806 3.23334 9.27524 3.24304 9.23954C3.43198 8.54143 3.70841 7.86999 4.06575 7.24121C4.08263 7.20863 4.09144 7.17248 4.09144 7.13579C4.09144 7.0991 4.08263 7.06295 4.06575 7.03038L3.282 5.38267L5.35596 3.32017L6.9945 4.09704C7.02737 4.11431 7.06394 4.12332 7.10106 4.12332C7.13819 4.12332 7.17476 4.11431 7.20763 4.09704C7.83905 3.73126 8.51544 3.44931 9.21971 3.25829C9.25541 3.24859 9.28823 3.23039 9.31537 3.20525C9.3425 3.18011 9.36315 3.14877 9.37554 3.11392L9.992 1.39975H12.9253L13.5326 3.10246C13.545 3.13731 13.5657 3.16865 13.5928 3.19379C13.6199 3.21893 13.6528 3.23713 13.6885 3.24683C14.3927 3.43785 15.0691 3.7198 15.7005 4.08558C15.7334 4.10285 15.77 4.11187 15.8071 4.11187C15.8442 4.11187 15.8808 4.10285 15.9137 4.08558L17.5522 3.30871L19.6147 5.37121L18.831 7.01892C18.8141 7.05149 18.8053 7.08765 18.8053 7.12433C18.8053 7.16102 18.8141 7.19717 18.831 7.22975C19.1883 7.85854 19.4647 8.52997 19.6537 9.22808C19.6634 9.26378 19.6816 9.2966 19.7067 9.32374C19.7318 9.35088 19.7632 9.37152 19.798 9.38392L21.542 10.0164V12.9498L19.8026 13.5685C19.768 13.5807 19.7369 13.601 19.7117 13.6277C19.6866 13.6544 19.6683 13.6868 19.6583 13.722Z"
      fill="black" />
    <path
      d="M11.4007 4.25C9.98432 4.25 8.59972 4.67001 7.42203 5.45692C6.24433 6.24383 5.32643 7.3623 4.78439 8.67089C4.24236 9.97947 4.10054 11.4194 4.37687 12.8086C4.65319 14.1978 5.33526 15.4738 6.3368 16.4754C7.33835 17.4769 8.6144 18.159 10.0036 18.4353C11.3928 18.7116 12.8327 18.5698 14.1413 18.0278C15.4499 17.4857 16.5683 16.5678 17.3553 15.3902C18.1422 14.2125 18.5622 12.8279 18.5622 11.4115C18.5598 9.51287 17.8045 7.69273 16.462 6.35022C15.1194 5.00771 13.2993 4.25243 11.4007 4.25ZM11.4007 18.1146C10.075 18.1146 8.77899 17.7215 7.67666 16.9849C6.57434 16.2484 5.71518 15.2015 5.20784 13.9766C4.7005 12.7518 4.56775 11.404 4.82639 10.1037C5.08503 8.80346 5.72345 7.60908 6.66089 6.67163C7.59834 5.73418 8.79273 5.09577 10.093 4.83713C11.3933 4.57849 12.7411 4.71123 13.9659 5.21858C15.1907 5.72592 16.2376 6.58508 16.9742 7.6874C17.7107 8.78973 18.1038 10.0857 18.1038 11.4115C18.102 13.1887 17.3952 14.8926 16.1385 16.1493C14.8818 17.406 13.1779 18.1128 11.4007 18.1146Z"
      fill="black" />
    <path
      d="M10.883 10.3888C10.9471 10.521 10.9578 10.6729 10.9128 10.8128C10.9015 10.8547 10.9023 10.8991 10.9153 10.9406C10.9282 10.9821 10.9527 11.019 10.9859 11.0471C11.019 11.0752 11.0595 11.0933 11.1025 11.0993C11.1456 11.1053 11.1895 11.0989 11.229 11.0809L12.3749 10.4965C12.4017 10.4827 12.4255 10.4638 12.445 10.4407C12.4645 10.4177 12.4792 10.391 12.4884 10.3623C12.4975 10.3335 12.5009 10.3033 12.4983 10.2732C12.4958 10.2432 12.4873 10.2139 12.4734 10.1871L12.0151 9.30027C12.1269 9.28601 12.2354 9.25268 12.3359 9.20172C12.4817 9.12336 12.6073 9.01217 12.7027 8.87695C12.7982 8.74173 12.8609 8.58617 12.8859 8.42256C12.945 8.06877 12.8854 7.70537 12.7163 7.38902C12.5597 7.0656 12.299 6.80413 11.9761 6.64652C11.828 6.57301 11.6648 6.53477 11.4994 6.53477C11.3341 6.53477 11.1709 6.57301 11.0228 6.64652C10.9224 6.69971 10.8318 6.76944 10.7546 6.85277L10.3238 6.01402C10.2959 5.96044 10.248 5.92004 10.1905 5.90158C10.133 5.88313 10.0706 5.88812 10.0167 5.91548L7.36985 7.29047C6.91384 7.52676 6.56975 7.93377 6.41262 8.42275C6.2555 8.91172 6.29809 9.44299 6.5311 9.90068L7.89235 12.5476C7.92017 12.601 7.96792 12.6413 8.02527 12.6598C8.04884 12.6631 8.07275 12.6631 8.09631 12.6598C8.13296 12.66 8.16911 12.6514 8.20173 12.6346L9.5011 11.9632C9.54255 11.9421 9.57659 11.9088 9.5987 11.8679C9.6208 11.827 9.62992 11.7803 9.62485 11.734C9.6215 11.6894 9.60518 11.6468 9.5779 11.6114C9.55061 11.5759 9.51356 11.5493 9.47131 11.5346C9.33083 11.4897 9.21331 11.3919 9.1436 11.2619C9.10297 11.1755 9.08306 11.0808 9.08545 10.9853C9.08783 10.8898 9.11245 10.7962 9.15735 10.7119C9.27157 10.4824 9.4585 10.2971 9.68902 10.1848C10.168 9.95797 10.7042 10.0405 10.883 10.3888ZM9.47819 9.79756C9.15659 9.95658 8.89759 10.2188 8.74256 10.5423C8.66906 10.6905 8.63081 10.8536 8.63081 11.019C8.63081 11.1844 8.66906 11.3475 8.74256 11.4957C8.79293 11.592 8.85873 11.6795 8.93735 11.7546L8.20173 12.1328L6.93673 9.68985C6.75631 9.33853 6.7228 8.92994 6.84356 8.55392C6.96431 8.1779 7.22946 7.86523 7.58069 7.68464L10.0213 6.42881L10.5415 7.42797C10.5621 7.46824 10.5941 7.50152 10.6335 7.52365C10.6729 7.54578 10.718 7.55575 10.763 7.55232C10.8081 7.54889 10.8512 7.53221 10.8868 7.50438C10.9224 7.47654 10.949 7.4388 10.9632 7.39589C11.0038 7.2517 11.0992 7.12912 11.229 7.05443C11.3156 7.01415 11.4104 6.99463 11.5059 6.99742C11.6014 7.0002 11.6949 7.02522 11.779 7.07047C12.0098 7.18268 12.1962 7.3691 12.3084 7.59985C12.4296 7.82556 12.473 8.08488 12.4321 8.33777C12.4201 8.43277 12.386 8.52365 12.3327 8.6032C12.2794 8.68276 12.2083 8.7488 12.1251 8.7961C11.9881 8.86147 11.8309 8.87052 11.6874 8.82131C11.644 8.80735 11.5974 8.80664 11.5536 8.81928C11.5098 8.83192 11.4708 8.85733 11.4415 8.89226C11.4122 8.9272 11.394 8.97007 11.3893 9.01539C11.3845 9.06072 11.3933 9.10645 11.4146 9.14672L11.9555 10.1963L11.3894 10.4873C11.3738 10.3795 11.3405 10.275 11.2909 10.178C10.9999 9.60506 10.1817 9.43547 9.47819 9.79756Z"
      fill="black" />
    <path
      d="M14.3962 9.73379C14.3362 9.72721 14.2761 9.7445 14.2289 9.78192L13.1724 10.6275C13.1367 10.6556 13.1101 10.6935 13.096 10.7367C13.0819 10.7798 13.0809 10.8262 13.0932 10.8698C13.1055 10.9135 13.1304 10.9526 13.1649 10.9821C13.1995 11.0116 13.2419 11.0301 13.287 11.0355C13.4383 11.0491 13.5781 11.1215 13.6766 11.2371C13.7332 11.3142 13.7711 11.4034 13.7874 11.4976C13.8037 11.5919 13.7979 11.6886 13.7705 11.7803C13.7047 12.028 13.5589 12.2472 13.3557 12.4036C12.9364 12.7405 12.3932 12.7657 12.1503 12.4609C12.0589 12.3396 12.0179 12.1877 12.0357 12.0369C12.0414 11.9914 12.0333 11.9452 12.0125 11.9044C11.9917 11.8635 11.959 11.8299 11.9189 11.8078C11.879 11.7859 11.8335 11.7764 11.7882 11.7805C11.7429 11.7846 11.6998 11.802 11.6645 11.8307L10.5645 12.7175C10.541 12.7363 10.5214 12.7595 10.5068 12.7859C10.4923 12.8122 10.4831 12.8412 10.4797 12.8711C10.4738 12.9313 10.4919 12.9915 10.5301 13.0384L11.1489 13.8107C11.022 13.8464 10.9036 13.9072 10.8005 13.9894C10.2964 14.3905 10.2918 15.2223 10.7868 15.8411C11.0064 16.1234 11.3135 16.325 11.6599 16.414C11.8197 16.4583 11.9875 16.4648 12.1502 16.433C12.3129 16.4011 12.4659 16.3319 12.5972 16.2307C12.6996 16.1482 12.7845 16.0462 12.847 15.9305L13.4635 16.7028C13.485 16.7293 13.5123 16.7508 13.5432 16.7654C13.5741 16.7801 13.608 16.7877 13.6422 16.7875C13.6947 16.7878 13.7456 16.77 13.7866 16.7371L16.108 14.8763C16.5094 14.5535 16.7665 14.0848 16.8232 13.5729C16.8799 13.061 16.7315 12.5474 16.4105 12.1446L14.5497 9.81859C14.5309 9.79506 14.5077 9.77547 14.4814 9.76092C14.455 9.74637 14.4261 9.73715 14.3962 9.73379ZM16.3716 13.5196C16.3499 13.7151 16.2892 13.9042 16.1932 14.0758C16.0971 14.2475 15.9677 14.3981 15.8124 14.5188L13.6697 16.2375L12.918 15.298C12.8967 15.271 12.8695 15.2491 12.8386 15.234C12.8077 15.2189 12.7737 15.211 12.7393 15.2109C12.7152 15.2111 12.6912 15.215 12.6682 15.2223C12.6241 15.2367 12.5854 15.264 12.5571 15.3009C12.5289 15.3377 12.5125 15.3822 12.5101 15.4286C12.5082 15.5134 12.4885 15.5968 12.4521 15.6734C12.4158 15.75 12.3637 15.8181 12.2993 15.8732C12.2227 15.9299 12.1339 15.9679 12.04 15.9842C11.9461 16.0005 11.8497 15.9947 11.7585 15.9671C11.511 15.9019 11.2919 15.7569 11.1351 15.5546C10.7982 15.133 10.773 14.5921 11.0778 14.3469C11.1455 14.2961 11.2232 14.2602 11.3058 14.2417C11.3883 14.2231 11.4739 14.2223 11.5568 14.2392C11.6035 14.2502 11.6525 14.2462 11.6968 14.2279C11.7411 14.2096 11.7786 14.1778 11.8039 14.137C11.8292 14.0963 11.8411 14.0486 11.8379 14.0008C11.8346 13.9529 11.8165 13.9072 11.786 13.8703L11.032 12.9307L11.6324 12.4494C11.6687 12.5575 11.7237 12.6584 11.7951 12.7473C12.1962 13.2492 13.028 13.2561 13.6445 12.7611C13.9226 12.5383 14.1205 12.231 14.2082 11.8857C14.252 11.7262 14.2582 11.5589 14.2264 11.3966C14.1946 11.2344 14.1256 11.0818 14.0249 10.9507C13.9541 10.8601 13.868 10.7825 13.7705 10.7215L14.3274 10.2769L16.0439 12.4196C16.1693 12.5717 16.2629 12.7475 16.3192 12.9364C16.3755 13.1254 16.3933 13.3237 16.3716 13.5196Z"
      fill="black" />
  </g>
  <defs>
    <clipPath id="clip0">
      <rect width="22.9167" height="22" fill="white" />
    </clipPath>
  </defs>
</svg>