<svg width="22" height="22" viewBox="0 0 22 22" fill="none" xmlns="http://www.w3.org/2000/svg">
  <path
    d="M11 0C4.92775 0 -1.83333e-05 4.92656 0 10.9991C9.16672e-06 17.0716 4.92777 22 11 22C17.0722 22 22 17.0716 22 10.9991C22 4.92656 17.0722 0 11 0ZM11 0.461914C16.8228 0.461914 21.5381 5.17607 21.5381 10.9991C21.5381 16.8221 16.8228 21.5381 11 21.5381C5.1772 21.5381 0.461919 16.8221 0.461914 10.9991C0.461896 5.17607 5.17718 0.461914 11 0.461914ZM4.07487 4.13843L4.06055 4.59676H4.28971H4.74805H4.97721L4.99154 4.13843H4.76237H4.30404H4.07487ZM5.44987 4.15275L5.43555 4.61108H5.66471H6.12305H6.35221L6.36654 4.15275H6.13737H5.67904H5.44987ZM6.81055 4.15275V4.61108H7.03971H7.49805H7.72721V4.15275H7.49805H7.03971H6.81055ZM8.18555 4.15275V4.61108H8.41471H8.87305H9.10221V4.15275H8.87305H8.41471H8.18555ZM9.56055 4.15275V4.61108H9.78971H10.248H10.4772V4.15275H10.248H9.78971H9.56055ZM10.9069 4.66838L10.4486 4.78296L10.5059 4.9978L10.6204 5.44181L10.6777 5.67098L11.1217 5.5564L11.0645 5.32723L10.9499 4.88322L10.9069 4.66838ZM3.90299 4.88322V5.11239V5.57072V5.79989H4.36133V5.57072V5.11239V4.88322H3.90299ZM5.00317 5.05241C4.99448 5.05281 4.98581 5.05371 4.97721 5.05509C4.92946 5.07074 4.88818 5.10164 4.85971 5.14305C4.83124 5.18446 4.81717 5.23407 4.81966 5.28426V6.61629V7.934C4.81906 7.94354 4.81906 7.95311 4.81966 7.96265V14.408V14.4223C4.81951 14.4271 4.81951 14.4318 4.81966 14.4366C4.81953 14.4411 4.81953 14.4456 4.81966 14.45C4.81951 14.4548 4.81951 14.4596 4.81966 14.4644C4.81951 14.4691 4.81951 14.4739 4.81966 14.4787C4.82443 14.4788 4.82921 14.4788 4.83398 14.4787C4.83264 14.493 4.83264 14.5074 4.83398 14.5216C4.83876 14.5218 4.84353 14.5218 4.84831 14.5216C4.84816 14.5264 4.84816 14.5312 4.84831 14.536C4.85308 14.5361 4.85786 14.5361 4.86263 14.536C4.86248 14.5407 4.86248 14.5455 4.86263 14.5503C4.86719 14.5553 4.87197 14.5601 4.87695 14.5646C4.8768 14.5694 4.8768 14.5742 4.87695 14.5789C4.88173 14.5791 4.8865 14.5791 4.89128 14.5789C4.89113 14.5837 4.89113 14.5885 4.89128 14.5933C4.89605 14.5934 4.90083 14.5934 4.9056 14.5933C4.90545 14.598 4.90545 14.6028 4.9056 14.6076C4.91037 14.6077 4.91515 14.6077 4.91992 14.6076C4.95756 14.6346 5.0025 14.6496 5.04883 14.6506H8.1569C8.78855 16.2631 9.84415 17.217 10.8926 17.8446C10.9274 17.8647 10.9669 17.8753 11.0072 17.8753C11.0474 17.8753 11.0869 17.8647 11.1217 17.8446C12.1588 17.2238 13.222 16.2657 13.8574 14.6506H16.9655C16.99 14.6496 17.0142 14.6448 17.0371 14.6362C17.0419 14.6364 17.0467 14.6364 17.0514 14.6362C17.0668 14.6283 17.0812 14.6187 17.0944 14.6076C17.1346 14.5796 17.1647 14.5394 17.1803 14.493C17.1805 14.4882 17.1805 14.4835 17.1803 14.4787C17.1858 14.4695 17.1906 14.4599 17.1947 14.45C17.1952 14.4408 17.1952 14.4315 17.1947 14.4223V14.408V7.96265C17.196 7.94836 17.196 7.93397 17.1947 7.91968V6.61629C17.1947 6.55552 17.1705 6.49723 17.1275 6.45425C17.0846 6.41128 17.0263 6.38713 16.9655 6.38713H10.334L10.0905 5.25562C10.0804 5.20255 10.0518 5.15476 10.0099 5.12069C9.96796 5.08663 9.91535 5.06847 9.86133 5.06942H6.79622L5.04883 5.05509C5.03374 5.05268 5.01844 5.05178 5.00317 5.05241ZM11.265 5.4991V5.95744H11.4941H11.9525H12.1816V5.4991H11.9525H11.4941H11.265ZM12.64 5.4991V5.95744H12.8691H13.3275H13.5566V5.4991H13.3275H12.8691H12.64ZM14.015 5.4991V5.95744H14.2441H14.7025H14.9316V5.4991H14.7025H14.2441H14.015ZM15.39 5.4991V5.95744H15.6191H16.0775H16.3066V5.4991H16.0775H15.6191H15.39ZM16.765 5.4991V5.95744H16.9941H17.4525H17.6816V5.4991H17.4525H16.9941H16.765ZM5.278 5.51343L6.79622 5.52775H9.67513L9.93294 6.67358C9.94533 6.72163 9.97296 6.76435 10.0117 6.79535C10.0504 6.82634 10.0982 6.84392 10.1478 6.84546H16.7363V7.73348H5.278V6.61629V5.51343ZM17.6387 6.00041V6.22957V6.68791V6.91707H18.097V6.68791V6.22957V6.00041H17.6387ZM3.90299 6.25822V6.48739V6.94572V7.17489H4.36133V6.94572V6.48739V6.25822H3.90299ZM17.6387 7.37541V7.60457V8.06291V8.29207H18.097V8.06291V7.60457V7.37541H17.6387ZM3.90299 7.63322V7.86239V8.32072V8.54989H4.36133V8.32072V7.86239V7.63322H3.90299ZM5.278 8.19181H16.7363V14.1788H14.015C14.2809 13.3391 14.4447 12.3363 14.4447 11.1423C14.4447 11.0816 14.4205 11.0233 14.3775 10.9803C14.3346 10.9373 14.2763 10.9132 14.2155 10.9132C12.8155 10.9132 11.8168 10.3889 11.0931 10.1111C11.0439 10.0878 10.9881 10.0827 10.9355 10.0968C10.9306 10.1013 10.9258 10.1061 10.9212 10.1111C10.1094 10.4117 8.85448 10.9132 7.79883 10.9132C7.73805 10.9132 7.67977 10.9373 7.63679 10.9803C7.59381 11.0233 7.56967 11.0816 7.56966 11.1423C7.56966 12.3395 7.7352 13.34 7.99935 14.1788H5.278V8.19181ZM17.6387 8.75041V8.97957V9.43791V9.66707H18.097V9.43791V8.97957V8.75041H17.6387ZM3.90299 9.00822V9.23739V9.69572V9.92489H4.36133V9.69572V9.23739V9.00822H3.90299ZM17.6387 10.1254V10.3546V10.8129V11.0421H18.097V10.8129V10.3546V10.1254H17.6387ZM3.90299 10.3832V10.6124V11.0707V11.2999H4.36133V11.0707V10.6124V10.3832H3.90299ZM11.0072 10.5694C11.6397 10.8204 12.645 11.2666 13.972 11.3285C13.9163 14.8588 12.4817 16.4554 11.0072 17.3728C9.51471 16.4455 8.09733 14.8698 8.04232 11.3285C9.13362 11.2655 10.2626 10.8478 11.0072 10.5694ZM17.6387 11.5004V11.7296V12.1879V12.4171H18.097V12.1879V11.7296V11.5004H17.6387ZM3.90299 11.7582V11.9874V12.4457V12.6749H4.36133V12.4457V11.9874V11.7582H3.90299ZM17.6387 12.8754V13.1046V13.5629V13.7921H18.097V13.5629V13.1046V12.8754H17.6387ZM11.7949 13.0473L10.6921 14.1072L10.2194 13.6488L9.9043 13.9783L10.5345 14.5798L10.6921 14.7231L10.8496 14.5798L12.11 13.391L11.7949 13.0473ZM3.90299 13.1332V13.3624V13.8207V14.0499H4.36133V13.8207V13.3624V13.1332H3.90299ZM17.6387 14.2504V14.4796V14.9379V15.1671H18.097V14.9379V14.4796V14.2504H17.6387ZM3.90299 14.5082V14.7374V15.1957V15.4249H4.36133V15.1957V14.7374V14.5082H3.90299ZM4.66211 15.1384V15.5968H4.89128H5.34961H5.57878V15.1384H5.34961H4.89128H4.66211ZM6.03711 15.1384V15.5968H6.26628H6.72461H6.95378V15.1384H6.72461H6.26628H6.03711ZM7.41211 15.1384V15.5968H7.64128H7.69857H7.92773V15.1384H7.69857H7.64128H7.41211ZM14.2012 15.1384V15.5968H14.4303H14.6165H14.8457V15.1384H14.6165H14.4303H14.2012ZM15.304 15.1384V15.5968H15.5332H15.9915H16.2207V15.1384H15.9915H15.5332H15.304ZM16.679 15.1384V15.5968H16.9082H17.3665H17.5957V15.1384H17.3665H16.9082H16.679Z"
    fill="black" />
</svg>