<svg width="520" height="436" viewBox="0 0 520 436" fill="none" xmlns="http://www.w3.org/2000/svg">
  <g clip-path="url(#clip0)">
    <path
      d="M504.744 91.7864C477.349 19.7108 415.562 -13.5425 341.96 5.12009C281.751 20.3895 253.128 71.2875 221.142 89.5609C174.745 116.138 104.915 105.998 44.3563 159.86C5.95326 194.012 10.4243 272.295 46.5419 328.522C75.0847 372.903 147.779 416.755 214.206 376.117C304.724 320.688 272.19 240.289 312.888 212.684C357.798 182.215 409.235 221.347 476.291 188.283C502.947 175.079 520.173 132.375 504.744 91.7864Z"
      fill="#29538E" />
    <path opacity="0.7"
      d="M504.744 91.7864C477.349 19.7108 415.562 -13.5425 341.96 5.12009C281.751 20.3895 253.128 71.2875 221.142 89.5609C174.745 116.138 104.915 105.998 44.3563 159.86C5.95326 194.012 10.4243 272.295 46.5419 328.522C75.0847 372.903 147.779 416.755 214.206 376.117C304.724 320.688 272.19 240.289 312.888 212.684C357.798 182.215 409.235 221.347 476.291 188.283C502.947 175.079 520.173 132.375 504.744 91.7864Z"
      fill="white" />
    <path
      d="M141.233 435.817C191.831 435.817 232.849 432.819 232.849 429.12C232.849 425.422 191.831 422.424 141.233 422.424C90.6343 422.424 49.6162 425.422 49.6162 429.12C49.6162 432.819 90.6343 435.817 141.233 435.817Z"
      fill="#29538E" />
    <path d="M-0.0439453 415.697H519.595" stroke="#263238" stroke-width="1.25903" stroke-linecap="round"
      stroke-linejoin="round" />
    <path
      d="M473.367 296.605H456.271V295.088C456.27 294.381 456.414 293.681 456.692 293.031C456.971 292.382 457.379 291.796 457.892 291.309C458.405 290.822 459.011 290.445 459.675 290.201C460.338 289.957 461.045 289.85 461.751 289.888L468.447 290.258C469.775 290.329 471.026 290.907 471.941 291.872C472.856 292.838 473.367 294.117 473.367 295.447V296.605Z"
      fill="#29538E" />
    <path opacity="0.8"
      d="M473.367 296.605H456.271V295.088C456.27 294.381 456.414 293.681 456.692 293.031C456.971 292.382 457.379 291.796 457.892 291.309C458.405 290.822 459.011 290.445 459.675 290.201C460.338 289.957 461.045 289.85 461.751 289.888L468.447 290.258C469.775 290.329 471.026 290.907 471.941 291.872C472.856 292.838 473.367 294.117 473.367 295.447V296.605Z"
      fill="white" />
    <path
      d="M473.367 296.605H456.271V295.088C456.27 294.381 456.414 293.681 456.692 293.031C456.971 292.382 457.379 291.796 457.892 291.309C458.405 290.822 459.011 290.445 459.675 290.201C460.338 289.957 461.045 289.85 461.751 289.888L468.447 290.258C469.775 290.329 471.026 290.907 471.941 291.872C472.856 292.838 473.367 294.117 473.367 295.447V296.605Z"
      stroke="#263238" stroke-width="1.25903" stroke-linecap="round" stroke-linejoin="round" />
    <path
      d="M427.21 261.266C427.179 260.618 426.9 260.006 426.429 259.558C425.959 259.11 425.335 258.861 424.685 258.861H407.41C406.761 258.863 406.138 259.113 405.668 259.561C405.198 260.008 404.918 260.619 404.885 261.266L409.007 297.274H434.795L427.21 261.266Z"
      fill="#29538E" stroke="#263238" stroke-width="1.25903" stroke-linecap="round" stroke-linejoin="round" />
    <path
      d="M474.125 205.917H467.688L460.463 273.881H466.89C467.42 273.869 467.928 273.666 468.322 273.311C468.716 272.956 468.969 272.471 469.036 271.945L475.872 207.843C475.906 207.598 475.885 207.348 475.812 207.111C475.739 206.874 475.615 206.657 475.448 206.473C475.282 206.289 475.077 206.144 474.848 206.048C474.62 205.952 474.373 205.908 474.125 205.917Z"
      fill="#29538E" stroke="#263238" stroke-width="1.25903" stroke-linecap="round" stroke-linejoin="round" />
    <path
      d="M464.176 273.881H367.699C367.453 273.886 367.208 273.838 366.982 273.739C366.756 273.641 366.554 273.495 366.39 273.311C366.226 273.127 366.104 272.909 366.032 272.674C365.959 272.438 365.939 272.189 365.973 271.945L372.799 207.813C372.864 207.289 373.115 206.806 373.508 206.452C373.9 206.098 374.406 205.898 374.935 205.887H471.411C471.657 205.881 471.902 205.928 472.128 206.025C472.354 206.122 472.556 206.268 472.72 206.451C472.885 206.634 473.007 206.851 473.079 207.086C473.151 207.321 473.171 207.57 473.138 207.813L466.311 271.945C466.247 272.47 465.996 272.955 465.604 273.31C465.212 273.666 464.705 273.868 464.176 273.881Z"
      fill="#29538E" />
    <path opacity="0.4"
      d="M464.176 273.881H367.699C367.453 273.886 367.208 273.838 366.982 273.739C366.756 273.641 366.554 273.495 366.39 273.311C366.226 273.127 366.104 272.909 366.032 272.674C365.959 272.438 365.939 272.189 365.973 271.945L372.799 207.813C372.864 207.289 373.115 206.806 373.508 206.452C373.9 206.098 374.406 205.898 374.935 205.887H471.411C471.657 205.881 471.902 205.928 472.128 206.025C472.354 206.122 472.556 206.268 472.72 206.451C472.885 206.634 473.007 206.851 473.079 207.086C473.151 207.321 473.171 207.57 473.138 207.813L466.311 271.945C466.247 272.47 465.996 272.955 465.604 273.31C465.212 273.666 464.705 273.868 464.176 273.881Z"
      fill="white" />
    <path
      d="M464.176 273.881H367.699C367.453 273.886 367.208 273.838 366.982 273.739C366.756 273.641 366.554 273.495 366.39 273.311C366.226 273.127 366.104 272.909 366.032 272.674C365.959 272.438 365.939 272.189 365.973 271.945L372.799 207.813C372.864 207.289 373.115 206.806 373.508 206.452C373.9 206.098 374.406 205.898 374.935 205.887H471.411C471.657 205.881 471.902 205.928 472.128 206.025C472.354 206.122 472.556 206.268 472.72 206.451C472.885 206.634 473.007 206.851 473.079 207.086C473.151 207.321 473.171 207.57 473.138 207.813L466.311 271.945C466.247 272.47 465.996 272.955 465.604 273.31C465.212 273.666 464.705 273.868 464.176 273.881Z"
      stroke="#263238" stroke-width="1.25903" stroke-linecap="round" stroke-linejoin="round" />
    <path
      d="M435.743 294.471H404.016C403.646 294.471 403.29 294.618 403.028 294.88C402.766 295.142 402.619 295.497 402.619 295.868C402.619 296.239 402.766 296.596 403.028 296.859C403.289 297.123 403.645 297.272 404.016 297.275H435.733C436.104 297.272 436.46 297.123 436.721 296.859C436.983 296.596 437.13 296.239 437.13 295.868C437.13 295.499 436.984 295.145 436.724 294.883C436.464 294.622 436.112 294.473 435.743 294.471Z"
      fill="#29538E" stroke="#263238" stroke-width="1.25903" stroke-linecap="round" stroke-linejoin="round" />
    <path
      d="M462.369 267.634H371.392C371.177 267.639 370.963 267.597 370.766 267.511C370.569 267.426 370.392 267.298 370.249 267.138C370.106 266.978 369.999 266.788 369.936 266.583C369.873 266.377 369.856 266.16 369.885 265.947L375.873 209.99C375.928 209.531 376.147 209.107 376.49 208.797C376.833 208.487 377.277 208.312 377.739 208.303H468.687C468.901 208.3 469.114 208.343 469.31 208.429C469.506 208.515 469.682 208.642 469.825 208.802C469.968 208.962 470.075 209.151 470.138 209.356C470.202 209.561 470.221 209.777 470.194 209.99L464.206 265.947C464.149 266.401 463.933 266.819 463.597 267.128C463.261 267.437 462.826 267.616 462.369 267.634Z"
      fill="#29538E" />
    <path opacity="0.8"
      d="M462.369 267.634H371.392C371.177 267.639 370.963 267.597 370.766 267.511C370.569 267.426 370.392 267.298 370.249 267.138C370.106 266.978 369.999 266.788 369.936 266.583C369.873 266.377 369.856 266.16 369.885 265.947L375.873 209.99C375.928 209.531 376.147 209.107 376.49 208.797C376.833 208.487 377.277 208.312 377.739 208.303H468.687C468.901 208.3 469.114 208.343 469.31 208.429C469.506 208.515 469.682 208.642 469.825 208.802C469.968 208.962 470.075 209.151 470.138 209.356C470.202 209.561 470.221 209.777 470.194 209.99L464.206 265.947C464.149 266.401 463.933 266.819 463.597 267.128C463.261 267.437 462.826 267.616 462.369 267.634Z"
      fill="white" />
    <path
      d="M462.369 267.634H371.392C371.177 267.639 370.963 267.597 370.766 267.511C370.569 267.426 370.392 267.298 370.249 267.138C370.106 266.978 369.999 266.788 369.936 266.583C369.873 266.377 369.856 266.16 369.885 265.947L375.873 209.99C375.928 209.531 376.147 209.107 376.49 208.797C376.833 208.487 377.277 208.312 377.739 208.303H468.687C468.901 208.3 469.114 208.343 469.31 208.429C469.506 208.515 469.682 208.642 469.825 208.802C469.968 208.962 470.075 209.151 470.138 209.356C470.202 209.561 470.221 209.777 470.194 209.99L464.206 265.947C464.149 266.401 463.933 266.819 463.597 267.128C463.261 267.437 462.826 267.616 462.369 267.634Z"
      stroke="#263238" stroke-width="1.25903" stroke-linecap="round" stroke-linejoin="round" />
    <path
      d="M257.131 306.326H264.566V414.2C264.566 414.594 264.409 414.973 264.13 415.251C263.852 415.53 263.473 415.687 263.079 415.687H258.628C258.233 415.687 257.855 415.53 257.576 415.251C257.298 414.973 257.141 414.594 257.141 414.2V306.326H257.131Z"
      fill="#29538E" stroke="#263238" stroke-width="1.25903" stroke-linecap="round" stroke-linejoin="round" />
    <path d="M487.319 296.605H422.868V306.326H487.319V296.605Z" fill="#29538E" />
    <path opacity="0.4" d="M487.319 296.605H422.868V306.326H487.319V296.605Z" fill="white" />
    <path d="M487.319 296.605H422.868V306.326H487.319V296.605Z" stroke="#263238" stroke-width="1.25903"
      stroke-linecap="round" stroke-linejoin="round" />
    <path
      d="M303.218 306.326H310.653V414.2C310.653 414.594 310.496 414.973 310.217 415.251C309.938 415.53 309.56 415.687 309.166 415.687H304.715C304.519 415.688 304.324 415.651 304.143 415.577C303.961 415.503 303.796 415.393 303.657 415.255C303.518 415.117 303.407 414.952 303.332 414.771C303.257 414.59 303.218 414.396 303.218 414.2V306.326Z"
      fill="#29538E" stroke="#263238" stroke-width="1.25903" stroke-linecap="round" stroke-linejoin="round" />
    <path
      d="M475.593 306.326H483.028V414.2C483.028 414.594 482.871 414.973 482.592 415.251C482.313 415.53 481.935 415.687 481.541 415.687H477.09C476.695 415.687 476.317 415.53 476.038 415.251C475.759 414.973 475.603 414.594 475.603 414.2V306.326H475.593Z"
      fill="#29538E" stroke="#263238" stroke-width="1.25903" stroke-linecap="round" stroke-linejoin="round" />
    <path d="M441.251 296.605H252.829V306.326H441.251V296.605Z" fill="#29538E" />
    <path opacity="0.7" d="M441.251 296.605H252.829V306.326H441.251V296.605Z" fill="white" />
    <path d="M441.251 296.605H252.829V306.326H441.251V296.605Z" stroke="#263238" stroke-width="1.25903"
      stroke-linecap="round" stroke-linejoin="round" />
    <path
      d="M429.524 306.326H436.95V414.2C436.95 414.594 436.793 414.973 436.514 415.251C436.235 415.53 435.857 415.687 435.463 415.687H430.962C430.567 415.687 430.189 415.53 429.91 415.251C429.631 414.973 429.475 414.594 429.475 414.2V306.326H429.524Z"
      fill="#29538E" stroke="#263238" stroke-width="1.25903" stroke-linecap="round" stroke-linejoin="round" />
    <path d="M426.161 292.604H372.369V296.605H426.161V292.604Z" fill="#29538E" />
    <path opacity="0.4" d="M426.161 292.604H372.369V296.605H426.161V292.604Z" fill="white" />
    <path d="M426.161 292.604H372.369V296.605H426.161V292.604Z" stroke="#263238" stroke-width="1.25903"
      stroke-linecap="round" stroke-linejoin="round" />
    <path d="M25.844 415.697H115.484L115.484 296.416H25.844L25.844 415.697Z" fill="#29538E" />
    <path opacity="0.7" d="M25.844 415.697H115.484L115.484 296.416H25.844L25.844 415.697Z" fill="white" />
    <path d="M25.844 415.697H115.484L115.484 296.416H25.844L25.844 415.697Z" stroke="#263238" stroke-width="1.25903"
      stroke-linecap="round" stroke-linejoin="round" />
    <path d="M8.73803 415.697H25.8438L25.8437 296.416H8.73803L8.73803 415.697Z" fill="#29538E" />
    <path opacity="0.3" d="M8.73803 415.697H25.8438L25.8437 296.416H8.73803L8.73803 415.697Z" fill="white" />
    <path d="M8.73803 415.697H25.8438L25.8437 296.416H8.73803L8.73803 415.697Z" stroke="#263238" stroke-width="1.25903"
      stroke-linecap="round" stroke-linejoin="round" />
    <path d="M31.6624 334.23H109.207V305.259H31.6624V334.23Z" fill="white" stroke="#263238" stroke-width="1.25903"
      stroke-linecap="round" stroke-linejoin="round" />
    <path d="M31.6624 366.355H109.207V337.384H31.6624V366.355Z" fill="white" stroke="#263238" stroke-width="1.25903"
      stroke-linecap="round" stroke-linejoin="round" />
    <path d="M31.6624 398.492H109.207V369.52H31.6624V398.492Z" fill="white" stroke="#263238" stroke-width="1.25903"
      stroke-linecap="round" stroke-linejoin="round" />
    <path
      d="M67.2012 319.788C67.2012 320.428 67.3908 321.053 67.7461 321.585C68.1014 322.116 68.6064 322.531 69.1973 322.776C69.7881 323.02 70.4383 323.084 71.0655 322.96C71.6928 322.835 72.2689 322.527 72.7211 322.075C73.1734 321.622 73.4813 321.046 73.6061 320.419C73.7308 319.792 73.6668 319.142 73.4221 318.551C73.1773 317.96 72.7629 317.455 72.2311 317.1C71.6994 316.744 71.0742 316.555 70.4347 316.555C70.0101 316.555 69.5896 316.638 69.1973 316.801C68.805 316.963 68.4485 317.202 68.1482 317.502C67.848 317.802 67.6098 318.158 67.4473 318.551C67.2848 318.943 67.2012 319.364 67.2012 319.788Z"
      fill="#29538E" stroke="#263238" stroke-width="1.25903" stroke-linecap="round" stroke-linejoin="round" />
    <path
      d="M67.2012 351.876C67.1992 352.516 67.3872 353.142 67.7413 353.675C68.0954 354.208 68.5997 354.624 69.1904 354.87C69.781 355.117 70.4315 355.182 71.0594 355.058C71.6873 354.935 72.2644 354.628 72.7176 354.176C73.1708 353.724 73.4798 353.148 73.6053 352.52C73.7309 351.893 73.6675 351.242 73.423 350.651C73.1786 350.059 72.7641 349.554 72.2322 349.198C71.7002 348.842 71.0747 348.652 70.4347 348.652C69.5789 348.652 68.7579 348.992 68.1518 349.596C67.5457 350.2 67.2038 351.02 67.2012 351.876Z"
      fill="#29538E" stroke="#263238" stroke-width="1.25903" stroke-linecap="round" stroke-linejoin="round" />
    <path
      d="M67.2012 384.011C67.2012 384.65 67.3908 385.276 67.7461 385.807C68.1014 386.339 68.6064 386.754 69.1973 386.998C69.7881 387.243 70.4383 387.307 71.0655 387.182C71.6928 387.058 72.2689 386.75 72.7211 386.297C73.1734 385.845 73.4813 385.269 73.6061 384.642C73.7308 384.014 73.6668 383.364 73.4221 382.773C73.1773 382.183 72.7629 381.678 72.2311 381.322C71.6994 380.967 71.0742 380.777 70.4347 380.777C70.0101 380.777 69.5896 380.861 69.1973 381.023C68.805 381.186 68.4485 381.424 68.1482 381.724C67.848 382.025 67.6098 382.381 67.4473 382.773C67.2848 383.166 67.2012 383.586 67.2012 384.011Z"
      fill="#29538E" stroke="#263238" stroke-width="1.25903" stroke-linecap="round" stroke-linejoin="round" />
    <path
      d="M414.175 73.9824H384.056V258.672H414.175C416.357 258.674 418.518 258.245 420.534 257.411C422.549 256.577 424.381 255.354 425.924 253.812C427.468 252.27 428.692 250.438 429.527 248.423C430.362 246.408 430.792 244.247 430.792 242.066V90.5891C430.792 88.4075 430.362 86.2472 429.527 84.2317C428.692 82.2162 427.468 80.3851 425.924 78.8429C424.381 77.3007 422.549 76.0777 420.534 75.2437C418.518 74.4097 416.357 73.9811 414.175 73.9824Z"
      fill="#263238" stroke="#263238" stroke-width="1.25903" stroke-linecap="round" stroke-linejoin="round" />
    <path
      d="M407.898 73.9824H154.975C145.803 73.9824 138.368 81.4175 138.368 90.5891V242.076C138.368 251.247 145.803 258.682 154.975 258.682H407.898C417.07 258.682 424.505 251.247 424.505 242.076V90.5891C424.505 81.4175 417.07 73.9824 407.898 73.9824Z"
      fill="#29538E" stroke="#263238" stroke-width="1.25903" stroke-linecap="round" stroke-linejoin="round" />
    <path
      d="M402.069 80.2402H399.505C397.079 80.2402 395.113 82.2062 395.113 84.6314V87.1963C395.113 89.6215 397.079 91.5875 399.505 91.5875H402.069C404.495 91.5875 406.461 89.6215 406.461 87.1963V84.6314C406.461 82.2062 404.495 80.2402 402.069 80.2402Z"
      fill="#999999" stroke="#263238" stroke-width="1.25903" stroke-linecap="round" stroke-linejoin="round" />
    <path opacity="0.5"
      d="M164.795 85.9189C164.795 87.0424 164.461 88.1407 163.837 89.0748C163.213 90.0088 162.325 90.7367 161.287 91.1662C160.249 91.5957 159.106 91.7075 158.005 91.4876C156.903 91.2677 155.891 90.7259 155.097 89.9307C154.303 89.1355 153.763 88.1228 153.545 87.0206C153.327 85.9184 153.441 84.7763 153.873 83.7388C154.304 82.7014 155.033 81.8152 155.969 81.1924C156.904 80.5696 158.003 80.2383 159.126 80.2402C159.871 80.2402 160.609 80.3872 161.298 80.6727C161.986 80.9582 162.611 81.3766 163.138 81.9041C163.664 82.4315 164.082 83.0576 164.366 83.7465C164.65 84.4354 164.796 85.1736 164.795 85.9189Z"
      fill="black" />
    <path
      d="M164.795 85.9189C164.795 87.0424 164.461 88.1407 163.837 89.0748C163.213 90.0088 162.325 90.7367 161.287 91.1662C160.249 91.5957 159.106 91.7075 158.005 91.4876C156.903 91.2677 155.891 90.7259 155.097 89.9307C154.303 89.1355 153.763 88.1228 153.545 87.0206C153.327 85.9184 153.441 84.7763 153.873 83.7388C154.304 82.7014 155.033 81.8152 155.969 81.1924C156.904 80.5696 158.003 80.2383 159.126 80.2402C159.871 80.2402 160.609 80.3872 161.298 80.6727C161.986 80.9582 162.611 81.3766 163.138 81.9041C163.664 82.4315 164.082 83.0576 164.366 83.7465C164.65 84.4354 164.796 85.1736 164.795 85.9189V85.9189Z"
      stroke="#263238" stroke-width="1.25903" stroke-linecap="round" stroke-linejoin="round" />
    <path opacity="0.5"
      d="M194.386 91.5975C197.522 91.5975 200.064 89.0551 200.064 85.9189C200.064 82.7826 197.522 80.2402 194.386 80.2402C191.249 80.2402 188.707 82.7826 188.707 85.9189C188.707 89.0551 191.249 91.5975 194.386 91.5975Z"
      fill="white" stroke="#263238" stroke-width="1.25903" stroke-linecap="round" stroke-linejoin="round" />
    <path
      d="M194.386 91.5975C197.522 91.5975 200.064 89.0551 200.064 85.9189C200.064 82.7826 197.522 80.2402 194.386 80.2402C191.249 80.2402 188.707 82.7826 188.707 85.9189C188.707 89.0551 191.249 91.5975 194.386 91.5975Z"
      stroke="#263238" stroke-width="1.25903" stroke-linecap="round" stroke-linejoin="round" />
    <path
      d="M176.751 91.5975C179.887 91.5975 182.43 89.0551 182.43 85.9189C182.43 82.7826 179.887 80.2402 176.751 80.2402C173.615 80.2402 171.072 82.7826 171.072 85.9189C171.072 89.0551 173.615 91.5975 176.751 91.5975Z"
      stroke="#263238" stroke-width="1.25903" stroke-linecap="round" stroke-linejoin="round" />
    <path
      d="M407.898 97.8535H154.985C149.975 97.8535 145.913 101.915 145.913 106.925V242.065C145.913 247.075 149.975 251.136 154.985 251.136H407.898C412.908 251.136 416.97 247.075 416.97 242.065V106.925C416.97 101.915 412.908 97.8535 407.898 97.8535Z"
      fill="#29538E" />
    <path opacity="0.3"
      d="M407.898 97.8535H154.985C149.975 97.8535 145.913 101.915 145.913 106.925V242.065C145.913 247.075 149.975 251.136 154.985 251.136H407.898C412.908 251.136 416.97 247.075 416.97 242.065V106.925C416.97 101.915 412.908 97.8535 407.898 97.8535Z"
      fill="black" />
    <path
      d="M407.898 97.8535H154.985C149.975 97.8535 145.913 101.915 145.913 106.925V242.065C145.913 247.075 149.975 251.136 154.985 251.136H407.898C412.908 251.136 416.97 247.075 416.97 242.065V106.925C416.97 101.915 412.908 97.8535 407.898 97.8535Z"
      stroke="#263238" stroke-width="1.25903" stroke-linecap="round" stroke-linejoin="round" />
    <path
      d="M223.577 104.131H154.975C153.437 104.131 152.19 105.377 152.19 106.915V242.064C152.19 243.602 153.437 244.849 154.975 244.849H223.577C225.115 244.849 226.362 243.602 226.362 242.064V106.915C226.362 105.377 225.115 104.131 223.577 104.131Z"
      fill="#999999" stroke="#263238" stroke-width="1.25903" stroke-linecap="round" stroke-linejoin="round" />
    <path
      d="M319.705 104.131H242.3C240.762 104.131 239.516 105.377 239.516 106.915V242.064C239.516 243.602 240.762 244.849 242.3 244.849H319.705C321.243 244.849 322.489 243.602 322.489 242.064V106.915C322.489 105.377 321.243 104.131 319.705 104.131Z"
      fill="#29538E" />
    <path opacity="0.8"
      d="M319.705 104.131H242.3C240.762 104.131 239.516 105.377 239.516 106.915V242.064C239.516 243.602 240.762 244.849 242.3 244.849H319.705C321.243 244.849 322.489 243.602 322.489 242.064V106.915C322.489 105.377 321.243 104.131 319.705 104.131Z"
      fill="white" />
    <path
      d="M319.705 104.131H242.3C240.762 104.131 239.516 105.377 239.516 106.915V242.064C239.516 243.602 240.762 244.849 242.3 244.849H319.705C321.243 244.849 322.489 243.602 322.489 242.064V106.915C322.489 105.377 321.243 104.131 319.705 104.131Z"
      stroke="#263238" stroke-width="1.25903" stroke-linecap="round" stroke-linejoin="round" />
    <path
      d="M403.926 104.131H341.361C340.688 104.133 340.043 104.403 339.568 104.88C339.093 105.357 338.826 106.003 338.826 106.676V114.34H406.461V106.676C406.461 106.003 406.194 105.357 405.719 104.88C405.244 104.403 404.599 104.133 403.926 104.131Z"
      fill="#29538E" stroke="#263238" stroke-width="1.25903" stroke-linecap="round" stroke-linejoin="round" />
    <path d="M397.928 107.215H403.956" stroke="#263238" stroke-width="1.25903" stroke-linecap="round"
      stroke-linejoin="round" />
    <path d="M397.928 109.23H403.956" stroke="#263238" stroke-width="1.25903" stroke-linecap="round"
      stroke-linejoin="round" />
    <path d="M403.956 111.236H397.928" stroke="#263238" stroke-width="1.25903" stroke-linecap="round"
      stroke-linejoin="round" />
    <path
      d="M372.648 114.34L371.082 107.983C370.81 106.884 370.177 105.907 369.286 105.209C368.394 104.511 367.294 104.131 366.161 104.131H341.361C340.688 104.133 340.043 104.403 339.568 104.88C339.093 105.357 338.826 106.003 338.826 106.676V144.969C338.826 145.641 339.093 146.286 339.569 146.761C340.044 147.237 340.689 147.504 341.361 147.504H403.926C404.598 147.504 405.243 147.237 405.718 146.761C406.194 146.286 406.461 145.641 406.461 144.969V114.34H372.648Z"
      fill="#999999" stroke="#263238" stroke-width="1.25903" stroke-linecap="round" stroke-linejoin="round" />
    <path
      d="M151.133 236.556H177.201C177.79 236.556 178.259 236.307 178.259 235.997V208.951C178.259 208.642 177.79 208.393 177.201 208.393H151.133C150.554 208.393 150.075 208.642 150.075 208.951V235.957C150.075 236.307 150.524 236.556 151.133 236.556Z"
      fill="#29538E" />
    <path opacity="0.3"
      d="M151.133 236.556H177.201C177.79 236.556 178.259 236.307 178.259 235.997V208.951C178.259 208.642 177.79 208.393 177.201 208.393H151.133C150.554 208.393 150.075 208.642 150.075 208.951V235.957C150.075 236.307 150.524 236.556 151.133 236.556Z"
      fill="black" />
    <path
      d="M151.133 236.556H177.201C177.79 236.556 178.259 236.307 178.259 235.997V208.951C178.259 208.642 177.79 208.393 177.201 208.393H151.133C150.554 208.393 150.075 208.642 150.075 208.951V235.957C150.075 236.307 150.524 236.556 151.133 236.556Z"
      stroke="#263238" stroke-width="1.25903" stroke-linecap="round" stroke-linejoin="round" />
    <path
      d="M183.767 236.556H209.835C210.413 236.556 210.893 236.307 210.893 235.997V208.951C210.893 208.642 210.413 208.393 209.835 208.393H183.767C183.178 208.393 182.709 208.642 182.709 208.951V235.957C182.709 236.307 183.178 236.556 183.767 236.556Z"
      fill="#29538E" stroke="#263238" stroke-width="1.25903" stroke-linecap="round" stroke-linejoin="round" />
    <path
      d="M163.698 203.742H189.765C190.354 203.742 190.823 203.492 190.823 203.183V176.137C190.823 175.828 190.354 175.578 189.765 175.578H163.698C163.119 175.578 162.64 175.828 162.64 176.137V203.183C162.64 203.492 163.119 203.742 163.698 203.742Z"
      fill="#29538E" stroke="#263238" stroke-width="1.25903" stroke-linecap="round" stroke-linejoin="round" />
    <path
      d="M196.332 203.742H222.38C222.959 203.742 223.438 203.492 223.438 203.183V176.137C223.438 175.828 222.959 175.578 222.38 175.578H196.332C195.743 175.578 195.274 175.828 195.274 176.137V203.183C195.274 203.492 195.743 203.742 196.332 203.742Z"
      fill="#29538E" stroke="#263238" stroke-width="1.25903" stroke-linecap="round" stroke-linejoin="round" />
    <path
      d="M161.183 170.927H187.251C187.839 170.927 188.318 170.678 188.318 170.368V143.323C188.318 143.013 187.839 142.764 187.251 142.764H161.183C160.604 142.764 160.125 143.013 160.125 143.323V170.368C160.125 170.678 160.604 170.927 161.183 170.927Z"
      fill="#29538E" />
    <path opacity="0.5"
      d="M161.183 170.927H187.251C187.839 170.927 188.318 170.678 188.318 170.368V143.323C188.318 143.013 187.839 142.764 187.251 142.764H161.183C160.604 142.764 160.125 143.013 160.125 143.323V170.368C160.125 170.678 160.604 170.927 161.183 170.927Z"
      fill="white" />
    <path
      d="M161.183 170.927H187.251C187.839 170.927 188.318 170.678 188.318 170.368V143.323C188.318 143.013 187.839 142.764 187.251 142.764H161.183C160.604 142.764 160.125 143.013 160.125 143.323V170.368C160.125 170.678 160.604 170.927 161.183 170.927Z"
      stroke="#263238" stroke-width="1.25903" stroke-linecap="round" stroke-linejoin="round" />
    <path
      d="M193.817 170.927H219.884C220.473 170.927 220.942 170.678 220.942 170.368V143.323C220.942 143.013 220.473 142.764 219.884 142.764H193.817C193.228 142.764 192.759 143.013 192.759 143.323V170.368C192.759 170.678 193.228 170.927 193.817 170.927Z"
      fill="#29538E" stroke="#263238" stroke-width="1.25903" stroke-linecap="round" stroke-linejoin="round" />
    <path
      d="M161.183 138.153H187.251C187.839 138.153 188.318 137.903 188.318 137.594V110.508C188.318 110.199 187.839 109.949 187.251 109.949H161.183C160.604 109.949 160.125 110.199 160.125 110.508V137.554C160.125 137.863 160.604 138.153 161.183 138.153Z"
      fill="#29538E" stroke="#263238" stroke-width="1.25903" stroke-linecap="round" stroke-linejoin="round" />
    <path
      d="M193.817 138.153H219.884C220.473 138.153 220.942 137.903 220.942 137.594V110.508C220.942 110.199 220.473 109.949 219.884 109.949H193.817C193.228 109.949 192.759 110.199 192.759 110.508V137.554C192.759 137.863 193.228 138.153 193.817 138.153Z"
      fill="#29538E" />
    <path opacity="0.7"
      d="M193.817 138.153H219.884C220.473 138.153 220.942 137.903 220.942 137.594V110.508C220.942 110.199 220.473 109.949 219.884 109.949H193.817C193.228 109.949 192.759 110.199 192.759 110.508V137.554C192.759 137.863 193.228 138.153 193.817 138.153Z"
      fill="white" />
    <path
      d="M193.817 138.153H219.884C220.473 138.153 220.942 137.903 220.942 137.594V110.508C220.942 110.199 220.473 109.949 219.884 109.949H193.817C193.228 109.949 192.759 110.199 192.759 110.508V137.554C192.759 137.863 193.228 138.153 193.817 138.153Z"
      stroke="#263238" stroke-width="1.25903" stroke-linecap="round" stroke-linejoin="round" />
    <path
      d="M398.397 212.006H335.843C335.169 212.011 334.525 212.281 334.049 212.757C333.573 213.233 333.303 213.877 333.298 214.551V252.924C333.298 253.258 333.364 253.589 333.492 253.898C333.619 254.207 333.807 254.487 334.043 254.723C334.28 254.96 334.56 255.147 334.869 255.275C335.178 255.403 335.509 255.469 335.843 255.469H398.397C399.071 255.466 399.717 255.197 400.194 254.72C400.671 254.244 400.94 253.598 400.942 252.924V214.581C400.945 214.244 400.881 213.911 400.754 213.599C400.628 213.288 400.441 213.004 400.205 212.765C399.968 212.526 399.687 212.335 399.377 212.205C399.066 212.075 398.734 212.007 398.397 212.006Z"
      fill="#263238" stroke="#263238" stroke-width="1.25903" stroke-linecap="round" stroke-linejoin="round" />
    <path
      d="M394.185 210.787H331.631C330.958 210.787 330.312 211.054 329.835 211.529C329.358 212.004 329.089 212.649 329.086 213.322V220.987H396.73V213.322C396.728 212.649 396.458 212.004 395.981 211.529C395.504 211.054 394.859 210.787 394.185 210.787Z"
      fill="#29538E" stroke="#263238" stroke-width="1.25903" stroke-linecap="round" stroke-linejoin="round" />
    <path d="M388.188 213.881H394.215" stroke="#263238" stroke-width="1.25903" stroke-linecap="round"
      stroke-linejoin="round" />
    <path d="M388.188 215.887H394.215" stroke="#263238" stroke-width="1.25903" stroke-linecap="round"
      stroke-linejoin="round" />
    <path d="M394.215 217.893H388.188" stroke="#263238" stroke-width="1.25903" stroke-linecap="round"
      stroke-linejoin="round" />
    <path
      d="M362.908 220.987L361.351 214.639C361.079 213.54 360.447 212.563 359.555 211.865C358.664 211.167 357.564 210.787 356.431 210.787H331.631C330.958 210.787 330.312 211.054 329.835 211.529C329.358 212.004 329.089 212.649 329.086 213.322V251.615C329.089 252.289 329.358 252.935 329.834 253.412C330.311 253.889 330.957 254.158 331.631 254.16H394.185C394.86 254.16 395.508 253.892 395.985 253.415C396.462 252.938 396.73 252.29 396.73 251.615V220.987H362.908Z"
      fill="#999999" stroke="#263238" stroke-width="1.25903" stroke-linecap="round" stroke-linejoin="round" />
    <path
      d="M395.872 154.042H333.307C332.889 154.031 332.474 154.124 332.099 154.312C331.725 154.5 331.403 154.777 331.162 155.12C330.882 155.543 330.732 156.039 330.732 156.547V194.83C330.732 195.503 330.999 196.149 331.474 196.626C331.949 197.103 332.594 197.372 333.267 197.375H395.832C396.505 197.372 397.15 197.103 397.625 196.626C398.1 196.149 398.367 195.503 398.367 194.83V156.587C398.367 155.92 398.106 155.281 397.639 154.805C397.173 154.329 396.538 154.055 395.872 154.042Z"
      fill="#263238" stroke="#263238" stroke-width="1.25903" stroke-linecap="round" stroke-linejoin="round" />
    <path
      d="M394.185 152.205H331.631C330.958 152.205 330.312 152.472 329.835 152.947C329.358 153.422 329.089 154.067 329.086 154.74V162.405H396.73V154.74C396.728 154.067 396.458 153.422 395.981 152.947C395.504 152.472 394.859 152.205 394.185 152.205Z"
      fill="#29538E" stroke="#263238" stroke-width="1.25903" stroke-linecap="round" stroke-linejoin="round" />
    <path d="M388.188 155.299H394.215" stroke="#263238" stroke-width="1.25903" stroke-linecap="round"
      stroke-linejoin="round" />
    <path d="M388.188 157.305H394.215" stroke="#263238" stroke-width="1.25903" stroke-linecap="round"
      stroke-linejoin="round" />
    <path d="M394.215 159.311H388.188" stroke="#263238" stroke-width="1.25903" stroke-linecap="round"
      stroke-linejoin="round" />
    <path
      d="M362.908 162.405L361.351 156.057C361.079 154.958 360.447 153.981 359.555 153.283C358.664 152.585 357.564 152.205 356.431 152.205H331.631C330.958 152.205 330.312 152.472 329.835 152.947C329.358 153.422 329.089 154.067 329.086 154.74V193.043C329.086 193.718 329.354 194.365 329.831 194.843C330.309 195.32 330.956 195.588 331.631 195.588H394.185C394.86 195.588 395.508 195.32 395.985 194.843C396.462 194.365 396.73 193.718 396.73 193.043V162.405H362.908Z"
      fill="#999999" stroke="#263238" stroke-width="1.25903" stroke-linecap="round" stroke-linejoin="round" />
    <path
      d="M159.656 270.189H185.723C186.312 270.189 186.781 269.939 186.781 269.63V242.584C186.781 242.275 186.312 242.025 185.723 242.025H159.656C159.077 242.025 158.598 242.275 158.598 242.584V269.63C158.598 269.939 159.077 270.189 159.656 270.189Z"
      fill="#29538E" stroke="#263238" stroke-width="1.25903" stroke-linecap="round" stroke-linejoin="round" />
    <path
      d="M360.373 244.52H297.809C297.134 244.52 296.486 244.788 296.009 245.265C295.532 245.742 295.264 246.389 295.264 247.064V254.719H362.908V247.064C362.908 246.391 362.641 245.745 362.166 245.268C361.691 244.791 361.046 244.522 360.373 244.52Z"
      fill="#29538E" stroke="#263238" stroke-width="1.25903" stroke-linecap="round" stroke-linejoin="round" />
    <path d="M354.365 247.613H360.393" stroke="#263238" stroke-width="1.25903" stroke-linecap="round"
      stroke-linejoin="round" />
    <path d="M354.365 249.619H360.393" stroke="#263238" stroke-width="1.25903" stroke-linecap="round"
      stroke-linejoin="round" />
    <path d="M360.393 251.625H354.365" stroke="#263238" stroke-width="1.25903" stroke-linecap="round"
      stroke-linejoin="round" />
    <path
      d="M329.086 254.719L327.529 248.372C327.257 247.272 326.625 246.296 325.733 245.598C324.841 244.899 323.741 244.52 322.609 244.52H297.809C297.134 244.52 296.486 244.788 296.009 245.265C295.532 245.742 295.264 246.389 295.264 247.064V285.348C295.264 286.023 295.532 286.67 296.009 287.147C296.486 287.624 297.134 287.893 297.809 287.893H360.373C361.046 287.89 361.691 287.621 362.166 287.144C362.641 286.667 362.908 286.021 362.908 285.348V254.719H329.086Z"
      fill="#999999" stroke="#263238" stroke-width="1.25903" stroke-linecap="round" stroke-linejoin="round" />
    <path d="M406.461 66.8262H411.172" stroke="#263238" stroke-width="1.25903" stroke-linecap="round"
      stroke-linejoin="round" />
    <path d="M388.188 66.8262H400.942" stroke="#263238" stroke-width="1.25903" stroke-linecap="round"
      stroke-linejoin="round" />
    <path d="M250.982 66.8262H377.05" stroke="#263238" stroke-width="1.25903" stroke-linecap="round"
      stroke-linejoin="round" />
    <path d="M236.741 66.8262H244.276" stroke="#263238" stroke-width="1.25903" stroke-linecap="round"
      stroke-linejoin="round" />
    <path
      d="M307.909 219.791C307.988 218.793 308.038 217.795 308.038 216.797C308.038 215.799 307.988 214.801 307.909 213.803L298.627 212.606C298.139 209.08 297.034 205.669 295.364 202.526L302.22 196.039C301.154 194.318 299.96 192.68 298.647 191.139L290.424 195.62C287.953 193.06 285.055 190.949 281.861 189.382L283.587 180.181C281.716 179.41 279.787 178.786 277.819 178.314L273.827 186.777C270.325 186.152 266.74 186.152 263.238 186.777L259.246 178.314C257.278 178.786 255.349 179.41 253.478 180.181L255.204 189.382C252.01 190.949 249.112 193.06 246.641 195.62L238.348 191.119C237.024 192.663 235.823 194.308 234.755 196.039L241.562 202.466C239.884 205.606 238.775 209.019 238.288 212.546L229.007 213.743C228.927 214.741 228.877 215.739 228.877 216.737C228.877 217.735 228.927 218.733 229.007 219.731L238.288 220.939C238.777 224.462 239.885 227.872 241.562 231.009L234.755 237.446C235.814 239.169 237.005 240.807 238.318 242.346L246.542 237.855C249.01 240.418 251.908 242.529 255.104 244.093L253.378 253.294C255.249 254.069 257.178 254.696 259.146 255.17L263.138 246.697C266.64 247.323 270.225 247.323 273.727 246.697L277.719 255.17C279.688 254.696 281.616 254.069 283.488 253.294L281.761 244.093C284.958 242.529 287.856 240.418 290.324 237.855L298.547 242.346C299.86 240.805 301.054 239.167 302.12 237.446L295.314 231.009C296.995 227.888 298.116 224.497 298.627 220.989L307.909 219.791ZM268.458 194.143C271.924 194.149 275.342 194.953 278.447 196.493C281.552 198.034 284.26 200.269 286.362 203.025L271.811 209.741C270.764 209.242 269.618 208.983 268.458 208.983C267.297 208.983 266.152 209.242 265.104 209.741L250.554 203.025C252.656 200.27 255.365 198.036 258.47 196.496C261.574 194.955 264.992 194.15 268.458 194.143ZM245.843 216.757C245.842 213.839 246.408 210.947 247.51 208.244L260.673 217.526C260.783 218.643 261.133 219.722 261.698 220.692C262.263 221.661 263.03 222.498 263.947 223.145L265.404 239.113C259.992 238.379 255.029 235.711 251.433 231.601C247.837 227.491 245.851 222.218 245.843 216.757ZM271.512 239.143L272.969 223.175C273.888 222.53 274.656 221.694 275.221 220.724C275.786 219.754 276.134 218.673 276.242 217.556L289.406 208.274C290.713 211.468 291.271 214.919 291.036 218.362C290.802 221.805 289.782 225.149 288.054 228.136C286.326 231.124 283.937 233.675 281.069 235.595C278.201 237.515 274.932 238.753 271.512 239.212V239.143Z"
      fill="#263238" stroke="#263238" stroke-width="1.25903" stroke-linecap="round" stroke-linejoin="round" />
    <path
      d="M271.752 216.756C271.754 217.408 271.562 218.046 271.202 218.589C270.841 219.131 270.327 219.555 269.726 219.806C269.124 220.057 268.462 220.123 267.822 219.997C267.183 219.871 266.595 219.559 266.133 219.098C265.672 218.638 265.357 218.051 265.229 217.412C265.101 216.773 265.166 216.11 265.415 215.508C265.664 214.906 266.086 214.391 266.628 214.028C267.169 213.666 267.807 213.473 268.458 213.473C269.33 213.473 270.166 213.818 270.784 214.434C271.401 215.049 271.749 215.884 271.752 216.756Z"
      fill="white" stroke="#263238" stroke-width="1.25903" stroke-linecap="round" stroke-linejoin="round" />
    <path
      d="M307.779 151.557C307.839 150.839 307.869 150.12 307.869 149.382C307.869 148.643 307.869 147.935 307.779 147.216L301.142 146.358C300.794 143.837 300.004 141.398 298.807 139.152L303.677 134.551C302.915 133.321 302.061 132.15 301.122 131.048L295.234 134.262C293.469 132.427 291.395 130.917 289.106 129.801L290.344 123.214C289.015 122.67 287.647 122.226 286.252 121.887L283.378 127.935C280.873 127.482 278.308 127.482 275.803 127.935L272.939 121.887C271.524 122.213 270.136 122.647 268.787 123.184L270.025 129.771C267.739 130.887 265.668 132.397 263.907 134.232L258.029 131.018C257.086 132.117 256.232 133.289 255.474 134.521L260.304 139.152C259.112 141.4 258.321 143.838 257.969 146.358L251.332 147.216C251.282 147.935 251.242 148.653 251.242 149.382C251.242 150.11 251.242 150.839 251.332 151.557L257.969 152.416C258.321 154.935 259.112 157.374 260.304 159.621L255.444 164.222C256.205 165.45 257.059 166.618 257.999 167.715L263.877 164.511C265.643 166.34 267.713 167.85 269.995 168.972L268.757 175.549C270.097 176.104 271.478 176.551 272.889 176.887L275.753 170.839C278.259 171.277 280.822 171.277 283.328 170.839L286.202 176.887C287.609 176.549 288.987 176.102 290.324 175.549L289.086 168.972C291.371 167.85 293.444 166.34 295.214 164.511L301.092 167.715C302.029 166.615 302.883 165.448 303.647 164.222L298.777 159.621C299.974 157.376 300.764 154.936 301.112 152.416L307.779 151.557ZM279.575 133.214C282.05 133.215 284.491 133.785 286.709 134.881C288.928 135.976 290.865 137.567 292.37 139.531L281.971 144.332C281.222 143.977 280.404 143.792 279.575 143.792C278.747 143.792 277.929 143.977 277.18 144.332L266.771 139.531C268.278 137.567 270.216 135.975 272.437 134.88C274.657 133.784 277.1 133.214 279.575 133.214ZM263.398 149.382C263.398 147.294 263.804 145.226 264.595 143.294L274.007 149.931C274.087 150.726 274.338 151.494 274.743 152.183C275.148 152.872 275.697 153.465 276.352 153.923L277.35 165.36C273.489 164.825 269.951 162.915 267.387 159.979C264.823 157.043 263.407 153.279 263.398 149.382ZM281.751 165.35L282.799 153.913C283.451 153.452 283.998 152.858 284.403 152.17C284.807 151.481 285.06 150.715 285.144 149.921L294.545 143.284C295.477 145.566 295.874 148.031 295.705 150.491C295.536 152.95 294.806 155.338 293.571 157.472C292.336 159.605 290.628 161.427 288.579 162.798C286.53 164.169 284.194 165.052 281.751 165.38V165.35Z"
      fill="#757575" stroke="#263238" stroke-width="1.25903" stroke-linecap="round" stroke-linejoin="round" />
    <path
      d="M279.576 151.736C280.877 151.736 281.931 150.681 281.931 149.381C281.931 148.08 280.877 147.025 279.576 147.025C278.275 147.025 277.221 148.08 277.221 149.381C277.221 150.681 278.275 151.736 279.576 151.736Z"
      fill="white" stroke="#263238" stroke-width="1.25903" stroke-linecap="round" stroke-linejoin="round" />
    <path
      d="M235.424 246.168C235.424 245.688 235.494 245.17 235.494 244.73C235.494 244.291 235.494 243.732 235.424 243.283L231.003 242.704C230.773 241.025 230.246 239.399 229.446 237.904L232.69 234.84C232.185 234.02 231.618 233.239 230.993 232.505L227.071 234.641C225.894 233.414 224.513 232.401 222.989 231.647L223.808 227.265C222.918 226.893 222 226.593 221.063 226.367L219.147 230.359C218.314 230.206 217.469 230.129 216.622 230.13C215.775 230.13 214.93 230.207 214.097 230.359L212.191 226.367C211.251 226.594 210.33 226.894 209.436 227.265L210.265 231.647C208.74 232.399 207.358 233.412 206.183 234.641L202.261 232.505C201.633 233.236 201.066 234.017 200.564 234.84L203.808 237.904C203.005 239.399 202.474 241.024 202.241 242.704L197.82 243.283C197.82 243.762 197.76 244.281 197.76 244.73C197.76 245.179 197.76 245.728 197.82 246.168L202.241 246.746C202.474 248.427 203.005 250.052 203.808 251.547L200.554 254.611C201.063 255.431 201.633 256.212 202.261 256.946L206.183 254.81C207.355 256.042 208.738 257.056 210.265 257.804L209.436 262.185C210.33 262.556 211.251 262.857 212.191 263.084L214.097 259.042C214.93 259.194 215.775 259.27 216.622 259.271C217.469 259.271 218.314 259.195 219.147 259.042L221.063 263.084C222 262.858 222.918 262.558 223.808 262.185L222.989 257.804C224.515 257.053 225.897 256.04 227.071 254.81L230.993 256.946C231.618 256.212 232.185 255.431 232.69 254.611L229.446 251.547C230.246 250.052 230.773 248.426 231.003 246.746L235.424 246.168ZM216.622 233.962C218.272 233.961 219.901 234.341 221.38 235.071C222.86 235.801 224.152 236.863 225.155 238.174L218.219 241.377C217.72 241.139 217.175 241.016 216.622 241.018C216.07 241.018 215.524 241.141 215.025 241.377L208.089 238.174C209.094 236.865 210.386 235.804 211.865 235.074C213.345 234.344 214.972 233.963 216.622 233.962ZM205.844 244.75C205.844 243.357 206.115 241.978 206.642 240.688L212.909 245.11C212.964 245.643 213.132 246.159 213.402 246.622C213.672 247.085 214.038 247.485 214.476 247.794L215.175 255.419C212.589 255.069 210.218 253.792 208.502 251.827C206.786 249.861 205.842 247.34 205.844 244.73V244.75ZM218.079 255.419L218.778 247.794C219.214 247.484 219.579 247.084 219.847 246.621C220.116 246.158 220.282 245.642 220.335 245.11L226.612 240.688C227.229 242.21 227.49 243.853 227.376 245.492C227.261 247.13 226.774 248.721 225.95 250.142C225.127 251.563 223.99 252.777 222.626 253.692C221.262 254.606 219.706 255.197 218.079 255.419Z"
      fill="white" stroke="#263238" stroke-width="1.25903" stroke-linecap="round" stroke-linejoin="round" />
    <path
      d="M218.188 244.731C218.188 245.041 218.096 245.344 217.924 245.601C217.752 245.859 217.507 246.06 217.221 246.178C216.935 246.297 216.62 246.328 216.316 246.268C216.012 246.207 215.733 246.058 215.514 245.839C215.294 245.62 215.145 245.341 215.085 245.037C215.024 244.733 215.055 244.418 215.174 244.131C215.293 243.845 215.493 243.6 215.751 243.428C216.009 243.256 216.312 243.164 216.622 243.164C217.037 243.164 217.436 243.329 217.729 243.623C218.023 243.917 218.188 244.315 218.188 244.731V244.731Z"
      stroke="#263238" stroke-width="1.25903" stroke-linecap="round" stroke-linejoin="round" />
    <path
      d="M98.4688 253.682L144.826 249.85L120.654 345.957L84.0776 403.342L69.3271 395.637C69.3271 395.637 86.5127 353.362 99.0775 337.863C99.0775 337.863 101.752 307.175 104.187 291.107C104.187 291.107 99.6264 268.662 98.4688 253.682Z"
      fill="#858585" />
    <path
      d="M130.674 251.018L110.604 252.674C110.604 252.674 109.007 273.463 124.396 289.281L131.562 302.564L138.697 274.181L130.674 251.018Z"
      fill="#263238" stroke="#263238" stroke-width="1.25903" stroke-linecap="round" stroke-linejoin="round" />
    <path
      d="M98.4687 253.682L144.826 249.85L120.654 345.957L84.0776 403.342L69.3271 395.637C69.3271 395.637 86.5127 353.362 99.0775 337.863C99.0775 337.863 101.752 307.175 104.187 291.107C104.187 291.107 99.6264 268.662 98.4687 253.682Z"
      stroke="#263238" stroke-width="1.25903" stroke-linecap="round" stroke-linejoin="round" />
    <path d="M98.6279 344.789C97.7603 345.264 96.964 345.858 96.2627 346.556" stroke="#263238" stroke-width="1.25903"
      stroke-linecap="round" stroke-linejoin="round" />
    <path
      d="M102.221 337.444C102.221 337.444 111.263 335.867 113.13 342.154C114.597 347.074 108.01 342.443 101.503 343.771"
      stroke="#263238" stroke-width="1.25903" stroke-linecap="round" stroke-linejoin="round" />
    <path
      d="M113.139 253.612L150.185 248.232L174.356 324.22L194.576 392.643L177.949 399.13C177.949 399.13 158.368 356.795 153.857 333.731C153.857 333.731 135.783 302.953 129.366 288.172C124.274 283.97 120.177 278.691 117.371 272.714C114.565 266.738 113.12 260.214 113.139 253.612Z"
      fill="#999999" stroke="#263238" stroke-width="1.25903" stroke-linecap="round" stroke-linejoin="round" />
    <path d="M147.36 287.564C148.978 287.748 150.524 288.338 151.851 289.281" stroke="#263238" stroke-width="1.25903"
      stroke-linecap="round" stroke-linejoin="round" />
    <path
      d="M143.898 278.801C141.223 281.066 130.495 281.964 133.01 286.346C134.507 288.95 138.678 287.853 143.139 287.523"
      stroke="#263238" stroke-width="1.25903" stroke-linecap="round" stroke-linejoin="round" />
    <path d="M156.333 332.106C156.333 332.106 161.802 328.642 166.203 332.106" stroke="#263238" stroke-width="1.25903"
      stroke-linecap="round" stroke-linejoin="round" />
    <path
      d="M88.8175 425.996L56.9414 407.932L57.8197 405.846L59.0871 406.226C59.0871 406.226 61.153 403.232 66.2827 396.964C67.7095 392.511 69.8425 388.316 72.6 384.539C72.6 384.539 92.8295 390.956 89.566 398.581L85.2447 406.116C87.222 409.46 89.3878 412.688 91.7317 415.786C91.7317 415.786 96.4822 418.84 97.7197 419.1C98.2837 419.184 98.8233 419.388 99.3019 419.698C99.7806 420.008 100.187 420.417 100.495 420.897C100.802 421.377 101.003 421.918 101.084 422.482C101.164 423.047 101.123 423.622 100.963 424.17L102.191 424.429L101.412 426.605L88.8175 425.996Z"
      fill="#29538E" stroke="#263238" stroke-width="1.25903" stroke-linecap="round" stroke-linejoin="round" />
    <path
      d="M79.6658 387.363C77.3626 386.281 74.9964 385.338 72.58 384.539C69.8225 388.316 67.6895 392.511 66.2627 396.964C74.7956 402.254 79.6658 387.363 79.6658 387.363Z"
      fill="#29538E" />
    <path opacity="0.5"
      d="M79.6658 387.363C77.3626 386.281 74.9964 385.338 72.58 384.539C69.8225 388.316 67.6895 392.511 66.2627 396.964C74.7956 402.254 79.6658 387.363 79.6658 387.363Z"
      fill="black" />
    <path
      d="M79.6658 387.363C77.3626 386.281 74.9964 385.338 72.58 384.539C69.8225 388.316 67.6895 392.511 66.2627 396.964C74.7956 402.254 79.6658 387.363 79.6658 387.363Z"
      stroke="#263238" stroke-width="1.25903" stroke-linecap="round" stroke-linejoin="round" />
    <path
      d="M86.3627 407.822C85.848 408.576 85.1401 409.178 84.3131 409.564C83.4861 409.95 82.5705 410.107 81.6621 410.018"
      stroke="#263238" stroke-width="1.25903" stroke-linecap="round" stroke-linejoin="round" />
    <path d="M88.1696 410.537C88.1696 410.537 87.7005 412.723 84.2773 413.681" stroke="#263238" stroke-width="1.25903"
      stroke-linecap="round" stroke-linejoin="round" />
    <path d="M89.9957 413.271C89.9957 413.271 90.6045 415.407 86.9219 417.383" stroke="#263238" stroke-width="1.25903"
      stroke-linecap="round" stroke-linejoin="round" />
    <path d="M92.4805 423.383L98.6681 423.832" stroke="#263238" stroke-width="1.25903" stroke-linecap="round"
      stroke-linejoin="round" />
    <path d="M64.9453 409.561L88.9572 423.123L91.1228 420.369" stroke="#263238" stroke-width="1.25903"
      stroke-linecap="round" stroke-linejoin="round" />
    <path d="M61.2832 407.494L62.9399 408.432" stroke="#263238" stroke-width="1.25903" stroke-linecap="round"
      stroke-linejoin="round" />
    <path
      d="M175.314 396.746C175.314 396.746 193.278 385.489 197.031 392.884L199.965 401.057C199.965 401.057 214.416 403.253 218.817 402.305C219.364 402.158 219.935 402.129 220.494 402.22C221.052 402.311 221.585 402.519 222.057 402.831C222.529 403.144 222.929 403.553 223.231 404.032C223.533 404.51 223.729 405.048 223.807 405.608L225.035 405.349L225.214 407.654L182.969 423.832L181.971 421.836L183.079 421.117C183.079 421.117 182.171 417.624 180.684 409.63C178.213 405.652 176.4 401.301 175.314 396.746Z"
      fill="#29538E" stroke="#263238" stroke-width="1.25903" stroke-linecap="round" stroke-linejoin="round" />
    <path
      d="M182.051 393.182C179.736 394.233 177.486 395.423 175.314 396.744C176.406 401.293 178.222 405.637 180.694 409.609C190.235 406.545 182.051 393.182 182.051 393.182Z"
      fill="#29538E" />
    <path opacity="0.5"
      d="M182.051 393.182C179.736 394.233 177.486 395.423 175.314 396.744C176.406 401.293 178.222 405.637 180.694 409.609C190.235 406.545 182.051 393.182 182.051 393.182Z"
      fill="black" />
    <path
      d="M182.051 393.182C179.736 394.233 177.486 395.423 175.314 396.744C176.406 401.293 178.222 405.637 180.694 409.609C190.235 406.545 182.051 393.182 182.051 393.182Z"
      stroke="#263238" stroke-width="1.25903" stroke-linecap="round" stroke-linejoin="round" />
    <path d="M220.145 407.094L222.121 406.336" stroke="#263238" stroke-width="1.25903" stroke-linecap="round"
      stroke-linejoin="round" />
    <path d="M193.119 417.434L217.64 408.053" stroke="#263238" stroke-width="1.25903" stroke-linecap="round"
      stroke-linejoin="round" />
    <path d="M184.815 420.607L188.318 419.27" stroke="#263238" stroke-width="1.25903" stroke-linecap="round"
      stroke-linejoin="round" />
    <path
      d="M201.971 401.336C202.21 402.215 202.208 403.142 201.966 404.02C201.723 404.897 201.25 405.694 200.594 406.326"
      stroke="#263238" stroke-width="1.25903" stroke-linecap="round" stroke-linejoin="round" />
    <path d="M205.205 401.715C205.205 401.715 206.562 403.491 205.085 406.705" stroke="#263238" stroke-width="1.25903"
      stroke-linecap="round" stroke-linejoin="round" />
    <path d="M208.479 402.094C208.479 402.094 210.474 403.012 209.616 407.084" stroke="#263238" stroke-width="1.25903"
      stroke-linecap="round" stroke-linejoin="round" />
    <path
      d="M87.3506 150.639C83.7078 154.894 81.3171 160.076 80.4444 165.609C78.8776 175.03 71.4624 195.12 73.8476 196.617C76.2329 198.114 98.6679 214.581 98.6679 214.581L108.508 205.469L94.5362 187.664L101.462 157.405L87.3506 150.639Z"
      fill="#29538E" />
    <path opacity="0.3"
      d="M87.3506 150.639C83.7078 154.894 81.3171 160.076 80.4444 165.609C78.8776 175.03 71.4624 195.12 73.8476 196.617C76.2329 198.114 98.6679 214.581 98.6679 214.581L108.508 205.469L94.5362 187.664L101.462 157.405L87.3506 150.639Z"
      fill="black" />
    <path
      d="M87.3506 150.639C83.7078 154.894 81.3171 160.076 80.4444 165.609C78.8776 175.03 71.4624 195.12 73.8476 196.617C76.2329 198.114 98.6679 214.581 98.6679 214.581L108.508 205.469L94.5362 187.664L101.462 157.405L87.3506 150.639Z"
      stroke="#263238" stroke-width="1.25903" stroke-linecap="round" stroke-linejoin="round" />
    <path
      d="M77.8799 192.654C79.3842 191.221 81.2482 190.223 83.2741 189.764C85.3 189.306 87.4123 189.404 89.3868 190.049"
      stroke="#263238" stroke-width="1.25903" stroke-linecap="round" stroke-linejoin="round" />
    <path
      d="M57.331 237.504C60.0367 240.043 63.3682 241.818 66.9848 242.649C70.6015 243.479 74.3737 243.334 77.916 242.228C81.4582 241.123 84.6436 239.097 87.1464 236.357C89.6492 233.618 91.3797 230.263 92.1612 226.635L253.737 170.877C256.59 173.251 260.021 174.825 263.681 175.438C267.341 176.051 271.098 175.682 274.568 174.368C278.038 173.053 281.097 170.841 283.432 167.957C285.768 165.073 287.295 161.621 287.859 157.953V155.438L272.28 160.817L264.137 153.741L265.883 144.759L281.462 139.39V136.875C278.756 134.333 275.424 132.556 271.806 131.724C268.188 130.892 264.414 131.037 260.87 132.142C257.326 133.248 254.14 135.275 251.636 138.016C249.133 140.757 247.402 144.114 246.622 147.743L85.0454 203.502C82.1932 201.128 78.7619 199.554 75.102 198.941C71.4422 198.327 67.6852 198.697 64.215 200.011C60.7447 201.326 57.6857 203.538 55.3505 206.422C53.0153 209.306 51.4877 212.758 50.9238 216.426V218.991L66.5026 213.611L74.6463 220.677L72.9098 229.659L57.331 234.959V237.504Z"
      fill="#CBF2D6" stroke="#263238" stroke-width="1.25903" stroke-linecap="round" stroke-linejoin="round" />
    <path
      d="M263.727 153.384L265.883 142.266L281.462 136.887C278.756 134.345 275.424 132.567 271.806 131.736C268.188 130.904 264.414 131.048 260.87 132.154C257.326 133.259 254.14 135.286 251.636 138.028C249.133 140.769 247.402 144.126 246.622 147.755L85.0454 203.513C82.1932 201.14 78.7619 199.566 75.102 198.952C71.4422 198.339 67.6852 198.709 64.215 200.023C60.7447 201.337 57.6857 203.55 55.3505 206.434C53.0153 209.318 51.4877 212.77 50.9238 216.438L66.5026 211.068L75.0654 218.493L72.9098 229.621L57.331 234.96C60.0367 237.5 63.3682 239.275 66.9848 240.105C70.6015 240.935 74.3737 240.79 77.916 239.685C81.4582 238.58 84.6436 236.554 87.1464 233.814C89.6492 231.075 91.3797 227.72 92.1612 224.092L253.737 168.334C256.593 170.709 260.028 172.282 263.692 172.892C267.355 173.503 271.115 173.129 274.586 171.809C278.058 170.489 281.116 168.271 283.448 165.38C285.78 162.49 287.302 159.032 287.859 155.36L272.28 160.819L263.727 153.384Z"
      fill="#858585" stroke="#263238" stroke-width="1.25903" stroke-linecap="round" stroke-linejoin="round" />
    <path
      d="M141.543 118.632C141.543 118.632 138.419 112.424 137.96 110.169C137.63 108.572 138.279 105.239 137.96 103.642C137.191 99.8995 131.972 89.5902 131.972 89.5902C131.759 89.147 131.436 88.7657 131.034 88.4824L127.92 92.2449H119.587L106.872 109.051L113.13 124.181L111.293 126.357C112.421 127.464 113.13 128.103 113.13 128.103L111.293 139.081L129.257 140.897L129.726 133.911H135.185C135.92 133.909 136.625 133.616 137.144 133.096C137.664 132.576 137.957 131.872 137.96 131.137V121.626L140.465 120.917C140.696 120.853 140.911 120.74 141.094 120.586C141.278 120.431 141.426 120.239 141.528 120.022C141.63 119.805 141.685 119.568 141.687 119.329C141.69 119.089 141.64 118.851 141.543 118.632Z"
      fill="white" stroke="#263238" stroke-width="1.25903" stroke-linecap="round" stroke-linejoin="round" />
    <path
      d="M113.13 128.073L116.183 122.085C116.183 122.085 109.597 119.74 110.964 113.852C112.331 107.964 117.83 112.964 117.83 112.964H119.587L121.144 106.157C121.144 106.157 124.966 102.056 124.696 100.618C124.49 99.574 124.217 98.544 123.878 97.5346C123.878 97.5346 136.233 95.6484 134.627 88.3829C133.02 81.1175 116.443 83.872 116.443 83.872C116.443 83.872 111.553 75.1495 98.9879 92.1055C98.9879 92.1055 89.8263 97.335 96.5229 108.313C101.183 115.589 106.764 122.231 113.13 128.073Z"
      fill="#263238" stroke="#263238" stroke-width="1.25903" stroke-linecap="round" stroke-linejoin="round" />
    <path
      d="M119.586 99.4902C119.586 99.4902 109.986 118.652 101.812 120.069L99.1475 116.456C99.1475 116.456 99.6165 113.392 104.796 112.963C104.796 112.963 109.686 110.808 115.475 100.618L119.586 99.4902Z"
      fill="#858585" stroke="#263238" stroke-width="1.25903" stroke-linecap="round" stroke-linejoin="round" />
    <path
      d="M129.227 120.07C129.897 120.813 130.737 121.383 131.676 121.731C132.614 122.078 133.623 122.193 134.616 122.066"
      stroke="#263238" stroke-width="1.25903" stroke-linecap="round" stroke-linejoin="round" />
    <path
      d="M134.616 108.313C134.616 109.161 134.287 109.859 133.887 109.859C133.488 109.859 133.169 109.161 133.169 108.313C133.169 107.464 133.498 106.766 133.887 106.766C134.277 106.766 134.616 107.454 134.616 108.313Z"
      fill="#263238" />
    <path
      d="M134.616 102.445C133.621 102.228 132.58 102.37 131.68 102.847C130.779 103.324 130.076 104.104 129.696 105.05"
      stroke="#263238" stroke-width="1.25903" stroke-linecap="round" stroke-linejoin="round" />
    <path
      d="M98.958 113.293C98.7898 113.517 98.5677 113.695 98.3123 113.81C98.0569 113.925 97.7765 113.973 97.4974 113.95C97.2183 113.927 96.9496 113.834 96.7163 113.679C96.483 113.524 96.2929 113.312 96.1636 113.064C92.9899 106.986 86.483 90.6587 103.938 82.5948C124.686 73.014 135.804 86.0679 135.804 86.0679L141.323 86.6567L142.79 89.2216L101.273 110.209L98.958 113.293Z"
      fill="#29538E" stroke="#263238" stroke-width="1.25903" stroke-linecap="round" stroke-linejoin="round" />
    <path
      d="M103.778 142.055C104.652 140.307 105.983 138.828 107.629 137.774C109.275 136.72 111.175 136.13 113.129 136.067C120.025 135.748 130.614 136.696 133.329 143.293C133.329 143.293 148.209 147.594 151.642 158.163C155.075 168.732 150.185 217.424 150.185 217.424C150.185 217.424 154.576 236.905 151.851 249.889C151.851 249.889 136.782 255.059 95.9634 255.877C95.9634 255.877 92.9694 230.658 94.676 221.706C94.676 221.706 82.7699 158.742 87.3706 150.568C91.9714 142.395 103.778 142.055 103.778 142.055Z"
      fill="#263238" stroke="#263238" stroke-width="1.25903" stroke-miterlimit="10" />
    <path
      d="M111.542 189.372C99.3567 189.092 93.0294 192.096 90.0254 194.362C90.6242 198.354 91.233 202.166 91.8118 205.629C93.688 204.072 98.6281 202.346 111.233 202.096C124.719 201.862 138.159 203.724 151.073 207.615C151.352 204.232 151.662 200.21 151.941 195.929C145.125 194.112 126.812 189.711 111.542 189.372Z"
      fill="#29538E" stroke="#263238" stroke-width="1.25903" stroke-linecap="round" stroke-linejoin="round" />
    <path
      d="M150.185 217.445C150.185 217.445 150.275 216.517 150.425 214.89C144.716 213.463 128.638 209.8 113.219 209.451C100.564 209.162 95.315 211.876 93.1992 213.742C94.0675 218.673 94.6563 221.776 94.6563 221.776C94.5365 222.385 94.4467 223.074 94.3669 223.772C96.7621 222.395 101.922 221.058 112.91 220.838C126.025 220.619 139.098 222.372 151.692 226.038C150.983 220.988 150.185 217.445 150.185 217.445Z"
      fill="#29538E" stroke="#263238" stroke-width="1.25903" stroke-linecap="round" stroke-linejoin="round" />
    <path d="M126.572 142.385C127.431 142.594 128.299 142.834 129.187 143.103" stroke="#7F7F7F" stroke-width="0.944269"
      stroke-linecap="round" stroke-linejoin="round" />
    <path d="M108.509 141.218C113.624 140.55 118.816 140.742 123.868 141.787" stroke="#7F7F7F" stroke-width="0.944269"
      stroke-linecap="round" stroke-linejoin="round" />
    <path
      d="M138.09 182.065C137.446 173.021 139.188 163.967 143.139 155.808C149.766 141.836 155.115 169.959 155.115 169.959C155.115 169.959 162.71 181.935 164.537 190.498C164.537 190.498 171.054 184.161 197.77 182.065L200.904 193.302C200.904 193.302 164.087 211.386 156.333 210.009C150.595 209.071 138.09 182.065 138.09 182.065Z"
      fill="#29538E" stroke="#263238" stroke-width="1.25903" stroke-linecap="round" stroke-linejoin="round" />
    <path d="M151.283 186.057C151.272 187.174 151.366 188.29 151.563 189.39" stroke="#263238" stroke-width="1.25903"
      stroke-linecap="round" stroke-linejoin="round" />
    <path
      d="M144.416 182.066C144.416 182.066 149.785 170.289 152.6 171.088C154.596 171.676 152.46 176.357 151.602 182.066"
      stroke="#263238" stroke-width="1.25903" stroke-linecap="round" stroke-linejoin="round" />
    <path
      d="M194.576 180.969C194.576 180.969 198.898 188.474 198.688 196.308L203.927 193.464C203.927 193.464 203.408 183.913 199.746 180.699L194.576 180.969Z"
      fill="#263238" stroke="#263238" stroke-width="1.25903" stroke-linecap="round" stroke-linejoin="round" />
    <path
      d="M198.688 182.365L207.25 180.968C207.917 179.608 208.957 178.465 210.248 177.673C211.54 176.881 213.031 176.473 214.546 176.497C217.473 176.583 220.391 176.137 223.158 175.18C223.24 175.146 223.329 175.134 223.417 175.144C223.505 175.154 223.589 175.185 223.661 175.236C223.734 175.287 223.792 175.355 223.832 175.434C223.871 175.513 223.89 175.601 223.887 175.689C223.887 176.906 222.969 179.232 216.991 179.771C216.991 179.771 222.39 183.054 223.887 181.767C224.283 181.381 224.778 181.113 225.317 180.991C225.856 180.87 226.418 180.9 226.941 181.078C226.941 181.078 227.12 185.28 224.146 185.449C224.146 185.449 223.448 188.174 221.152 188.124C221.152 188.124 219.576 190.339 218.358 189.99C217.147 190.247 215.896 190.247 214.685 189.99C212.42 189.601 209.975 189.112 209.975 189.112L201.991 191.607L198.688 182.365Z"
      fill="#263238" stroke="#263238" stroke-width="1.25903" stroke-linecap="round" stroke-linejoin="round" />
    <path
      d="M223.158 183.373C223.158 183.373 223.268 185.09 222.011 185.369C220.753 185.648 222.33 187.155 218.019 188.463"
      stroke="#7F7F7F" stroke-width="0.944269" stroke-linecap="round" stroke-linejoin="round" />
    <path d="M164.626 193.912C164.706 196.201 164.423 198.488 163.788 200.689" stroke="#263238" stroke-width="1.25903"
      stroke-linecap="round" stroke-linejoin="round" />
    <path d="M202.869 186.825C202.492 185.283 201.908 183.799 201.133 182.414" stroke="#7F7F7F" stroke-width="0.944269"
      stroke-linecap="round" stroke-linejoin="round" />
    <path d="M203.488 189.77C203.409 189.291 203.319 188.772 203.209 188.283" stroke="#7F7F7F" stroke-width="0.944269"
      stroke-linecap="round" stroke-linejoin="round" />
  </g>
  <defs>
    <clipPath id="clip0">
      <rect width="520" height="436" fill="white" />
    </clipPath>
  </defs>
</svg>