<svg width="507" height="499" viewBox="0 0 507 499" fill="none" xmlns="http://www.w3.org/2000/svg">
  <g clip-path="url(#clip0)">
    <path
      d="M253.194 499.001C393.03 499.001 506.389 433.554 506.389 352.821C506.389 272.088 393.03 206.641 253.194 206.641C113.359 206.641 0 272.088 0 352.821C0 433.554 113.359 499.001 253.194 499.001Z"
      fill="#C5DEFF" />
    <path
      d="M277.505 478.925C294.549 478.925 308.365 470.947 308.365 461.106C308.365 451.265 294.549 443.287 277.505 443.287C260.462 443.287 246.646 451.265 246.646 461.106C246.646 470.947 260.462 478.925 277.505 478.925Z"
      fill="#8FAACD" />
    <path
      d="M322.701 434.693C330.62 439.261 330.62 446.672 322.701 451.284C314.781 455.896 301.962 455.852 294.042 451.284C286.122 446.716 286.133 439.305 294.042 434.693C301.951 430.08 314.792 430.125 322.701 434.693Z"
      fill="#8FAACD" />
    <path
      d="M71.0102 365.175L270.338 250.142C273.892 248.088 277.924 247.006 282.029 247.006C286.134 247.006 290.167 248.088 293.721 250.142L342.621 278.9C343.781 279.57 344.744 280.534 345.414 281.694C346.083 282.854 346.436 284.17 346.436 285.509C346.436 286.849 346.083 288.164 345.414 289.325C344.744 290.485 343.781 291.448 342.621 292.118L143.304 407.151C139.746 409.2 135.713 410.278 131.607 410.278C127.502 410.278 123.468 409.2 119.91 407.151L71.0102 378.393C69.8503 377.723 68.8871 376.759 68.2175 375.599C67.5478 374.439 67.1953 373.123 67.1953 371.784C67.1953 370.444 67.5478 369.128 68.2175 367.968C68.8871 366.808 69.8503 365.845 71.0102 365.175Z"
      fill="#8FAACD" />
    <path
      d="M180.503 409.641L170.88 415.226C170.88 415.226 175.735 399.741 173.092 384.134C172.447 380.458 171.119 376.935 169.176 373.748C168.413 372.177 162.617 362.444 167.727 357.964C172.838 353.484 184.816 362.388 184.319 386.424C184.03 394.293 182.747 402.093 180.503 409.641Z"
      fill="#29538E" />
    <path opacity="0.3"
      d="M180.503 409.641L170.88 415.226C170.88 415.226 175.735 399.741 173.092 384.134C172.447 380.458 171.119 376.935 169.176 373.748C168.413 372.177 162.617 362.444 167.727 357.964C172.838 353.484 184.816 362.388 184.319 386.424C184.03 394.293 182.747 402.093 180.503 409.641Z"
      fill="black" />
    <path
      d="M176.034 412.671H175.879C175.772 412.628 175.685 412.546 175.637 412.44C175.59 412.335 175.585 412.215 175.625 412.107C175.625 412.007 179.242 402.041 179.054 386.003C178.866 369.965 170.548 361.614 170.459 361.525C170.378 361.442 170.333 361.331 170.333 361.215C170.333 361.1 170.378 360.988 170.459 360.906C170.542 360.825 170.653 360.779 170.769 360.779C170.885 360.779 170.996 360.825 171.079 360.906C171.167 360.994 179.74 369.688 179.928 385.992C180.116 402.296 176.477 412.306 176.443 412.405C176.409 412.485 176.351 412.552 176.279 412.599C176.206 412.647 176.121 412.671 176.034 412.671Z"
      fill="white" />
    <path
      d="M173.036 413.998L157.142 423.356C157.142 423.356 149.864 422.249 150.417 415.425C150.97 408.6 153.923 406.963 150.24 403.955C146.557 400.946 145.605 400.736 145.816 397.783C146.026 394.83 148.028 393.547 148.913 392.385C149.797 391.224 152.452 388.757 150.616 385.196C148.78 381.634 146.302 378.194 149.985 376.568C152.198 375.595 155.892 376.811 158.336 379.422C160.781 382.032 162.761 383.846 165.139 384.499C167.517 385.151 172.317 385.151 172.151 389.155C171.986 393.159 170.946 394.542 171.919 396.323C173.711 399.674 181.531 401.477 173.036 413.998Z"
      fill="#29538E" />
    <path
      d="M166.566 418.246C166.509 418.241 166.454 418.226 166.403 418.2C166.353 418.175 166.307 418.139 166.27 418.096C166.233 418.053 166.205 418.003 166.188 417.949C166.17 417.895 166.163 417.838 166.168 417.781C166.168 417.538 167.871 394.243 151.711 378.968C151.63 378.886 151.585 378.774 151.585 378.659C151.585 378.543 151.63 378.432 151.711 378.349C151.751 378.308 151.798 378.275 151.85 378.253C151.902 378.23 151.959 378.219 152.016 378.219C152.072 378.219 152.129 378.23 152.181 378.253C152.233 378.275 152.281 378.308 152.32 378.349C168.8 393.912 167.064 417.615 167.042 417.858C167.038 417.916 167.022 417.972 166.996 418.023C166.969 418.074 166.932 418.119 166.888 418.155C166.843 418.191 166.792 418.218 166.736 418.234C166.681 418.249 166.623 418.253 166.566 418.246Z"
      fill="white" />
    <path
      d="M163.712 397.927C163.655 397.922 163.6 397.907 163.549 397.881C163.499 397.856 163.453 397.82 163.416 397.777C163.379 397.734 163.351 397.684 163.334 397.63C163.316 397.576 163.309 397.519 163.314 397.462C163.435 395.512 163.958 393.608 164.851 391.87C165.744 390.132 166.987 388.598 168.501 387.364C168.598 387.3 168.716 387.275 168.83 387.293C168.945 387.311 169.049 387.372 169.121 387.463C169.184 387.558 169.209 387.674 169.19 387.787C169.172 387.9 169.111 388.001 169.021 388.071C167.618 389.239 166.466 390.679 165.635 392.304C164.804 393.93 164.312 395.707 164.188 397.528C164.184 397.586 164.168 397.643 164.141 397.694C164.115 397.746 164.079 397.791 164.034 397.828C163.99 397.866 163.939 397.893 163.883 397.91C163.828 397.927 163.77 397.933 163.712 397.927Z"
      fill="white" />
    <path
      d="M164.885 401.975C164.824 401.975 164.764 401.962 164.709 401.937C164.654 401.912 164.604 401.876 164.564 401.831C164.564 401.831 160.527 397.517 151.424 398.756C151.309 398.771 151.194 398.739 151.103 398.669C151.011 398.598 150.952 398.495 150.937 398.38C150.922 398.266 150.954 398.15 151.024 398.059C151.095 397.968 151.199 397.908 151.313 397.893C160.892 396.566 165.04 401.057 165.217 401.212C165.295 401.296 165.339 401.406 165.339 401.521C165.339 401.636 165.295 401.747 165.217 401.831C165.175 401.878 165.124 401.915 165.067 401.939C165.009 401.964 164.947 401.976 164.885 401.975Z"
      fill="white" />
    <path
      d="M247.111 336.881L214.348 355.53C211.802 356.987 208.92 357.753 205.986 357.753C203.053 357.753 200.17 356.987 197.624 355.53L176.609 343.363L174.22 341.98C171.729 340.541 169.661 338.472 168.222 335.981C166.784 333.491 166.025 330.665 166.023 327.789V267.286L215.2 239.291V301.044C215.199 303.527 215.851 305.967 217.092 308.119C218.333 310.27 220.118 312.057 222.268 313.299L247.133 327.678C247.943 328.144 248.616 328.815 249.083 329.624C249.551 330.433 249.796 331.352 249.793 332.286C249.791 333.221 249.542 334.138 249.071 334.945C248.6 335.752 247.923 336.42 247.111 336.881Z"
      fill="#263238" />
    <path
      d="M207.336 357.652C209.804 357.465 212.199 356.732 214.349 355.506L247.111 336.88C247.92 336.416 248.592 335.746 249.059 334.939C249.527 334.132 249.773 333.216 249.773 332.284C249.773 331.351 249.527 330.435 249.059 329.628C248.592 328.821 247.92 328.152 247.111 327.688L230.132 317.877H207.336V357.652Z"
      fill="#37474F" />
    <path
      d="M246.558 323.607L247.465 324.326C248.196 324.912 248.787 325.654 249.192 326.498C249.598 327.343 249.809 328.267 249.809 329.204V332.268H246.491L246.558 323.607Z"
      fill="#37474F" />
    <path
      d="M218.983 243.969V299.528C218.977 301.94 219.606 304.311 220.808 306.402C222.01 308.493 223.742 310.231 225.83 311.44L246.558 323.607C247.331 324.058 247.973 324.704 248.419 325.48C248.865 326.256 249.1 327.136 249.1 328.031C249.1 328.927 248.865 329.806 248.419 330.583C247.973 331.359 247.331 332.005 246.558 332.456L244.202 333.794L214.835 350.518C212.367 351.92 209.575 352.653 206.737 352.643C203.898 352.633 201.111 351.882 198.653 350.463L178.279 338.44C176.186 337.252 174.443 335.534 173.225 333.458C172.008 331.382 171.359 329.022 171.344 326.616V271.057L218.983 243.969Z"
      fill="#455A64" />
    <path
      d="M218.984 299.528V243.969L171.422 271.057V326.616C171.42 329.021 172.052 331.384 173.254 333.468C174.456 335.551 176.185 337.281 178.269 338.484L225.178 310.953C223.28 309.711 221.72 308.016 220.639 306.022C219.558 304.028 218.989 301.796 218.984 299.528Z"
      fill="#263238" />
    <path
      d="M89.8143 355.076L85.2683 357.709V366.016C82.3503 366.018 79.4866 365.226 76.9837 363.726L76.6298 363.516C75.588 362.898 74.6831 362.074 73.97 361.094C73.2569 360.115 72.7506 359.001 72.4819 357.82C72.3169 357.312 72.2311 356.782 72.2275 356.249V344.934L89.8143 355.076Z"
      fill="#263238" />
    <path
      d="M287.251 49.8399L286.897 49.6187C284.397 48.1319 281.543 47.3449 278.635 47.3402C277.702 47.3299 276.784 47.5747 275.98 48.048L80.2028 160.637C77.7959 162.028 75.7972 164.027 74.4071 166.434C73.0171 168.842 72.2846 171.572 72.2832 174.352V344.933L89.8589 355.076L275.858 248.15C278.265 246.759 280.264 244.76 281.654 242.353C283.044 239.945 283.777 237.215 283.778 234.435V57.5604H291.687C291.682 55.999 291.271 54.4657 290.493 53.1118C289.715 51.7579 288.598 50.6302 287.251 49.8399Z"
      fill="#37474F" />
    <path
      d="M73.9199 167.252C72.8117 169.455 72.2323 171.887 72.2275 174.353V344.934L89.8143 355.077L96.3955 351.283V181.167L73.9199 167.252Z"
      fill="#263238" />
    <path
      d="M80.1475 349.5V360.815C80.1516 361.72 80.3924 362.608 80.8458 363.391C81.2992 364.174 81.9496 364.825 82.7323 365.279C83.5149 365.733 84.4027 365.974 85.3075 365.979C86.2123 365.984 87.1026 365.752 87.8901 365.306L283.667 252.717C286.074 251.327 288.073 249.327 289.463 246.92C290.853 244.512 291.586 241.782 291.587 239.002V227.377L80.1475 349.5Z"
      fill="#37474F" />
    <path
      d="M291.642 57.107C291.638 56.2022 291.397 55.3142 290.943 54.5312C290.49 53.7482 289.84 53.0975 289.057 52.6435C288.274 52.1896 287.386 51.9482 286.482 51.9434C285.577 51.9387 284.687 52.1706 283.899 52.6163L88.1217 165.205C85.7149 166.596 83.7161 168.595 82.3261 171.003C80.936 173.41 80.2036 176.14 80.2021 178.92V349.501L291.642 227.378"
      fill="#455A64" />
    <path
      d="M280.294 64.9591C279.4 64.9532 278.517 65.1578 277.717 65.5564L93.6637 171.343C91.5283 172.574 89.7562 174.348 88.5267 176.484C87.2972 178.621 86.654 181.044 86.6622 183.509V328.794C86.6627 329.422 86.7906 330.042 87.0383 330.619C87.296 331.212 87.6762 331.744 88.1538 332.18C88.6314 332.615 89.1957 332.945 89.8097 333.148C90.4237 333.351 91.0736 333.421 91.7168 333.355C92.36 333.289 92.982 333.088 93.542 332.765L277.529 226.979C279.661 225.745 281.43 223.97 282.658 221.834C283.885 219.698 284.527 217.275 284.519 214.812V69.5272C284.52 68.3736 284.085 67.2622 283.301 66.4152C282.518 65.5683 281.444 65.0483 280.294 64.9591Z"
      fill="#29538E" />
    <path opacity="0.4"
      d="M280.294 64.9591C279.4 64.9532 278.517 65.1578 277.717 65.5564L93.6637 171.343C91.5283 172.574 89.7562 174.348 88.5267 176.484C87.2972 178.621 86.654 181.044 86.6622 183.509V328.794C86.6627 329.422 86.7906 330.042 87.0383 330.619C87.296 331.212 87.6762 331.744 88.1538 332.18C88.6314 332.615 89.1957 332.945 89.8097 333.148C90.4237 333.351 91.0736 333.421 91.7168 333.355C92.36 333.289 92.982 333.088 93.542 332.765L277.529 226.979C279.661 225.745 281.43 223.97 282.658 221.834C283.885 219.698 284.527 217.275 284.519 214.812V69.5272C284.52 68.3736 284.085 67.2622 283.301 66.4152C282.518 65.5683 281.444 65.0483 280.294 64.9591Z"
      fill="white" />
    <path
      d="M103.463 192.459V355.551C103.463 358.161 104.425 359.92 105.896 360.506L112.146 363.935V358.405L113.042 190.733L104.868 186.607C103.986 188.435 103.507 190.43 103.463 192.459Z"
      fill="#E0E0E0" />
    <path
      d="M104.867 186.586L113.041 190.711L310.787 74.7381L315.499 72.006L308.984 68.3338L308.807 68.2232C308.193 67.9092 307.503 67.77 306.815 67.8207C306.127 67.8714 305.465 68.1101 304.903 68.5108L109.402 181.221C107.389 182.517 105.81 184.385 104.867 186.586Z"
      fill="#F0F0F0" />
    <path
      d="M110.509 196.009V358.028C110.509 360.24 111.228 361.9 112.378 362.652L112.743 362.862C113.332 363.094 113.97 363.177 114.599 363.103C115.228 363.03 115.829 362.803 116.349 362.441L310.788 250.439C314.018 248.57 316.639 243.57 316.639 239.268V77.2592C316.639 75.047 315.964 73.4985 314.892 72.7132C314.71 72.5732 314.509 72.4613 314.294 72.3813C313.715 72.1747 313.095 72.109 312.485 72.1898C311.875 72.2706 311.293 72.4955 310.788 72.8459L116.393 184.848C114.494 186.085 112.992 187.844 112.068 189.914C111.1 191.804 110.567 193.886 110.509 196.009Z"
      fill="white" />
    <path
      d="M290.469 181.343L197.889 234.823C197.421 235.095 196.889 235.24 196.348 235.241C195.806 235.242 195.274 235.1 194.805 234.83C194.335 234.559 193.946 234.17 193.676 233.7C193.406 233.231 193.264 232.698 193.266 232.157V182.604C193.267 180.071 193.933 177.583 195.199 175.39C196.465 173.196 198.285 171.374 200.477 170.105L290.933 117.876C291.605 117.488 292.368 117.283 293.144 117.283C293.92 117.283 294.683 117.487 295.355 117.875C296.028 118.263 296.586 118.82 296.975 119.492C297.364 120.164 297.569 120.927 297.57 121.703V169.099C297.564 171.583 296.906 174.023 295.659 176.172C294.413 178.321 292.622 180.105 290.469 181.343Z"
      fill="#29538E" />
    <path
      d="M207.911 262.951L196.474 269.587C194.472 270.749 192.846 269.521 192.846 266.844V254.909C192.866 253.549 193.205 252.212 193.835 251.006C194.465 249.799 195.369 248.757 196.474 247.963L207.911 241.327C209.913 240.165 211.539 241.393 211.539 244.07V255.971C211.526 257.338 211.191 258.683 210.56 259.895C209.93 261.108 209.022 262.155 207.911 262.951Z"
      fill="#29538E" />
    <path
      d="M235.806 246.934L224.369 253.57C222.367 254.676 220.741 253.504 220.741 250.827V238.892C220.761 237.533 221.099 236.197 221.729 234.993C222.36 233.788 223.264 232.749 224.369 231.957L235.806 225.321C237.808 224.215 239.434 225.387 239.434 228.064V239.965C239.42 241.33 239.084 242.673 238.453 243.883C237.823 245.094 236.916 246.139 235.806 246.934Z"
      fill="#29538E" />
    <path
      d="M264.52 230.341L253.083 236.978C251.081 238.084 249.455 236.912 249.455 234.235V222.289C249.477 220.93 249.817 219.596 250.447 218.391C251.077 217.187 251.98 216.147 253.083 215.354L264.52 208.717C266.522 207.611 268.148 208.795 268.148 211.472V223.373C268.134 224.738 267.797 226.08 267.167 227.291C266.537 228.502 265.63 229.547 264.52 230.341Z"
      fill="#29538E" />
    <path
      d="M293.246 213.752L281.809 220.388C279.807 221.494 278.181 220.311 278.181 217.645V205.699C278.203 204.341 278.542 203.006 279.172 201.802C279.802 200.598 280.705 199.557 281.809 198.764L293.246 192.128C295.248 191.022 296.874 192.205 296.874 194.871V206.783C296.858 208.148 296.522 209.49 295.892 210.701C295.261 211.911 294.355 212.957 293.246 213.752Z"
      fill="#29538E" />
    <path
      d="M207.911 294.463L196.474 301.099C194.472 302.205 192.846 301.022 192.846 298.356V286.41C192.866 285.051 193.205 283.716 193.835 282.511C194.465 281.307 195.369 280.267 196.474 279.475L207.911 272.839C209.913 271.677 211.539 272.916 211.539 275.582V287.494C211.522 288.859 211.184 290.2 210.554 291.41C209.924 292.621 209.019 293.666 207.911 294.463Z"
      fill="#29538E" />
    <path
      d="M235.806 278.445L224.369 285.082C222.367 286.243 220.741 285.004 220.741 282.339V270.393C220.763 269.034 221.103 267.699 221.733 266.495C222.363 265.291 223.266 264.251 224.369 263.458L235.806 256.821C237.808 255.715 239.434 256.899 239.434 259.564V271.51C239.414 272.869 239.075 274.204 238.445 275.409C237.815 276.613 236.911 277.653 235.806 278.445Z"
      fill="#29538E" />
    <path
      d="M264.52 261.855L253.083 268.492C251.081 269.598 249.455 268.414 249.455 265.748V253.803C249.476 252.444 249.814 251.108 250.444 249.904C251.075 248.699 251.978 247.659 253.083 246.867L264.52 240.231C266.522 239.07 268.148 240.297 268.148 242.974V254.92C268.126 256.279 267.786 257.613 267.156 258.818C266.526 260.022 265.623 261.062 264.52 261.855Z"
      fill="#29538E" />
    <path
      d="M293.246 245.252L281.809 251.889C279.807 253.05 278.181 251.822 278.181 249.146V237.211C278.2 235.852 278.539 234.516 279.169 233.311C279.799 232.107 280.703 231.067 281.809 230.276L293.246 223.639C295.248 222.478 296.874 223.706 296.874 226.382V238.284C296.859 239.649 296.523 240.991 295.893 242.202C295.262 243.412 294.355 244.458 293.246 245.252Z"
      fill="#29538E" />
    <g opacity="0.7">
      <path opacity="0.7"
        d="M290.469 181.343L197.889 234.823C197.421 235.095 196.889 235.24 196.348 235.241C195.806 235.242 195.274 235.1 194.805 234.83C194.335 234.559 193.946 234.17 193.676 233.7C193.406 233.231 193.264 232.698 193.266 232.157V182.604C193.267 180.071 193.933 177.583 195.199 175.39C196.465 173.196 198.285 171.374 200.477 170.105L290.933 117.876C291.605 117.488 292.368 117.283 293.144 117.283C293.92 117.283 294.683 117.487 295.355 117.875C296.028 118.263 296.586 118.82 296.975 119.492C297.364 120.164 297.569 120.927 297.57 121.703V169.099C297.564 171.583 296.906 174.023 295.659 176.172C294.413 178.321 292.622 180.105 290.469 181.343Z"
        fill="white" />
      <path opacity="0.7"
        d="M207.911 262.951L196.474 269.587C194.472 270.749 192.846 269.521 192.846 266.844V254.909C192.866 253.549 193.205 252.212 193.835 251.006C194.465 249.799 195.369 248.757 196.474 247.963L207.911 241.327C209.913 240.165 211.539 241.393 211.539 244.07V255.971C211.526 257.338 211.191 258.683 210.56 259.895C209.93 261.108 209.022 262.155 207.911 262.951Z"
        fill="white" />
      <path opacity="0.7"
        d="M235.806 246.934L224.369 253.57C222.367 254.676 220.741 253.504 220.741 250.827V238.892C220.761 237.533 221.099 236.197 221.729 234.993C222.36 233.788 223.264 232.749 224.369 231.957L235.806 225.321C237.808 224.215 239.434 225.387 239.434 228.064V239.965C239.42 241.33 239.084 242.673 238.453 243.883C237.823 245.094 236.916 246.139 235.806 246.934Z"
        fill="white" />
      <path opacity="0.7"
        d="M264.52 230.343L253.083 236.98C251.081 238.086 249.455 236.914 249.455 234.237V222.291C249.477 220.932 249.817 219.598 250.447 218.393C251.077 217.189 251.98 216.149 253.083 215.356L264.52 208.719C266.522 207.613 268.148 208.797 268.148 211.474V223.375C268.134 224.74 267.797 226.082 267.167 227.293C266.537 228.504 265.63 229.549 264.52 230.343Z"
        fill="white" />
      <path opacity="0.7"
        d="M293.246 213.752L281.809 220.388C279.807 221.494 278.181 220.311 278.181 217.645V205.699C278.203 204.341 278.542 203.006 279.172 201.802C279.802 200.598 280.705 199.557 281.809 198.764L293.246 192.128C295.248 191.022 296.874 192.205 296.874 194.871V206.783C296.858 208.148 296.522 209.49 295.892 210.701C295.261 211.911 294.355 212.957 293.246 213.752Z"
        fill="white" />
      <path opacity="0.7"
        d="M207.911 294.463L196.474 301.099C194.472 302.205 192.846 301.022 192.846 298.356V286.41C192.866 285.051 193.205 283.716 193.835 282.512C194.465 281.307 195.369 280.267 196.474 279.475L207.911 272.839C209.913 271.677 211.539 272.916 211.539 275.582V287.494C211.522 288.859 211.184 290.2 210.554 291.41C209.924 292.621 209.019 293.666 207.911 294.463Z"
        fill="white" />
      <path opacity="0.7"
        d="M235.806 278.447L224.369 285.084C222.367 286.245 220.741 285.006 220.741 282.341V270.395C220.763 269.036 221.103 267.701 221.733 266.497C222.363 265.293 223.266 264.253 224.369 263.46L235.806 256.823C237.808 255.717 239.434 256.901 239.434 259.566V271.512C239.414 272.871 239.075 274.206 238.445 275.411C237.815 276.615 236.911 277.655 235.806 278.447Z"
        fill="white" />
      <path opacity="0.7"
        d="M264.52 261.855L253.083 268.492C251.081 269.598 249.455 268.414 249.455 265.748V253.803C249.476 252.444 249.814 251.108 250.444 249.904C251.075 248.699 251.978 247.659 253.083 246.867L264.52 240.231C266.522 239.07 268.148 240.297 268.148 242.974V254.92C268.126 256.279 267.786 257.613 267.156 258.817C266.526 260.022 265.623 261.062 264.52 261.855Z"
        fill="white" />
      <path opacity="0.7"
        d="M293.246 245.252L281.809 251.889C279.807 253.05 278.181 251.822 278.181 249.146V237.211C278.2 235.852 278.539 234.516 279.169 233.311C279.799 232.107 280.703 231.067 281.809 230.276L293.246 223.639C295.248 222.478 296.874 223.706 296.874 226.382V238.284C296.859 239.649 296.523 240.991 295.893 242.202C295.262 243.412 294.355 244.458 293.246 245.252Z"
        fill="white" />
    </g>
    <path
      d="M175.502 328.563L116.039 362.874C115.456 363.213 114.795 363.392 114.121 363.393C113.447 363.394 112.785 363.218 112.202 362.881C111.618 362.544 111.134 362.059 110.798 361.476C110.461 360.892 110.285 360.229 110.287 359.556V199.726L175.469 162.119L175.502 328.563Z"
      fill="#29538E" />
    <path opacity="0.7"
      d="M175.502 328.563L116.039 362.874C115.456 363.213 114.795 363.392 114.121 363.393C113.447 363.394 112.785 363.218 112.202 362.881C111.618 362.544 111.134 362.059 110.798 361.476C110.461 360.892 110.285 360.229 110.287 359.556V199.726L175.469 162.119L175.502 328.563Z"
      fill="white" />
    <path
      d="M128.306 210.277C128.213 211.83 127.757 213.339 126.975 214.684C126.193 216.028 125.107 217.171 123.804 218.02C121.327 219.458 119.313 218.297 119.313 215.432C119.406 213.88 119.86 212.372 120.64 211.027C121.419 209.683 122.503 208.54 123.804 207.689C126.293 206.251 128.306 207.468 128.306 210.277Z"
      fill="#FAFAFA" />
    <path
      d="M128.306 227.501C128.213 229.053 127.757 230.562 126.975 231.907C126.193 233.251 125.107 234.394 123.804 235.243C121.327 236.681 119.313 235.52 119.313 232.655C119.397 231.094 119.847 229.574 120.627 228.22C121.408 226.865 122.496 225.713 123.804 224.857C126.293 223.474 128.306 224.636 128.306 227.501Z"
      fill="#FAFAFA" />
    <path
      d="M128.306 244.721C128.213 246.273 127.757 247.782 126.975 249.127C126.193 250.472 125.107 251.614 123.804 252.463C121.327 253.901 119.313 252.74 119.313 249.864C119.406 248.313 119.86 246.804 120.64 245.46C121.419 244.115 122.503 242.972 123.804 242.122C126.293 240.65 128.306 241.856 128.306 244.721Z"
      fill="#FAFAFA" />
    <path
      d="M128.306 261.943C128.213 263.495 127.757 265.004 126.975 266.349C126.193 267.693 125.107 268.836 123.804 269.685C121.327 271.123 119.313 269.951 119.313 267.086C119.406 265.534 119.86 264.026 120.64 262.681C121.419 261.337 122.503 260.194 123.804 259.343C126.293 257.905 128.306 259.067 128.306 261.943Z"
      fill="#FAFAFA" />
    <path
      d="M138.327 206.13C137.966 206.134 137.614 206.018 137.326 205.801C137.038 205.583 136.831 205.275 136.737 204.927C136.644 204.578 136.669 204.208 136.808 203.876C136.948 203.543 137.194 203.266 137.508 203.088L163.855 187.88C164.229 187.664 164.674 187.606 165.091 187.718C165.507 187.83 165.863 188.103 166.078 188.477C166.294 188.851 166.352 189.295 166.24 189.712C166.128 190.129 165.855 190.485 165.481 190.7L139.134 205.909C138.889 206.051 138.61 206.127 138.327 206.13Z"
      fill="#FAFAFA" />
    <path
      d="M138.327 223.352C137.966 223.356 137.614 223.24 137.326 223.022C137.038 222.804 136.831 222.497 136.737 222.149C136.644 221.8 136.669 221.43 136.808 221.097C136.948 220.765 137.194 220.488 137.508 220.31L163.855 205.09C164.229 204.881 164.67 204.826 165.083 204.937C165.497 205.049 165.85 205.318 166.067 205.688C166.174 205.872 166.243 206.076 166.271 206.287C166.299 206.498 166.285 206.712 166.229 206.918C166.174 207.124 166.078 207.316 165.948 207.485C165.817 207.653 165.655 207.794 165.47 207.9L139.123 223.12C138.882 223.264 138.608 223.344 138.327 223.352Z"
      fill="#FAFAFA" />
    <path
      d="M138.327 240.563C137.969 240.563 137.622 240.446 137.338 240.228C137.055 240.011 136.851 239.706 136.757 239.361C136.664 239.017 136.687 238.65 136.823 238.32C136.959 237.989 137.2 237.713 137.508 237.533L163.855 222.313C164.229 222.103 164.67 222.048 165.083 222.16C165.497 222.272 165.85 222.541 166.067 222.91C166.174 223.095 166.243 223.298 166.271 223.509C166.299 223.721 166.285 223.935 166.229 224.141C166.174 224.346 166.078 224.539 165.948 224.707C165.817 224.876 165.655 225.017 165.47 225.123L139.123 240.342C138.881 240.483 138.607 240.56 138.327 240.563Z"
      fill="#FAFAFA" />
    <path
      d="M138.327 257.785C137.966 257.789 137.614 257.673 137.326 257.455C137.038 257.237 136.831 256.93 136.737 256.581C136.644 256.233 136.669 255.863 136.808 255.53C136.948 255.197 137.194 254.921 137.508 254.743L163.855 239.545C164.229 239.336 164.67 239.281 165.083 239.393C165.497 239.504 165.85 239.774 166.067 240.143C166.174 240.327 166.243 240.531 166.271 240.742C166.299 240.953 166.285 241.168 166.229 241.373C166.174 241.579 166.078 241.771 165.948 241.94C165.817 242.108 165.655 242.249 165.47 242.355L139.123 257.564C138.883 257.709 138.607 257.785 138.327 257.785Z"
      fill="#FAFAFA" />
    <path
      d="M123.782 298.167C123.421 298.171 123.069 298.055 122.781 297.837C122.493 297.62 122.286 297.312 122.193 296.964C122.099 296.615 122.124 296.245 122.263 295.912C122.403 295.58 122.649 295.303 122.963 295.125L163.822 271.543C164.007 271.421 164.215 271.338 164.433 271.299C164.652 271.26 164.876 271.266 165.091 271.317C165.307 271.367 165.511 271.462 165.689 271.594C165.867 271.726 166.016 271.893 166.127 272.085C166.238 272.277 166.309 272.489 166.334 272.71C166.36 272.93 166.341 273.153 166.277 273.366C166.214 273.578 166.107 273.775 165.965 273.945C165.822 274.115 165.646 274.254 165.448 274.353L124.589 297.946C124.346 298.093 124.066 298.169 123.782 298.167Z"
      fill="#FAFAFA" />
    <path
      d="M123.782 312.547C123.421 312.551 123.069 312.436 122.781 312.218C122.493 312 122.286 311.692 122.193 311.344C122.099 310.995 122.124 310.626 122.263 310.293C122.403 309.96 122.649 309.683 122.963 309.505L163.822 285.913C164.196 285.703 164.637 285.648 165.05 285.76C165.464 285.871 165.817 286.141 166.034 286.51C166.141 286.694 166.21 286.898 166.238 287.109C166.266 287.32 166.252 287.535 166.196 287.74C166.141 287.946 166.045 288.139 165.915 288.307C165.784 288.476 165.622 288.617 165.437 288.722L124.578 312.315C124.339 312.464 124.064 312.544 123.782 312.547Z"
      fill="#FAFAFA" />
    <path
      d="M123.782 326.926C123.421 326.93 123.069 326.814 122.781 326.597C122.493 326.379 122.286 326.071 122.193 325.723C122.099 325.374 122.124 325.004 122.263 324.672C122.403 324.339 122.649 324.062 122.963 323.884L163.822 300.292C164.196 300.082 164.637 300.027 165.05 300.139C165.464 300.25 165.817 300.52 166.034 300.889C166.141 301.073 166.21 301.277 166.238 301.488C166.266 301.699 166.252 301.914 166.196 302.119C166.141 302.325 166.045 302.517 165.915 302.686C165.784 302.854 165.622 302.995 165.437 303.101L124.578 326.694C124.337 326.838 124.063 326.918 123.782 326.926Z"
      fill="#FAFAFA" />
    <path
      d="M123.782 341.239C123.421 341.243 123.069 341.127 122.781 340.909C122.493 340.691 122.286 340.384 122.193 340.035C122.099 339.687 122.124 339.317 122.263 338.984C122.403 338.651 122.649 338.375 122.963 338.197L163.822 314.604C164.007 314.497 164.212 314.428 164.424 314.401C164.636 314.373 164.851 314.387 165.057 314.442C165.264 314.498 165.457 314.593 165.627 314.724C165.796 314.854 165.939 315.016 166.045 315.202C166.152 315.387 166.221 315.591 166.249 315.803C166.277 316.015 166.263 316.23 166.207 316.437C166.152 316.643 166.056 316.837 165.926 317.006C165.796 317.176 165.633 317.318 165.448 317.425L124.589 341.018C124.344 341.16 124.066 341.236 123.782 341.239Z"
      fill="#FAFAFA" />
    <path
      d="M110.509 290.967C110.415 290.969 110.322 290.946 110.24 290.899C110.158 290.852 110.09 290.784 110.044 290.702C109.971 290.578 109.95 290.431 109.985 290.292C110.021 290.154 110.109 290.034 110.232 289.961L173.523 253.46C173.584 253.423 173.652 253.398 173.723 253.388C173.794 253.378 173.866 253.382 173.936 253.401C174.005 253.42 174.07 253.452 174.126 253.496C174.182 253.541 174.229 253.596 174.264 253.659C174.333 253.784 174.351 253.931 174.314 254.07C174.276 254.208 174.187 254.326 174.065 254.4L110.785 290.901C110.699 290.944 110.605 290.966 110.509 290.967Z"
      fill="#FAFAFA" />
    <path
      d="M115.088 185.956L311.871 72.029C312.399 71.719 313 71.5541 313.612 71.5508C314.224 71.5476 314.826 71.7061 315.357 72.0103C315.888 72.3146 316.329 72.7538 316.636 73.2835C316.942 73.8131 317.104 74.4144 317.103 75.0265V83.5876L110.32 202.713V196.01C110.32 192.581 112.134 187.681 115.088 185.956Z"
      fill="#E6E6E6" />
    <path
      d="M313.884 72.4592C314.173 72.4592 314.458 72.5155 314.725 72.6251C314.858 72.6781 314.981 72.7529 315.09 72.8463C315.586 73.3321 315.966 73.9235 316.202 74.5766C316.437 75.2297 316.522 75.9275 316.451 76.6181V239.611C316.451 243.549 313.984 248.305 311.053 249.986L115.497 362.674C114.944 363.019 114.311 363.214 113.661 363.238C113.367 363.242 113.077 363.181 112.809 363.061L112.499 362.895C111.603 362.276 111.094 360.893 111.094 359.079V196.087C111.141 194.102 111.628 192.152 112.521 190.379C113.365 188.475 114.74 186.854 116.481 185.711L312.037 73.0343C312.591 72.6824 313.229 72.4839 313.884 72.4592ZM313.884 71.4748C313.059 71.5 312.255 71.7402 311.551 72.1716L116.039 184.86C114.126 186.1 112.612 187.867 111.681 189.948C110.72 191.854 110.198 193.952 110.154 196.087V359.079C110.154 361.347 110.873 362.973 112.035 363.736L112.411 363.946C112.815 364.137 113.257 364.236 113.705 364.234C114.531 364.205 115.336 363.961 116.039 363.526L311.595 250.849C314.847 248.969 317.479 243.936 317.479 239.611V76.6181C317.479 74.4059 316.804 72.8463 315.721 72.0499C315.538 71.9083 315.337 71.7928 315.123 71.707C314.745 71.5496 314.338 71.4706 313.929 71.4748H313.884Z"
      fill="#F0F0F0" />
    <path
      d="M217.135 62.1056C217.221 60.9861 217.699 59.9327 218.485 59.1303L222.798 54.7723C223.123 54.4498 223.362 54.0511 223.494 53.6125C223.625 53.174 223.645 52.7095 223.551 52.2615L222.444 46.9965C222.41 46.8424 222.342 46.6975 222.247 46.5716C222.152 46.4456 222.03 46.3416 221.891 46.2665L215.786 43.28L215.642 43.2026C215.46 43.1295 215.261 43.1063 215.066 43.1355C214.872 43.1646 214.689 43.2451 214.536 43.3685L212.788 44.8728L214.602 39.3424C214.706 39.0283 214.692 38.6874 214.564 38.3825C214.436 38.0777 214.202 37.8293 213.905 37.6832L207.844 34.6636C207.693 34.5825 207.528 34.53 207.357 34.5088L203.42 34C203.15 33.9672 202.877 33.9937 202.619 34.0778C202.361 34.1619 202.125 34.3014 201.927 34.4866C201.736 34.6544 201.585 34.8621 201.484 35.095L198.575 41.7315C198.296 42.3682 197.829 42.9045 197.237 43.269L197.038 42.727C196.934 42.4751 196.741 42.2703 196.496 42.1518L190.49 39.2207L190.302 39.1322C190.115 39.0573 189.91 39.0393 189.713 39.0807C189.516 39.122 189.336 39.2208 189.195 39.3645L184.052 44.5631C183.694 44.9282 183.425 45.3711 183.267 45.8572C183.128 46.3158 183.094 46.7996 183.167 47.273L183.908 52.0071C183.994 52.6082 183.852 53.2197 183.51 53.7215L180.579 58.2786C180.417 58.5438 180.202 58.7733 179.949 58.9533C179.534 59.2458 179.04 59.4041 178.533 59.4068H175.215C175.013 59.4052 174.812 59.4313 174.617 59.4842C174.263 59.5809 173.936 59.7608 173.665 60.0089C173.394 60.2571 173.185 60.5664 173.058 60.9111L170.115 68.9634C170.012 69.2404 170.01 69.5454 170.112 69.8234C170.213 70.1013 170.411 70.3338 170.669 70.4787L175.027 72.6135C175.066 72.8069 175.066 73.0063 175.027 73.1997L174.54 77.7125C174.511 77.999 174.436 78.2791 174.319 78.5421C174.172 78.9218 173.95 79.2679 173.666 79.5597L169.242 84.161C168.935 84.4733 168.704 84.8517 168.567 85.2671C168.445 85.7311 168.445 86.2188 168.567 86.6829L169.795 92.4345C169.824 92.5606 169.883 92.678 169.965 92.7778C170.048 92.8776 170.152 92.9569 170.27 93.0097L176.354 95.9851C176.499 96.0667 176.666 96.102 176.832 96.0862C176.998 96.0704 177.156 96.0042 177.283 95.8966L179.263 94.2706L177.604 100C177.581 100.128 177.581 100.259 177.604 100.387C177.619 100.624 177.698 100.851 177.832 101.046C177.966 101.241 178.151 101.396 178.367 101.493L184.284 104.369C184.458 104.51 184.67 104.595 184.893 104.613L188.311 105.044C188.764 105.098 189.224 105.006 189.622 104.782C190.019 104.557 190.335 104.211 190.523 103.794L193.432 97.2902C193.73 96.6388 194.225 96.0973 194.848 95.7417L195.002 96.1731C195.052 96.3163 195.134 96.4465 195.241 96.5537C195.348 96.661 195.479 96.7426 195.622 96.7925L201.628 99.7347C201.81 99.8152 202.011 99.8414 202.207 99.81C202.403 99.7786 202.586 99.691 202.734 99.5577L207.966 94.7684C208.278 94.4818 208.515 94.1236 208.658 93.7247C208.801 93.3258 208.844 92.8982 208.784 92.4788L208.043 87.247C207.921 86.3623 208.121 85.4631 208.607 84.714L210.996 81.0087C211.302 80.5381 211.72 80.1511 212.212 79.8827C212.704 79.6142 213.256 79.4728 213.817 79.4712H217.003C217.4 79.5049 217.799 79.4117 218.141 79.2051C218.482 78.9984 218.75 78.6889 218.905 78.3209L221.803 70.5783C221.929 70.231 221.929 69.8506 221.804 69.5031C221.679 69.1556 221.436 68.8629 221.117 68.6758H220.995L216.991 66.718C216.964 66.5496 216.964 66.3777 216.991 66.2092L217.135 62.1056ZM197.889 58.356C199.157 57.4095 200.626 56.7662 202.181 56.4756C202.823 57.7864 203.199 59.2111 203.287 60.6677C203.94 67.6803 199.814 76.6617 194.062 80.7432C192.809 81.6764 191.373 82.3358 189.848 82.6788C189.15 81.3599 188.735 79.9093 188.631 78.4204C188.056 71.4189 192.182 62.4264 197.889 58.356Z"
      fill="#29538E" />
    <path opacity="0.3"
      d="M217.135 62.1056C217.221 60.9861 217.699 59.9327 218.485 59.1303L222.798 54.7723C223.123 54.4498 223.362 54.0511 223.494 53.6125C223.625 53.174 223.645 52.7095 223.551 52.2615L222.444 46.9965C222.41 46.8424 222.342 46.6975 222.247 46.5716C222.152 46.4456 222.03 46.3416 221.891 46.2665L215.786 43.28L215.642 43.2026C215.46 43.1295 215.261 43.1063 215.066 43.1355C214.872 43.1646 214.689 43.2451 214.536 43.3685L212.788 44.8728L214.602 39.3424C214.706 39.0283 214.692 38.6874 214.564 38.3825C214.436 38.0777 214.202 37.8293 213.905 37.6832L207.844 34.6636C207.693 34.5825 207.528 34.53 207.357 34.5088L203.42 34C203.15 33.9672 202.877 33.9937 202.619 34.0778C202.361 34.1619 202.125 34.3014 201.927 34.4866C201.736 34.6544 201.585 34.8621 201.484 35.095L198.575 41.7315C198.296 42.3682 197.829 42.9045 197.237 43.269L197.038 42.727C196.934 42.4751 196.741 42.2703 196.496 42.1518L190.49 39.2207L190.302 39.1322C190.115 39.0573 189.91 39.0393 189.713 39.0807C189.516 39.122 189.336 39.2208 189.195 39.3645L184.052 44.5631C183.694 44.9282 183.425 45.3711 183.267 45.8572C183.128 46.3158 183.094 46.7996 183.167 47.273L183.908 52.0071C183.994 52.6082 183.852 53.2197 183.51 53.7215L180.579 58.2786C180.417 58.5438 180.202 58.7733 179.949 58.9533C179.534 59.2458 179.04 59.4041 178.533 59.4068H175.215C175.013 59.4052 174.812 59.4313 174.617 59.4842C174.263 59.5809 173.936 59.7608 173.665 60.0089C173.394 60.2571 173.185 60.5664 173.058 60.9111L170.115 68.9634C170.012 69.2404 170.01 69.5454 170.112 69.8234C170.213 70.1013 170.411 70.3338 170.669 70.4787L175.027 72.6135C175.066 72.8069 175.066 73.0063 175.027 73.1997L174.54 77.7125C174.511 77.999 174.436 78.2791 174.319 78.5421C174.172 78.9218 173.95 79.2679 173.666 79.5597L169.242 84.161C168.935 84.4733 168.704 84.8517 168.567 85.2671C168.445 85.7311 168.445 86.2188 168.567 86.6829L169.795 92.4345C169.824 92.5606 169.883 92.678 169.965 92.7778C170.048 92.8776 170.152 92.9569 170.27 93.0097L176.354 95.9851C176.499 96.0667 176.666 96.102 176.832 96.0862C176.998 96.0704 177.156 96.0042 177.283 95.8966L179.263 94.2706L177.604 100C177.581 100.128 177.581 100.259 177.604 100.387C177.619 100.624 177.698 100.851 177.832 101.046C177.966 101.241 178.151 101.396 178.367 101.493L184.284 104.369C184.458 104.51 184.67 104.595 184.893 104.613L188.311 105.044C188.764 105.098 189.224 105.006 189.622 104.782C190.019 104.557 190.335 104.211 190.523 103.794L193.432 97.2902C193.73 96.6388 194.225 96.0973 194.848 95.7417L195.002 96.1731C195.052 96.3163 195.134 96.4465 195.241 96.5537C195.348 96.661 195.479 96.7426 195.622 96.7925L201.628 99.7347C201.81 99.8152 202.011 99.8414 202.207 99.81C202.403 99.7786 202.586 99.691 202.734 99.5577L207.966 94.7684C208.278 94.4818 208.515 94.1236 208.658 93.7247C208.801 93.3258 208.844 92.8982 208.784 92.4788L208.043 87.247C207.921 86.3623 208.121 85.4631 208.607 84.714L210.996 81.0087C211.302 80.5381 211.72 80.1511 212.212 79.8827C212.704 79.6142 213.256 79.4728 213.817 79.4712H217.003C217.4 79.5049 217.799 79.4117 218.141 79.2051C218.482 78.9984 218.75 78.6889 218.905 78.3209L221.803 70.5783C221.929 70.231 221.929 69.8506 221.804 69.5031C221.679 69.1556 221.436 68.8629 221.117 68.6758H220.995L216.991 66.718C216.964 66.5496 216.964 66.3777 216.991 66.2092L217.135 62.1056ZM197.889 58.356C199.157 57.4095 200.626 56.7662 202.181 56.4756C202.823 57.7864 203.199 59.2111 203.287 60.6677C203.94 67.6803 199.814 76.6617 194.062 80.7432C192.809 81.6764 191.373 82.3358 189.848 82.6788C189.15 81.3599 188.735 79.9093 188.631 78.4204C188.056 71.4189 192.182 62.4264 197.889 58.356Z"
      fill="black" />
    <path opacity="0.2"
      d="M181.298 81.6953L174.662 88.4203L168.545 85.268C168.682 84.8526 168.913 84.4742 169.22 84.1619L173.644 79.5606C173.928 79.2688 174.15 78.9227 174.297 78.543L181.298 81.6953Z"
      fill="black" />
    <path opacity="0.2"
      d="M186.121 61.9077L185.988 62.6598H180.248L174.662 59.4411C174.857 59.3882 175.058 59.3621 175.259 59.3636H178.578C179.085 59.361 179.579 59.2027 179.993 58.9102L186.121 61.9077Z"
      fill="black" />
    <path opacity="0.2"
      d="M196.474 42.1534L193.886 44.6974L189.306 49.2103L183.245 45.892C183.404 45.4059 183.672 44.963 184.03 44.5979L189.174 39.3993C189.315 39.2556 189.495 39.1568 189.692 39.1155C189.888 39.0741 190.093 39.0921 190.28 39.167L190.468 39.2555L196.474 42.1534Z"
      fill="black" />
    <path opacity="0.2"
      d="M213.927 37.6501H207.899L201.904 34.4866C202.103 34.3014 202.339 34.1619 202.597 34.0778C202.855 33.9937 203.128 33.9672 203.398 34L207.324 34.4977C207.494 34.5189 207.659 34.5714 207.811 34.6526L213.927 37.6501Z"
      fill="black" />
    <path
      d="M218.485 59.1318L222.799 54.7738C223.124 54.4513 223.363 54.0526 223.495 53.6141C223.626 53.1755 223.645 52.7111 223.551 52.263L222.445 46.9981C222.401 46.8209 222.314 46.6573 222.192 46.5219C222.069 46.3865 221.915 46.2836 221.743 46.2223C221.571 46.1609 221.387 46.1431 221.206 46.1704C221.026 46.1977 220.855 46.2692 220.709 46.3787L216.284 50.0619C216.052 50.2555 215.756 50.3541 215.454 50.3376C215.152 50.3212 214.868 50.1911 214.658 49.9734L213.375 48.6351C212.975 48.2185 212.696 47.701 212.567 47.1379C212.439 46.5749 212.466 45.9874 212.645 45.4385L214.603 39.3439C214.667 39.1527 214.688 38.9499 214.664 38.7498C214.641 38.5496 214.575 38.3569 214.469 38.1852C214.364 38.0134 214.222 37.8668 214.054 37.7555C213.886 37.6443 213.696 37.571 213.497 37.541L209.581 37.0543C209.182 37.0027 208.777 37.0828 208.428 37.2824C208.079 37.4821 207.804 37.7904 207.646 38.1604L204.737 44.7969C204.382 45.6033 203.733 46.244 202.923 46.5888L200.312 47.6949C200.159 47.7593 199.995 47.7923 199.829 47.792C199.663 47.7917 199.499 47.758 199.346 47.693C199.194 47.628 199.056 47.533 198.94 47.4137C198.825 47.2943 198.735 47.1529 198.675 46.9981L197.049 42.7839C196.989 42.6212 196.887 42.4766 196.756 42.3635C196.624 42.2505 196.465 42.1726 196.295 42.1373C196.125 42.102 195.949 42.1103 195.783 42.1614C195.617 42.2126 195.467 42.305 195.346 42.4299L190.147 47.5622C189.802 47.9151 189.543 48.3437 189.391 48.8141C189.239 49.2844 189.199 49.7836 189.274 50.2721L190.015 55.0061C190.102 55.5923 189.972 56.1901 189.65 56.6874L186.73 61.2555C186.506 61.5969 186.201 61.877 185.842 62.0702C185.482 62.2634 185.08 62.3636 184.672 62.3616H181.354C180.873 62.3513 180.401 62.4919 180.004 62.7637C179.608 63.0355 179.306 63.4248 179.142 63.8769L176.189 71.9182C176.132 72.0785 176.108 72.2486 176.119 72.4184C176.13 72.5881 176.175 72.7539 176.251 72.9058C176.328 73.0576 176.434 73.1925 176.564 73.3022C176.694 73.4119 176.845 73.4942 177.007 73.5441L180.06 74.4622C180.414 74.573 180.718 74.8038 180.92 75.1147C181.122 75.4257 181.209 75.7973 181.166 76.1656L180.679 80.6784C180.602 81.3743 180.295 82.0244 179.806 82.5256L175.381 87.138C175.059 87.4688 174.824 87.8743 174.696 88.3182C174.569 88.7621 174.554 89.2306 174.651 89.682L175.923 95.4115C175.953 95.5505 176.019 95.6795 176.113 95.786C176.207 95.8925 176.328 95.9729 176.462 96.0196C176.596 96.0662 176.74 96.0775 176.881 96.0524C177.021 96.0272 177.152 95.9665 177.262 95.876L181.686 92.2591C181.859 92.1149 182.059 92.0063 182.274 91.9399C182.489 91.8734 182.716 91.8503 182.94 91.8719C183.164 91.8935 183.382 91.9594 183.581 92.0657C183.779 92.1721 183.955 92.3168 184.097 92.4914L185.203 93.8519C185.472 94.1831 185.657 94.5743 185.741 94.9922C185.826 95.4102 185.808 95.8424 185.69 96.2521L183.743 102.988C183.689 103.171 183.675 103.363 183.703 103.551C183.731 103.74 183.8 103.919 183.906 104.078C184.012 104.236 184.151 104.37 184.314 104.468C184.477 104.566 184.66 104.628 184.849 104.647L188.267 105.079C188.721 105.133 189.18 105.041 189.578 104.816C189.976 104.592 190.292 104.246 190.479 103.829L193.388 97.325C193.719 96.5854 194.304 95.9889 195.036 95.6438L197.58 94.4271C197.783 94.3248 198.005 94.2673 198.231 94.2584C198.458 94.2495 198.684 94.2894 198.894 94.3754C199.103 94.4614 199.292 94.5915 199.447 94.7569C199.602 94.9223 199.72 95.1192 199.793 95.3341L201.153 99.2164C201.209 99.378 201.304 99.5232 201.43 99.6388C201.556 99.7544 201.709 99.8368 201.874 99.8785C202.04 99.9202 202.214 99.9199 202.379 99.8777C202.545 99.8355 202.698 99.7527 202.823 99.6367L208.055 94.8474C208.367 94.5608 208.605 94.2026 208.747 93.8037C208.89 93.4048 208.933 92.9772 208.874 92.5578L208.132 87.326C208.01 86.4413 208.21 85.5422 208.697 84.793L211.086 81.0877C211.391 80.6171 211.809 80.2301 212.301 79.9617C212.794 79.6932 213.345 79.5518 213.906 79.5502H217.092C217.484 79.559 217.87 79.4456 218.195 79.2256C218.52 79.0056 218.768 78.69 218.906 78.3224L221.804 70.5798C221.878 70.3711 221.909 70.149 221.892 69.9279C221.876 69.7068 221.814 69.4915 221.71 69.2957C221.606 69.1 221.462 68.9282 221.288 68.7912C221.113 68.6542 220.912 68.5552 220.698 68.5004L218.065 67.7925C217.706 67.696 217.392 67.4777 217.176 67.1751C216.96 66.8724 216.856 66.5042 216.882 66.1334L217.158 62.1625C217.226 61.0265 217.696 59.9518 218.485 59.1318ZM200.29 83.7533C194.55 87.8237 189.362 85.4346 188.71 78.422C188.057 71.4094 192.183 62.428 197.923 58.3576C203.664 54.2872 208.862 56.6763 209.515 63.6889C210.168 70.7015 206.031 79.6829 200.29 83.7533Z"
      fill="#29538E" />
    <path
      d="M96.1296 155.217C96.2624 153.274 97.0909 151.444 98.4634 150.063L105.941 142.519C106.496 141.952 106.905 141.257 107.131 140.496C107.356 139.734 107.392 138.929 107.235 138.15L105.343 129.036C105.287 128.767 105.172 128.515 105.005 128.296C104.839 128.078 104.625 127.9 104.381 127.775L93.7847 122.61L93.5303 122.477C93.2222 122.35 92.885 122.309 92.5555 122.36C92.226 122.41 91.9166 122.55 91.661 122.765L88.575 125.309L91.7274 115.73C91.9057 115.184 91.8808 114.593 91.6572 114.064C91.4336 113.536 91.0264 113.106 90.5107 112.854L79.9365 107.678C79.6778 107.53 79.3918 107.436 79.0959 107.401L72.2934 106.538C71.8276 106.478 71.3541 106.521 70.9068 106.664C70.4594 106.808 70.0492 107.048 69.7052 107.368C69.3712 107.675 69.1104 108.053 68.942 108.474L63.8982 119.966C63.4216 121.072 62.614 122.003 61.5865 122.632L61.2326 121.692C61.0579 121.255 60.721 120.902 60.2924 120.707L49.8952 115.619L49.5634 115.464C49.2389 115.335 48.8834 115.303 48.5411 115.374C48.1989 115.445 47.8851 115.615 47.6388 115.863L38.7237 124.877C38.1077 125.499 37.6456 126.257 37.3743 127.089C37.1383 127.882 37.0779 128.716 37.1973 129.534L38.4804 137.741C38.6353 138.754 38.4151 139.788 37.861 140.65L32.784 148.558C32.4991 149.018 32.1226 149.413 31.6779 149.72C30.9663 150.233 30.1107 150.508 29.2335 150.505H23.4818C23.1337 150.502 22.787 150.55 22.4532 150.649C21.8362 150.811 21.2676 151.12 20.7957 151.55C20.3239 151.979 19.9628 152.517 19.7433 153.116L14.6331 167.063C14.4687 167.546 14.4757 168.07 14.6531 168.547C14.8304 169.025 15.1672 169.427 15.6065 169.685L23.15 173.379C23.2428 173.71 23.2691 174.056 23.2274 174.397L22.3868 182.217C22.3242 182.715 22.1939 183.202 21.9997 183.666C21.7477 184.289 21.3799 184.86 20.9157 185.347L13.1731 193.333C12.6188 193.912 12.215 194.618 11.997 195.389C11.7791 196.161 11.7538 196.974 11.9232 197.757L14.1354 207.712C14.1865 207.934 14.2893 208.141 14.4353 208.316C14.5814 208.491 14.7666 208.629 14.976 208.719L25.517 213.873C25.7699 214.013 26.0587 214.074 26.3465 214.048C26.6342 214.022 26.9077 213.911 27.1319 213.729L30.5497 210.909L27.685 220.863C27.6124 221.08 27.5823 221.31 27.5965 221.538C27.6073 221.96 27.7351 222.37 27.9655 222.724C28.196 223.077 28.5201 223.36 28.9017 223.54L39.1551 228.517C39.4776 228.759 39.8601 228.909 40.2612 228.949L46.1898 229.69C46.9871 229.786 47.7941 229.623 48.4913 229.224C49.1886 228.826 49.739 228.213 50.0611 227.478L55.1049 216.218C55.62 215.089 56.4796 214.151 57.5604 213.541L57.8148 214.282C57.9028 214.539 58.0482 214.771 58.2399 214.963C58.4315 215.155 58.6645 215.3 58.9208 215.388L69.3402 220.498C69.6591 220.649 70.0159 220.702 70.3648 220.649C70.7136 220.595 71.0386 220.439 71.298 220.2L80.3679 211.904C80.8896 211.408 81.2869 210.796 81.5271 210.118C81.7674 209.439 81.8439 208.713 81.7505 208L80.4564 198.93C80.2371 197.386 80.5827 195.815 81.4297 194.505L85.5775 188.09C86.1042 187.275 86.8265 186.606 87.6786 186.142C88.5306 185.678 89.4853 185.435 90.4554 185.435H95.9858C96.6666 185.429 97.329 185.213 97.883 184.817C98.437 184.422 98.8559 183.865 99.0829 183.223L104.116 169.862C104.338 169.256 104.341 168.592 104.122 167.985C103.904 167.378 103.478 166.868 102.921 166.543H102.855L102.656 166.444L95.7093 163.059C95.6296 162.768 95.5997 162.465 95.6208 162.163L96.1296 155.217ZM62.8364 148.724C65.0276 147.071 67.5652 145.937 70.2582 145.406C71.4031 147.679 72.0836 150.157 72.2603 152.695C73.3663 164.862 66.2321 180.347 56.2773 187.46C54.1064 189.07 51.6181 190.201 48.9771 190.778C47.7678 188.496 47.0483 185.987 46.8645 183.411C45.7363 171.344 52.8927 155.781 62.8475 148.724H62.8364Z"
      fill="#29538E" />
    <path opacity="0.3"
      d="M96.1296 155.217C96.2624 153.274 97.0909 151.444 98.4634 150.063L105.941 142.519C106.496 141.952 106.905 141.257 107.131 140.496C107.356 139.734 107.392 138.929 107.235 138.15L105.343 129.036C105.287 128.767 105.172 128.515 105.005 128.296C104.839 128.078 104.625 127.9 104.381 127.775L93.7847 122.61L93.5303 122.477C93.2222 122.35 92.885 122.309 92.5555 122.36C92.226 122.41 91.9166 122.55 91.661 122.765L88.575 125.309L91.7274 115.73C91.9057 115.184 91.8808 114.593 91.6572 114.064C91.4336 113.536 91.0264 113.106 90.5107 112.854L79.9365 107.678C79.6778 107.53 79.3918 107.436 79.0959 107.401L72.2934 106.538C71.8276 106.478 71.3541 106.521 70.9068 106.664C70.4594 106.808 70.0492 107.048 69.7052 107.368C69.3712 107.675 69.1104 108.053 68.942 108.474L63.8982 119.966C63.4216 121.072 62.614 122.003 61.5865 122.632L61.2326 121.692C61.0579 121.255 60.721 120.902 60.2924 120.707L49.8952 115.619L49.5634 115.464C49.2389 115.335 48.8834 115.303 48.5411 115.374C48.1989 115.445 47.8851 115.615 47.6388 115.863L38.7237 124.877C38.1077 125.499 37.6456 126.257 37.3743 127.089C37.1383 127.882 37.0779 128.716 37.1973 129.534L38.4804 137.741C38.6353 138.754 38.4151 139.788 37.861 140.65L32.784 148.558C32.4991 149.018 32.1226 149.413 31.6779 149.72C30.9663 150.233 30.1107 150.508 29.2335 150.505H23.4818C23.1337 150.502 22.787 150.55 22.4532 150.649C21.8362 150.811 21.2676 151.12 20.7957 151.55C20.3239 151.979 19.9628 152.517 19.7433 153.116L14.6331 167.063C14.4687 167.546 14.4757 168.07 14.6531 168.547C14.8304 169.025 15.1672 169.427 15.6065 169.685L23.15 173.379C23.2428 173.71 23.2691 174.056 23.2274 174.397L22.3868 182.217C22.3242 182.715 22.1939 183.202 21.9997 183.666C21.7477 184.289 21.3799 184.86 20.9157 185.347L13.1731 193.333C12.6188 193.912 12.215 194.618 11.997 195.389C11.7791 196.161 11.7538 196.974 11.9232 197.757L14.1354 207.712C14.1865 207.934 14.2893 208.141 14.4353 208.316C14.5814 208.491 14.7666 208.629 14.976 208.719L25.517 213.873C25.7699 214.013 26.0587 214.074 26.3465 214.048C26.6342 214.022 26.9077 213.911 27.1319 213.729L30.5497 210.909L27.685 220.863C27.6124 221.08 27.5823 221.31 27.5965 221.538C27.6073 221.96 27.7351 222.37 27.9655 222.724C28.196 223.077 28.5201 223.36 28.9017 223.54L39.1551 228.517C39.4776 228.759 39.8601 228.909 40.2612 228.949L46.1898 229.69C46.9871 229.786 47.7941 229.623 48.4913 229.224C49.1886 228.826 49.739 228.213 50.0611 227.478L55.1049 216.218C55.62 215.089 56.4796 214.151 57.5604 213.541L57.8148 214.282C57.9028 214.539 58.0482 214.771 58.2399 214.963C58.4315 215.155 58.6645 215.3 58.9208 215.388L69.3402 220.498C69.6591 220.649 70.0159 220.702 70.3648 220.649C70.7136 220.595 71.0386 220.439 71.298 220.2L80.3679 211.904C80.8896 211.408 81.2869 210.796 81.5271 210.118C81.7674 209.439 81.8439 208.713 81.7505 208L80.4564 198.93C80.2371 197.386 80.5827 195.815 81.4297 194.505L85.5775 188.09C86.1042 187.275 86.8265 186.606 87.6786 186.142C88.5306 185.678 89.4853 185.435 90.4554 185.435H95.9858C96.6666 185.429 97.329 185.213 97.883 184.817C98.437 184.422 98.8559 183.865 99.0829 183.223L104.116 169.862C104.338 169.256 104.341 168.592 104.122 167.985C103.904 167.378 103.478 166.868 102.921 166.543H102.855L102.656 166.444L95.7093 163.059C95.6296 162.768 95.5997 162.465 95.6208 162.163L96.1296 155.217ZM62.8364 148.724C65.0276 147.071 67.5652 145.937 70.2582 145.406C71.4031 147.679 72.0836 150.157 72.2603 152.695C73.3663 164.862 66.2321 180.347 56.2773 187.46C54.1064 189.07 51.6181 190.201 48.9771 190.778C47.7678 188.496 47.0483 185.987 46.8645 183.411C45.7363 171.344 52.8927 155.781 62.8475 148.724H62.8364Z"
      fill="black" />
    <path opacity="0.2"
      d="M34.0564 189.152L22.5973 200.832L12.0674 195.302C12.277 194.568 12.6558 193.894 13.1735 193.333L20.9161 185.347C21.3953 184.842 21.7711 184.249 22.0222 183.6L34.0564 189.152Z"
      fill="black" />
    <path opacity="0.2"
      d="M42.3955 154.873L42.1633 156.178H32.2085L22.4307 150.648C22.7645 150.549 23.1112 150.501 23.4593 150.504H29.2442C30.1214 150.507 30.977 150.232 31.6886 149.719L42.3955 154.873Z"
      fill="black" />
    <path opacity="0.2"
      d="M60.3254 120.652L55.901 125.076L47.9704 132.874L37.4736 127.079C37.7449 126.246 38.207 125.489 38.8231 124.866L47.7381 115.852C47.9845 115.604 48.2983 115.434 48.6405 115.363C48.9827 115.292 49.3382 115.324 49.6627 115.454L49.9945 115.608L60.3254 120.652Z"
      fill="black" />
    <path opacity="0.2"
      d="M90.5991 112.844H80.1355L69.7383 107.313C70.0822 106.993 70.4925 106.753 70.9398 106.61C71.3872 106.466 71.8607 106.423 72.3265 106.484L79.129 107.346C79.4249 107.381 79.7109 107.475 79.9696 107.623L90.5991 112.844Z"
      fill="black" />
    <path
      d="M98.4744 150.063L105.952 142.52C106.507 141.952 106.916 141.258 107.142 140.496C107.367 139.735 107.403 138.929 107.246 138.151L105.354 129.037C105.295 128.718 105.154 128.42 104.944 128.172C104.735 127.924 104.464 127.735 104.16 127.624C103.855 127.512 103.526 127.482 103.206 127.535C102.886 127.589 102.586 127.725 102.335 127.931L94.5921 134.313C94.1893 134.645 93.6758 134.812 93.1548 134.781C92.6337 134.75 92.1436 134.524 91.7826 134.147L89.5704 131.824C88.8805 131.102 88.399 130.206 88.1769 129.233C87.9549 128.259 88.0007 127.243 88.3095 126.294L91.8047 115.675C91.9153 115.34 91.9503 114.985 91.9074 114.635C91.8644 114.285 91.7445 113.949 91.5563 113.651C91.3681 113.353 91.1163 113.1 90.8188 112.911C90.5214 112.721 90.1857 112.6 89.8359 112.556L83.0335 111.704C82.3499 111.627 81.6593 111.769 81.0624 112.111C80.4656 112.454 79.9936 112.978 79.7152 113.607L74.6825 125.088C74.0658 126.488 72.9384 127.599 71.5302 128.196L67.0063 130.11C66.7376 130.241 66.4443 130.315 66.1453 130.327C65.8463 130.339 65.5482 130.288 65.2701 130.177C64.992 130.067 64.74 129.899 64.5304 129.686C64.3208 129.472 64.1582 129.217 64.053 128.937L61.2325 121.626C61.1235 121.347 60.9467 121.1 60.7182 120.906C60.4896 120.713 60.2164 120.579 59.9234 120.518C59.6303 120.456 59.3265 120.469 59.0395 120.554C58.7524 120.639 58.4911 120.795 58.2793 121.006L49.3974 130.043C48.7967 130.65 48.3467 131.39 48.0836 132.202C47.8204 133.015 47.7514 133.878 47.882 134.722L49.154 142.929C49.308 143.942 49.0878 144.976 48.5346 145.838L43.4688 153.747C43.0877 154.345 42.5613 154.838 41.9385 155.178C41.3157 155.519 40.6169 155.696 39.9072 155.693H34.1887C33.3723 155.696 32.5762 155.948 31.9077 156.417C31.2393 156.886 30.7305 157.548 30.4501 158.315L25.34 172.229C25.2465 172.506 25.2088 172.798 25.2289 173.09C25.249 173.381 25.3266 173.665 25.4572 173.927C25.5878 174.188 25.7688 174.421 25.9898 174.611C26.2107 174.802 26.4673 174.948 26.7447 175.039L31.9765 176.654C32.5932 176.839 33.125 177.235 33.4789 177.773C33.8327 178.311 33.9861 178.956 33.9122 179.596L33.0826 187.416C32.9539 188.62 32.4241 189.746 31.5783 190.612L23.8357 198.598C23.2736 199.172 22.8639 199.878 22.6437 200.651C22.4235 201.423 22.3998 202.239 22.5748 203.023L24.7869 212.978C24.8404 213.219 24.955 213.444 25.1198 213.628C25.2845 213.813 25.4939 213.953 25.728 214.034C25.9621 214.115 26.213 214.135 26.4569 214.091C26.7007 214.047 26.9293 213.942 27.1208 213.785L34.7085 207.469C35.0096 207.221 35.3568 207.034 35.7301 206.92C36.1034 206.806 36.4956 206.767 36.8841 206.805C37.2725 206.843 37.6497 206.958 37.9938 207.142C38.338 207.326 38.6424 207.576 38.8896 207.878L40.8252 210.246C41.2914 210.817 41.6124 211.492 41.7607 212.215C41.909 212.937 41.8802 213.685 41.6769 214.393L38.2812 226.063C38.1909 226.378 38.1699 226.71 38.2196 227.034C38.2694 227.359 38.3886 227.669 38.5693 227.943C38.75 228.217 38.9878 228.449 39.2664 228.623C39.5451 228.796 39.858 228.908 40.1837 228.949L46.1123 229.691C46.9096 229.786 47.7166 229.623 48.4138 229.225C49.1111 228.826 49.6615 228.214 49.9836 227.478L55.0274 216.218C55.6018 214.94 56.6137 213.908 57.8811 213.309L62.3054 211.208C62.6518 211.042 63.0293 210.95 63.4134 210.94C63.7975 210.929 64.1794 211 64.5343 211.147C64.8892 211.294 65.2091 211.515 65.473 211.794C65.737 212.073 65.9391 212.405 66.0661 212.767L68.4 219.503C68.4981 219.783 68.6638 220.033 68.8825 220.233C69.1011 220.432 69.3657 220.575 69.6528 220.647C69.9398 220.719 70.2403 220.719 70.5274 220.647C70.8145 220.575 71.0792 220.433 71.2979 220.233L80.3678 211.938C80.8945 211.438 81.2946 210.821 81.5351 210.136C81.7755 209.451 81.8493 208.719 81.7504 208L80.4563 198.93C80.237 197.386 80.5827 195.815 81.4296 194.506L85.5775 188.091C86.1041 187.276 86.8264 186.606 87.6785 186.142C88.5306 185.679 89.4852 185.436 90.4553 185.436H95.9858C96.6666 185.43 97.3289 185.214 97.883 184.818C98.437 184.422 98.8559 183.866 99.0828 183.224L104.115 169.862C104.247 169.504 104.303 169.123 104.279 168.742C104.255 168.362 104.153 167.99 103.978 167.651C103.804 167.312 103.56 167.013 103.264 166.773C102.968 166.533 102.625 166.357 102.257 166.256L97.7002 165.029C97.0745 164.863 96.5264 164.483 96.1508 163.956C95.7751 163.429 95.5955 162.787 95.6429 162.142L96.1406 155.273C96.2603 153.311 97.0898 151.459 98.4744 150.063ZM66.9399 192.714C56.9851 199.771 48.0037 195.634 46.8755 183.489C45.7473 171.344 52.8926 155.837 62.8474 148.725C72.8022 141.613 81.7836 145.805 82.9229 157.95C84.0621 170.095 76.8947 185.657 66.9399 192.714Z"
      fill="#29538E" />
    <path
      d="M152.042 40.1612C152.149 38.5592 152.832 37.0502 153.967 35.9138L160.127 29.6865C160.598 29.2277 160.946 28.6582 161.139 28.0302C161.332 27.4021 161.365 26.7356 161.234 26.0917L159.674 18.5814C159.629 18.3603 159.536 18.1521 159.4 17.9721C159.264 17.7921 159.089 17.645 158.889 17.5417L150.151 13.2722L149.94 13.1726C149.687 13.0689 149.41 13.0356 149.14 13.0765C148.869 13.1174 148.614 13.2309 148.403 13.4049L145.859 15.4954L148.458 7.60902C148.605 7.15944 148.583 6.67211 148.398 6.23702C148.213 5.80194 147.877 5.4485 147.452 5.242L138.725 0.972502C138.51 0.852796 138.273 0.777567 138.028 0.751286L132.42 0.0433889C132.036 -0.00650784 131.645 0.0290895 131.276 0.147635C130.907 0.266181 130.569 0.46475 130.285 0.729164C130.014 0.971138 129.799 1.26933 129.655 1.60297L125.496 11.0711C125.107 11.9884 124.442 12.7617 123.593 13.2832L123.295 12.509C123.228 12.3282 123.125 12.1631 122.992 12.0242C122.859 11.8852 122.698 11.7753 122.52 11.7015L113.937 7.52054L113.661 7.37675C113.394 7.2687 113.101 7.24256 112.819 7.30166C112.538 7.36076 112.28 7.50241 112.079 7.70857L104.724 15.1415C104.215 15.6574 103.836 16.2867 103.617 16.9776C103.425 17.6305 103.376 18.3171 103.474 18.9907L104.58 25.7599C104.715 26.5954 104.534 27.4514 104.071 28.1601L99.8899 34.686C99.6597 35.0612 99.3547 35.385 98.994 35.6373C98.4041 36.0611 97.6962 36.2893 96.9699 36.2899H92.2026C91.915 36.2878 91.6285 36.325 91.3509 36.4005C90.848 36.5416 90.3856 36.7995 90.0012 37.1532C89.6168 37.5069 89.3213 37.9463 89.1388 38.4357L84.8472 49.8837C84.6885 50.2862 84.6818 50.7327 84.8284 51.1399C84.9749 51.547 85.2647 51.8868 85.6435 52.0958L91.8708 55.1376C91.9376 55.4125 91.96 55.6962 91.9372 55.9782L91.2293 62.4267C91.1877 62.8384 91.0832 63.2412 90.9196 63.6213C90.7096 64.1581 90.3936 64.6471 89.9904 65.0592L83.5973 71.6957C83.1551 72.1541 82.8289 72.7115 82.646 73.3216C82.4436 73.978 82.4169 74.6759 82.5686 75.3458L84.3715 83.5308C84.413 83.7131 84.4966 83.8831 84.6157 84.0272C84.7348 84.1713 84.8861 84.2854 85.0573 84.3604L93.7401 88.6188C93.9496 88.7351 94.1893 88.7857 94.428 88.764C94.6667 88.7423 94.8933 88.6493 95.0785 88.4971L97.899 86.1744L95.5319 94.3484C95.4792 94.5279 95.4531 94.7142 95.4545 94.9014C95.4655 95.2522 95.5751 95.5929 95.7708 95.8844C95.9664 96.1758 96.2401 96.4063 96.5606 96.5495L105.011 100.664C105.27 100.851 105.569 100.972 105.885 101.018L110.774 101.626C111.427 101.71 112.089 101.58 112.663 101.257C113.237 100.935 113.691 100.436 113.959 99.8345L118.129 90.5545C118.549 89.6224 119.254 88.8477 120.142 88.3423L120.364 88.9506C120.434 89.1569 120.55 89.3446 120.704 89.4998C120.857 89.6549 121.043 89.7734 121.248 89.8466L129.832 94.0497C130.095 94.1703 130.389 94.2116 130.675 94.1684C130.962 94.1252 131.23 93.9994 131.447 93.8064L138.913 86.9597C139.369 86.5477 139.715 86.0285 139.919 85.4491C140.124 84.8697 140.181 84.2484 140.085 83.6414L138.979 76.1643C138.793 74.8983 139.076 73.6079 139.775 72.5363L143.193 67.2492C143.625 66.5726 144.22 66.0154 144.924 65.6289C145.627 65.2424 146.417 65.0388 147.219 65.037H151.765C152.322 65.0374 152.866 64.8668 153.323 64.5484C153.78 64.2299 154.128 63.7789 154.32 63.2562L158.446 52.129C158.64 51.6328 158.648 51.0832 158.47 50.5812C158.291 50.0793 157.937 49.6588 157.473 49.397H157.418L157.252 49.3085L151.522 46.5212C151.467 46.2782 151.444 46.029 151.456 45.7801L152.042 40.1612ZM124.589 34.8077C126.403 33.4601 128.498 32.5378 130.717 32.1088C131.653 33.9839 132.213 36.0244 132.365 38.1149C133.294 48.0697 127.398 60.9556 119.191 66.7736C117.406 68.1176 115.355 69.0642 113.174 69.5499C112.17 67.6674 111.575 65.5945 111.426 63.4664C110.508 53.4563 116.382 40.6257 124.589 34.8077Z"
      fill="#29538E" />
    <path opacity="0.3"
      d="M152.042 40.1612C152.149 38.5592 152.832 37.0502 153.967 35.9138L160.127 29.6865C160.598 29.2277 160.946 28.6582 161.139 28.0302C161.332 27.4021 161.365 26.7356 161.234 26.0917L159.674 18.5814C159.629 18.3603 159.536 18.1521 159.4 17.9721C159.264 17.7921 159.089 17.645 158.889 17.5417L150.151 13.2722L149.94 13.1726C149.687 13.0689 149.41 13.0356 149.14 13.0765C148.869 13.1174 148.614 13.2309 148.403 13.4049L145.859 15.4954L148.458 7.60902C148.605 7.15944 148.583 6.67211 148.398 6.23702C148.213 5.80194 147.877 5.4485 147.452 5.242L138.725 0.972502C138.51 0.852796 138.273 0.777567 138.028 0.751286L132.42 0.0433889C132.036 -0.00650784 131.645 0.0290895 131.276 0.147635C130.907 0.266181 130.569 0.46475 130.285 0.729164C130.014 0.971138 129.799 1.26933 129.655 1.60297L125.496 11.0711C125.107 11.9884 124.442 12.7617 123.593 13.2832L123.295 12.509C123.228 12.3282 123.125 12.1631 122.992 12.0242C122.859 11.8852 122.698 11.7753 122.52 11.7015L113.937 7.52054L113.661 7.37675C113.394 7.2687 113.101 7.24256 112.819 7.30166C112.538 7.36076 112.28 7.50241 112.079 7.70857L104.724 15.1415C104.215 15.6574 103.836 16.2867 103.617 16.9776C103.425 17.6305 103.376 18.3171 103.474 18.9907L104.58 25.7599C104.715 26.5954 104.534 27.4514 104.071 28.1601L99.8899 34.686C99.6597 35.0612 99.3547 35.385 98.994 35.6373C98.4041 36.0611 97.6962 36.2893 96.9699 36.2899H92.2026C91.915 36.2878 91.6285 36.325 91.3509 36.4005C90.848 36.5416 90.3856 36.7995 90.0012 37.1532C89.6168 37.5069 89.3213 37.9463 89.1388 38.4357L84.8472 49.8837C84.6885 50.2862 84.6818 50.7327 84.8284 51.1399C84.9749 51.547 85.2647 51.8868 85.6435 52.0958L91.8708 55.1376C91.9376 55.4125 91.96 55.6962 91.9372 55.9782L91.2293 62.4267C91.1877 62.8384 91.0832 63.2412 90.9196 63.6213C90.7096 64.1581 90.3936 64.6471 89.9904 65.0592L83.5973 71.6957C83.1551 72.1541 82.8289 72.7115 82.646 73.3216C82.4436 73.978 82.4169 74.6759 82.5686 75.3458L84.3715 83.5308C84.413 83.7131 84.4966 83.8831 84.6157 84.0272C84.7348 84.1713 84.8861 84.2854 85.0573 84.3604L93.7401 88.6188C93.9496 88.7351 94.1893 88.7857 94.428 88.764C94.6667 88.7423 94.8933 88.6493 95.0785 88.4971L97.899 86.1744L95.5319 94.3484C95.4792 94.5279 95.4531 94.7142 95.4545 94.9014C95.4655 95.2522 95.5751 95.5929 95.7708 95.8844C95.9664 96.1758 96.2401 96.4063 96.5606 96.5495L105.011 100.664C105.27 100.851 105.569 100.972 105.885 101.018L110.774 101.626C111.427 101.71 112.089 101.58 112.663 101.257C113.237 100.935 113.691 100.436 113.959 99.8345L118.129 90.5545C118.549 89.6224 119.254 88.8477 120.142 88.3423L120.364 88.9506C120.434 89.1569 120.55 89.3446 120.704 89.4998C120.857 89.6549 121.043 89.7734 121.248 89.8466L129.832 94.0497C130.095 94.1703 130.389 94.2116 130.675 94.1684C130.962 94.1252 131.23 93.9994 131.447 93.8064L138.913 86.9597C139.369 86.5477 139.715 86.0285 139.919 85.4491C140.124 84.8697 140.181 84.2484 140.085 83.6414L138.979 76.1643C138.793 74.8983 139.076 73.6079 139.775 72.5363L143.193 67.2492C143.625 66.5726 144.22 66.0154 144.924 65.6289C145.627 65.2424 146.417 65.0388 147.219 65.037H151.765C152.322 65.0374 152.866 64.8668 153.323 64.5484C153.78 64.2299 154.128 63.7789 154.32 63.2562L158.446 52.129C158.64 51.6328 158.648 51.0832 158.47 50.5812C158.291 50.0793 157.937 49.6588 157.473 49.397H157.418L157.252 49.3085L151.522 46.5212C151.467 46.2782 151.444 46.029 151.456 45.7801L152.042 40.1612ZM124.589 34.8077C126.403 33.4601 128.498 32.5378 130.717 32.1088C131.653 33.9839 132.213 36.0244 132.365 38.1149C133.294 48.0697 127.398 60.9556 119.191 66.7736C117.406 68.1176 115.355 69.0642 113.174 69.5499C112.17 67.6674 111.575 65.5945 111.426 63.4664C110.508 53.4563 116.382 40.6257 124.589 34.8077Z"
      fill="black" />
    <path opacity="0.2"
      d="M100.864 68.1013L91.4067 77.7022L82.6797 73.2004C82.8626 72.5903 83.1887 72.0328 83.6309 71.5744L90.0241 64.9379C90.4272 64.5259 90.7432 64.0368 90.9532 63.5L100.864 68.1013Z"
      fill="black" />
    <path opacity="0.2"
      d="M107.733 39.8854L107.545 40.9915H99.3485L91.2852 36.3902C91.5627 36.3147 91.8492 36.2775 92.1368 36.2795H96.9041C97.6304 36.279 98.3383 36.0508 98.9282 35.627L107.733 39.8854Z"
      fill="black" />
    <path opacity="0.2"
      d="M122.521 11.6918L118.827 15.3309L112.29 21.7683L103.629 16.99C103.847 16.2991 104.226 15.6698 104.735 15.1539L112.09 7.72099C112.291 7.51483 112.549 7.37317 112.831 7.31407C113.112 7.25498 113.405 7.28112 113.672 7.38916L113.949 7.53295L122.521 11.6918Z"
      fill="black" />
    <path opacity="0.2"
      d="M147.452 5.23157H138.847L130.274 0.707678C130.558 0.443264 130.896 0.244695 131.265 0.126149C131.634 0.0076035 132.025 -0.0279918 132.409 0.021905L138.017 0.7298C138.262 0.756081 138.499 0.831312 138.714 0.951018L147.452 5.23157Z"
      fill="black" />
    <path
      d="M153.967 35.9144L160.128 29.6872C160.599 29.2284 160.946 28.6589 161.14 28.0308C161.333 27.4028 161.365 26.7363 161.234 26.0924L159.675 18.5821C159.622 18.3228 159.503 18.0816 159.33 17.8818C159.156 17.6819 158.934 17.5302 158.685 17.4412C158.436 17.3522 158.168 17.329 157.908 17.3739C157.647 17.4187 157.402 17.5301 157.197 17.6972L150.793 22.9622C150.459 23.2337 150.035 23.3707 149.606 23.3461C149.176 23.3216 148.771 23.1373 148.47 22.8294L146.634 20.9159C146.051 20.3299 145.639 19.5953 145.444 18.7919C145.249 17.9885 145.278 17.147 145.528 16.3588L148.415 7.59861C148.501 7.32485 148.527 7.0355 148.49 6.75083C148.452 6.46617 148.353 6.19308 148.2 5.95071C148.046 5.70834 147.841 5.50254 147.599 5.34775C147.357 5.19295 147.084 5.0929 146.8 5.05461L141.192 4.34672C140.624 4.27219 140.048 4.38395 139.549 4.6652C139.051 4.94644 138.657 5.38197 138.427 5.9063L134.279 15.3855C133.77 16.5377 132.841 17.4519 131.68 17.9405L127.952 19.5222C127.734 19.6135 127.5 19.6601 127.263 19.6592C127.027 19.6584 126.793 19.6102 126.575 19.5174C126.357 19.4246 126.161 19.2891 125.996 19.1189C125.832 18.9488 125.704 18.7474 125.618 18.5267L123.284 12.4986C123.195 12.2683 123.05 12.0639 122.861 11.9041C122.673 11.7443 122.448 11.6342 122.206 11.5836C121.964 11.533 121.714 11.5437 121.477 11.6147C121.24 11.6856 121.025 11.8145 120.851 11.9898L113.507 19.4337C113.011 19.9344 112.639 20.5446 112.422 21.2151C112.205 21.8855 112.148 22.5976 112.257 23.294L113.297 30.0632C113.43 30.8973 113.253 31.7512 112.799 32.4634L108.618 38.9894C108.302 39.4801 107.868 39.884 107.356 40.1642C106.844 40.4443 106.27 40.5918 105.687 40.5932H100.919C100.257 40.5908 99.6098 40.7864 99.0598 41.155C98.5099 41.5236 98.0828 42.0483 97.8334 42.6616L93.6303 54.1427C93.5466 54.3676 93.5089 54.607 93.5195 54.8467C93.53 55.0864 93.5886 55.3216 93.6918 55.5382C93.795 55.7548 93.9406 55.9485 94.12 56.1078C94.2995 56.2671 94.5091 56.3888 94.7364 56.4655L99.1607 57.7928C99.6682 57.9469 100.106 58.2731 100.399 58.7152C100.692 59.1574 100.821 59.6879 100.765 60.2152L100.057 66.6636C99.9523 67.6557 99.5158 68.5834 98.8179 69.2961L92.4247 75.8773C91.9666 76.3545 91.6331 76.9371 91.4537 77.5737C91.2743 78.2103 91.2545 78.8813 91.396 79.5274L93.1989 87.7125C93.2432 87.9118 93.3379 88.0964 93.4739 88.2487C93.6098 88.4011 93.7826 88.516 93.9756 88.5826C94.1686 88.6491 94.3755 88.6651 94.5765 88.629C94.7774 88.5928 94.9658 88.5058 95.1235 88.3761L101.406 83.1996C101.654 82.9949 101.94 82.8413 102.247 82.7476C102.555 82.654 102.878 82.6222 103.198 82.6541C103.517 82.6859 103.828 82.7809 104.111 82.9334C104.394 83.0859 104.644 83.2929 104.846 83.5425L106.439 85.4892C106.824 85.9594 107.089 86.5163 107.21 87.1119C107.332 87.7074 107.306 88.3236 107.136 88.907L104.359 98.53C104.284 98.7895 104.265 99.0624 104.305 99.3298C104.345 99.5971 104.442 99.8527 104.591 100.079C104.739 100.305 104.934 100.496 105.164 100.639C105.393 100.782 105.651 100.874 105.919 100.908L110.808 101.516C111.461 101.6 112.123 101.47 112.697 101.148C113.271 100.825 113.725 100.326 113.993 99.7246L118.163 90.4445C118.631 89.3859 119.463 88.5304 120.508 88.0332L124.147 86.3077C124.432 86.1647 124.745 86.0849 125.063 86.0738C125.382 86.0627 125.699 86.1206 125.993 86.2435C126.287 86.3664 126.551 86.5514 126.767 86.7858C126.983 87.0203 127.146 87.2987 127.244 87.6019L129.18 93.1323C129.259 93.3641 129.394 93.5725 129.574 93.7387C129.754 93.9049 129.972 94.0236 130.21 94.084C130.447 94.1445 130.695 94.1447 130.933 94.0847C131.17 94.0248 131.389 93.9065 131.569 93.7406L139.035 86.894C139.491 86.482 139.837 85.9628 140.042 85.3834C140.247 84.804 140.304 84.1827 140.208 83.5757L139.102 76.0986C138.915 74.8326 139.199 73.5422 139.898 72.4706L143.316 67.1835C143.748 66.5069 144.343 65.9497 145.046 65.5632C145.75 65.1766 146.539 64.9731 147.342 64.9713H151.888C152.445 64.9717 152.988 64.8011 153.445 64.4826C153.902 64.1642 154.251 63.7132 154.443 63.1905L158.569 52.0633C158.687 51.7691 158.741 51.4529 158.727 51.1361C158.712 50.8192 158.63 50.5092 158.485 50.227C158.34 49.9448 158.136 49.6971 157.888 49.5005C157.639 49.304 157.35 49.1633 157.042 49.0879L153.282 48.0814C152.767 47.9397 152.317 47.6243 152.009 47.1889C151.701 46.7534 151.552 46.2246 151.589 45.6922L151.998 40.0291C152.148 38.468 152.846 37.0103 153.967 35.9144ZM127.974 71.0769C119.767 76.895 112.356 73.4882 111.383 63.467C110.41 53.4459 116.338 40.6264 124.545 34.8083C132.753 28.9903 140.163 32.3971 141.137 42.4182C142.11 52.4394 136.181 65.2589 127.974 71.0769Z"
      fill="#29538E" />
    <path
      d="M323.895 279.642L319.405 276.633L311.452 297.35L302.968 301.941L300.955 299.032L311.087 278.514L306.596 275.494C306.198 275.693 305.8 275.892 305.413 276.125C296.077 281.5 288.501 294.585 288.489 305.358C288.489 310.347 290.093 313.975 292.759 315.877L293.212 316.176L296.785 318.532L298.002 319.362L297.88 413.6C292.228 420.004 288.324 428.919 288.312 436.651C288.312 440.71 289.419 443.863 291.21 445.92L295.712 448.94L294.849 436.43L299.174 425.159L300.8 424.285L307.658 420.568L312.016 426.884L307.26 438.863L304.074 447.048L308.576 450.068L312.359 440.522C318.144 434.096 322.17 425.037 322.181 417.195C322.238 414.662 321.68 412.153 320.555 409.884L322.225 409.629L318 406.809C316.403 405.634 314.449 405.047 312.469 405.15L312.591 309.152C318.321 302.737 322.303 293.667 322.314 285.925C322.314 285.272 322.314 284.664 322.225 284.066L323.895 279.642Z"
      fill="#29538E" />
    <path
      d="M316.949 408.146L317.071 312.149C322.811 305.723 326.793 296.719 326.804 288.921C326.804 284.862 325.698 281.721 323.895 279.652L315.942 300.38L307.481 304.982L303.112 298.655L311.098 278.535C310.711 278.734 310.312 278.933 309.925 279.166C300.59 284.541 293.002 297.626 292.991 308.4C292.991 316.142 296.862 320.566 302.515 320.467L302.393 416.63C296.741 423.045 292.836 431.96 292.825 439.692C292.825 443.751 293.931 446.893 295.723 448.961L303.676 428.244L312.149 423.643L316.518 429.97L308.498 450.067C308.886 449.868 309.273 449.669 309.671 449.437C319.006 444.061 326.583 430.976 326.594 420.203C326.638 412.405 322.679 407.958 316.949 408.146Z"
      fill="#29538E" />
    <path
      d="M322.204 409.595L317.979 406.775C317.646 406.527 317.295 406.305 316.928 406.111V408.135C318.798 408.037 320.65 408.55 322.204 409.595Z"
      fill="#29538E" />
    <path opacity="0.4"
      d="M322.204 409.595L317.979 406.775C317.646 406.527 317.295 406.305 316.928 406.111V408.135C318.798 408.037 320.65 408.55 322.204 409.595Z"
      fill="black" />
    <path
      d="M312.315 440.522L316.518 429.948L312.149 423.621L310.39 424.572L312.016 426.928L307.26 438.907L304.03 447.048L308.532 450.068L312.315 440.522Z"
      fill="#29538E" />
    <path opacity="0.2"
      d="M293.224 316.175L296.797 318.531H296.863C294.441 316.551 292.981 313.056 292.992 308.333C292.992 297.56 300.59 284.475 309.926 279.099C310.313 278.867 310.711 278.668 311.098 278.469L306.608 275.449C306.209 275.648 305.811 275.847 305.424 276.08C296.089 281.455 288.512 294.54 288.501 305.314C288.501 310.302 290.105 313.93 292.77 315.832L293.224 316.175Z"
      fill="black" />
    <path opacity="0.2" d="M319.405 276.621L311.452 297.338L315.943 300.358L323.896 279.641L319.405 276.621Z"
      fill="black" />
    <path opacity="0.4" d="M311.452 297.338L315.943 300.357L307.481 304.948L304.738 300.988L311.452 297.338Z"
      fill="black" />
    <path opacity="0.4"
      d="M302.515 320.444C300.916 320.501 299.332 320.118 297.936 319.338H298.013L297.892 413.576L302.393 416.585L302.515 320.444Z"
      fill="black" />
    <path opacity="0.2"
      d="M288.324 436.651C288.324 440.71 289.43 443.862 291.222 445.919L295.724 448.939C293.888 446.871 292.815 443.729 292.826 439.67C292.826 431.927 296.742 423.023 302.394 416.608L297.892 413.6C292.24 420.004 288.335 428.919 288.324 436.651Z"
      fill="black" />
    <path opacity="0.4" d="M312.017 426.928L316.518 429.948L312.149 423.621L310.391 424.572L312.017 426.928Z"
      fill="black" />
    <path opacity="0.2" d="M304.03 447.047L308.532 450.067L316.518 429.947L312.016 426.928L304.03 447.047Z"
      fill="black" />
    <path
      d="M287.549 449.702C287.549 449.702 283.357 446.118 281.731 445.942C280.105 445.765 277.307 448.563 279.663 453.408C280.326 454.746 282.981 456.206 284.695 458.783C286.41 461.36 287.892 463.307 290.469 462.953C293.046 462.599 293.389 461.139 293.223 459.458C293.005 457.918 292.695 456.393 292.294 454.89L287.549 449.702Z"
      fill="#37474F" />
    <path
      d="M290.614 462.178C287.959 462.543 286.389 460.541 284.663 457.887C282.938 455.232 280.15 453.728 279.464 452.356C279.192 451.802 278.97 451.225 278.801 450.631C278.928 451.606 279.22 452.552 279.664 453.429C280.327 454.768 282.982 456.228 284.696 458.805C286.411 461.382 287.893 463.329 290.47 462.975C292.45 462.698 293.102 461.78 293.235 460.608C292.983 461.084 292.606 461.482 292.143 461.759C291.681 462.035 291.152 462.181 290.614 462.178Z"
      fill="#263238" />
    <path
      d="M285.271 454.314C285.206 454.329 285.137 454.329 285.072 454.314C284.979 454.26 284.91 454.173 284.879 454.07C284.848 453.967 284.858 453.857 284.906 453.761C285.327 453.012 285.891 452.354 286.567 451.825C287.243 451.295 288.016 450.904 288.844 450.675C288.899 450.652 288.958 450.641 289.017 450.643C289.076 450.645 289.134 450.66 289.187 450.687C289.24 450.713 289.287 450.751 289.324 450.798C289.361 450.845 289.387 450.899 289.401 450.957C289.415 451.014 289.416 451.074 289.404 451.133C289.392 451.191 289.368 451.246 289.333 451.294C289.298 451.342 289.253 451.381 289.201 451.41C289.149 451.439 289.091 451.456 289.032 451.46C287.593 451.885 286.373 452.848 285.625 454.148C285.585 454.203 285.531 454.247 285.469 454.276C285.407 454.305 285.339 454.318 285.271 454.314Z"
      fill="#EBEBEB" />
    <path
      d="M283.744 452.876C283.678 452.874 283.613 452.855 283.556 452.82C283.508 452.796 283.465 452.762 283.431 452.721C283.396 452.679 283.37 452.631 283.355 452.579C283.339 452.528 283.334 452.473 283.34 452.42C283.347 452.366 283.364 452.314 283.39 452.267C284.244 450.759 285.659 449.649 287.328 449.181C287.433 449.161 287.543 449.182 287.633 449.24C287.723 449.297 287.788 449.387 287.815 449.491C287.838 449.597 287.818 449.707 287.76 449.798C287.702 449.889 287.611 449.954 287.505 449.978C286.069 450.395 284.851 451.355 284.109 452.655C284.074 452.721 284.021 452.776 283.957 452.815C283.893 452.854 283.819 452.875 283.744 452.876Z"
      fill="#EBEBEB" />
    <path
      d="M281.953 451.427C281.891 451.441 281.827 451.441 281.765 451.427C281.67 451.375 281.599 451.288 281.568 451.185C281.537 451.081 281.548 450.969 281.599 450.874C282.453 449.365 283.868 448.256 285.537 447.788C285.591 447.771 285.648 447.766 285.704 447.772C285.76 447.779 285.814 447.796 285.863 447.825C285.912 447.853 285.955 447.891 285.988 447.937C286.021 447.983 286.045 448.035 286.057 448.09C286.07 448.145 286.07 448.202 286.059 448.258C286.048 448.313 286.026 448.366 285.994 448.412C285.962 448.459 285.92 448.498 285.872 448.528C285.824 448.557 285.77 448.576 285.714 448.584C284.28 449.006 283.063 449.965 282.318 451.261C282.277 451.318 282.221 451.363 282.157 451.392C282.093 451.421 282.023 451.433 281.953 451.427Z"
      fill="#EBEBEB" />
    <path
      d="M265.251 461.459C265.251 461.459 259.643 459.645 257.973 460.143C256.303 460.641 254.655 464.567 258.991 468.361C260.207 469.412 263.415 469.744 266.18 471.602C268.946 473.46 271.191 474.754 273.591 473.339C275.991 471.923 275.803 470.319 275.372 468.56C274.83 466.348 274.388 464.689 274.388 464.689L265.251 461.459Z"
      fill="#37474F" />
    <path
      d="M273.414 472.521C270.936 473.97 268.58 472.642 265.771 470.729C262.961 468.815 259.61 468.517 258.36 467.411C257.863 466.971 257.404 466.49 256.988 465.973C257.518 466.882 258.194 467.697 258.99 468.384C260.207 469.435 263.415 469.767 266.18 471.625C268.945 473.483 271.19 474.777 273.591 473.361C275.438 472.255 275.703 471.149 275.349 469.899C275.316 470.795 274.841 471.691 273.414 472.521Z"
      fill="#263238" />
    <path
      d="M263.913 466.648C263.859 466.644 263.807 466.629 263.76 466.605C263.712 466.58 263.67 466.546 263.636 466.505C263.602 466.463 263.576 466.415 263.561 466.364C263.546 466.313 263.541 466.259 263.548 466.206C263.763 464.371 264.698 462.696 266.147 461.549C266.237 461.488 266.347 461.464 266.454 461.483C266.562 461.501 266.658 461.561 266.722 461.649C266.753 461.692 266.776 461.741 266.788 461.793C266.8 461.845 266.801 461.899 266.792 461.952C266.783 462.004 266.763 462.055 266.734 462.1C266.705 462.144 266.667 462.183 266.622 462.213C265.371 463.227 264.559 464.685 264.355 466.283C264.344 466.39 264.291 466.488 264.208 466.556C264.126 466.624 264.019 466.657 263.913 466.648Z"
      fill="#EBEBEB" />
    <path
      d="M266.236 467.4C266.129 467.389 266.031 467.336 265.963 467.254C265.894 467.171 265.861 467.065 265.871 466.958C266.092 465.125 267.031 463.454 268.481 462.312C268.524 462.28 268.572 462.257 268.624 462.244C268.676 462.231 268.729 462.229 268.782 462.237C268.834 462.245 268.885 462.264 268.93 462.292C268.975 462.32 269.014 462.357 269.045 462.401C269.107 462.489 269.133 462.599 269.117 462.706C269.1 462.813 269.043 462.91 268.957 462.976C267.72 463.99 266.927 465.446 266.744 467.035C266.738 467.094 266.719 467.151 266.69 467.202C266.66 467.253 266.62 467.297 266.572 467.331C266.524 467.366 266.469 467.39 266.411 467.402C266.353 467.413 266.293 467.413 266.236 467.4Z"
      fill="#EBEBEB" />
    <path
      d="M261.778 465.862C261.671 465.851 261.573 465.798 261.505 465.715C261.436 465.633 261.403 465.526 261.413 465.42C261.634 463.587 262.573 461.916 264.023 460.774C264.067 460.742 264.117 460.72 264.17 460.708C264.223 460.695 264.278 460.694 264.332 460.703C264.385 460.713 264.436 460.732 264.482 460.762C264.528 460.791 264.567 460.829 264.598 460.874C264.656 460.963 264.678 461.071 264.659 461.175C264.641 461.28 264.584 461.374 264.499 461.438C263.244 462.445 262.431 463.901 262.231 465.497C262.226 465.551 262.21 465.603 262.184 465.651C262.158 465.698 262.123 465.74 262.081 465.774C262.038 465.808 261.99 465.833 261.938 465.849C261.886 465.864 261.831 465.868 261.778 465.862Z"
      fill="#EBEBEB" />
    <path
      d="M304.992 351.127L309.416 355.773L317.159 348.13V340.1C317.159 340.1 320.477 344.236 320.477 348.417C320.477 352.598 319.371 353.351 318.132 355.773C316.894 358.195 311.983 367.94 308.609 365.827C305.15 363.353 301.827 360.695 298.654 357.863L304.992 351.127Z"
      fill="#FFA8A7" />
    <path
      d="M290.868 336.881C290.868 336.881 293.644 336.881 297.095 340.918C300.546 344.955 306.342 351.426 306.342 351.426C306.326 353.375 305.667 355.264 304.467 356.801C303.267 358.337 301.593 359.433 299.706 359.921L291.631 352.985L290.868 336.881Z"
      fill="#29538E" />
    <path opacity="0.4"
      d="M290.868 336.881C290.868 336.881 293.644 336.881 297.095 340.918C300.546 344.955 306.342 351.426 306.342 351.426C306.326 353.375 305.667 355.264 304.467 356.801C303.267 358.337 301.593 359.433 299.706 359.921L291.631 352.985L290.868 336.881Z"
      fill="white" />
    <path
      d="M292.56 450.809C293.058 445.278 294.153 436.54 294.606 432.47C295.224 427.314 295.075 422.096 294.164 416.985C293.928 415.783 293.869 414.553 293.987 413.334C295.093 402.274 295.812 384.322 295.204 380.373L279.663 383.691C279.663 383.691 281.566 408.855 282.395 417.228C283.225 425.601 286.377 450.809 286.377 450.809C287.295 451.412 288.37 451.733 289.469 451.733C290.567 451.733 291.642 451.412 292.56 450.809Z"
      fill="#455A64" />
    <path
      d="M290.326 456.483C290.752 456.381 291.151 456.186 291.491 455.91C291.832 455.634 292.107 455.286 292.295 454.89C292.295 454.016 292.394 452.545 292.56 450.775C291.647 451.391 290.574 451.725 289.473 451.737C288.372 451.749 287.292 451.438 286.366 450.842L286.919 455.52C287.375 455.931 287.92 456.232 288.51 456.399C289.101 456.565 289.722 456.594 290.326 456.483Z"
      fill="#FFA8A7" />
    <path
      d="M275.084 460.542C275.714 452.125 276.942 435.821 277.097 433.266C277.215 430.435 277.037 427.599 276.566 424.804C276.295 423.294 276.295 421.747 276.566 420.236L283.391 382.353L264.587 382.076L263.359 421.774C263.339 422.287 263.358 422.801 263.415 423.311L267.397 460.299C267.397 460.299 271.334 463.562 275.084 460.542Z"
      fill="#455A64" />
    <path
      d="M271.998 467.488C272.581 467.419 273.138 467.206 273.619 466.868C274.099 466.53 274.489 466.078 274.752 465.553L275.139 460.542C271.389 463.562 267.507 460.299 267.507 460.299L268.104 465.829C268.104 465.829 268.934 467.765 271.998 467.488Z"
      fill="#FFA8A7" />
    <path
      d="M273.315 339.414L268.89 340.93L264.123 363.428L264.355 383.415C264.355 383.415 267.762 386.124 281.046 386.124C288.512 386.124 293.368 383.315 295.204 380.318L294.01 368.294C294.01 368.294 295.226 356.393 295.226 350.509C295.226 344.624 295.492 339.813 290.89 336.893L286.798 337.224L273.315 339.414Z"
      fill="#29538E" />
    <path opacity="0.2"
      d="M273.315 339.414L268.89 340.93L264.123 363.428L264.355 383.415C264.355 383.415 267.762 386.124 281.046 386.124C288.512 386.124 293.368 383.315 295.204 380.318L294.01 368.294C294.01 368.294 295.226 356.393 295.226 350.509C295.226 344.624 295.492 339.813 290.89 336.893L286.798 337.224L273.315 339.414Z"
      fill="white" />
    <path
      d="M268.503 320.047L266.291 324.471C266.259 324.535 266.24 324.605 266.238 324.677C266.235 324.748 266.248 324.819 266.275 324.886C266.302 324.952 266.343 325.011 266.396 325.06C266.448 325.109 266.51 325.146 266.578 325.168L269.211 326.042L268.503 320.047Z"
      fill="#F28F8F" />
    <path
      d="M271.578 312.68C271.578 312.68 268.26 314.494 268.26 324.847C268.26 330.565 268.658 334.215 271.578 333.983C274.498 333.751 283.059 332.689 283.059 332.689V312.68H271.578Z"
      fill="#FFA8A7" />
    <path
      d="M271.578 334.027C272.629 333.95 274.354 333.762 276.168 333.551V332.445C274.534 333.145 272.828 333.66 271.08 333.983C271.244 334.014 271.411 334.029 271.578 334.027Z"
      fill="#F28F8F" />
    <path d="M275.659 332.048V338.574H284.585V329.404L275.659 332.048Z" fill="#FFA8A7" />
    <path
      d="M275.659 336.085C277.515 336.728 279.488 336.966 281.444 336.782C284.032 336.329 284.585 334.758 284.585 334.758C284.585 334.758 285.425 334.703 286.797 337.224C286.267 338.164 285.513 338.959 284.602 339.538C283.692 340.117 282.652 340.462 281.576 340.543C278.778 340.729 275.971 340.33 273.336 339.37C273.336 339.37 274.564 335.776 275.659 336.085Z"
      fill="#29538E" />
    <path opacity="0.4"
      d="M275.659 336.085C277.515 336.728 279.488 336.966 281.444 336.782C284.032 336.329 284.585 334.758 284.585 334.758C284.585 334.758 285.425 334.703 286.797 337.224C286.267 338.164 285.513 338.959 284.602 339.538C283.692 340.117 282.652 340.462 281.576 340.543C278.778 340.729 275.971 340.33 273.336 339.37C273.336 339.37 274.564 335.776 275.659 336.085Z"
      fill="white" />
    <path
      d="M232.101 369.489L228.551 367.277C228.471 367.228 228.405 367.158 228.359 367.076C228.313 366.994 228.289 366.901 228.289 366.807C228.289 366.713 228.313 366.62 228.359 366.538C228.405 366.456 228.471 366.387 228.551 366.337L244.169 357.179C244.371 357.057 244.602 356.992 244.838 356.992C245.074 356.992 245.305 357.057 245.507 357.179L264.974 369.423C265.125 369.513 265.251 369.641 265.338 369.794C265.425 369.948 265.47 370.121 265.47 370.297C265.47 370.473 265.425 370.646 265.338 370.799C265.251 370.952 265.125 371.08 264.974 371.171L248.914 380.019C248.667 380.154 248.388 380.219 248.107 380.205C247.825 380.191 247.554 380.1 247.321 379.942L232.101 369.489Z"
      fill="#37474F" />
    <path
      d="M232.101 368.648L228.551 366.436C228.471 366.386 228.405 366.317 228.359 366.235C228.313 366.152 228.289 366.06 228.289 365.966C228.289 365.871 228.313 365.779 228.359 365.697C228.405 365.614 228.471 365.545 228.551 365.495L244.169 356.337C244.371 356.217 244.603 356.154 244.838 356.154C245.073 356.154 245.304 356.217 245.507 356.337L264.974 368.593C265.125 368.683 265.251 368.811 265.338 368.964C265.425 369.117 265.47 369.29 265.47 369.466C265.47 369.642 265.425 369.816 265.338 369.969C265.251 370.122 265.125 370.25 264.974 370.34L248.914 379.189C248.667 379.325 248.386 379.389 248.105 379.373C247.823 379.357 247.552 379.263 247.321 379.1L232.101 368.648Z"
      fill="#E0E0E0" />
    <path d="M228.297 364.455V365.904H230.763L228.297 364.455Z" fill="#E0E0E0" />
    <path
      d="M232.101 367.276L228.551 365.008C228.471 364.96 228.404 364.892 228.358 364.811C228.312 364.729 228.288 364.637 228.288 364.544C228.288 364.45 228.312 364.358 228.358 364.277C228.404 364.196 228.471 364.127 228.551 364.079L244.169 354.921C244.371 354.799 244.602 354.734 244.838 354.734C245.074 354.734 245.305 354.799 245.507 354.921L264.974 367.176C265.126 367.267 265.251 367.394 265.338 367.548C265.425 367.701 265.47 367.874 265.47 368.05C265.47 368.226 265.425 368.399 265.338 368.552C265.251 368.706 265.126 368.834 264.974 368.924L248.914 377.773C248.668 377.91 248.388 377.976 248.106 377.962C247.825 377.949 247.553 377.856 247.321 377.695L232.101 367.276Z"
      fill="white" />
    <path
      d="M234.745 364.61C234.673 364.612 234.603 364.594 234.54 364.559C234.478 364.524 234.426 364.473 234.391 364.411C234.361 364.366 234.342 364.315 234.333 364.262C234.325 364.209 234.327 364.155 234.341 364.103C234.354 364.051 234.378 364.002 234.412 363.96C234.445 363.918 234.487 363.883 234.534 363.858L245.186 357.608C245.279 357.556 245.388 357.541 245.492 357.568C245.595 357.595 245.684 357.661 245.739 357.752C245.792 357.847 245.807 357.958 245.781 358.063C245.754 358.168 245.687 358.259 245.595 358.316L234.944 364.533C234.887 364.579 234.817 364.606 234.745 364.61Z"
      fill="#29538E" />
    <path
      d="M237.355 366.314C237.284 366.313 237.215 366.295 237.153 366.26C237.091 366.225 237.039 366.175 237.001 366.115C236.972 366.069 236.952 366.017 236.944 365.963C236.935 365.91 236.937 365.854 236.951 365.802C236.964 365.749 236.989 365.699 237.022 365.656C237.055 365.613 237.097 365.577 237.145 365.551L247.797 359.312C247.842 359.283 247.893 359.264 247.946 359.255C247.999 359.246 248.053 359.249 248.105 359.262C248.157 359.276 248.206 359.3 248.248 359.334C248.29 359.367 248.325 359.409 248.35 359.456C248.403 359.549 248.417 359.659 248.391 359.762C248.364 359.865 248.297 359.954 248.206 360.009L237.555 366.259C237.493 366.292 237.425 366.311 237.355 366.314Z"
      fill="#29538E" />
    <path
      d="M239.921 368.007C239.85 368.009 239.779 367.991 239.717 367.956C239.655 367.921 239.603 367.87 239.567 367.808C239.539 367.762 239.521 367.71 239.513 367.657C239.505 367.603 239.508 367.549 239.521 367.496C239.535 367.444 239.558 367.394 239.591 367.351C239.624 367.308 239.664 367.272 239.711 367.244L250.363 361.006C250.408 360.976 250.459 360.957 250.512 360.948C250.565 360.94 250.619 360.942 250.671 360.956C250.723 360.969 250.772 360.994 250.814 361.027C250.856 361.06 250.891 361.102 250.916 361.15C250.969 361.242 250.983 361.352 250.956 361.455C250.93 361.559 250.863 361.647 250.772 361.703L240.12 367.952C240.059 367.986 239.991 368.004 239.921 368.007Z"
      fill="#29538E" />
    <path
      d="M242.576 369.7C242.504 369.701 242.434 369.684 242.371 369.649C242.309 369.614 242.257 369.563 242.222 369.501C242.169 369.408 242.154 369.298 242.181 369.195C242.208 369.092 242.274 369.003 242.366 368.948L253.017 362.698C253.11 362.645 253.22 362.631 253.323 362.658C253.426 362.685 253.515 362.751 253.57 362.842C253.624 362.937 253.639 363.048 253.612 363.153C253.585 363.258 253.519 363.349 253.426 363.406L242.775 369.644C242.716 369.683 242.646 369.702 242.576 369.7Z"
      fill="#29538E" />
    <path
      d="M245.186 371.402C245.096 371.403 245.008 371.374 244.936 371.32C244.863 371.265 244.811 371.188 244.787 371.101C244.763 371.014 244.769 370.921 244.803 370.838C244.837 370.754 244.898 370.684 244.976 370.639L255.628 364.4C255.673 364.371 255.724 364.351 255.777 364.343C255.83 364.334 255.884 364.337 255.936 364.35C255.988 364.364 256.037 364.388 256.079 364.421C256.121 364.455 256.156 364.497 256.181 364.544C256.209 364.59 256.227 364.64 256.235 364.693C256.242 364.746 256.239 364.799 256.226 364.851C256.213 364.903 256.189 364.951 256.157 364.993C256.124 365.036 256.084 365.071 256.037 365.097L245.386 371.347C245.325 371.382 245.256 371.401 245.186 371.402Z"
      fill="#29538E" />
    <path
      d="M259.92 360.01L257.619 368.007C257.619 368.007 253.958 369.113 249.876 370.44C247.382 371.266 244.821 371.877 242.222 372.265C241.491 371.385 240.819 370.458 240.209 369.489C239.568 368.383 239.026 366.746 238.517 367.277C238.008 367.808 237.256 369.577 238.517 372.298C237.579 372.429 236.623 372.302 235.752 371.933C234.484 371.193 233.254 370.388 232.068 369.522C232.068 369.522 231.095 372.155 232.068 373.67C233.042 375.185 235.918 377.375 242.388 377.375C248.859 377.375 263.758 376.114 265.096 373.836C266.434 371.557 268.879 360.806 268.879 360.806L259.92 360.01Z"
      fill="#FFA8A7" />
    <path
      d="M268.889 340.93C268.889 340.93 273.17 342.666 272.772 349.159C272.374 355.652 268.889 364.423 268.889 364.423C268.889 364.423 262.364 364.423 258.559 360.353L262.386 346.283C262.66 345.285 263.164 344.366 263.858 343.598C264.551 342.829 265.414 342.234 266.379 341.859C267.075 341.571 267.905 341.306 268.889 340.93Z"
      fill="#29538E" />
    <path opacity="0.4"
      d="M268.889 340.93C268.889 340.93 273.17 342.666 272.772 349.159C272.374 355.652 268.889 364.423 268.889 364.423C268.889 364.423 262.364 364.423 258.559 360.353L262.386 346.283C262.66 345.285 263.164 344.366 263.858 343.598C264.551 342.829 265.414 342.234 266.379 341.859C267.075 341.571 267.905 341.306 268.889 340.93Z"
      fill="white" />
    <path
      d="M270.294 306.552C270.294 306.552 266.766 306.088 265.87 308.521C265.306 310.036 267.109 311.209 267.109 311.209C267.109 311.209 264.83 313.355 268.215 314.018C268.151 314.384 268.179 314.76 268.299 315.111C268.418 315.463 268.623 315.779 268.897 316.03C269.17 316.281 269.502 316.459 269.862 316.549C270.222 316.638 270.599 316.635 270.958 316.54C270.958 316.54 270.571 318.852 273.546 319.659C273.546 319.659 272.042 323.663 274.863 323.719H277.528L276.422 326.794C277.171 328.292 278.339 329.54 279.784 330.387C281.23 331.233 282.89 331.641 284.563 331.561C285.246 330.115 286.014 328.712 286.864 327.358C287.594 326.407 291.41 321.529 291.41 317.657C291.41 313.786 289.916 311.496 287.859 311.021C287.203 309.605 286.184 308.388 284.906 307.492C282.826 306.088 278.457 304.838 275.991 306.552C275.991 306.552 273.779 303.688 272.285 303.688C270.792 303.688 270.294 305.214 270.294 306.552Z"
      fill="#263238" />
    <path
      d="M274.863 323.72C274.863 323.72 274.608 319.66 278.026 319.66C281.444 319.66 280.636 326.794 276.444 326.794L274.863 323.72Z"
      fill="#FFA8A7" />
  </g>
  <defs>
    <clipPath id="clip0">
      <rect width="506.389" height="499" fill="white" />
    </clipPath>
  </defs>
</svg>