<svg width="448" height="396" viewBox="0 0 448 396" fill="none" xmlns="http://www.w3.org/2000/svg">
  <g clip-path="url(#clip0)">
    <path
      d="M373.026 34.4137C373.026 34.4137 328.826 -9.01857 265.097 2.59318C201.369 14.2049 170.456 65.3911 131.463 98.9489C111.041 116.513 82.8085 121.099 59.2726 133.912C-15.994 174.866 -15.3175 282.552 35.7366 327.837C79.8729 367.041 138.662 376.123 217.974 357.473C297.287 338.823 353.778 328.45 408.253 259.201C462.728 189.952 427.016 92.8301 373.026 34.4137Z"
      fill="#29538E" />
    <path opacity="0.7"
      d="M373.026 34.4137C373.026 34.4137 328.826 -9.01857 265.097 2.59318C201.369 14.2049 170.456 65.3911 131.463 98.9489C111.041 116.513 82.8085 121.099 59.2726 133.912C-15.994 174.866 -15.3175 282.552 35.7366 327.837C79.8729 367.041 138.662 376.123 217.974 357.473C297.287 338.823 353.778 328.45 408.253 259.201C462.728 189.952 427.016 92.8301 373.026 34.4137Z"
      fill="white" />
    <path
      d="M24.2508 338.656H65.5919C66.384 338.656 67.1436 338.341 67.7037 337.78C68.2639 337.22 68.5785 336.46 68.5785 335.667C68.5785 334.874 68.2639 334.114 67.7037 333.553C67.1436 332.993 66.384 332.678 65.5919 332.678H24.2508C23.1637 332.677 22.0914 332.425 21.1173 331.942C20.1432 331.459 19.2935 330.758 18.6342 329.893C17.9748 329.028 17.5236 328.023 17.3157 326.955C17.1077 325.887 17.1486 324.785 17.435 323.736L32.1003 271.132C32.2051 270.752 32.2342 270.356 32.186 269.966C32.1379 269.576 32.0133 269.199 31.8195 268.856C31.6258 268.514 31.3665 268.214 31.0567 267.972C30.7468 267.73 30.3923 267.551 30.0135 267.446C29.6347 267.341 29.239 267.312 28.8489 267.36C28.4588 267.409 28.0821 267.533 27.7402 267.727C27.3982 267.921 27.0978 268.181 26.8561 268.491C26.6143 268.801 26.436 269.156 26.3312 269.535L11.6659 322.088C11.1143 324.031 11.0213 326.076 11.3942 328.061C11.7671 330.047 12.5957 331.918 13.8147 333.528C15.0337 335.139 16.6097 336.443 18.4186 337.34C20.2274 338.236 22.2196 338.7 24.238 338.694L24.2508 338.656Z"
      fill="white" stroke="#263238" stroke-linecap="round" stroke-linejoin="round" />
    <path d="M43.8439 323.047L53.209 321.923L38.692 200.798L29.3269 201.922L43.8439 323.047Z" fill="white"
      stroke="#263238" stroke-linecap="round" stroke-linejoin="round" />
    <path d="M29.3565 201.922C29.3565 201.922 12.7639 261.296 43.8687 323.047L29.3565 201.922Z" fill="#263238"
      stroke="#263238" stroke-linecap="round" stroke-linejoin="round" />
    <path
      d="M424.412 251.115C424.476 251.115 425.689 246.708 425.689 246.427C426.148 243.093 425.089 236.374 421.694 234.726C421.123 234.469 420.504 234.336 419.878 234.335C419.252 234.334 418.633 234.465 418.061 234.719C417.489 234.973 416.977 235.345 416.558 235.811C416.14 236.277 415.824 236.825 415.631 237.421C414.712 239.976 415.874 242.991 417.239 245.086C418.809 247.577 424.412 251.115 424.412 251.115Z"
      fill="#29538E" />
    <path
      d="M357.506 249.66C360.212 250.835 366.823 250.694 366.823 250.694C366.823 250.694 365.406 246.351 365.279 246.096C363.824 243.055 359.242 238.035 355.502 238.546C354.883 238.645 354.292 238.874 353.768 239.218C353.244 239.562 352.799 240.013 352.461 240.541C352.124 241.07 351.902 241.664 351.81 242.284C351.718 242.904 351.758 243.537 351.928 244.141C352.541 246.721 355.196 248.65 357.506 249.66Z"
      fill="#29538E" />
    <path
      d="M355.145 329.894C355.022 330.326 354.992 330.779 355.057 331.224C355.121 331.668 355.28 332.094 355.521 332.473C355.762 332.852 356.081 333.176 356.456 333.422C356.831 333.669 357.254 333.834 357.697 333.905C358.663 333.986 359.635 333.855 360.545 333.522C361.456 333.189 362.283 332.661 362.969 331.976C364.342 330.382 365.462 328.585 366.287 326.649C367.181 326.956 368.087 327.262 368.942 327.607C369.516 327.85 370.091 328.042 370.665 328.323L372.35 329.102C373.396 329.651 374.494 330.2 375.502 330.75C376.217 331.12 376.881 331.491 377.557 331.874C376.664 331.606 374.89 331.146 374.737 331.12C372.363 330.775 367.551 331.503 366.364 333.918C366.254 334.15 366.173 334.394 366.121 334.646H376.204C377.123 333.496 377.864 332.359 378.017 332.091C379.14 332.717 380.212 333.368 381.22 333.93L382.369 334.62H385.598C384.501 333.969 383.314 333.279 382.012 332.551C380.71 331.823 379.663 331.273 378.413 330.596C378.839 329.305 379.197 327.991 379.485 326.662C381.598 326.335 383.655 325.716 385.598 324.822C386.185 325.959 386.747 327.071 387.258 328.118C388.457 330.571 389.453 332.781 390.257 334.62H392.184C391.278 332.64 390.117 330.188 388.687 327.403C388.1 326.253 387.411 325.04 386.76 323.788C386.977 323.609 388.036 322.753 389.159 321.744L390.091 321.629C390.436 323.379 390.768 325.091 391.048 326.739C391.559 329.651 391.967 332.308 392.325 334.659H394.763C394.367 332.206 393.882 329.408 393.269 326.33C392.912 324.554 392.503 322.651 392.069 320.709C393.816 319.999 395.521 319.188 397.175 318.282C399.102 320.377 404.042 322.817 404.68 323.136C404.016 324.784 403.34 326.394 402.689 327.901C401.604 330.392 400.57 332.653 399.613 334.659H402.242C403.033 332.87 403.876 330.903 404.795 328.77C405.484 327.084 406.186 325.282 406.888 323.417C407.603 323.571 413.397 324.695 416.103 324.133C418.554 323.583 421.528 322.191 422.625 319.764C422.904 319.202 423.061 318.588 423.086 317.961C423.111 317.335 423.004 316.71 422.772 316.128C422.539 315.546 422.187 315.019 421.737 314.582C421.287 314.146 420.751 313.809 420.162 313.594C416.588 312.393 411.138 316.455 409.134 319.164C409.019 319.33 407.935 321.207 407.271 322.395C407.552 321.642 407.845 320.901 408.126 320.109C408.688 318.563 409.211 316.992 409.785 315.306C410.028 314.475 410.283 313.645 410.526 312.751C410.768 311.857 410.972 311.014 411.202 310.196C411.687 308.152 412.083 306.057 412.478 303.937C413.844 304.435 418.707 306.134 421.221 305.955C423.736 305.776 426.876 304.856 428.331 302.621C428.69 302.109 428.937 301.526 429.057 300.912C429.176 300.298 429.165 299.665 429.024 299.056C428.883 298.446 428.616 297.873 428.239 297.373C427.862 296.874 427.385 296.46 426.837 296.157C423.481 294.42 417.482 297.613 415.095 299.989C414.942 300.13 413.423 302.033 412.606 303.094C412.81 301.816 413.014 300.539 413.18 299.261C413.64 295.518 413.997 291.725 414.355 287.931C414.47 286.768 414.597 285.618 414.725 284.456C415.21 284.635 420.941 286.781 423.761 286.577C426.314 286.398 429.416 285.478 430.871 283.255C431.229 282.741 431.476 282.157 431.595 281.542C431.714 280.926 431.702 280.292 431.56 279.681C431.418 279.07 431.149 278.496 430.771 277.996C430.392 277.496 429.913 277.081 429.365 276.779C426.02 275.054 420.009 278.235 417.622 280.611C417.443 280.79 415.261 283.523 414.738 284.252C415.006 281.697 415.299 279.142 415.695 276.677C416.196 273.311 416.921 269.982 417.865 266.713C418.094 266.802 424.068 269.05 426.952 268.846C429.505 268.68 432.606 267.747 434.061 265.525C434.421 265.011 434.668 264.428 434.788 263.813C434.908 263.198 434.897 262.564 434.756 261.954C434.615 261.343 434.348 260.769 433.971 260.268C433.594 259.768 433.116 259.352 432.568 259.048C429.211 257.324 423.212 260.504 420.826 262.88C420.66 263.046 419.001 265.116 418.273 266.125L418.082 266.036C419.112 262.769 420.432 259.602 422.025 256.57C422.893 254.897 423.8 253.338 424.719 251.844C425.791 252.38 430.717 254.769 433.334 254.871C435.951 254.973 439.078 254.398 440.762 252.316C441.176 251.846 441.486 251.294 441.672 250.697C441.858 250.099 441.916 249.468 441.843 248.847C441.769 248.225 441.566 247.625 441.246 247.087C440.925 246.549 440.495 246.085 439.984 245.725C436.844 243.63 430.526 246.146 427.897 248.28C427.744 248.394 426.416 249.71 425.472 250.694C425.893 250.017 426.327 249.327 426.748 248.688C428.318 246.312 429.913 244.243 431.33 242.403C432.147 241.369 432.913 240.462 433.628 239.606C434.904 239.606 440.29 239.414 442.626 238.328C444.962 237.243 447.502 235.263 448.05 232.657C448.201 232.048 448.222 231.414 448.113 230.797C448.003 230.179 447.764 229.592 447.413 229.073C447.061 228.553 446.605 228.114 446.072 227.783C445.54 227.452 444.944 227.237 444.323 227.151C440.571 226.755 436.116 231.89 434.751 234.969C434.636 235.237 433.257 239.606 433.321 239.606H433.411C432.696 240.411 431.943 241.279 431.139 242.25C429.684 244.051 428.037 246.082 426.403 248.458C424.618 250.973 422.978 253.588 421.489 256.289C419.814 259.314 418.409 262.482 417.29 265.755V265.87C417.29 264.771 417.29 261.68 417.29 261.437C416.856 258.103 414.061 251.895 410.347 251.218C409.732 251.126 409.104 251.164 408.505 251.33C407.905 251.496 407.347 251.785 406.866 252.18C406.385 252.574 405.992 253.066 405.712 253.621C405.432 254.177 405.272 254.786 405.241 255.408C405.024 258.065 406.952 260.722 408.828 262.395C410.934 264.286 416.805 266.112 417.277 266.227C416.226 269.575 415.399 272.989 414.801 276.447C414.431 278.465 414.138 280.509 413.857 282.565C413.857 281.607 413.857 280.752 413.857 280.637C413.423 277.29 410.615 271.094 406.913 270.417C406.297 270.325 405.669 270.364 405.068 270.53C404.468 270.697 403.909 270.988 403.428 271.384C402.947 271.78 402.554 272.272 402.275 272.83C401.996 273.387 401.837 273.997 401.808 274.62C401.591 277.264 403.518 279.921 405.382 281.607C407.245 283.294 412.261 284.967 413.589 285.44L413.282 287.803C412.836 291.635 412.402 295.365 411.866 299.057C411.674 300.334 411.432 301.612 411.202 302.889C411.202 302.046 411.202 301.331 411.202 301.216C410.768 297.882 407.973 291.673 404.259 290.996C403.644 290.905 403.016 290.943 402.416 291.109C401.817 291.274 401.259 291.564 400.778 291.959C400.297 292.353 399.904 292.844 399.624 293.4C399.344 293.956 399.184 294.565 399.153 295.186C398.936 297.843 400.864 300.5 402.74 302.174C404.616 303.847 409.122 305.367 410.691 305.878C410.423 307.156 410.143 308.433 409.824 309.711C409.581 310.554 409.402 311.384 409.122 312.265L408.317 314.744C407.756 316.302 407.182 317.912 406.594 319.419C406.186 320.466 405.778 321.463 405.318 322.459C405.522 321.182 405.867 318.627 405.867 318.41C405.826 315.447 405.027 312.544 403.544 309.979C403.561 309.65 403.54 309.32 403.48 308.995C403.409 308.37 403.205 307.766 402.884 307.225C402.563 306.683 402.13 306.216 401.615 305.854C401.1 305.492 400.515 305.243 399.897 305.124C399.279 305.005 398.643 305.018 398.03 305.163C395.171 305.929 393.142 310.03 392.312 313.39C392.091 312.966 391.782 312.596 391.405 312.303C391.029 312.01 390.594 311.801 390.129 311.691L389.555 309.826C389.325 308.982 388.968 308.127 388.687 307.271C387.96 305.304 387.13 303.336 386.262 301.382C387.666 301.05 392.644 299.772 394.66 298.227C396.677 296.681 398.77 294.19 398.758 291.533C398.774 290.906 398.658 290.282 398.418 289.703C398.178 289.124 397.819 288.601 397.364 288.17C396.909 287.739 396.368 287.408 395.777 287.2C395.186 286.991 394.558 286.909 393.933 286.96C390.193 287.369 386.939 293.347 386.275 296.643C386.275 296.847 386.02 299.274 385.917 300.603C385.381 299.427 384.858 298.252 384.271 297.09C382.599 293.705 380.799 290.345 379.025 286.985C378.476 285.951 377.94 284.916 377.404 283.881C377.915 283.766 383.875 282.387 386.122 280.662C388.113 279.129 390.219 276.625 390.206 273.968C390.224 273.342 390.11 272.719 389.872 272.139C389.633 271.56 389.275 271.038 388.821 270.606C388.367 270.175 387.827 269.844 387.236 269.635C386.646 269.426 386.018 269.345 385.394 269.395C381.642 269.804 378.387 275.782 377.736 279.078C377.736 279.321 377.366 282.808 377.328 283.702C376.153 281.429 374.992 279.142 373.945 276.855C372.519 273.769 371.291 270.594 370.269 267.351C370.512 267.351 376.74 265.882 379.038 264.107C381.029 262.587 383.148 260.07 383.122 257.413C383.14 256.787 383.026 256.163 382.788 255.584C382.549 255.005 382.191 254.482 381.737 254.051C381.283 253.619 380.743 253.288 380.153 253.08C379.562 252.871 378.935 252.789 378.31 252.84C374.558 253.249 371.303 259.227 370.652 262.523C370.652 262.74 370.371 265.397 370.282 266.662H370.065C369.13 263.365 368.49 259.992 368.151 256.583C367.946 254.718 367.844 252.904 367.793 251.154C368.98 251.013 374.392 250.285 376.638 248.931C378.885 247.577 381.169 245.367 381.437 242.723C381.526 242.099 381.482 241.465 381.308 240.859C381.135 240.254 380.837 239.692 380.432 239.21C380.027 238.728 379.526 238.337 378.96 238.062C378.395 237.787 377.778 237.634 377.149 237.613C373.384 237.613 369.491 243.195 368.457 246.402C368.457 246.568 368.023 248.407 367.768 249.749C367.768 248.957 367.768 248.139 367.768 247.373C367.768 244.524 367.959 241.918 368.138 239.606C368.253 238.328 368.38 237.051 368.508 235.991C369.593 235.237 373.958 232.158 375.298 229.961C376.638 227.764 377.672 224.711 376.702 222.233C376.496 221.639 376.167 221.096 375.737 220.639C375.306 220.181 374.784 219.82 374.204 219.579C373.625 219.338 373.001 219.222 372.373 219.239C371.746 219.256 371.129 219.406 370.563 219.678C367.206 221.403 366.325 228.147 366.887 231.469C366.887 231.763 368.163 236.17 368.253 236.131H368.317C368.176 237.192 368.023 238.341 367.895 239.593C367.666 241.905 367.423 244.511 367.359 247.385C367.251 250.47 367.324 253.558 367.576 256.634C367.845 260.084 368.417 263.504 369.287 266.853V266.968C368.699 266.036 366.951 263.481 366.734 263.302C364.641 260.888 359.357 257.502 355.847 258.422C355.275 258.074 354.606 257.922 353.94 257.989C353.275 258.056 352.649 258.338 352.158 258.793C350.192 260.645 350.882 265.448 351.954 267.62C352.043 267.811 353.779 270.583 353.817 270.545C353.919 271.294 354.047 272.112 354.2 272.998C354.494 274.633 354.851 276.485 355.374 278.465C355.907 280.601 356.563 282.703 357.34 284.763C358.206 287.079 359.274 289.314 360.531 291.444V291.507C359.931 290.984 358.233 289.578 358.093 289.489C356.076 288.212 351.418 286.819 349.324 288.518C348.986 288.81 348.712 289.169 348.521 289.572C348.33 289.976 348.226 290.416 348.215 290.862C348.204 291.309 348.287 291.753 348.458 292.165C348.63 292.578 348.886 292.95 349.21 293.257C349.973 293.855 350.857 294.279 351.8 294.5C352.744 294.72 353.724 294.732 354.672 294.535C356.676 294.254 360.39 291.98 360.684 291.725C362.022 293.853 363.498 295.893 365.1 297.831C366.032 298.968 367.002 300.079 367.985 301.177L366.913 300.309C364.896 299.031 360.237 297.639 358.144 299.338C357.805 299.629 357.53 299.989 357.339 300.393C357.148 300.797 357.044 301.237 357.035 301.685C357.025 302.132 357.11 302.576 357.283 302.989C357.457 303.401 357.715 303.772 358.042 304.077C358.803 304.675 359.684 305.098 360.626 305.319C361.567 305.54 362.545 305.552 363.492 305.355C365.571 304.755 367.546 303.842 369.35 302.646L370.499 303.924C372.337 305.917 374.188 307.909 375.949 309.915C376.307 310.324 376.638 310.745 376.983 311.192L376.766 311.32C374.737 310.043 370.116 308.689 368.036 310.375C367.696 310.667 367.422 311.028 367.23 311.433C367.039 311.839 366.935 312.28 366.926 312.728C366.916 313.176 367.001 313.622 367.174 314.035C367.348 314.448 367.607 314.82 367.934 315.127C368.696 315.722 369.577 316.144 370.518 316.365C371.459 316.585 372.437 316.599 373.384 316.404C373.842 316.329 374.292 316.205 374.724 316.034C374.774 316.302 374.842 316.567 374.928 316.826C375.18 317.498 375.561 318.115 376.051 318.64C375.41 318.551 374.757 318.665 374.184 318.968C373.612 319.271 373.149 319.746 372.86 320.326C371.699 322.753 374.137 326.981 375.847 328.642L377.979 330.252L376.434 329.447C375.375 328.897 374.315 328.399 373.167 327.837L371.469 327.096C370.895 326.828 370.269 326.624 369.67 326.394C368.266 325.87 366.823 325.41 365.343 324.976C366.381 323.091 367.121 321.057 367.538 318.946C367.627 317.145 367.257 314.833 365.802 313.607C365.469 313.308 365.077 313.083 364.651 312.945C364.225 312.808 363.775 312.761 363.331 312.808C362.886 312.855 362.456 312.994 362.068 313.218C361.68 313.441 361.344 313.743 361.08 314.105C359.561 316.34 361.297 320.875 362.777 322.779C362.867 322.894 364.054 324.145 364.756 324.81C363.875 324.554 362.994 324.299 362.088 324.069C359.535 323.417 356.817 322.791 354.162 322.242L351.737 321.68C351.903 321.361 353.919 317.477 354.021 315.446C354.138 314.485 354.043 313.511 353.743 312.59C353.443 311.67 352.946 310.827 352.286 310.119C351.952 309.821 351.56 309.596 351.134 309.458C350.709 309.32 350.259 309.274 349.814 309.321C349.369 309.367 348.939 309.507 348.551 309.731C348.164 309.954 347.827 310.256 347.563 310.618C346.044 312.84 347.78 317.388 349.261 319.291C349.376 319.432 351.111 321.22 351.584 321.654C349.797 321.233 348.035 320.811 346.299 320.313C343.959 319.663 341.665 318.856 339.433 317.899C339.509 317.746 341.628 313.709 341.743 311.64C341.832 309.838 341.462 307.526 340.007 306.3C339.674 306.001 339.281 305.776 338.856 305.639C338.43 305.501 337.98 305.454 337.535 305.501C337.091 305.548 336.66 305.688 336.273 305.911C335.885 306.134 335.548 306.437 335.285 306.798C333.766 309.034 335.502 313.568 336.982 315.472C337.071 315.6 338.399 316.966 339.05 317.592L338.96 317.72C336.732 316.698 334.597 315.484 332.579 314.092C331.468 313.338 330.447 312.546 329.464 311.767C330.721 309.975 331.698 308.002 332.362 305.917C332.582 304.973 332.594 303.992 332.395 303.043C332.197 302.094 331.793 301.2 331.213 300.424C330.915 300.091 330.55 299.824 330.142 299.642C329.734 299.459 329.292 299.365 328.845 299.365C328.398 299.365 327.957 299.459 327.549 299.642C327.141 299.824 326.776 300.091 326.478 300.424C324.729 302.468 325.954 307.169 327.205 309.225C327.282 309.327 328.099 310.388 328.711 311.154L327.435 310.068C325.891 308.791 324.563 307.437 323.389 306.236C322.725 305.572 322.113 304.959 321.602 304.358C321.893 302.201 321.85 300.013 321.474 297.869C320.913 296.157 319.726 294.139 317.939 293.526C317.52 293.368 317.073 293.299 316.626 293.325C316.18 293.35 315.743 293.469 315.345 293.674C314.947 293.878 314.597 294.164 314.316 294.513C314.035 294.861 313.83 295.265 313.714 295.697C313.102 298.316 316.356 301.931 318.411 303.17C318.59 303.272 321.577 304.626 321.577 304.575C322.074 305.15 322.636 305.751 323.249 306.415C324.397 307.603 325.712 308.97 327.231 310.247C328.852 311.735 330.557 313.13 332.336 314.424C334.345 315.89 336.48 317.173 338.718 318.257H338.795C338.016 318.154 335.821 317.912 335.655 317.924C333.242 317.924 328.609 319.381 327.805 321.948C327.682 322.381 327.652 322.835 327.717 323.281C327.782 323.726 327.94 324.153 328.181 324.533C328.422 324.912 328.74 325.237 329.116 325.485C329.491 325.733 329.914 325.899 330.358 325.972C331.325 326.05 332.297 325.917 333.207 325.582C334.117 325.247 334.944 324.717 335.629 324.03C337.148 322.753 338.96 318.691 339.101 318.372C341.387 319.415 343.741 320.303 346.146 321.029C347.55 321.463 348.967 321.846 350.397 322.229L349.031 322.089C346.619 322.089 341.985 323.558 341.181 326.125C341.058 326.558 341.028 327.011 341.093 327.455C341.158 327.9 341.316 328.326 341.558 328.705C341.799 329.084 342.117 329.407 342.492 329.654C342.868 329.901 343.291 330.065 343.734 330.137C344.7 330.217 345.672 330.087 346.582 329.753C347.492 329.42 348.319 328.893 349.005 328.208C350.408 326.559 351.553 324.707 352.4 322.715L354.047 323.136C356.689 323.788 359.331 324.414 361.897 325.129C362.803 325.385 363.683 325.653 364.577 325.934L363.39 325.819C360.582 325.87 355.949 327.313 355.145 329.894ZM383.378 322.229L383.161 322.05H384.08L384.233 322.319C384.616 323.021 384.96 323.698 385.318 324.388C384.718 323.673 383.492 322.306 383.378 322.204V322.229ZM385.726 322.05H385.943C386.071 322.434 386.224 322.842 386.339 323.175L385.726 322.05ZM385.458 304.678C385.879 305.751 386.3 306.811 386.658 307.871C386.926 308.714 387.245 309.493 387.462 310.362C387.602 310.886 387.755 311.397 387.896 311.908L387.615 312.035C386.765 312.634 386.151 313.51 385.879 314.514C384.278 312.885 382.308 311.667 380.136 310.962C381.558 310.159 382.849 309.142 383.965 307.948C384.683 306.973 385.191 305.859 385.458 304.678ZM355.374 278.388C354.813 276.421 354.417 274.556 354.098 272.972C353.919 272.052 353.779 271.209 353.651 270.417C353.996 269.996 354.928 268.795 355.783 267.53C357.063 268.183 358.444 268.615 359.867 268.808C362.662 269.216 368.572 267.53 369.044 267.364C370.015 270.744 371.209 274.055 372.618 277.277C373.435 279.168 374.315 281.033 375.171 282.898C374.635 282.106 374.149 281.403 374.073 281.314C371.865 278.759 366.121 275.144 362.65 276.613L362.547 276.677C363.507 275.482 363.965 273.961 363.824 272.436C363.761 271.992 363.605 271.567 363.367 271.188C363.128 270.809 362.812 270.485 362.44 270.237C362.068 269.988 361.647 269.821 361.206 269.747C360.765 269.672 360.313 269.692 359.88 269.804C357.327 270.532 355.719 275.131 355.642 277.545C355.642 277.673 355.744 279.001 355.821 279.972C355.642 279.461 355.451 278.912 355.311 278.388H355.374ZM360.352 288.173C360.352 288.327 360.722 290.204 360.914 291.086L360.773 291.15C359.45 289.075 358.313 286.886 357.378 284.609C356.868 283.332 356.446 282.144 356.102 280.943C357.627 280.303 359.1 279.542 360.505 278.669C360.185 279.349 360.031 280.094 360.055 280.845C360.08 281.596 360.282 282.33 360.646 282.987C360.754 283.168 360.874 283.343 361.003 283.511C360.478 285.007 360.235 286.588 360.288 288.173H360.352ZM365.458 297.358C363.866 295.522 362.395 293.585 361.054 291.558C361.207 291.469 365.215 289.272 366.44 287.611C366.632 287.343 366.823 287.049 367.002 286.743L367.538 286.832C370.091 287.202 375.12 285.848 376.472 285.465C376.817 286.181 377.174 286.896 377.519 287.599C379.229 291.009 380.952 294.407 382.535 297.818C382.956 298.712 383.339 299.606 383.722 300.5L383.416 300.373L383.161 300.028C381.15 297.871 378.625 296.262 375.822 295.352C376.246 294.356 376.336 293.249 376.077 292.197C375.972 291.752 375.772 291.334 375.491 290.973C375.21 290.611 374.854 290.315 374.448 290.104C374.042 289.893 373.596 289.772 373.139 289.75C372.682 289.728 372.226 289.804 371.801 289.974C369.248 290.996 368.253 295.736 368.431 298.137C368.431 298.316 368.916 300.769 369.07 301.395C367.806 300.066 366.568 298.725 365.394 297.358H365.458ZM376.549 309.212C374.737 307.22 372.835 305.265 370.959 303.311C370.372 302.71 369.81 302.11 369.236 301.497L369.606 301.292C369.606 301.407 369.695 301.522 369.746 301.625C371.022 303.962 374.098 305.112 376.587 305.457C377.093 305.503 377.601 305.503 378.106 305.457C377.89 306.438 377.8 307.442 377.838 308.446C377.838 308.574 378.081 309.723 378.272 310.694H377.953C377.43 310.273 376.97 309.736 376.524 309.212H376.549Z"
      fill="#29538E" />
    <path
      d="M391.559 318.767C391.559 318.691 391.648 318.601 391.686 318.512C391.686 318.908 391.686 319.304 391.763 319.636C391.699 319.355 391.622 319.061 391.559 318.767Z"
      fill="#29538E" />
    <path
      d="M349.032 281.838C351.125 282.119 355.63 280.701 355.63 280.701C355.63 280.701 353.805 278.006 353.665 277.852C352.069 276.051 347.934 273.509 345.471 274.595C345.066 274.786 344.706 275.06 344.414 275.399C344.122 275.738 343.904 276.135 343.776 276.564C343.647 276.993 343.61 277.444 343.666 277.888C343.723 278.333 343.873 278.76 344.105 279.142C344.682 279.922 345.421 280.567 346.272 281.033C347.123 281.498 348.064 281.773 349.032 281.838Z"
      fill="#29538E" />
    <path
      d="M325.469 310.528C323.146 309.915 318.296 310.081 316.841 312.342C316.609 312.725 316.459 313.152 316.403 313.596C316.346 314.04 316.383 314.491 316.512 314.92C316.641 315.349 316.858 315.746 317.15 316.085C317.442 316.425 317.802 316.699 318.207 316.89C319.905 317.758 322.176 317.196 323.797 316.417C325.699 315.497 328.686 311.831 328.686 311.831C328.686 311.831 325.674 310.592 325.469 310.528Z"
      fill="#29538E" />
    <path d="M0.0117188 334.889H426.595" stroke="#263238" stroke-linecap="round" stroke-linejoin="round" />
    <path d="M174.26 342.145L124.75 372.164L219.966 377.414L249.96 343.103L174.26 342.145Z" fill="white"
      stroke="#263238" stroke-linecap="round" stroke-linejoin="round" />
    <path
      d="M225.914 348.608C225.914 348.608 206.513 352.696 216.048 355.43C225.582 358.163 238.511 351.674 233.061 351.674C227.611 351.674 221.153 350.997 218.766 352.696"
      stroke="#263238" stroke-linecap="round" stroke-linejoin="round" />
    <path d="M213.609 357.474C213.609 357.474 208.503 363.26 194.885 367.003" stroke="#263238" stroke-linecap="round"
      stroke-linejoin="round" />
    <path d="M198.97 363.605L192.512 367.693H204.075" stroke="#263238" stroke-linecap="round" stroke-linejoin="round" />
    <path
      d="M181.242 362.583C181.242 362.583 157.744 363.605 167.278 369.392C176.813 375.178 188.721 369.737 187.368 367.003C186.015 364.269 168.989 361.893 171.031 366.671C173.073 371.448 180.553 368.37 180.553 368.37"
      stroke="#263238" stroke-linecap="round" stroke-linejoin="round" />
    <path d="M164.253 358.827L170.035 356.451L157.105 366.326" stroke="#263238" stroke-linecap="round"
      stroke-linejoin="round" />
    <path d="M170.048 356.451L169.027 359.849" stroke="#263238" stroke-linecap="round" stroke-linejoin="round" />
    <path d="M182.633 351.342L199.315 352.019" stroke="#263238" stroke-linecap="round" stroke-linejoin="round" />
    <path d="M183.654 347.931L202.034 348.953" stroke="#263238" stroke-linecap="round" stroke-linejoin="round" />
    <path d="M347.729 355.519L336.957 367.654L349.759 377.081L366.581 368.331L363.224 356.873L347.729 355.519Z"
      stroke="#263238" stroke-linecap="round" stroke-linejoin="round" />
    <path d="M347.729 355.519L357.837 368.331L349.758 377.081" stroke="#263238" stroke-linecap="round"
      stroke-linejoin="round" />
    <path d="M357.837 368.332L362.547 363.606L359.178 358.215L352.451 360.246" stroke="#263238" stroke-linecap="round"
      stroke-linejoin="round" />
    <path d="M336.957 367.654L337.327 350.23H351.954L361.846 357.129L347.653 369.175L336.957 367.654Z" fill="white"
      stroke="#263238" stroke-linecap="round" stroke-linejoin="round" />
    <path d="M387.001 377.095L377.301 388.017L388.826 396.511L403.977 388.617L400.952 378.308L387.001 377.095Z"
      stroke="#263238" stroke-linecap="round" stroke-linejoin="round" />
    <path d="M387.002 377.095L396.102 388.617L388.827 396.511" stroke="#263238" stroke-linecap="round"
      stroke-linejoin="round" />
    <path d="M396.102 388.617L400.34 384.376L397.315 379.521L391.252 381.335" stroke="#263238" stroke-linecap="round"
      stroke-linejoin="round" />
    <path d="M377.301 388.017L377.633 372.33H390.805L399.714 378.538L386.925 389.384L377.301 388.017Z" fill="white"
      stroke="#263238" stroke-linecap="round" stroke-linejoin="round" />
    <path d="M409.224 355.532L408.318 339.334L392.593 341.659L386.824 359.76L397.29 365.508L409.224 355.532Z"
      stroke="#263238" stroke-linecap="round" stroke-linejoin="round" />
    <path d="M409.223 355.532L393.039 353.578L392.592 341.659" stroke="#263238" stroke-linecap="round"
      stroke-linejoin="round" />
    <path d="M393.039 353.577L393.014 360.245L399.204 361.702L402.548 355.519" stroke="#263238" stroke-linecap="round"
      stroke-linejoin="round" />
    <path d="M408.316 339.334L420.327 351.942L409.95 362.264L398.08 364.359L399.65 345.785L408.316 339.334Z"
      fill="white" stroke="#263238" stroke-linecap="round" stroke-linejoin="round" />
    <path
      d="M168.873 234.151H284.472C290.339 234.151 295.965 236.484 300.113 240.635C304.261 244.787 306.591 250.418 306.591 256.289V334.876H146.779V256.289C146.779 250.422 149.106 244.795 153.249 240.644C157.391 236.493 163.011 234.158 168.873 234.151Z"
      fill="#263238" />
    <path
      d="M365.776 292.351C365.776 292.351 333.638 277.341 301.857 265.525C270.075 253.709 238.294 244.077 201.165 246.581C201.165 246.581 177.948 252.661 145.81 269.102C113.671 285.542 95.4703 300.194 85.1063 311.691C74.7423 323.188 73.6191 334.914 73.6191 334.914H111.042L146.882 321.348L151.119 334.914H300.784L297.211 314.195L326.49 325.985L365.776 292.351Z"
      fill="#29538E" />
    <path opacity="0.2"
      d="M341.219 313.351L336.765 295.084C336.765 295.084 301.423 284.546 287.115 279.078C272.807 273.611 261.869 265.18 261.869 269.817C261.869 274.454 267.344 285.389 263.145 282.451C258.946 279.513 251.785 259.278 249.679 263.072C247.573 266.866 202.978 259.7 189.512 263.494C176.047 267.288 162.173 274.863 149.549 283.703C136.926 292.542 123.882 286.257 124.724 290.026C125.567 293.794 131.451 300.552 131.451 300.552C131.451 300.552 115.892 293.398 115.892 299.709C115.892 306.019 104.111 316.558 104.111 316.558L109.842 334.889H111.042L146.882 321.323L151.119 334.889H300.785L297.211 314.169L326.49 325.96L341.219 313.351Z"
      fill="black" />
    <path
      d="M365.776 292.351C365.776 292.351 333.638 277.341 301.857 265.525C270.075 253.709 238.294 244.077 201.165 246.581C201.165 246.581 177.948 252.661 145.81 269.102C113.671 285.542 95.4703 300.194 85.1063 311.691C74.7423 323.188 73.6191 334.914 73.6191 334.914H111.042L146.882 321.348L151.119 334.914H300.784L297.211 314.195L326.49 325.985L365.776 292.351Z"
      stroke="#263238" stroke-linecap="round" stroke-linejoin="round" />
    <path d="M185.81 263.047C185.81 263.047 178.574 270.443 179.212 283.767" stroke="#263238" stroke-linecap="round"
      stroke-linejoin="round" />
    <path d="M184.918 279.32C184.918 279.32 184.918 294.547 190.023 306.593" stroke="#263238" stroke-linecap="round"
      stroke-linejoin="round" />
    <path d="M241.957 268.539C241.957 268.539 250.828 285.031 251.466 300.257" stroke="#263238" stroke-linecap="round"
      stroke-linejoin="round" />
    <path d="M245.761 289.477C248.743 298.193 248.287 307.72 244.484 316.111" stroke="#263238" stroke-linecap="round"
      stroke-linejoin="round" />
    <path d="M137.959 303.476L146.868 321.309L126.957 300.334" stroke="#263238" stroke-linecap="round"
      stroke-linejoin="round" />
    <path d="M296.088 314.207L272.539 311.026" stroke="#263238" stroke-linecap="round" stroke-linejoin="round" />
    <path d="M297.21 314.156L274.453 307.207" stroke="#263238" stroke-linecap="round" stroke-linejoin="round" />
    <path
      d="M185.811 263.047C185.811 263.047 188.363 284.137 191.516 295.57C194.668 307.003 197.898 309.864 197.898 309.864L207.534 301.65L210.087 309.149L221.574 313.798L230.508 304.141L228.364 296.643L243.68 304.141C243.68 304.141 242.251 281.633 237.605 265.193C232.959 248.752 217.949 242.71 204.726 247.679C196.911 250.593 190.267 255.991 185.811 263.047Z"
      fill="white" />
    <path opacity="0.2"
      d="M185.811 263.047C185.811 263.047 188.363 284.137 191.516 295.57C194.668 307.003 197.898 309.864 197.898 309.864L207.534 301.65L210.087 309.149L221.574 313.798L230.508 304.141L228.364 296.643L243.68 304.141C243.68 304.141 242.251 281.633 237.605 265.193C232.959 248.752 217.949 242.71 204.726 247.679C196.911 250.593 190.267 255.991 185.811 263.047Z"
      fill="black" />
    <path
      d="M185.811 263.047C185.811 263.047 188.363 284.137 191.516 295.57C194.668 307.003 197.898 309.864 197.898 309.864L207.534 301.65L210.087 309.149L221.574 313.798L230.508 304.141L228.364 296.643L243.68 304.141C243.68 304.141 242.251 281.633 237.605 265.193C232.959 248.752 217.949 242.71 204.726 247.679C196.911 250.593 190.267 255.991 185.811 263.047Z"
      stroke="#263238" stroke-linecap="round" stroke-linejoin="round" />
    <path
      d="M205.492 293.424C205.492 293.424 217.286 315.587 221.561 313.798C225.837 312.01 227.637 289.527 227.637 289.527C220.61 292.364 213.065 293.692 205.492 293.424Z"
      fill="#29538E" />
    <path opacity="0.5"
      d="M205.492 293.424C205.492 293.424 217.286 315.587 221.561 313.798C225.837 312.01 227.637 289.527 227.637 289.527C220.61 292.364 213.065 293.692 205.492 293.424Z"
      fill="white" />
    <path
      d="M205.492 293.424C205.492 293.424 217.286 315.587 221.561 313.798C225.837 312.01 227.637 289.527 227.637 289.527C220.61 292.364 213.065 293.692 205.492 293.424V293.424Z"
      stroke="#263238" stroke-linecap="round" stroke-linejoin="round" />
    <path
      d="M324.294 322.92C322.916 320.633 327.09 309.315 327.919 306.581C331.672 294.356 337.122 280.867 350.6 277.648C364.078 274.429 376.051 288.902 377.748 296.962C379.446 305.023 366.72 316.494 361.156 320.314C355.591 324.133 332.782 336.499 324.294 322.92Z"
      fill="white" stroke="#263238" stroke-linecap="round" stroke-linejoin="round" />
    <path opacity="0.2"
      d="M375.246 298.061C375.246 298.061 364.244 285.197 357.377 284.609C350.51 284.022 342.89 290.396 333.956 304.026C325.021 317.656 324.715 327.94 329.974 326.011C335.232 324.082 374.825 309.557 375.246 298.061Z"
      fill="black" />
    <path
      d="M118.458 324.21C118.458 324.21 109.6 305.891 103.499 299.581C97.3977 293.27 90.7352 298.597 77.3207 309.43C63.9062 320.262 62.9489 331.299 64.3274 334.455C65.7059 337.61 67.48 338.006 68.6542 337.801C69.8285 337.597 77.5121 322.242 87.557 320.658C97.6019 319.074 115.318 330.712 118.266 328.744C121.214 326.777 118.458 324.21 118.458 324.21Z"
      fill="white" stroke="#263238" stroke-linecap="round" stroke-linejoin="round" />
    <path opacity="0.2"
      d="M67.6452 330.431C67.6452 330.431 66.79 326.164 71.4742 318.5C76.1584 310.835 88.0668 304.026 94.0274 304.026C99.988 304.026 109.765 315.102 111.041 320.211C112.318 325.321 89.1772 333.19 83.3826 333.829C77.588 334.467 68.5003 336.383 67.6452 330.431Z"
      fill="black" />
    <path
      d="M153.735 330.852C153.735 330.852 98.3799 315.523 91.1046 311.984C83.8294 308.446 76.9244 314.539 71.0148 322.625C65.1053 330.711 65.0798 344.341 66.688 346.654C72.8528 355.481 138.93 348.429 138.93 348.429L153.735 330.852Z"
      fill="white" stroke="#263238" stroke-linecap="round" stroke-linejoin="round" />
    <path
      d="M147.622 331.81C147.622 331.81 101.252 321.59 87.8376 323.672C74.4231 325.755 66.2673 346.066 77.6268 347.688C88.9863 349.31 143.525 346.066 143.525 346.066L147.622 331.81Z"
      fill="#29538E" />
    <path opacity="0.5"
      d="M147.622 331.81C147.622 331.81 101.252 321.59 87.8376 323.672C74.4231 325.755 66.2673 346.066 77.6268 347.688C88.9863 349.31 143.525 346.066 143.525 346.066L147.622 331.81Z"
      fill="white" />
    <path
      d="M180.323 251.869C180.323 251.869 185.262 270.839 188.632 277.341C192.001 283.843 206.501 298.904 210.968 300.986C215.435 303.068 222.646 300.462 225.25 296.042C227.854 291.622 237.184 276.817 237.401 270.813C237.618 264.809 238.18 253.147 238.18 253.147C238.18 253.147 241.026 255.229 242.851 253.402C244.676 251.575 245.965 239.35 243.63 233.909C241.294 228.467 238.958 229.502 238.18 231.839C237.697 233.275 237.087 234.665 236.355 235.991C236.355 235.991 233.495 225.861 226.488 225.082C219.481 224.302 178.982 240.666 178.982 240.666L180.323 251.869Z"
      fill="white" stroke="#263238" stroke-linecap="round" stroke-linejoin="round" />
    <path
      d="M184.879 249.582C184.879 249.582 187.827 266.853 190.342 271.056C192.856 275.259 203.386 294.228 208.862 297.166C214.337 300.104 218.958 302.276 222.748 295.48C226.539 288.684 232.423 278.222 234.529 270.647C236.635 263.072 234.95 250.847 234.95 250.847C234.95 250.847 232.002 233.168 231.581 227.687C231.159 222.207 181.509 216.74 184.879 249.582Z"
      fill="#29538E" />
    <path opacity="0.5"
      d="M184.879 249.582C184.879 249.582 187.827 266.853 190.342 271.056C192.856 275.259 203.386 294.228 208.862 297.166C214.337 300.104 218.958 302.276 222.748 295.48C226.539 288.684 232.423 278.222 234.529 270.647C236.635 263.072 234.95 250.847 234.95 250.847C234.95 250.847 232.002 233.168 231.581 227.687C231.159 222.207 181.509 216.74 184.879 249.582Z"
      fill="white" />
    <path
      d="M204.216 260.44C204.216 260.44 206.297 271.362 203.438 277.852C203.438 277.852 208.632 280.969 212.257 274.735"
      stroke="#263238" stroke-linecap="round" stroke-linejoin="round" />
    <path
      d="M213.559 260.44C211.185 255.855 215.626 245.226 228.62 255.765C228.62 255.765 215.116 250.374 213.559 260.44Z"
      fill="#263238" />
    <path
      d="M204.471 262.523C204.471 262.523 203.438 258.371 197.988 255.765C192.537 253.159 190.457 252.904 190.457 252.904C190.457 252.904 205.492 249.787 204.471 262.523Z"
      fill="#263238" />
    <path d="M214.859 283.83C214.859 283.83 221.611 283.051 226.027 275.003" stroke="#263238" stroke-linecap="round"
      stroke-linejoin="round" />
    <path
      d="M221.613 280.19C221.613 280.19 220.566 270.06 223.425 269.804C226.284 269.549 224.804 276.958 224.804 276.958L221.613 280.19Z"
      fill="#29538E" stroke="#263238" stroke-linecap="round" stroke-linejoin="round" />
    <path
      d="M220.514 262.752C220.514 264.196 219.876 265.371 219.097 265.371C218.319 265.371 217.693 264.196 217.693 262.752C217.693 261.309 218.319 260.134 219.097 260.134C219.876 260.134 220.514 261.309 220.514 262.752Z"
      fill="#263238" />
    <path
      d="M200.387 263.762C200.387 265.206 199.749 266.317 198.97 266.317C198.192 266.317 197.566 265.142 197.566 263.762C197.566 262.383 198.192 261.144 198.97 261.144C199.749 261.144 200.387 262.306 200.387 263.762Z"
      fill="#263238" />
    <path d="M217.094 265.371C218.903 265.413 220.673 264.846 222.123 263.762" stroke="#263238" stroke-width="0.75"
      stroke-linecap="round" stroke-linejoin="round" />
    <path d="M196.416 266.075C198.151 266.597 200.011 266.525 201.7 265.87" stroke="#263238" stroke-width="0.75"
      stroke-linecap="round" stroke-linejoin="round" />
    <path
      d="M156.672 321.539C156.672 321.539 167.393 318.985 170.954 321.182C174.515 323.379 172.384 337.622 170.61 339.768C168.836 341.914 165.249 341.914 165.249 337.98C165.317 335.212 165.676 332.459 166.321 329.766H160.603L156.672 321.539Z"
      fill="white" />
    <path
      d="M171.133 337.482C171.324 333.892 172.077 329.191 169.626 325.614C167.176 322.038 160.59 323.915 160.59 323.915L161.956 329.766H166.321C165.676 332.459 165.317 335.212 165.249 337.98C165.241 338.41 165.289 338.839 165.389 339.257C167.661 340.19 171.03 340.356 171.133 337.482Z"
      fill="#29538E" />
    <path opacity="0.5"
      d="M171.133 337.482C171.324 333.892 172.077 329.191 169.626 325.614C167.176 322.038 160.59 323.915 160.59 323.915L161.956 329.766H166.321C165.676 332.459 165.317 335.212 165.249 337.98C165.241 338.41 165.289 338.839 165.389 339.257C167.661 340.19 171.03 340.356 171.133 337.482Z"
      fill="white" />
    <path
      d="M156.672 321.539C156.672 321.539 167.393 318.985 170.954 321.182C174.515 323.379 172.384 337.622 170.61 339.768C168.836 341.914 165.249 341.914 165.249 337.98C165.317 335.212 165.676 332.459 166.321 329.766H160.603L156.672 321.539Z"
      stroke="#263238" stroke-linecap="round" stroke-linejoin="round" />
    <path d="M174.106 349.247L175 353.859L171.49 350.512L145.848 297.192L148.477 295.94L174.106 349.247Z" fill="white"
      stroke="#263238" stroke-linecap="round" stroke-linejoin="round" />
    <path d="M171.49 350.512L175 353.859L174.107 349.247L173.954 348.915L171.465 350.448L171.49 350.512Z" fill="white"
      stroke="#263238" stroke-linecap="round" stroke-linejoin="round" />
    <path d="M148.477 295.94L145.848 297.192L148.158 301.983L150.723 300.616L148.477 295.94Z" fill="white"
      stroke="#263238" stroke-linecap="round" stroke-linejoin="round" />
    <path
      d="M150.609 325.832C149.168 328.934 147.495 331.923 145.606 334.774C143.461 337.635 137.399 342.285 136.671 347.293C135.944 352.3 146.308 357.653 150.954 358.368C155.6 359.083 163.449 353.003 165.236 352.287C167.023 351.572 169.167 350.499 166.665 345.147C164.164 339.794 150.609 325.832 150.609 325.832Z"
      fill="white" />
    <path
      d="M166.678 345.133C165.402 342.285 160.896 337.009 157.003 332.691L154.948 333.036C154.948 333.036 150.073 337.916 150.073 341.173C150.073 344.431 154.948 348.915 154.948 348.915C154.948 348.915 147.622 347.28 146.014 349.732C145.783 350.049 145.619 350.409 145.532 350.791C145.445 351.173 145.438 351.569 145.509 351.954C145.581 352.34 145.731 352.706 145.949 353.031C146.168 353.356 146.45 353.634 146.78 353.845C144.278 352.999 141.679 352.475 139.045 352.287C142.415 355.315 146.507 357.422 150.928 358.406C155.574 359.121 163.423 353.041 165.21 352.325C166.997 351.61 169.18 350.486 166.678 345.133Z"
      fill="#29538E" />
    <path opacity="0.5"
      d="M166.678 345.133C165.402 342.285 160.896 337.009 157.003 332.691L154.948 333.036C154.948 333.036 150.073 337.916 150.073 341.173C150.073 344.431 154.948 348.915 154.948 348.915C154.948 348.915 147.622 347.28 146.014 349.732C145.783 350.049 145.619 350.409 145.532 350.791C145.445 351.173 145.438 351.569 145.509 351.954C145.581 352.34 145.731 352.706 145.949 353.031C146.168 353.356 146.45 353.634 146.78 353.845C144.278 352.999 141.679 352.475 139.045 352.287C142.415 355.315 146.507 357.422 150.928 358.406C155.574 359.121 163.423 353.041 165.21 352.325C166.997 351.61 169.18 350.486 166.678 345.133Z"
      fill="white" />
    <path
      d="M150.609 325.832C149.168 328.934 147.495 331.923 145.606 334.774C143.461 337.635 137.399 342.285 136.671 347.293C135.944 352.3 146.308 357.653 150.954 358.368C155.6 359.083 163.449 353.003 165.236 352.287C167.023 351.572 169.167 350.499 166.665 345.147C164.164 339.794 150.609 325.832 150.609 325.832Z"
      stroke="#263238" stroke-linecap="round" stroke-linejoin="round" />
    <path
      d="M150.609 319.738C151.204 319.234 151.907 318.873 152.664 318.682C153.42 318.492 154.21 318.478 154.973 318.641C155.736 318.803 156.451 319.139 157.064 319.622C157.677 320.104 158.172 320.721 158.51 321.425C161.879 327.978 168.861 341.723 168.861 343.345C168.861 345.491 169.218 348.698 165.287 346.207C161.356 343.716 153.149 332.628 151.005 329.408C149.448 327.122 147.75 322.332 150.609 319.738Z"
      fill="white" />
    <path
      d="M163.041 330.852C163.041 330.852 159.837 325.743 156.263 327.454C152.689 329.166 162.479 343.652 164.164 345.721C165.849 347.791 167.929 347.42 168.503 345.913C169.078 344.406 168.682 342.528 167.75 338.951C166.819 335.374 163.041 330.852 163.041 330.852Z"
      fill="#29538E" />
    <path opacity="0.5"
      d="M163.041 330.852C163.041 330.852 159.837 325.743 156.263 327.454C152.689 329.166 162.479 343.652 164.164 345.721C165.849 347.791 167.929 347.42 168.503 345.913C169.078 344.406 168.682 342.528 167.75 338.951C166.819 335.374 163.041 330.852 163.041 330.852Z"
      fill="white" />
    <path
      d="M150.609 319.738C151.204 319.234 151.907 318.873 152.664 318.682C153.42 318.492 154.21 318.478 154.973 318.641C155.736 318.803 156.451 319.139 157.064 319.622C157.677 320.104 158.172 320.721 158.51 321.425C161.879 327.978 168.861 341.723 168.861 343.345C168.861 345.491 169.218 348.698 165.287 346.207C161.356 343.716 153.149 332.628 151.005 329.408C149.448 327.122 147.75 322.332 150.609 319.738Z"
      stroke="#263238" stroke-linecap="round" stroke-linejoin="round" />
    <path
      d="M145.963 337.979C148.041 341.77 150.45 345.37 153.162 348.735C156.365 352.312 167.801 350.524 167.801 350.524"
      stroke="#263238" stroke-linecap="round" stroke-linejoin="round" />
    <path
      d="M140.258 345.134C140.258 345.134 146.321 354.421 149.537 356.209C152.753 357.997 161.318 354.063 161.318 354.063"
      stroke="#263238" stroke-linecap="round" stroke-linejoin="round" />
    <path
      d="M278.243 340.535C278.243 340.535 267.637 338.836 265.722 339.475C263.808 340.113 261.064 343.307 253.635 345.415C246.207 347.522 244.088 349.03 246.845 350.307C250.761 351.686 255.029 351.686 258.945 350.307C262.774 348.813 266.156 346.475 266.999 346.271C268.65 346.371 270.285 346.654 271.874 347.114C271.874 347.114 277.631 344.354 278.243 340.535Z"
      fill="white" stroke="#263238" stroke-linecap="round" stroke-linejoin="round" />
    <path
      d="M366.083 291.495C341.64 287.906 337.097 308.996 322.891 326.19C312.029 339.322 302.622 344.597 298.781 346.36C294.122 343.039 288.57 339.488 285.264 338.632C278.691 336.933 276.789 340.331 274.032 343.09C271.275 345.849 252.181 357.142 251.121 359.224C250.062 361.306 252.602 361.779 254.3 361.983C255.997 362.188 261.728 360.067 261.728 360.067C261.728 360.067 256.623 362.405 257.899 364.104C259.175 365.803 270.828 362.609 274.862 361.127C274.862 361.127 264.255 366.007 264.893 367.706C265.532 369.405 269.348 368.766 271.888 368.127C274.428 367.489 288.225 362.609 288.225 362.609C288.225 362.609 278.014 367.284 275.462 368.766C272.909 370.248 276.738 371.321 278.64 371.321C280.541 371.321 289.667 367.067 293.701 365.803C297.734 364.538 306.324 364.065 311.991 361.127C314.019 360.115 315.896 358.825 317.568 357.295C329.132 351.112 363.313 331.81 371.584 317.58C380.697 301.881 378.731 293.36 366.083 291.495Z"
      fill="white" />
    <path
      d="M366.082 291.495C364.357 291.241 362.617 291.113 360.874 291.111C361.181 291.354 365.367 294.944 362.904 302.749C360.351 310.835 316.113 350.869 311.428 352.568C306.744 354.267 295.691 347.037 296.112 349.592C296.533 352.146 301.217 356.822 300.362 358.534C299.507 360.245 286.756 366.62 282.072 369.596C281.434 370.009 280.828 370.471 280.26 370.976C283.578 369.941 290.407 366.849 293.751 365.802C297.784 364.525 306.272 364.103 311.99 361.127C314.018 360.114 315.895 358.825 317.568 357.294C329.131 351.112 363.312 331.81 371.583 317.579C380.696 301.88 378.73 293.36 366.082 291.495Z"
      fill="#29538E" />
    <path opacity="0.5"
      d="M366.082 291.495C364.357 291.241 362.617 291.113 360.874 291.111C361.181 291.354 365.367 294.944 362.904 302.749C360.351 310.835 316.113 350.869 311.428 352.568C306.744 354.267 295.691 347.037 296.112 349.592C296.533 352.146 301.217 356.822 300.362 358.534C299.507 360.245 286.756 366.62 282.072 369.596C281.434 370.009 280.828 370.471 280.26 370.976C283.578 369.941 290.407 366.849 293.751 365.802C297.784 364.525 306.272 364.103 311.99 361.127C314.018 360.114 315.895 358.825 317.568 357.294C329.131 351.112 363.312 331.81 371.583 317.579C380.696 301.88 378.73 293.36 366.082 291.495Z"
      fill="white" />
    <path
      d="M366.083 291.495C341.64 287.906 337.097 308.996 322.891 326.19C312.029 339.322 302.622 344.597 298.781 346.36C294.122 343.039 288.57 339.488 285.264 338.632C278.691 336.933 276.789 340.331 274.032 343.09C271.275 345.849 252.181 357.142 251.121 359.224C250.062 361.306 252.602 361.779 254.3 361.983C255.997 362.187 261.728 360.067 261.728 360.067C261.728 360.067 256.623 362.405 257.899 364.104C259.175 365.803 270.828 362.609 274.862 361.127C274.862 361.127 264.255 366.007 264.893 367.706C265.532 369.405 269.348 368.766 271.888 368.127C274.428 367.489 288.225 362.609 288.225 362.609C288.225 362.609 278.014 367.284 275.462 368.766C272.909 370.248 276.738 371.321 278.64 371.321C280.541 371.321 289.667 367.067 293.701 365.803C297.734 364.538 306.324 364.065 311.991 361.127C314.019 360.115 315.896 358.825 317.568 357.295C329.132 351.112 363.313 331.81 371.584 317.58C380.697 301.881 378.731 293.36 366.083 291.495Z"
      stroke="#263238" stroke-linecap="round" stroke-linejoin="round" />
    <path d="M261.729 360.066C261.729 360.066 281.244 349.234 284.422 345.21" stroke="#263238" stroke-linecap="round"
      stroke-linejoin="round" />
    <path d="M274.875 361.127C274.875 361.127 286.362 356.247 290.357 353.271" stroke="#263238" stroke-linecap="round"
      stroke-linejoin="round" />
    <path d="M288.238 362.609C288.238 362.609 295.667 360.054 297.785 358.368" stroke="#263238" stroke-linecap="round"
      stroke-linejoin="round" />
    <path d="M298.781 346.36L303.351 350.014" stroke="#263238" stroke-linecap="round" stroke-linejoin="round" />
    <path
      d="M227.062 231.596C227.062 231.596 226.284 237.575 208.108 247.194C189.933 256.813 176.697 254.462 174.923 253.172C173.149 251.882 167.393 235.493 171.809 217.57C176.225 199.648 195.383 191.613 212.001 191.613C228.619 191.613 237.452 203.825 240.566 213.432C243.68 223.038 238.741 249.302 238.741 249.302C238.741 249.302 228.619 246.67 227.062 231.596Z"
      fill="#263238" stroke="#263238" stroke-linecap="round" stroke-linejoin="round" />
    <path d="M226.232 233.244C226.232 233.244 222.339 251.435 186.346 258.575" stroke="#263238" stroke-linecap="round"
      stroke-linejoin="round" />
    <path d="M227.191 196.238C227.191 196.238 217.133 180.334 188.262 193.683" stroke="#263238" stroke-linecap="round"
      stroke-linejoin="round" />
    <path
      d="M229.156 198.192C231.136 197.914 233.153 198.19 234.985 198.991C236.817 199.792 238.391 201.085 239.533 202.727"
      stroke="#263238" stroke-linecap="round" stroke-linejoin="round" />
    <path d="M226.501 215.488C226.501 215.488 224.561 236.834 187.713 243.592" stroke="white" stroke-linecap="round"
      stroke-linejoin="round" />
    <path d="M178.995 230.958C177.719 230.868 176.442 230.728 175.166 230.523" stroke="white" stroke-linecap="round"
      stroke-linejoin="round" />
    <path d="M225.046 209.663C225.046 209.663 208.045 229.284 184.803 230.932" stroke="white" stroke-linecap="round"
      stroke-linejoin="round" />
    <path
      d="M339.357 136.147C339.498 136.39 342.637 133.925 342.778 134.167C343.11 134.73 329.785 145.818 330.104 146.38C330.831 147.657 356.09 129.773 356.767 130.974C357.571 132.366 326.262 151.515 327.079 152.933C328.125 154.734 363.161 130.156 364.004 131.6C364.846 133.043 325.088 155.066 325.994 156.65C326.9 158.234 366.837 130.821 367.782 132.507C368.726 134.193 324.386 157.659 325.407 159.537C326.428 161.415 369.505 131.689 370.526 133.452C371.547 135.215 324.118 164.2 325.113 165.911C326.389 168.262 375.07 134.334 376.244 136.365C377.418 138.396 324.105 165.413 325.19 167.368C326.275 169.322 376.129 134.947 377.418 137.182C378.516 139.086 324.054 167.38 325.368 169.667C326.53 171.673 377.98 136.186 379.307 138.498C380.481 140.529 325.407 172.988 326.555 175.007C327.921 177.383 381.975 139.916 383.302 142.215C384.629 144.515 326.326 175.811 327.806 178.379C329.083 180.653 384.093 142.279 385.638 144.949C386.914 147.184 326.926 177.14 328.202 179.209C329.619 181.649 384.859 143.237 386.263 145.664C387.667 148.091 327.321 177.983 328.674 180.321C330.231 183.003 385.523 144.31 386.901 146.686C388.088 148.743 327.947 179.235 329.248 181.483C330.691 184.038 386.238 145.46 387.578 147.772C389.033 150.327 330.55 183.335 332.031 185.903C333.307 188.1 388.548 149.867 390.003 152.409C391.369 154.759 332.465 185.686 333.78 187.947C335.235 190.502 389.773 152.665 391.037 154.862C392.3 157.059 333.869 187.372 335.056 189.441C336.524 191.996 390.335 154.593 391.586 156.778C392.836 158.962 337.685 190.732 338.987 192.993C340.289 195.254 391.19 159.422 392.671 161.977C393.832 164.008 337.953 190.885 339.293 193.197C340.748 195.752 391.381 160.074 392.696 162.347C394.011 164.621 338.234 191.243 339.51 193.325C340.787 195.407 391.407 160.214 392.747 162.552C393.921 164.57 343.697 194.487 344.871 196.569C346.045 198.652 391.649 166.588 392.926 168.798C393.883 170.459 348.253 196.569 349.326 198.409C350.398 200.248 391.343 171.915 392.3 173.576C393.258 175.237 349.096 196.953 350.091 198.677C351.087 200.402 390.935 172.388 392.134 174.406C393.092 176.067 357.469 198.83 358.247 200.197C359.026 201.564 388.522 180.704 389.39 182.211C390.003 183.259 366.161 198.818 366.735 199.827C367.194 200.632 384.157 188.534 384.681 189.454C384.923 189.863 373.755 197.119 374.023 197.655C374.202 197.949 379.231 194.181 379.435 194.526C379.639 194.87 375.223 196.953 375.312 197.08C375.401 197.208 378.567 194.819 378.733 195.113"
      stroke="#263238" stroke-width="0.72" stroke-linecap="round" stroke-linejoin="round" />
    <path
      d="M353.704 179.196C354.65 179.01 355.546 178.627 356.336 178.072C357.125 177.518 357.789 176.804 358.286 175.977C359.032 174.783 359.417 173.399 359.397 171.992C359.433 170.706 359.096 169.437 358.427 168.338C357.741 167.298 356.724 166.519 355.542 166.128C356.267 165.793 356.915 165.31 357.444 164.71C358.252 163.66 358.664 162.356 358.605 161.031C358.648 159.663 358.245 158.318 357.456 157.199C356.18 155.462 354.036 154.58 350.985 154.529H338.924V179.503H350.169C351.354 179.524 352.539 179.421 353.704 179.196ZM343.902 158.898H349.339C350.336 158.872 351.33 159.001 352.287 159.281C352.727 159.474 353.094 159.802 353.335 160.218C353.576 160.634 353.679 161.116 353.627 161.593C353.67 162.018 353.597 162.445 353.418 162.832C353.238 163.219 352.958 163.55 352.606 163.791C351.797 164.23 350.884 164.441 349.964 164.404H343.902V158.898ZM343.902 175.198V168.543H350.041C350.911 168.509 351.78 168.653 352.594 168.964C353.103 169.189 353.529 169.566 353.812 170.045C354.096 170.524 354.223 171.079 354.176 171.634C354.249 172.258 354.133 172.889 353.841 173.445C353.55 174.001 353.097 174.457 352.543 174.751C351.736 175.089 350.863 175.241 349.99 175.198H343.902Z"
      fill="white" />
    <path
      d="M363.621 177.894C365.467 179.377 367.776 180.164 370.143 180.116C371.425 180.195 372.709 179.996 373.907 179.533C375.105 179.07 376.19 178.354 377.086 177.434C378.024 176.538 378.65 175.365 378.873 174.087H373.972C373.735 174.579 373.395 175.015 372.976 175.364C372.216 175.954 371.27 176.253 370.309 176.208C369.372 176.236 368.447 175.996 367.641 175.518C367.014 175.088 366.507 174.504 366.169 173.822C365.832 173.139 365.675 172.382 365.714 171.622H379.077C379.121 170.397 379.07 169.172 378.924 167.955C378.735 166.58 378.228 165.268 377.444 164.123C376.667 162.922 375.558 161.973 374.253 161.39C372.884 160.794 371.405 160.498 369.913 160.521C368.699 160.472 367.488 160.673 366.355 161.113C365.222 161.552 364.191 162.221 363.327 163.076C362.43 164.068 361.741 165.231 361.303 166.495C360.864 167.759 360.685 169.098 360.775 170.434C360.792 173.883 361.74 176.369 363.621 177.894ZM367.067 165.618C367.449 165.251 367.902 164.968 368.398 164.785C368.895 164.603 369.424 164.525 369.952 164.558C370.995 164.524 372.014 164.879 372.811 165.554C373.209 165.928 373.527 166.379 373.746 166.88C373.966 167.38 374.082 167.92 374.087 168.466H365.765C365.89 167.404 366.346 166.407 367.067 165.618Z"
      fill="white" />
    <path d="M375.058 155.999H364.209V158.516H375.058V155.999Z" fill="white" />
    <path
      d="M304.091 57.6505C304.244 57.906 307.371 55.4278 307.512 55.6705C307.843 56.2453 293.906 68.2147 294.276 68.8534C294.927 69.9776 321.96 51.2123 322.675 52.4514C323.389 53.6905 292.923 69.0706 293.561 70.2586C294.199 71.4466 323.415 51.2762 324.194 52.5791C324.972 53.8821 291.404 72.3408 292.119 73.5671C293.089 75.2405 327.014 51.5316 327.857 52.9368C328.699 54.342 289.209 79.2005 290.166 80.874C291.123 82.5474 333.907 52.7707 335.106 54.904C336.051 56.5264 288.851 81.1806 289.949 83.0967C291.047 85.0128 335.962 53.716 337.174 55.7982C338.208 57.5866 288.851 85.792 289.847 87.5165C290.957 89.4454 339.893 55.8749 341.067 57.9187C342.343 60.2436 288.736 86.9545 290.013 88.9728C291.289 90.9911 340.952 56.3348 342.343 58.7491C343.735 61.1634 289.043 88.7173 290.153 90.6207C291.43 92.8689 342.484 57.5738 343.76 59.6688C345.036 61.7638 288.992 89.3177 290.268 91.5404C291.544 93.7631 343.173 58.0209 344.449 60.2309C345.853 62.6452 288.902 89.5476 290.306 91.9875C291.71 94.4274 343.441 58.3786 344.615 60.5119C345.789 62.6452 289.413 91.9364 290.689 94.1591C291.966 96.3819 345.075 59.8476 346.326 62.0065C347.755 64.5613 289.566 92.4729 290.804 94.6318C292.336 97.2888 345.458 60.1415 346.696 62.3386C347.934 64.5358 290.345 95.5515 291.583 97.6593C293.025 100.214 347.321 62.0831 348.776 64.5997C350.052 66.7713 292.055 99.652 293.446 102.054C295.003 104.762 350.321 66.0048 351.699 68.3936C353.077 70.7823 294.723 104.161 295.948 106.256C297.314 108.632 352.682 70.1181 354.137 72.6346C355.592 75.1511 294.837 104.149 296.229 106.627C297.773 109.322 353.065 70.7824 354.354 73.0306C355.643 75.2789 296.573 106.537 297.76 108.581C299.139 110.97 354.009 73.0434 355.324 75.3683C356.638 77.6932 298.284 108.466 299.649 110.842C301.015 113.218 354.941 75.8537 356.256 78.1275C357.711 80.6824 299.573 109.744 300.977 112.158C302.381 114.572 355.247 77.4249 356.702 79.9542C358.055 82.2919 303.912 113.244 305.265 115.594C306.452 117.664 356.396 83.4033 357.532 85.3833C358.668 87.3633 308.188 116.041 309.324 117.996C310.46 119.95 356.421 88.0275 357.621 90.0969C358.655 91.8853 309.337 116.718 310.396 118.532C311.456 120.346 356.421 89.3305 357.545 91.2849C358.668 93.2394 313.038 118.238 314.034 119.963C315.221 122.032 355.822 93.1372 356.983 95.1427C357.966 96.8289 318.424 119.835 319.267 121.304C320.109 122.773 354.545 98.6429 355.528 100.355C356.243 101.632 320.964 120.129 321.845 121.649C322.726 123.169 353.754 101.21 354.584 102.731C355.209 103.804 329.159 120.346 329.835 121.521C330.397 122.492 350.04 108.632 350.563 109.539C350.818 109.974 339.561 118.264 339.816 118.711C340.071 119.158 343.377 116.322 343.518 116.565C343.658 116.808 339.918 118.494 339.995 118.634C340.071 118.775 343.25 116.361 343.415 116.654"
      stroke="#263238" stroke-width="0.72" stroke-linecap="round" stroke-linejoin="round" />
    <path
      d="M318.106 108.683H326.747V86.967H332.797L333.448 79.6857H326.747V75.5341C326.747 73.8224 327.092 73.1453 328.751 73.1453H333.448V65.583H327.436C320.991 65.583 318.081 68.4317 318.081 73.8862V79.6857H313.562V87.0564H318.081L318.106 108.683Z"
      fill="white" />
    <path
      d="M208.275 20.439C208.416 20.6817 211.543 18.1779 211.696 18.459C211.849 18.74 200.719 27.3115 200.987 27.7586C201.562 28.7805 221.562 14.5884 222.124 15.5465C222.787 16.7089 196.877 32.5617 197.49 33.6092C198.256 34.8866 228.123 13.873 229.016 15.3932C229.909 16.9133 194.006 39.1149 194.95 40.7627C196.035 42.6405 235.487 15.0227 236.483 16.7728C237.478 18.5228 192.972 45.3742 194.006 47.2648C195.039 49.1554 241.371 17.3604 242.507 19.2638C243.783 21.4226 192.985 46.0896 194.006 47.9035C195.282 50.1773 241.767 17.2454 243.081 19.5448C244.128 21.346 192.806 47.367 193.955 49.347C195.231 51.6336 243.005 17.833 244.383 20.209C245.545 22.2401 193.265 52.4256 194.35 54.3161C195.627 56.5261 247.293 21.0138 248.468 23.0449C249.642 25.076 194.414 57.8163 195.639 59.9368C196.992 62.2617 251.199 24.565 252.616 27.0177C253.803 29.0743 195.116 59.7324 196.456 62.1339C198.039 64.8676 252.833 26.5961 254.122 28.8188C255.411 31.0416 195.41 60.6138 196.89 63.1687C198.371 65.7235 253.369 27.0943 254.849 29.6747C256.062 31.7697 195.907 61.7252 197.324 64.165C198.6 66.3877 254.16 28.3207 255.462 30.5689C256.764 32.8172 196.89 63.7818 198.205 66.0045C199.711 68.5594 255.181 29.9685 256.534 32.2934C257.887 34.6183 197.145 64.1395 198.524 66.5283C200.068 69.1981 255.436 30.3517 256.853 32.8299C258.27 35.3081 200.387 68.8404 201.587 71.012C202.787 73.1836 258.015 35.4359 259.291 37.6586C260.772 40.2134 201.383 69.9518 202.825 72.4555C204.102 74.7548 258.602 36.9305 260.031 39.3959C261.231 41.4781 203.974 72.6854 205.403 75.1636C206.833 77.6418 259.47 40.4689 260.976 43.0621C262.252 45.2976 205.403 74.0651 206.705 76.275C208.007 78.4849 260.019 42.3467 261.384 44.6844C262.75 47.0221 207.446 75.6618 208.709 77.8973C209.973 80.1328 260.376 45.0165 261.652 47.2648C262.673 49.0404 212.653 79.0214 213.712 80.8737C214.772 82.7259 260.465 50.7905 261.793 53.0898C262.954 55.1081 214.032 79.609 215.18 81.6018C216.329 83.5946 260.606 52.8854 261.678 54.776C262.75 56.6666 218.601 81.4613 219.635 83.2625C220.669 85.0636 259.738 57.5097 260.861 59.4514C261.78 61.0354 219.252 81.7551 220.235 83.4541C221.217 85.153 259.802 58.5061 260.733 60.0517C261.665 61.5974 220.809 82.1256 221.779 83.7479C222.749 85.3702 259.304 59.8346 260.274 61.508C261.027 62.7854 223.183 82.6748 224.064 84.2205C224.944 85.7662 258.525 62.019 259.495 63.7818C260.248 65.0592 232.015 83.2114 232.692 84.4377C233.368 85.664 254.849 70.2583 255.449 71.2803C255.781 71.8551 242.15 81.6018 242.469 82.1511C242.788 82.7004 248.314 78.255 248.531 78.6382C248.748 79.0214 242.711 81.7423 242.852 81.985C242.992 82.2277 248.11 78.4594 248.327 78.817C248.544 79.1747 244.09 81.2697 244.166 81.3719C244.243 81.4741 247.434 79.1236 247.587 79.3919"
      stroke="#263238" stroke-width="0.72" stroke-linecap="round" stroke-linejoin="round" />
    <path
      d="M208.953 61.9037C212.513 64.1919 216.656 65.4069 220.887 65.4038C235.361 65.4038 243.53 53.1789 243.032 42.2187C244.537 41.1103 245.833 39.7435 246.861 38.182C245.438 38.8251 243.929 39.2555 242.381 39.4594C244.008 38.4822 245.228 36.9486 245.814 35.1417C244.284 36.0517 242.609 36.6912 240.862 37.0323C239.687 35.7833 238.133 34.9566 236.441 34.6802C234.749 34.4037 233.014 34.6928 231.503 35.5028C229.991 36.3128 228.789 37.5986 228.081 39.1612C227.374 40.7238 227.2 42.4763 227.588 44.1476C224.49 43.9949 221.458 43.1901 218.691 41.7858C215.925 40.3815 213.485 38.4092 211.531 35.9976C210.535 37.7145 210.23 39.747 210.678 41.6811C211.126 43.6153 212.294 45.3059 213.944 46.4086C212.705 46.3683 211.494 46.0357 210.408 45.4378C210.387 47.255 211 49.0226 212.142 50.4358C213.284 51.849 214.882 52.8191 216.662 53.1789C215.513 53.4914 214.308 53.5351 213.14 53.3066C213.637 54.8558 214.605 56.2106 215.91 57.1817C217.214 58.1529 218.789 58.6917 220.415 58.7229C217.163 61.2555 213.043 62.3988 208.953 61.9037Z"
      fill="white" />
    <path
      d="M113.136 57.6502C113.277 57.8801 116.391 55.3892 116.557 55.6702C116.94 56.3345 102.849 68.3678 103.232 69.0448C103.934 70.2583 131.159 51.1609 131.924 52.4383C132.69 53.7158 101.496 70.1689 102.109 71.2547C102.862 72.5321 133.43 51.0332 134.349 52.6299C135.141 53.984 100.718 71.3441 101.471 72.6343C102.224 73.9245 134.949 51.0587 135.932 52.7321C136.762 54.1756 98.535 78.4338 99.4029 79.9284C100.424 81.704 142.161 52.6938 143.258 54.5844C144.356 56.475 97.6288 83.965 98.803 85.9578C99.9773 87.9506 147.509 54.8782 148.785 57.0881C150.061 59.2981 97.9989 89.6496 99.237 91.7956C100.679 94.3505 152.167 57.944 153.584 60.3839C155.001 62.8238 97.9989 90.0583 99.3518 92.396C100.705 94.7337 152.793 58.6466 154.044 60.7926C155.154 62.7216 98.0244 90.1733 99.4157 92.6387C100.807 95.1041 152.729 58.3656 154.299 60.9715C155.46 62.977 99.2114 94.8742 100.692 97.3652C102.173 99.8561 156.29 61.7763 157.796 64.3694C159.072 66.5921 99.9517 96.5732 101.42 99.1408C102.887 101.708 157.579 63.2964 159.06 65.8385C160.336 68.0101 101.203 99.524 102.632 102.015C103.908 104.174 159.379 65.749 160.885 68.355C162.161 70.4883 102.096 101.159 103.449 103.497C104.802 105.834 160.285 67.2053 161.778 69.7857C163.055 71.9318 102.543 101.9 103.73 103.957C105.261 106.614 160.757 67.9845 162.059 70.2456C163.361 72.5066 105.466 106.218 106.64 108.262C107.916 110.497 162.889 72.4938 164.318 74.9337C165.595 77.1564 107.291 108.3 108.554 110.497C109.997 112.988 163.808 75.0614 165.327 77.6929C166.603 79.9156 107.457 108.53 108.656 110.612C109.856 112.694 163.935 75.368 165.365 77.8334C166.794 80.2988 109.205 110.088 110.622 112.541C111.809 114.598 164.612 78.0506 166.016 80.5288C167.42 83.007 110.443 111.187 111.822 113.588C112.983 115.619 164.969 79.5707 166.399 82.0489C167.547 84.0545 110.699 111.43 112.077 113.818C113.251 115.849 164.969 79.8007 166.463 82.3938C167.624 84.4249 113.545 113.716 114.706 115.734C116.11 118.162 165.416 83.3902 166.718 85.664C167.764 87.4779 115.306 114.942 116.442 116.897C117.808 119.273 165.658 85.6129 166.884 87.7462C168.109 89.8795 121.42 117.919 122.416 119.682C123.411 121.445 165.122 92.2938 166.297 94.3377C167.292 96.0494 123.373 118.698 124.317 120.346C125.479 122.339 164.752 94.3632 165.888 96.3305C166.858 98.0039 127.598 119.669 128.517 121.304C129.436 122.939 163.718 98.8342 164.637 100.431C165.416 101.708 134.541 120.589 135.281 121.802C136.021 123.016 161.076 105.196 161.817 106.473C162.391 107.495 137.783 120.525 138.37 121.559C138.957 122.594 159.557 108.032 160.068 109.002C160.387 109.552 148.887 118.162 149.142 118.621C149.398 119.081 152.41 116.36 152.563 116.641"
      stroke="#263238" stroke-width="0.72" stroke-linecap="round" stroke-linejoin="round" />
    <path d="M123.016 78.332H115.639V102.181H123.016V78.332Z" fill="white" />
    <path
      d="M119.288 75.2153C120.161 75.2254 121.017 74.9756 121.748 74.4975C122.479 74.0194 123.051 73.3347 123.392 72.5304C123.734 71.7261 123.828 70.8384 123.664 69.9801C123.5 69.1219 123.085 68.3319 122.471 67.7104C121.857 67.0889 121.073 66.6641 120.217 66.4899C119.361 66.3156 118.473 66.3999 117.666 66.7319C116.858 67.0639 116.168 67.6287 115.681 68.3545C115.195 69.0803 114.936 69.9344 114.936 70.8082C114.932 71.9692 115.388 73.0844 116.203 73.9102C117.019 74.736 118.128 75.2052 119.288 75.2153Z"
      fill="white" />
    <path
      d="M134.81 89.6623C134.81 86.3027 136.341 84.3099 139.302 84.3099C142.008 84.3099 143.31 86.2261 143.31 89.6623V102.194H150.611V87.0819C150.611 80.6948 146.999 77.6035 141.944 77.6035C140.511 77.5819 139.096 77.9331 137.839 78.6228C136.581 79.3124 135.524 80.3169 134.771 81.5379V78.3316H127.688V102.194H134.771L134.81 89.6623Z"
      fill="white" />
    <path
      d="M62.1209 136.147C62.274 136.428 65.4011 133.925 65.5415 134.167C65.6819 134.41 57.4111 139.775 57.6281 140.159C58.011 140.823 71.2213 131.357 71.668 132.072C72.1147 132.788 52.5227 145.243 53.0843 146.124C53.6459 147.005 78.4837 129.722 79.2368 131.012C79.9898 132.302 49.3829 150.697 50.1742 152.09C51.1315 153.737 84.9804 129.811 85.9121 131.434C86.7162 132.813 49.0255 151.872 49.7913 153.15C50.7996 154.9 86.1163 130.029 87.048 131.625C87.9798 133.222 48.3107 152.831 49.2935 154.568C50.2763 156.305 87.3671 130.207 88.3882 131.97C89.4093 133.733 46.9833 159.537 48.0044 161.351C49.2808 163.561 93.8255 132.341 94.9231 134.231C96.0208 136.122 46.8429 161.696 47.8512 163.51C49.0255 165.528 95.5868 132.967 96.8632 135.189C97.9609 137.093 46.9578 165.758 47.9916 167.546C49.0255 169.335 99.1096 135.189 100.322 137.31C101.701 139.699 47.3535 170.012 48.6426 172.235C50.1359 174.789 102.62 137.821 104.024 140.299C105.223 142.394 48.2724 173.64 49.485 175.747C50.6975 177.855 105.262 140.516 106.5 142.688C107.738 144.859 49.1786 175.901 50.5188 178.175C51.859 180.448 106.857 142.292 108.299 144.783C109.742 147.274 50.5316 178.979 51.7313 181.049C53.3268 183.808 108.759 145.089 110.048 147.338C111.337 149.586 51.5527 180.627 52.778 182.76C54.2585 185.315 109.805 146.788 111.12 149.049C112.435 151.31 53.9267 184.166 55.2541 186.503C56.824 189.237 111.784 150.94 113.035 153.124C114.502 155.679 56.3262 186.938 57.7685 189.441C59.0449 191.69 112.792 154.108 114.324 156.765C115.6 158.911 59.2363 189.901 60.3723 191.856C61.738 194.206 113.813 157.851 115.166 160.201C116.442 162.36 59.7341 190.233 60.9721 192.392C62.2102 194.551 113.979 158.604 115.332 160.955C116.481 162.96 61.8784 191.702 63.2185 194.002C64.3928 196.046 114.426 161.811 115.549 163.752C116.672 165.694 66.001 194.244 67.2518 196.416C68.5026 198.588 114.592 166.639 115.638 168.466C116.685 170.293 71.7573 196.838 72.8422 198.715C73.9271 200.593 113.686 172.452 114.822 174.444C115.804 176.169 77.2201 198.307 78.1774 199.993C79.1347 201.679 112.435 178.353 113.226 179.733C114.017 181.113 79.1091 198.894 79.8494 200.172C80.5897 201.449 111.758 179.733 112.588 181.253C113.111 182.16 91.4898 198.204 92.0769 199.226C92.5108 199.967 105.44 190.629 105.823 191.281C105.989 191.587 97.8077 196.838 97.9992 197.157C98.1906 197.476 101.267 194.909 101.42 195.19"
      stroke="#263238" stroke-width="0.72" stroke-linecap="round" stroke-linejoin="round" />
    <path
      d="M81.7773 149.599C86.9976 149.599 87.6102 149.599 89.6779 149.714C90.9144 149.735 92.139 149.959 93.3028 150.378C94.1508 150.696 94.918 151.197 95.5491 151.847C96.1989 152.476 96.6965 153.245 97.0042 154.095C97.4351 155.257 97.6639 156.484 97.6807 157.723C97.7828 159.793 97.7955 160.406 97.7955 165.631C97.7955 170.855 97.7955 171.468 97.6807 173.525C97.6649 174.768 97.4361 176 97.0042 177.166C96.6965 178.016 96.1989 178.785 95.5491 179.414C94.9139 180.056 94.1476 180.552 93.3028 180.87C92.142 181.301 90.916 181.53 89.6779 181.547C87.6102 181.637 86.9976 181.662 81.7773 181.662C76.557 181.662 75.9444 181.662 73.8767 181.547C72.6386 181.53 71.4126 181.301 70.2518 180.87C69.407 180.552 68.6407 180.056 68.0054 179.414C67.3601 178.781 66.8632 178.014 66.5504 177.166C66.1185 176 65.8897 174.768 65.8739 173.525C65.7846 171.468 65.7591 170.855 65.7591 165.631C65.7591 160.406 65.7591 159.793 65.8739 157.723C65.8907 156.484 66.1195 155.257 66.5504 154.095C66.874 153.252 67.3706 152.485 68.0081 151.845C68.6455 151.205 69.4098 150.705 70.2518 150.378C71.4156 149.959 72.6402 149.735 73.8767 149.714C75.9444 149.612 76.557 149.599 81.7773 149.599ZM81.7773 146.073C76.4677 146.073 75.804 146.073 73.7235 146.188C72.1021 146.23 70.4983 146.536 68.9755 147.095C67.6729 147.59 66.4929 148.361 65.5166 149.356C64.5234 150.331 63.7565 151.513 63.2702 152.818C62.6993 154.339 62.3886 155.946 62.3512 157.57C62.2619 159.652 62.2363 160.316 62.2363 165.631C62.2363 170.945 62.2363 171.609 62.3512 173.691C62.39 175.315 62.7007 176.922 63.2702 178.443C63.7682 179.742 64.5335 180.921 65.5164 181.905C66.4993 182.889 67.6778 183.655 68.9755 184.153C70.4957 184.723 72.1006 185.034 73.7235 185.073C75.804 185.162 76.4677 185.188 81.7773 185.188C87.0869 185.188 87.7506 185.188 89.8311 185.073C91.454 185.034 93.0589 184.723 94.5791 184.153C95.8811 183.663 97.0612 182.896 98.038 181.905C99.028 180.924 99.7981 179.744 100.297 178.443C100.856 176.919 101.162 175.314 101.203 173.691C101.293 171.609 101.318 170.945 101.318 165.631C101.318 160.316 101.318 159.652 101.203 157.57C101.163 155.947 100.857 154.342 100.297 152.818C99.7916 151.52 99.0224 150.341 98.0381 149.356C97.0539 148.371 95.876 147.601 94.5791 147.095C93.0563 146.536 91.4525 146.23 89.8311 146.188C87.7506 146.099 87.0869 146.073 81.7773 146.073Z"
      fill="white" />
    <path
      d="M81.7763 155.59C79.7921 155.59 77.8525 156.179 76.2027 157.282C74.553 158.385 73.2671 159.953 72.5078 161.788C71.7485 163.623 71.5498 165.641 71.9369 167.589C72.324 169.537 73.2795 171.326 74.6825 172.73C76.0855 174.134 77.8731 175.091 79.8191 175.478C81.7652 175.865 83.7823 175.667 85.6154 174.907C87.4486 174.147 89.0153 172.86 90.1177 171.209C91.22 169.557 91.8084 167.616 91.8084 165.63C91.8084 164.312 91.5489 163.006 91.0448 161.788C90.5406 160.57 89.8016 159.463 88.8701 158.531C87.9385 157.598 86.8326 156.859 85.6154 156.354C84.3983 155.85 83.0937 155.59 81.7763 155.59ZM81.7763 172.196C80.4889 172.196 79.2303 171.814 78.1599 171.098C77.0894 170.382 76.2551 169.365 75.7624 168.175C75.2697 166.984 75.1408 165.674 75.392 164.41C75.6431 163.147 76.2631 161.986 77.1735 161.075C78.0838 160.164 79.2437 159.543 80.5064 159.292C81.7691 159.04 83.0779 159.169 84.2673 159.663C85.4568 160.156 86.4734 160.991 87.1887 162.062C87.9039 163.133 88.2857 164.393 88.2857 165.681C88.2857 167.409 87.5999 169.066 86.3791 170.288C85.1584 171.51 83.5027 172.196 81.7763 172.196Z"
      fill="white" />
    <path
      d="M94.5525 155.194C94.5525 155.659 94.4147 156.114 94.1567 156.5C93.8986 156.887 93.5318 157.188 93.1027 157.366C92.6736 157.544 92.2014 157.59 91.7458 157.5C91.2902 157.409 90.8718 157.185 90.5433 156.856C90.2149 156.528 89.9912 156.109 89.9006 155.653C89.81 155.197 89.8565 154.724 90.0342 154.295C90.212 153.865 90.513 153.498 90.8992 153.24C91.2854 152.982 91.7395 152.844 92.204 152.844C92.5129 152.842 92.819 152.902 93.1047 153.019C93.3904 153.137 93.65 153.31 93.8684 153.528C94.0868 153.747 94.2597 154.007 94.3771 154.293C94.4946 154.579 94.5541 154.885 94.5525 155.194Z"
      fill="white" />
  </g>
  <defs>
    <clipPath id="clip0">
      <rect width="448" height="396" fill="white" />
    </clipPath>
  </defs>
</svg>