<svg width="503" height="288" viewBox="0 0 503 288" fill="none" xmlns="http://www.w3.org/2000/svg">
  <path
    d="M377.09 0.451622H276.352C271.491 0.451621 266.775 2.10551 262.978 5.14144C259.181 8.17736 256.531 12.4146 255.462 17.1568L204.561 242.931C204.005 245.394 203.996 247.948 204.532 250.415C205.068 252.882 206.138 255.201 207.665 257.211C209.193 259.221 211.141 260.872 213.375 262.049C215.608 263.226 218.072 263.901 220.593 264.025L324.152 269.127C329.698 269.4 335.153 267.647 339.5 264.193C343.848 260.74 346.79 255.823 347.778 250.359L376.652 90.7342L378.8 91.348L384.325 61.093L382.114 60.5402L390.174 15.9831C390.519 14.0747 390.439 12.1136 389.939 10.2396C389.44 8.3656 388.533 6.62492 387.283 5.14162C386.034 3.65833 384.473 2.46895 382.711 1.65828C380.949 0.8476 379.03 0.435591 377.09 0.451622Z"
    fill="#0F1B2E" />
  <path
    d="M289.611 5.31934H277.852C274.475 5.31934 271.2 6.47429 268.57 8.59245C265.939 10.7106 264.113 13.6646 263.393 16.964L214.535 240.896C214.254 242.186 214.254 243.521 214.536 244.81C214.818 246.099 215.374 247.312 216.168 248.366C216.962 249.421 217.973 250.291 219.134 250.919C220.295 251.546 221.578 251.915 222.895 252.002L326.119 258.767C329.031 258.958 331.912 258.07 334.211 256.272C336.51 254.475 338.067 251.894 338.584 249.021L380.275 17.5655C380.545 16.0674 380.483 14.5284 380.093 13.057C379.703 11.5856 378.995 10.2177 378.018 9.04979C377.042 7.88193 375.821 6.94256 374.442 6.29799C373.063 5.65341 371.56 5.31934 370.038 5.31934H358.882C357.803 5.31934 356.753 5.67527 355.896 6.33203C355.039 6.98879 354.422 7.90974 354.142 8.95231C353.894 9.8727 353.35 10.6857 352.593 11.2655C351.837 11.8453 350.91 12.1596 349.957 12.1596H296.998C295.132 12.1596 293.334 11.4551 291.964 10.1869C290.595 8.91869 289.755 7.18032 289.611 5.31934L289.611 5.31934Z"
    fill="#9AC5FE" />
  <path
    d="M438.819 199.595C422.71 225.049 427.655 257.076 427.655 257.076C427.655 257.076 458.716 247.835 474.824 222.382C490.932 196.928 485.988 164.901 485.988 164.901C485.988 164.901 454.927 174.142 438.819 199.595Z"
    fill="#D0CDE1" />
  <path
    d="M451.237 203.888C450.346 233.997 428.328 257.775 428.328 257.775C428.328 257.775 407.755 232.737 408.645 202.628C409.536 172.519 431.554 148.741 431.554 148.741C431.554 148.741 452.128 173.779 451.237 203.888Z"
    fill="#9AC5FE" />
  <path
    d="M48.5465 165.915C53.6334 165.915 57.7571 163.108 57.7571 159.645C57.7571 156.183 53.6334 153.376 48.5465 153.376C43.4597 153.376 39.3359 156.183 39.3359 159.645C39.3359 163.108 43.4597 165.915 48.5465 165.915Z"
    fill="#9AC5FE" />
  <path d="M48.5449 159.645C48.5449 159.645 92.2953 235.661 91.144 246.632L48.5449 159.645Z" fill="#9AC5FE" />
  <path
    d="M77.328 164.888V209.356C68.1635 196.658 49.8845 183.582 15.6309 172.968L77.328 257.714V258.357C77.328 258.357 77.4445 258.294 77.6615 258.172L77.7666 258.316C77.7666 258.316 77.8546 258.198 78.0121 257.971C85.2003 253.807 145.487 216.264 77.328 164.888Z"
    fill="#0F1B2E" />
  <path
    d="M384.318 165.915C389.405 165.915 393.529 163.108 393.529 159.645C393.529 156.183 389.405 153.376 384.318 153.376C379.231 153.376 375.107 156.183 375.107 159.645C375.107 163.108 379.231 165.915 384.318 165.915Z"
    fill="#9AC5FE" />
  <path d="M384.318 159.645C384.318 159.645 428.069 235.661 426.917 246.632L384.318 159.645Z" fill="#9AC5FE" />
  <path
    d="M413.103 164.888V209.356C403.939 196.658 385.66 183.582 351.406 172.968L413.103 257.714V258.357C413.103 258.357 413.22 258.294 413.437 258.172L413.542 258.316C413.542 258.316 413.63 258.198 413.787 257.971C420.976 253.807 481.262 216.264 413.103 164.888Z"
    fill="#0F1B2E" />
  <path
    d="M19.0217 245.379C23.8573 254.346 34.1202 258.196 34.1202 258.196C34.1202 258.196 36.543 247.506 31.7074 238.538C26.8717 229.57 16.6089 225.721 16.6089 225.721C16.6089 225.721 14.1861 236.411 19.0217 245.379Z"
    fill="#D0CDE1" />
  <path
    d="M22.3447 242.427C31.075 247.679 34.4373 258.112 34.4373 258.112C34.4373 258.112 23.645 260.029 14.9148 254.776C6.18456 249.524 2.82227 239.091 2.82227 239.091C2.82227 239.091 13.6145 237.174 22.3447 242.427Z"
    fill="#9AC5FE" />
  <path
    d="M307.901 245.379C312.736 254.346 322.999 258.196 322.999 258.196C322.999 258.196 325.422 247.506 320.586 238.538C315.751 229.57 305.488 225.721 305.488 225.721C305.488 225.721 303.065 236.411 307.901 245.379Z"
    fill="#0F1B2E" />
  <path
    d="M311.228 242.427C319.958 247.679 323.32 258.112 323.32 258.112C323.32 258.112 312.528 260.029 303.798 254.776C295.067 249.524 291.705 239.091 291.705 239.091C291.705 239.091 302.497 237.174 311.228 242.427Z"
    fill="#0F1B2E" />
  <path
    d="M189.84 238.68C194.676 247.648 204.939 251.498 204.939 251.498C204.939 251.498 207.361 240.808 202.526 231.84C197.69 222.872 187.427 219.022 187.427 219.022C187.427 219.022 185.004 229.712 189.84 238.68Z"
    fill="#0F1B2E" />
  <path
    d="M193.163 235.728C201.893 240.98 205.256 251.413 205.256 251.413C205.256 251.413 194.463 253.33 185.733 248.077C177.003 242.825 173.641 232.392 173.641 232.392C173.641 232.392 184.433 230.475 193.163 235.728Z"
    fill="#9AC5FE" />
  <path
    d="M137.504 238.68C142.34 247.648 152.603 251.498 152.603 251.498C152.603 251.498 155.025 240.808 150.19 231.84C145.354 222.872 135.091 219.022 135.091 219.022C135.091 219.022 132.669 229.712 137.504 238.68Z"
    fill="#D0CDE1" />
  <path
    d="M140.829 235.728C149.559 240.98 152.922 251.413 152.922 251.413C152.922 251.413 142.129 253.33 133.399 248.077C124.669 242.825 121.307 232.392 121.307 232.392C121.307 232.392 132.099 230.475 140.829 235.728Z"
    fill="#9AC5FE" />
  <path
    d="M483.744 245.379C478.909 254.346 468.646 258.196 468.646 258.196C468.646 258.196 466.223 247.506 471.059 238.538C475.894 229.57 486.157 225.721 486.157 225.721C486.157 225.721 488.58 236.411 483.744 245.379Z"
    fill="#0F1B2E" />
  <path
    d="M480.419 242.427C471.688 247.679 468.326 258.112 468.326 258.112C468.326 258.112 479.118 260.029 487.849 254.776C496.579 249.524 499.941 239.091 499.941 239.091C499.941 239.091 489.149 237.174 480.419 242.427Z"
    fill="#9AC5FE" />
  <path
    d="M502.814 264.726C502.814 264.726 490.772 261.158 466.82 257.729L467.251 250.4C470.856 209.132 442.603 147.65 442.603 147.65C453.485 178.237 458.883 210.505 458.548 242.969C454.802 236.618 447.632 229.805 433.963 225.74C433.963 225.74 451.861 240.704 457.13 256.437C439.069 254.204 415.669 252.246 386.975 251.672L392.888 237.591L381.356 249.416C381.356 249.416 376.108 214.442 365.787 213.197L373.774 247.45C373.774 247.45 364.757 240.692 362.705 241.405L367.914 251.505C364.711 251.512 361.452 251.536 358.136 251.579C360.608 210.361 333.33 150.999 333.33 150.999C344.213 181.587 349.611 213.854 349.276 246.318C345.529 239.967 338.359 233.155 324.69 229.089C324.69 229.089 336.997 239.378 344.204 251.863C326.08 252.365 306.412 253.422 285.209 255.206C282.748 255.134 280.245 255.073 277.702 255.021L280.469 248.431L281.54 246.356C281.481 246.337 281.419 246.324 281.357 246.317L283.615 240.941L276.281 248.461C274.633 249.46 272.98 250.597 271.86 251.393C271.741 250.688 271.573 249.738 271.357 248.6L278.458 218.147C273.884 218.699 270.307 225.876 267.741 233.698C265.147 225.281 261.399 217.135 256.514 216.546L263.955 248.458C263.834 249.06 263.723 249.628 263.623 250.157C261.336 248.509 255.25 244.289 253.501 244.74L251.357 242.542L256.531 254.862C254.049 254.874 251.535 254.895 248.989 254.927C248.566 254.88 248.144 254.833 247.722 254.786L251.457 245.891L243.254 254.303C241.918 254.161 240.588 254.021 239.262 253.884C237.556 244.772 232.558 222.486 224.356 221.497L231.733 253.133C230.512 253.016 229.297 252.9 228.087 252.788C225.452 251.074 222.37 249.324 221.274 249.705L222.606 252.288C189.76 249.378 160.519 248.211 134.9 248.155L140.109 238.056C138.057 237.343 129.041 244.1 129.041 244.1L137.028 209.847C130.609 210.622 126.153 224.438 123.701 234.778C121.395 229.418 118.521 225.261 115.083 224.846L119.583 244.144L109.926 234.242L115.84 248.322C87.1453 248.896 63.7454 250.855 45.6842 253.088C50.953 237.354 68.8514 222.391 68.8514 222.391C55.1824 226.456 48.0124 233.268 44.2658 239.619C43.931 207.156 49.329 174.888 60.2114 144.301C60.2114 144.301 31.9582 205.782 35.5633 247.051L35.9944 254.379C12.0422 257.809 0 261.377 0 261.377L117.051 262.844L118.088 264.854C102.692 266.897 86.6585 269.323 69.9865 272.132L393.542 268.076C393.542 268.076 391.016 267.328 385.993 266.191L502.814 264.726Z"
    fill="#0F1B2E" />
  <path d="M92.623 287.451C92.623 287.451 169.658 276.147 217.386 287.451H92.623Z" fill="#0F1B2E" />
  <path d="M387.367 277.793C387.367 277.793 432.994 266.222 461.262 277.793H387.367Z" fill="#0F1B2E" />
  <path
    d="M317.325 216.252C317.126 216.252 316.926 216.246 316.726 216.233L309.587 215.764L239.623 211.18C238.46 211.105 237.333 210.75 236.336 210.146C235.34 209.542 234.504 208.706 233.9 207.709C232.92 206.117 232.597 204.205 232.999 202.379L269.495 35.112C270.063 32.5603 271.482 30.2776 273.518 28.6378C275.554 26.998 278.087 26.0986 280.701 26.0869H349.56C350.758 26.0874 351.941 26.3507 353.026 26.8584C354.112 27.366 355.072 28.1056 355.841 29.0249C356.609 29.9442 357.166 31.021 357.473 32.1791C357.78 33.3372 357.829 34.5486 357.617 35.7277L326.476 208.609C326.189 210.197 325.494 211.683 324.46 212.922L324.373 213.131L324.283 213.131C323.519 213.991 322.602 214.702 321.58 215.228L321.529 215.252C320.226 215.911 318.786 216.253 317.325 216.252ZM280.701 26.9243C278.278 26.9351 275.93 27.7689 274.042 29.2889C272.155 30.809 270.84 32.9251 270.313 35.2905L233.817 202.557C233.484 204.105 233.731 205.721 234.512 207.099C235.294 208.476 236.554 209.518 238.054 210.026C238.58 210.201 239.126 210.308 239.68 210.344L316.78 215.397C318.288 215.496 319.794 215.189 321.143 214.508L321.191 214.486C322.115 214.011 322.945 213.371 323.637 212.597L323.774 212.437C324.739 211.3 325.387 209.928 325.652 208.46L356.792 35.5793L357.204 35.6535L356.792 35.5793C356.983 34.5208 356.939 33.4333 356.663 32.3937C356.388 31.354 355.888 30.3874 355.198 29.5621C354.508 28.7368 353.646 28.0728 352.672 27.617C351.698 27.1613 350.635 26.9248 349.56 26.9243H280.701Z"
    fill="#0F1B2E" />
  <path
    d="M242.628 196.681C242.628 196.681 229.489 212.003 232.251 213.004C235.012 214.004 247.905 203.056 247.076 199.185L242.628 196.681Z"
    fill="#FFB9B9" />
  <path
    d="M319.958 210.88C319.958 210.88 327.091 229.762 324.154 229.762C321.217 229.762 312.825 215.076 314.923 211.719L319.958 210.88Z"
    fill="#FFB9B9" />
  <path
    d="M324.397 96.5916C323.219 94.9261 321.771 93.4706 320.528 91.8531C317.662 88.1239 316.671 83.1548 312.826 80.295C309.021 77.4652 302.983 74.68 298.221 74.9032C291.946 75.1973 286.968 80.0654 282.642 84.6207C279.336 88.1019 276.031 91.583 272.725 95.0641C270.333 97.5824 267.853 100.256 266.992 103.62C266.163 106.854 266.972 110.327 268.488 113.301C270.064 116.317 272.275 118.956 274.968 121.036C278.288 116.465 282.939 110.153 282.939 110.153L284.021 125.853C289.646 127.717 295.687 128.083 301.614 127.671L303.37 121.234L305.212 127.315C312.295 126.376 319.411 123.93 323.795 118.403C328.643 112.293 328.9 102.96 324.397 96.5916Z"
    fill="#2F2E41" />
  <path
    d="M297.302 110.598C304.486 110.598 310.31 104.774 310.31 97.5904C310.31 90.4066 304.486 84.583 297.302 84.583C290.119 84.583 284.295 90.4066 284.295 97.5904C284.295 104.774 290.119 110.598 297.302 110.598Z"
    fill="#FFB9B9" />
  <path
    d="M288.909 103.883C288.909 103.883 289.749 113.953 284.294 114.792C278.839 115.631 272.965 114.792 272.965 118.149C272.965 121.506 277.161 152.136 277.161 152.136L287.651 151.297L302.336 137.031L310.309 121.506C310.309 121.506 300.658 117.31 304.854 104.722L288.909 103.883Z"
    fill="#FFB9B9" />
  <path
    d="M288.271 130.737L281.357 120.247C281.357 120.247 288.472 118.149 288.271 110.597L281.357 113.534L265.412 116.051V130.737C265.412 130.737 259.958 139.549 266.251 148.36L269.189 166.822L299.399 164.724L309.05 152.136L321.218 128.22L308.63 118.989L310.309 116.471L303.888 112.284L304.854 120.247L301.917 125.282C301.917 125.282 301.917 130.737 288.271 130.737Z"
    fill="white" />
  <path
    d="M267.929 116.891L265.412 116.052C265.412 116.052 260.377 118.15 260.377 124.863C260.377 131.577 240.236 197.872 240.236 197.872L249.467 200.39L262.055 169.76L269.608 144.164L267.929 116.891Z"
    fill="white" />
  <path
    d="M317.862 128.22H321.219C321.219 128.22 323.317 126.542 322.897 138.71C322.478 150.878 324.156 215.076 324.156 215.076L311.988 214.237L309.051 145.004L317.862 128.22Z"
    fill="white" />
  <path
    d="M309.616 215.346L286.685 213.843L281.113 213.478L268.423 212.645C268.23 211.963 268.063 211.373 267.929 210.878C263.734 195.354 268.352 173.537 268.352 173.537C268.352 173.537 267.51 171.44 268.352 170.18C269.189 168.919 268.77 169.342 267.091 167.663C265.413 165.985 267.091 167.663 267.929 165.566C268.77 163.464 267.929 165.566 267.929 163.887C267.972 162.972 267.674 162.074 267.091 161.367C267.437 161.095 267.814 160.864 268.213 160.68C276.198 156.853 301.824 161.564 301.824 161.564C301.824 161.564 301.807 161.584 301.778 161.626C301.577 161.919 300.815 163.2 301.916 164.306C303.177 165.566 301.079 165.566 300.66 166.822C300.237 168.082 300.66 166.822 301.079 168.082C301.498 169.342 300.237 171.017 300.237 171.017C311.039 180.094 311.609 199.072 309.616 215.346Z"
    fill="#2F2E41" />
  <path d="M286.686 213.843L281.113 213.479C282.059 209.179 282.616 206.684 282.616 206.684L286.686 213.843Z"
    fill="#2F2E41" />
  <path
    d="M283.246 88.149C283.246 88.149 293.736 100.737 314.716 93.6037L308.841 83.1139L294.995 78.918L283.246 88.149Z"
    fill="#2F2E41" />
  <path
    d="M186.292 273.275C186.292 273.275 192.22 278.267 195.34 277.955C198.46 277.643 204.388 277.643 201.892 281.075C199.396 284.507 189.1 286.379 184.732 286.691C180.364 287.003 170.692 287.315 171.316 285.443C171.94 283.571 172.564 274.835 175.06 274.211C177.556 273.587 186.292 273.275 186.292 273.275Z"
    fill="#575A89" />
  <path
    d="M152.269 268.372C152.269 268.372 156.637 274.774 159.726 275.312C162.815 275.85 168.525 277.443 165.199 280.078C161.872 282.713 151.452 281.749 147.161 280.875C142.87 280.002 133.47 277.703 134.574 276.068C135.678 274.432 138.627 266.186 141.199 266.255C143.771 266.325 152.269 268.372 152.269 268.372Z"
    fill="#575A89" />
  <path
    d="M189.768 176.823C189.768 176.823 193.783 204.323 192.847 209.315C191.911 214.307 191.287 222.107 191.287 222.107C191.287 222.107 191.911 228.659 191.287 231.779C190.663 234.899 186.919 264.538 186.919 265.162C186.919 265.786 187.543 267.658 186.919 269.218C186.295 270.778 185.047 269.53 186.919 272.026C188.791 274.522 187.543 275.146 187.231 275.146C186.919 275.146 174.751 276.394 174.127 275.146C173.503 273.898 174.439 273.586 174.127 272.026C173.815 270.466 173.503 270.154 172.879 269.842C172.255 269.53 171.007 270.154 171.943 268.594C172.879 267.034 175.063 265.162 174.439 264.226C173.815 263.29 174.751 256.427 174.751 256.427C174.751 256.427 175.375 241.139 175.687 231.779C175.999 222.419 172.879 212.747 172.879 212.747C172.491 220.405 169.646 227.735 164.767 233.651C156.655 243.323 152.599 261.419 152.599 261.419C152.599 261.419 150.727 264.227 151.663 266.722C152.599 269.218 155.407 267.658 152.599 269.218C149.791 270.778 140.119 268.594 139.183 267.658C138.247 266.722 140.431 265.474 139.807 262.979C139.183 260.483 136.687 261.107 138.871 259.859C141.055 258.611 141.679 258.923 141.679 257.675C141.679 256.427 147.295 229.283 156.031 221.483L156.655 193.091C156.655 193.091 148.855 173.123 156.967 171.251C165.079 169.379 189.768 176.823 189.768 176.823Z"
    fill="#2F2E41" />
  <path
    d="M184.109 102.922C184.109 102.922 178.806 116.026 180.054 117.898C181.302 119.77 164.766 111.658 164.766 111.658C164.766 111.658 170.07 98.554 170.07 96.9941C170.07 95.4341 184.109 102.922 184.109 102.922Z"
    fill="#FFB9B9" />
  <path
    d="M180.21 106.199C186.585 106.199 191.754 101.031 191.754 94.6552C191.754 88.2797 186.585 83.1113 180.21 83.1113C173.834 83.1113 168.666 88.2797 168.666 94.6552C168.666 101.031 173.834 106.199 180.21 106.199Z"
    fill="#FFB9B9" />
  <path
    d="M164.765 106.357C164.765 106.357 172.877 105.421 176.933 110.413C180.989 115.405 181.613 116.653 181.613 116.653C181.613 116.653 191.285 132.253 189.413 140.053C188.956 140.757 188.54 141.486 188.165 142.237C187.541 143.485 187.541 160.957 188.165 163.765C188.789 166.573 189.413 167.509 188.789 171.565C188.165 175.621 193.781 182.173 187.229 183.421C180.677 184.669 175.685 183.733 173.501 180.925C171.317 178.117 173.189 176.245 166.325 176.245C159.461 176.245 155.093 171.565 155.093 171.565C155.093 171.565 158.525 167.821 157.277 167.197C156.029 166.573 157.277 165.013 157.901 163.453C158.525 161.893 158.525 160.645 157.589 160.645C156.653 160.645 157.277 160.021 157.901 158.461C158.525 156.901 146.981 130.069 153.845 122.269C160.709 114.469 164.141 110.101 164.141 110.101C164.141 110.101 162.893 105.421 164.765 106.357Z"
    fill="#2F2E41" />
  <path
    d="M182.551 135.998V149.726L192.535 182.798C192.535 182.798 199.087 199.958 192.535 199.958C185.983 199.958 186.334 183.579 186.334 183.579L172.255 158.774C172.255 158.774 166.639 139.118 167.263 137.558C167.887 135.998 182.551 135.998 182.551 135.998Z"
    fill="#FFB9B9" />
  <path
    d="M177.246 115.715C177.246 115.715 186.606 119.459 184.11 129.443C181.614 139.427 184.11 139.115 184.11 139.115C184.11 139.115 171.318 137.867 167.262 140.675L166.326 136.931C166.326 136.931 162.582 115.403 177.246 115.715Z"
    fill="#2F2E41" />
  <path
    d="M184.151 85.9918C184.872 86.2474 185.644 86.3197 186.4 86.2021C187.155 86.0846 187.869 85.7809 188.478 85.3185C189.654 84.3495 190.153 82.5617 189.461 81.204C188.863 80.0316 187.586 79.3883 186.36 78.9086C183.657 77.8514 180.81 77.2085 177.915 77.0018C176.535 76.9036 175.086 76.9192 173.854 77.5497C173.245 77.8617 172.715 78.3119 172.112 78.6351C171.002 79.2293 169.71 79.3614 168.511 79.7438C167.284 80.1441 166.157 80.8033 165.207 81.6767C164.257 82.5502 163.505 83.6175 163.003 84.8065C162.677 85.614 162.45 86.4578 162.325 87.3197C161.966 89.6794 162.217 92.0917 163.053 94.3273C164.383 97.8683 167.172 100.964 167.33 104.743C169.037 103.505 169.67 101.269 171.038 99.6636C172.056 98.4769 173.446 97.6706 174.982 97.3762C175.407 97.3503 175.815 97.2014 176.157 96.9476C176.395 96.6631 176.545 96.3148 176.587 95.9461L177.755 90.4305C177.993 89.308 178.293 88.0842 179.216 87.4021C179.79 87.0346 180.442 86.805 181.12 86.7313C182.731 86.4497 184.362 86.301 185.997 86.2866"
    fill="#2F2E41" />
</svg>