<svg width="16" height="16" viewBox="0 0 16 16" fill="none" xmlns="http://www.w3.org/2000/svg">
  <path
    d="M6.26107 9.71332C6.26107 10.3612 5.79107 10.566 5.21364 10.566H3.69957V8.7901H5.24386C5.86829 8.79346 6.26107 9.05196 6.26107 9.71332ZM6.00257 6.95039C6.00257 6.35617 5.54264 6.21517 5.03236 6.21517H3.70293V7.71917H5.13643C5.64336 7.71917 6.00257 7.4976 6.00257 6.95039ZM10.4441 7.72924C9.82971 7.72924 9.42014 8.11196 9.37986 8.72632H11.468C11.4109 8.10524 11.0886 7.72924 10.4441 7.72924ZM15.04 2.5626V14.3797C15.04 15.2694 14.3182 15.9912 13.4286 15.9912H1.61143C0.721786 15.9912 0 15.2694 0 14.3797V2.5626C0 1.67296 0.721786 0.951172 1.61143 0.951172H13.4286C14.3182 0.951172 15.04 1.67296 15.04 2.5626ZM9.12136 6.0876H11.7332V5.4531H9.12136V6.0876ZM7.67779 9.79053C7.67779 8.98146 7.29507 8.28317 6.50279 8.05824C7.08021 7.78296 7.38236 7.46403 7.38236 6.8161C7.38236 5.53367 6.42557 5.22146 5.32107 5.22146H2.28286V11.6672H5.40836C6.58 11.6605 7.67779 11.0998 7.67779 9.79053ZM12.7571 9.29367C12.7571 7.91389 11.9481 6.76239 10.4877 6.76239C9.06429 6.76239 8.10079 7.82996 8.10079 9.23324C8.10079 10.6869 9.01729 11.684 10.4877 11.684C11.6023 11.684 12.3241 11.1837 12.6732 10.1128H11.5419C11.4176 10.5123 10.9174 10.7205 10.528 10.7205C9.776 10.7205 9.38321 10.2807 9.38321 9.53539H12.7471C12.7504 9.45817 12.7571 9.37424 12.7571 9.29367Z"
    fill="white" />
</svg>