<svg width="16" height="16" viewBox="0 0 16 16" fill="none" xmlns="http://www.w3.org/2000/svg">
  <path
    d="M14.2863 0.451172H2.51701C2.09136 0.451172 1.68315 0.62097 1.38217 0.923212C1.0812 1.22545 0.912109 1.63538 0.912109 2.06282L0.912109 13.8815C0.912109 14.309 1.0812 14.7189 1.38217 15.0211C1.68315 15.3234 2.09136 15.4932 2.51701 15.4932H7.10603V10.3792H4.99959V7.97218H7.10603V6.13759C7.10603 4.05085 8.34314 2.89819 10.2379 2.89819C11.1454 2.89819 12.0943 3.06069 12.0943 3.06069V5.10882H11.0487C10.0186 5.10882 9.69727 5.7508 9.69727 6.40922V7.97218H11.997L11.6292 10.3792H9.69727V15.4932H14.2863C14.7119 15.4932 15.1201 15.3234 15.4211 15.0211C15.7221 14.7189 15.8912 14.309 15.8912 13.8815V2.06282C15.8912 1.63538 15.7221 1.22545 15.4211 0.923212C15.1201 0.62097 14.7119 0.451172 14.2863 0.451172Z"
    fill="#EBEBEB" />
</svg>