<svg width="16" height="16" viewBox="0 0 16 16" fill="none" xmlns="http://www.w3.org/2000/svg">
  <path
    d="M8.45019 4.1156C6.32489 4.1156 4.6106 5.83747 4.6106 7.97218C4.6106 10.1069 6.32489 11.8288 8.45019 11.8288C10.5755 11.8288 12.2898 10.1069 12.2898 7.97218C12.2898 5.83747 10.5755 4.1156 8.45019 4.1156ZM8.45019 10.4795C7.07676 10.4795 5.95396 9.35505 5.95396 7.97218C5.95396 6.58932 7.07342 5.4649 8.45019 5.4649C9.82697 5.4649 10.9464 6.58932 10.9464 7.97218C10.9464 9.35505 9.82363 10.4795 8.45019 10.4795ZM13.3424 3.95784C13.3424 4.45796 12.9414 4.85738 12.4468 4.85738C11.9489 4.85738 11.5513 4.4546 11.5513 3.95784C11.5513 3.46109 11.9523 3.05831 12.4468 3.05831C12.9414 3.05831 13.3424 3.46109 13.3424 3.95784ZM15.8854 4.8708C15.8286 3.66583 15.5546 2.59847 14.6757 1.71908C13.8002 0.839683 12.7376 0.564453 11.5379 0.504036C10.3015 0.43355 6.59556 0.43355 5.35914 0.504036C4.16282 0.561096 3.10017 0.836327 2.2213 1.71572C1.34244 2.59512 1.07177 3.66247 1.01162 4.86745C0.941441 6.10934 0.941441 9.83166 1.01162 11.0736C1.06842 12.2785 1.34244 13.3459 2.2213 14.2253C3.10017 15.1047 4.15948 15.3799 5.35914 15.4403C6.59556 15.5108 10.3015 15.5108 11.5379 15.4403C12.7376 15.3833 13.8002 15.108 14.6757 14.2253C15.5513 13.3459 15.8253 12.2785 15.8854 11.0736C15.9556 9.83166 15.9556 6.1127 15.8854 4.8708ZM14.2881 12.4061C14.0275 13.0639 13.5229 13.5708 12.8646 13.8359C11.8788 14.2286 9.53958 14.138 8.45019 14.138C7.36081 14.138 5.01829 14.2253 4.03584 13.8359C3.38087 13.5741 2.87627 13.0673 2.61228 12.4061C2.2213 11.4159 2.31153 9.06639 2.31153 7.97218C2.31153 6.87797 2.22465 4.52509 2.61228 3.53828C2.87293 2.88042 3.37752 2.37359 4.03584 2.10843C5.02163 1.71572 7.36081 1.80635 8.45019 1.80635C9.53958 1.80635 11.8821 1.71908 12.8646 2.10843C13.5195 2.37023 14.0241 2.87706 14.2881 3.53828C14.6791 4.52844 14.5889 6.87797 14.5889 7.97218C14.5889 9.06639 14.6791 11.4193 14.2881 12.4061Z"
    fill="#EBEBEB" />
</svg>