<svg width="15" height="16" viewBox="0 0 15 16" fill="none" xmlns="http://www.w3.org/2000/svg">
  <path
    d="M13.9091 0.451172H1.06659C0.478127 0.451172 0 0.938023 0 1.53567V14.4087C0 15.0063 0.478127 15.4932 1.06659 15.4932H13.9091C14.4976 15.4932 14.9791 15.0063 14.9791 14.4087V1.53567C14.9791 0.938023 14.4976 0.451172 13.9091 0.451172ZM4.52716 13.3443H2.30705V6.16579H4.5305V13.3443H4.52716ZM3.4171 5.18538C2.70493 5.18538 2.12984 4.60451 2.12984 3.8927C2.12984 3.18089 2.70493 2.60003 3.4171 2.60003C4.12593 2.60003 4.70437 3.18089 4.70437 3.8927C4.70437 4.60787 4.12928 5.18538 3.4171 5.18538ZM12.8492 13.3443H10.6291V9.85243C10.6291 9.01975 10.6124 7.94868 9.47561 7.94868C8.31874 7.94868 8.14153 8.85523 8.14153 9.792V13.3443H5.92142V6.16579H8.05126V7.14621H8.08135C8.37892 6.58214 9.10447 5.98784 10.1844 5.98784C12.4313 5.98784 12.8492 7.47526 12.8492 9.40923V13.3443Z"
    fill="#EBEBEB" />
</svg>