<svg width="16" height="16" viewBox="0 0 16 16" fill="none" xmlns="http://www.w3.org/2000/svg">
  <path
    d="M13.4286 0.951172H1.61143C0.721786 0.951172 0 1.67296 0 2.5626V14.3797C0 15.2694 0.721786 15.9912 1.61143 15.9912H13.4286C14.3182 15.9912 15.04 15.2694 15.04 14.3797V2.5626C15.04 1.67296 14.3182 0.951172 13.4286 0.951172ZM11.7869 6.28231C11.7936 6.37632 11.7936 6.47367 11.7936 6.56767C11.7936 9.47832 9.57793 12.8321 5.52921 12.8321C4.28036 12.8321 3.12214 12.4695 2.14857 11.8451C2.3265 11.8652 2.49771 11.872 2.679 11.872C3.70964 11.872 4.65636 11.5228 5.41171 10.932C4.44486 10.9118 3.63243 10.2773 3.35379 9.40446C3.69286 9.45481 3.99836 9.45481 4.3475 9.36417C3.34036 9.15939 2.585 8.2731 2.585 7.20217V7.17531C2.87707 7.33981 3.2195 7.44053 3.57871 7.45396C3.27672 7.25308 3.02914 6.98056 2.85809 6.66072C2.68704 6.34088 2.59783 5.98366 2.59843 5.62096C2.59843 5.21139 2.70586 4.83539 2.89721 4.50974C3.98157 5.84589 5.60979 6.71874 7.43607 6.81274C7.12386 5.31882 8.24179 4.10689 9.58464 4.10689C10.2191 4.10689 10.7899 4.3721 11.1927 4.80181C11.6896 4.70781 12.1663 4.52317 12.5893 4.27139C12.4248 4.78167 12.079 5.21139 11.6224 5.48331C12.0656 5.43632 12.4953 5.3121 12.8914 5.14089C12.5926 5.58067 12.2166 5.9701 11.7869 6.28231Z"
    fill="white" />
</svg>