<svg width="33" height="53" viewBox="0 0 33 53" fill="none" xmlns="http://www.w3.org/2000/svg">
  <g clip-path="url(#clip0)">
    <path
      d="M4.03261 0C1.82843 0 0 1.82844 0 4.03261V48.9674C0 51.1716 1.82843 53 4.03261 53H28.2283C30.4324 53 32.2609 51.1716 32.2609 48.9674V4.03261C32.2609 1.82844 30.4324 0 28.2283 0H4.03261ZM4.03261 3.45652H28.2283C28.5773 3.45652 28.8043 3.68356 28.8043 4.03261V5.76087H3.45652V4.03261C3.45652 3.68356 3.68356 3.45652 4.03261 3.45652ZM3.45652 9.21739H28.8043V41.4783H3.45652V9.21739ZM15.9144 13.844C15.6855 13.8782 15.4637 13.9584 15.2663 14.0781L7.20109 18.6868C6.67468 18.9814 6.32621 19.5646 6.31895 20.163V29.3804C6.32621 29.9789 6.67468 30.5621 7.20109 30.8566L15.2663 35.4653C15.4904 35.5968 15.7448 35.6775 16.0044 35.6994C16.3481 35.7207 16.6977 35.6382 16.9946 35.4653L25.0598 30.8566C25.5862 30.5621 25.9347 29.9789 25.9419 29.3804V20.163C25.9347 19.5646 25.5862 18.9814 25.0598 18.6868L16.9946 14.0781C16.6727 13.8874 16.2873 13.8039 15.9144 13.844ZM16.1304 17.5346L20.7211 20.145L16.1304 22.7734L11.5397 20.145L16.1304 17.5346ZM9.79348 23.1334L14.4022 25.7799V31.0186L9.79348 28.4083V23.1334ZM22.4674 23.1334V28.4083L17.8587 31.0186V25.7799L22.4674 23.1334ZM3.45652 44.9348H28.8043V48.9674C28.8043 49.3164 28.5773 49.5435 28.2283 49.5435H4.03261C3.68356 49.5435 3.45652 49.3164 3.45652 48.9674V44.9348ZM16.1304 45.5109C15.176 45.5109 14.4022 46.2846 14.4022 47.2391C14.4022 48.1936 15.176 48.9674 16.1304 48.9674C17.085 48.9674 17.8587 48.1936 17.8587 47.2391C17.8587 46.2846 17.085 45.5109 16.1304 45.5109Z"
      fill="#9AC5FE" />
  </g>
  <defs>
    <clipPath id="clip0">
      <rect width="32.2609" height="53" fill="white" />
    </clipPath>
  </defs>
</svg>