<svg width="50" height="53" viewBox="0 0 50 53" fill="none" xmlns="http://www.w3.org/2000/svg">
  <g clip-path="url(#clip0)">
    <path
      d="M47.7 16.854C47.6542 17.0543 47.5658 17.2424 47.4408 17.4055C47.3158 17.5686 47.1572 17.7029 46.9757 17.7992C46.0923 18.2585 44.5112 17.9493 42.559 16.9158C39.4143 15.3258 36.9675 15.0432 35.2715 16.0325C34.6705 16.4485 34.1715 16.9953 33.812 17.6317C33.4525 18.2681 33.2418 18.9777 33.1957 19.7072L30.0333 24.7333V0.883333C30.0333 0.649059 29.9403 0.424379 29.7746 0.258722C29.609 0.0930652 29.3843 0 29.15 0H0.883333C0.649059 0 0.42438 0.0930652 0.258723 0.258722C0.0930654 0.424379 0 0.649059 0 0.883333V52.1167C0 52.3509 0.0930654 52.5756 0.258723 52.7413C0.42438 52.9069 0.649059 53 0.883333 53H29.15C29.2377 52.996 29.3241 52.9781 29.4062 52.947L39.4938 53.0353C39.7281 53.0353 39.9528 52.9423 40.1184 52.7766C40.2841 52.611 40.3772 52.3863 40.3772 52.152L40.5008 39.2112C40.5364 38.384 40.8037 37.5836 41.2722 36.901C41.7408 36.2185 42.3917 35.6814 43.1508 35.351C43.2597 35.2958 43.3559 35.2186 43.4335 35.1244C43.511 35.0301 43.5682 34.9208 43.6013 34.8033C43.6352 34.6872 43.6448 34.5653 43.6296 34.4452C43.6144 34.3252 43.5747 34.2096 43.513 34.1055L34.9182 19.8397C34.9469 19.3988 35.0716 18.9695 35.2837 18.5819C35.4958 18.1943 35.7901 17.8578 36.146 17.596C37.2767 16.9158 39.2023 17.2338 41.711 18.4793C44.2197 19.7248 46.3485 20.087 47.7883 19.3627C48.2213 19.1378 48.5975 18.8173 48.8882 18.4255C49.179 18.0337 49.3768 17.5809 49.4667 17.1013L47.7 16.854ZM35.033 33.2752C35.031 33.4237 35.001 33.5705 34.9447 33.708C34.8552 33.9093 34.7089 34.08 34.5237 34.1993C34.3386 34.3185 34.1226 34.3811 33.9023 34.3793C33.7525 34.3813 33.6039 34.3526 33.4656 34.2948C33.3274 34.2371 33.2024 34.1516 33.0985 34.0437C32.994 33.9394 32.9114 33.8155 32.8552 33.679C32.7991 33.5425 32.7707 33.3962 32.7717 33.2487C32.774 33.1025 32.805 32.9582 32.8631 32.8241C32.9212 32.6899 33.0051 32.5685 33.1101 32.4668C33.2151 32.3651 33.3391 32.285 33.475 32.2313C33.611 32.1775 33.7562 32.151 33.9023 32.1533C34.0513 32.1517 34.1991 32.1798 34.3371 32.2359C34.4751 32.292 34.6006 32.375 34.7062 32.4802C34.9139 32.6929 35.0311 32.9778 35.033 33.2752ZM24.1592 34.6267C24.1933 34.7449 24.2519 34.8547 24.331 34.949C24.4101 35.0433 24.508 35.1201 24.6185 35.1743C25.3881 35.5076 26.0487 36.0502 26.525 36.7405C27.0013 37.4308 27.2742 38.2409 27.3127 39.0787L27.2597 45.05H1.76667V24.7333H28.2667V27.5423L26.7032 30.0333H3.53333V31.8H25.6167L24.274 33.9288C24.2078 34.031 24.1635 34.1457 24.1437 34.2658C24.1239 34.3858 24.1292 34.5087 24.1592 34.6267ZM28.2667 22.9667H4.6905L14.8223 16.218L16.9688 19.08C17.0998 19.2565 17.2918 19.3778 17.5074 19.4202C17.723 19.4627 17.9467 19.4233 18.1348 19.3097L28.2667 13.0468V22.9667ZM28.2667 10.9975L17.8963 17.3663L15.7322 14.469C15.5965 14.2898 15.3977 14.169 15.1762 14.1313C14.9546 14.0935 14.727 14.1416 14.5397 14.2658L1.76667 22.7723V7.06667H28.2667V10.9975ZM28.2667 1.76667V5.3H1.76667V1.76667H28.2667ZM1.76667 46.8167H27.242V51.2333H1.76667V46.8167ZM28.9733 51.1538L29.044 43.2833L38.7077 43.3628L38.637 51.2333L28.9733 51.1538ZM38.7518 39.1847V41.6315L29.0617 41.5167V39.0522C29.0534 38.0452 28.7887 37.057 28.2926 36.1806C27.7965 35.3043 27.0853 34.5689 26.2262 34.0437L33.0897 23.1168L33.019 30.4927C32.3558 30.6935 31.7876 31.1274 31.4193 31.7144C31.051 32.3013 30.9074 33.0017 31.015 33.6862C31.1226 34.3707 31.4742 34.9932 32.0049 35.4388C32.5356 35.8844 33.2095 36.1231 33.9023 36.1107C34.2871 36.1109 34.6682 36.0359 35.0242 35.8898C35.546 35.6699 35.9916 35.3015 36.3057 34.8303C36.6198 34.3592 36.7885 33.8061 36.7908 33.2398C36.7946 32.8617 36.7231 32.4865 36.5805 32.1362C36.438 31.7859 36.2272 31.4674 35.9605 31.1993C35.6336 30.8744 35.2338 30.6321 34.7945 30.4927L34.8652 23.1345L41.5167 34.238C40.6849 34.7719 39.9975 35.5026 39.5153 36.3654C39.033 37.2281 38.7708 38.1964 38.7518 39.1847Z"
      fill="#9AC5FE" />
    <path d="M19.4427 48.5654H10.6094V50.3321H19.4427V48.5654Z" fill="#9AC5FE" />
    <path
      d="M9.71693 15.0169C10.4158 15.0169 11.0989 14.8096 11.6799 14.4214C12.261 14.0331 12.7139 13.4813 12.9813 12.8357C13.2487 12.19 13.3187 11.4796 13.1824 10.7942C13.046 10.1088 12.7095 9.47923 12.2154 8.98509C11.7212 8.49094 11.0916 8.15442 10.4062 8.01809C9.72085 7.88175 9.01041 7.95173 8.36478 8.21916C7.71915 8.48659 7.16732 8.93946 6.77907 9.52052C6.39082 10.1016 6.18359 10.7847 6.18359 11.4835C6.18359 12.4206 6.55585 13.3193 7.21848 13.982C7.88111 14.6446 8.77983 15.0169 9.71693 15.0169ZM9.71693 9.71686C10.0663 9.71686 10.4079 9.82048 10.6984 10.0146C10.989 10.2087 11.2154 10.4846 11.3491 10.8075C11.4828 11.1303 11.5178 11.4855 11.4496 11.8282C11.3815 12.1709 11.2132 12.4857 10.9661 12.7328C10.7191 12.9798 10.4043 13.1481 10.0616 13.2163C9.71889 13.2844 9.36367 13.2494 9.04085 13.1157C8.71804 12.982 8.44212 12.7556 8.248 12.465C8.05387 12.1745 7.95026 11.8329 7.95026 11.4835C7.95026 11.015 8.13639 10.5656 8.46771 10.2343C8.79902 9.90299 9.24838 9.71686 9.71693 9.71686Z"
      fill="#9AC5FE" />
    <path
      d="M3.5332 37.9829V43.2829C3.5332 43.5172 3.62627 43.7419 3.79193 43.9076C3.95758 44.0732 4.18226 44.1663 4.41654 44.1663H25.6165C25.8508 44.1663 26.0755 44.0732 26.2411 43.9076C26.4068 43.7419 26.4999 43.5172 26.4999 43.2829V37.9829C26.4999 37.7487 26.4068 37.524 26.2411 37.3583C26.0755 37.1927 25.8508 37.0996 25.6165 37.0996H4.41654C4.18226 37.0996 3.95758 37.1927 3.79193 37.3583C3.62627 37.524 3.5332 37.7487 3.5332 37.9829ZM5.29987 38.8663H24.7332V42.3996H5.29987V38.8663Z"
      fill="#9AC5FE" />
    <path d="M15.0263 26.4824H3.54297V28.2491H15.0263V26.4824Z" fill="#9AC5FE" />
    <path d="M22.093 33.5488H3.54297V35.3155H22.093V33.5488Z" fill="#9AC5FE" />
  </g>
  <defs>
    <clipPath id="clip0">
      <rect width="49.4667" height="53" fill="white" />
    </clipPath>
  </defs>
</svg>