<svg width="74" height="53" viewBox="0 0 74 53" fill="none" xmlns="http://www.w3.org/2000/svg">
  <g clip-path="url(#clip0)">
    <path d="M20.9544 20.9531H9.86133V23.4182H20.9544V20.9531Z" fill="#9AC5FE" />
    <path d="M64.0939 24.6514H9.86133V27.1165H64.0939V24.6514Z" fill="#9AC5FE" />
    <path d="M20.9544 29.5811H9.86133V32.0462H20.9544V29.5811Z" fill="#9AC5FE" />
    <path d="M64.0939 33.2793H9.86133V35.7444H64.0939V33.2793Z" fill="#9AC5FE" />
    <path
      d="M47.4555 18.488C47.8252 18.488 48.195 18.3648 48.5648 18.2415L50.9066 20.5834L52.6322 18.8578L50.2903 16.5159C50.9066 14.9136 50.1671 13.188 48.5648 12.5717C46.9624 11.9555 45.2369 12.695 44.6206 14.2973C44.0043 15.8997 44.7438 17.6252 46.3462 18.2415C46.7159 18.3648 47.0857 18.488 47.4555 18.488ZM47.4555 14.7903C47.8252 14.7903 48.0717 15.0369 48.0717 15.4066C48.0717 15.7764 47.8252 16.0229 47.4555 16.0229C47.0857 16.0229 46.8392 15.7764 46.8392 15.4066C46.8392 15.0369 47.0857 14.7903 47.4555 14.7903Z"
      fill="#9AC5FE" />
    <path
      d="M41.9078 12.3252H9.86133V19.7205H41.9078V12.3252ZM12.3264 14.7903H33.2799V17.2554H12.3264V14.7903ZM39.4427 17.2554H35.745V14.7903H39.4427V17.2554Z"
      fill="#9AC5FE" />
    <path
      d="M69.0233 3.69767C69.0233 1.60233 67.4209 0 65.3256 0H8.62791C6.53256 0 4.93023 1.60233 4.93023 3.69767V45.6047H0V49.3023C0 51.3977 1.60233 53 3.69767 53H70.2558C72.3512 53 73.9535 51.3977 73.9535 49.3023V45.6047H69.0233V3.69767ZM8.62791 2.46512H65.3256C66.0651 2.46512 66.5581 2.95814 66.5581 3.69767V7.39535H7.39535V3.69767C7.39535 2.95814 7.88837 2.46512 8.62791 2.46512ZM7.39535 9.86047H66.5581V45.6047H7.39535V9.86047ZM71.4884 49.3023C71.4884 50.0419 70.9953 50.5349 70.2558 50.5349H3.69767C2.95814 50.5349 2.46512 50.0419 2.46512 49.3023V48.0698H71.4884V49.3023Z"
      fill="#9AC5FE" />
    <path d="M12.3264 3.69727H9.86133V6.16238H12.3264V3.69727Z" fill="#9AC5FE" />
    <path d="M17.2561 3.69727H14.791V6.16238H17.2561V3.69727Z" fill="#9AC5FE" />
    <path d="M22.1858 3.69727H19.7207V6.16238H22.1858V3.69727Z" fill="#9AC5FE" />
    <path d="M64.0923 3.69727H24.6504V6.16238H64.0923V3.69727Z" fill="#9AC5FE" />
    <path d="M20.9544 38.209H9.86133V40.6741H20.9544V38.209Z" fill="#9AC5FE" />
    <path d="M64.0939 41.9072H9.86133V44.3723H64.0939V41.9072Z" fill="#9AC5FE" />
  </g>
  <defs>
    <clipPath id="clip0">
      <rect width="73.9535" height="53" fill="white" />
    </clipPath>
  </defs>
</svg>