<svg width="69" height="42" viewBox="0 0 69 42" fill="none" xmlns="http://www.w3.org/2000/svg">
  <g clip-path="url(#clip0)">
    <path
      d="M69.2064 15.246L60.7932 13.4473L62.969 17.2332L29.6205 36.5983L16.58 30.8105L0 39.862L1.39254 42.4005L16.7105 34.0453L29.7946 39.862L64.4051 19.7427L66.5374 23.4271L69.2064 15.246Z"
      fill="#9AC5FE" />
    <path
      d="M21.0469 26.3571C21.0481 25.6813 21.1063 25.0068 21.2209 24.3408C21.9298 25.8832 22.296 27.5608 22.2944 29.2582C22.296 27.5608 21.9298 25.8832 21.2209 24.3408C21.1062 25.0068 21.048 25.6813 21.0469 26.3571Z"
      fill="#9AC5FE" />
    <path
      d="M21.2224 24.3406C20.1664 21.9893 18.2964 20.0987 15.9569 19.017C17.2632 18.1612 18.2583 16.9067 18.7944 15.44C19.3305 13.9733 19.3789 12.3727 18.9324 10.8763C18.4858 9.37989 17.5682 8.06756 16.3161 7.13446C15.0639 6.20137 13.544 5.69734 11.9823 5.69734C10.4207 5.69734 8.90082 6.20137 7.64864 7.13446C6.39645 8.06756 5.47887 9.37989 5.03235 10.8763C4.58582 12.3727 4.6342 13.9733 5.17029 15.44C5.70638 16.9067 6.70155 18.1612 8.0078 19.017C6.08357 19.9391 4.46461 21.3944 3.34345 23.2098C2.22228 25.0253 1.64608 27.1245 1.68334 29.258V35.4229L16.6387 26.8355L21.4981 29.0114L29.4762 32.4202L40.3409 26.2698L41.2402 25.6751L58.3134 16.0143C57.3111 14.8029 56.0461 13.8356 54.6144 13.1857C55.9223 12.3311 56.9193 11.077 57.457 9.61009C57.9946 8.14316 58.0442 6.54183 57.5984 5.04444C57.1525 3.54705 56.2351 2.23366 54.9826 1.29974C53.7301 0.36583 52.2095 -0.138672 50.6471 -0.138672C49.0848 -0.138672 47.5642 0.36583 46.3117 1.29974C45.0592 2.23366 44.1417 3.54705 43.6959 5.04444C43.2501 6.54183 43.2997 8.14316 43.8373 9.61009C44.375 11.077 45.372 12.3311 46.6799 13.1857C45.0599 13.976 43.6594 15.153 42.6019 16.6127C41.5445 18.0723 40.8626 19.7699 40.6165 21.5555C40.1734 20.3386 39.487 19.2248 38.5992 18.2821C37.7113 17.3394 36.6406 16.5875 35.4525 16.0723C36.7505 15.2108 37.7366 13.9543 38.2648 12.4886C38.7931 11.023 38.8354 9.42628 38.3854 7.93477C37.9355 6.44325 37.0173 5.13625 35.7667 4.20725C34.5161 3.27824 32.9996 2.77661 31.4417 2.77661C29.8838 2.77661 28.3673 3.27824 27.1167 4.20725C25.8661 5.13625 24.9478 6.44325 24.4979 7.93477C24.048 9.42628 24.0903 11.023 24.6185 12.4886C25.1467 13.9543 26.1328 15.2108 27.4309 16.0723C25.813 16.8382 24.4068 17.9879 23.3349 19.4214C22.2629 20.8549 21.5576 22.5287 21.2805 24.2971"
      fill="#9AC5FE" />
  </g>
  <defs>
    <clipPath id="clip0">
      <rect width="69" height="42" fill="white" />
    </clipPath>
  </defs>
</svg>