<svg width="53" height="53" viewBox="0 0 53 53" fill="none" xmlns="http://www.w3.org/2000/svg">
  <g clip-path="url(#clip0)">
    <path d="M12.3663 3.5332H10.5996V5.29987H12.3663V3.5332Z" fill="#9AC5FE" />
    <path d="M15.9005 3.5332H14.1338V5.29987H15.9005V3.5332Z" fill="#9AC5FE" />
    <path d="M19.4337 3.5332H17.667V5.29987H19.4337V3.5332Z" fill="#9AC5FE" />
    <path
      d="M0.883333 52.9994H28.2667C28.4413 52.9994 28.6121 52.9476 28.7573 52.8505C28.9025 52.7534 29.0157 52.6155 29.0826 52.4541C29.1494 52.2927 29.1669 52.1151 29.1328 51.9438C29.0988 51.7725 29.0147 51.6151 28.8912 51.4916L1.50785 24.1082C1.38431 23.9847 1.22694 23.9006 1.05561 23.8666C0.884286 23.8325 0.706707 23.85 0.545322 23.9168C0.383937 23.9837 0.245993 24.0969 0.148929 24.2421C0.0518641 24.3873 3.72982e-05 24.5581 0 24.7328V52.1161C0 52.3504 0.0930652 52.575 0.258722 52.7407C0.424379 52.9064 0.649059 52.9994 0.883333 52.9994ZM1.76667 26.8651L26.1343 51.2328H1.76667V26.8651Z"
      fill="#9AC5FE" />
    <path
      d="M15.641 46.1916L6.80765 37.3582C6.68412 37.2347 6.52674 37.1506 6.35542 37.1166C6.18409 37.0825 6.00651 37.1 5.84513 37.1668C5.68374 37.2337 5.5458 37.3469 5.44873 37.4921C5.35167 37.6373 5.29984 37.8081 5.2998 37.9828V46.8161C5.2998 47.0504 5.39287 47.275 5.55853 47.4407C5.72418 47.6064 5.94886 47.6994 6.18314 47.6994H15.0165C15.1911 47.6994 15.3619 47.6476 15.5071 47.5505C15.6524 47.4534 15.7655 47.3155 15.8324 47.1541C15.8992 46.9927 15.9167 46.8151 15.8827 46.6438C15.8486 46.4725 15.7645 46.3151 15.641 46.1916ZM7.06647 45.9328V40.1151L12.8841 45.9328H7.06647Z"
      fill="#9AC5FE" />
    <path
      d="M52.0086 7.54013C52.6428 6.90595 52.9991 6.04582 52.9991 5.14895C52.9991 4.25208 52.6428 3.39195 52.0086 2.75777C51.3745 2.12359 50.5143 1.76731 49.6175 1.76731C48.7206 1.76731 47.8605 2.12359 47.2263 2.75777L45.9013 4.08277C45.8192 2.975 45.3219 1.93906 44.5089 1.1821C43.696 0.425144 42.6272 0.00296942 41.5164 0H11.4831C10.3121 0.00140261 9.18955 0.467179 8.36157 1.29516C7.53359 2.12314 7.06781 3.24572 7.06641 4.41667V27.3833H8.83307V4.41667C8.83307 3.71384 9.11227 3.0398 9.60924 2.54283C10.1062 2.04586 10.7802 1.76667 11.4831 1.76667H41.5164C42.2192 1.76667 42.8933 2.04586 43.3902 2.54283C43.8872 3.0398 44.1664 3.71384 44.1664 4.41667V5.81763L35.8507 14.1333H29.3582C28.7289 12.522 27.6806 11.108 26.3218 10.0376C24.963 8.96707 23.3429 8.27892 21.629 8.04425C19.9152 7.80959 18.1698 8.03692 16.5732 8.70275C14.9766 9.36857 13.5869 10.4487 12.5476 11.8316C11.5083 13.2144 10.8572 14.8497 10.6615 16.5685C10.4659 18.2872 10.7329 20.027 11.4349 21.608C12.1369 23.189 13.2484 24.5538 14.6545 25.5614C16.0606 26.569 17.7103 27.1827 19.4331 27.3392V30.9167C19.4331 31.1509 19.5261 31.3756 19.6918 31.5413C19.8575 31.7069 20.0821 31.8 20.3164 31.8H39.7497C39.984 31.8 40.2087 31.7069 40.3744 31.5413C40.54 31.3756 40.6331 31.1509 40.6331 30.9167V18.9157L44.1664 15.3824V33.5667H23.8497C23.6155 33.5667 23.3908 33.6597 23.2251 33.8254C23.0595 33.991 22.9664 34.2157 22.9664 34.45V41.5167C22.9664 41.7509 23.0595 41.9756 23.2251 42.1413C23.3908 42.3069 23.6155 42.4 23.8497 42.4H44.1664V43.2833C44.1664 43.9862 43.8872 44.6602 43.3902 45.1572C42.8933 45.6541 42.2192 45.9333 41.5164 45.9333H27.3831V47.7H41.5164C42.6873 47.6986 43.8099 47.2328 44.6379 46.4048C45.4659 45.5769 45.9317 44.4543 45.9331 43.2833V42.4H52.1164C52.3507 42.4 52.5754 42.3069 52.741 42.1413C52.9067 41.9756 52.9997 41.7509 52.9997 41.5167V34.45C52.9997 34.2157 52.9067 33.991 52.741 33.8254C52.5754 33.6597 52.3507 33.5667 52.1164 33.5667H45.9331V13.6157L52.0086 7.54013ZM48.4753 4.0068C48.6241 3.85148 48.8024 3.72743 48.9998 3.64193C49.1971 3.55643 49.4096 3.5112 49.6246 3.50889C49.8397 3.50658 50.0531 3.54724 50.2522 3.62848C50.4514 3.70972 50.6323 3.82991 50.7844 3.982C50.9365 4.13409 51.0567 4.31502 51.1379 4.51417C51.2192 4.71332 51.2598 4.92669 51.2575 5.14176C51.2552 5.35684 51.21 5.56929 51.1245 5.76665C51.039 5.96401 50.9149 6.14231 50.7596 6.2911L50.3497 6.70097L48.0654 4.41667L48.4753 4.0068ZM28.2664 17.6667C28.2638 19.6211 27.542 21.5063 26.2388 22.9628C24.9355 24.4194 23.1419 25.3455 21.1997 25.5645V15.9H28.0615C28.1959 16.4793 28.2646 17.072 28.2664 17.6667ZM19.4331 15.0167V25.5645C18.0614 25.4135 16.7526 24.9079 15.6355 24.0976C14.5185 23.2874 13.6315 22.2003 13.062 20.9433C12.4925 19.6863 12.26 18.3027 12.3874 16.9286C12.5147 15.5544 12.9976 14.2371 13.7885 13.1062C14.5793 11.9754 15.651 11.0698 16.898 10.4787C18.1449 9.88752 19.5243 9.63115 20.9004 9.73478C22.2765 9.83841 23.602 10.2985 24.7463 11.0697C25.8907 11.8409 26.8147 12.8967 27.4272 14.1333H20.3164C20.0821 14.1333 19.8575 14.2264 19.6918 14.3921C19.5261 14.5577 19.4331 14.7824 19.4331 15.0167ZM38.8664 30.0333H21.1997V27.3392C22.5466 27.2213 23.8539 26.8225 25.0372 26.1685C26.2205 25.5145 27.2537 24.6197 28.07 23.542C28.8864 22.4642 29.4678 21.2273 29.7769 19.9111C30.0859 18.5949 30.1157 17.2285 29.8644 15.9H34.084L32.0586 17.9255C31.935 18.0486 31.851 18.2057 31.8174 18.3769L30.9341 22.7935C30.9085 22.9216 30.9116 23.0538 30.9432 23.1806C30.9749 23.3073 31.0342 23.4255 31.117 23.5265C31.1998 23.6276 31.304 23.709 31.4221 23.7649C31.5401 23.8209 31.6691 23.8499 31.7997 23.85C31.8591 23.8505 31.9183 23.8446 31.9764 23.8323L36.3931 22.949C36.5642 22.9154 36.7214 22.8314 36.8445 22.7078L38.8664 20.6824V30.0333ZM33.2254 20.3414L34.425 21.541L32.9233 21.8404L33.2254 20.3414ZM47.6997 35.3333V37.1H49.4664V35.3333H51.2331V40.6333H24.7331V35.3333H26.4997V37.1H28.2664V35.3333H30.0331V37.1H31.7997V35.3333H33.5664V37.1H35.3331V35.3333H37.0997V37.1H38.8664V35.3333H40.6331V37.1H42.3997V35.3333H44.1664V37.1H45.9331V35.3333H47.6997ZM36.2164 20.8343L33.9321 18.55L46.8164 5.6657L49.1007 7.95L36.2164 20.8343Z"
      fill="#9AC5FE" />
  </g>
  <defs>
    <clipPath id="clip0">
      <rect width="53" height="53" fill="white" />
    </clipPath>
  </defs>
</svg>