<svg width="53" height="53" viewBox="0 0 53 53" fill="none" xmlns="http://www.w3.org/2000/svg">
  <path d="M33.8818 33.8584V45.2597H52.9707V33.8584H33.8818ZM46.4189 42.7725H40.4324V36.3519H46.4189V42.7725Z"
    fill="#9AC5FE" />
  <path d="M0.0292969 3.74609V44.9952H30.185V3.74609H0.0292969ZM28.9244 43.7321H1.2912V5.008H28.9231L28.9244 43.7321Z"
    fill="#9AC5FE" />
  <path d="M11.0649 8.66992H5.07715V15.0905H11.0636L11.0649 8.66992Z" fill="#9AC5FE" />
  <path d="M15.5859 10.0479H24.5076V11.3098H15.5859V10.0479Z" fill="#9AC5FE" />
  <path d="M4.9873 18.6436H24.3512V19.9055H4.9873V18.6436Z" fill="#9AC5FE" />
  <path d="M4.9873 22.6445H24.3512V23.9064H4.9873V22.6445Z" fill="#9AC5FE" />
  <path d="M4.9873 26.6445H24.3512V27.9064H4.9873V26.6445Z" fill="#9AC5FE" />
  <path d="M4.9873 30.6445H24.3512V31.9064H4.9873V30.6445Z" fill="#9AC5FE" />
  <path d="M4.9873 34.6475H24.3512V35.9094H4.9873V34.6475Z" fill="#9AC5FE" />
  <path d="M4.9873 38.6475H15.586V39.9094H4.9873V38.6475Z" fill="#9AC5FE" />
  <path d="M33.8818 18.5371V29.9372H52.9707V18.5371H33.8818ZM51.7088 28.6778H35.1437V19.8003H51.7088V28.6778Z"
    fill="#9AC5FE" />
  <path d="M50.7735 25.2051H48.2295V27.922H50.7735V25.2051Z" fill="#9AC5FE" />
  <path d="M36.4785 22.8428H41.699V23.4737H36.4785V22.8428Z" fill="#9AC5FE" />
  <path d="M36.4785 24.2803H43.6524V24.9112H36.4785V24.2803Z" fill="#9AC5FE" />
  <path d="M39.6953 10.0414H45.6843V3.62207H39.6953V10.0414Z" fill="#9AC5FE" />
  <path
    d="M49.0829 2.50548C48.9819 2.50548 48.8886 2.5282 48.7901 2.53577V0.0195312H36.248V13.6481H37.7068V14.6526H47.3276V13.6481H48.7901V11.1293C48.8886 11.1394 48.9819 11.1596 49.0829 11.1596C51.0666 11.1596 52.6844 9.21882 52.6844 6.83382C52.6818 4.44629 51.0704 2.50548 49.0829 2.50548ZM47.5282 12.3849H37.5074V1.28017H47.5282V12.3849ZM49.0829 9.89772C48.9819 9.89772 48.8835 9.89015 48.7901 9.87374V3.79263C48.8835 3.77622 48.9819 3.76739 49.0829 3.76739C50.3713 3.76739 51.4225 5.1416 51.4225 6.83255C51.4199 8.52351 50.3726 9.89772 49.0829 9.89772Z"
    fill="#9AC5FE" />
  <path
    d="M24.7043 49.376H14.1901V49.4201L10.1318 51.1792L14.1901 52.9396V52.9838H45.5093V49.3785L24.7043 49.376ZM44.2449 51.7181H24.7043V50.6391H44.2474V51.7181H44.2449Z"
    fill="#9AC5FE" />
</svg>