<svg width="50" height="53" viewBox="0 0 50 53" fill="none" xmlns="http://www.w3.org/2000/svg">
  <path
    d="M9.54643 27.6819C9.54643 28.0659 9.85828 28.3785 10.2423 28.3785H19.0393C18.3664 28.9302 17.751 29.5492 17.2641 30.273H7.20168C6.8177 30.273 6.50586 30.5856 6.50586 30.9696C6.50586 31.3535 6.8177 31.6661 7.20168 31.6661H16.5069C16.2571 32.2364 16.0599 32.8338 15.9341 33.4587H9.1464C8.76243 33.4587 8.45059 33.7713 8.45059 34.1553C8.45059 34.5393 8.76243 34.8519 9.1464 34.8519H15.7933C15.7883 34.974 15.7569 35.0887 15.7569 35.2121C15.7569 40.1056 19.7379 44.0883 24.6314 44.0883C29.5249 44.0883 33.506 40.1056 33.506 35.2121C33.506 30.3186 29.5247 26.3379 24.6312 26.3379C23.4682 26.3379 22.3631 26.5767 21.3443 26.9852H10.2423C9.85817 26.9853 9.54643 27.2979 9.54643 27.6819ZM24.6312 27.7312C28.7575 27.7312 32.1141 31.0869 32.1141 35.2124C32.1141 39.3396 28.7575 42.6953 24.6312 42.6953C20.5049 42.6953 17.1483 39.3396 17.1483 35.2124C17.1483 31.087 20.5049 27.7312 24.6312 27.7312Z"
    fill="#9AC5FE" />
  <path
    d="M22.5453 40.2331C22.6388 40.2773 22.7391 40.2994 22.8393 40.2994C22.9998 40.2994 23.1587 40.2434 23.2861 40.1364L28.437 35.8206C28.5951 35.6881 28.686 35.4927 28.686 35.2871C28.686 35.0815 28.5951 34.8861 28.437 34.7536L23.2861 30.4362C23.0805 30.2629 22.7891 30.2237 22.5453 30.3393C22.2998 30.4531 22.1436 30.6995 22.1436 30.9697V39.6029C22.1436 39.8729 22.2998 40.1193 22.5453 40.2331ZM23.5351 32.4614L26.907 35.287L23.5351 38.1109V32.4614Z"
    fill="#9AC5FE" />
  <path
    d="M14.3001 44.9531C13.1302 44.9531 12.1517 45.7466 11.8462 46.8204H5.06789C4.68391 46.8204 4.37207 47.1331 4.37207 47.517C4.37207 47.901 4.68391 48.2136 5.06789 48.2136H11.8461C12.1516 49.2875 13.1302 50.0809 14.3 50.0809C15.4706 50.0809 16.4491 49.2875 16.7548 48.2136H44.1934C44.5774 48.2136 44.8892 47.901 44.8892 47.517C44.8892 47.1331 44.5774 46.8204 44.1934 46.8204H16.7548C16.4493 45.7466 15.4706 44.9531 14.3001 44.9531ZM14.3001 48.6878C13.6544 48.6878 13.1294 48.1627 13.1294 47.517C13.1294 46.8713 13.6544 46.3463 14.3001 46.3463C14.9458 46.3463 15.4716 46.8713 15.4716 47.517C15.4716 48.1627 14.9458 48.6878 14.3001 48.6878Z"
    fill="#9AC5FE" />
  <path
    d="M41.4582 17.1287C41.2024 17.4158 41.2279 17.8542 41.5151 18.1107C41.6476 18.2279 41.8133 18.2874 41.9781 18.2874C42.1693 18.2874 42.3605 18.2076 42.498 18.053C47.1553 12.8231 46.6889 4.77943 41.459 0.122138C41.1719 -0.130987 40.7318 -0.107236 40.4761 0.179866C40.2204 0.466968 40.2459 0.905372 40.5331 1.16191C45.1904 5.30954 45.6049 12.4714 41.4582 17.1287Z"
    fill="#9AC5FE" />
  <path
    d="M40.5411 9.16923C40.6575 11.181 39.9838 13.1163 38.644 14.6217C38.3882 14.9088 38.4137 15.349 38.7009 15.6038C38.8334 15.721 38.9991 15.7805 39.164 15.7805C39.3551 15.7805 39.5463 15.7007 39.6839 15.5461C41.2708 13.7636 42.0685 11.4715 41.9301 9.0894C41.7924 6.70726 40.7347 4.52217 38.9532 2.93525C38.6677 2.68212 38.2259 2.70411 37.9703 2.99297C37.7145 3.28007 37.74 3.72024 38.0272 3.97501C39.5318 5.31387 40.4248 7.15919 40.5411 9.16923Z"
    fill="#9AC5FE" />
  <path
    d="M35.9152 12.1921C35.6594 12.4792 35.6849 12.9194 35.9722 13.1742C36.1055 13.2914 36.2704 13.3509 36.4352 13.3509C36.6263 13.3509 36.8175 13.2711 36.9551 13.1164C38.8896 10.9432 38.6958 7.5994 36.5235 5.66413C36.2364 5.41101 35.7962 5.43476 35.5406 5.72186C35.2848 6.00731 35.3103 6.44736 35.5975 6.7039C37.1972 8.12951 37.3399 10.5915 35.9152 12.1921Z"
    fill="#9AC5FE" />
  <path
    d="M48.5892 21.3508H16.9534V13.7966H17.3909C21.4289 13.8713 23.0022 14.5969 26.1371 16.0394C26.6204 16.2613 27.1498 16.5034 27.7156 16.7571C27.879 17.8518 28.7843 18.7087 29.9235 18.7087C31.1775 18.7087 32.1969 17.6876 32.1969 16.4336V12.9664C34.0232 12.8714 35.4839 11.3687 35.4839 9.51996C35.4839 7.66958 34.0233 6.16688 32.1969 6.07177V2.60445C32.1969 1.35048 31.1775 0.331055 29.9235 0.331055C28.7842 0.331055 27.879 1.18664 27.7156 2.28106C27.1474 2.53594 26.6163 2.77851 26.132 3.00206C22.9988 4.4446 21.4263 5.16846 17.3908 5.24323H11.6929C11.0946 5.24323 10.5831 5.61203 10.3675 6.13335C8.93576 6.40846 7.84948 7.66771 7.84948 9.17843V9.86149C7.84948 11.3722 8.93609 12.6316 10.3679 12.9067C10.5836 13.4279 11.0951 13.7967 11.6929 13.7967H12.0233V21.3509H0.67238C0.288405 21.3509 -0.0234375 21.6636 -0.0234375 22.0475V52.3547C-0.0234375 52.7387 0.288405 53.0513 0.67238 53.0513H48.5892C48.9732 53.0513 49.285 52.7387 49.285 52.3547V22.0474C49.285 21.6634 48.9732 21.3508 48.5892 21.3508ZM32.1969 7.45373C33.2572 7.54543 34.0923 8.43577 34.0923 9.51985C34.0923 10.6022 33.2572 11.4925 32.1969 11.5843V7.45373ZM29.0417 16.2856C29.0417 16.2833 29.0433 16.2812 29.0433 16.2789V2.75905C29.0433 2.75674 29.0417 2.75465 29.0417 2.75234V2.60445C29.0417 2.11854 29.4375 1.72434 29.9235 1.72434C30.4096 1.72434 30.8054 2.11854 30.8054 2.60445V6.75032V12.2877V16.4336C30.8054 16.9195 30.4096 17.3155 29.9235 17.3155C29.4375 17.3155 29.0417 16.9196 29.0417 16.4336V16.2856ZM18.0994 6.61606C21.9393 6.46311 23.6835 5.66118 26.7139 4.26614C27.0115 4.12869 27.323 3.98432 27.65 3.83697V15.201C27.3247 15.0536 27.0149 14.9109 26.7189 14.7752C23.6868 13.3785 21.9419 12.5766 18.0993 12.4236V6.61606H18.0994ZM10.2571 11.4172C9.66094 11.1491 9.24101 10.5555 9.24101 9.86127V9.17821C9.24101 8.48404 9.66094 7.89037 10.2571 7.62229V11.4172ZM11.6929 12.4033C11.6682 12.4033 11.6487 12.3846 11.6487 12.3591L11.6929 6.63641H16.7078V12.4032H11.6929V12.4033ZM15.5618 13.7966V23.4543C15.5618 24.0456 15.08 24.5264 14.4888 24.5264C13.8967 24.5264 13.4149 24.0456 13.4149 23.4543V13.7966H15.5618ZM47.8934 51.658H1.3682V22.7441H12.0234V23.4543C12.0234 24.8136 13.1295 25.9197 14.4888 25.9197C15.8481 25.9197 16.9534 24.8136 16.9534 23.4543V22.7441H47.8935V51.658H47.8934Z"
    fill="#9AC5FE" />
  <path
    d="M5.48934 30.97C5.48934 30.586 5.1775 30.2734 4.79352 30.2734H4.17336C3.78938 30.2734 3.47754 30.586 3.47754 30.97C3.47754 31.354 3.78938 31.6666 4.17336 31.6666H4.79352C5.17761 31.6666 5.48934 31.354 5.48934 30.97Z"
    fill="#9AC5FE" />
  <path
    d="M7.2134 28.3785H7.83356C8.21754 28.3785 8.52938 28.0659 8.52938 27.6819C8.52938 27.298 8.21754 26.9854 7.83356 26.9854H7.2134C6.82942 26.9854 6.51758 27.298 6.51758 27.6819C6.51758 28.0659 6.82931 28.3785 7.2134 28.3785Z"
    fill="#9AC5FE" />
  <path
    d="M6.9048 34.9537H7.21401C7.59798 34.9537 7.90982 34.6411 7.90982 34.2571C7.90982 33.8732 7.59798 33.5605 7.21401 33.5605H6.9048C6.52083 33.5605 6.20898 33.8732 6.20898 34.2571C6.20909 34.6411 6.52083 34.9537 6.9048 34.9537Z"
    fill="#9AC5FE" />
</svg>