<svg width="62" height="53" viewBox="0 0 62 53" fill="none" xmlns="http://www.w3.org/2000/svg">
  <path
    d="M58.5208 0H3.3125C2.43397 0 1.59142 0.348995 0.970209 0.970209C0.348995 1.59142 0 2.43397 0 3.3125V49.6875C0 50.566 0.348995 51.4086 0.970209 52.0298C1.59142 52.651 2.43397 53 3.3125 53H58.5208C59.3994 53 60.2419 52.651 60.8631 52.0298C61.4843 51.4086 61.8333 50.566 61.8333 49.6875V3.3125C61.8333 2.43397 61.4843 1.59142 60.8631 0.970209C60.2419 0.348995 59.3994 0 58.5208 0ZM3.3125 2.20833H58.5208C58.8137 2.20833 59.0945 2.32467 59.3016 2.53174C59.5087 2.73881 59.625 3.01966 59.625 3.3125V8.83333H2.20833V3.3125C2.20833 3.01966 2.32467 2.73881 2.53174 2.53174C2.73881 2.32467 3.01966 2.20833 3.3125 2.20833ZM58.5208 50.7917H3.3125C3.01966 50.7917 2.73881 50.6753 2.53174 50.4683C2.32467 50.2612 2.20833 49.9803 2.20833 49.6875V11.0417H59.625V49.6875C59.625 49.9803 59.5087 50.2612 59.3016 50.4683C59.0945 50.6753 58.8137 50.7917 58.5208 50.7917Z"
    fill="#9AC5FE" />
  <path
    d="M56.3131 6.62533C56.923 6.62533 57.4173 6.13097 57.4173 5.52116C57.4173 4.91134 56.923 4.41699 56.3131 4.41699C55.7033 4.41699 55.209 4.91134 55.209 5.52116C55.209 6.13097 55.7033 6.62533 56.3131 6.62533Z"
    fill="#9AC5FE" />
  <path
    d="M51.8952 6.62533C52.505 6.62533 52.9993 6.13097 52.9993 5.52116C52.9993 4.91134 52.505 4.41699 51.8952 4.41699C51.2854 4.41699 50.791 4.91134 50.791 5.52116C50.791 6.13097 51.2854 6.62533 51.8952 6.62533Z"
    fill="#9AC5FE" />
  <path
    d="M47.4792 6.62533C48.089 6.62533 48.5833 6.13097 48.5833 5.52116C48.5833 4.91134 48.089 4.41699 47.4792 4.41699C46.8694 4.41699 46.375 4.91134 46.375 5.52116C46.375 6.13097 46.8694 6.62533 47.4792 6.62533Z"
    fill="#9AC5FE" />
  <path
    d="M41.9566 19.875C40.3094 19.8732 38.7048 20.3976 37.3766 21.3718C36.0484 22.3459 35.0662 23.7189 34.5732 25.2905C34.0801 26.8621 34.102 28.5502 34.6357 30.1084C35.1694 31.6667 36.1869 33.0138 37.5399 33.9531L34.3378 40.3573C34.2068 40.6181 34.1844 40.9201 34.2755 41.1973C34.3665 41.4746 34.5636 41.7045 34.8236 41.8369C34.9797 41.9205 35.1546 41.9623 35.3316 41.9584C35.5355 41.9577 35.7352 41.9007 35.9087 41.7935C36.0821 41.6863 36.2225 41.5332 36.3143 41.3511L39.5274 34.9359C40.5904 35.2906 41.7177 35.4099 42.8314 35.2856C43.9451 35.1613 45.0184 34.7964 45.977 34.216C46.9356 33.6357 47.7566 32.8538 48.383 31.9246C49.0094 30.9955 49.4262 29.9412 49.6047 28.8349C49.7831 27.7286 49.7188 26.5967 49.4163 25.5177C49.1138 24.4388 48.5803 23.4384 47.8528 22.5861C47.1253 21.7338 46.2211 21.0499 45.203 20.5818C44.1849 20.1136 43.0771 19.8725 41.9566 19.875ZM41.9566 33.125C40.8646 33.125 39.7972 32.8012 38.8893 32.1946C37.9815 31.588 37.2738 30.7257 36.856 29.7169C36.4381 28.7081 36.3288 27.5981 36.5418 26.5271C36.7548 25.4562 37.2806 24.4725 38.0527 23.7004C38.8248 22.9283 39.8086 22.4025 40.8795 22.1894C41.9504 21.9764 43.0605 22.0857 44.0693 22.5036C45.0781 22.9215 45.9403 23.6291 46.547 24.537C47.1536 25.4449 47.4774 26.5123 47.4774 27.6042C47.4774 29.0684 46.8957 30.4727 45.8604 31.508C44.825 32.5434 43.4208 33.125 41.9566 33.125Z"
    fill="#9AC5FE" />
  <path
    d="M19.8757 19.875H13.2507C12.9578 19.875 12.677 19.9913 12.4699 20.1984C12.2628 20.4055 12.1465 20.6863 12.1465 20.9792V27.6042C12.1465 27.897 12.2628 28.1779 12.4699 28.3849C12.677 28.592 12.9578 28.7083 13.2507 28.7083H18.7715V33.125H14.3548V32.0208C14.3548 31.728 14.2385 31.4471 14.0314 31.2401C13.8243 31.033 13.5435 30.9167 13.2507 30.9167C12.9578 30.9167 12.677 31.033 12.4699 31.2401C12.2628 31.4471 12.1465 31.728 12.1465 32.0208V34.2292C12.1465 34.522 12.2628 34.8029 12.4699 35.0099C12.677 35.217 12.9578 35.3333 13.2507 35.3333H19.8757C20.1685 35.3333 20.4493 35.217 20.6564 35.0099C20.8635 34.8029 20.9798 34.522 20.9798 34.2292V27.6042C20.9798 27.3113 20.8635 27.0305 20.6564 26.8234C20.4493 26.6163 20.1685 26.5 19.8757 26.5H14.3548V22.0833H18.7715V23.1875C18.7715 23.4803 18.8878 23.7612 19.0949 23.9683C19.302 24.1753 19.5828 24.2917 19.8757 24.2917C20.1685 24.2917 20.4493 24.1753 20.6564 23.9683C20.8635 23.7612 20.9798 23.4803 20.9798 23.1875V20.9792C20.9798 20.6863 20.8635 20.4055 20.6564 20.1984C20.4493 19.9913 20.1685 19.875 19.8757 19.875Z"
    fill="#9AC5FE" />
  <path
    d="M30.9167 22.0833C31.2095 22.0833 31.4904 21.967 31.6974 21.7599C31.9045 21.5529 32.0208 21.272 32.0208 20.9792C32.0208 20.6863 31.9045 20.4055 31.6974 20.1984C31.4904 19.9913 31.2095 19.875 30.9167 19.875H24.2917C23.9988 19.875 23.718 19.9913 23.5109 20.1984C23.3038 20.4055 23.1875 20.6863 23.1875 20.9792V34.2292C23.1875 34.522 23.3038 34.8029 23.5109 35.0099C23.718 35.217 23.9988 35.3333 24.2917 35.3333H30.9167C31.2095 35.3333 31.4904 35.217 31.6974 35.0099C31.9045 34.8029 32.0208 34.522 32.0208 34.2292C32.0208 33.9363 31.9045 33.6555 31.6974 33.4484C31.4904 33.2413 31.2095 33.125 30.9167 33.125H25.3958V28.7083H28.7083C29.0012 28.7083 29.282 28.592 29.4891 28.3849C29.6962 28.1779 29.8125 27.897 29.8125 27.6042C29.8125 27.3113 29.6962 27.0305 29.4891 26.8234C29.282 26.6163 29.0012 26.5 28.7083 26.5H25.3958V22.0833H30.9167Z"
    fill="#9AC5FE" />
</svg>