<svg width="62" height="53" viewBox="0 0 62 53" fill="none" xmlns="http://www.w3.org/2000/svg">
  <g clip-path="url(#clip0)">
    <path
      d="M0 0V1.47222V51.5278V53H1.47222H60.3611H61.8333V51.5278V1.47222V0H60.3611H1.47222H0ZM2.94444 2.94444H58.8889V10.3056H2.94444V2.94444ZM7.36111 4.41667C6.14148 4.41667 5.15278 5.40537 5.15278 6.625C5.15278 7.84463 6.14148 8.83333 7.36111 8.83333C8.58074 8.83333 9.56944 7.84463 9.56944 6.625C9.56944 5.40537 8.58074 4.41667 7.36111 4.41667ZM13.9861 4.41667C12.7665 4.41667 11.7778 5.40537 11.7778 6.625C11.7778 7.84463 12.7665 8.83333 13.9861 8.83333C15.2057 8.83333 16.1944 7.84463 16.1944 6.625C16.1944 5.40537 15.2057 4.41667 13.9861 4.41667ZM20.6111 4.41667C19.3915 4.41667 18.4028 5.40537 18.4028 6.625C18.4028 7.84463 19.3915 8.83333 20.6111 8.83333C21.8307 8.83333 22.8194 7.84463 22.8194 6.625C22.8194 5.40537 21.8307 4.41667 20.6111 4.41667ZM2.94444 13.25H58.8889V50.0556H2.94444V13.25ZM26.5 17.6667V19.1389V20.8181C26.455 20.8364 26.4068 20.8454 26.362 20.8641L25.1888 19.691L24.1536 18.6328L23.1185 19.691L18.9549 23.8546L17.8967 24.8898L18.9549 25.9249L20.128 27.0981C20.1093 27.1429 20.1003 27.1911 20.082 27.2361H18.4028H16.9306V28.7083V34.5972V36.0694H18.4028H20.082C20.1003 36.1145 20.1093 36.1627 20.128 36.2075L18.9549 37.3806L17.8967 38.4158L18.9549 39.451L23.1185 43.6146L24.1536 44.6727L25.1888 43.6146L26.362 42.4414C26.4068 42.4602 26.455 42.4692 26.5 42.4874V44.1667V45.6389H27.9722H33.8611H35.3333V44.1667V42.4874C35.3718 42.4719 35.4101 42.4574 35.4483 42.4414C35.5374 42.5306 35.6086 42.6014 35.7014 42.6944C36.1656 43.1598 36.6445 43.6146 36.6445 43.6146L37.6797 44.6727L38.7148 43.6146L42.8785 39.451L43.9366 38.4158L42.8785 37.3806C42.8785 37.3806 42.4237 36.9017 41.9583 36.4375C41.8653 36.3447 41.7945 36.2735 41.7053 36.1845C41.7213 36.1462 41.7357 36.1079 41.7513 36.0694H43.4306H44.9028V34.5972V28.7083V27.2361H43.4306H41.7513C41.7357 27.1977 41.7213 27.1594 41.7053 27.1211C41.7945 27.032 41.8653 26.9609 41.9583 26.8681C42.4237 26.4038 42.8785 25.9249 42.8785 25.9249L43.9366 24.8898L42.8785 23.8546L38.7148 19.691L37.6797 18.6328L36.6445 19.691C36.6445 19.691 36.1656 20.1457 35.7014 20.6111C35.6086 20.7042 35.5374 20.775 35.4483 20.8641C35.4101 20.8482 35.3718 20.8337 35.3333 20.8181V19.1389V17.6667H33.8611H27.9722H26.5ZM29.4444 20.6111H32.3889V21.7843V22.8885L33.447 23.1875C34.0264 23.3605 34.5913 23.6025 35.1033 23.8776C35.1093 23.8808 35.1202 23.8744 35.1263 23.8776C35.1706 23.8774 36.5294 23.8776 36.5295 23.8776C36.5296 23.8776 36.6904 23.7627 36.6905 23.7626C36.6908 23.7624 36.7681 23.7061 36.7826 23.6936C36.8115 23.6686 36.8198 23.6788 36.8286 23.6706C36.8461 23.6542 36.8411 23.6347 36.8516 23.6246C36.8724 23.6044 36.9162 23.5826 36.9436 23.5556C36.9984 23.5014 37.0623 23.4366 37.1506 23.3485C37.2957 23.2038 37.4898 23.0098 37.6797 22.8194L39.75 24.8898C39.5597 25.0797 39.3657 25.2737 39.2209 25.4188C39.1328 25.5072 39.068 25.5711 39.0139 25.6259C38.9868 25.6533 38.965 25.6971 38.9449 25.7179C38.9348 25.7283 38.9152 25.7233 38.8989 25.7409C38.8907 25.7497 38.9009 25.758 38.8759 25.7869C38.8634 25.8014 38.8071 25.8786 38.8069 25.8789C38.8068 25.879 38.6919 26.0399 38.6918 26.0399C38.6918 26.04 38.692 27.3989 38.6918 27.4431C38.6951 27.4492 38.6886 27.4601 38.6918 27.4661C38.9669 27.9781 39.209 28.5431 39.3819 29.1224L39.681 30.1806H40.7852H41.9583V33.125H40.7852H39.681L39.3819 34.1832C39.209 34.7625 38.9669 35.3274 38.6918 35.8394V35.8624C38.692 35.9067 38.6918 37.2655 38.6918 37.2656C38.6919 37.2657 38.8068 37.4265 38.8069 37.4266C38.8071 37.4269 38.8634 37.5042 38.8759 37.5187C38.9008 37.5476 38.8907 37.5559 38.8989 37.5647C38.9152 37.5822 38.9348 37.5773 38.9449 37.5877C38.965 37.6085 38.9868 37.6523 39.0139 37.6797C39.068 37.7345 39.1328 37.7984 39.2209 37.8867C39.3657 38.0318 39.5597 38.2259 39.75 38.4158L37.6797 40.4861C37.4898 40.2958 37.2957 40.1018 37.1506 39.957C37.0623 39.8689 36.9984 39.8041 36.9436 39.75C36.9162 39.7229 36.8724 39.7012 36.8516 39.681C36.8411 39.6709 36.8461 39.6513 36.8286 39.635C36.8198 39.6268 36.8115 39.637 36.7826 39.612C36.7681 39.5995 36.6908 39.5432 36.6905 39.543C36.6904 39.5429 36.5296 39.428 36.5295 39.428C36.5294 39.4279 35.1706 39.4281 35.1263 39.428H35.1033C34.5913 39.703 34.0264 39.9451 33.447 40.1181L32.3889 40.4171V41.5213V42.6944H29.4444V41.5213V40.4171L28.3863 40.1181C27.8001 39.943 27.2238 39.7073 26.707 39.428L25.7409 38.8989L24.9818 39.681L24.1536 40.5091L22.0603 38.4158L22.8885 37.5877L23.6706 36.8286L23.1415 35.8624C22.8621 35.3457 22.6264 34.7694 22.4514 34.1832L22.1523 33.125H21.0482H19.875V30.1806H21.0482H22.1523L22.4514 29.1224C22.6264 28.5362 22.8621 27.9599 23.1415 27.4431L23.6706 26.477L22.8885 25.7179L22.0603 24.8898L24.1536 22.7964L24.9818 23.6246L25.7409 24.4067L26.707 23.8776C27.2238 23.5982 27.8001 23.3625 28.3863 23.1875L29.4444 22.8885V21.7843V20.6111ZM30.9167 25.0278C27.2752 25.0278 24.2917 28.0113 24.2917 31.6528C24.2917 35.2942 27.2752 38.2778 30.9167 38.2778C34.5581 38.2778 37.5417 35.2942 37.5417 31.6528C37.5417 28.0113 34.5581 25.0278 30.9167 25.0278ZM30.9167 27.9722C32.9668 27.9722 34.5972 29.6026 34.5972 31.6528C34.5972 33.7029 32.9668 35.3333 30.9167 35.3333C28.8665 35.3333 27.2361 33.7029 27.2361 31.6528C27.2361 29.6026 28.8665 27.9722 30.9167 27.9722Z"
      fill="#9AC5FE" />
  </g>
  <defs>
    <clipPath id="clip0">
      <rect width="61.8333" height="53" fill="white" />
    </clipPath>
  </defs>
</svg>