<svg width="59" height="53" viewBox="0 0 59 53" fill="none" xmlns="http://www.w3.org/2000/svg">
  <g clip-path="url(#clip0)">
    <path d="M11.7776 11.7773H3.92578V13.7403H11.7776V11.7773Z" fill="#9AC5FE" />
    <path d="M19.6295 15.7041H3.92578V17.6671H19.6295V15.7041Z" fill="#9AC5FE" />
    <path
      d="M4.90726 26.5002H15.7036C15.9639 26.5002 16.2135 26.3968 16.3976 26.2127C16.5816 26.0287 16.685 25.779 16.685 25.5187V21.5928C16.685 21.3325 16.5816 21.0829 16.3976 20.8988C16.2135 20.7147 15.9639 20.6113 15.7036 20.6113H4.90726C4.64696 20.6113 4.39731 20.7147 4.21325 20.8988C4.02919 21.0829 3.92578 21.3325 3.92578 21.5928V25.5187C3.92578 25.779 4.02919 26.0287 4.21325 26.2127C4.39731 26.3968 4.64696 26.5002 4.90726 26.5002ZM5.88874 22.5743H14.7221V24.5373H5.88874V22.5743Z"
      fill="#9AC5FE" />
    <path
      d="M57.9074 0H0.981481C0.721176 0 0.471533 0.103406 0.287469 0.287469C0.103406 0.471533 0 0.721176 0 0.981481V46.1296C0 46.3899 0.103406 46.6396 0.287469 46.8236C0.471533 47.0077 0.721176 47.1111 0.981481 47.1111H36.413V52.0185C36.413 52.2788 36.5164 52.5285 36.7004 52.7125C36.8845 52.8966 37.1341 53 37.3944 53H47.3957C47.5256 52.9995 47.6541 52.9732 47.7737 52.9226C47.8933 52.8721 48.0017 52.7983 48.0926 52.7056C48.2739 52.5227 48.3761 52.276 48.3772 52.0185V47.1111H57.9074C58.1677 47.1111 58.4174 47.0077 58.6014 46.8236C58.7855 46.6396 58.8889 46.3899 58.8889 46.1296V0.981481C58.8889 0.721176 58.7855 0.471533 58.6014 0.287469C58.4174 0.103406 58.1677 0 57.9074 0ZM49.3293 33.3704H53V41.2222H48.3576V40.5744C48.3747 39.8794 48.5872 39.2033 48.9708 38.6235C49.3545 38.0437 49.8937 37.5838 50.5267 37.2963C50.6474 37.2382 50.755 37.156 50.8428 37.0547C50.9306 36.9534 50.9967 36.8352 51.037 36.7074C51.0755 36.5796 51.0858 36.4449 51.0671 36.3128C51.0485 36.1806 51.0014 36.0541 50.9291 35.9419L49.3293 33.3704ZM46.3848 40.5843V42.5472H38.3465V40.5843C38.3334 39.6977 38.1017 38.828 37.6719 38.0525C37.2422 37.2769 36.6277 36.6193 35.883 36.1381L37.8459 32.8796L40.2113 28.9537L41.1928 27.3735V32.8993L40.9769 32.9778C40.848 33.0549 40.7264 33.1436 40.6137 33.2428C40.5313 33.2927 40.4526 33.3485 40.3781 33.4096C40.2898 33.498 40.2211 33.6157 40.1328 33.7139C40.0587 33.7979 39.9899 33.8864 39.9267 33.9789C39.8643 34.0987 39.8118 34.2235 39.7696 34.3519C39.7139 34.4485 39.6679 34.5504 39.6322 34.6561C39.57 34.9 39.5371 35.1504 39.5341 35.402C39.536 35.8906 39.6692 36.3696 39.9195 36.7892C40.1698 37.2087 40.5282 37.5533 40.9572 37.787C41.3664 38.0215 41.8303 38.1434 42.3018 38.1404C43.0266 38.1276 43.7176 37.832 44.2274 37.3167C44.7372 36.8014 45.0254 36.1072 45.0304 35.3824C45.0214 34.8192 44.8396 34.2724 44.5095 33.816C44.1795 33.3596 43.7172 33.0156 43.1852 32.8306V27.1281L48.7207 36.1381C48.0097 36.6431 47.4282 37.3092 47.0239 38.0819C46.6196 38.8547 46.404 39.7122 46.3946 40.5843H46.3848ZM33.7041 35.9909C33.6325 36.1071 33.5859 36.2369 33.5673 36.3721C33.5487 36.5073 33.5585 36.6449 33.5961 36.7761C33.6341 36.9075 33.6991 37.0295 33.787 37.1343C33.8749 37.2391 33.9837 37.3244 34.1065 37.3846C34.7522 37.6542 35.309 38.0999 35.7134 38.6709C36.1178 39.2419 36.3534 39.9151 36.3933 40.6137V41.2222H24.1739V33.3704H35.3333L33.7041 35.9909ZM41.9485 34.7248C42.0569 34.6658 42.1785 34.6354 42.3018 34.6365C42.5101 34.6365 42.7098 34.7192 42.8571 34.8665C43.0043 35.0137 43.087 35.2134 43.087 35.4217C43.087 35.6299 43.0043 35.8296 42.8571 35.9769C42.7098 36.1241 42.5101 36.2069 42.3018 36.2069C42.1623 36.2067 42.0259 36.1657 41.9093 36.0891C41.7872 36.0257 41.685 35.9299 41.614 35.8121C41.5429 35.6943 41.5059 35.5592 41.5069 35.4217C41.5086 35.276 41.5508 35.1336 41.6288 35.0106C41.7068 34.8875 41.8175 34.7886 41.9485 34.7248ZM43.2735 23.5556C43.2985 23.2073 43.3992 22.8688 43.5688 22.5636C43.7383 22.2584 43.9725 21.994 44.255 21.7889C45.1678 21.2196 46.7774 21.4846 48.9268 22.5544C51.2628 23.7126 53.1178 23.9383 54.433 23.2415C54.8363 23.0151 55.1823 22.6991 55.4444 22.318C55.7064 21.9368 55.8775 21.5006 55.9444 21.043L53.9815 20.7681C53.95 20.9213 53.8854 21.0657 53.7921 21.1912C53.6989 21.3167 53.5793 21.4202 53.4417 21.4944C53.0294 21.7006 51.9989 21.8772 49.7513 20.7583C46.9246 19.3548 44.7065 19.1291 43.1754 20.0909C42.6255 20.4729 42.1706 20.9758 41.8456 21.5612C41.5206 22.1465 41.3342 22.7986 41.3007 23.4672L38.8667 27.4815H30.8676L56.9259 10.973V27.4815H45.7076L43.2735 23.5556ZM26.5 27.4815H1.96296V9.81481H26.5V27.4815ZM28.463 9.81481H55.0906L28.463 26.6767V9.81481ZM56.9259 1.96296V7.85185H1.96296V1.96296H56.9259ZM1.96296 45.1481V29.4444H37.6791L36.4817 31.4074H23.1924C22.9321 31.4074 22.6825 31.5108 22.4984 31.6949C22.3143 31.8789 22.2109 32.1286 22.2109 32.3889V42.2037C22.2109 42.464 22.3143 42.7137 22.4984 42.8977C22.6825 43.0818 22.9321 43.1852 23.1924 43.1852H36.4031V45.1481H1.96296ZM38.3956 51.037V46.1296V44.5298H46.4339V51.037H38.3956ZM48.3772 45.1481V43.1852H53.9815C54.2418 43.1852 54.4914 43.0818 54.6755 42.8977C54.8596 42.7137 54.963 42.464 54.963 42.2037V32.3889C54.963 32.1286 54.8596 31.8789 54.6755 31.6949C54.4914 31.5108 54.2418 31.4074 53.9815 31.4074H48.0926L46.9148 29.4444H56.9259V45.1481H48.3772Z"
      fill="#9AC5FE" />
    <path d="M5.88874 3.92578H3.92578V5.88874H5.88874V3.92578Z" fill="#9AC5FE" />
    <path d="M9.81453 3.92578H7.85156V5.88874H9.81453V3.92578Z" fill="#9AC5FE" />
    <path d="M13.7403 3.92578H11.7773V5.88874H13.7403V3.92578Z" fill="#9AC5FE" />
    <path
      d="M19.3449 31.4072H4.90726C4.64696 31.4072 4.39731 31.5106 4.21325 31.6947C4.02919 31.8788 3.92578 32.1284 3.92578 32.3887V42.2035C3.92578 42.4638 4.02919 42.7135 4.21325 42.8975C4.39731 43.0816 4.64696 43.185 4.90726 43.185H19.3449C19.6052 43.185 19.8548 43.0816 20.0389 42.8975C20.2229 42.7135 20.3263 42.4638 20.3263 42.2035V32.3887C20.3263 32.1284 20.2229 31.8788 20.0389 31.6947C19.8548 31.5106 19.6052 31.4072 19.3449 31.4072ZM18.3634 41.222H5.88874V33.3702H18.3634V41.222Z"
      fill="#9AC5FE" />
  </g>
  <defs>
    <clipPath id="clip0">
      <rect width="58.8889" height="53" fill="white" />
    </clipPath>
  </defs>
</svg>