<svg width="56" height="53" viewBox="0 0 56 53" fill="none" xmlns="http://www.w3.org/2000/svg">
  <path
    d="M30.5851 48.3626L29.5361 45.3814C28.7632 46.6512 27.8799 47.8106 26.9413 48.9147C26.8861 49.0251 26.7757 49.0803 26.7205 49.1908C26.3341 49.1908 25.9476 49.246 25.5611 49.246C25.1747 49.246 24.7882 49.246 24.4018 49.246C24.3466 49.1355 24.2361 49.0803 24.1809 48.9699C21.9174 46.3751 20.0403 43.2283 18.7705 39.695C20.9788 39.2533 23.2424 39.0324 25.6164 39.0324C26.2236 39.0324 26.8309 39.0324 27.4382 39.0876L26.3893 35.996C26.1684 35.996 25.8924 35.996 25.6716 35.996C22.9663 35.996 20.3716 36.272 17.8872 36.7689C17.2247 34.2845 16.783 31.6345 16.6726 28.8189H23.9049L23.408 27.3835C23.2424 26.8866 23.132 26.3345 23.132 25.7824H16.5622C16.6726 23.022 17.0591 20.372 17.7768 17.8324C20.2611 18.3293 22.8559 18.6054 25.5611 18.6054C28.2111 18.6054 30.8611 18.3293 33.3455 17.8324C33.8424 19.5991 34.1736 21.4762 34.3945 23.4085L37.5413 24.5127C37.3757 21.9731 36.934 19.4887 36.3268 17.1147C38.7007 16.4522 40.9643 15.5137 43.0622 14.4095C43.1174 14.3543 43.2278 14.3543 43.283 14.2991C45.657 17.5564 47.2028 21.4762 47.4788 25.7824H41.2403L50.1288 28.8741C50.2393 28.9293 50.4049 28.9845 50.5153 29.0397C50.5705 28.4876 50.5705 27.8804 50.5705 27.2731C50.5705 13.471 39.3632 2.26367 25.5611 2.26367C11.8143 2.26367 0.551758 13.471 0.551758 27.2731C0.551758 41.02 11.759 52.2272 25.5611 52.2272C28.2111 52.2272 30.8059 51.7856 33.1799 51.0127C32.0205 50.571 31.0268 49.5772 30.5851 48.3626ZM41.1851 11.9251C41.1299 11.9803 41.0195 12.0356 40.9643 12.0356C39.1976 12.9189 37.3205 13.6366 35.333 14.1887C34.2841 11.3179 32.9591 8.72305 31.3028 6.4043C31.2476 6.29388 31.1372 6.18348 31.082 6.07306C35.0018 7.06681 38.4247 9.16471 41.1851 11.9251ZM24.4018 5.41055C24.7882 5.41055 25.1747 5.35536 25.5611 5.35536C25.9476 5.35536 26.3341 5.35535 26.7205 5.41055C26.7757 5.46576 26.8861 5.57618 26.9413 5.6866C29.2049 8.28139 31.082 11.4283 32.3517 14.9616C30.1434 15.4033 27.8799 15.6241 25.5059 15.6241C23.132 15.6241 20.8684 15.4033 18.6601 14.9616C19.9851 11.4283 21.807 8.28139 24.0705 5.6866C24.2361 5.57618 24.2913 5.46576 24.4018 5.41055ZM19.9851 6.07306C19.9299 6.18348 19.8195 6.29388 19.7643 6.4043C18.108 8.72305 16.783 11.3731 15.7341 14.2439C13.7466 13.6918 11.8695 12.9741 10.1028 12.0908C10.0476 12.0356 9.93719 12.0356 9.88198 11.9804C12.6424 9.16473 16.1205 7.06681 19.9851 6.07306ZM7.89446 14.2991C7.94967 14.3543 8.0601 14.3543 8.11531 14.4095C10.2132 15.5137 12.4768 16.397 14.8507 17.1147C14.133 19.8751 13.6361 22.746 13.5809 25.7824H3.69864C3.97468 21.4762 5.5205 17.5564 7.89446 14.2991ZM7.89446 40.247C5.5205 36.9897 3.97468 33.0699 3.69864 28.8189H13.5809C13.6913 31.8002 14.133 34.7262 14.8507 37.4866C12.4768 38.1491 10.2132 39.0876 8.11531 40.1918C8.00489 40.1366 7.94967 40.1918 7.89446 40.247ZM9.88198 42.621C9.93719 42.5657 10.0476 42.5658 10.1028 42.5106C11.8695 41.6272 13.7466 40.9095 15.7341 40.3574C16.783 43.2283 18.108 45.8231 19.7643 48.197C19.8195 48.3075 19.9299 48.4179 19.9851 48.5283C16.1205 47.4241 12.6424 45.3814 9.88198 42.621Z"
    fill="#9AC5FE" />
  <path
    d="M54.3244 46.9273L44.0556 36.6585L49.0796 34.1189C49.9077 33.6773 49.8525 32.4627 48.9692 32.1315L27.99 24.8439C27.1619 24.5679 26.3338 25.3408 26.6098 26.2242L33.8973 47.2033C34.2286 48.0867 35.4431 48.197 35.8848 47.3137L38.4244 42.2898L48.6931 52.5585C49.1348 53.0002 49.7973 53.0002 50.1838 52.5585L54.3244 48.4179C54.7661 48.0314 54.7661 47.3689 54.3244 46.9273Z"
    fill="#9AC5FE" />
</svg>