<svg width="256" height="279" viewBox="0 0 256 279" fill="none" xmlns="http://www.w3.org/2000/svg">
  <g clip-path="url(#clip0)">
    <path opacity="0.7"
      d="M21.6238 100.561C21.6238 100.561 4.84461 143.893 28.4245 187.526C52.0045 231.159 100.573 254.21 139.445 273.92C178.318 293.63 218.683 284.03 237.863 251.748C257.044 219.466 230.738 196.421 230.702 150.387C230.665 104.352 237.593 92.1652 212.647 53.2746C187.7 14.384 126.548 5.77171 80.3028 34.6177C34.0577 63.4637 21.6238 100.561 21.6238 100.561Z"
      fill="white" />
    <path
      d="M223.979 278.83C223.979 278.83 277.783 205.172 244.442 148.557C211.1 91.9424 144.892 130.797 132.284 77.9618C119.675 25.1266 73.6528 16.4602 30.0077 82.5357C-13.6375 148.611 -3.19563 240.488 19.9149 278.83H223.979Z"
      fill="#29538E" />
    <path opacity="0.7"
      d="M223.979 278.83C223.979 278.83 277.783 205.172 244.442 148.557C211.1 91.9424 144.892 130.797 132.284 77.9618C119.675 25.1266 73.6528 16.4602 30.0077 82.5357C-13.6375 148.611 -3.19563 240.488 19.9149 278.83H223.979Z"
      fill="white" />
    <path d="M11.832 278.83H251.7" stroke="#263238" stroke-linecap="round" stroke-linejoin="round" />
    <path d="M35.6483 86.3154H50.6641V80.285H35.6483V86.3154Z" stroke="#263238" stroke-linecap="round"
      stroke-linejoin="round" />
    <path d="M47.6717 93.2124H62.6875V87.182H47.6717V93.2124Z" stroke="#263238" stroke-linecap="round"
      stroke-linejoin="round" />
    <path d="M82.1385 132.319H97.1543V126.289H82.1385V132.319Z" stroke="#263238" stroke-linecap="round"
      stroke-linejoin="round" />
    <path d="M74.6346 140.282H89.6504V134.252H74.6346V140.282Z" stroke="#263238" stroke-linecap="round"
      stroke-linejoin="round" />
    <path d="M28.1365 188.965H43.1523V182.934H28.1365V188.965Z" stroke="#263238" stroke-linecap="round"
      stroke-linejoin="round" />
    <path d="M36.3631 196.47H51.3789V190.439H36.3631V196.47Z" stroke="#263238" stroke-linecap="round"
      stroke-linejoin="round" />
    <path d="M123.828 203.637H138.844V197.606H123.828V203.637Z" stroke="#263238" stroke-linecap="round"
      stroke-linejoin="round" />
    <path d="M115.89 211.666H130.906V205.636H115.89V211.666Z" stroke="#263238" stroke-linecap="round"
      stroke-linejoin="round" />
    <path d="M32.8846 243.184H47.9004V237.153H32.8846V243.184Z" stroke="#263238" stroke-linecap="round"
      stroke-linejoin="round" />
    <path d="M44.9647 188.965H59.9805V182.934H44.9647V188.965Z" stroke="#263238" stroke-linecap="round"
      stroke-linejoin="round" />
    <path d="M116.342 165.409C101.742 165.572 86.6959 165.572 72.5527 165.409" stroke="#263238" stroke-linecap="round"
      stroke-linejoin="round" />
    <path d="M122.355 165.409H118.684" stroke="#263238" stroke-linecap="round" stroke-linejoin="round" />
    <path d="M241.577 250.671C226.976 250.833 211.93 250.833 197.787 250.671" stroke="#263238" stroke-linecap="round"
      stroke-linejoin="round" />
    <path d="M247.589 250.671H243.918" stroke="#263238" stroke-linecap="round" stroke-linejoin="round" />
    <path d="M179.192 66.9844C164.591 67.1469 149.545 67.1469 135.402 66.9844" stroke="#263238" stroke-linecap="round"
      stroke-linejoin="round" />
    <path d="M185.204 66.9844H181.533" stroke="#263238" stroke-linecap="round" stroke-linejoin="round" />
    <path d="M49.5076 111.268C43.0881 111.376 36.6825 111.398 30.291 111.334" stroke="#263238" stroke-linecap="round"
      stroke-linejoin="round" />
    <path d="M173.191 238.574C166.771 238.683 160.368 238.705 153.98 238.64" stroke="#263238" stroke-linecap="round"
      stroke-linejoin="round" />
    <path d="M47.2266 227.662H49.2969" stroke="#263238" stroke-linecap="round" stroke-linejoin="round" />
    <path d="M25.4102 227.662H44.8735" stroke="#263238" stroke-linecap="round" stroke-linejoin="round" />
    <path d="M98.8574 50.8491H100.928" stroke="#263238" stroke-linecap="round" stroke-linejoin="round" />
    <path d="M77.0352 50.8491H96.4985" stroke="#263238" stroke-linecap="round" stroke-linejoin="round" />
    <path d="M230.912 220.897H215.896V226.928H230.912V220.897Z" stroke="#263238" stroke-linecap="round"
      stroke-linejoin="round" />
    <path d="M218.889 214.001H203.873V220.031H218.889V214.001Z" stroke="#263238" stroke-linecap="round"
      stroke-linejoin="round" />
    <path d="M184.422 174.894H169.406V180.924H184.422V174.894Z" stroke="#263238" stroke-linecap="round"
      stroke-linejoin="round" />
    <path d="M191.926 166.932H176.91V172.962H191.926V166.932Z" stroke="#263238" stroke-linecap="round"
      stroke-linejoin="round" />
    <path d="M238.424 118.249H223.408V124.279H238.424V118.249Z" stroke="#263238" stroke-linecap="round"
      stroke-linejoin="round" />
    <path d="M230.197 110.744H215.182V116.775H230.197V110.744Z" stroke="#263238" stroke-linecap="round"
      stroke-linejoin="round" />
    <path d="M142.738 103.576H127.723V109.606H142.738V103.576Z" stroke="#263238" stroke-linecap="round"
      stroke-linejoin="round" />
    <path d="M150.67 95.5479H135.654V101.578H150.67V95.5479Z" stroke="#263238" stroke-linecap="round"
      stroke-linejoin="round" />
    <path d="M198.637 51.0898H183.621V57.1202H198.637V51.0898Z" stroke="#263238" stroke-linecap="round"
      stroke-linejoin="round" />
    <path d="M221.596 118.249H206.58V124.279H221.596V118.249Z" stroke="#263238" stroke-linecap="round"
      stroke-linejoin="round" />
    <path d="M150.225 141.804C164.819 141.642 179.865 141.642 194.014 141.804" stroke="#263238" stroke-linecap="round"
      stroke-linejoin="round" />
    <path d="M144.213 141.805H147.878" stroke="#263238" stroke-linecap="round" stroke-linejoin="round" />
    <path d="M217.053 195.946C223.472 195.838 229.878 195.814 236.269 195.874" stroke="#263238" stroke-linecap="round"
      stroke-linejoin="round" />
    <path d="M219.334 79.5503H217.264" stroke="#263238" stroke-linecap="round" stroke-linejoin="round" />
    <path d="M241.157 79.5503H221.688" stroke="#263238" stroke-linecap="round" stroke-linejoin="round" />
    <path
      d="M193.622 123.978L183.559 116.335C183.559 116.335 171.378 93.2845 170.686 92.4419L167.039 97.1543C167.039 97.1543 173.912 117.225 174.929 120.024C175.946 122.823 180.129 125.982 182.151 128.131C184.173 130.279 192.196 135.925 192.196 135.925L193.622 123.978Z"
      fill="white" stroke="#263238" stroke-linecap="round" stroke-linejoin="round" />
    <path
      d="M143.514 191.559H134.239C131.446 191.558 128.759 190.49 126.729 188.572C124.699 186.654 123.48 184.031 123.322 181.243L122.816 172.336H154.93L154.425 181.243C154.268 184.031 153.05 186.653 151.021 188.571C148.992 190.489 146.306 191.558 143.514 191.559Z"
      fill="#263238" />
    <path
      d="M187.2 107.837C187.201 101.392 185.913 95.0125 183.411 89.0732C180.91 83.1338 177.246 77.7548 172.634 73.2528C168.023 68.7508 162.558 65.2167 156.56 62.8585C150.562 60.5003 144.154 59.3657 137.711 59.5214C111.579 60.1233 90.4849 81.7894 90.5451 107.951C90.5598 120.307 95.3239 132.184 103.852 141.124C108.812 146.258 112.315 152.621 113.999 159.559L114.318 160.919H163.433L163.62 160.118C165.371 152.889 168.993 146.247 174.122 140.86C182.535 131.924 187.214 120.11 187.2 107.837Z"
      fill="white" />
    <path opacity="0.4"
      d="M137.711 59.5219C111.579 60.1238 90.4849 81.7899 90.5451 107.952C90.5598 120.307 95.3239 132.184 103.852 141.125C108.812 146.259 112.315 152.622 113.999 159.559L114.318 160.919H163.433L163.62 160.119C165.371 152.888 168.995 146.246 174.128 140.86C180.635 133.911 184.945 125.196 186.517 115.806C188.088 106.417 186.851 96.7726 182.961 88.0838C179.071 79.395 172.701 72.0489 164.65 66.9675C156.6 61.8861 147.228 59.2959 137.711 59.5219ZM138.716 146.848C130.183 146.847 121.842 144.316 114.747 139.574C107.653 134.832 102.124 128.094 98.8589 120.21C95.5943 112.326 94.7407 103.651 96.4062 95.2817C98.0716 86.9127 102.181 79.2254 108.216 73.192C114.25 67.1586 121.938 63.05 130.307 61.3857C138.676 59.7214 147.351 60.5762 155.235 63.8419C163.118 67.1077 169.856 72.6378 174.597 79.7329C179.337 86.828 181.868 95.1696 181.868 103.703C181.868 109.369 180.751 114.98 178.583 120.215C176.414 125.45 173.236 130.207 169.228 134.213C165.221 138.22 160.464 141.398 155.229 143.566C149.994 145.734 144.382 146.849 138.716 146.848Z"
      fill="#29538E" />
    <path
      d="M187.2 107.837C187.201 101.392 185.913 95.0125 183.411 89.0732C180.91 83.1338 177.246 77.7548 172.634 73.2528C168.023 68.7508 162.558 65.2167 156.56 62.8585C150.562 60.5003 144.154 59.3657 137.711 59.5214C111.579 60.1233 90.4849 81.7894 90.5451 107.951C90.5598 120.307 95.3239 132.184 103.852 141.124C108.812 146.258 112.315 152.621 113.999 159.559L114.318 160.919H163.433L163.62 160.118C165.371 152.889 168.993 146.247 174.122 140.86C182.535 131.924 187.214 120.11 187.2 107.837V107.837Z"
      stroke="#263238" stroke-miterlimit="10" />
    <path
      d="M122.382 185.317H155.369C158.054 183.832 160.319 181.69 161.952 179.091C163.584 176.492 164.531 173.522 164.703 170.458L165.54 155.671H112.211L113.041 170.458C113.216 173.522 114.164 176.492 115.798 179.091C117.431 181.689 119.696 183.831 122.382 185.317Z"
      fill="#29538E" stroke="#263238" stroke-linecap="round" stroke-linejoin="round" />
    <path
      d="M165.294 161.039L113.446 165.222C112.923 165.265 112.404 165.099 112.004 164.761C111.603 164.422 111.353 163.939 111.309 163.416C111.267 162.894 111.434 162.377 111.772 161.976C112.11 161.576 112.593 161.326 113.115 161.28L164.975 157.079C165.497 157.036 166.016 157.201 166.416 157.54C166.817 157.878 167.067 158.362 167.111 158.885C167.134 159.146 167.106 159.409 167.027 159.658C166.948 159.908 166.82 160.14 166.651 160.34C166.482 160.54 166.275 160.705 166.042 160.825C165.809 160.945 165.555 161.018 165.294 161.039Z"
      fill="#29538E" stroke="#263238" stroke-linecap="round" stroke-linejoin="round" />
    <path
      d="M165.281 168.887L113.987 173.028C113.465 173.068 112.948 172.901 112.548 172.563C112.148 172.225 111.898 171.743 111.85 171.222C111.808 170.7 111.975 170.182 112.313 169.782C112.651 169.382 113.134 169.132 113.656 169.086L164.962 164.903C165.484 164.861 166.002 165.027 166.402 165.366C166.802 165.704 167.053 166.186 167.099 166.708C167.126 166.971 167.1 167.237 167.023 167.49C166.946 167.743 166.819 167.978 166.65 168.181C166.48 168.384 166.272 168.551 166.037 168.673C165.802 168.794 165.545 168.867 165.281 168.887Z"
      fill="#29538E" stroke="#263238" stroke-linecap="round" stroke-linejoin="round" />
    <path
      d="M163.699 176.903L116.43 180.719C115.909 180.759 115.392 180.592 114.992 180.254C114.592 179.916 114.341 179.435 114.294 178.913C114.251 178.39 114.416 177.871 114.754 177.469C115.093 177.068 115.576 176.817 116.099 176.771L163.368 172.955C163.89 172.915 164.406 173.082 164.806 173.42C165.206 173.758 165.457 174.239 165.504 174.761C165.546 175.283 165.38 175.802 165.042 176.203C164.704 176.604 164.221 176.856 163.699 176.903Z"
      fill="#29538E" stroke="#263238" stroke-linecap="round" stroke-linejoin="round" />
    <path
      d="M176.451 269.021C176.451 269.021 177.546 275.713 176.451 278.837H154.315C154.315 278.837 153.382 276.495 154.315 275.015C155.248 273.534 162.265 272.698 164.45 270.7C166.122 269.039 167.635 267.226 168.97 265.283L176.451 269.021Z"
      fill="#263238" stroke="#263238" stroke-miterlimit="10" />
    <path d="M153.9 277.65H176.746L176.939 278.83H153.9V277.65Z" fill="white" stroke="#263238" stroke-linecap="round"
      stroke-linejoin="round" />
    <path
      d="M171.132 268.202C171.132 268.202 169.049 268.702 168.815 268.804C168.58 268.906 166.558 272 164.529 272.547C162.501 273.095 160.473 272.987 160.786 273.974"
      stroke="white" stroke-linecap="round" stroke-linejoin="round" />
    <path d="M166.521 268.202L168.893 269.947" stroke="white" stroke-linecap="round" stroke-linejoin="round" />
    <path d="M165.42 269.73L167.707 271.41" stroke="white" stroke-linecap="round" stroke-linejoin="round" />
    <path d="M163.957 271.073L165.943 272.993" stroke="white" stroke-linecap="round" stroke-linejoin="round" />
    <path d="M161.953 272.054L162.814 273.949" stroke="white" stroke-linecap="round" stroke-linejoin="round" />
    <path
      d="M176.812 272.03C174.238 271.815 171.647 272.136 169.204 272.974C165.226 274.371 163.854 275.586 163.956 275.954C164.059 276.321 164.528 277.404 164.528 277.404H166.52C166.52 277.404 165.798 276.134 165.918 275.954C166.039 275.773 172.858 273.119 176.788 273.588L176.812 272.03Z"
      fill="white" />
    <path
      d="M208.788 278.831C208.788 278.831 209.642 275.575 208.643 274.365C206.838 272.199 208.86 270.381 207.06 269.629L206.308 270.502C206.164 269.617 206.585 266.921 203.251 266.566C199.219 266.144 199.14 269.075 198.924 270.044L198.99 268.69C197.269 268.69 198.159 270.405 195.553 273.216C194.871 273.972 194.352 274.861 194.029 275.828C193.706 276.794 193.585 277.816 193.676 278.831H208.788Z"
      fill="#263238" stroke="#263238" stroke-miterlimit="10" />
    <path d="M193.658 277.65H209.125L208.788 278.83H193.676L193.658 277.65Z" fill="white" stroke="#263238"
      stroke-linecap="round" stroke-linejoin="round" />
    <path d="M198.605 273.077C198.605 273.077 203.685 271.398 206.134 273.498" stroke="white" stroke-linecap="round"
      stroke-linejoin="round" />
    <path d="M198.605 271.969C198.605 271.969 203.071 270.555 206.134 272.445" stroke="white" stroke-linecap="round"
      stroke-linejoin="round" />
    <path d="M198.887 270.874C198.887 270.874 203.1 269.292 206.151 271.476" stroke="white" stroke-linecap="round"
      stroke-linejoin="round" />
    <path
      d="M195.554 273.233L196.059 273.727C196.127 273.794 196.17 273.884 196.18 273.979C196.19 274.074 196.166 274.17 196.113 274.251C195.441 275.264 195.081 276.453 195.078 277.669H194.338C194.503 276.482 194.865 275.331 195.409 274.263L195.03 273.877L195.554 273.233Z"
      fill="white" />
    <path d="M180.435 237.551C180.435 237.551 177.149 243.136 171.594 241.944" stroke="#263238" stroke-linecap="round"
      stroke-linejoin="round" />
    <path
      d="M183.907 173.979L181.753 178.535C175.835 191.242 171.034 204.44 167.405 217.979C167.273 218.479 164.456 228.451 166.713 253.289L165.425 257.646L166.833 264.868C166.833 264.868 164.715 267.925 164.793 268.931C164.793 268.931 170.017 269.906 171.762 270.838C173.117 271.567 177.179 275.593 177.179 275.593C178.334 275.352 178.431 270.682 178.431 270.682C178.431 270.682 180.838 229.227 181.542 227.434C182.246 225.64 186.477 217.949 193.091 200.321C193.091 200.321 193.242 224.942 195.011 231.171C196.582 236.714 194.722 252.236 194.722 252.236L195.782 269.496C195.782 269.496 192.062 273.36 195.078 274.401C195.078 274.401 197.094 270.519 202.841 269.641C205.76 269.189 209.401 274.377 209.401 274.377C210.677 273.968 208.86 267.45 208.86 267.45C212.928 236.726 209.925 242.287 210.737 227.265C211.261 217.636 213.993 176.386 210.785 173.04L183.907 173.979Z"
      fill="#757575" />
    <path opacity="0.2"
      d="M212.338 188.176C197.954 189.307 185.496 184.601 180.098 182.158C181.121 179.852 181.753 178.546 181.753 178.546L183.907 173.991L210.797 173.016C211.959 174.213 212.338 180.358 212.338 188.176Z"
      fill="black" />
    <path opacity="0.2"
      d="M192.99 200.61C186.442 218.015 182.241 225.634 181.555 227.409C181.157 228.438 180.194 242.515 179.448 254.335C178.582 243.587 177.697 232.242 177.643 230.015C177.48 225.586 180.682 219.507 181.163 217.936C181.645 216.366 180.562 214.668 180.562 214.668L186.321 207.41C186.129 204.943 189.174 194.17 189.174 194.17C190.961 195.909 192.586 199.556 192.99 200.61Z"
      fill="black" />
    <path
      d="M183.907 173.979L181.753 178.535C175.835 191.242 171.034 204.44 167.405 217.979C167.273 218.479 164.456 228.451 166.713 253.289L165.425 257.646L166.833 264.868C166.833 264.868 164.715 267.925 164.793 268.931C164.793 268.931 170.017 269.906 171.762 270.838C173.117 271.567 177.179 275.593 177.179 275.593C178.334 275.352 178.431 270.682 178.431 270.682C178.431 270.682 180.838 229.227 181.542 227.434C182.246 225.64 186.477 217.949 193.091 200.321C193.091 200.321 193.242 224.942 195.011 231.171C196.582 236.714 194.722 252.236 194.722 252.236L195.782 269.496C195.782 269.496 192.062 273.36 195.078 274.401C195.078 274.401 197.094 270.519 202.841 269.641C205.76 269.189 209.401 274.377 209.401 274.377C210.677 273.968 208.86 267.45 208.86 267.45C212.928 236.726 209.925 242.287 210.737 227.265C211.261 217.636 213.993 176.386 210.785 173.04L183.907 173.979Z"
      stroke="#263238" stroke-linecap="round" stroke-linejoin="round" />
    <path d="M193.104 200.297C193.104 200.297 189.818 193.954 187.014 192.185" stroke="#263238" stroke-linecap="round"
      stroke-linejoin="round" />
    <path d="M185.785 190.132C185.785 190.132 195.77 193.141 199.23 193.743" stroke="#263238" stroke-linecap="round"
      stroke-linejoin="round" />
    <path
      d="M190.895 179.949C190.462 188.267 187.531 189.681 190.365 191.492C190.365 191.492 190.287 195.38 191.695 197.848"
      stroke="#263238" stroke-linecap="round" stroke-linejoin="round" />
    <path d="M208.391 176.766C208.391 176.766 207.187 189.543 211.142 191.944" stroke="#263238" stroke-linecap="round"
      stroke-linejoin="round" />
    <path
      d="M211.141 180.882C211.141 180.882 211.436 189.386 211.141 196.241C211.141 196.241 210.16 225.207 209.179 228.848C208.198 232.489 210.69 237.972 210.473 253.704"
      stroke="#263238" stroke-linecap="round" stroke-linejoin="round" />
    <path d="M201.705 266.011C202.639 265.81 203.613 265.94 204.462 266.378" stroke="#263238" stroke-linecap="round"
      stroke-linejoin="round" />
    <path d="M195.795 269.459C197.025 268.262 198.45 267.281 200.008 266.559" stroke="#263238" stroke-linecap="round"
      stroke-linejoin="round" />
    <path d="M197.438 202.307C199.646 204.774 203.137 209.438 206.718 209.836" stroke="#263238" stroke-linecap="round"
      stroke-linejoin="round" />
    <path d="M194.043 198.274C194.717 199.135 195.421 199.972 196.131 200.802" stroke="#263238" stroke-linecap="round"
      stroke-linejoin="round" />
    <path d="M197.184 227.229C197.184 227.229 202.197 234.053 204.947 234.451" stroke="#263238" stroke-linecap="round"
      stroke-linejoin="round" />
    <path
      d="M191.285 199.062C191.285 199.062 182.36 223.93 179.249 226.386C179.249 226.386 178.894 244.67 178.797 251.061C178.701 257.453 177.227 265.938 177.227 265.938"
      stroke="#263238" stroke-linecap="round" stroke-linejoin="round" />
    <path
      d="M167.701 265.753C167.701 265.753 171.138 266.957 172.811 267.697C173.837 268.192 174.643 269.05 175.074 270.104"
      stroke="#263238" stroke-linecap="round" stroke-linejoin="round" />
    <path d="M176.396 217.419C181.211 214.41 187.512 210.655 190.058 205.353" stroke="#263238" stroke-linecap="round"
      stroke-linejoin="round" />
    <path d="M172.221 219.899C173.129 219.399 174.026 218.875 174.905 218.34" stroke="#263238" stroke-linecap="round"
      stroke-linejoin="round" />
    <path d="M187.326 183.301C189.902 183.265 192.743 182.921 194.927 181.495" stroke="#263238" stroke-linecap="round"
      stroke-linejoin="round" />
    <path d="M183.229 183.061C183.969 183.163 184.709 183.229 185.455 183.265" stroke="#263238" stroke-linecap="round"
      stroke-linejoin="round" />
    <path
      d="M196.577 129.148C196.577 129.148 211.731 124.845 220.446 129.509C222.613 130.664 227.566 134.426 227.391 138.934C227.217 143.441 212.875 164.427 213.049 167.22C213.224 170.012 213.049 177.234 211.99 177.728C210.931 178.221 187.917 178.889 182.235 177.427C179.966 176.825 184.426 166.106 184.426 166.106C184.426 166.106 188.771 142.846 196.577 129.148Z"
      fill="#29538E" stroke="#263238" stroke-linecap="round" stroke-linejoin="round" />
    <path
      d="M218.153 128.347C218.153 128.347 208.571 132.181 205.43 128.173C205.963 128.204 206.495 128.099 206.977 127.868C207.459 127.638 207.875 127.289 208.186 126.855C208.681 126.093 208.95 125.206 208.962 124.297C209.011 123.587 207.602 114.475 208.186 113.657C217.015 101.319 218.965 119.434 218.965 119.434C218.965 119.434 215.841 127.21 218.153 128.347Z"
      fill="white" stroke="#263238" stroke-linecap="round" stroke-linejoin="round" />
    <path
      d="M211.441 123.406C211.441 123.406 210.84 126.253 208.186 126.855C208.681 126.093 208.95 125.206 208.962 124.297C209.814 124.076 210.644 123.778 211.441 123.406Z"
      fill="#263238" />
    <path
      d="M219.867 125.134L209.96 127.764V132.91C209.96 132.91 207.084 140.101 207.174 141.269C207.264 142.437 209.96 189.32 209.96 189.32C209.96 189.32 218.007 188.718 220.914 183.722C220.914 183.722 219.746 165.547 220.914 162.556C221.673 160.32 222.114 157.988 222.226 155.629C222.226 155.629 229.803 141.468 228.118 137.146C226.433 132.825 221.173 128.618 221.173 128.618L219.867 125.134Z"
      fill="#263238" />
    <path
      d="M211.105 128.498C211.105 128.498 212.736 133.83 212.941 133.722C213.146 133.613 218.809 131.314 220.338 129.039"
      stroke="white" stroke-linecap="round" stroke-linejoin="round" />
    <path
      d="M207.71 127.39C207.565 127.186 201.402 123.406 201.402 123.406L198.231 124.249L193.548 121.324C193.548 121.324 188.806 135.768 188.944 139.108C189.083 142.448 184.027 160.943 183.287 168.243C183.287 168.243 189.305 156.375 190.166 154.304C191.027 152.234 193.819 138.296 196.13 135.046C198.441 131.796 203.846 127.757 203.846 127.757L207.71 127.39Z"
      fill="#263238" />
    <path
      d="M219.308 118.206C219.763 116.999 219.944 115.706 219.837 114.421C219.187 105.291 217.033 103.166 213.476 103.762C200.193 105.977 204.129 112.718 203.624 114.956C203.118 117.195 201.216 117.364 201.487 118.381C201.59 118.784 203.154 118.826 203.154 118.826L203.251 120.933L203.852 121.077C203.852 121.077 204.334 125.892 205.556 126.427C207.102 127.132 211.724 124.339 211.712 122.606"
      fill="white" />
    <path
      d="M219.308 118.206C219.763 116.999 219.944 115.706 219.837 114.421C219.187 105.291 217.033 103.166 213.476 103.762C200.193 105.977 204.129 112.718 203.624 114.956C203.118 117.195 201.216 117.364 201.487 118.381C201.59 118.784 203.154 118.826 203.154 118.826L203.251 120.933L203.852 121.077C203.852 121.077 204.334 125.892 205.556 126.427C207.102 127.132 211.724 124.339 211.712 122.606"
      stroke="#263238" stroke-linecap="round" stroke-linejoin="round" />
    <path d="M204.658 111.676C204.658 111.676 206.524 111.297 207.457 112.79" stroke="#263238" stroke-linecap="round"
      stroke-linejoin="round" />
    <path
      d="M205.435 114.439C205.501 114.884 205.748 115.209 205.977 115.173C206.205 115.137 206.338 114.752 206.272 114.313C206.205 113.873 205.959 113.542 205.73 113.578C205.501 113.614 205.369 114 205.435 114.439Z"
      fill="#263238" />
    <path d="M203.846 121.077C204.826 121.079 205.801 120.937 206.741 120.656" stroke="#263238" stroke-linecap="round"
      stroke-linejoin="round" />
    <path
      d="M206.337 120.789C206.337 120.789 205.567 121.86 204.875 121.86C204.183 121.86 204.141 121.324 204.141 121.324"
      stroke="#263238" stroke-linecap="round" stroke-linejoin="round" />
    <path
      d="M220.108 105.201C220.108 105.201 220.77 102.366 214.162 101.987C209.004 101.692 204.292 102.144 202.553 105.484C200.813 108.824 200.994 111.827 203.479 112.212C203.695 110.972 204.159 109.789 204.843 108.732C205.526 107.675 206.415 106.767 207.457 106.062C207.457 106.062 206.013 109.793 208.186 111.635C208.662 112.045 209.206 112.371 209.793 112.597C209.952 112.917 210.154 113.212 210.394 113.476C211.442 114.68 211.484 117.171 211.484 117.171L212.495 116.57C212.495 116.57 211.026 112.682 215.293 113.596C217.484 114.066 217.099 116.714 217.418 118.363C217.737 120.012 218.622 120.463 218.622 120.463C219.613 119.346 220.392 118.057 220.921 116.66C220.921 116.66 223.099 115.107 223.099 112.826C223.099 110.545 222.485 106.838 220.108 105.201Z"
      fill="#263238" />
    <path
      d="M212.939 113.663C212.939 113.663 214.324 111.532 215.551 111.484C216.779 111.436 217.604 115.697 216.478 117.352C215.353 119.007 214.245 119.561 213.734 119.067C213.586 118.907 213.477 118.716 213.414 118.507C213.352 118.299 213.338 118.079 213.373 117.864"
      fill="white" />
    <path
      d="M212.939 113.663C212.939 113.663 214.324 111.532 215.551 111.484C216.779 111.436 217.604 115.697 216.478 117.352C215.353 119.007 214.245 119.561 213.734 119.067C213.586 118.907 213.477 118.716 213.414 118.507C213.352 118.299 213.338 118.079 213.373 117.864"
      stroke="#263238" stroke-linecap="round" stroke-linejoin="round" />
    <path d="M196.799 130.466C198.296 128.811 199.643 127.027 200.825 125.134" stroke="white" stroke-linecap="round"
      stroke-linejoin="round" />
    <path d="M196.799 125.134C197.648 125.458 198.358 126.066 198.809 126.855" stroke="white" stroke-linecap="round"
      stroke-linejoin="round" />
    <path
      d="M193.55 121.324L188.591 119.241L186.912 116.684C184.204 120.992 182.939 126.052 183.301 131.128L186.057 132.885L189.819 141.431L193.55 121.324Z"
      fill="#263238" />
    <path
      d="M211.521 141.431C211.521 141.431 216.504 148.461 214.055 151.434C212.905 152.836 202.752 156.206 202.752 156.206L172.299 154.401L162.164 156.206L161.033 156.297C160.931 156.17 160.857 156.023 160.816 155.866C160.774 155.708 160.766 155.544 160.792 155.384C160.818 155.223 160.878 155.07 160.967 154.934C161.056 154.798 161.173 154.682 161.31 154.594C161.31 154.594 160.762 153.27 160.991 152.975C161.683 152.09 164.836 150.639 164.836 150.639C164.836 150.639 161.195 151.548 162.694 149.592C163.717 148.262 167.605 147.985 169.398 146.812C170.873 145.843 169.585 140.468 172.787 141.431C172.241 142.888 172.036 144.451 172.185 145.999C172.233 146.391 172.317 148.316 172.317 148.316C173.942 150.176 191.365 147.769 192.864 147.715C194.363 147.66 201.663 146.559 201.663 146.559L211.521 141.431Z"
      fill="white" stroke="#263238" stroke-linecap="round" stroke-linejoin="round" />
    <path
      d="M167.525 148.479C167.703 148.855 167.798 149.266 167.802 149.683C167.724 150.08 166.652 150.832 166.652 150.832C166.59 151.213 166.59 151.601 166.652 151.982C166.773 152.259 165.503 153.246 165.503 153.601C165.393 154.016 165.205 154.406 164.949 154.75"
      stroke="#263238" stroke-linecap="round" stroke-linejoin="round" />
    <path d="M161.291 154.611C161.766 154.972 163.795 152.968 164.932 152.872" stroke="#263238" stroke-linecap="round"
      stroke-linejoin="round" />
    <path d="M163.963 154.888C163.129 155.411 162.239 155.837 161.309 156.158" stroke="#263238" stroke-linecap="round"
      stroke-linejoin="round" />
    <path
      d="M210.641 141.335L211.417 140.011C211.417 140.011 213.463 140.884 214.017 140.011C214.571 139.138 220.764 136.286 221.955 136.364"
      stroke="white" stroke-linecap="round" stroke-linejoin="round" />
    <path
      d="M213.17 152.866C213.17 152.866 214.674 154.413 215.072 153.757C215.469 153.101 220.849 152.818 223.094 150.958"
      stroke="white" stroke-linecap="round" stroke-linejoin="round" />
    <path d="M211.736 159.138C211.736 159.378 215.708 171.836 217.291 173.582" stroke="white" stroke-linecap="round"
      stroke-linejoin="round" />
    <path d="M203.642 160.407C203.167 160.726 193.934 168.424 190.059 168.502" stroke="#263238" stroke-linecap="round"
      stroke-linejoin="round" />
    <path d="M196.799 138.85C196.799 139.301 199.531 143.032 200.825 144.061" stroke="#263238" stroke-linecap="round"
      stroke-linejoin="round" />
    <path
      d="M160.534 179.678C162.141 179.678 159.68 182.278 159.68 182.278C159.625 184.173 159.255 186.047 158.584 187.821L163.568 195.524L159.283 198.93L154.931 190.096C154.931 190.096 151.134 188.735 152.048 186.484C152.614 185.064 154.456 184.908 154.456 184.908C156.267 182.929 158.308 181.173 160.534 179.678Z"
      fill="white" stroke="#263238" stroke-linecap="round" stroke-linejoin="round" />
    <path
      d="M156.303 194.333C156.303 194.333 158.921 190.3 161.719 190.565L162.772 192.973C162.772 192.973 164.5 193.063 165.541 195.518C166.582 197.974 172.354 204.799 172.354 204.799L163.994 213.471C163.994 213.471 157.013 198.798 157.374 196.415L156.303 194.333Z"
      fill="#BFBFBF" />
    <path opacity="0.2"
      d="M156.303 194.333C156.303 194.333 158.921 190.3 161.719 190.565L162.772 192.973C162.772 192.973 164.5 193.063 165.541 195.518C166.582 197.974 172.354 204.799 172.354 204.799L163.994 213.471C163.994 213.471 157.013 198.798 157.374 196.415L156.303 194.333Z"
      fill="black" />
    <path
      d="M156.303 194.333C156.303 194.333 158.921 190.3 161.719 190.565L162.772 192.973C162.772 192.973 164.5 193.063 165.541 195.518C166.582 197.974 172.354 204.799 172.354 204.799L163.994 213.471C163.994 213.471 157.013 198.798 157.374 196.415L156.303 194.333Z"
      stroke="#263238" stroke-linecap="round" stroke-linejoin="round" />
    <path
      d="M176.814 173.684C176.814 173.684 166.239 175.242 168.123 187.454C170.007 199.665 168.827 201.38 168.936 206.411C169.044 211.443 172.354 213.477 172.354 213.477L174.936 204.756C174.936 204.756 173.648 206.411 174.075 199.984C174.503 193.556 174.611 185.311 174.611 185.311"
      fill="#29538E" />
    <path opacity="0.2"
      d="M176.814 173.684C176.814 173.684 166.239 175.242 168.123 187.454C170.007 199.665 168.827 201.38 168.936 206.411C169.044 211.443 172.354 213.477 172.354 213.477L174.936 204.756C174.936 204.756 173.648 206.411 174.075 199.984C174.503 193.556 174.611 185.311 174.611 185.311"
      fill="black" />
    <path
      d="M176.814 173.684C176.814 173.684 166.239 175.242 168.123 187.454C170.007 199.665 168.827 201.38 168.936 206.411C169.044 211.443 172.354 213.477 172.354 213.477L174.936 204.756C174.936 204.756 173.648 206.411 174.075 199.984C174.503 193.556 174.611 185.311 174.611 185.311"
      stroke="#263238" stroke-linecap="round" stroke-linejoin="round" />
    <path d="M170.32 192.455C170.32 192.455 171.524 199.075 170.645 203.661" stroke="#263238" stroke-linecap="round"
      stroke-linejoin="round" />
    <path
      d="M146.999 201.254C146.099 199.808 145.469 198.211 145.139 196.541C145.807 195.669 145.428 191.612 145.452 191.203C145.476 190.794 143.291 188.747 142.443 185.889C141.888 186.4 141.552 187.104 141.504 187.857C141.558 189.06 142.142 189.969 141.925 190.174C140.776 191.257 137.76 189.981 136.846 189.656C134.823 188.946 133.836 189.999 134.86 191.125C135.221 191.522 135.997 191.233 135.931 192.208C135.865 193.183 135.708 192.34 136.226 193.911C136.743 195.482 136.557 195.981 137.736 196.77L140.788 198.816L143.237 204.022L146.999 201.254Z"
      fill="white" stroke="#263238" stroke-linecap="round" stroke-linejoin="round" />
    <path
      d="M171.867 240.223C171.867 240.223 176.08 233.994 186.57 233.645C197.06 233.296 196.542 239.561 196.542 239.561C196.542 239.561 201.995 247.559 201.357 253.812C200.719 260.066 192.522 265.639 192.522 265.639C192.522 265.639 209.265 269.556 211.179 268.744C213.093 267.932 216.98 276.249 215.482 278.115C213.983 279.98 166.643 276.791 166.643 276.791C166.643 276.791 161.931 271.248 161.72 267.372C161.509 263.496 172.15 248.631 171.861 247.92C171.572 247.21 171.867 240.223 171.867 240.223Z"
      fill="#263238" />
    <path
      d="M189.609 247.289C189.609 247.289 191.011 258.892 185.047 260.908L165.397 268.81C165.397 268.81 192.738 271.176 196.903 270.333C201.068 269.49 206.912 277.94 206.912 277.94H157.019C148.515 277.94 143.659 271.206 145.374 265.783C147.089 260.361 170.368 244.388 170.368 244.388C170.368 244.388 169.164 238.532 181.929 234.223C193.448 230.335 189.609 247.289 189.609 247.289Z"
      fill="#263238" />
    <path
      d="M193.641 231.292C193.641 231.292 196.65 235.956 195.579 237.015C195.579 237.015 183.482 232.7 171.096 242.618C170.868 242.799 170.645 242.985 170.416 243.178L169.519 240L171.704 238.195C171.704 238.195 171.307 236.618 170.994 234.632C170.681 232.646 170.422 230.082 170.783 228.421C170.819 228.246 170.338 227.524 169.772 226.23C169.069 224.606 168.591 222.893 168.352 221.139C167.923 217.776 168.142 214.362 168.996 211.082C169.46 209.171 170.063 207.296 170.801 205.473C172.559 201.067 181.448 198.997 191.793 201.687C193.038 202.004 194.133 202.747 194.887 203.788C200.105 210.805 193.641 231.292 193.641 231.292Z"
      fill="#BFBFBF" />
    <path opacity="0.2"
      d="M168.346 221.15C167.918 217.788 168.136 214.374 168.99 211.094L171.181 210.396C171.181 210.396 172.607 214.488 168.346 221.15Z"
      fill="black" />
    <path opacity="0.2"
      d="M170.993 234.643C170.662 232.585 170.421 230.093 170.783 228.432C170.819 228.257 170.337 227.535 169.771 226.241C169.771 226.241 174.821 230.201 176.813 229.852C178.017 229.636 174.207 232.41 170.993 234.643Z"
      fill="black" />
    <path opacity="0.2"
      d="M193.64 231.291C193.64 231.291 196.65 235.955 195.578 237.014C195.578 237.014 183.481 232.699 171.096 242.617C173.467 239.608 177.114 236.13 181.592 235.094C189.873 233.187 193.105 233.457 193.105 233.457L190.421 229.979C190.421 229.979 181.393 229.979 176.813 223.124C179.187 223.907 181.663 224.341 184.162 224.412C187.532 224.484 191.51 221.661 192.72 220.735C191.691 221.409 188.507 222.636 183.211 217.352C176.663 210.804 176.338 198.605 190.421 202.018C191.984 202.409 193.485 203.017 194.88 203.823C200.104 210.804 193.64 231.291 193.64 231.291Z"
      fill="black" />
    <path
      d="M193.641 231.292C193.641 231.292 196.65 235.956 195.579 237.015C195.579 237.015 183.482 232.7 171.096 242.618C170.868 242.799 170.645 242.985 170.416 243.178L169.519 240L171.704 238.195C171.704 238.195 171.307 236.618 170.994 234.632C170.681 232.646 170.422 230.082 170.783 228.421C170.819 228.246 170.338 227.524 169.772 226.23C169.069 224.606 168.591 222.893 168.352 221.139C167.923 217.776 168.142 214.362 168.996 211.082C169.46 209.171 170.063 207.296 170.801 205.473C172.559 201.067 181.448 198.997 191.793 201.687C193.038 202.004 194.133 202.747 194.887 203.788C200.105 210.805 193.641 231.292 193.641 231.292Z"
      stroke="#263238" stroke-linecap="round" stroke-linejoin="round" />
    <path
      d="M194.285 252.036C194.394 256.213 188.333 260.498 184.885 260.173C184.885 260.173 179.125 264.386 172.463 265.969"
      stroke="white" stroke-linecap="round" stroke-linejoin="round" />
    <path
      d="M158.229 266.709C158.229 266.709 166.239 265.854 169.194 267.281C172.149 268.707 186.852 270.838 189.283 270.416"
      stroke="white" stroke-linecap="round" stroke-linejoin="round" />
    <path
      d="M183.861 243.177C183.861 243.177 187.785 242.352 190.715 243.177C190.715 243.177 191.143 247.57 190.715 250.002L187.381 251.711C186.186 251.346 185.011 250.918 183.861 250.429C183.644 250.212 183.668 245.717 183.373 244.862"
      stroke="white" stroke-linecap="round" stroke-linejoin="round" />
    <path
      d="M200.568 251.146L199.719 251.712L197.637 249.858C197.709 247.86 195.994 243.575 195.994 243.575C196.775 243.469 197.569 243.593 198.281 243.93"
      stroke="white" stroke-linecap="round" stroke-linejoin="round" />
    <path d="M192.793 259C193.53 259.457 194.351 259.762 195.208 259.897C196.065 260.031 196.94 259.992 197.782 259.782"
      stroke="white" stroke-linecap="round" stroke-linejoin="round" />
    <path d="M191.925 265.969C191.925 265.969 188.669 268.208 183.373 266.992" stroke="white" stroke-linecap="round"
      stroke-linejoin="round" />
    <path d="M183.374 259.71C183.374 259.71 178.433 258.085 177.289 255.792" stroke="white" stroke-linecap="round"
      stroke-linejoin="round" />
    <path d="M174.074 258.566C174.435 258.855 177.288 259.71 180.327 259.71" stroke="white" stroke-linecap="round"
      stroke-linejoin="round" />
    <path d="M157.02 264.14C157.02 264.14 159.511 264.741 160.155 265.638" stroke="white" stroke-linecap="round"
      stroke-linejoin="round" />
    <path d="M187.93 271.633C187.93 271.633 185.523 273.204 185.571 275.274" stroke="white" stroke-linecap="round"
      stroke-linejoin="round" />
    <path
      d="M207.074 271.717C207.206 268.268 210.39 269.7 210.39 269.7C210.39 269.7 212.719 266.276 214.976 267.076C217.233 267.877 217.817 269.062 221.404 270.326C224.99 271.59 229.865 270.597 231.189 274.01C232.513 277.422 230.822 279.336 222.728 278.71C214.633 278.084 212.496 277.825 212.496 277.825C212.496 277.825 206.803 278.65 207.074 271.717Z"
      fill="#29538E" stroke="#263238" stroke-linecap="round" stroke-linejoin="round" />
    <path
      d="M210.222 270.988C210.155 271.719 210.269 272.454 210.552 273.131C210.835 273.808 211.28 274.405 211.847 274.87"
      stroke="#263238" stroke-linecap="round" stroke-linejoin="round" />
    <path
      d="M213.519 267.076C211.797 267.763 211.581 271.717 215.565 274.238C219.549 276.76 220.343 274.605 222.859 276.718C225.375 278.83 229.323 279.125 231.598 277.488C233.873 275.851 232.013 272.673 227.77 270.988C223.527 269.303 222.167 270.988 219.832 269.7C217.497 268.413 217.184 265.614 213.519 267.076Z"
      fill="#BFBFBF" stroke="#263238" stroke-linecap="round" stroke-linejoin="round" />
    <path d="M214.897 267.816C214.764 268.25 214.897 272.234 214.897 272.234" stroke="#263238" stroke-linecap="round"
      stroke-linejoin="round" />
    <path d="M216.902 268.027V274.01" stroke="#263238" stroke-linecap="round" stroke-linejoin="round" />
    <path d="M219.014 269.7V274.768" stroke="#263238" stroke-linecap="round" stroke-linejoin="round" />
    <path d="M221.337 270.988L221.066 274.87" stroke="#263238" stroke-linecap="round" stroke-linejoin="round" />
    <path d="M223.92 271.019V276.429" stroke="#263238" stroke-linecap="round" stroke-linejoin="round" />
    <path d="M226.447 271.566V277.488" stroke="#263238" stroke-linecap="round" stroke-linejoin="round" />
    <path d="M229.293 272.607L229.558 277.091" stroke="#263238" stroke-linecap="round" stroke-linejoin="round" />
    <path
      d="M199.279 268.6C197.044 269.037 194.909 269.886 192.984 271.103C192.984 271.103 191.714 269.232 190.523 271.055C189.331 272.879 190.198 279.282 192.984 278C192.984 278 196.962 279.312 204.991 278.512C213.019 277.711 205.388 273.294 205.388 273.294L199.279 268.6Z"
      fill="#29538E" stroke="#263238" stroke-linecap="round" stroke-linejoin="round" />
    <path
      d="M200.014 268.641C196.89 268.004 195.133 273.33 196.607 275.863C198.082 278.397 199.328 278.415 204.889 278.415C210.45 278.415 215.998 278.614 215.655 273.282C215.312 267.949 207.711 269.303 205.9 269.978C204.088 270.652 201.681 268.985 200.014 268.641Z"
      fill="#BFBFBF" stroke="#263238" stroke-linecap="round" stroke-linejoin="round" />
    <path d="M199.021 269.82L199.334 276.988" stroke="#263238" stroke-linecap="round" stroke-linejoin="round" />
    <path d="M201.344 270.489L201.741 276.989" stroke="#263238" stroke-linecap="round" stroke-linejoin="round" />
    <path d="M203.336 270.819L203.733 277.319" stroke="#263238" stroke-linecap="round" stroke-linejoin="round" />
    <path d="M205.713 271.217L206.321 277.319" stroke="#263238" stroke-linecap="round" stroke-linejoin="round" />
    <path d="M208.109 270.489L208.669 277.32" stroke="#263238" stroke-linecap="round" stroke-linejoin="round" />
    <path d="M210.564 270.489L211.359 276.989" stroke="#263238" stroke-linecap="round" stroke-linejoin="round" />
    <path d="M212.953 270.819L213.615 275.923" stroke="#263238" stroke-linecap="round" stroke-linejoin="round" />
    <path d="M192.521 272.145C192.521 272.145 191.919 274.979 192.852 276.592" stroke="#263238" stroke-linecap="round"
      stroke-linejoin="round" />
    <path
      d="M176.085 199.96C175.483 200.074 171.336 200.212 169.591 200.796C165.155 202.265 153.877 211.786 153.877 211.786L146.125 198.1C146.125 198.1 142.749 197.498 141.082 200.507L141.967 203.053C141.683 204.154 141.47 205.271 141.329 206.399C141.124 209.144 147.052 223.431 149.935 224.274C154.449 225.592 166.865 216.203 166.865 216.203C166.865 216.203 172.071 212.731 172.6 209.493"
      fill="#BFBFBF" />
    <path
      d="M176.085 199.96C175.483 200.074 171.336 200.212 169.591 200.796C165.155 202.265 153.877 211.786 153.877 211.786L146.125 198.1C146.125 198.1 142.749 197.498 141.082 200.507L141.967 203.053C141.683 204.154 141.47 205.271 141.329 206.399C141.124 209.144 147.052 223.431 149.935 224.274C154.449 225.592 166.865 216.203 166.865 216.203C166.865 216.203 172.071 212.731 172.6 209.493"
      stroke="#263238" stroke-linecap="round" stroke-linejoin="round" />
    <path
      d="M171.054 177.794C174.033 172.011 179.479 174.027 179.479 174.027C190.084 172.011 190.409 184.36 191.372 190.878C192.335 197.396 195.843 198.889 196.836 204.353C196.993 205.668 196.968 206.999 196.764 208.307C196.631 207.727 196.288 207.217 195.801 206.875C196.006 213.94 191.823 217.443 191.558 217.648C194.519 213.579 194.158 210.943 194.158 210.943C193.015 215.084 188.585 219.158 188.585 219.158C188.585 219.158 184.806 218.304 183.03 212.797C181.459 207.898 179.371 206.177 179.245 206.099C180.681 208.91 181.742 211.899 182.398 214.988C180.322 211.935 178.45 208.749 176.795 205.449C169.423 191.384 170.319 185.528 170.319 185.528"
      fill="#29538E" />
    <path opacity="0.2"
      d="M171.054 177.794C174.033 172.011 179.479 174.027 179.479 174.027C190.084 172.011 190.409 184.36 191.372 190.878C192.335 197.396 195.843 198.889 196.836 204.353C196.993 205.668 196.968 206.999 196.764 208.307C196.631 207.727 196.288 207.217 195.801 206.875C196.006 213.94 191.823 217.443 191.558 217.648C194.519 213.579 194.158 210.943 194.158 210.943C193.015 215.084 188.585 219.158 188.585 219.158C188.585 219.158 184.806 218.304 183.03 212.797C181.459 207.898 179.371 206.177 179.245 206.099C180.681 208.91 181.742 211.899 182.398 214.988C180.322 211.935 178.45 208.749 176.795 205.449C169.423 191.384 170.319 185.528 170.319 185.528"
      fill="black" />
    <path
      d="M171.054 177.794C174.033 172.011 179.479 174.027 179.479 174.027C190.084 172.011 190.409 184.36 191.372 190.878C192.335 197.396 195.843 198.889 196.836 204.353C196.993 205.668 196.968 206.999 196.764 208.307C196.631 207.727 196.288 207.217 195.801 206.875C196.006 213.94 191.823 217.443 191.558 217.648C194.519 213.579 194.158 210.943 194.158 210.943C193.015 215.084 188.585 219.158 188.585 219.158C188.585 219.158 184.806 218.304 183.03 212.797C181.459 207.898 179.371 206.177 179.245 206.099C180.681 208.91 181.742 211.899 182.398 214.988C180.322 211.935 178.45 208.749 176.795 205.449C169.423 191.384 170.319 185.528 170.319 185.528"
      stroke="#263238" stroke-linecap="round" stroke-linejoin="round" />
    <path
      d="M180.25 175.176C180.25 175.176 185.667 171.673 187.677 182.133C189.687 192.593 191.318 193.664 192.317 198.804C193.316 203.944 192.251 208.09 190.746 209.637"
      stroke="#263238" stroke-linecap="round" stroke-linejoin="round" />
    <path
      d="M180.967 176.885C182.826 180.387 184.253 185.1 184.825 193.808C185.396 202.517 185.204 211.508 188.676 214.156"
      stroke="#263238" stroke-linecap="round" stroke-linejoin="round" />
    <path
      d="M175.134 175.887C175.134 175.887 170.422 178.246 173.853 185.311C177.283 192.377 180.99 198.022 180.99 202.091C180.99 206.159 182.098 208.296 184.204 209.018"
      stroke="#263238" stroke-linecap="round" stroke-linejoin="round" />
    <path d="M159.678 182.277C159.678 182.277 158.33 184.42 158.252 185.052" stroke="#263238" stroke-linecap="round"
      stroke-linejoin="round" />
    <path d="M153.878 211.786C153.878 211.786 150.303 213.231 150.742 216.306" stroke="#263238" stroke-linecap="round"
      stroke-linejoin="round" />
    <path d="M149.857 211.244C149.857 211.244 151.181 209.89 152.265 210.402" stroke="#263238" stroke-linecap="round"
      stroke-linejoin="round" />
    <path d="M143.568 201.313C143.568 201.313 145.789 199.652 146.999 199.815" stroke="#263238" stroke-linecap="round"
      stroke-linejoin="round" />
    <path d="M162.773 192.979C161.364 193.319 160.058 193.991 158.963 194.941" stroke="#263238" stroke-linecap="round"
      stroke-linejoin="round" />
    <path d="M173.563 212.713C173.449 212.713 170.693 214.837 168.797 214.729" stroke="#263238" stroke-linecap="round"
      stroke-linejoin="round" />
    <path d="M175.971 221.837C175.971 222.595 183.193 231.129 191.125 229.847" stroke="#263238" stroke-linecap="round"
      stroke-linejoin="round" />
    <path
      d="M73.1109 143.237C73.1109 143.237 79.37 146.589 80.7543 149.562C82.1385 152.535 87.1759 167.87 87.1759 167.87C87.1759 167.87 90.9975 174.159 91.8882 175.435C92.7789 176.711 92.3938 182.055 87.9823 182.019C83.5709 181.983 78.4733 177.776 78.2807 175.874C78.0881 173.973 75.8192 172.865 75.6447 171.222C75.4701 169.579 70.168 158.734 70.168 158.734L73.1109 143.237Z"
      fill="#263238" />
    <path
      d="M80.1699 270.068C80.1699 270.068 79.2251 275.87 80.1699 278.578H99.3565C99.3565 278.578 100.169 276.544 99.3565 275.268C98.544 273.992 92.4655 273.258 90.5757 271.525C89.1256 270.084 87.8139 268.51 86.6577 266.824L80.1699 270.068Z"
      fill="white" stroke="#263238" stroke-linecap="round" stroke-linejoin="round" />
    <path d="M99.7189 277.555H79.9245L79.75 278.578H99.7189V277.555Z" fill="white" stroke="#263238"
      stroke-linecap="round" stroke-linejoin="round" />
    <path
      d="M84.7871 269.364C84.7871 269.364 86.5926 269.798 86.7912 269.87C86.9898 269.942 88.7532 272.638 90.5106 273.108C92.2679 273.577 94.0193 273.493 93.7484 274.347"
      stroke="#263238" stroke-linecap="round" stroke-linejoin="round" />
    <path d="M88.7829 269.364L86.7246 270.881" stroke="#263238" stroke-linecap="round" stroke-linejoin="round" />
    <path d="M89.7339 270.694L87.7539 272.145" stroke="#263238" stroke-linecap="round" stroke-linejoin="round" />
    <path d="M90.9984 271.855L89.2832 273.517" stroke="#263238" stroke-linecap="round" stroke-linejoin="round" />
    <path d="M92.7365 272.698L91.9902 274.347" stroke="#263238" stroke-linecap="round" stroke-linejoin="round" />
    <path
      d="M47.6598 278.578C47.6598 278.578 46.9195 275.755 47.7861 274.708C49.3389 272.83 47.5936 271.253 49.1523 270.603L49.8083 271.362C49.9347 270.591 49.5676 268.25 52.4624 267.949C55.9531 267.582 56.0193 270.122 56.2058 270.958L56.1517 269.791C57.6382 269.791 56.8679 271.277 59.1247 273.709C59.7172 274.364 60.1679 275.135 60.4486 275.973C60.7292 276.811 60.8338 277.697 60.7557 278.578H47.6598Z"
      fill="white" stroke="#263238" stroke-linecap="round" stroke-linejoin="round" />
    <path
      d="M35.0027 171.204C33.3958 172.125 29.2311 181.002 31.6625 198.606C34.094 216.209 41.3581 250.544 42.5798 255.78C43.8016 261.016 48.0686 273.685 48.0686 273.685C48.0686 273.685 49.6996 268.196 57.5415 271.133C57.6085 271.157 57.6805 271.162 57.7503 271.149C57.8201 271.136 57.8851 271.104 57.9389 271.058C57.9926 271.011 58.0331 270.952 58.0564 270.884C58.0796 270.817 58.0847 270.745 58.0711 270.676L56.3498 261.714C56.3498 261.714 56.2295 255.16 55.6638 253.517C53.5393 247.33 52.48 223.425 51.7759 220.085C51.0717 216.745 52.456 207.152 52.456 207.152C52.456 207.152 62.2719 230.623 62.5909 232.946C62.9099 235.27 68.8921 244.851 68.8921 244.851L69.9273 253.668C69.9273 253.668 77.8896 267.317 79.2918 271.392L88.7828 269.339L88.518 262.593L85.9602 261.714L81.4945 246.373C80.0824 241.057 78.3479 235.831 76.3007 230.726C74.1883 225.387 68.2 204.726 68.2 204.726C66.3403 202.704 64.589 191.522 64.589 191.522L61.7122 177.421L35.0027 171.204Z"
      fill="#29538E" />
    <path opacity="0.2"
      d="M63.0907 184.204C58.276 186.774 47.7679 191.715 43.0014 188.633C38.9992 186.045 34.4734 181.887 31.7109 179.203C32.6378 174.322 34.1664 171.692 35.003 171.204L61.7124 177.439L63.0907 184.204Z"
      fill="black" />
    <path opacity="0.2"
      d="M88.7826 269.363L79.2916 271.428C77.8894 267.353 69.9271 253.704 69.9271 253.704L68.8919 244.887C68.8919 244.887 62.9097 235.275 62.5907 232.97C62.2717 230.665 52.4558 207.176 52.4558 207.176C52.4558 207.176 52.221 208.819 51.9863 210.991C52.0585 209.866 52.5882 202.301 52.2812 199.972L52.522 198.563C52.522 198.563 58.9857 193.893 59.8523 195.675C60.719 197.456 56.464 199.286 56.464 199.286C56.464 199.286 60.394 200.489 62.3018 200.55C64.2096 200.61 61.8685 205.286 60.9717 205.816C60.075 206.345 56.6084 205.816 56.6084 205.816C56.6084 205.816 64.0471 224.19 70.9502 230.581C72.8981 232.381 75.2177 233.731 77.7449 234.535C80.2786 241.474 81.4944 246.397 81.4944 246.397L85.96 261.738L88.5178 262.617L88.7826 269.363Z"
      fill="black" />
    <path
      d="M35.0027 171.204C33.3958 172.125 29.2311 181.002 31.6625 198.606C34.094 216.209 41.3581 250.544 42.5798 255.78C43.8016 261.016 48.0686 273.685 48.0686 273.685C48.0686 273.685 49.6996 268.196 57.5415 271.133C57.6085 271.157 57.6805 271.162 57.7503 271.149C57.8201 271.136 57.8851 271.104 57.9389 271.058C57.9926 271.011 58.0331 270.952 58.0564 270.884C58.0796 270.817 58.0847 270.745 58.0711 270.676L56.3498 261.714C56.3498 261.714 56.2295 255.16 55.6638 253.517C53.5393 247.33 52.48 223.425 51.7759 220.085C51.0717 216.745 52.456 207.152 52.456 207.152C52.456 207.152 62.2719 230.623 62.5909 232.946C62.9099 235.27 68.8921 244.851 68.8921 244.851L69.9273 253.668C69.9273 253.668 77.8896 267.317 79.2918 271.392L88.7828 269.339L88.518 262.593L85.9602 261.714L81.4945 246.373C80.0824 241.057 78.3479 235.831 76.3007 230.726C74.1883 225.387 68.2 204.726 68.2 204.726C66.3403 202.704 64.589 191.522 64.589 191.522L61.7122 177.421L35.0027 171.204Z"
      stroke="#263238" stroke-linecap="round" stroke-linejoin="round" />
    <path
      d="M74.0257 158.957C70.7457 165.457 65.6 173.582 65.6 173.582L63.3311 182.639C63.3311 182.639 54.8091 187.899 45.0353 185.697C33.6004 183.109 31.7227 177.271 31.7227 177.271L34.8041 167.07C36.2906 160.257 39.5224 147.251 46.2389 143.598C52.9554 139.945 64.4685 139.608 69.1087 141.095C73.2433 142.425 75.5303 143.43 76.6617 144.657C76.6617 144.657 78.3348 150.399 77.9677 152.307C77.6006 154.215 74.0257 158.957 74.0257 158.957Z"
      fill="#263238" />
    <path d="M60.7681 277.555H47.3652L47.6601 278.578H60.7561L60.7681 277.555Z" fill="white" stroke="#263238"
      stroke-linecap="round" stroke-linejoin="round" />
    <path d="M56.4651 273.588C56.4651 273.588 52.0717 272.138 49.9473 273.955" stroke="#263238" stroke-linecap="round"
      stroke-linejoin="round" />
    <path d="M56.4651 272.632C56.4651 272.632 52.6014 271.428 49.9473 273.041" stroke="#263238" stroke-linecap="round"
      stroke-linejoin="round" />
    <path d="M56.2425 271.681C56.2425 271.681 52.6315 270.309 49.9473 272.187" stroke="#263238" stroke-linecap="round"
      stroke-linejoin="round" />
    <g opacity="0.96">
      <path opacity="0.96" d="M55.6639 197.354C55.1403 197.475 45.0235 201.164 43.0254 204.853" stroke="#263238"
        stroke-linecap="round" stroke-linejoin="round" />
      <path opacity="0.96"
        d="M53.209 202.711C53.7145 203.427 58.0237 216.878 59.8292 220.567C61.6347 224.257 67.8637 240.807 69.29 241.758C69.29 241.758 71.1979 251.387 72.3835 252.946C73.5691 254.505 79.7319 266.825 79.7319 266.825"
        stroke="#263238" stroke-linecap="round" stroke-linejoin="round" />
      <path opacity="0.96" d="M86.6582 266.824L79.1895 268.425" stroke="#263238" stroke-linecap="round"
        stroke-linejoin="round" />
      <path opacity="0.96" d="M56.2427 267.624C56.2427 267.624 50.2604 267.089 48.2383 269.364" stroke="#263238"
        stroke-linecap="round" stroke-linejoin="round" />
      <path opacity="0.96" d="M49.3503 204.258C48.8508 207.117 41.3519 222.951 39.5645 221.163" stroke="#263238"
        stroke-linecap="round" stroke-linejoin="round" />
      <path opacity="0.96"
        d="M52.2402 205.69C52.2402 205.69 53.1189 201.76 52.2824 199.972C51.9694 199.292 58.716 201.639 60.9729 201.104"
        stroke="#263238" stroke-linecap="round" stroke-linejoin="round" />
      <path opacity="0.96"
        d="M53.2096 186.232C53.2096 186.232 52.0059 189.615 51.7411 190.686C51.4763 191.757 53.8896 195.928 53.2096 196.759"
        stroke="#263238" stroke-linecap="round" stroke-linejoin="round" />
      <path opacity="0.96"
        d="M36.8089 183.066C36.8089 183.066 35.1418 185.618 35.1418 187.502C35.1418 189.386 32.8789 190.21 32.8789 190.21"
        stroke="#263238" stroke-linecap="round" stroke-linejoin="round" />
      <path opacity="0.96"
        d="M33.2582 180.28C32.0064 185.891 31.8775 191.694 32.879 197.354C34.5461 206.761 37.2844 225.924 38.3557 230.804C39.427 235.685 41.9306 246.639 41.9306 248.185C41.9306 249.732 44.4403 258.543 44.4403 258.543"
        stroke="#263238" stroke-linecap="round" stroke-linejoin="round" />
      <path opacity="0.96" d="M43.832 245.213C44.1871 245.213 50.8555 251.64 52.5225 251.761" stroke="#263238"
        stroke-linecap="round" stroke-linejoin="round" />
      <path opacity="0.96" d="M72.998 241.282C73.3591 241.403 78.9502 244.141 79.1909 243.304" stroke="#263238"
        stroke-linecap="round" stroke-linejoin="round" />
    </g>
    <path
      d="M66.1109 139.963C66.1109 139.963 59.3101 140.643 59.0694 144.423C58.8287 148.202 62.0064 152.481 67.3266 152.722C72.6468 152.963 73.2968 147.745 73.4834 144.898C73.67 142.051 69.8122 139.74 66.1109 139.963Z"
      fill="#BFBFBF" stroke="#263238" stroke-linecap="round" stroke-linejoin="round" />
    <path
      d="M63.9381 142.262C62.8406 139.187 62.669 135.858 63.4446 132.687C64.3895 128.72 69.1139 123.268 76.2757 128.227C79.971 130.785 80.1937 136.328 79.0442 141.407C78.7734 142.611 78.978 143.814 78.5747 144.916C77.1604 148.828 74.5665 151.837 73.1582 151.903C70.793 152.018 66.0686 149.159 66.2612 146.667"
      fill="#BFBFBF" />
    <path
      d="M63.9381 142.262C62.8406 139.187 62.669 135.858 63.4446 132.687C64.3895 128.72 69.1139 123.268 76.2757 128.227C79.971 130.785 80.1937 136.328 79.0442 141.407C78.7734 142.611 78.978 143.814 78.5747 144.916C77.1604 148.828 74.5665 151.837 73.1582 151.903C70.793 152.018 66.0686 149.159 66.2612 146.667"
      stroke="#263238" stroke-linecap="round" stroke-linejoin="round" />
    <path
      d="M73.4837 139.734C72.8599 139.555 72.2059 139.505 71.5621 139.588C70.9183 139.67 70.2983 139.884 69.7402 140.216"
      stroke="#263238" stroke-linecap="round" stroke-linejoin="round" />
    <path d="M77.0898 139.626C77.0898 139.626 78.5342 138.904 79.4972 139.09" stroke="#263238" stroke-linecap="round"
      stroke-linejoin="round" />
    <path
      d="M71.1843 143.225C71.4037 143.225 71.5815 142.939 71.5815 142.587C71.5815 142.235 71.4037 141.949 71.1843 141.949C70.9649 141.949 70.7871 142.235 70.7871 142.587C70.7871 142.939 70.9649 143.225 71.1843 143.225Z"
      fill="#263238" />
    <path
      d="M77.0886 142.87C77.308 142.87 77.4858 142.585 77.4858 142.232C77.4858 141.88 77.308 141.594 77.0886 141.594C76.8692 141.594 76.6914 141.88 76.6914 142.232C76.6914 142.585 76.8692 142.87 77.0886 142.87Z"
      fill="#263238" />
    <path
      d="M68.8919 134.877L68.6993 137.802C68.6993 137.802 66.629 138.868 66.1114 139.963C65.799 140.676 65.6847 141.46 65.7804 142.232C65.7804 142.232 64.5225 140.035 63.8485 140.216C63.6017 140.276 63.6017 141.197 63.6017 141.197C63.6017 141.197 60.7851 134.877 63.3309 131.537C65.8767 128.197 68.8919 134.877 68.8919 134.877Z"
      fill="#263238" />
    <path
      d="M64.8964 141.594C64.8964 141.594 64.3307 139.475 62.4229 138.91C60.5151 138.344 61.821 143.429 63.446 144.103C65.0709 144.777 65.4802 145.235 65.5765 144.633"
      fill="#BFBFBF" />
    <path
      d="M64.8964 141.594C64.8964 141.594 64.3307 139.475 62.4229 138.91C60.5151 138.344 61.821 143.429 63.446 144.103C65.0709 144.777 65.4802 145.235 65.5765 144.633"
      stroke="#263238" stroke-linecap="round" stroke-linejoin="round" />
    <path
      d="M75.6979 142.587C75.6115 143.297 75.7662 144.016 76.1373 144.627C76.2643 144.809 76.3304 145.026 76.3262 145.247C76.3221 145.469 76.2477 145.683 76.114 145.86C75.9802 146.036 75.7938 146.166 75.5817 146.23C75.3696 146.294 75.1427 146.289 74.9336 146.216"
      stroke="#263238" stroke-linecap="round" stroke-linejoin="round" />
    <path d="M74.9474 147.998C73.8552 148.289 72.7055 148.289 71.6133 147.998" stroke="#263238" stroke-linecap="round"
      stroke-linejoin="round" />
    <path
      d="M68.8919 134.878C68.8919 134.878 73.7548 136.051 76.7158 135.66C79.6768 135.269 81.5305 133.909 81.0791 130.797C80.6277 127.686 77.113 126.247 71.3414 125.26C65.6661 124.291 59.7199 128.54 62.4222 133.728C65.1244 138.916 68.8919 134.878 68.8919 134.878Z"
      fill="#263238" />
    <path
      d="M75.3374 181.092C75.5006 181.415 75.5871 181.772 75.5902 182.134C75.6504 182.88 72.9722 183.771 72.4967 183.476C72.0213 183.181 70.8959 181.67 72.2018 180.797C73.5078 179.925 75.3374 181.092 75.3374 181.092Z"
      fill="#BFBFBF" stroke="#263238" stroke-linecap="round" stroke-linejoin="round" />
    <path
      d="M82.3789 180.28C82.4961 181.11 82.7269 181.92 83.065 182.687C83.4803 183.374 86.0742 182.687 86.7843 183.055C87.4945 183.422 87.5547 182.164 86.7843 181.532C86.014 180.9 85.027 179.498 82.3789 180.28Z"
      fill="#BFBFBF" stroke="#263238" stroke-linecap="round" stroke-linejoin="round" />
    <path d="M80.7546 179.907H77.6973V228.205H80.7546V179.907Z" fill="#BFBFBF" stroke="#263238" stroke-linecap="round"
      stroke-linejoin="round" />
    <path
      d="M76.6912 214.855H81.7587C82.0523 214.855 82.334 214.972 82.5417 215.18C82.7494 215.387 82.866 215.669 82.866 215.963V278.554H75.5898V215.963C75.5898 215.67 75.7057 215.389 75.912 215.182C76.1184 214.974 76.3985 214.857 76.6912 214.855Z"
      fill="#757575" stroke="#263238" stroke-linecap="round" stroke-linejoin="round" />
    <path
      d="M88.0785 176.579H70.3725C70.0054 176.579 69.6533 176.725 69.3937 176.985C69.1341 177.244 68.9883 177.596 68.9883 177.963V178.896C68.9883 179.263 69.1341 179.615 69.3937 179.875C69.6533 180.135 70.0054 180.28 70.3725 180.28H76.9084V183.067H81.5486V180.28H88.0785C88.2603 180.28 88.4403 180.245 88.6082 180.175C88.7762 180.105 88.9288 180.003 89.0573 179.875C89.1858 179.746 89.2878 179.594 89.3574 179.426C89.4269 179.258 89.4627 179.078 89.4627 178.896V177.963C89.4627 177.782 89.4269 177.602 89.3574 177.434C89.2878 177.266 89.1858 177.113 89.0573 176.985C88.9288 176.856 88.7762 176.754 88.6082 176.684C88.4403 176.615 88.2603 176.579 88.0785 176.579Z"
      fill="#29538E" stroke="#263238" stroke-linecap="round" stroke-linejoin="round" />
    <path
      d="M62.9709 175.062C62.9709 175.062 72.3535 173.792 73.2803 173.635C74.2071 173.479 77.0899 178.396 77.0899 178.396L74.9474 181.694C74.9474 181.694 66.7624 182.838 66.2749 182.362C65.9588 181.994 65.7285 181.56 65.6009 181.092C65.6009 181.092 61.388 182.681 60.9968 179.822C60.6056 176.964 60.3047 176.542 62.9709 175.062Z"
      fill="#BFBFBF" stroke="#263238" stroke-linecap="round" stroke-linejoin="round" />
    <path
      d="M82.0605 176.579C82.0605 176.579 83.4929 174.033 84.9193 174.033C86.3456 174.033 91.8223 174.984 92.4603 175.779C93.0982 176.573 94.6028 177.843 94.3621 178.872C94.1213 179.901 92.6167 182.056 91.1904 181.695C89.764 181.333 86.1109 181.737 86.1109 181.737C86.1109 181.737 84.1248 181.37 83.9684 180.28L85.6354 179.823C85.6354 179.823 85.8702 177.524 85.5512 177.205C85.2322 176.886 82.0605 176.579 82.0605 176.579Z"
      fill="#BFBFBF" stroke="#263238" stroke-linecap="round" stroke-linejoin="round" />
    <path
      d="M87.1758 181.64C87.1758 181.64 88.9151 179.744 88.7827 179.028C88.6503 178.312 88.3915 176.091 87.9642 175.856"
      stroke="#263238" stroke-linecap="round" stroke-linejoin="round" />
    <path
      d="M89.584 181.544C89.584 181.544 90.8719 181.014 90.8719 179.822C90.8378 178.865 90.7292 177.911 90.5469 176.97"
      stroke="#263238" stroke-linecap="round" stroke-linejoin="round" />
    <path
      d="M91.8887 181.682C92.3302 181.204 92.6201 180.606 92.7219 179.963C92.8237 179.321 92.7327 178.662 92.4604 178.071"
      stroke="#263238" stroke-linecap="round" stroke-linejoin="round" />
    <path
      d="M73.4238 181.754C73.4238 181.754 74.9164 179.75 74.6757 178.745C74.3453 177.747 73.9264 176.78 73.4238 175.856"
      stroke="#263238" stroke-linecap="round" stroke-linejoin="round" />
    <path
      d="M71.4326 182.134C71.4326 182.134 72.2632 179.727 72.203 179.257C72.1428 178.788 70.9993 176.453 70.9512 176.212"
      stroke="#263238" stroke-linecap="round" stroke-linejoin="round" />
    <path
      d="M68.9884 182.356C69.524 181.483 70.7939 181.152 69.8189 179.232C68.844 177.312 68.3926 176.945 68.3926 176.945"
      stroke="#263238" stroke-linecap="round" stroke-linejoin="round" />
    <path
      d="M65.5996 181.092C66.0329 180.677 66.8695 179.672 66.8695 179.672C66.8695 179.672 67.044 180.496 67.4051 180.737"
      stroke="#263238" stroke-linecap="round" stroke-linejoin="round" />
    <path
      d="M69.6916 277.296H89.0707C89.3309 277.296 89.5804 277.399 89.7644 277.583C89.9484 277.767 90.0517 278.017 90.0517 278.277V278.825H68.9453V278.048C68.9445 277.95 68.9633 277.852 69.0004 277.761C69.0376 277.67 69.0924 277.587 69.1618 277.517C69.2312 277.447 69.3137 277.391 69.4046 277.353C69.4956 277.315 69.5931 277.296 69.6916 277.296Z"
      fill="#263238" />
    <path
      d="M40.4129 153.27C38.0056 159.234 35.2071 166.209 34.8038 172.697C34.6534 175.104 36.9704 175.953 38.9264 176.837C42.7675 178.56 46.7942 179.834 50.927 180.635C52.3774 180.918 53.9362 180.906 55.3204 181.237C56.8912 181.628 59.0999 183.006 60.7369 182.116"
      stroke="white" stroke-linecap="round" stroke-linejoin="round" />
    <path
      d="M51.7166 156.477L48.569 163.248L46.5469 167.31C47.3008 168.071 48.2761 168.575 49.3334 168.748C49.8196 168.815 50.2859 168.985 50.7011 169.246C51.1163 169.508 51.4707 169.855 51.7407 170.265C51.7407 170.265 59.6669 173.69 60.7382 173.653C61.8094 173.617 62.6761 172.588 63.5548 174.057"
      stroke="white" stroke-linecap="round" stroke-linejoin="round" />
    <path d="M46.5466 167.31C46.5466 167.31 42.2616 165.878 40.7148 167.31" stroke="white" stroke-linecap="round"
      stroke-linejoin="round" />
    <path d="M47.2617 146.246C47.6168 145.964 51.9741 150.724 52.2389 154.299" stroke="white" stroke-linecap="round"
      stroke-linejoin="round" />
    <path d="M53.3294 156.477C53.3294 156.477 52.1619 158.884 50.248 159.637" stroke="white" stroke-linecap="round"
      stroke-linejoin="round" />
    <path d="M77.4927 156.929C77.4927 156.929 75.0853 161.057 72.5938 161.743" stroke="white" stroke-linecap="round"
      stroke-linejoin="round" />
    <path d="M78.0645 171.205C78.0645 171.205 81.4287 168.617 83.6856 168.725" stroke="white" stroke-linecap="round"
      stroke-linejoin="round" />
    <path d="M77.0884 160.69C77.0884 160.69 75 162.399 73.4473 161.761" stroke="white" stroke-linecap="round"
      stroke-linejoin="round" />
    <path
      d="M80.8027 274.359C97.7083 274.359 94.976 278.571 112.213 278.571C129.449 278.571 139.897 278.824 139.897 188.549"
      stroke="#263238" stroke-width="3" stroke-linecap="round" stroke-linejoin="round" />
  </g>
  <defs>
    <clipPath id="clip0">
      <rect width="255.178" height="278.65" fill="white" />
    </clipPath>
  </defs>
</svg>