<svg width="22" height="22" viewBox="0 0 22 22" fill="none" xmlns="http://www.w3.org/2000/svg">
  <g clip-path="url(#clip0)">
    <path
      d="M11.0072 7.94824e-06C4.9283 -0.00722889 -0.00722889 4.9283 7.94824e-06 11.0072C0.00724479 16.9849 5.01514 21.9928 10.9928 22C17.0717 22.0072 22.0072 17.0717 22 10.9928C21.9928 5.01514 16.9849 0.00724479 11.0072 7.94824e-06ZM3.77764 3.90067C5.77501 1.86711 8.48159 0.781587 11.3474 0.875666C13.7645 0.955271 16.0803 1.9033 17.8605 3.54606C19.9665 5.48553 21.1316 8.15593 21.1316 11C21.1316 11.7961 21.0375 12.5704 20.8638 13.323L17.0572 8.16317C16.9487 8.01843 16.775 7.93882 16.6013 7.9533C16.4204 7.96777 16.2612 8.06909 16.1743 8.2283L11.6803 16.6447L5.57961 9.62501C5.47106 9.50198 5.31185 9.43685 5.1454 9.44409C4.97895 9.45856 4.83422 9.5454 4.74014 9.69014L1.5704 14.727C1.08553 13.4967 0.839482 12.1651 0.868429 10.7974C0.919087 8.21382 1.96843 5.73882 3.77764 3.90067ZM18.1645 18.1645C16.2178 20.1112 13.6125 21.1678 10.848 21.1316C8.3079 21.0954 5.86909 20.0967 4.03093 18.3526C3.24935 17.6072 2.59803 16.7678 2.09869 15.8487L5.24672 10.8408L11.3836 17.8967C11.4849 18.0125 11.6296 18.0776 11.7816 18.0776C11.8033 18.0776 11.8178 18.0776 11.8395 18.0776C12.0132 18.0559 12.1579 17.9546 12.2447 17.8026L16.7099 9.45132L20.4875 14.575C19.9809 15.9066 19.1994 17.1296 18.1645 18.1645Z"
      fill="black" />
    <path
      d="M8.63414 6.97724C9.22167 6.97724 9.69796 6.50095 9.69796 5.91342C9.69796 5.3259 9.22167 4.84961 8.63414 4.84961C8.0466 4.84961 7.57031 5.3259 7.57031 5.91342C7.57031 6.50095 8.0466 6.97724 8.63414 6.97724Z"
      fill="black" />
  </g>
  <defs>
    <clipPath id="clip0">
      <rect width="22" height="22" fill="white" />
    </clipPath>
  </defs>
</svg>