<svg width="22" height="22" viewBox="0 0 22 22" fill="none" xmlns="http://www.w3.org/2000/svg">
  <path
    d="M11 0C4.93454 0 0 4.93454 0 11C0 17.0655 4.93454 22 11 22C17.0655 22 22 17.0655 22 11C22 4.93454 17.0655 0 11 0ZM19.8844 11.3056H21.3811C21.2215 16.7912 16.7912 21.2215 11.3056 21.3811V19.8844C11.3056 19.7155 11.1689 19.5788 11 19.5788C10.8311 19.5788 10.6944 19.7155 10.6944 19.8844V21.3811C5.20879 21.2215 0.77851 16.7912 0.618869 11.3056H2.11561C2.28451 11.3056 2.42117 11.1689 2.42117 11C2.42117 10.8311 2.28451 10.6944 2.11561 10.6944H0.618869C0.77851 5.20879 5.20879 0.77851 10.6944 0.618869V2.11561C10.6944 2.28451 10.8311 2.42117 11 2.42117C11.1689 2.42117 11.3056 2.28451 11.3056 2.11561V0.618869C16.7912 0.77851 21.2215 5.20879 21.3811 10.6944H19.8844C19.7155 10.6944 19.5788 10.8311 19.5788 11C19.5788 11.1689 19.7155 11.3056 19.8844 11.3056Z"
    fill="black" />
  <path
    d="M15.8495 5.63274L9.74998 9.66344C9.72915 9.67719 9.71593 9.69813 9.69933 9.71617C9.68693 9.72959 9.67074 9.73873 9.66076 9.75445L9.65726 9.75996C9.65716 9.76009 9.65709 9.76023 9.657 9.76037L5.72345 15.9473C5.64617 16.0688 5.66437 16.2281 5.76702 16.329C5.8261 16.3869 5.90339 16.4167 5.98127 16.4167C6.03975 16.4167 6.09824 16.4 6.14986 16.366L12.2493 12.3353C12.2702 12.3215 12.2834 12.3006 12.3 12.2825C12.3124 12.2691 12.3286 12.26 12.3386 12.2443L12.3421 12.2388C12.3422 12.2386 12.3422 12.2385 12.3423 12.2383L16.2759 6.05138C16.3531 5.92994 16.3349 5.77059 16.2323 5.66974C16.1288 5.56828 15.97 5.55336 15.8495 5.63274ZM7.00715 15.0668L9.97199 10.4038L11.6 12.0318L7.00715 15.0668ZM12.0273 11.5949L10.3993 9.96691L14.9922 6.93194L12.0273 11.5949Z"
    fill="black" />
</svg>