<svg width="21" height="22" viewBox="0 0 21 22" fill="none" xmlns="http://www.w3.org/2000/svg">
  <g clip-path="url(#clip0)">
    <path
      d="M14.1674 10.342C14.1674 8.30177 11.9767 6.63672 9.27412 6.63672C6.5716 6.63672 4.38086 8.29019 4.38086 10.342C4.38981 10.7684 4.48513 11.1885 4.66107 11.577C4.837 11.9655 5.08989 12.3142 5.40444 12.6022C5.40444 12.6254 5.42528 12.6462 5.43454 12.6694C5.50358 12.8786 5.51479 13.1027 5.46697 13.3178C5.40919 13.5741 5.28998 13.8125 5.1196 14.0125C4.91875 14.248 4.66583 14.4336 4.38086 14.5544C4.70917 14.6936 5.06441 14.7577 5.42065 14.742C5.82448 14.7233 6.21948 14.6174 6.57854 14.4317C6.90526 14.2625 7.19993 14.0376 7.44928 13.767C8.03722 13.9455 8.64813 14.0368 9.26255 14.038C11.9743 14.038 14.1674 12.3822 14.1674 10.342Z"
      fill="black" />
    <path
      d="M15.6913 14.898C15.9279 14.682 16.1183 14.4201 16.2508 14.1283C16.3834 13.8366 16.4554 13.5209 16.4624 13.2006C16.4624 12.2279 15.8001 11.3734 14.7974 10.8848C14.6112 11.9409 14.0153 12.8807 13.1393 13.4993C12.1337 14.2302 10.9353 14.649 9.69336 14.7035C10.3464 15.4654 11.4881 15.9795 12.7849 15.9795C13.2477 15.9804 13.708 15.9133 14.1513 15.7803C14.3389 15.984 14.5607 16.1533 14.8066 16.2806C15.0775 16.42 15.3753 16.499 15.6797 16.5121C15.9479 16.524 16.2153 16.4758 16.4624 16.3709C16.2488 16.2798 16.0593 16.1403 15.9089 15.9633C15.7802 15.8128 15.6904 15.6331 15.6473 15.4399C15.611 15.2779 15.619 15.1092 15.6704 14.9513C15.6774 14.9305 15.6843 14.9142 15.6913 14.898Z"
      fill="black" />
    <path
      d="M10.4211 1.1582C8.35997 1.1582 6.34516 1.76939 4.63143 2.91447C2.9177 4.05955 1.582 5.68709 0.79326 7.59129C0.0045153 9.49549 -0.201856 11.5908 0.200242 13.6123C0.602341 15.6338 1.59485 17.4906 3.05226 18.9481C4.50967 20.4055 6.36652 21.398 8.38801 21.8001C10.4095 22.2022 12.5048 21.9958 14.409 21.2071C16.3132 20.4183 17.9408 19.0826 19.0858 17.3689C20.2309 15.6552 20.8421 13.6403 20.8421 11.5793C20.8421 8.81542 19.7442 6.16479 17.7899 4.21046C15.8355 2.25613 13.1849 1.1582 10.4211 1.1582ZM10.4211 20.8424C8.58898 20.8424 6.79804 20.2991 5.27472 19.2813C3.7514 18.2634 2.56412 16.8167 1.86302 15.1241C1.16191 13.4315 0.978468 11.569 1.33589 9.7721C1.69331 7.97523 2.57554 6.32469 3.87102 5.02921C5.16649 3.73374 6.81703 2.85151 8.6139 2.49409C10.4108 2.13667 12.2733 2.32011 13.9659 3.02121C15.6585 3.72232 17.1052 4.9096 18.1231 6.43292C19.1409 7.95624 19.6842 9.74718 19.6842 11.5793C19.6842 14.036 18.7083 16.3921 16.9711 18.1293C15.2339 19.8665 12.8778 20.8424 10.4211 20.8424Z"
      fill="black" />
  </g>
  <defs>
    <clipPath id="clip0">
      <rect width="20.8421" height="22" fill="white" />
    </clipPath>
  </defs>
</svg>