<svg width="22" height="22" viewBox="0 0 22 22" fill="none" xmlns="http://www.w3.org/2000/svg">
  <g clip-path="url(#clip0)">
    <path
      d="M11.0001 22.0001C8.8245 22.0001 6.69774 21.355 4.88879 20.1463C3.07983 18.9376 1.66992 17.2196 0.837344 15.2096C0.00476973 13.1996 -0.213072 10.9879 0.211365 8.85406C0.635803 6.72026 1.68346 4.76023 3.22184 3.22184C4.76023 1.68346 6.72026 0.635803 8.85406 0.211365C10.9879 -0.213072 13.1996 0.00476973 15.2096 0.837344C17.2196 1.66992 18.9376 3.07983 20.1463 4.88879C21.355 6.69774 22.0001 8.8245 22.0001 11.0001C21.9968 13.9165 20.8368 16.7124 18.7746 18.7746C16.7124 20.8368 13.9165 21.9968 11.0001 22.0001ZM11.0001 0.880005C8.99855 0.879994 7.04194 1.47351 5.3777 2.58551C3.71346 3.69751 2.41634 5.27804 1.65037 7.12723C0.884395 8.97642 0.683974 11.0112 1.07445 12.9743C1.46492 14.9374 2.42875 16.7407 3.84406 18.156C5.25937 19.5713 7.06258 20.5351 9.02568 20.9256C10.9888 21.3161 13.0236 21.1157 14.8728 20.3498C16.722 19.5838 18.3025 18.2867 19.4145 16.6225C20.5266 14.9583 21.1201 13.0017 21.1201 11.0001C21.1171 8.31704 20.0499 5.74473 18.1527 3.8475C16.2555 1.95028 13.6832 0.883067 11.0001 0.880005Z"
      fill="black" />
    <path
      d="M15.7916 12.5819C15.72 12.5001 15.6205 12.4477 15.5125 12.4348C15.4045 12.4219 15.2955 12.4494 15.2066 12.5121C13.9732 13.3797 12.5076 13.8567 10.9998 13.8811C9.49202 13.8566 8.02637 13.3797 6.79297 12.5121C6.70407 12.4494 6.5951 12.4219 6.48708 12.4347C6.37905 12.4476 6.27962 12.5001 6.20796 12.5819C6.16715 12.6281 6.1365 12.6823 6.11799 12.7411C6.09947 12.7999 6.09351 12.8619 6.10048 12.9231C6.10746 12.9843 6.12721 13.0434 6.15847 13.0965C6.18973 13.1496 6.2318 13.1956 6.28194 13.2314C7.66267 14.2087 9.3083 14.7422 10.9998 14.7611C12.6913 14.7423 14.3369 14.2087 15.7176 13.2314C15.7678 13.1956 15.8098 13.1496 15.8411 13.0965C15.8723 13.0434 15.8921 12.9843 15.8991 12.9231C15.906 12.8619 15.9001 12.7999 15.8816 12.7411C15.8631 12.6824 15.8324 12.6281 15.7916 12.5819V12.5819Z"
      fill="black" />
    <path
      d="M9.16565 8.854C9.06828 8.85335 8.97385 8.82057 8.89703 8.76074C8.82021 8.70091 8.76529 8.61738 8.74081 8.52314C8.66817 8.25548 8.50946 8.01917 8.28916 7.85069C8.06886 7.68221 7.79923 7.59092 7.52188 7.59093C7.24454 7.59093 6.97492 7.68223 6.75462 7.85071C6.53433 8.0192 6.37562 8.25552 6.30299 8.52318C6.2785 8.61741 6.22359 8.70092 6.14677 8.76075C6.06995 8.82057 5.97553 8.85335 5.87817 8.854H5.87815C5.80991 8.85365 5.74268 8.83753 5.6817 8.80691C5.62071 8.77629 5.56763 8.73199 5.52658 8.67748C5.48554 8.62296 5.45764 8.5597 5.44508 8.49262C5.43251 8.42555 5.43561 8.35648 5.45413 8.2908C5.57772 7.83708 5.84712 7.43661 6.22079 7.15111C6.59446 6.86561 7.05166 6.71094 7.52191 6.71094C7.99217 6.71094 8.44937 6.86561 8.82304 7.15111C9.19671 7.43661 9.4661 7.83708 9.58969 8.2908C9.60821 8.35648 9.61131 8.42556 9.59874 8.49263C9.58618 8.5597 9.55828 8.62297 9.51723 8.67748C9.47619 8.732 9.4231 8.7763 9.36211 8.80692C9.30113 8.83754 9.23389 8.85365 9.16565 8.854Z"
      fill="black" />
    <path
      d="M16.1227 8.854C16.0253 8.85334 15.9309 8.82056 15.8541 8.76073C15.7773 8.7009 15.7223 8.61738 15.6979 8.52313C15.6252 8.25547 15.4665 8.01916 15.2462 7.85068C15.0259 7.6822 14.7563 7.59092 14.4789 7.59092C14.2016 7.59093 13.932 7.68222 13.7117 7.85071C13.4914 8.01919 13.3327 8.25551 13.26 8.52317C13.2355 8.61741 13.1806 8.70092 13.1038 8.76074C13.027 8.82056 12.9326 8.85335 12.8352 8.854H12.8352C12.7669 8.85364 12.6997 8.83752 12.6387 8.8069C12.5777 8.77628 12.5247 8.73199 12.4836 8.67747C12.4426 8.62295 12.4147 8.55969 12.4021 8.49262C12.3895 8.42555 12.3926 8.35648 12.4112 8.2908C12.5348 7.83708 12.8041 7.4366 13.1778 7.1511C13.5515 6.86561 14.0087 6.71094 14.4789 6.71094C14.9492 6.71094 15.4064 6.86561 15.7801 7.1511C16.1537 7.4366 16.4231 7.83708 16.5467 8.2908C16.5652 8.35648 16.5683 8.42555 16.5558 8.49262C16.5432 8.55969 16.5153 8.62295 16.4743 8.67747C16.4332 8.73199 16.3801 8.77628 16.3192 8.8069C16.2582 8.83752 16.1909 8.85364 16.1227 8.854Z"
      fill="black" />
  </g>
  <defs>
    <clipPath id="clip0">
      <rect width="22" height="22" fill="white" />
    </clipPath>
  </defs>
</svg>