<svg width="27" height="22" viewBox="0 0 27 22" fill="none" xmlns="http://www.w3.org/2000/svg">
  <g clip-path="url(#clip0)">
    <path
      d="M25.0039 11.0008L26.534 9.05287C26.5718 9.00457 26.5953 8.94664 26.6017 8.88567C26.6082 8.8247 26.5974 8.76315 26.5706 8.70801C26.5437 8.65287 26.502 8.60638 26.45 8.57381C26.3981 8.54125 26.338 8.52393 26.2767 8.52382H21.7464C20.6058 3.56138 16.1155 -0.0234375 11.0037 -0.0234375C4.92491 -0.0234375 -0.0205078 4.92198 -0.0205078 11.0008C-0.0205078 17.0796 4.92491 22.025 11.0037 22.025C12.4806 22.03 13.9432 21.7358 15.3033 21.1601C16.6634 20.5844 17.8927 19.7391 18.9172 18.6753H22.557C22.6184 18.6752 22.6786 18.6579 22.7307 18.6254C22.7828 18.5928 22.8246 18.5462 22.8514 18.4909C22.8783 18.4357 22.889 18.374 22.8825 18.3129C22.8759 18.2518 22.8523 18.1938 22.8143 18.1455L21.7792 16.8282L22.8143 15.5108C22.8521 15.4625 22.8756 15.4046 22.882 15.3436C22.8885 15.2826 22.8777 15.2211 22.8509 15.1659C22.824 15.1108 22.7823 15.0643 22.7303 15.0317C22.6784 14.9992 22.6183 14.9818 22.557 14.9817H21.2848C21.4745 14.4914 21.6288 13.9882 21.7464 13.4758H26.2767C26.338 13.4757 26.3981 13.4584 26.45 13.4258C26.502 13.3932 26.5437 13.3467 26.5706 13.2916C26.5974 13.2365 26.6082 13.1749 26.6017 13.1139C26.5953 13.053 26.5718 12.995 26.534 12.9467L25.0039 11.0008ZM24.4283 10.6734H23.418L24.5933 9.17728H25.601L24.4283 10.6734ZM22.5033 12.823L21.3287 11.3282H22.5891L23.7644 12.8236L22.5033 12.823ZM20.2948 12.823L19.1189 11.3282H20.4939L21.6724 12.8236L20.2948 12.823ZM21.6698 9.17728L20.4939 10.6734H19.1189L20.2974 9.17793L21.6698 9.17728ZM23.7592 9.17728L22.5891 10.6734H21.332L22.5066 9.17728H23.7592ZM0.6336 11.0008C0.6336 5.28275 5.28241 0.63067 11.0037 0.63067C15.7625 0.63067 19.9478 3.93198 21.074 8.52382H20.1357C20.0861 8.52383 20.0372 8.53509 19.9927 8.55676C19.9481 8.57842 19.909 8.60992 19.8784 8.64888L18.288 10.6734H18.1177C18.0479 9.11794 17.4707 7.62809 16.4746 6.43144C15.4784 5.23478 14.1179 4.39709 12.6009 4.04633C11.0838 3.69556 9.4937 3.851 8.07333 4.4889C6.65295 5.1268 5.48042 6.21209 4.73483 7.57901C3.98924 8.94593 3.71157 10.5193 3.94424 12.0589C4.17691 13.5984 4.90712 15.0195 6.02335 16.1051C7.13957 17.1906 8.58045 17.881 10.1259 18.0706C11.6713 18.2603 13.2364 17.9389 14.582 17.1556H16.8652L17.9606 18.5502C17.9827 18.5771 18.009 18.6003 18.0385 18.6189C16.1281 20.3956 13.6132 21.3788 11.0044 21.3689C5.28569 21.3709 0.6336 16.7188 0.6336 11.0008ZM14.874 10.6734C14.7896 9.67435 14.3224 8.74656 13.5701 8.08382C12.8177 7.42108 11.8384 7.07466 10.8367 7.11692C9.83496 7.15918 8.88829 7.58684 8.19444 8.31059C7.50058 9.03433 7.11319 9.99817 7.11319 11.0008C7.11319 12.0034 7.50058 12.9672 8.19444 13.691C8.88829 14.4147 9.83496 14.8424 10.8367 14.8847C11.8384 14.9269 12.8177 14.5805 13.5701 13.9178C14.3224 13.255 14.7896 12.3272 14.874 11.3282H17.4636C17.3782 13.0133 16.6378 14.5985 15.4002 15.7454C14.1626 16.8924 12.5259 17.5105 10.8391 17.4678C9.15231 17.4251 7.54895 16.725 6.37101 15.5168C5.19307 14.3087 4.5338 12.6881 4.5338 11.0008C4.5338 9.31345 5.19307 7.69288 6.37101 6.48474C7.54895 5.27661 9.15231 4.57652 10.8391 4.53381C12.5259 4.4911 14.1626 5.10915 15.4002 6.25613C16.6378 7.4031 17.3782 8.98823 17.4636 10.6734H14.874ZM11.0037 11.3282H14.2199C14.136 12.1532 13.7383 12.9145 13.109 13.4546C12.4797 13.9948 11.667 14.2725 10.8388 14.2305C10.0105 14.1885 9.23009 13.8299 8.65874 13.2288C8.08739 12.6277 7.76879 11.8301 7.76879 11.0008C7.76879 10.1715 8.08739 9.37388 8.65874 8.7728C9.23009 8.17172 10.0105 7.81311 10.8388 7.77108C11.667 7.72904 12.4797 8.00681 13.109 8.54696C13.7383 9.08711 14.136 9.84837 14.2199 10.6734H11.0037C10.9169 10.6734 10.8336 10.7079 10.7722 10.7693C10.7108 10.8307 10.6763 10.914 10.6763 11.0008C10.6763 11.0876 10.7108 11.1709 10.7722 11.2323C10.8336 11.2937 10.9169 11.3282 11.0037 11.3282ZM17.6967 16.5008L18.3764 15.6358H19.714L19.0344 16.5008H17.6967ZM19.0344 17.1556L19.714 18.0205H18.3764L17.6967 17.1556H19.0344ZM21.8839 18.0205H20.5462L19.8666 17.1556H21.2043L21.8839 18.0205ZM21.2043 16.5008H19.8666L20.5462 15.6365H21.8839L21.2043 16.5008ZM20.5796 14.9817H18.2173C18.1677 14.9817 18.1188 14.993 18.0742 15.0147C18.0296 15.0363 17.9906 15.0678 17.9599 15.1068L16.8645 16.5008H15.5236C16.2943 15.8685 16.9235 15.0813 17.3705 14.1902C17.8174 13.2991 18.072 12.324 18.1177 11.3282H18.288L19.8784 13.3527C19.909 13.3917 19.9481 13.4232 19.9927 13.4448C20.0372 13.4665 20.0861 13.4777 20.1357 13.4778H21.0733C20.9472 13.9911 20.7821 14.4941 20.5796 14.9824V14.9817ZM24.5933 12.821L23.418 11.3282H24.4283L25.6069 12.8236L24.5933 12.821Z"
      fill="black" />
  </g>
  <defs>
    <clipPath id="clip0">
      <rect width="26.5833" height="22" fill="white" />
    </clipPath>
  </defs>
</svg>