<svg width="535" height="409" viewBox="0 0 535 409" fill="none" xmlns="http://www.w3.org/2000/svg">
  <g clip-path="url(#clip0)">
    <path
      d="M349.261 407.291C356.659 406.529 364.075 406.148 371.509 405.894C392.017 405.205 438.435 397.731 481.391 348.932C538.671 283.86 552.488 170.371 510.965 97.8072C469.442 25.2435 388.698 -3.54611 305.199 0.952839C264.51 3.12975 239.923 31.2119 211.691 57.1897C187.103 79.8295 161.537 92.51 128.808 103.522C96.4054 114.406 68.1916 120.465 40.431 143.051C-27.9279 198.689 -4.89985 306.319 74.2296 352.741C153.359 399.164 293.395 412.987 349.261 407.291Z"
      fill="#29538E" />
    <path d="M474.044 225.457H399.43V127.457H474.044V225.457Z" fill="white" />
    <path
      d="M427.594 160.124C426.134 159.46 424.512 159.086 422.804 159.086C421.539 159.086 420.322 159.292 419.182 159.668L422.804 170.652L427.594 160.124Z"
      fill="#97DAD8" />
    <path
      d="M422.805 170.652L433.49 175.08C434.057 173.716 434.37 172.22 434.37 170.652C434.37 165.973 431.59 161.945 427.594 160.124L422.805 170.652Z"
      fill="#97DAD8" />
    <path d="M422.804 170.652L419.181 159.668C415.981 160.723 413.399 163.135 412.117 166.224L422.804 170.652Z"
      fill="#9F769E" />
    <path d="M433.49 175.081L422.805 170.653L426.427 181.637C429.627 180.582 432.209 178.17 433.49 175.081Z"
      fill="#97DAD8" />
    <path
      d="M412.118 166.225C411.553 167.589 411.238 169.084 411.238 170.653C411.238 175.332 414.018 179.358 418.016 181.18L422.805 170.653L412.118 166.225Z"
      fill="#FFCC66" />
    <path
      d="M422.805 170.653L418.016 181.18C419.476 181.845 421.096 182.219 422.805 182.219C424.07 182.219 425.288 182.013 426.428 181.637L422.805 170.653Z"
      fill="#97DAD8" />
    <path d="M462.725 135.766H414.475V134.806H462.725V135.766Z" fill="#A4A4A4" />
    <path d="M438.09 142.404H409.344V141.444H438.09V142.404Z" fill="#A4A4A4" />
    <path d="M438.09 145.496H409.344V144.536H438.09V145.496Z" fill="#A4A4A4" />
    <path d="M438.09 148.584H409.344V147.624H438.09V148.584Z" fill="#A4A4A4" />
    <path d="M438.09 151.676H409.344V150.716H438.09V151.676Z" fill="#A4A4A4" />
    <path d="M438.09 154.764H409.344V153.804H438.09V154.764Z" fill="#A4A4A4" />
    <path d="M466.838 142.887H449.801V141.925H466.838V142.887Z" fill="#A4A4A4" />
    <path d="M466.838 147.189H449.801V146.229H466.838V147.189Z" fill="#A4A4A4" />
    <path d="M466.838 156.152H449.801V155.192H466.838V156.152Z" fill="#A4A4A4" />
    <path d="M466.838 151.676H449.801V150.716H466.838V151.676Z" fill="#A4A4A4" />
    <path d="M466.837 162.322H438.09V161.361H466.837V162.322Z" fill="#A4A4A4" />
    <path d="M466.837 165.375H438.09V164.415H466.837V165.375Z" fill="#A4A4A4" />
    <path d="M466.837 168.426H438.09V167.466H466.837V168.426Z" fill="#A4A4A4" />
    <path d="M466.837 171.479H438.09V170.518H466.837V171.479Z" fill="#A4A4A4" />
    <path d="M466.837 174.531H438.09V173.57H466.837V174.531Z" fill="#A4A4A4" />
    <path d="M466.837 177.584H438.09V176.624H466.837V177.584Z" fill="#A4A4A4" />
    <path d="M466.837 180.637H438.09V179.677H466.837V180.637Z" fill="#A4A4A4" />
    <path d="M438.249 187.787H409.344V186.827H438.249V187.787Z" fill="#A4A4A4" />
    <path d="M438.249 190.84H409.344V189.88H438.249V190.84Z" fill="#A4A4A4" />
    <path d="M438.249 193.891H409.344V192.929H438.249V193.891Z" fill="#A4A4A4" />
    <path d="M438.249 196.945H409.344V195.985H438.249V196.945Z" fill="#A4A4A4" />
    <path d="M438.249 199.996H409.344V199.036H438.249V199.996Z" fill="#A4A4A4" />
    <path d="M466.836 208.109H438.219V207.148H466.836V208.109Z" fill="#A4A4A4" />
    <path d="M466.836 211.281H438.219V210.32H466.836V211.281Z" fill="#A4A4A4" />
    <path d="M466.836 214.455H438.219V213.494H466.836V214.455Z" fill="#A4A4A4" />
    <path d="M466.836 217.629H438.219V216.669H466.836V217.629Z" fill="#A4A4A4" />
    <path d="M464.957 203.256H462.348V188.044H464.957V203.256Z" fill="#FFCC66" />
    <path d="M460.855 203.256H458.246V190.896H460.855V203.256Z" fill="#97DAD8" />
    <path d="M456.754 203.256H454.145V189.919H456.754V203.256Z" fill="#FFCC66" />
    <path d="M452.654 203.256H450.043V192.911H452.654V203.256Z" fill="#97DAD8" />
    <path d="M448.552 203.256H445.941V195.241H448.552V203.256Z" fill="#FFCC66" />
    <path d="M444.505 203.256H441.895V197.076H444.505V203.256Z" fill="#97DAD8" />
    <path
      d="M445.927 142.228C445.927 142.961 445.333 143.555 444.6 143.555C443.868 143.555 443.273 142.961 443.273 142.228C443.273 141.496 443.868 140.901 444.6 140.901C445.333 140.901 445.927 141.496 445.927 142.228Z"
      fill="#9F769E" />
    <path
      d="M445.927 146.708C445.927 147.442 445.333 148.035 444.6 148.035C443.868 148.035 443.273 147.442 443.273 146.708C443.273 145.975 443.868 145.382 444.6 145.382C445.333 145.382 445.927 145.975 445.927 146.708Z"
      fill="#97DAD8" />
    <path
      d="M445.927 151.191C445.927 151.923 445.333 152.518 444.6 152.518C443.868 152.518 443.273 151.923 443.273 151.191C443.273 150.458 443.868 149.864 444.6 149.864C445.333 149.864 445.927 150.458 445.927 151.191Z"
      fill="#FFCC66" />
    <path
      d="M445.927 155.673C445.927 156.405 445.333 157 444.6 157C443.868 157 443.273 156.405 443.273 155.673C443.273 154.94 443.868 154.347 444.6 154.347C445.333 154.347 445.927 154.94 445.927 155.673Z"
      fill="#719EC6" />
    <path d="M415.849 210.193H410.73V206.023H415.849V210.193Z" fill="#FFCC66" />
    <path d="M425.363 210.193H420.244V206.023H425.363V210.193Z" fill="#719EC6" />
    <path d="M434.876 210.193H429.758V206.023H434.876V210.193Z" fill="#97DAD8" />
    <path d="M415.849 217.629H410.73V213.458H415.849V217.629Z" fill="#9F769E" />
    <path d="M425.363 217.629H420.244V213.458H425.363V217.629Z" fill="#FFCC66" />
    <path d="M434.876 217.629H429.758V213.458H434.876V217.629Z" fill="#719EC6" />
    <path d="M184.846 265.199V253.941H201.588V265.199H184.846Z" fill="white" />
    <path
      d="M157.396 264.674V254.638C157.396 252.964 158.492 251.61 159.846 251.61H191.892V267.703H159.846C158.492 267.703 157.396 266.347 157.396 264.674Z"
      fill="#FFCC66" />
    <path d="M194.645 258.535V256.052H197.37V258.535H194.645Z" fill="#4F4F4F" />
    <path d="M194.645 263.258V260.775H197.37V263.258H194.645Z" fill="#4F4F4F" />
    <path
      d="M304.185 255.679C305.833 255.679 307.169 256.11 307.169 256.64C307.169 257.171 305.833 257.602 304.185 257.602C302.537 257.602 301.199 257.171 301.199 256.64C301.199 256.11 302.537 255.679 304.185 255.679Z"
      fill="#010101" />
    <path d="M348.668 250.793H370.473V253.164H372.873V248.424H346.164L348.668 250.793Z" fill="#010101" />
    <path d="M304.186 255.642V257.703L310.694 260.414V252.694L304.186 255.642Z" fill="white" />
    <path d="M378.718 253.596V259.543H373.396V253.596H378.718Z" fill="#010101" />
    <path d="M310.693 260.414H348.669V252.694H310.693V260.414Z" fill="#FFCC66" />
    <path d="M376.631 252.694V260.414H342.41V252.694H376.631Z" fill="#9F769E" />
    <path d="M346.166 252.694V260.414H342.41V252.694H346.166Z" fill="#010101" />
    <path
      d="M369.263 241.361C369.263 243.196 368.927 244.687 371.711 244.685L376.088 244.689C378.872 244.687 378.467 243.197 378.463 241.36C378.465 239.525 378.876 238.04 376.092 238.036L371.712 238.035C368.927 238.037 369.264 239.527 369.263 241.361Z"
      fill="#D4C4AE" />
    <path d="M311.406 238.005V239.675H311.404V243.02L311.402 244.692L368.936 244.697L368.937 238.012L311.406 238.005Z"
      fill="#719EC6" />
    <path d="M311.406 238.005L311.401 244.701L301.199 241.265L311.406 238.005Z" fill="#F4F6F5" />
    <path
      d="M306.038 241.253C306.038 241.781 305.798 242.14 304.902 242.512L301.199 241.265L304.981 240.057C305.629 240.344 306.038 240.713 306.038 241.253Z"
      fill="#010101" />
    <path d="M368.316 238.005V244.692L372.044 244.697V238.012L368.316 238.005Z" fill="white" />
    <path d="M134.721 344.637H73.8164V268.811H134.721V344.637Z" fill="white" />
    <path d="M134.152 341.348H74.3828V269.516H134.152V341.348Z" fill="#FFCC66" />
    <path d="M134.152 343.93H74.3828V291.052H134.152V343.93Z" fill="#719EC6" />
    <path d="M128.123 287.527H79.6113V274.554H128.123V287.527Z" fill="#F7F7F7" />
    <path d="M79.6113 294.578H88.44V299.07H79.6113V294.578Z" fill="#4F4F4F" />
    <path d="M79.6113 304.157H88.44V310.801H79.6113V304.157Z" fill="#F7F7F7" />
    <path d="M92.8398 304.157H101.668V310.801H92.8398V304.157Z" fill="#F7F7F7" />
    <path d="M106.066 304.157H114.894V310.801H106.066V304.157Z" fill="#F7F7F7" />
    <path d="M79.6113 313.032H88.44V319.676H79.6113V313.032Z" fill="#F7F7F7" />
    <path d="M92.8398 313.032H101.668V319.676H92.8398V313.032Z" fill="#F7F7F7" />
    <path d="M106.066 313.032H114.894V319.676H106.066V313.032Z" fill="#F7F7F7" />
    <path d="M79.6113 321.908H88.44V328.551H79.6113V321.908Z" fill="#F7F7F7" />
    <path d="M92.8398 321.908H101.668V328.551H92.8398V321.908Z" fill="#F7F7F7" />
    <path d="M106.066 321.908H114.894V328.551H106.066V321.908Z" fill="#F7F7F7" />
    <path d="M79.6113 330.985H101.667V337.629H79.6113V330.985Z" fill="#97DAD8" />
    <path d="M106.066 330.985H114.894V337.629H106.066V330.985Z" fill="#F7F7F7" />
    <path d="M92.8398 294.578H101.668V299.07H92.8398V294.578Z" fill="#4F4F4F" />
    <path d="M106.066 294.578H114.894V299.07H106.066V294.578Z" fill="#4F4F4F" />
    <path d="M119.293 294.578H128.122V299.07H119.293V294.578Z" fill="#4F4F4F" />
    <path d="M119.293 304.157H128.122V310.801H119.293V304.157Z" fill="#F7F7F7" />
    <path d="M119.293 313.032H128.122V319.676H119.293V313.032Z" fill="#F7F7F7" />
    <path d="M119.293 321.909H128.122V337.629H119.293V321.909Z" fill="#FFCC66" />
    <path d="M321.596 109.818H472.12V5.23343H321.596V109.818Z" fill="#D4C4AE" />
    <path d="M331.774 85.2773H324.104V76.9253H331.774V85.2773Z" fill="#FFCC66" />
    <path d="M331.774 67.8125H324.104V59.4591H331.774V67.8125Z" fill="#97DAD8" />
    <path d="M327.941 107.164H396.994V8.43073H327.941V107.164Z" fill="#F7F7F7" />
    <path d="M390.88 18.1758H332.139V16.1558H390.88V18.1758Z" fill="#A4A4A4" />
    <path d="M390.88 23.3398H332.139V21.3185H390.88V23.3398Z" fill="#A4A4A4" />
    <path d="M390.88 28.5H332.139V26.48H390.88V28.5Z" fill="#A4A4A4" />
    <path d="M390.88 33.6641H332.139V31.6441H390.88V33.6641Z" fill="#A4A4A4" />
    <path d="M390.88 38.8281H332.139V36.8068H390.88V38.8281Z" fill="#A4A4A4" />
    <path d="M390.88 43.9922H332.139V41.9722H390.88V43.9922Z" fill="#A4A4A4" />
    <path d="M390.88 49.1562H332.139V47.1363H390.88V49.1562Z" fill="#A4A4A4" />
    <path d="M390.88 54.3203H332.139V52.299H390.88V54.3203Z" fill="#A4A4A4" />
    <path d="M390.88 59.4824H332.139V57.4624H390.88V59.4824Z" fill="#A4A4A4" />
    <path d="M390.88 64.6465H332.139V62.6265H390.88V64.6465Z" fill="#A4A4A4" />
    <path d="M390.88 69.8105H332.139V67.7892H390.88V69.8105Z" fill="#A4A4A4" />
    <path d="M390.88 74.9727H332.139V72.9526H390.88V74.9727Z" fill="#A4A4A4" />
    <path d="M390.88 80.1367H332.139V78.1167H390.88V80.1367Z" fill="#A4A4A4" />
    <path d="M390.88 85.3008H332.139V83.2795H390.88V85.3008Z" fill="#A4A4A4" />
    <path d="M390.88 90.4648H332.139V88.4449H390.88V90.4648Z" fill="#A4A4A4" />
    <path d="M390.88 95.6289H332.139V93.6089H390.88V95.6289Z" fill="#A4A4A4" />
    <path
      d="M466.467 44.6563H466.392C465.763 44.6563 465.179 44.7977 464.66 45.027V69.0043C465.179 69.2337 465.763 69.375 466.392 69.375H466.467C468.509 69.375 470.165 68.011 470.165 66.3297V47.7017C470.165 46.0203 468.509 44.6563 466.467 44.6563Z"
      fill="#9F769E" />
    <path
      d="M466.467 27.9063H466.392C465.763 27.9063 465.179 28.049 464.66 28.277V52.2543C465.179 52.4837 465.763 52.625 466.392 52.625H466.467C468.509 52.625 470.165 51.261 470.165 49.5797V30.9517C470.165 29.2703 468.509 27.9063 466.467 27.9063Z"
      fill="#FFCC66" />
    <path
      d="M466.467 11.1524H466.392C465.763 11.1524 465.179 11.2937 464.66 11.5231V35.5004C465.179 35.7298 465.763 35.8711 466.392 35.8711H466.467C468.509 35.8711 470.165 34.5071 470.165 32.8257V14.1978C470.165 12.5164 468.509 11.1524 466.467 11.1524Z"
      fill="#97DAD8" />
    <path d="M396.992 107.164H466.047V8.43073H396.992V107.164Z" fill="#F7F7F7" />
    <path d="M403.223 18.1758H461.965V16.1555H403.223V18.1758Z" fill="#A4A4A4" />
    <path d="M403.223 23.3398H461.965V21.319H403.223V23.3398Z" fill="#A4A4A4" />
    <path d="M403.223 28.5H461.965V26.4797H403.223V28.5Z" fill="#A4A4A4" />
    <path d="M403.223 33.6641H461.965V31.6443H403.223V33.6641Z" fill="#A4A4A4" />
    <path d="M403.223 38.8281H461.965V36.8068H403.223V38.8281Z" fill="#A4A4A4" />
    <path d="M403.223 43.9922H461.965V41.9719H403.223V43.9922Z" fill="#A4A4A4" />
    <path d="M403.223 49.1562H461.965V47.1365H403.223V49.1562Z" fill="#A4A4A4" />
    <path d="M403.223 54.3203H461.965V52.299H403.223V54.3203Z" fill="#A4A4A4" />
    <path d="M403.223 59.4824H461.965V57.4621H403.223V59.4824Z" fill="#A4A4A4" />
    <path d="M403.223 64.6465H461.965V62.6262H403.223V64.6465Z" fill="#A4A4A4" />
    <path d="M403.223 69.8105H461.965V67.7892H403.223V69.8105Z" fill="#A4A4A4" />
    <path d="M403.223 74.9727H461.965V72.9523H403.223V74.9727Z" fill="#A4A4A4" />
    <path d="M403.223 80.1367H461.965V78.1164H403.223V80.1367Z" fill="#A4A4A4" />
    <path d="M403.223 85.3008H461.965V83.2794H403.223V85.3008Z" fill="#A4A4A4" />
    <path d="M403.223 90.4648H461.965V88.4445H403.223V90.4648Z" fill="#A4A4A4" />
    <path d="M403.223 95.6289H461.965V93.6086H403.223V95.6289Z" fill="#A4A4A4" />
    <path d="M440.4 116.242L409.688 109.818H440.4V116.242Z" fill="#1D98AC" />
    <path d="M440.398 109.818H409.686L396.992 107.164H440.398V109.818Z" fill="#B8AA97" />
    <path
      d="M440.398 107.164H396.992C396.992 67.6747 396.992 47.9201 396.992 8.43073L437.423 16.1547H403.22V18.1747H440.398V21.3174H403.22V23.3387H440.398V26.4814H403.22V28.5014H440.398V31.6454H403.22V33.6654H440.398V36.8081H403.22V38.8294H440.398V41.9721H403.22V43.9921H440.398V47.1361H403.22V49.1561H440.398V52.2987H403.22V54.32H440.398V57.4627H403.22V59.4827H440.398V62.6267H403.22V64.6467H440.398V67.7894H403.22V69.8107H440.398V72.9534H403.22V74.9734H440.398V78.1174H403.22V80.1374H440.398V83.2801H403.22V85.3014H440.398V88.4441H403.22V90.4641H440.398V93.6081H403.22V95.6281H440.398V107.164Z"
      fill="#D6D6D6" />
    <path d="M440.4 18.1758H403.223V16.1558H437.425L440.4 16.7224V18.1758Z" fill="#8E8E8E" />
    <path d="M403.223 23.3398H440.4V21.319H403.223V23.3398Z" fill="#8E8E8E" />
    <path d="M403.223 28.5H440.4V26.4797H403.223V28.5Z" fill="#8E8E8E" />
    <path d="M403.223 33.6641H440.4V31.6443H403.223V33.6641Z" fill="#8E8E8E" />
    <path d="M403.223 38.8281H440.4V36.8068H403.223V38.8281Z" fill="#8E8E8E" />
    <path d="M403.223 43.9922H440.4V41.9719H403.223V43.9922Z" fill="#8E8E8E" />
    <path d="M403.223 49.1562H440.4V47.1365H403.223V49.1562Z" fill="#8E8E8E" />
    <path d="M403.223 54.3203H440.4V52.299H403.223V54.3203Z" fill="#8E8E8E" />
    <path d="M403.223 59.4824H440.4V57.4621H403.223V59.4824Z" fill="#8E8E8E" />
    <path d="M403.223 64.6465H440.4V62.6262H403.223V64.6465Z" fill="#8E8E8E" />
    <path d="M403.223 69.8105H440.4V67.7892H403.223V69.8105Z" fill="#8E8E8E" />
    <path d="M403.223 74.9727H440.4V72.9523H403.223V74.9727Z" fill="#8E8E8E" />
    <path d="M403.223 80.1367H440.4V78.1164H403.223V80.1367Z" fill="#8E8E8E" />
    <path d="M403.223 85.3008H440.4V83.2794H403.223V85.3008Z" fill="#8E8E8E" />
    <path d="M403.223 90.4648H440.4V88.4445H403.223V90.4648Z" fill="#8E8E8E" />
    <path d="M403.223 95.6289H440.4V93.6086H403.223V95.6289Z" fill="#8E8E8E" />
    <path
      d="M433.674 88.1961L396.992 107.164C396.992 67.6747 396.992 47.9201 396.992 8.43073L433.674 -10.5373C433.674 28.9521 433.674 48.7067 433.674 88.1961Z"
      fill="white" />
    <path
      d="M429.599 2.11585C426.179 3.93452 405.492 14.9279 400.43 17.6172C400.43 16.8132 400.43 16.4105 400.43 15.6065C405.492 12.9172 426.175 1.92918 429.595 0.111851C429.596 0.913183 429.598 1.31452 429.599 2.11585Z"
      fill="#A4A4A4" />
    <path
      d="M429.611 7.23916C426.188 9.05916 405.495 20.0645 400.43 22.7578C400.43 21.9525 400.43 21.5512 400.43 20.7458C405.494 18.0525 426.184 7.05249 429.606 5.23249C429.608 6.03515 429.608 6.43649 429.611 7.23916Z"
      fill="#A4A4A4" />
    <path
      d="M429.623 12.3689C426.199 14.1916 405.496 25.2103 400.43 27.9062C400.43 27.1009 400.43 26.6982 400.43 25.8929C405.496 23.1969 426.195 12.1822 429.618 10.3622C429.62 11.1649 429.62 11.5662 429.623 12.3689Z"
      fill="#A4A4A4" />
    <path
      d="M429.634 17.5026C426.21 19.3266 405.499 30.3586 400.43 33.0586C400.43 32.2519 400.43 31.8479 400.43 31.0426C405.498 28.3426 426.206 17.3159 429.63 15.4933C429.631 16.2973 429.632 16.6986 429.634 17.5026Z"
      fill="#A4A4A4" />
    <path
      d="M429.646 22.6376C426.22 24.4629 405.5 35.5083 400.43 38.2109C400.43 37.4043 400.43 37.0003 400.43 36.1936C405.5 33.4909 426.216 22.4523 429.642 20.6269C429.643 21.4309 429.644 21.8323 429.646 22.6376Z"
      fill="#A4A4A4" />
    <path
      d="M429.658 27.7791C426.23 29.6071 405.503 40.6644 400.43 43.3711C400.43 42.5631 400.43 42.1591 400.43 41.3511C405.502 38.6457 426.226 27.5938 429.652 25.7658C429.655 26.5711 429.656 26.9738 429.658 27.7791Z"
      fill="#A4A4A4" />
    <path
      d="M429.67 32.9258C426.24 34.7551 405.504 45.8258 400.43 48.5352C400.43 47.7272 400.43 47.3232 400.43 46.5138C405.504 43.8058 426.236 32.7405 429.664 30.9112C429.667 31.7165 429.667 32.1191 429.67 32.9258Z"
      fill="#A4A4A4" />
    <path
      d="M429.682 38.0751C426.251 39.9071 405.507 50.9911 400.43 53.7031C400.43 52.8938 400.43 52.4898 400.43 51.6805C405.506 48.9685 426.247 37.8911 429.676 36.0591C429.678 36.8658 429.679 37.2685 429.682 38.0751Z"
      fill="#A4A4A4" />
    <path
      d="M429.692 43.2283C426.262 45.063 405.508 56.159 400.43 58.875C400.43 58.0657 400.43 57.6603 400.43 56.851C405.508 54.1363 426.258 43.0457 429.688 41.211C429.69 42.0177 429.691 42.4217 429.692 43.2283Z"
      fill="#A4A4A4" />
    <path
      d="M429.704 48.3855C426.271 50.2228 405.511 61.3321 400.43 64.0508C400.43 63.2401 400.43 62.8348 400.43 62.0255C405.51 59.3068 426.267 48.2028 429.7 46.3668C429.702 47.1748 429.703 47.5788 429.704 48.3855Z"
      fill="#A4A4A4" />
    <path
      d="M429.716 53.5478C426.282 55.3865 405.514 66.5091 400.43 69.2305C400.43 68.4198 400.43 68.0145 400.43 67.2038C405.512 64.4825 426.278 53.3651 429.711 51.5265C429.714 52.3358 429.715 52.7398 429.716 53.5478Z"
      fill="#A4A4A4" />
    <path
      d="M429.728 58.7133C426.292 60.5547 405.515 71.6893 400.43 74.416C400.43 73.604 400.43 73.1973 400.43 72.3867C405.514 69.6627 426.288 58.532 429.723 56.692C429.726 57.5 429.726 57.9053 429.728 58.7133Z"
      fill="#A4A4A4" />
    <path
      d="M429.74 63.8835C426.303 65.7262 405.518 76.8742 400.43 79.6035C400.43 78.7915 400.43 78.3849 400.43 77.5729C405.516 74.8449 426.299 63.7022 429.735 61.8595C429.736 62.6688 429.738 63.0742 429.74 63.8835Z"
      fill="#A4A4A4" />
    <path
      d="M429.751 69.0595C426.314 70.9049 405.519 82.0649 400.43 84.7969C400.43 83.9849 400.43 83.5782 400.43 82.7649C405.519 80.0342 426.31 68.8782 429.747 67.0342C429.748 67.8435 429.75 68.2489 429.751 69.0595Z"
      fill="#A4A4A4" />
    <path
      d="M429.763 74.2349C426.323 76.0829 405.522 87.2575 400.43 89.9922C400.43 89.1789 400.43 88.7709 400.43 87.9575C405.52 85.2242 426.319 74.0549 429.759 72.2082C429.76 73.0189 429.762 73.4242 429.763 74.2349Z"
      fill="#A4A4A4" />
    <path
      d="M429.775 79.4187C426.334 81.268 405.523 92.456 400.43 95.1934C400.43 94.38 400.43 93.972 400.43 93.1587C405.523 90.4214 426.33 79.2387 429.771 77.3907C429.772 78.2014 429.774 78.6067 429.775 79.4187Z"
      fill="#A4A4A4" />
    <path d="M356.635 41.2578L353.535 38.8858L350.434 41.2578V7.29115H356.635V41.2578Z" fill="#9F769E" />
    <path d="M208.908 224.075V257.758H239.539V251.372H245.923V224.075H208.908Z" fill="#9F769E" />
    <path d="M214.836 232.465H241.503V229.721H214.836V232.465Z" fill="white" />
    <path d="M214.836 238.496H241.503V235.752H214.836V238.496Z" fill="white" />
    <path d="M214.836 244.523H241.503V241.779H214.836V244.523Z" fill="white" />
    <path d="M214.836 250.555H233.147V247.809H214.836V250.555Z" fill="white" />
    <path d="M239.539 257.758L245.923 251.372H239.539V257.758Z" fill="white" />
    <path d="M254.605 237.255V270.938H285.235V264.552H291.62V237.255H254.605Z" fill="#FFCC66" />
    <path d="M260.531 245.645H287.198V242.899H260.531V245.645Z" fill="white" />
    <path d="M260.531 251.676H287.198V248.93H260.531V251.676Z" fill="white" />
    <path d="M260.531 257.703H287.198V254.958H260.531V257.703Z" fill="white" />
    <path d="M260.531 263.734H278.841V260.989H260.531V263.734Z" fill="white" />
    <path d="M285.234 270.938L291.62 264.552H285.234V270.938Z" fill="white" />
    <path
      d="M287.515 171.854C287.783 170.586 288.073 169.199 288.372 167.762C288.609 169.027 288.855 170.326 289.099 171.622C288.551 171.667 288.023 171.743 287.515 171.854ZM284.399 167.584C283.633 163.315 283.024 159.379 282.808 156.678C283.772 157.796 284.871 158.747 286.093 159.376C285.504 162.092 284.916 164.912 284.399 167.584ZM281.38 134.202C281.297 133.131 281.248 132.504 281.248 132.504L285.553 131.52C285.553 131.52 285.564 131.61 285.583 131.791C283.971 132.11 282.612 132.79 281.38 134.202Z"
      fill="#4A7583" />
    <path
      d="M285.531 200.926L280.656 200.527C280.656 200.527 280.751 199.771 280.899 198.511C282.043 199.828 283.602 200.574 285.543 200.827C285.535 200.894 285.531 200.926 285.531 200.926ZM283.258 174.06C283.552 172.126 283.947 169.91 284.398 167.583C284.692 169.223 285.01 170.914 285.336 172.602C284.584 172.972 283.891 173.454 283.258 174.06ZM288.371 167.76C287.796 164.711 287.259 161.86 286.856 159.719C287.647 160.026 288.484 160.196 289.368 160.196C289.554 160.196 289.734 160.196 289.907 160.196C289.422 162.66 288.884 165.288 288.371 167.76Z"
      fill="#4A7583" />
    <path
      d="M285.337 172.602C285.01 170.914 284.693 169.223 284.398 167.583C284.916 164.911 285.504 162.091 286.093 159.375C286.342 159.503 286.597 159.619 286.857 159.719C287.26 161.86 287.797 164.711 288.372 167.76C288.073 169.198 287.782 170.584 287.514 171.852C286.741 172.019 286.016 172.266 285.337 172.602Z"
      fill="#546672" />
    <path
      d="M287.151 200.926C286.59 200.926 286.054 200.894 285.544 200.827C285.628 200.114 286.127 195.531 286.19 186.823L288.694 188.723C289.11 190.61 289.368 191.748 289.368 191.748C289.368 191.748 289.724 191.958 290.167 191.958C290.619 191.958 291.16 191.74 291.508 190.86L297.878 195.695C294.872 198.894 290.7 200.926 287.151 200.926ZM280.9 198.511C278.934 196.246 278.19 192.292 278.816 186.25C278.987 184.586 279.224 183.096 279.52 181.76L282.394 183.94C281.954 189.362 281.264 195.436 280.9 198.511Z"
      fill="#53C1D4" />
    <path
      d="M290.167 191.959C289.724 191.959 289.368 191.75 289.368 191.75C289.368 191.75 289.109 190.611 288.693 188.724L291.508 190.862C291.16 191.742 290.619 191.959 290.167 191.959Z"
      fill="#7294A1" />
    <path
      d="M285.544 200.828C283.603 200.575 282.044 199.829 280.9 198.512C281.264 195.437 281.954 189.363 282.394 183.941L286.19 186.824C286.127 195.532 285.628 200.115 285.544 200.828Z"
      fill="#7294A1" />
    <path
      d="M297.877 195.695L291.508 190.861C291.714 190.338 291.853 189.582 291.864 188.499L299.217 194.082C298.804 194.647 298.357 195.187 297.877 195.695ZM288.693 188.723L286.189 186.823C286.196 185.985 286.197 185.11 286.194 184.195L288.005 185.569C288.262 186.761 288.496 187.827 288.693 188.723ZM282.393 183.941L279.52 181.761C279.693 180.978 279.89 180.249 280.104 179.57L282.578 181.45C282.524 182.254 282.461 183.09 282.393 183.941Z"
      fill="#D3EFF4" />
    <path
      d="M291.507 190.861L288.692 188.724C288.495 187.828 288.261 186.761 288.004 185.569L291.863 188.5C291.852 189.583 291.713 190.339 291.507 190.861Z"
      fill="#DBE3E6" />
    <path
      d="M286.191 186.824L282.395 183.942C282.463 183.091 282.525 182.255 282.58 181.451L286.196 184.196C286.199 185.111 286.197 185.986 286.191 186.824Z"
      fill="#DBE3E6" />
    <path
      d="M301.533 189.307L290.901 181.199C290.389 178.479 289.745 175.057 289.098 171.621C289.513 171.587 289.938 171.571 290.374 171.571C296.758 171.571 301.934 178.141 301.933 186.251C301.933 187.299 301.79 188.32 301.533 189.307ZM286.357 177.733L286.273 177.669C286.284 177.615 286.297 177.557 286.309 177.497C286.325 177.576 286.341 177.655 286.357 177.733ZM283.088 175.24L282.545 174.827C282.773 174.552 283.012 174.296 283.258 174.061C283.197 174.467 283.14 174.86 283.088 175.24Z"
      fill="#53C1D4" />
    <path
      d="M290.901 181.199L286.357 177.734C286.341 177.655 286.325 177.577 286.309 177.498C286.547 176.397 286.986 174.353 287.514 171.854C288.022 171.743 288.55 171.667 289.098 171.622C289.745 175.058 290.389 178.479 290.901 181.199Z"
      fill="#7294A1" />
    <path
      d="M286.273 177.668L283.088 175.239C283.14 174.859 283.197 174.465 283.259 174.06C283.892 173.453 284.585 172.972 285.337 172.601C285.656 174.251 285.985 175.899 286.309 177.496C286.297 177.556 286.284 177.613 286.273 177.668Z"
      fill="#7294A1" />
    <path
      d="M286.308 177.496C285.984 175.899 285.655 174.251 285.336 172.601C286.015 172.265 286.74 172.019 287.513 171.852C286.985 174.351 286.547 176.395 286.308 177.496Z"
      fill="#7A8894" />
    <path
      d="M299.217 194.082L291.864 188.499C291.876 187.227 291.712 185.506 291.274 183.182C291.234 182.969 291.193 182.749 291.15 182.521L301.251 190.226C300.778 191.602 300.078 192.898 299.217 194.082ZM288.005 185.569L286.194 184.195C286.189 182.493 286.168 180.657 286.125 178.687L286.633 179.075C287.122 181.45 287.594 183.67 288.005 185.569ZM282.578 181.45L280.104 179.57C280.618 177.951 281.254 176.621 282.002 175.543L282.953 176.27C282.839 177.203 282.765 178.031 282.734 178.721C282.697 179.571 282.644 180.489 282.578 181.45Z"
      fill="#53C1D4" />
    <path
      d="M291.863 188.5L288.005 185.569C287.594 183.671 287.122 181.451 286.633 179.076L291.15 182.521C291.193 182.749 291.234 182.969 291.274 183.183C291.711 185.507 291.875 187.228 291.863 188.5Z"
      fill="#7294A1" />
    <path
      d="M286.194 184.195L282.578 181.45C282.643 180.489 282.697 179.571 282.734 178.721C282.765 178.031 282.839 177.203 282.953 176.27L286.125 178.687C286.167 180.657 286.189 182.493 286.194 184.195Z"
      fill="#7294A1" />
    <path
      d="M301.253 190.227L291.152 182.521C291.073 182.103 290.991 181.661 290.903 181.199L301.535 189.307C301.453 189.617 301.359 189.924 301.253 190.227ZM286.635 179.076L286.127 178.688C286.124 178.587 286.121 178.485 286.12 178.384C286.12 178.384 286.175 178.129 286.275 177.669L286.359 177.733C286.452 178.187 286.543 178.633 286.635 179.076ZM282.955 176.271L282.004 175.544C282.18 175.291 282.36 175.053 282.547 174.827L283.089 175.24C283.04 175.596 282.995 175.94 282.955 176.271Z"
      fill="#D3EFF4" />
    <path
      d="M291.151 182.521L286.633 179.076C286.541 178.634 286.451 178.187 286.357 177.733L290.901 181.199C290.989 181.661 291.072 182.103 291.151 182.521Z"
      fill="#DBE3E6" />
    <path
      d="M286.125 178.688L282.953 176.27C282.993 175.94 283.038 175.596 283.088 175.24L286.273 177.669C286.173 178.129 286.118 178.383 286.118 178.383C286.12 178.485 286.122 178.586 286.125 178.688Z"
      fill="#DBE3E6" />
    <path
      d="M290.31 160.199C290.18 160.199 290.045 160.199 289.908 160.198C290.436 157.527 290.902 155.051 291.216 153.183C291.284 152.773 291.345 152.381 291.4 152.006L297.872 156.902C294.892 160.063 293.472 160.199 290.31 160.199ZM286.469 157.659C286.261 156.558 286.14 155.914 286.14 155.914C286.201 153.046 286.224 150.439 286.218 148.087L288.289 149.654C287.768 151.883 287.128 154.671 286.469 157.659ZM282.808 156.678C279.882 153.283 278.19 148.333 277.968 146.041C277.794 144.245 277.649 143.291 277.968 141.847L282.148 145.009C282.386 148.653 282.613 152.478 282.738 155.559C282.752 155.903 282.776 156.277 282.808 156.678Z"
      fill="#53C1D4" />
    <path
      d="M286.094 159.375C284.871 158.746 283.772 157.795 282.808 156.676C282.776 156.275 282.752 155.902 282.739 155.558C282.614 152.476 282.387 148.651 282.148 145.007L286.219 148.086C286.224 150.438 286.202 153.044 286.14 155.912C286.14 155.912 286.262 156.556 286.47 157.658C286.344 158.224 286.219 158.796 286.094 159.375Z"
      fill="#7294A1" />
    <path
      d="M289.907 160.197C289.734 160.197 289.554 160.197 289.369 160.197C288.485 160.197 287.647 160.027 286.857 159.72C286.707 158.927 286.577 158.231 286.469 157.659C287.127 154.671 287.767 151.883 288.289 149.653L291.399 152.005C291.345 152.38 291.283 152.772 291.215 153.183C290.902 155.051 290.435 157.527 289.907 160.197Z"
      fill="#7294A1" />
    <path
      d="M286.858 159.719C286.598 159.619 286.343 159.503 286.094 159.375C286.219 158.796 286.344 158.224 286.47 157.657C286.578 158.229 286.708 158.925 286.858 159.719Z"
      fill="#7A8894" />
    <path
      d="M297.873 156.902L291.401 152.006C291.545 151.017 291.642 150.149 291.699 149.39L299.323 155.158C298.878 155.772 298.39 156.354 297.873 156.902ZM288.29 149.654L286.219 148.088C286.217 147.089 286.21 146.134 286.199 145.228L288.859 147.241C288.694 147.938 288.502 148.749 288.29 149.654ZM282.149 145.009L277.969 141.848C278.157 141.001 278.369 140.214 278.603 139.481L281.947 142.01C282.014 142.982 282.082 143.989 282.149 145.009Z"
      fill="#D3EFF4" />
    <path
      d="M286.217 148.086L282.147 145.007C282.08 143.987 282.012 142.981 281.945 142.009L286.197 145.226C286.208 146.133 286.215 147.087 286.217 148.086Z"
      fill="#DBE3E6" />
    <path
      d="M291.4 152.004L288.289 149.652C288.501 148.747 288.693 147.936 288.858 147.239L291.698 149.388C291.641 150.147 291.544 151.015 291.4 152.004Z"
      fill="#DBE3E6" />
    <path
      d="M301.833 150L285.999 137.965C285.845 134.528 285.655 132.487 285.583 131.791C286.708 131.567 287.956 131.52 289.371 131.52C296.291 131.52 302.267 137.94 302.267 146.695C302.267 147.829 302.115 148.933 301.833 150ZM281.4 134.471L281.248 134.355C281.292 134.303 281.336 134.252 281.38 134.201C281.385 134.288 281.393 134.377 281.4 134.471Z"
      fill="#53C1D4" />
    <path
      d="M285.998 137.965L281.399 134.47C281.392 134.377 281.384 134.288 281.379 134.201C282.611 132.789 283.97 132.109 285.582 131.79C285.654 132.486 285.844 134.528 285.998 137.965Z"
      fill="#7294A1" />
    <path
      d="M299.322 155.156L291.698 149.388C292.024 145.083 291.079 144.279 290.328 144.279C289.88 144.279 289.502 144.564 289.502 144.564C289.502 144.564 289.256 145.567 288.858 147.239L286.198 145.226C286.17 142.934 286.115 140.935 286.05 139.226L301.528 150.99C301.014 152.479 300.258 153.879 299.322 155.156ZM281.946 142.008L278.602 139.479C279.162 137.728 279.847 136.294 280.659 135.127L281.496 135.764C281.62 137.432 281.78 139.616 281.946 142.008Z"
      fill="#53C1D4" />
    <path
      d="M286.197 145.227L281.945 142.009C281.78 139.617 281.62 137.433 281.496 135.765L286.049 139.227C286.115 140.936 286.169 142.935 286.197 145.227Z"
      fill="#7294A1" />
    <path
      d="M291.699 149.391L288.859 147.241C289.258 145.569 289.503 144.567 289.503 144.567C289.503 144.567 289.882 144.281 290.33 144.281C291.081 144.281 292.026 145.085 291.699 149.391Z"
      fill="#7294A1" />
    <path
      d="M301.529 150.99L286.051 139.226C286.035 138.786 286.017 138.366 285.999 137.965L301.833 150C301.744 150.334 301.643 150.665 301.529 150.99ZM281.497 135.765L280.66 135.128C280.848 134.854 281.047 134.597 281.248 134.354L281.4 134.47C281.429 134.856 281.461 135.289 281.497 135.765Z"
      fill="#D3EFF4" />
    <path
      d="M286.051 139.227L281.498 135.765C281.462 135.289 281.43 134.856 281.4 134.471L285.999 137.965C286.018 138.367 286.035 138.787 286.051 139.227Z"
      fill="#DBE3E6" />
    <path
      d="M299.241 139.017C300.612 141.253 301.984 149.174 300.106 152.7C298.193 156.297 294.708 157.964 292.008 158.361C286.66 159.146 282.834 158.422 281.418 152.448C280.25 147.512 279.11 140.746 280.484 137.029C280.809 136.144 281.549 134.926 283.272 134.276C286.365 133.105 295.105 132.253 299.241 139.017ZM292.006 174.086C294.708 174.485 298.192 176.153 300.105 179.749C301.982 183.273 300.609 191.196 299.24 193.433C295.101 200.193 286.362 199.342 283.269 198.173C281.546 197.521 280.808 196.304 280.481 195.418C279.109 191.7 280.249 184.934 281.417 180C282.833 174.024 286.66 173.301 292.006 174.086ZM278.324 149.709C281.313 162.45 282.1 166.226 282.1 166.226C282.1 166.226 281.313 169.998 278.322 182.737C275.336 195.476 277.537 203.968 279.266 205.069L285.085 205.07C284.661 205.07 286.416 203.129 286.51 203.077C289.49 201.532 292.27 201.104 295.262 200.045C300.177 198.309 302.676 194.018 303.438 188.902C303.7 187.142 303.74 185.3 303.609 183.525C303.329 179.749 301.916 176.237 299.633 174.404C297.881 172.992 294.833 170.993 286.974 167.797V164.65C294.833 161.454 297.881 159.454 299.633 158.048C301.917 156.212 303.33 152.7 303.61 148.926C303.741 147.149 303.701 145.306 303.44 143.545C302.678 138.43 300.18 134.14 295.265 132.402C292.273 131.345 289.493 130.917 286.513 129.369C286.418 129.32 284.664 127.377 285.088 127.377H279.269C277.54 128.478 275.338 136.969 278.324 149.709Z"
      fill="#010101" />
    <path d="M73.6152 261.916H135.195V221.353H73.6152V261.916Z" fill="white" />
    <path d="M135.196 229.445H73.6152V221.353H135.196V229.445Z" fill="#FFCC66" />
    <path d="M130.888 236.352H106.297V234.49H130.888V236.352Z" fill="#A4A4A4" />
    <path d="M130.888 241.125H106.297V239.265H130.888V241.125Z" fill="#A4A4A4" />
    <path d="M130.888 245.898H106.297V244.038H130.888V245.898Z" fill="#A4A4A4" />
    <path d="M130.888 250.674H106.297V248.812H130.888V250.674Z" fill="#A4A4A4" />
    <path d="M130.888 255.445H106.297V253.585H130.888V255.445Z" fill="#A4A4A4" />
    <path
      d="M94.849 237.125C94.8328 238.43 94.4552 239.29 94.2266 239.354C93.5032 239.558 92.0068 236.229 89.9558 236.229H89.9552C87.9042 236.229 86.4079 239.558 85.6839 239.354C85.4558 239.29 85.0703 238.372 85.0703 237.068C85.0703 235.582 85.1808 233.324 86.7298 233.446C86.7298 233.446 86.6276 232.182 88.9479 232.101C90.5818 232.044 92.2084 232.213 93.197 232.768C94.4667 233.481 94.876 234.882 94.849 237.125Z"
      fill="#AD958B" />
    <path
      d="M80.7757 249.976C80.8789 248.019 83.6038 247.512 85.8189 247.151C87.0033 246.959 87.3752 245.728 87.4674 244.624C88.218 245.32 89.1856 246.031 89.9538 246.031C90.7132 246.031 91.685 245.318 92.4398 244.62C92.5309 245.726 92.9022 246.959 94.0882 247.151C96.3033 247.512 98.9981 248.142 99.1013 250.099C99.2044 252.056 99.3174 256.82 99.3174 256.82H90.0694H89.8377H80.5898C80.5898 256.82 80.6726 251.935 80.7757 249.976Z"
      fill="#F9D5BE" />
    <path
      d="M80.7757 249.976C80.8789 248.019 83.6038 247.512 85.8189 247.151C87.0033 246.959 89.1856 248.147 89.9538 248.147C90.7132 248.147 92.9022 246.959 94.0882 247.151C96.3033 247.512 98.8757 248.019 98.9789 249.976C99.0814 251.935 99.3174 256.82 99.3174 256.82H90.0694H89.8377H80.5898C80.5898 256.82 80.6726 251.935 80.7757 249.976Z"
      fill="white" />
    <path
      d="M87.4688 244.625C87.4838 244.441 87.4942 244.258 87.4964 244.086H92.4139C92.4155 244.257 92.426 244.438 92.4412 244.621C91.6864 245.318 90.7145 246.031 89.9552 246.031C89.1869 246.031 88.2193 245.321 87.4688 244.625Z"
      fill="#F9D5BE" />
    <path
      d="M89.9552 246.031C89.1869 246.031 88.2193 245.321 87.4688 244.625C87.4817 244.469 87.4912 244.315 87.4948 244.167C88.1973 244.882 89.1896 245.682 89.9552 245.682C90.712 245.682 91.7093 244.879 92.415 244.163C92.4193 244.311 92.4281 244.465 92.4412 244.621C91.6864 245.318 90.7145 246.031 89.9552 246.031Z"
      fill="#E5B99F" />
    <path
      d="M85.0195 238.704C85.2642 238.618 85.4882 238.761 85.6632 238.948C85.6548 238.705 85.657 238.52 85.6642 238.421C85.6642 235.52 87.9414 233.872 89.9554 233.869C91.969 233.872 94.246 235.52 94.246 238.421C94.2532 238.52 94.2554 238.705 94.2475 238.948C94.422 238.761 94.6466 238.618 94.8908 238.704C95.2808 238.84 95.0876 241.214 93.9496 241.64L93.8564 241.664C93.7086 242.213 93.5106 242.746 93.2428 243.186C92.9335 243.694 91.1466 245.684 89.9554 245.684C88.748 245.684 86.9767 243.694 86.6679 243.186C86.3996 242.746 86.2023 242.213 86.0543 241.664L85.9611 241.64C84.8231 241.214 84.6299 238.84 85.0195 238.704Z"
      fill="#F9D5BE" />
    <path
      d="M90.1007 232.767C86.3247 232.767 84.9471 235.51 85.0789 237.746C85.1377 238.751 85.571 240.074 85.571 240.074C85.6199 240.14 85.8038 240.099 85.7841 239.979C85.4549 237.935 86.6481 235.972 87.2486 235.412C88.5095 234.164 91.7439 237.971 93.7663 236.988C94.1491 237.863 94.3199 238.976 94.1586 239.979C94.1393 240.099 94.3262 240.14 94.3753 240.074C94.3753 240.074 94.8471 238.563 94.8486 237.556C94.8497 236.56 94.3862 232.767 90.1007 232.767Z"
      fill="#AD958B" />
    <path d="M90.9707 248.004H88.9473L89.5453 249.366L89.2593 256.82L90.6349 256.819L90.327 249.366L90.9707 248.004Z"
      fill="#0D1014" />
    <path
      d="M86.0078 247.113L87.2213 245.852C87.0073 246.447 86.6358 246.939 86.0078 247.113ZM93.9015 247.113C93.2729 246.939 92.9021 246.447 92.6874 245.853L93.9015 247.113Z"
      fill="#E3E3E3" />
    <path
      d="M90.6316 248.004H89.277C88.3791 247.724 87.0374 247.131 86.1041 247.131C86.0666 247.131 86.0307 247.131 85.9947 247.133L85.9922 247.128L86.0094 247.111C86.6374 246.936 87.0089 246.444 87.2229 245.849L87.2537 245.819L89.9437 247.957L92.6583 245.819L92.689 245.851C92.9036 246.444 93.2744 246.936 93.9031 247.111L93.9198 247.128L93.9171 247.133C93.8812 247.131 93.8447 247.131 93.8073 247.131C92.8723 247.131 91.527 247.724 90.6316 248.004Z"
      fill="#DEBDA9" />
    <path
      d="M92.6045 249.699L90.6692 248.645L90.9712 248.006H90.6311C91.5264 247.726 92.8717 247.133 93.8067 247.133C93.8441 247.133 93.8807 247.133 93.9165 247.135L92.6045 249.699ZM87.3067 249.699L85.9941 247.135C86.0301 247.133 86.066 247.133 86.1035 247.133C87.0368 247.133 88.3785 247.726 89.2764 248.006H88.9477L89.2311 248.651L87.3067 249.699Z"
      fill="#E3E3E3" />
    <path d="M89.2306 248.65L88.9473 248.005H90.9707L90.6687 248.644L89.9546 248.254L89.2306 248.65Z" fill="#0B0E12" />
    <path
      d="M92.657 245.82L89.9429 247.774L87.2529 245.82L85.9414 246.8L87.3919 249.461L89.9466 247.958L92.5185 249.461L93.969 246.8L92.657 245.82Z"
      fill="white" />
    <path
      d="M80.6425 249.856C80.7457 247.899 83.9529 247.392 86.1686 247.031L89.9586 254.339L93.7717 246.98C95.9873 247.34 99.1644 247.899 99.2676 249.856C99.3701 251.814 99.3186 256.82 99.3186 256.82H90.0706H89.8389H80.591C80.591 256.82 80.5394 251.814 80.6425 249.856Z"
      fill="#B0A59E" />
    <path
      d="M84.5391 247.62L86.1052 246.62L89.9599 254.339L89.9557 256.82L88.6871 256.81L85.2625 250.119L85.9423 249.46L84.5391 247.62Z"
      fill="#938983" />
    <path
      d="M95.3805 247.62L93.8138 246.62L89.959 254.339L89.9638 256.82L91.2325 256.81L94.657 250.119L93.9773 249.46L95.3805 247.62Z"
      fill="#938983" />
    <path
      d="M261.693 211.324H82.3517C79.6881 211.324 77.5293 207.296 77.5293 202.328V99.2922C77.5293 94.3242 79.6881 90.2962 82.3517 90.2962H261.693C264.356 90.2962 266.515 94.3242 266.515 99.2922V202.328C266.515 207.296 264.356 211.324 261.693 211.324Z"
      fill="#EFEFEF" />
    <path
      d="M256.292 167.58L87.7462 167.551C85.243 167.551 83.2143 165.701 83.2148 163.421L83.2232 116.141C83.2238 113.861 85.253 112.013 87.7555 112.013L256.303 112.043C258.806 112.044 260.834 113.892 260.834 116.172L260.826 163.452C260.824 165.732 258.795 167.581 256.292 167.58Z"
      fill="#999999" />
    <path
      d="M92.5073 121.872C92.5073 122.128 92.2983 122.336 92.0431 122.336H86.4171C86.1619 122.336 85.9531 122.128 85.9531 121.872V116.247C85.9531 115.991 86.1619 115.783 86.4171 115.783H92.0431C92.2983 115.783 92.5073 115.991 92.5073 116.247V121.872Z"
      fill="#E7E7E7" />
    <path
      d="M92.5073 131.77C92.5073 132.026 92.2983 132.234 92.0431 132.234H86.4171C86.1619 132.234 85.9531 132.026 85.9531 131.77V126.145C85.9531 125.889 86.1619 125.681 86.4171 125.681H92.0431C92.2983 125.681 92.5073 125.889 92.5073 126.145V131.77Z"
      fill="#E7E7E7" />
    <path
      d="M100.16 131.77C100.16 132.026 99.9508 132.234 99.6961 132.234H94.0695C93.8143 132.234 93.6055 132.026 93.6055 131.77V126.145C93.6055 125.889 93.8143 125.681 94.0695 125.681H99.6961C99.9508 125.681 100.16 125.889 100.16 126.145V131.77Z"
      fill="#E7E7E7" />
    <path
      d="M107.814 131.77C107.814 132.026 107.605 132.234 107.35 132.234H101.724C101.469 132.234 101.26 132.026 101.26 131.77V126.145C101.26 125.889 101.469 125.681 101.724 125.681H107.35C107.605 125.681 107.814 125.889 107.814 126.145V131.77Z"
      fill="#E7E7E7" />
    <path
      d="M115.467 131.77C115.467 132.026 115.259 132.234 115.003 132.234H109.377C109.122 132.234 108.914 132.026 108.914 131.77V126.145C108.914 125.889 109.122 125.681 109.377 125.681H115.003C115.259 125.681 115.467 125.889 115.467 126.145V131.77Z"
      fill="#E7E7E7" />
    <path
      d="M123.123 131.77C123.123 132.026 122.914 132.234 122.659 132.234H117.032C116.776 132.234 116.568 132.026 116.568 131.77V126.145C116.568 125.889 116.776 125.681 117.032 125.681H122.659C122.914 125.681 123.123 125.889 123.123 126.145V131.77Z"
      fill="#E7E7E7" />
    <path
      d="M130.777 131.77C130.777 132.026 130.568 132.234 130.313 132.234H124.687C124.432 132.234 124.223 132.026 124.223 131.77V126.145C124.223 125.889 124.432 125.681 124.687 125.681H130.313C130.568 125.681 130.777 125.889 130.777 126.145V131.77Z"
      fill="#E7E7E7" />
    <path
      d="M138.428 131.77C138.428 132.026 138.22 132.234 137.964 132.234H132.339C132.083 132.234 131.875 132.026 131.875 131.77V126.145C131.875 125.889 132.083 125.681 132.339 125.681H137.964C138.22 125.681 138.428 125.889 138.428 126.145V131.77Z"
      fill="#E7E7E7" />
    <path
      d="M146.084 131.77C146.084 132.026 145.875 132.234 145.62 132.234H139.993C139.739 132.234 139.529 132.026 139.529 131.77V126.145C139.529 125.889 139.739 125.681 139.993 125.681H145.62C145.875 125.681 146.084 125.889 146.084 126.145V131.77Z"
      fill="#E7E7E7" />
    <path
      d="M153.738 131.77C153.738 132.026 153.53 132.234 153.274 132.234H147.648C147.393 132.234 147.184 132.026 147.184 131.77V126.145C147.184 125.889 147.393 125.681 147.648 125.681H153.274C153.53 125.681 153.738 125.889 153.738 126.145V131.77Z"
      fill="#E7E7E7" />
    <path
      d="M161.389 131.77C161.389 132.026 161.181 132.234 160.927 132.234H155.3C155.044 132.234 154.836 132.026 154.836 131.77V126.145C154.836 125.889 155.044 125.681 155.3 125.681H160.927C161.181 125.681 161.389 125.889 161.389 126.145V131.77Z"
      fill="#E7E7E7" />
    <path
      d="M169.045 131.77C169.045 132.026 168.836 132.234 168.581 132.234H162.954C162.7 132.234 162.49 132.026 162.49 131.77V126.145C162.49 125.889 162.7 125.681 162.954 125.681H168.581C168.836 125.681 169.045 125.889 169.045 126.145V131.77Z"
      fill="#E7E7E7" />
    <path
      d="M176.698 131.77C176.698 132.026 176.49 132.234 176.234 132.234H170.609C170.353 132.234 170.145 132.026 170.145 131.77V126.145C170.145 125.889 170.353 125.681 170.609 125.681H176.234C176.49 125.681 176.698 125.889 176.698 126.145V131.77Z"
      fill="#E7E7E7" />
    <path
      d="M184.353 131.77C184.353 132.026 184.144 132.234 183.89 132.234H178.263C178.008 132.234 177.799 132.026 177.799 131.77V126.145C177.799 125.889 178.008 125.681 178.263 125.681H183.89C184.144 125.681 184.353 125.889 184.353 126.145V131.77Z"
      fill="#E7E7E7" />
    <path
      d="M198.718 131.77C198.718 132.026 198.51 132.234 198.254 132.234H185.917C185.662 132.234 185.453 132.026 185.453 131.77V126.145C185.453 125.889 185.662 125.681 185.917 125.681H198.254C198.51 125.681 198.718 125.889 198.718 126.145V131.77Z"
      fill="#E7E7E7" />
    <path
      d="M95.5619 139.694C95.5619 139.949 95.3531 140.158 95.0983 140.158H86.4171C86.1619 140.158 85.9531 139.949 85.9531 139.694V134.068C85.9531 133.813 86.1619 133.604 86.4171 133.604H95.0983C95.3531 133.604 95.5619 133.813 95.5619 134.068V139.694Z"
      fill="#E7E7E7" />
    <path
      d="M97.5333 147.579C97.5333 147.834 97.325 148.043 97.0698 148.043H86.4171C86.1619 148.043 85.9531 147.834 85.9531 147.579V141.952C85.9531 141.698 86.1619 141.488 86.4171 141.488H97.0698C97.325 141.488 97.5333 141.698 97.5333 141.952V147.579Z"
      fill="#E7E7E7" />
    <path
      d="M101.442 155.466C101.442 155.722 101.234 155.93 100.978 155.93H86.4171C86.1619 155.93 85.9531 155.722 85.9531 155.466V149.84C85.9531 149.584 86.1619 149.376 86.4171 149.376H100.978C101.234 149.376 101.442 149.584 101.442 149.84V155.466Z"
      fill="#E7E7E7" />
    <path
      d="M95.8521 163.235C95.8521 163.49 95.6431 163.699 95.3879 163.699H86.4171C86.1619 163.699 85.9531 163.49 85.9531 163.235V157.609C85.9531 157.354 86.1619 157.145 86.4171 157.145H95.3879C95.6431 157.145 95.8521 157.354 95.8521 157.609V163.235Z"
      fill="#E7E7E7" />
    <path
      d="M103.437 139.694C103.437 139.949 103.229 140.158 102.973 140.158H97.3468C97.0916 140.158 96.8828 139.949 96.8828 139.694V134.068C96.8828 133.813 97.0916 133.604 97.3468 133.604H102.973C103.229 133.604 103.437 133.813 103.437 134.068V139.694Z"
      fill="#E7E7E7" />
    <path
      d="M105.323 147.579C105.323 147.834 105.115 148.043 104.859 148.043H99.2335C98.9783 148.043 98.7695 147.834 98.7695 147.579V141.952C98.7695 141.698 98.9783 141.488 99.2335 141.488H104.859C105.115 141.488 105.323 141.698 105.323 141.952V147.579Z"
      fill="#E7E7E7" />
    <path
      d="M113.234 147.579C113.234 147.834 113.026 148.043 112.77 148.043H107.144C106.889 148.043 106.68 147.834 106.68 147.579V141.952C106.68 141.698 106.889 141.488 107.144 141.488H112.77C113.026 141.488 113.234 141.698 113.234 141.952V147.579Z"
      fill="#E7E7E7" />
    <path
      d="M109.367 155.466C109.367 155.722 109.158 155.93 108.903 155.93H103.277C103.022 155.93 102.812 155.722 102.812 155.466V149.84C102.812 149.584 103.022 149.376 103.277 149.376H108.903C109.158 149.376 109.367 149.584 109.367 149.84V155.466Z"
      fill="#E7E7E7" />
    <path
      d="M103.652 163.235C103.652 163.49 103.443 163.699 103.188 163.699H97.5618C97.3066 163.699 97.0977 163.49 97.0977 163.235V157.609C97.0977 157.354 97.3066 157.145 97.5618 157.145H103.188C103.443 157.145 103.652 157.354 103.652 157.609V163.235Z"
      fill="#E7E7E7" />
    <path
      d="M111.562 163.235C111.562 163.49 111.353 163.699 111.098 163.699H105.472C105.217 163.699 105.008 163.49 105.008 163.235V157.609C105.008 157.354 105.217 157.145 105.472 157.145H111.098C111.353 157.145 111.562 157.354 111.562 157.609V163.235Z"
      fill="#E7E7E7" />
    <path
      d="M119.399 163.235C119.399 163.49 119.191 163.699 118.935 163.699H113.308C113.054 163.699 112.846 163.49 112.846 163.235V157.609C112.846 157.354 113.054 157.145 113.308 157.145H118.935C119.191 157.145 119.399 157.354 119.399 157.609V163.235Z"
      fill="#E7E7E7" />
    <path
      d="M166.52 163.235C166.52 163.49 166.31 163.699 166.056 163.699H121.084C120.829 163.699 120.621 163.49 120.621 163.235V157.609C120.621 157.354 120.829 157.145 121.084 157.145H166.056C166.31 157.145 166.52 157.354 166.52 157.609V163.235Z"
      fill="#E7E7E7" />
    <path
      d="M117.331 155.466C117.331 155.722 117.123 155.93 116.867 155.93H111.241C110.985 155.93 110.777 155.722 110.777 155.466V149.84C110.777 149.584 110.985 149.376 111.241 149.376H116.867C117.123 149.376 117.331 149.584 117.331 149.84V155.466Z"
      fill="#E7E7E7" />
    <path
      d="M125.295 155.466C125.295 155.722 125.086 155.93 124.831 155.93H119.204C118.95 155.93 118.74 155.722 118.74 155.466V149.84C118.74 149.584 118.95 149.376 119.204 149.376H124.831C125.086 149.376 125.295 149.584 125.295 149.84V155.466Z"
      fill="#E7E7E7" />
    <path
      d="M133.258 155.466C133.258 155.722 133.048 155.93 132.794 155.93H127.167C126.912 155.93 126.703 155.722 126.703 155.466V149.84C126.703 149.584 126.912 149.376 127.167 149.376H132.794C133.048 149.376 133.258 149.584 133.258 149.84V155.466Z"
      fill="#E7E7E7" />
    <path
      d="M141.221 155.466C141.221 155.722 141.013 155.93 140.757 155.93H135.131C134.876 155.93 134.668 155.722 134.668 155.466V149.84C134.668 149.584 134.876 149.376 135.131 149.376H140.757C141.013 149.376 141.221 149.584 141.221 149.84V155.466Z"
      fill="#E7E7E7" />
    <path
      d="M149.184 155.466C149.184 155.722 148.974 155.93 148.72 155.93H143.093C142.837 155.93 142.629 155.722 142.629 155.466V149.84C142.629 149.584 142.837 149.376 143.093 149.376H148.72C148.974 149.376 149.184 149.584 149.184 149.84V155.466Z"
      fill="#E7E7E7" />
    <path
      d="M157.146 155.466C157.146 155.722 156.937 155.93 156.682 155.93H151.056C150.801 155.93 150.592 155.722 150.592 155.466V149.84C150.592 149.584 150.801 149.376 151.056 149.376H156.682C156.937 149.376 157.146 149.584 157.146 149.84V155.466Z"
      fill="#E7E7E7" />
    <path
      d="M165.108 155.466C165.108 155.722 164.9 155.93 164.644 155.93H159.017C158.763 155.93 158.555 155.722 158.555 155.466V149.84C158.555 149.584 158.763 149.376 159.017 149.376H164.644C164.9 149.376 165.108 149.584 165.108 149.84V155.466Z"
      fill="#E7E7E7" />
    <path
      d="M173.074 155.466C173.074 155.722 172.865 155.93 172.61 155.93H166.984C166.728 155.93 166.52 155.722 166.52 155.466V149.84C166.52 149.584 166.728 149.376 166.984 149.376H172.61C172.865 149.376 173.074 149.584 173.074 149.84V155.466Z"
      fill="#E7E7E7" />
    <path
      d="M174.795 163.235C174.795 163.49 174.586 163.699 174.331 163.699H168.704C168.45 163.699 168.24 163.49 168.24 163.235V157.609C168.24 157.354 168.45 157.145 168.704 157.145H174.331C174.586 157.145 174.795 157.354 174.795 157.609V163.235Z"
      fill="#E7E7E7" />
    <path
      d="M182.77 163.235C182.77 163.49 182.56 163.699 182.306 163.699H176.679C176.424 163.699 176.215 163.49 176.215 163.235V157.609C176.215 157.354 176.424 157.145 176.679 157.145H182.306C182.56 157.145 182.77 157.354 182.77 157.609V163.235Z"
      fill="#E7E7E7" />
    <path
      d="M190.744 163.235C190.744 163.49 190.535 163.699 190.28 163.699H184.653C184.397 163.699 184.189 163.49 184.189 163.235V157.609C184.189 157.354 184.397 157.145 184.653 157.145H190.28C190.535 157.145 190.744 157.354 190.744 157.609V163.235Z"
      fill="#E7E7E7" />
    <path
      d="M198.717 163.235C198.717 163.49 198.509 163.699 198.253 163.699H192.628C192.372 163.699 192.164 163.49 192.164 163.235V157.609C192.164 157.354 192.372 157.145 192.628 157.145H198.253C198.509 157.145 198.717 157.354 198.717 157.609V163.235Z"
      fill="#E7E7E7" />
    <path
      d="M181.035 155.466C181.035 155.722 180.826 155.93 180.571 155.93H174.944C174.69 155.93 174.48 155.722 174.48 155.466V149.84C174.48 149.584 174.69 149.376 174.944 149.376H180.571C180.826 149.376 181.035 149.584 181.035 149.84V155.466Z"
      fill="#E7E7E7" />
    <path
      d="M198.717 155.466C198.717 155.722 198.509 155.93 198.253 155.93H182.908C182.653 155.93 182.445 155.722 182.445 155.466V149.84C182.445 149.584 182.653 149.376 182.908 149.376H198.253C198.509 149.376 198.717 149.584 198.717 149.84V155.466Z"
      fill="#E7E7E7" />
    <path
      d="M121.144 147.579C121.144 147.834 120.935 148.043 120.681 148.043H115.054C114.799 148.043 114.59 147.834 114.59 147.579V141.952C114.59 141.698 114.799 141.488 115.054 141.488H120.681C120.935 141.488 121.144 141.698 121.144 141.952V147.579Z"
      fill="#E7E7E7" />
    <path
      d="M129.055 147.579C129.055 147.834 128.845 148.043 128.591 148.043H122.964C122.709 148.043 122.5 147.834 122.5 147.579V141.952C122.5 141.698 122.709 141.488 122.964 141.488H128.591C128.845 141.488 129.055 141.698 129.055 141.952V147.579Z"
      fill="#E7E7E7" />
    <path
      d="M136.965 147.579C136.965 147.834 136.755 148.043 136.501 148.043H130.874C130.62 148.043 130.41 147.834 130.41 147.579V141.952C130.41 141.698 130.62 141.488 130.874 141.488H136.501C136.755 141.488 136.965 141.698 136.965 141.952V147.579Z"
      fill="#E7E7E7" />
    <path
      d="M144.874 147.579C144.874 147.834 144.666 148.043 144.411 148.043H138.784C138.528 148.043 138.32 147.834 138.32 147.579V141.952C138.32 141.698 138.528 141.488 138.784 141.488H144.411C144.666 141.488 144.874 141.698 144.874 141.952V147.579Z"
      fill="#E7E7E7" />
    <path
      d="M152.786 147.579C152.786 147.834 152.578 148.043 152.322 148.043H146.696C146.44 148.043 146.232 147.834 146.232 147.579V141.952C146.232 141.698 146.44 141.488 146.696 141.488H152.322C152.578 141.488 152.786 141.698 152.786 141.952V147.579Z"
      fill="#E7E7E7" />
    <path
      d="M160.695 147.579C160.695 147.834 160.487 148.043 160.231 148.043H154.605C154.35 148.043 154.141 147.834 154.141 147.579V141.952C154.141 141.698 154.35 141.488 154.605 141.488H160.231C160.487 141.488 160.695 141.698 160.695 141.952V147.579Z"
      fill="#E7E7E7" />
    <path
      d="M168.605 147.579C168.605 147.834 168.396 148.043 168.141 148.043H162.515C162.26 148.043 162.051 147.834 162.051 147.579V141.952C162.051 141.698 162.26 141.488 162.515 141.488H168.141C168.396 141.488 168.605 141.698 168.605 141.952V147.579Z"
      fill="#E7E7E7" />
    <path
      d="M176.518 147.579C176.518 147.834 176.308 148.043 176.054 148.043H170.427C170.172 148.043 169.963 147.834 169.963 147.579V141.952C169.963 141.698 170.172 141.488 170.427 141.488H176.054C176.308 141.488 176.518 141.698 176.518 141.952V147.579Z"
      fill="#E7E7E7" />
    <path
      d="M184.428 147.579C184.428 147.834 184.218 148.043 183.964 148.043H178.337C178.081 148.043 177.873 147.834 177.873 147.579V141.952C177.873 141.698 178.081 141.488 178.337 141.488H183.964C184.218 141.488 184.428 141.698 184.428 141.952V147.579Z"
      fill="#E7E7E7" />
    <path
      d="M111.273 139.694C111.273 139.949 111.064 140.158 110.809 140.158H105.183C104.928 140.158 104.719 139.949 104.719 139.694V134.068C104.719 133.813 104.928 133.604 105.183 133.604H110.809C111.064 133.604 111.273 133.813 111.273 134.068V139.694Z"
      fill="#E7E7E7" />
    <path
      d="M119.109 139.694C119.109 139.949 118.901 140.158 118.645 140.158H113.019C112.764 140.158 112.555 139.949 112.555 139.694V134.068C112.555 133.813 112.764 133.604 113.019 133.604H118.645C118.901 133.604 119.109 133.813 119.109 134.068V139.694Z"
      fill="#E7E7E7" />
    <path
      d="M126.945 139.694C126.945 139.949 126.736 140.158 126.481 140.158H120.855C120.599 140.158 120.391 139.949 120.391 139.694V134.068C120.391 133.813 120.599 133.604 120.855 133.604H126.481C126.736 133.604 126.945 133.813 126.945 134.068V139.694Z"
      fill="#E7E7E7" />
    <path
      d="M134.777 139.694C134.777 139.949 134.568 140.158 134.313 140.158H128.687C128.432 140.158 128.223 139.949 128.223 139.694V134.068C128.223 133.813 128.432 133.604 128.687 133.604H134.313C134.568 133.604 134.777 133.813 134.777 134.068V139.694Z"
      fill="#E7E7E7" />
    <path
      d="M142.612 139.694C142.612 139.949 142.404 140.158 142.149 140.158H136.523C136.267 140.158 136.059 139.949 136.059 139.694V134.068C136.059 133.813 136.267 133.604 136.523 133.604H142.149C142.404 133.604 142.612 133.813 142.612 134.068V139.694Z"
      fill="#E7E7E7" />
    <path
      d="M150.449 139.694C150.449 139.949 150.24 140.158 149.985 140.158H144.359C144.104 140.158 143.895 139.949 143.895 139.694V134.068C143.895 133.813 144.104 133.604 144.359 133.604H149.985C150.24 133.604 150.449 133.813 150.449 134.068V139.694Z"
      fill="#E7E7E7" />
    <path
      d="M158.284 139.694C158.284 139.949 158.076 140.158 157.82 140.158H152.194C151.938 140.158 151.73 139.949 151.73 139.694V134.068C151.73 133.813 151.938 133.604 152.194 133.604H157.82C158.076 133.604 158.284 133.813 158.284 134.068V139.694Z"
      fill="#E7E7E7" />
    <path
      d="M166.121 139.694C166.121 139.949 165.912 140.158 165.657 140.158H160.03C159.776 140.158 159.566 139.949 159.566 139.694V134.068C159.566 133.813 159.776 133.604 160.03 133.604H165.657C165.912 133.604 166.121 133.813 166.121 134.068V139.694Z"
      fill="#E7E7E7" />
    <path
      d="M173.956 139.694C173.956 139.949 173.748 140.158 173.492 140.158H167.865C167.61 140.158 167.402 139.949 167.402 139.694V134.068C167.402 133.813 167.61 133.604 167.865 133.604H173.492C173.748 133.604 173.956 133.813 173.956 134.068V139.694Z"
      fill="#E7E7E7" />
    <path
      d="M181.791 139.694C181.791 139.949 181.582 140.158 181.327 140.158H175.7C175.446 140.158 175.236 139.949 175.236 139.694V134.068C175.236 133.813 175.446 133.604 175.7 133.604H181.327C181.582 133.604 181.791 133.813 181.791 134.068V139.694Z"
      fill="#E7E7E7" />
    <path
      d="M189.625 139.694C189.625 139.949 189.417 140.158 189.161 140.158H183.534C183.28 140.158 183.07 139.949 183.07 139.694V134.068C183.07 133.813 183.28 133.604 183.534 133.604H189.161C189.417 133.604 189.625 133.813 189.625 134.068V139.694Z"
      fill="#E7E7E7" />
    <path
      d="M191.37 133.603C191.114 133.603 190.906 133.812 190.906 134.067V139.694C190.906 139.948 191.114 140.158 191.37 140.158H193.178C193.434 140.158 193.642 140.366 193.642 140.622V147.579C193.642 147.834 193.852 148.043 194.106 148.043H198.253C198.509 148.043 198.717 147.834 198.717 147.579V134.067C198.717 133.812 198.509 133.603 198.253 133.603H191.37Z"
      fill="#E7E7E7" />
    <path
      d="M191.372 141.488C191.116 141.488 190.698 141.488 190.444 141.488H186.249C185.993 141.488 185.785 141.698 185.785 141.952V147.579C185.785 147.834 185.993 148.043 186.249 148.043H190.444C190.698 148.043 191.116 148.043 191.372 148.043H191.874C192.13 148.043 192.338 147.834 192.338 147.579V141.952C192.338 141.698 192.13 141.488 191.874 141.488H191.372Z"
      fill="#E7E7E7" />
    <path
      d="M104.718 121.872C104.718 122.128 104.509 122.336 104.254 122.336H98.6282C98.373 122.336 98.1641 122.128 98.1641 121.872V116.247C98.1641 115.991 98.373 115.783 98.6282 115.783H104.254C104.509 115.783 104.718 115.991 104.718 116.247V121.872Z"
      fill="#E7E7E7" />
    <path
      d="M113.234 121.872C113.234 122.128 113.026 122.336 112.77 122.336H107.144C106.889 122.336 106.68 122.128 106.68 121.872V116.247C106.68 115.991 106.889 115.783 107.144 115.783H112.77C113.026 115.783 113.234 115.991 113.234 116.247V121.872Z"
      fill="#E7E7E7" />
    <path
      d="M121.749 121.872C121.749 122.128 121.541 122.336 121.285 122.336H115.658C115.403 122.336 115.195 122.128 115.195 121.872V116.247C115.195 115.991 115.403 115.783 115.658 115.783H121.285C121.541 115.783 121.749 115.991 121.749 116.247V121.872Z"
      fill="#E7E7E7" />
    <path
      d="M130.262 121.872C130.262 122.128 130.054 122.336 129.798 122.336H124.173C123.917 122.336 123.709 122.128 123.709 121.872V116.247C123.709 115.991 123.917 115.783 124.173 115.783H129.798C130.054 115.783 130.262 115.991 130.262 116.247V121.872Z"
      fill="#E7E7E7" />
    <path
      d="M138.944 121.872C138.944 122.128 138.736 122.336 138.481 122.336H132.855C132.599 122.336 132.391 122.128 132.391 121.872V116.247C132.391 115.991 132.599 115.783 132.855 115.783H138.481C138.736 115.783 138.944 115.991 138.944 116.247V121.872Z"
      fill="#E7E7E7" />
    <path
      d="M147.461 121.872C147.461 122.128 147.252 122.336 146.997 122.336H141.37C141.116 122.336 140.906 122.128 140.906 121.872V116.247C140.906 115.991 141.116 115.783 141.37 115.783H146.997C147.252 115.783 147.461 115.991 147.461 116.247V121.872Z"
      fill="#E7E7E7" />
    <path
      d="M155.977 121.872C155.977 122.128 155.767 122.336 155.513 122.336H149.886C149.631 122.336 149.422 122.128 149.422 121.872V116.247C149.422 115.991 149.631 115.783 149.886 115.783H155.513C155.767 115.783 155.977 115.991 155.977 116.247V121.872Z"
      fill="#E7E7E7" />
    <path
      d="M164.49 121.872C164.49 122.128 164.281 122.336 164.026 122.336H158.4C158.145 122.336 157.936 122.128 157.936 121.872V116.247C157.936 115.991 158.145 115.783 158.4 115.783H164.026C164.281 115.783 164.49 115.991 164.49 116.247V121.872Z"
      fill="#E7E7E7" />
    <path
      d="M173.174 121.872C173.174 122.128 172.964 122.336 172.71 122.336H167.083C166.828 122.336 166.619 122.128 166.619 121.872V116.247C166.619 115.991 166.828 115.783 167.083 115.783H172.71C172.964 115.783 173.174 115.991 173.174 116.247V121.872Z"
      fill="#E7E7E7" />
    <path
      d="M181.687 121.872C181.687 122.128 181.478 122.336 181.223 122.336H175.597C175.342 122.336 175.133 122.128 175.133 121.872V116.247C175.133 115.991 175.342 115.783 175.597 115.783H181.223C181.478 115.783 181.687 115.991 181.687 116.247V121.872Z"
      fill="#E7E7E7" />
    <path
      d="M190.202 121.872C190.202 122.128 189.994 122.336 189.738 122.336H184.111C183.856 122.336 183.648 122.128 183.648 121.872V116.247C183.648 115.991 183.856 115.783 184.111 115.783H189.738C189.994 115.783 190.202 115.991 190.202 116.247V121.872Z"
      fill="#E7E7E7" />
    <path
      d="M198.717 121.872C198.717 122.128 198.509 122.336 198.253 122.336H192.628C192.372 122.336 192.164 122.128 192.164 121.872V116.247C192.164 115.991 192.372 115.783 192.628 115.783H198.253C198.509 115.783 198.717 115.991 198.717 116.247V121.872Z"
      fill="#E7E7E7" />
    <path
      d="M209.154 121.872C209.154 122.128 208.946 122.336 208.69 122.336H203.064C202.809 122.336 202.6 122.128 202.6 121.872V116.247C202.6 115.991 202.809 115.783 203.064 115.783H208.69C208.946 115.783 209.154 115.991 209.154 116.247V121.872Z"
      fill="#E7E7E7" />
    <path
      d="M217.389 121.872C217.389 122.128 217.181 122.336 216.925 122.336H211.3C211.044 122.336 210.836 122.128 210.836 121.872V116.247C210.836 115.991 211.044 115.783 211.3 115.783H216.925C217.181 115.783 217.389 115.991 217.389 116.247V121.872Z"
      fill="#E7E7E7" />
    <path
      d="M225.623 121.872C225.623 122.128 225.414 122.336 225.159 122.336H219.532C219.278 122.336 219.068 122.128 219.068 121.872V116.247C219.068 115.991 219.278 115.783 219.532 115.783H225.159C225.414 115.783 225.623 115.991 225.623 116.247V121.872Z"
      fill="#E7E7E7" />
    <path
      d="M209.154 131.77C209.154 132.026 208.946 132.234 208.69 132.234H203.064C202.809 132.234 202.6 132.026 202.6 131.77V126.145C202.6 125.889 202.809 125.681 203.064 125.681H208.69C208.946 125.681 209.154 125.889 209.154 126.145V131.77Z"
      fill="#E7E7E7" />
    <path
      d="M217.389 131.77C217.389 132.026 217.181 132.234 216.925 132.234H211.3C211.044 132.234 210.836 132.026 210.836 131.77V126.145C210.836 125.889 211.044 125.681 211.3 125.681H216.925C217.181 125.681 217.389 125.889 217.389 126.145V131.77Z"
      fill="#E7E7E7" />
    <path
      d="M225.623 131.77C225.623 132.026 225.414 132.234 225.159 132.234H219.532C219.278 132.234 219.068 132.026 219.068 131.77V126.145C219.068 125.889 219.278 125.681 219.532 125.681H225.159C225.414 125.681 225.623 125.889 225.623 126.145V131.77Z"
      fill="#E7E7E7" />
    <path
      d="M234.608 131.77C234.608 132.026 234.4 132.234 234.145 132.234H228.519C228.263 132.234 228.055 132.026 228.055 131.77V126.145C228.055 125.889 228.263 125.681 228.519 125.681H234.145C234.4 125.681 234.608 125.889 234.608 126.145V131.77Z"
      fill="#E7E7E7" />
    <path
      d="M242.436 131.77C242.436 132.026 242.228 132.234 241.972 132.234H236.347C236.091 132.234 235.883 132.026 235.883 131.77V126.145C235.883 125.889 236.091 125.681 236.347 125.681H241.972C242.228 125.681 242.436 125.889 242.436 126.145V131.77Z"
      fill="#E7E7E7" />
    <path
      d="M250.264 131.77C250.264 132.026 250.056 132.234 249.8 132.234H244.174C243.919 132.234 243.711 132.026 243.711 131.77V126.145C243.711 125.889 243.919 125.681 244.174 125.681H249.8C250.056 125.681 250.264 125.889 250.264 126.145V131.77Z"
      fill="#E7E7E7" />
    <path
      d="M258.092 131.77C258.092 132.026 257.882 132.234 257.628 132.234H252.001C251.746 132.234 251.537 132.026 251.537 131.77V126.145C251.537 125.889 251.746 125.681 252.001 125.681H257.628C257.882 125.681 258.092 125.889 258.092 126.145V131.77Z"
      fill="#E7E7E7" />
    <path
      d="M234.608 121.872C234.608 122.128 234.4 122.336 234.145 122.336H228.519C228.263 122.336 228.055 122.128 228.055 121.872V116.247C228.055 115.991 228.263 115.783 228.519 115.783H234.145C234.4 115.783 234.608 115.991 234.608 116.247V121.872Z"
      fill="#E7E7E7" />
    <path
      d="M242.436 121.872C242.436 122.128 242.228 122.336 241.972 122.336H236.347C236.091 122.336 235.883 122.128 235.883 121.872V116.247C235.883 115.991 236.091 115.783 236.347 115.783H241.972C242.228 115.783 242.436 115.991 242.436 116.247V121.872Z"
      fill="#E7E7E7" />
    <path
      d="M250.264 121.872C250.264 122.128 250.056 122.336 249.8 122.336H244.174C243.919 122.336 243.711 122.128 243.711 121.872V116.247C243.711 115.991 243.919 115.783 244.174 115.783H249.8C250.056 115.783 250.264 115.991 250.264 116.247V121.872Z"
      fill="#E7E7E7" />
    <path
      d="M258.092 121.872C258.092 122.128 257.882 122.336 257.628 122.336H252.001C251.746 122.336 251.537 122.128 251.537 121.872V116.247C251.537 115.991 251.746 115.783 252.001 115.783H257.628C257.882 115.783 258.092 115.991 258.092 116.247V121.872Z"
      fill="#E7E7E7" />
    <path
      d="M234.608 139.694C234.608 139.949 234.4 140.158 234.145 140.158H228.519C228.263 140.158 228.055 139.949 228.055 139.694V134.068C228.055 133.813 228.263 133.604 228.519 133.604H234.145C234.4 133.604 234.608 133.813 234.608 134.068V139.694Z"
      fill="#E7E7E7" />
    <path
      d="M242.436 139.694C242.436 139.949 242.228 140.158 241.972 140.158H236.347C236.091 140.158 235.883 139.949 235.883 139.694V134.068C235.883 133.813 236.091 133.604 236.347 133.604H241.972C242.228 133.604 242.436 133.813 242.436 134.068V139.694Z"
      fill="#E7E7E7" />
    <path
      d="M250.264 139.694C250.264 139.949 250.056 140.158 249.8 140.158H244.174C243.919 140.158 243.711 139.949 243.711 139.694V134.068C243.711 133.813 243.919 133.604 244.174 133.604H249.8C250.056 133.604 250.264 133.813 250.264 134.068V139.694Z"
      fill="#E7E7E7" />
    <path
      d="M258.092 139.694C258.092 139.949 257.882 140.158 257.628 140.158H252.001C251.746 140.158 251.537 139.949 251.537 139.694V134.068C251.537 133.813 251.746 133.604 252.001 133.604H257.628C257.882 133.604 258.092 133.813 258.092 134.068V139.694Z"
      fill="#E7E7E7" />
    <path
      d="M234.608 147.618C234.608 147.873 234.4 148.082 234.145 148.082H228.519C228.263 148.082 228.055 147.873 228.055 147.618V141.991C228.055 141.737 228.263 141.527 228.519 141.527H234.145C234.4 141.527 234.608 141.737 234.608 141.991V147.618Z"
      fill="#E7E7E7" />
    <path
      d="M242.436 147.618C242.436 147.873 242.228 148.082 241.972 148.082H236.347C236.091 148.082 235.883 147.873 235.883 147.618V141.991C235.883 141.737 236.091 141.527 236.347 141.527H241.972C242.228 141.527 242.436 141.737 242.436 141.991V147.618Z"
      fill="#E7E7E7" />
    <path
      d="M250.264 147.618C250.264 147.873 250.056 148.082 249.8 148.082H244.174C243.919 148.082 243.711 147.873 243.711 147.618V141.991C243.711 141.737 243.919 141.527 244.174 141.527H249.8C250.056 141.527 250.264 141.737 250.264 141.991V147.618Z"
      fill="#E7E7E7" />
    <path
      d="M258.092 147.618C258.092 147.873 257.882 148.082 257.628 148.082H252.001C251.746 148.082 251.537 147.873 251.537 147.618V141.991C251.537 141.737 251.746 141.527 252.001 141.527H257.628C257.882 141.527 258.092 141.737 258.092 141.991V147.618Z"
      fill="#E7E7E7" />
    <path
      d="M234.608 155.544C234.608 155.8 234.4 156.008 234.145 156.008H228.519C228.263 156.008 228.055 155.8 228.055 155.544V149.918C228.055 149.662 228.263 149.454 228.519 149.454H234.145C234.4 149.454 234.608 149.662 234.608 149.918V155.544Z"
      fill="#E7E7E7" />
    <path
      d="M242.436 155.544C242.436 155.8 242.228 156.008 241.972 156.008H236.347C236.091 156.008 235.883 155.8 235.883 155.544V149.918C235.883 149.662 236.091 149.454 236.347 149.454H241.972C242.228 149.454 242.436 149.662 242.436 149.918V155.544Z"
      fill="#E7E7E7" />
    <path
      d="M250.264 155.544C250.264 155.8 250.056 156.008 249.8 156.008H244.174C243.919 156.008 243.711 155.8 243.711 155.544V149.918C243.711 149.662 243.919 149.454 244.174 149.454H249.8C250.056 149.454 250.264 149.662 250.264 149.918V155.544Z"
      fill="#E7E7E7" />
    <path
      d="M258.092 163.235C258.092 163.49 257.882 163.699 257.628 163.699H252.001C251.746 163.699 251.537 163.49 251.537 163.235V149.917C251.537 149.661 251.746 149.453 252.001 149.453H257.628C257.882 149.453 258.092 149.661 258.092 149.917V163.235Z"
      fill="#E7E7E7" />
    <path
      d="M242.436 163.468C242.436 163.722 242.228 163.932 241.972 163.932H228.519C228.263 163.932 228.055 163.722 228.055 163.468V157.841C228.055 157.586 228.263 157.377 228.519 157.377H241.972C242.228 157.377 242.436 157.586 242.436 157.841V163.468Z"
      fill="#E7E7E7" />
    <path
      d="M250.264 163.468C250.264 163.722 250.056 163.932 249.8 163.932H244.174C243.919 163.932 243.711 163.722 243.711 163.468V157.841C243.711 157.586 243.919 157.377 244.174 157.377H249.8C250.056 157.377 250.264 157.586 250.264 157.841V163.468Z"
      fill="#E7E7E7" />
    <path
      d="M209.154 139.694C209.154 139.949 208.946 140.158 208.69 140.158H203.064C202.809 140.158 202.6 139.949 202.6 139.694V134.068C202.6 133.813 202.809 133.604 203.064 133.604H208.69C208.946 133.604 209.154 133.813 209.154 134.068V139.694Z"
      fill="#E7E7E7" />
    <path
      d="M217.389 139.694C217.389 139.949 217.181 140.158 216.925 140.158H211.3C211.044 140.158 210.836 139.949 210.836 139.694V134.068C210.836 133.813 211.044 133.604 211.3 133.604H216.925C217.181 133.604 217.389 133.813 217.389 134.068V139.694Z"
      fill="#E7E7E7" />
    <path
      d="M225.623 139.694C225.623 139.949 225.414 140.158 225.159 140.158H219.532C219.278 140.158 219.068 139.949 219.068 139.694V134.068C219.068 133.813 219.278 133.604 219.532 133.604H225.159C225.414 133.604 225.623 133.813 225.623 134.068V139.694Z"
      fill="#E7E7E7" />
    <path
      d="M209.154 147.579C209.154 147.834 208.946 148.043 208.69 148.043H203.064C202.809 148.043 202.6 147.834 202.6 147.579V141.952C202.6 141.698 202.809 141.488 203.064 141.488H208.69C208.946 141.488 209.154 141.698 209.154 141.952V147.579Z"
      fill="#E7E7E7" />
    <path
      d="M217.389 147.579C217.389 147.834 217.181 148.043 216.925 148.043H211.3C211.044 148.043 210.836 147.834 210.836 147.579V141.952C210.836 141.698 211.044 141.488 211.3 141.488H216.925C217.181 141.488 217.389 141.698 217.389 141.952V147.579Z"
      fill="#E7E7E7" />
    <path
      d="M225.623 147.579C225.623 147.834 225.414 148.043 225.159 148.043H219.532C219.278 148.043 219.068 147.834 219.068 147.579V141.952C219.068 141.698 219.278 141.488 219.532 141.488H225.159C225.414 141.488 225.623 141.698 225.623 141.952V147.579Z"
      fill="#E7E7E7" />
    <path
      d="M217.389 155.309C217.389 155.565 217.181 155.773 216.925 155.773H211.3C211.044 155.773 210.836 155.565 210.836 155.309V149.684C210.836 149.428 211.044 149.22 211.3 149.22H216.925C217.181 149.22 217.389 149.428 217.389 149.684V155.309Z"
      fill="#E7E7E7" />
    <path
      d="M209.154 163.235C209.154 163.49 208.946 163.699 208.69 163.699H203.064C202.809 163.699 202.6 163.49 202.6 163.235V157.609C202.6 157.354 202.809 157.145 203.064 157.145H208.69C208.946 157.145 209.154 157.354 209.154 157.609V163.235Z"
      fill="#E7E7E7" />
    <path
      d="M217.389 163.235C217.389 163.49 217.181 163.699 216.925 163.699H211.3C211.044 163.699 210.836 163.49 210.836 163.235V157.609C210.836 157.354 211.044 157.145 211.3 157.145H216.925C217.181 157.145 217.389 157.354 217.389 157.609V163.235Z"
      fill="#E7E7E7" />
    <path
      d="M225.623 163.235C225.623 163.49 225.414 163.699 225.159 163.699H219.532C219.278 163.699 219.068 163.49 219.068 163.235V157.609C219.068 157.354 219.278 157.145 219.532 157.145H225.159C225.414 157.145 225.623 157.354 225.623 157.609V163.235Z"
      fill="#E7E7E7" />
    <path
      d="M190.715 201.805H153.33C151.631 201.805 150.254 200.429 150.254 198.73V175.409C150.254 173.71 151.631 172.333 153.33 172.333H190.715C192.414 172.333 193.79 173.71 193.79 175.409V198.73C193.79 200.429 192.414 201.805 190.715 201.805Z"
      fill="#D6D5D2" />
    <path
      d="M111.795 87.3065C111.414 91.2732 112.671 95.8398 115.574 95.8398H228.474C231.376 95.8398 232.634 91.2732 232.251 87.3065H111.795Z"
      fill="#5A5A5A" />
    <path
      d="M227.146 95.1973H116.902C111.892 95.1973 111.892 88.4479 116.902 88.4479H227.146C232.155 88.4479 232.155 95.1973 227.146 95.1973Z"
      fill="#B3B3B3" />
    <path
      d="M278.423 3.68151H65.6247C65.1064 3.68151 64.5262 3.91482 64.0351 4.32148L59.709 8.49482C59.709 8.49482 58.4674 11.1602 60.4794 11.1602H283.568C286.16 11.1602 284.287 8.43883 284.287 8.43883L280.012 4.32148C279.521 3.91482 278.941 3.68151 278.423 3.68151Z"
      fill="#E5E5E5" />
    <path d="M73.6534 11.2559H68.0586L70.7301 3.68255H76.181L73.6534 11.2559Z" fill="#BDBDBD" />
    <path d="M78.956 11.2559H76.6055L79.0571 3.68255H81.3471L78.956 11.2559Z" fill="#BDBDBD" />
    <path d="M266.975 11.2559H261.38L259.084 3.68255H264.535L266.975 11.2559Z" fill="#BDBDBD" />
    <path d="M272.279 11.2559H269.928L267.412 3.68255H269.703L272.279 11.2559Z" fill="#BDBDBD" />
    <path d="M259.573 11.2559H258.398L256.18 3.68255H257.324L259.573 11.2559Z" fill="#BDBDBD" />
    <path
      d="M262.516 89.6406H81.5317C79.4292 89.6406 77.1719 87.362 76.4807 84.5126L59.3552 13.938C58.3787 9.91263 59.6427 6.59795 62.1948 6.59795H281.853C284.404 6.59795 285.669 9.91263 284.692 13.938L267.567 84.5126C266.876 87.362 264.619 89.6406 262.516 89.6406Z"
      fill="#010101" />
    <path d="M262.547 80.957H81.5019L64.3301 13.2917H279.718L262.547 80.957Z" fill="#97DAD8" />
    <path d="M262.547 80.957H219.679L187.254 13.2917H279.718L262.547 80.957Z" fill="#C1E9E8" />
    <path d="M144.374 80.957H126.606L104.455 13.2917H120.43L144.374 80.957Z" fill="#C1E9E8" />
    <path d="M163.093 80.957H154.304L129.096 13.2917H137.084L163.093 80.957Z" fill="#C1E9E8" />
    <path
      d="M213.559 310.802C213.559 329.615 198.307 344.867 179.492 344.867C160.678 344.867 145.426 329.615 145.426 310.802C145.426 291.986 160.678 276.734 179.492 276.734C198.307 276.734 213.559 291.986 213.559 310.802Z"
      fill="#F4F6F5" />
    <path
      d="M177.012 331.453C163.174 331.453 151.957 320.193 151.957 306.304C151.957 303.001 152.592 299.848 153.745 296.958C152.846 299.506 152.357 302.245 152.357 305.1C152.357 318.613 163.312 329.568 176.825 329.568C184.076 329.568 190.569 326.396 195.049 321.385C195.374 321.832 195.77 322.234 196.257 322.554L201.161 325.78C201.957 326.304 202.854 326.553 203.741 326.553C205.272 326.554 206.773 325.808 207.677 324.434C209.049 322.346 208.545 319.569 206.573 318.089L206.65 318.138C208.873 319.605 210.064 323.945 208.602 326.177C207.676 327.589 206.14 328.356 204.572 328.356C203.664 328.354 202.745 328.098 201.93 327.56L196.909 324.245C196.41 323.916 196.004 323.501 195.672 323.042C191.085 328.193 184.436 331.453 177.012 331.453ZM200.741 314.322C200.372 314.162 199.99 314.052 199.604 313.989C200.681 311.23 201.294 308.24 201.294 305.1C201.294 299.342 199.305 294.048 195.976 289.869C199.77 294.277 202.066 300.021 202.066 306.304C202.066 309.112 201.592 311.804 200.741 314.322Z"
      fill="#D2D4D3" />
    <path
      d="M206.574 318.088L202.089 315.243C201.959 315.157 201.833 315.124 201.707 315.124C201.507 315.124 201.311 315.207 201.109 315.288C200.906 315.369 200.698 315.451 200.477 315.451C200.43 315.451 200.383 315.447 200.335 315.44C200.479 315.071 200.615 314.699 200.742 314.321C200.977 314.424 201.206 314.547 201.427 314.693L206.331 317.917C206.414 317.972 206.495 318.029 206.574 318.088ZM153.746 296.957C157.101 287.447 166.167 280.631 176.826 280.631C184.582 280.631 191.494 284.239 195.977 289.868C191.383 284.531 184.591 281.153 177.013 281.153C166.466 281.153 157.441 287.696 153.746 296.957Z"
      fill="#C6C7C7" />
    <path
      d="M176.825 329.566C163.312 329.566 152.357 318.612 152.357 305.098C152.357 302.244 152.847 299.505 153.745 296.957C157.44 287.696 166.465 281.153 177.012 281.153C184.591 281.153 191.383 284.53 195.976 289.868C199.305 294.046 201.295 299.341 201.295 305.098C201.295 308.238 200.681 311.229 199.604 313.988C199.991 314.05 200.372 314.161 200.741 314.321C200.615 314.698 200.479 315.07 200.335 315.44C200.383 315.446 200.429 315.45 200.476 315.45C200.697 315.45 200.905 315.369 201.108 315.288C201.311 315.206 201.507 315.124 201.707 315.124C201.832 315.124 201.959 315.157 202.088 315.242L206.573 318.088C208.545 319.568 209.049 322.345 207.677 324.433C206.773 325.806 205.272 326.553 203.741 326.552C202.855 326.552 201.957 326.302 201.161 325.778L196.257 322.553C195.771 322.233 195.375 321.83 195.049 321.384C190.569 326.394 184.076 329.566 176.825 329.566Z"
      fill="#B5B6B6" />
    <path
      d="M206.011 317.634L201.154 314.439C200.59 314.068 199.974 313.843 199.347 313.74C200.415 311.01 201.022 308.046 201.022 304.936C201.022 291.55 190.171 280.698 176.784 280.698C163.399 280.698 152.547 291.55 152.547 304.936C152.547 318.322 163.399 329.174 176.784 329.174C183.967 329.174 190.399 326.031 194.836 321.068C195.158 321.51 195.551 321.908 196.034 322.226L200.891 325.42C203.042 326.834 205.931 326.238 207.346 324.088C208.759 321.938 208.162 319.047 206.011 317.634Z"
      fill="white" />
    <path
      d="M196.465 305.093C196.465 315.961 187.654 324.773 176.785 324.773C165.916 324.773 157.104 315.961 157.104 305.093C157.104 294.223 165.916 285.411 176.785 285.411C187.654 285.411 196.465 294.223 196.465 305.093Z"
      fill="#AD958B" />
    <path
      d="M172.184 317.185C167.644 315.823 164.13 311.784 163.707 306.427C163.212 300.175 167.04 294.793 172.646 293.168C176.407 292.077 189.398 291.853 188.843 307.324C188.843 307.324 186.568 293.129 173.606 295.981C169.414 296.903 166.311 301.4 166.678 306.373C166.986 310.549 169.552 313.145 172.895 314.377C174.842 315.097 177.471 315.12 179.438 314.141C183.066 312.332 182.936 307.873 180.88 305.099C179.076 302.665 174.031 301.784 173.224 305.352C172.782 307.309 174.752 309.607 177.946 309.924C175.723 310.92 171.592 311.375 170.164 307.331C168.871 303.671 172.755 296.736 180.768 300.604C185.402 302.841 186.887 308.78 184.319 312.92C181.076 318.149 174.694 317.937 172.184 317.185Z"
      fill="white" />
    <path
      d="M472.452 342.576H393.342C391.95 342.576 390.82 341.704 390.82 340.627V240.672C390.82 239.595 391.95 238.722 393.342 238.722H472.452C473.844 238.722 474.974 239.595 474.974 240.672V340.627C474.974 341.704 473.844 342.576 472.452 342.576Z"
      fill="#010101" />
    <path d="M468.72 329.242H397.076V246.746H468.72V329.242Z" fill="#E9E8E6" />
    <path d="M468.06 328.484H397.736V247.506H468.06V328.484Z" fill="#719EC6" />
    <path d="M468.06 328.484H450.495L437.656 247.506H468.06V328.484Z" fill="#AAC5DD" />
    <path d="M446.488 328.484H442.205L428.996 247.506H433.839L446.488 328.484Z" fill="#AAC5DD" />
    <path
      d="M437.495 242.866C437.495 243.284 437.156 243.623 436.738 243.623C436.319 243.623 435.98 243.284 435.98 242.866C435.98 242.448 436.319 242.108 436.738 242.108C437.156 242.108 437.495 242.448 437.495 242.866Z"
      fill="#7B91AB" />
    <path
      d="M434.178 242.866C434.178 243.284 433.751 243.623 433.224 243.623H425.775C425.248 243.623 424.82 243.284 424.82 242.866C424.82 242.448 425.248 242.108 425.775 242.108H433.224C433.751 242.108 434.178 242.448 434.178 242.866Z"
      fill="#7B91AB" />
    <path
      d="M435.597 334.657C435.597 336.229 434.322 337.504 432.749 337.504C431.177 337.504 429.902 336.229 429.902 334.657C429.902 333.085 431.177 331.811 432.749 331.811C434.322 331.811 435.597 333.085 435.597 334.657Z"
      fill="#E9E8E6" />
    <path
      d="M434.983 334.659C434.983 335.892 433.983 336.891 432.75 336.891C431.518 336.891 430.518 335.892 430.518 334.659C430.518 333.427 431.518 332.427 432.75 332.427C433.983 332.427 434.983 333.427 434.983 334.659Z"
      fill="#7B91AB" />
    <path
      d="M178.934 232.588L169.132 232.594V231.56L178.932 231.555C178.94 231.556 179.638 231.548 180.318 231.072C181.164 230.48 181.595 229.447 181.595 228.003C181.596 226.858 181.46 226.076 181.168 225.539C180.771 224.808 180.039 224.454 178.93 224.454L166.371 224.46C166.256 224.462 165.235 224.558 165.248 227.082L165.25 227.11C165.254 228.007 165.26 229.234 166.375 229.647L176.798 229.643C176.8 229.643 177.259 229.63 177.503 229.134C177.628 228.882 177.678 228.538 177.656 228.083L177.652 228.004C177.61 227.04 177.514 226.238 176.79 226.18L167.758 226.183V225.15L176.807 225.147C178.091 225.242 178.179 227.186 178.214 227.919L178.218 227.994C178.252 228.744 178.151 229.364 177.916 229.836C177.503 230.666 176.826 230.676 176.798 230.678L166.32 230.68L166.295 230.671C164.702 230.11 164.69 228.014 164.687 227.119L164.686 227.091C164.679 225.919 164.854 224.995 165.206 224.343C165.694 223.436 166.344 223.426 166.372 223.424L178.93 223.42C180.212 223.419 181.051 223.86 181.567 224.806C181.971 225.552 182.158 226.567 182.159 228.004C182.156 229.903 181.584 231.302 180.503 232.048C179.732 232.583 178.971 232.59 178.934 232.588Z"
      fill="white" />
    <path
      d="M148.402 234.844L158.204 234.838V235.872L148.403 235.876C148.395 235.876 147.698 235.884 147.018 236.36C146.171 236.952 145.742 237.985 145.74 239.429C145.739 240.574 145.875 241.356 146.167 241.893C146.564 242.624 147.296 242.978 148.406 242.977L160.964 242.972C161.079 242.97 162.102 242.874 162.087 240.35V240.322C162.082 239.425 162.075 238.198 160.96 237.785L150.538 237.789C150.536 237.789 150.076 237.802 149.834 238.298C149.708 238.55 149.658 238.894 149.679 239.349L149.683 239.428C149.727 240.392 149.822 241.194 150.546 241.252L159.578 241.249V242.282L150.528 242.285C149.246 242.19 149.156 240.246 149.123 239.513L149.118 239.438C149.084 238.688 149.184 238.068 149.419 237.596C149.832 236.766 150.51 236.756 150.538 236.754L161.015 236.752L161.04 236.761C162.634 237.322 162.646 239.418 162.65 240.312V240.341C162.656 241.513 162.482 242.437 162.13 243.089C161.642 243.996 160.991 244.006 160.964 244.006L148.407 244.012C147.123 244.013 146.284 243.572 145.77 242.626C145.364 241.88 145.178 240.864 145.178 239.428C145.179 237.529 145.751 236.13 146.832 235.384C147.603 234.849 148.366 234.842 148.402 234.844Z"
      fill="white" />
    <path
      d="M308.68 111.798C308.68 112.134 308.416 112.406 308.089 112.406H303.149C302.823 112.406 302.559 112.134 302.559 111.798V72.5716C302.559 72.2356 302.823 71.9622 303.149 71.9622H308.089C308.416 71.9622 308.68 72.2356 308.68 72.5716V111.798Z"
      fill="#F5F5F5" />
    <path
      d="M310.777 52.737V54.6277H309.345V49.7957H301.895V78.1797H309.345V57.073H310.777V70.7437H312.499V52.737H310.777Z"
      fill="#97DAD8" />
    <path
      d="M290.031 111.798C290.031 112.134 289.767 112.406 289.441 112.406H284.501C284.174 112.406 283.91 112.134 283.91 111.798V72.5716C283.91 72.2356 284.174 71.9622 284.501 71.9622H289.441C289.767 71.9622 290.031 72.2356 290.031 72.5716V111.798Z"
      fill="#F5F5F5" />
    <path
      d="M292.127 52.737V54.6277H290.695V49.7957H283.244V78.1797H290.695V57.073H292.127V70.7437H293.848V52.737H292.127Z"
      fill="#FFCC66" />
    <path
      d="M377.968 343.039H335.676C334.932 343.039 334.328 342.422 334.328 341.66V270.947C334.328 270.184 334.932 269.567 335.676 269.567H377.968C378.712 269.567 379.316 270.184 379.316 270.947V341.66C379.316 342.422 378.712 343.039 377.968 343.039Z"
      fill="#010101" />
    <path d="M376.287 334.086H337.357V274.766H376.287V334.086Z" fill="#F1F2F4" />
    <path d="M375.619 333.07H338.023V275.782H375.619V333.07Z" fill="#FFCC66" />
    <path d="M375.619 333.07V275.782H338.023L375.619 333.07Z" fill="#FFE0A3" />
    <path
      d="M361.224 272.499C361.224 272.795 360.984 273.035 360.688 273.035C360.392 273.035 360.152 272.795 360.152 272.499C360.152 272.203 360.392 271.963 360.688 271.963C360.984 271.963 361.224 272.203 361.224 272.499Z"
      fill="#F1F2F4" />
    <path
      d="M358.86 338.195H354.788C354.546 338.195 354.352 338.001 354.352 337.761V337.114C354.352 336.874 354.546 336.679 354.788 336.679H358.86C359.1 336.679 359.294 336.874 359.294 337.114V337.761C359.294 338.001 359.1 338.195 358.86 338.195Z"
      fill="#F1F2F4" />
    <path
      d="M358.912 272.499C358.912 272.795 358.616 273.035 358.251 273.035H353.081C352.716 273.035 352.42 272.795 352.42 272.499C352.42 272.203 352.716 271.963 353.081 271.963H358.251C358.616 271.963 358.912 272.203 358.912 272.499Z"
      fill="#F1F2F4" />
    <path
      d="M319.227 135.146C317.679 135.146 316.421 133.887 316.421 132.335C316.421 130.788 317.679 129.532 319.227 129.532C320.779 129.532 322.035 130.788 322.035 132.335C322.035 133.887 320.779 135.146 319.227 135.146ZM319.227 144.76C317.679 144.76 316.421 143.507 316.421 141.956C316.421 140.406 317.679 139.15 319.227 139.15C320.779 139.15 322.035 140.406 322.035 141.956C322.035 143.507 320.779 144.76 319.227 144.76ZM319.227 154.38C317.679 154.38 316.421 153.123 316.421 151.574C316.421 150.023 317.679 148.768 319.227 148.768C320.779 148.768 322.035 150.023 322.035 151.574C322.035 153.123 320.779 154.38 319.227 154.38ZM319.227 163.996C317.679 163.996 316.421 162.743 316.421 161.191C316.421 159.642 317.679 158.387 319.227 158.387C320.779 158.387 322.035 159.642 322.035 161.191C322.035 162.743 320.779 163.996 319.227 163.996ZM319.227 173.614C317.679 173.614 316.421 172.359 316.421 170.811C316.421 169.26 317.679 168.004 319.227 168.004C320.779 168.004 322.035 169.26 322.035 170.811C322.035 172.359 320.779 173.614 319.227 173.614ZM319.227 183.235C317.679 183.235 316.421 181.976 316.421 180.427C316.421 178.876 317.679 177.623 319.227 177.623C320.779 177.623 322.035 178.876 322.035 180.427C322.035 181.976 320.779 183.235 319.227 183.235ZM319.227 192.851C317.679 192.851 316.421 191.596 316.421 190.047C316.421 188.496 317.679 187.24 319.227 187.24C320.779 187.24 322.035 188.496 322.035 190.047C322.035 191.596 320.779 192.851 319.227 192.851ZM319.227 202.467C317.679 202.467 316.421 201.212 316.421 199.664C316.421 198.115 317.679 196.858 319.227 196.858C320.779 196.858 322.035 198.115 322.035 199.664C322.035 201.212 320.779 202.467 319.227 202.467ZM319.227 212.088C317.679 212.088 316.421 210.831 316.421 209.279C316.421 207.731 317.679 206.475 319.227 206.475C320.779 206.475 322.035 207.731 322.035 209.279C322.035 210.831 320.779 212.088 319.227 212.088ZM319.227 221.703C317.679 221.703 316.421 220.447 316.421 218.9C316.421 217.348 317.679 216.091 319.227 216.091C320.779 216.091 322.035 217.348 322.035 218.9C322.035 220.447 320.779 221.703 319.227 221.703ZM314.141 121.188V229.904H390.697V121.188H314.141Z"
      fill="#D4C4AE" />
    <path
      d="M320.024 132.146C320.024 133.071 319.273 133.82 318.352 133.82H311.844C310.921 133.82 310.172 133.071 310.172 132.146C310.172 131.22 310.921 130.468 311.844 130.468H318.352C319.273 130.468 320.024 131.22 320.024 132.146Z"
      fill="#F4F6F5" />
    <path
      d="M320.073 142.051C320.073 142.979 319.324 143.727 318.399 143.727H311.895C310.971 143.727 310.219 142.979 310.219 142.051C310.219 141.125 310.971 140.376 311.895 140.376H318.399C319.324 140.376 320.073 141.125 320.073 142.051Z"
      fill="#F4F6F5" />
    <path
      d="M320.024 151.476C320.024 152.403 319.273 153.152 318.352 153.152H311.844C310.921 153.152 310.172 152.403 310.172 151.476C310.172 150.551 310.921 149.804 311.844 149.804H318.352C319.273 149.804 320.024 150.551 320.024 151.476Z"
      fill="#F4F6F5" />
    <path
      d="M320.024 161.432C320.024 162.356 319.273 163.105 318.352 163.105H311.844C310.921 163.105 310.172 162.356 310.172 161.432C310.172 160.504 310.921 159.759 311.844 159.759H318.352C319.273 159.759 320.024 160.504 320.024 161.432Z"
      fill="#F4F6F5" />
    <path
      d="M320.024 170.906C320.024 171.831 319.273 172.578 318.352 172.578H311.844C310.921 172.578 310.172 171.831 310.172 170.906C310.172 169.979 310.921 169.23 311.844 169.23H318.352C319.273 169.23 320.024 169.979 320.024 170.906Z"
      fill="#F4F6F5" />
    <path
      d="M320.073 180.286C320.073 181.212 319.324 181.961 318.399 181.961H311.895C310.971 181.961 310.219 181.212 310.219 180.286C310.219 179.362 310.971 178.613 311.895 178.613H318.399C319.324 178.613 320.073 179.362 320.073 180.286Z"
      fill="#F4F6F5" />
    <path
      d="M320.024 190.238C320.024 191.161 319.273 191.914 318.352 191.914H311.844C310.921 191.914 310.172 191.161 310.172 190.238C310.172 189.311 310.921 188.565 311.844 188.565H318.352C319.273 188.565 320.024 189.311 320.024 190.238Z"
      fill="#F4F6F5" />
    <path
      d="M320.024 199.904C320.024 200.828 319.273 201.58 318.352 201.58H311.844C310.921 201.58 310.172 200.828 310.172 199.904C310.172 198.979 310.921 198.229 311.844 198.229H318.352C319.273 198.229 320.024 198.979 320.024 199.904Z"
      fill="#F4F6F5" />
    <path
      d="M320.024 209.476C320.024 210.401 319.273 211.15 318.352 211.15H311.844C310.921 211.15 310.172 210.401 310.172 209.476C310.172 208.548 310.921 207.801 311.844 207.801H318.352C319.273 207.801 320.024 208.548 320.024 209.476Z"
      fill="#F4F6F5" />
    <path
      d="M320.024 218.758C320.024 219.682 319.273 220.434 318.352 220.434H311.844C310.921 220.434 310.172 219.682 310.172 218.758C310.172 217.832 310.921 217.083 311.844 217.083H318.352C319.273 217.083 320.024 217.832 320.024 218.758Z"
      fill="#F4F6F5" />
    <path d="M384.934 151.477H355.262V136.31H384.934V151.477Z" fill="#F4F6F5" />
    <path
      d="M268.73 288.771H265.919V285.962H268.73V288.771ZM268.73 295.189H265.919V292.378H268.73V295.189ZM268.73 301.607H265.919V298.794H268.73V301.607ZM268.73 308.022H265.919V305.211H268.73V308.022ZM268.73 314.438H265.919V311.627H268.73V314.438ZM268.73 320.854H265.919V318.045H268.73V320.854ZM268.73 327.271H265.919V324.459H268.73V327.271ZM268.73 333.69H265.919V330.879H268.73V333.69ZM268.73 340.105H265.919V337.294H268.73V340.105ZM220.59 281.594V344.473H270.528V281.594H220.59Z"
      fill="white" />
    <path
      d="M275.339 285.962H278.151V288.771H275.339V285.962ZM275.339 292.378H278.151V295.189H275.339V292.378ZM275.339 298.794H278.151V301.607H275.339V298.794ZM275.339 305.211H278.151V308.022H275.339V305.211ZM275.339 311.627H278.151V314.438H275.339V311.627ZM275.339 318.045H278.151V320.854H275.339V318.045ZM275.339 324.459H278.151V327.271H275.339V324.459ZM275.339 330.879H278.151V333.69H275.339V330.879ZM275.339 337.294H278.151V340.105H275.339V337.294ZM273.539 281.594V344.473H323.479V281.594H273.539Z"
      fill="white" />
    <path
      d="M277.251 287.311C277.251 287.81 276.747 288.215 276.121 288.215H268.051C267.423 288.215 266.922 287.81 266.922 287.311C266.922 286.812 267.423 286.41 268.051 286.41H276.121C276.747 286.41 277.251 286.812 277.251 287.311Z"
      fill="#010101" />
    <path
      d="M277.251 293.628C277.251 294.127 276.747 294.533 276.121 294.533H268.051C267.423 294.533 266.922 294.127 266.922 293.628C266.922 293.131 267.423 292.728 268.051 292.728H276.121C276.747 292.728 277.251 293.131 277.251 293.628Z"
      fill="#010101" />
    <path
      d="M277.251 300.325C277.251 300.823 276.747 301.227 276.121 301.227H268.051C267.423 301.227 266.922 300.823 266.922 300.325C266.922 299.824 267.423 299.423 268.051 299.423H276.121C276.747 299.423 277.251 299.824 277.251 300.325Z"
      fill="#010101" />
    <path
      d="M277.251 306.716C277.251 307.215 276.747 307.619 276.121 307.619H268.051C267.423 307.619 266.922 307.215 266.922 306.716C266.922 306.219 267.423 305.815 268.051 305.815H276.121C276.747 305.815 277.251 306.219 277.251 306.716Z"
      fill="#010101" />
    <path
      d="M277.251 313.031C277.251 313.53 276.747 313.934 276.121 313.934H268.051C267.423 313.934 266.922 313.53 266.922 313.031C266.922 312.532 267.423 312.128 268.051 312.128H276.121C276.747 312.128 277.251 312.532 277.251 313.031Z"
      fill="#010101" />
    <path
      d="M277.251 319.351C277.251 319.849 276.747 320.254 276.121 320.254H268.051C267.423 320.254 266.922 319.849 266.922 319.351C266.922 318.855 267.423 318.449 268.051 318.449H276.121C276.747 318.449 277.251 318.855 277.251 319.351Z"
      fill="#010101" />
    <path
      d="M277.251 325.746C277.251 326.244 276.747 326.648 276.121 326.648H268.051C267.423 326.648 266.922 326.244 266.922 325.746C266.922 325.247 267.423 324.842 268.051 324.842H276.121C276.747 324.842 277.251 325.247 277.251 325.746Z"
      fill="#010101" />
    <path
      d="M277.251 332.442C277.251 332.94 276.747 333.344 276.121 333.344H268.051C267.423 333.344 266.922 332.94 266.922 332.442C266.922 331.944 267.423 331.54 268.051 331.54H276.121C276.747 331.54 277.251 331.944 277.251 332.442Z"
      fill="#010101" />
    <path
      d="M277.251 338.756C277.251 339.255 276.747 339.66 276.121 339.66H268.051C267.423 339.66 266.922 339.255 266.922 338.756C266.922 338.259 267.423 337.853 268.051 337.853H276.121C276.747 337.853 277.251 338.259 277.251 338.756Z"
      fill="#010101" />
    <path
      d="M236.084 284.553C236.084 285.132 235.614 285.605 235.031 285.605H224.651C224.07 285.605 223.598 285.132 223.598 284.553C223.598 283.972 224.07 283.497 224.651 283.497H235.031C235.614 283.497 236.084 283.972 236.084 284.553Z"
      fill="#719EC6" />
    <path
      d="M320.021 284.553C320.021 285.132 319.55 285.605 318.97 285.605H308.589C308.006 285.605 307.537 285.132 307.537 284.553C307.537 283.972 308.006 283.497 308.589 283.497H318.97C319.55 283.497 320.021 283.972 320.021 284.553Z"
      fill="#719EC6" />
    <path
      d="M291.415 225.936L281.614 225.941V224.908L291.414 224.903C291.422 224.904 292.119 224.896 292.799 224.42C293.647 223.828 294.076 222.795 294.078 221.351C294.078 220.205 293.942 219.424 293.65 218.887C293.252 218.156 292.52 217.801 291.411 217.801L278.852 217.808C278.738 217.809 277.716 217.905 277.731 220.429V220.457C277.736 221.355 277.743 222.581 278.858 222.995L289.279 222.991C289.282 222.989 289.74 222.977 289.984 222.481C290.11 222.229 290.159 221.885 290.139 221.431L290.134 221.352C290.091 220.388 289.995 219.585 289.271 219.528L280.239 219.531V218.497L289.288 218.495C290.572 218.589 290.66 220.533 290.695 221.267L290.699 221.341C290.734 222.092 290.632 222.712 290.398 223.184C289.984 224.013 289.308 224.024 289.279 224.025L278.802 224.028L278.776 224.019C277.184 223.457 277.171 221.361 277.168 220.467V220.439C277.16 219.267 277.336 218.343 277.687 217.691C278.176 216.784 278.826 216.773 278.854 216.772L291.411 216.768C292.695 216.767 293.534 217.208 294.048 218.153C294.452 218.9 294.639 219.915 294.64 221.352C294.638 223.251 294.066 224.649 292.984 225.396C292.214 225.931 291.452 225.937 291.415 225.936Z"
      fill="white" />
    <path
      d="M97.4872 378.721C97.4872 385.098 92.318 390.268 85.9409 390.268C79.5637 390.268 74.3945 385.098 74.3945 378.721C74.3945 372.345 79.5637 367.176 85.9409 367.176C92.318 367.176 97.4872 372.345 97.4872 378.721Z"
      fill="#FFCC66" />
    <path
      d="M85.941 367.842C79.9425 367.842 75.0618 372.722 75.0618 378.721C75.0618 384.721 79.9425 389.6 85.941 389.6C91.9405 389.6 96.8212 384.721 96.8212 378.721C96.8212 372.722 91.9405 367.842 85.941 367.842ZM85.941 390.934C79.2066 390.934 73.7285 385.455 73.7285 378.721C73.7285 371.986 79.2066 366.509 85.941 366.509C92.6754 366.509 98.1545 371.986 98.1545 378.721C98.1545 385.455 92.6754 390.934 85.941 390.934Z"
      fill="white" />
    <path
      d="M128.878 378.721C128.878 385.098 123.709 390.268 117.332 390.268C110.956 390.268 105.785 385.098 105.785 378.721C105.785 372.345 110.956 367.176 117.332 367.176C123.709 367.176 128.878 372.345 128.878 378.721Z"
      fill="#9F769E" />
    <path
      d="M117.331 367.842C111.332 367.842 106.451 372.722 106.451 378.721C106.451 384.721 111.332 389.6 117.331 389.6C123.331 389.6 128.211 384.721 128.211 378.721C128.211 372.722 123.331 367.842 117.331 367.842ZM117.331 390.934C110.596 390.934 105.117 385.455 105.117 378.721C105.117 371.986 110.596 366.509 117.331 366.509C124.065 366.509 129.544 371.986 129.544 378.721C129.544 385.455 124.065 390.934 117.331 390.934Z"
      fill="white" />
    <path
      d="M160.269 378.721C160.269 385.098 155.098 390.268 148.722 390.268C142.345 390.268 137.176 385.098 137.176 378.721C137.176 372.345 142.345 367.176 148.722 367.176C155.098 367.176 160.269 372.345 160.269 378.721Z"
      fill="#97DAD8" />
    <path
      d="M148.721 367.842C142.722 367.842 137.841 372.722 137.841 378.721C137.841 384.721 142.722 389.6 148.721 389.6C154.72 389.6 159.601 384.721 159.601 378.721C159.601 372.722 154.72 367.842 148.721 367.842ZM148.721 390.934C141.986 390.934 136.508 385.455 136.508 378.721C136.508 371.986 141.986 366.509 148.721 366.509C155.454 366.509 160.934 371.986 160.934 378.721C160.934 385.455 155.454 390.934 148.721 390.934Z"
      fill="white" />
    <path
      d="M191.658 378.721C191.658 385.098 186.488 390.268 180.111 390.268C173.734 390.268 168.564 385.098 168.564 378.721C168.564 372.345 173.734 367.176 180.111 367.176C186.488 367.176 191.658 372.345 191.658 378.721Z"
      fill="#D4C4AE" />
    <path
      d="M180.112 367.842C174.113 367.842 169.232 372.722 169.232 378.721C169.232 384.721 174.113 389.6 180.112 389.6C186.112 389.6 190.992 384.721 190.992 378.721C190.992 372.722 186.112 367.842 180.112 367.842ZM180.112 390.934C173.377 390.934 167.898 385.455 167.898 378.721C167.898 371.986 173.377 366.509 180.112 366.509C186.846 366.509 192.325 371.986 192.325 378.721C192.325 385.455 186.846 390.934 180.112 390.934Z"
      fill="white" />
    <path
      d="M223.048 378.721C223.048 385.098 217.878 390.268 211.502 390.268C205.124 390.268 199.955 385.098 199.955 378.721C199.955 372.345 205.124 367.176 211.502 367.176C217.878 367.176 223.048 372.345 223.048 378.721Z"
      fill="#719EC6" />
    <path
      d="M211.501 367.842C205.502 367.842 200.622 372.722 200.622 378.721C200.622 384.721 205.502 389.6 211.501 389.6C217.501 389.6 222.382 384.721 222.382 378.721C222.382 372.722 217.501 367.842 211.501 367.842ZM211.501 390.934C204.768 390.934 199.289 385.455 199.289 378.721C199.289 371.986 204.768 366.509 211.501 366.509C218.236 366.509 223.716 371.986 223.716 378.721C223.716 385.455 218.236 390.934 211.501 390.934Z"
      fill="white" />
    <path
      d="M254.437 378.721C254.437 385.098 249.268 390.268 242.89 390.268C236.513 390.268 231.344 385.098 231.344 378.721C231.344 372.345 236.513 367.176 242.89 367.176C249.268 367.176 254.437 372.345 254.437 378.721Z"
      fill="#AD958B" />
    <path
      d="M242.891 367.842C236.892 367.842 232.011 372.722 232.011 378.721C232.011 384.721 236.892 389.6 242.891 389.6C248.89 389.6 253.771 384.721 253.771 378.721C253.771 372.722 248.89 367.842 242.891 367.842ZM242.891 390.934C236.156 390.934 230.678 385.455 230.678 378.721C230.678 371.986 236.156 366.509 242.891 366.509C249.626 366.509 255.104 371.986 255.104 378.721C255.104 385.455 249.626 390.934 242.891 390.934Z"
      fill="white" />
  </g>
  <defs>
    <clipPath id="clip0">
      <rect width="535" height="408" fill="white" transform="translate(0 0.5)" />
    </clipPath>
  </defs>
</svg>