<svg width="21" height="22" viewBox="0 0 21 22" fill="none" xmlns="http://www.w3.org/2000/svg">
  <g clip-path="url(#clip0)">
    <path
      d="M10.172 1.65625C4.55698 1.65625 0 6.21323 0 11.8283C0 17.4434 4.55698 22.0003 10.172 22.0003C15.7871 22.0003 20.3441 17.4434 20.3441 11.8283C20.3441 6.21323 15.7871 1.65625 10.172 1.65625ZM10.172 2.12198C15.5314 2.12198 19.871 6.46892 19.871 11.8283C19.871 17.1877 15.5314 21.5272 10.172 21.5272C4.81267 21.5272 0.473118 17.1877 0.473118 11.8283C0.473118 6.46892 4.81267 2.12198 10.172 2.12198ZM3.50403 7.80679C3.44925 7.81724 3.39993 7.84671 3.36476 7.88999C3.32959 7.93327 3.31085 7.98759 3.31183 8.04335V15.6132C3.31183 15.676 3.33676 15.7361 3.38112 15.7805C3.42548 15.8249 3.48565 15.8498 3.54839 15.8498H16.7957C16.8584 15.8498 16.9186 15.8249 16.963 15.7805C17.0073 15.7361 17.0323 15.676 17.0323 15.6132V8.04335C17.0323 7.98061 17.0073 7.92044 16.963 7.87608C16.9186 7.83172 16.8584 7.80679 16.7957 7.80679H10.172H3.54839C3.53363 7.8054 3.51878 7.8054 3.50403 7.80679ZM4.21371 8.27991H10.172H16.1304L10.172 12.2497L4.21371 8.27991ZM3.78495 8.56082L8.22782 11.5178L3.78495 15.0736V8.56082ZM16.5591 8.56082V15.0736L12.1163 11.5178L16.5591 8.56082ZM8.6418 11.7987L10.039 12.7302C10.0782 12.7569 10.1246 12.7711 10.172 12.7711C10.2195 12.7711 10.2659 12.7569 10.3051 12.7302L11.7023 11.7987L16.1821 15.3767H4.16196L8.6418 11.7987Z"
      fill="black" />
    <path
      d="M10.4867 9.72222C10.4867 9.72222 9.86 10.3556 9.85556 10.3578C9.83111 10.3822 9.79111 10.3822 9.76667 10.3578L9.46 10.0489C9.43556 10.0244 9.43556 9.98444 9.45778 9.96C9.48222 9.93556 9.52222 9.93556 9.54667 9.95778C9.54667 9.95778 9.54667 9.95778 9.54889 9.96L9.81333 10.2244L10.4 9.63333C10.4244 9.60889 10.4644 9.60889 10.4889 9.63333C10.5111 9.65778 10.5111 9.69778 10.4867 9.72222ZM11 10C11 10.5533 10.5533 11 10 11C9.44667 11 9 10.5533 9 10C9 9.44667 9.44667 9 10 9C10.5533 9 11 9.44667 11 10ZM10.8778 10C10.8778 9.51556 10.4844 9.12444 10 9.12444C9.51778 9.12444 9.12444 9.51556 9.12444 10V10.0022C9.12444 10.4867 9.51778 10.8778 10.0022 10.8778C10.4867 10.8756 10.8778 10.4844 10.8778 10Z"
      fill="black" />
  </g>
  <defs>
    <clipPath id="clip0">
      <rect width="20.3441" height="22" fill="white" />
    </clipPath>
  </defs>
</svg>