<svg width="424" height="463" viewBox="0 0 424 463" fill="none" xmlns="http://www.w3.org/2000/svg">
  <g clip-path="url(#clip0)">
    <path opacity="0.7"
      d="M35.9295 167.09C35.9295 167.09 8.04951 239.09 47.2295 311.59C86.4095 384.09 167.11 422.39 231.7 455.14C296.289 487.89 363.36 471.94 395.23 418.3C427.1 364.66 383.389 326.37 383.329 249.88C383.27 173.39 394.78 153.14 353.329 88.5201C311.879 23.9001 210.27 9.59007 133.429 57.5201C56.5895 105.45 35.9295 167.09 35.9295 167.09Z"
      fill="white" />
    <path
      d="M372.159 463.3C372.159 463.3 461.559 340.91 406.159 246.84C350.759 152.77 240.749 217.33 219.799 129.54C198.849 41.75 122.379 27.35 49.8592 137.14C-22.6608 246.93 -5.31081 399.59 33.0892 463.3H372.159Z"
      fill="#29538E" />
    <path opacity="0.7"
      d="M372.159 463.3C372.159 463.3 461.559 340.91 406.159 246.84C350.759 152.77 240.749 217.33 219.799 129.54C198.849 41.75 122.379 27.35 49.8592 137.14C-22.6608 246.93 -5.31081 399.59 33.0892 463.3H372.159Z"
      fill="white" />
    <path d="M19.6602 463.3H418.22" stroke="#263238" stroke-linecap="round" stroke-linejoin="round" />
    <path d="M59.2316 143.42H84.1816V133.4H59.2316V143.42Z" stroke="#263238" stroke-linecap="round"
      stroke-linejoin="round" />
    <path d="M79.2102 154.88H104.16V144.86H79.2102V154.88Z" stroke="#263238" stroke-linecap="round"
      stroke-linejoin="round" />
    <path d="M136.482 219.86H161.432V209.84H136.482V219.86Z" stroke="#263238" stroke-linecap="round"
      stroke-linejoin="round" />
    <path d="M124.011 233.09H148.961V223.07H124.011V233.09Z" stroke="#263238" stroke-linecap="round"
      stroke-linejoin="round" />
    <path d="M46.7512 313.98H71.7012V303.96H46.7512V313.98Z" stroke="#263238" stroke-linecap="round"
      stroke-linejoin="round" />
    <path d="M60.4211 326.45H85.3711V316.43H60.4211V326.45Z" stroke="#263238" stroke-linecap="round"
      stroke-linejoin="round" />
    <path d="M205.751 338.36H230.701V328.34H205.751V338.36Z" stroke="#263238" stroke-linecap="round"
      stroke-linejoin="round" />
    <path d="M192.56 351.7H217.51V341.68H192.56V351.7Z" stroke="#263238" stroke-linecap="round"
      stroke-linejoin="round" />
    <path d="M54.6398 404.07H79.5898V394.05H54.6398V404.07Z" stroke="#263238" stroke-linecap="round"
      stroke-linejoin="round" />
    <path d="M74.7102 313.98H99.6602V303.96H74.7102V313.98Z" stroke="#263238" stroke-linecap="round"
      stroke-linejoin="round" />
    <path d="M193.311 274.84C169.051 275.11 144.051 275.11 120.551 274.84" stroke="#263238" stroke-linecap="round"
      stroke-linejoin="round" />
    <path d="M203.301 274.84H197.201" stroke="#263238" stroke-linecap="round" stroke-linejoin="round" />
    <path d="M401.401 416.51C377.141 416.78 352.141 416.78 328.641 416.51" stroke="#263238" stroke-linecap="round"
      stroke-linejoin="round" />
    <path d="M411.391 416.51H405.291" stroke="#263238" stroke-linecap="round" stroke-linejoin="round" />
    <path d="M297.74 111.3C273.48 111.57 248.48 111.57 224.98 111.3" stroke="#263238" stroke-linecap="round"
      stroke-linejoin="round" />
    <path d="M307.731 111.3H301.631" stroke="#263238" stroke-linecap="round" stroke-linejoin="round" />
    <path d="M82.2601 184.88C71.5934 185.06 60.9501 185.097 50.3301 184.99" stroke="#263238" stroke-linecap="round"
      stroke-linejoin="round" />
    <path d="M287.772 396.41C277.105 396.59 266.465 396.627 255.852 396.52" stroke="#263238" stroke-linecap="round"
      stroke-linejoin="round" />
    <path d="M78.4707 378.28H81.9107" stroke="#263238" stroke-linecap="round" stroke-linejoin="round" />
    <path d="M42.2207 378.28H74.5607" stroke="#263238" stroke-linecap="round" stroke-linejoin="round" />
    <path d="M164.26 84.4902H167.7" stroke="#263238" stroke-linecap="round" stroke-linejoin="round" />
    <path d="M128 84.4902H160.34" stroke="#263238" stroke-linecap="round" stroke-linejoin="round" />
    <path d="M383.68 367.04H358.73V377.06H383.68V367.04Z" stroke="#263238" stroke-linecap="round"
      stroke-linejoin="round" />
    <path d="M363.7 355.58H338.75V365.6H363.7V355.58Z" stroke="#263238" stroke-linecap="round"
      stroke-linejoin="round" />
    <path d="M306.43 290.6H281.48V300.62H306.43V290.6Z" stroke="#263238" stroke-linecap="round"
      stroke-linejoin="round" />
    <path d="M318.901 277.37H293.951V287.39H318.901V277.37Z" stroke="#263238" stroke-linecap="round"
      stroke-linejoin="round" />
    <path d="M396.161 196.48H371.211V206.5H396.161V196.48Z" stroke="#263238" stroke-linecap="round"
      stroke-linejoin="round" />
    <path d="M382.491 184.01H357.541V194.03H382.491V184.01Z" stroke="#263238" stroke-linecap="round"
      stroke-linejoin="round" />
    <path d="M237.171 172.1H212.221V182.12H237.171V172.1Z" stroke="#263238" stroke-linecap="round"
      stroke-linejoin="round" />
    <path d="M250.35 158.76H225.4V168.78H250.35V158.76Z" stroke="#263238" stroke-linecap="round"
      stroke-linejoin="round" />
    <path d="M330.052 84.8901H305.102V94.9101H330.052V84.8901Z" stroke="#263238" stroke-linecap="round"
      stroke-linejoin="round" />
    <path d="M368.2 196.48H343.25V206.5H368.2V196.48Z" stroke="#263238" stroke-linecap="round"
      stroke-linejoin="round" />
    <path d="M249.611 235.62C273.861 235.35 298.861 235.35 322.371 235.62" stroke="#263238" stroke-linecap="round"
      stroke-linejoin="round" />
    <path d="M239.621 235.62H245.711" stroke="#263238" stroke-linecap="round" stroke-linejoin="round" />
    <path d="M360.65 325.58C371.317 325.4 381.96 325.36 392.58 325.46" stroke="#263238" stroke-linecap="round"
      stroke-linejoin="round" />
    <path d="M364.44 132.18H361" stroke="#263238" stroke-linecap="round" stroke-linejoin="round" />
    <path d="M400.702 132.18H368.352" stroke="#263238" stroke-linecap="round" stroke-linejoin="round" />
    <path
      d="M321.719 206L304.999 193.3C304.999 193.3 284.759 155 283.609 153.6L277.549 161.43C277.549 161.43 288.969 194.78 290.659 199.43C292.349 204.08 299.299 209.33 302.659 212.9C306.019 216.47 319.349 225.85 319.349 225.85L321.719 206Z"
      fill="white" stroke="#263238" stroke-linecap="round" stroke-linejoin="round" />
    <path
      d="M238.46 318.29H223.05C218.41 318.29 213.945 316.514 210.572 313.327C207.199 310.14 205.173 305.783 204.91 301.15L204.07 286.35H257.43L256.59 301.15C256.33 305.782 254.306 310.139 250.935 313.326C247.563 316.514 243.1 318.29 238.46 318.29Z"
      fill="#263238" />
    <path
      d="M311.049 179.18C311.051 168.472 308.911 157.871 304.755 148.003C300.598 138.134 294.51 129.196 286.848 121.716C279.186 114.235 270.104 108.363 260.139 104.445C250.173 100.526 239.525 98.6412 228.819 98.8999C185.399 99.8999 150.349 135.9 150.449 179.37C150.474 199.9 158.39 219.634 172.559 234.49C180.802 243.02 186.622 253.593 189.419 265.12L189.949 267.38H271.559L271.869 266.05C274.779 254.037 280.797 243.001 289.319 234.05C303.299 219.203 311.073 199.573 311.049 179.18Z"
      fill="white" />
    <path opacity="0.4"
      d="M228.819 98.9001C185.399 99.9001 150.349 135.9 150.449 179.37C150.474 199.9 158.39 219.634 172.559 234.49C180.802 243.02 186.622 253.593 189.419 265.12L189.949 267.38H271.559L271.869 266.05C274.779 254.035 280.8 242.999 289.329 234.05C300.142 222.504 307.303 208.022 309.914 192.421C312.526 176.82 310.47 160.795 304.006 146.358C297.542 131.921 286.958 119.715 273.582 111.272C260.205 102.828 244.633 98.5245 228.819 98.9001ZM230.489 244C216.311 243.998 202.451 239.792 190.663 231.913C178.875 224.035 169.688 212.838 164.264 199.738C158.839 186.638 157.421 172.224 160.188 158.318C162.955 144.412 169.784 131.639 179.81 121.614C189.837 111.589 202.611 104.762 216.517 101.997C230.423 99.2315 244.837 100.652 257.936 106.078C271.035 111.504 282.231 120.693 290.108 132.482C297.985 144.271 302.189 158.132 302.189 172.31C302.189 181.725 300.335 191.048 296.731 199.747C293.128 208.445 287.846 216.349 281.188 223.006C274.53 229.663 266.626 234.944 257.927 238.546C249.228 242.148 239.905 244.001 230.489 244Z"
      fill="#29538E" />
    <path
      d="M311.049 179.18C311.051 168.472 308.911 157.871 304.755 148.003C300.598 138.134 294.51 129.196 286.848 121.716C279.186 114.235 270.104 108.363 260.139 104.445C250.173 100.526 239.525 98.6412 228.819 98.8999C185.399 99.8999 150.349 135.9 150.449 179.37C150.474 199.9 158.39 219.634 172.559 234.49C180.802 243.02 186.622 253.593 189.419 265.12L189.949 267.38H271.559L271.869 266.05C274.779 254.037 280.797 243.001 289.319 234.05C303.299 219.203 311.073 199.573 311.049 179.18V179.18Z"
      stroke="#263238" stroke-miterlimit="10" />
    <path
      d="M203.349 307.92H258.159C262.621 305.452 266.385 301.893 269.097 297.575C271.81 293.257 273.383 288.321 273.669 283.23L275.059 258.66H186.449L187.829 283.23C188.119 288.322 189.695 293.257 192.409 297.574C195.123 301.892 198.887 305.451 203.349 307.92Z"
      fill="#29538E" stroke="#263238" stroke-linecap="round" stroke-linejoin="round" />
    <path
      d="M274.65 267.58L188.5 274.53C187.632 274.602 186.77 274.327 186.105 273.764C185.439 273.202 185.024 272.398 184.95 271.53C184.881 270.662 185.157 269.802 185.719 269.137C186.281 268.472 187.083 268.056 187.95 267.98L274.12 261C274.988 260.928 275.85 261.203 276.515 261.766C277.181 262.328 277.596 263.132 277.67 264C277.708 264.434 277.66 264.871 277.529 265.286C277.398 265.701 277.186 266.086 276.905 266.419C276.624 266.751 276.281 267.025 275.894 267.225C275.507 267.424 275.084 267.545 274.65 267.58Z"
      fill="#29538E" stroke="#263238" stroke-linecap="round" stroke-linejoin="round" />
    <path
      d="M274.63 280.62L189.4 287.5C188.533 287.566 187.675 287.289 187.01 286.728C186.346 286.166 185.929 285.366 185.85 284.5C185.781 283.632 186.057 282.772 186.619 282.107C187.181 281.442 187.983 281.026 188.85 280.95L274.1 274C274.968 273.93 275.828 274.207 276.493 274.769C277.158 275.331 277.574 276.133 277.65 277C277.696 277.437 277.653 277.879 277.525 278.299C277.397 278.719 277.186 279.11 276.904 279.447C276.623 279.784 276.276 280.062 275.886 280.263C275.495 280.465 275.068 280.586 274.63 280.62Z"
      fill="#29538E" stroke="#263238" stroke-linecap="round" stroke-linejoin="round" />
    <path
      d="M272 293.94L193.46 300.28C192.593 300.347 191.734 300.069 191.07 299.508C190.405 298.946 189.989 298.146 189.91 297.28C189.838 296.41 190.113 295.548 190.675 294.881C191.237 294.214 192.041 293.796 192.91 293.72L271.45 287.38C272.317 287.313 273.176 287.591 273.84 288.152C274.504 288.713 274.921 289.514 275 290.38C275.069 291.249 274.793 292.11 274.231 292.776C273.67 293.443 272.868 293.861 272 293.94Z"
      fill="#29538E" stroke="#263238" stroke-linecap="round" stroke-linejoin="round" />
    <path
      d="M293.19 447C293.19 447 295.01 458.12 293.19 463.31H256.41C256.41 463.31 254.86 459.42 256.41 456.96C257.96 454.5 269.62 453.11 273.25 449.79C276.028 447.031 278.542 444.018 280.76 440.79L293.19 447Z"
      fill="#263238" stroke="#263238" stroke-miterlimit="10" />
    <path d="M255.719 461.34H293.679L293.999 463.3H255.719V461.34Z" fill="white" stroke="#263238" stroke-linecap="round"
      stroke-linejoin="round" />
    <path
      d="M284.349 445.64C284.349 445.64 280.889 446.47 280.499 446.64C280.109 446.81 276.749 451.95 273.379 452.86C270.009 453.77 266.639 453.59 267.159 455.23"
      stroke="white" stroke-linecap="round" stroke-linejoin="round" />
    <path d="M276.689 445.64L280.629 448.54" stroke="white" stroke-linecap="round" stroke-linejoin="round" />
    <path d="M274.859 448.18L278.659 450.97" stroke="white" stroke-linecap="round" stroke-linejoin="round" />
    <path d="M272.43 450.41L275.73 453.6" stroke="white" stroke-linecap="round" stroke-linejoin="round" />
    <path d="M269.1 452.04L270.53 455.19" stroke="white" stroke-linecap="round" stroke-linejoin="round" />
    <path
      d="M293.789 452C289.512 451.643 285.208 452.178 281.149 453.57C274.539 455.89 272.259 457.91 272.429 458.52C272.599 459.13 273.379 460.93 273.379 460.93H276.689C276.689 460.93 275.489 458.82 275.689 458.52C275.889 458.22 287.219 453.81 293.749 454.59L293.789 452Z"
      fill="white" />
    <path
      d="M346.92 463.3C346.92 463.3 348.34 457.89 346.68 455.88C343.68 452.28 347.04 449.26 344.05 448.01L342.8 449.46C342.56 447.99 343.26 443.51 337.72 442.92C331.02 442.22 330.89 447.09 330.53 448.7L330.64 446.45C327.78 446.45 329.26 449.3 324.93 453.97C323.796 455.227 322.934 456.704 322.397 458.309C321.86 459.915 321.66 461.614 321.81 463.3H346.92Z"
      fill="#263238" stroke="#263238" stroke-miterlimit="10" />
    <path d="M321.779 461.34H347.479L346.919 463.3H321.809L321.779 461.34Z" fill="white" stroke="#263238"
      stroke-linecap="round" stroke-linejoin="round" />
    <path d="M330 453.74C330 453.74 338.44 450.95 342.51 454.44" stroke="white" stroke-linecap="round"
      stroke-linejoin="round" />
    <path d="M330 451.9C330 451.9 337.42 449.55 342.51 452.69" stroke="white" stroke-linecap="round"
      stroke-linejoin="round" />
    <path d="M330.469 450.08C330.469 450.08 337.469 447.45 342.539 451.08" stroke="white" stroke-linecap="round"
      stroke-linejoin="round" />
    <path
      d="M324.93 454L325.77 454.82C325.883 454.932 325.954 455.08 325.971 455.239C325.987 455.398 325.948 455.557 325.86 455.69C324.743 457.374 324.145 459.349 324.14 461.37H322.91C323.185 459.398 323.787 457.485 324.69 455.71L324.06 455.07L324.93 454Z"
      fill="white" />
    <path d="M299.809 394.71C299.809 394.71 294.349 403.99 285.119 402.01" stroke="#263238" stroke-linecap="round"
      stroke-linejoin="round" />
    <path
      d="M305.58 289.08L302 296.65C292.166 317.763 284.189 339.693 278.16 362.19C277.94 363.02 273.26 379.59 277.01 420.86L274.87 428.1L277.21 440.1C277.21 440.1 273.69 445.18 273.82 446.85C273.82 446.85 282.5 448.47 285.4 450.02C287.65 451.23 294.4 457.92 294.4 457.92C296.32 457.52 296.48 449.76 296.48 449.76C296.48 449.76 300.48 380.88 301.65 377.9C302.82 374.92 309.85 362.14 320.84 332.85C320.84 332.85 321.09 373.76 324.03 384.11C326.64 393.32 323.55 419.11 323.55 419.11L325.31 447.79C325.31 447.79 319.13 454.21 324.14 455.94C324.14 455.94 327.49 449.49 337.04 448.03C341.89 447.28 347.94 455.9 347.94 455.9C350.06 455.22 347.04 444.39 347.04 444.39C353.8 393.34 348.81 402.58 350.16 377.62C351.03 361.62 355.57 293.08 350.24 287.52L305.58 289.08Z"
      fill="#757575" />
    <path opacity="0.2"
      d="M352.82 312.67C328.92 314.55 308.22 306.73 299.25 302.67C300.95 298.84 302 296.67 302 296.67L305.58 289.1L350.26 287.48C352.19 289.47 352.82 299.68 352.82 312.67Z"
      fill="black" />
    <path opacity="0.2"
      d="M320.67 333.33C309.79 362.25 302.81 374.91 301.67 377.86C301.01 379.57 299.41 402.96 298.17 422.6C296.73 404.74 295.26 385.89 295.17 382.19C294.9 374.83 300.22 364.73 301.02 362.12C301.82 359.51 300.02 356.69 300.02 356.69L309.59 344.63C309.27 340.53 314.33 322.63 314.33 322.63C317.3 325.52 320 331.58 320.67 333.33Z"
      fill="black" />
    <path
      d="M305.58 289.08L302 296.65C292.166 317.763 284.189 339.693 278.16 362.19C277.94 363.02 273.26 379.59 277.01 420.86L274.87 428.1L277.21 440.1C277.21 440.1 273.69 445.18 273.82 446.85C273.82 446.85 282.5 448.47 285.4 450.02C287.65 451.23 294.4 457.92 294.4 457.92C296.32 457.52 296.48 449.76 296.48 449.76C296.48 449.76 300.48 380.88 301.65 377.9C302.82 374.92 309.85 362.14 320.84 332.85C320.84 332.85 321.09 373.76 324.03 384.11C326.64 393.32 323.55 419.11 323.55 419.11L325.31 447.79C325.31 447.79 319.13 454.21 324.14 455.94C324.14 455.94 327.49 449.49 337.04 448.03C341.89 447.28 347.94 455.9 347.94 455.9C350.06 455.22 347.04 444.39 347.04 444.39C353.8 393.34 348.81 402.58 350.16 377.62C351.03 361.62 355.57 293.08 350.24 287.52L305.58 289.08Z"
      stroke="#263238" stroke-linecap="round" stroke-linejoin="round" />
    <path d="M320.86 332.81C320.86 332.81 315.4 322.27 310.74 319.33" stroke="#263238" stroke-linecap="round"
      stroke-linejoin="round" />
    <path d="M308.699 315.92C308.699 315.92 325.289 320.92 331.039 321.92" stroke="#263238" stroke-linecap="round"
      stroke-linejoin="round" />
    <path d="M317.19 299C316.47 312.82 311.6 315.17 316.31 318.18C316.31 318.18 316.18 324.64 318.52 328.74"
      stroke="#263238" stroke-linecap="round" stroke-linejoin="round" />
    <path d="M346.259 293.71C346.259 293.71 344.259 314.94 350.829 318.93" stroke="#263238" stroke-linecap="round"
      stroke-linejoin="round" />
    <path
      d="M350.829 300.55C350.829 300.55 351.319 314.68 350.829 326.07C350.829 326.07 349.199 374.2 347.569 380.25C345.939 386.3 350.079 395.41 349.719 421.55"
      stroke="#263238" stroke-linecap="round" stroke-linejoin="round" />
    <path d="M335.15 442C336.702 441.667 338.32 441.882 339.73 442.61" stroke="#263238" stroke-linecap="round"
      stroke-linejoin="round" />
    <path d="M325.33 447.73C327.375 445.74 329.741 444.11 332.33 442.91" stroke="#263238" stroke-linecap="round"
      stroke-linejoin="round" />
    <path d="M328.059 336.15C331.729 340.25 337.529 348 343.479 348.66" stroke="#263238" stroke-linecap="round"
      stroke-linejoin="round" />
    <path d="M322.42 329.45C323.54 330.88 324.71 332.27 325.89 333.65" stroke="#263238" stroke-linecap="round"
      stroke-linejoin="round" />
    <path d="M327.639 377.56C327.639 377.56 335.969 388.9 340.539 389.56" stroke="#263238" stroke-linecap="round"
      stroke-linejoin="round" />
    <path
      d="M317.839 330.76C317.839 330.76 303.009 372.08 297.839 376.16C297.839 376.16 297.249 406.54 297.089 417.16C296.929 427.78 294.479 441.88 294.479 441.88"
      stroke="#263238" stroke-linecap="round" stroke-linejoin="round" />
    <path d="M278.65 441.57C278.65 441.57 284.36 443.57 287.14 444.8C288.845 445.623 290.184 447.048 290.9 448.8"
      stroke="#263238" stroke-linecap="round" stroke-linejoin="round" />
    <path d="M293.1 361.26C301.1 356.26 311.57 350.02 315.8 341.21" stroke="#263238" stroke-linecap="round"
      stroke-linejoin="round" />
    <path d="M286.16 365.38C287.67 364.55 289.16 363.68 290.62 362.79" stroke="#263238" stroke-linecap="round"
      stroke-linejoin="round" />
    <path d="M311.26 304.57C315.54 304.51 320.26 303.94 323.89 301.57" stroke="#263238" stroke-linecap="round"
      stroke-linejoin="round" />
    <path d="M304.449 304.17C305.679 304.34 306.909 304.45 308.149 304.51" stroke="#263238" stroke-linecap="round"
      stroke-linejoin="round" />
    <path
      d="M326.63 214.59C326.63 214.59 351.81 207.44 366.29 215.19C369.89 217.11 378.12 223.36 377.83 230.85C377.54 238.34 353.71 273.21 354 277.85C354.29 282.49 354 294.49 352.24 295.31C350.48 296.13 312.24 297.24 302.8 294.81C299.03 293.81 306.44 276 306.44 276C306.44 276 313.66 237.35 326.63 214.59Z"
      fill="#29538E" stroke="#263238" stroke-linecap="round" stroke-linejoin="round" />
    <path
      d="M362.48 213.26C362.48 213.26 346.56 219.63 341.34 212.97C342.226 213.021 343.111 212.847 343.912 212.464C344.712 212.081 345.403 211.502 345.92 210.78C346.742 209.514 347.19 208.04 347.21 206.53C347.29 205.35 344.95 190.21 345.92 188.85C360.59 168.35 363.83 198.45 363.83 198.45C363.83 198.45 358.64 211.37 362.48 213.26Z"
      fill="white" stroke="#263238" stroke-linecap="round" stroke-linejoin="round" />
    <path
      d="M351.33 205.05C351.33 205.05 350.33 209.78 345.92 210.78C346.742 209.513 347.19 208.04 347.21 206.53C348.625 206.162 350.004 205.667 351.33 205.05Z"
      fill="#263238" />
    <path
      d="M365.33 207.92L348.87 212.29V220.84C348.87 220.84 344.09 232.79 344.24 234.73C344.39 236.67 348.87 314.57 348.87 314.57C348.87 314.57 362.24 313.57 367.07 305.27C367.07 305.27 365.13 275.07 367.07 270.1C368.331 266.384 369.064 262.51 369.25 258.59C369.25 258.59 381.84 235.06 379.04 227.88C376.24 220.7 367.5 213.71 367.5 213.71L365.33 207.92Z"
      fill="#263238" />
    <path d="M350.77 213.51C350.77 213.51 353.48 222.37 353.82 222.19C354.16 222.01 363.57 218.19 366.11 214.41"
      stroke="white" stroke-linecap="round" stroke-linejoin="round" />
    <path
      d="M345.129 211.67C344.889 211.33 334.649 205.05 334.649 205.05L329.379 206.45L321.599 201.59C321.599 201.59 313.719 225.59 313.949 231.14C314.179 236.69 305.779 267.42 304.549 279.55C304.549 279.55 314.549 259.83 315.979 256.39C317.409 252.95 322.049 229.79 325.889 224.39C329.729 218.99 338.709 212.28 338.709 212.28L345.129 211.67Z"
      fill="#263238" />
    <path
      d="M364.4 196.41C365.156 194.404 365.457 192.256 365.28 190.12C364.2 174.95 360.62 171.42 354.71 172.41C332.64 176.09 339.18 187.29 338.34 191.01C337.5 194.73 334.34 195.01 334.79 196.7C334.96 197.37 337.56 197.44 337.56 197.44L337.72 200.94L338.72 201.18C338.72 201.18 339.52 209.18 341.55 210.07C344.12 211.24 351.8 206.6 351.78 203.72"
      fill="white" />
    <path
      d="M364.4 196.41C365.156 194.404 365.457 192.256 365.28 190.12C364.2 174.95 360.62 171.42 354.71 172.41C332.64 176.09 339.18 187.29 338.34 191.01C337.5 194.73 334.34 195.01 334.79 196.7C334.96 197.37 337.56 197.44 337.56 197.44L337.72 200.94L338.72 201.18C338.72 201.18 339.52 209.18 341.55 210.07C344.12 211.24 351.8 206.6 351.78 203.72"
      stroke="#263238" stroke-linecap="round" stroke-linejoin="round" />
    <path d="M340.059 185.56C340.059 185.56 343.159 184.93 344.709 187.41" stroke="#263238" stroke-linecap="round"
      stroke-linejoin="round" />
    <path
      d="M341.349 190.15C341.459 190.89 341.869 191.43 342.249 191.37C342.629 191.31 342.849 190.67 342.739 189.94C342.629 189.21 342.219 188.66 341.839 188.72C341.459 188.78 341.239 189.42 341.349 190.15Z"
      fill="#263238" />
    <path d="M338.709 201.18C340.338 201.183 341.959 200.947 343.519 200.48" stroke="#263238" stroke-linecap="round"
      stroke-linejoin="round" />
    <path d="M342.849 200.7C342.849 200.7 341.569 202.48 340.419 202.48C339.269 202.48 339.199 201.59 339.199 201.59"
      stroke="#263238" stroke-linecap="round" stroke-linejoin="round" />
    <path
      d="M365.73 174.8C365.73 174.8 366.83 170.09 355.85 169.46C347.28 168.97 339.45 169.72 336.56 175.27C333.67 180.82 333.97 185.81 338.1 186.45C338.459 184.39 339.23 182.423 340.365 180.667C341.501 178.911 342.979 177.402 344.71 176.23C344.71 176.23 342.31 182.43 345.92 185.49C346.712 186.172 347.615 186.713 348.59 187.09C348.855 187.62 349.192 188.111 349.59 188.55C351.33 190.55 351.4 194.69 351.4 194.69L353.08 193.69C353.08 193.69 350.64 187.23 357.73 188.75C361.37 189.53 360.73 193.93 361.26 196.67C361.79 199.41 363.26 200.16 363.26 200.16C364.908 198.303 366.202 196.162 367.08 193.84C367.08 193.84 370.7 191.26 370.7 187.47C370.7 183.68 369.68 177.52 365.73 174.8Z"
      fill="#263238" />
    <path
      d="M353.82 188.86C353.82 188.86 356.12 185.32 358.16 185.24C360.2 185.16 361.57 192.24 359.7 194.99C357.83 197.74 355.99 198.66 355.14 197.84C354.895 197.574 354.713 197.256 354.609 196.909C354.505 196.563 354.482 196.197 354.54 195.84"
      fill="white" />
    <path
      d="M353.82 188.86C353.82 188.86 356.12 185.32 358.16 185.24C360.2 185.16 361.57 192.24 359.7 194.99C357.83 197.74 355.99 198.66 355.14 197.84C354.895 197.574 354.713 197.256 354.609 196.909C354.505 196.563 354.482 196.197 354.54 195.84"
      stroke="#263238" stroke-linecap="round" stroke-linejoin="round" />
    <path d="M327 216.78C329.487 214.03 331.726 211.065 333.69 207.92" stroke="white" stroke-linecap="round"
      stroke-linejoin="round" />
    <path d="M327 207.92C328.41 208.458 329.591 209.469 330.34 210.78" stroke="white" stroke-linecap="round"
      stroke-linejoin="round" />
    <path
      d="M321.6 201.59L313.36 198.13L310.57 193.88C306.07 201.039 303.968 209.446 304.57 217.88L309.15 220.8L315.4 235L321.6 201.59Z"
      fill="#263238" />
    <path
      d="M351.459 235C351.459 235 359.739 246.68 355.669 251.62C353.759 253.95 336.889 259.55 336.889 259.55L286.289 256.55L269.449 259.55L267.569 259.7C267.4 259.489 267.277 259.245 267.208 258.984C267.139 258.722 267.126 258.45 267.17 258.183C267.213 257.916 267.312 257.661 267.46 257.435C267.608 257.209 267.802 257.017 268.029 256.87C268.029 256.87 267.119 254.67 267.499 254.18C268.649 252.71 273.889 250.3 273.889 250.3C273.889 250.3 267.839 251.81 270.329 248.56C272.029 246.35 278.489 245.89 281.469 243.94C283.919 242.33 281.779 233.4 287.099 235C286.193 237.421 285.851 240.017 286.099 242.59C286.179 243.24 286.319 246.44 286.319 246.44C289.019 249.53 317.969 245.53 320.459 245.44C322.949 245.35 335.079 243.52 335.079 243.52L351.459 235Z"
      fill="white" stroke="#263238" stroke-linecap="round" stroke-linejoin="round" />
    <path
      d="M278.36 246.71C278.656 247.335 278.813 248.018 278.82 248.71C278.69 249.37 276.91 250.62 276.91 250.62C276.807 251.252 276.807 251.897 276.91 252.53C277.11 252.99 275 254.63 275 255.22C274.818 255.909 274.506 256.558 274.08 257.13"
      stroke="#263238" stroke-linecap="round" stroke-linejoin="round" />
    <path d="M268 256.9C268.79 257.5 272.16 254.17 274.05 254.01" stroke="#263238" stroke-linecap="round"
      stroke-linejoin="round" />
    <path d="M272.439 257.36C271.054 258.229 269.575 258.937 268.029 259.47" stroke="#263238" stroke-linecap="round"
      stroke-linejoin="round" />
    <path
      d="M350 234.84L351.29 232.64C351.29 232.64 354.69 234.09 355.61 232.64C356.53 231.19 366.82 226.45 368.8 226.58"
      stroke="white" stroke-linecap="round" stroke-linejoin="round" />
    <path d="M354.199 254C354.199 254 356.699 256.57 357.359 255.48C358.019 254.39 366.959 253.92 370.689 250.83"
      stroke="white" stroke-linecap="round" stroke-linejoin="round" />
    <path d="M351.82 264.42C351.82 264.82 358.42 285.52 361.05 288.42" stroke="white" stroke-linecap="round"
      stroke-linejoin="round" />
    <path d="M338.369 266.53C337.579 267.06 322.239 279.85 315.799 279.98" stroke="#263238" stroke-linecap="round"
      stroke-linejoin="round" />
    <path d="M327 230.71C327 231.46 331.54 237.66 333.69 239.37" stroke="#263238" stroke-linecap="round"
      stroke-linejoin="round" />
    <path
      d="M266.741 298.55C269.411 298.55 265.321 302.87 265.321 302.87C265.23 306.02 264.615 309.132 263.501 312.08L271.781 324.88L264.661 330.54L257.431 315.86C257.431 315.86 251.121 313.6 252.641 309.86C253.581 307.5 256.641 307.24 256.641 307.24C259.65 303.952 263.041 301.035 266.741 298.55Z"
      fill="white" stroke="#263238" stroke-linecap="round" stroke-linejoin="round" />
    <path
      d="M259.711 322.9C259.711 322.9 264.061 316.2 268.711 316.64L270.461 320.64C270.461 320.64 273.331 320.79 275.061 324.87C276.791 328.95 286.381 340.29 286.381 340.29L272.491 354.7C272.491 354.7 260.891 330.32 261.491 326.36L259.711 322.9Z"
      fill="#BFBFBF" />
    <path opacity="0.2"
      d="M259.711 322.9C259.711 322.9 264.061 316.2 268.711 316.64L270.461 320.64C270.461 320.64 273.331 320.79 275.061 324.87C276.791 328.95 286.381 340.29 286.381 340.29L272.491 354.7C272.491 354.7 260.891 330.32 261.491 326.36L259.711 322.9Z"
      fill="black" />
    <path
      d="M259.711 322.9C259.711 322.9 264.061 316.2 268.711 316.64L270.461 320.64C270.461 320.64 273.331 320.79 275.061 324.87C276.791 328.95 286.381 340.29 286.381 340.29L272.491 354.7C272.491 354.7 260.891 330.32 261.491 326.36L259.711 322.9Z"
      stroke="#263238" stroke-linecap="round" stroke-linejoin="round" />
    <path
      d="M293.79 288.59C293.79 288.59 276.22 291.18 279.35 311.47C282.48 331.76 280.52 334.61 280.7 342.97C280.88 351.33 286.38 354.71 286.38 354.71L290.67 340.22C290.67 340.22 288.53 342.97 289.24 332.29C289.95 321.61 290.13 307.91 290.13 307.91"
      fill="#29538E" />
    <path opacity="0.2"
      d="M293.79 288.59C293.79 288.59 276.22 291.18 279.35 311.47C282.48 331.76 280.52 334.61 280.7 342.97C280.88 351.33 286.38 354.71 286.38 354.71L290.67 340.22C290.67 340.22 288.53 342.97 289.24 332.29C289.95 321.61 290.13 307.91 290.13 307.91"
      fill="black" />
    <path
      d="M293.79 288.59C293.79 288.59 276.22 291.18 279.35 311.47C282.48 331.76 280.52 334.61 280.7 342.97C280.88 351.33 286.38 354.71 286.38 354.71L290.67 340.22C290.67 340.22 288.53 342.97 289.24 332.29C289.95 321.61 290.13 307.91 290.13 307.91"
      stroke="#263238" stroke-linecap="round" stroke-linejoin="round" />
    <path d="M283 319.78C283 319.78 285 330.78 283.54 338.4" stroke="#263238" stroke-linecap="round"
      stroke-linejoin="round" />
    <path
      d="M244.251 334.4C242.756 331.998 241.709 329.345 241.161 326.57C242.271 325.12 241.641 318.38 241.681 317.7C241.721 317.02 238.091 313.62 236.681 308.87C235.76 309.718 235.201 310.89 235.121 312.14C235.211 314.14 236.181 315.65 235.821 315.99C233.911 317.79 228.901 315.67 227.381 315.13C224.021 313.95 222.381 315.7 224.081 317.57C224.681 318.23 225.971 317.75 225.861 319.37C225.751 320.99 225.491 319.59 226.351 322.2C227.211 324.81 226.901 325.64 228.861 326.95L233.931 330.35L238.001 339L244.251 334.4Z"
      fill="white" stroke="#263238" stroke-linecap="round" stroke-linejoin="round" />
    <path
      d="M285.57 399.15C285.57 399.15 292.57 388.8 310 388.22C327.43 387.64 326.57 398.05 326.57 398.05C326.57 398.05 335.63 411.34 334.57 421.73C333.51 432.12 319.89 441.38 319.89 441.38C319.89 441.38 347.71 447.89 350.89 446.54C354.07 445.19 360.53 459.01 358.04 462.11C355.55 465.21 276.89 459.91 276.89 459.91C276.89 459.91 269.06 450.7 268.71 444.26C268.36 437.82 286.04 413.12 285.56 411.94C285.08 410.76 285.57 399.15 285.57 399.15Z"
      fill="#263238" />
    <path
      d="M315.052 410.89C315.052 410.89 317.382 430.17 307.472 433.52L274.822 446.65C274.822 446.65 320.252 450.58 327.172 449.18C334.092 447.78 343.802 461.82 343.802 461.82H260.902C246.772 461.82 238.702 450.63 241.552 441.62C244.402 432.61 283.082 406.07 283.082 406.07C283.082 406.07 281.082 396.34 302.292 389.18C321.432 382.72 315.052 410.89 315.052 410.89Z"
      fill="#263238" />
    <path
      d="M321.751 384.31C321.751 384.31 326.751 392.06 324.971 393.82C324.971 393.82 304.871 386.65 284.291 403.13C283.911 403.43 283.541 403.74 283.161 404.06L281.671 398.78L285.301 395.78C285.301 395.78 284.641 393.16 284.121 389.86C283.601 386.56 283.171 382.3 283.771 379.54C283.831 379.25 283.031 378.05 282.091 375.9C280.922 373.201 280.128 370.355 279.731 367.44C279.019 361.853 279.382 356.181 280.801 350.73C281.572 347.554 282.575 344.439 283.801 341.41C286.721 334.09 301.491 330.65 318.681 335.12C320.75 335.647 322.569 336.882 323.821 338.61C332.491 350.27 321.751 384.31 321.751 384.31Z"
      fill="#BFBFBF" />
    <path opacity="0.2"
      d="M279.722 367.46C279.01 361.873 279.373 356.201 280.792 350.75L284.432 349.59C284.432 349.59 286.802 356.39 279.722 367.46Z"
      fill="black" />
    <path opacity="0.2"
      d="M284.122 389.88C283.572 386.46 283.172 382.32 283.772 379.56C283.832 379.27 283.032 378.07 282.092 375.92C282.092 375.92 290.482 382.5 293.792 381.92C295.792 381.56 289.462 386.17 284.122 389.88Z"
      fill="black" />
    <path opacity="0.2"
      d="M321.751 384.31C321.751 384.31 326.751 392.06 324.971 393.82C324.971 393.82 304.871 386.65 284.291 403.13C288.231 398.13 294.291 392.35 301.731 390.63C315.491 387.46 320.861 387.91 320.861 387.91L316.401 382.13C316.401 382.13 301.401 382.13 293.791 370.74C297.736 372.041 301.849 372.762 306.001 372.88C311.601 373 318.211 368.31 320.221 366.77C318.511 367.89 313.221 369.93 304.421 361.15C293.541 350.27 293.001 330 316.401 335.67C318.999 336.32 321.493 337.33 323.811 338.67C332.491 350.27 321.751 384.31 321.751 384.31Z"
      fill="black" />
    <path
      d="M321.751 384.31C321.751 384.31 326.751 392.06 324.971 393.82C324.971 393.82 304.871 386.65 284.291 403.13C283.911 403.43 283.541 403.74 283.161 404.06L281.671 398.78L285.301 395.78C285.301 395.78 284.641 393.16 284.121 389.86C283.601 386.56 283.171 382.3 283.771 379.54C283.831 379.25 283.031 378.05 282.091 375.9C280.922 373.201 280.128 370.355 279.731 367.44C279.019 361.853 279.382 356.181 280.801 350.73C281.572 347.554 282.575 344.439 283.801 341.41C286.721 334.09 301.491 330.65 318.681 335.12C320.75 335.647 322.569 336.882 323.821 338.61C332.491 350.27 321.751 384.31 321.751 384.31Z"
      stroke="#263238" stroke-linecap="round" stroke-linejoin="round" />
    <path d="M322.821 418.78C323.001 425.72 312.931 432.84 307.201 432.3C307.201 432.3 297.631 439.3 286.561 441.93"
      stroke="white" stroke-linecap="round" stroke-linejoin="round" />
    <path d="M262.91 443.16C262.91 443.16 276.22 441.74 281.13 444.11C286.04 446.48 310.47 450.02 314.51 449.32"
      stroke="white" stroke-linecap="round" stroke-linejoin="round" />
    <path
      d="M305.501 404.06C305.501 404.06 312.021 402.69 316.891 404.06C316.891 404.06 317.601 411.36 316.891 415.4L311.351 418.24C309.365 417.634 307.413 416.923 305.501 416.11C305.141 415.75 305.181 408.28 304.691 406.86"
      stroke="white" stroke-linecap="round" stroke-linejoin="round" />
    <path
      d="M333.26 417.3L331.85 418.24L328.39 415.16C328.51 411.84 325.66 404.72 325.66 404.72C326.957 404.544 328.277 404.749 329.46 405.31"
      stroke="white" stroke-linecap="round" stroke-linejoin="round" />
    <path
      d="M320.342 430.35C321.567 431.109 322.931 431.616 324.355 431.839C325.779 432.063 327.233 431.998 328.632 431.65"
      stroke="white" stroke-linecap="round" stroke-linejoin="round" />
    <path d="M318.901 441.93C318.901 441.93 313.491 445.65 304.691 443.63" stroke="white" stroke-linecap="round"
      stroke-linejoin="round" />
    <path d="M304.69 431.53C304.69 431.53 296.48 428.83 294.58 425.02" stroke="white" stroke-linecap="round"
      stroke-linejoin="round" />
    <path d="M289.24 429.63C289.84 430.11 294.58 431.53 299.63 431.53" stroke="white" stroke-linecap="round"
      stroke-linejoin="round" />
    <path d="M260.9 438.89C260.9 438.89 265.04 439.89 266.11 441.38" stroke="white" stroke-linecap="round"
      stroke-linejoin="round" />
    <path d="M312.261 451.34C312.261 451.34 308.261 453.95 308.341 457.39" stroke="white" stroke-linecap="round"
      stroke-linejoin="round" />
    <path
      d="M344.07 451.48C344.29 445.75 349.58 448.13 349.58 448.13C349.58 448.13 353.45 442.44 357.2 443.77C360.95 445.1 361.92 447.07 367.88 449.17C373.84 451.27 381.94 449.62 384.14 455.29C386.34 460.96 383.53 464.14 370.08 463.1C356.63 462.06 353.08 461.63 353.08 461.63C353.08 461.63 343.62 463 344.07 451.48Z"
      fill="#29538E" stroke="#263238" stroke-linecap="round" stroke-linejoin="round" />
    <path d="M349.3 450.27C349.19 451.484 349.378 452.706 349.849 453.83C350.32 454.955 351.058 455.947 352 456.72"
      stroke="#263238" stroke-linecap="round" stroke-linejoin="round" />
    <path
      d="M354.781 443.77C351.921 444.91 351.561 451.48 358.181 455.67C364.801 459.86 366.121 456.28 370.301 459.79C374.481 463.3 381.041 463.79 384.821 461.07C388.601 458.35 385.511 453.07 378.461 450.27C371.411 447.47 369.151 450.27 365.271 448.13C361.391 445.99 360.871 441.34 354.781 443.77Z"
      fill="#BFBFBF" stroke="#263238" stroke-linecap="round" stroke-linejoin="round" />
    <path d="M357.07 445C356.85 445.72 357.07 452.34 357.07 452.34" stroke="#263238" stroke-linecap="round"
      stroke-linejoin="round" />
    <path d="M360.4 445.35V455.29" stroke="#263238" stroke-linecap="round" stroke-linejoin="round" />
    <path d="M363.91 448.13V456.55" stroke="#263238" stroke-linecap="round" stroke-linejoin="round" />
    <path d="M367.77 450.27L367.32 456.72" stroke="#263238" stroke-linecap="round" stroke-linejoin="round" />
    <path d="M372.061 450.32V459.31" stroke="#263238" stroke-linecap="round" stroke-linejoin="round" />
    <path d="M376.262 451.23V461.07" stroke="#263238" stroke-linecap="round" stroke-linejoin="round" />
    <path d="M380.99 452.96L381.43 460.41" stroke="#263238" stroke-linecap="round" stroke-linejoin="round" />
    <path
      d="M331.12 446.3C327.406 447.026 323.859 448.437 320.66 450.46C320.66 450.46 318.55 447.35 316.57 450.38C314.59 453.41 316.03 464.05 320.66 461.92C320.66 461.92 327.27 464.1 340.61 462.77C353.95 461.44 341.27 454.1 341.27 454.1L331.12 446.3Z"
      fill="#29538E" stroke="#263238" stroke-linecap="round" stroke-linejoin="round" />
    <path
      d="M332.34 446.37C327.15 445.31 324.23 454.16 326.68 458.37C329.13 462.58 331.2 462.61 340.44 462.61C349.68 462.61 358.9 462.94 358.33 454.08C357.76 445.22 345.13 447.47 342.12 448.59C339.11 449.71 335.11 446.94 332.34 446.37Z"
      fill="#BFBFBF" stroke="#263238" stroke-linecap="round" stroke-linejoin="round" />
    <path d="M330.691 448.33L331.211 460.24" stroke="#263238" stroke-linecap="round" stroke-linejoin="round" />
    <path d="M334.551 449.44L335.211 460.24" stroke="#263238" stroke-linecap="round" stroke-linejoin="round" />
    <path d="M337.861 449.99L338.521 460.79" stroke="#263238" stroke-linecap="round" stroke-linejoin="round" />
    <path d="M341.811 450.65L342.821 460.79" stroke="#263238" stroke-linecap="round" stroke-linejoin="round" />
    <path d="M345.791 449.44L346.721 460.79" stroke="#263238" stroke-linecap="round" stroke-linejoin="round" />
    <path d="M349.871 449.44L351.191 460.24" stroke="#263238" stroke-linecap="round" stroke-linejoin="round" />
    <path d="M353.842 449.99L354.942 458.47" stroke="#263238" stroke-linecap="round" stroke-linejoin="round" />
    <path d="M319.892 452.19C319.892 452.19 318.892 456.9 320.442 459.58" stroke="#263238" stroke-linecap="round"
      stroke-linejoin="round" />
    <path
      d="M292.58 332.25C291.58 332.44 284.69 332.67 281.79 333.64C274.42 336.08 255.68 351.9 255.68 351.9L242.8 329.16C242.8 329.16 237.19 328.16 234.42 333.16L235.89 337.39C235.418 339.219 235.064 341.076 234.83 342.95C234.49 347.51 244.34 371.25 249.13 372.65C256.63 374.84 277.26 359.24 277.26 359.24C277.26 359.24 285.91 353.47 286.79 348.09"
      fill="#BFBFBF" />
    <path
      d="M292.58 332.25C291.58 332.44 284.69 332.67 281.79 333.64C274.42 336.08 255.68 351.9 255.68 351.9L242.8 329.16C242.8 329.16 237.19 328.16 234.42 333.16L235.89 337.39C235.418 339.219 235.064 341.076 234.83 342.95C234.49 347.51 244.34 371.25 249.13 372.65C256.63 374.84 277.26 359.24 277.26 359.24C277.26 359.24 285.91 353.47 286.79 348.09"
      stroke="#263238" stroke-linecap="round" stroke-linejoin="round" />
    <path
      d="M284.22 295.42C289.17 285.81 298.22 289.16 298.22 289.16C315.84 285.81 316.38 306.33 317.98 317.16C319.58 327.99 325.41 330.47 327.06 339.55C327.32 341.735 327.28 343.946 326.94 346.12C326.72 345.156 326.15 344.308 325.34 343.74C325.68 355.48 318.73 361.3 318.29 361.64C323.21 354.88 322.61 350.5 322.61 350.5C320.71 357.38 313.35 364.15 313.35 364.15C313.35 364.15 307.07 362.73 304.12 353.58C301.51 345.44 298.04 342.58 297.83 342.45C300.218 347.122 301.98 352.088 303.07 357.22C299.62 352.148 296.51 346.853 293.76 341.37C281.51 318 283 308.27 283 308.27"
      fill="#29538E" />
    <path opacity="0.2"
      d="M284.22 295.42C289.17 285.81 298.22 289.16 298.22 289.16C315.84 285.81 316.38 306.33 317.98 317.16C319.58 327.99 325.41 330.47 327.06 339.55C327.32 341.735 327.28 343.946 326.94 346.12C326.72 345.156 326.15 344.308 325.34 343.74C325.68 355.48 318.73 361.3 318.29 361.64C323.21 354.88 322.61 350.5 322.61 350.5C320.71 357.38 313.35 364.15 313.35 364.15C313.35 364.15 307.07 362.73 304.12 353.58C301.51 345.44 298.04 342.58 297.83 342.45C300.218 347.122 301.98 352.088 303.07 357.22C299.62 352.148 296.51 346.853 293.76 341.37C281.51 318 283 308.27 283 308.27"
      fill="black" />
    <path
      d="M284.22 295.42C289.17 285.81 298.22 289.16 298.22 289.16C315.84 285.81 316.38 306.33 317.98 317.16C319.58 327.99 325.41 330.47 327.06 339.55C327.32 341.735 327.28 343.946 326.94 346.12C326.72 345.156 326.15 344.308 325.34 343.74C325.68 355.48 318.73 361.3 318.29 361.64C323.21 354.88 322.61 350.5 322.61 350.5C320.71 357.38 313.35 364.15 313.35 364.15C313.35 364.15 307.07 362.73 304.12 353.58C301.51 345.44 298.04 342.58 297.83 342.45C300.218 347.122 301.98 352.088 303.07 357.22C299.62 352.148 296.51 346.853 293.76 341.37C281.51 318 283 308.27 283 308.27"
      stroke="#263238" stroke-linecap="round" stroke-linejoin="round" />
    <path
      d="M299.5 291.07C299.5 291.07 308.5 285.25 311.84 302.63C315.18 320.01 317.89 321.79 319.55 330.33C321.21 338.87 319.44 345.76 316.94 348.33"
      stroke="#263238" stroke-linecap="round" stroke-linejoin="round" />
    <path d="M300.691 293.91C303.781 299.73 306.151 307.56 307.101 322.03C308.051 336.5 307.731 351.44 313.501 355.84"
      stroke="#263238" stroke-linecap="round" stroke-linejoin="round" />
    <path
      d="M291.002 292.25C291.002 292.25 283.172 296.17 288.872 307.91C294.572 319.65 300.732 329.03 300.732 335.79C300.732 342.55 302.572 346.1 306.072 347.3"
      stroke="#263238" stroke-linecap="round" stroke-linejoin="round" />
    <path d="M265.321 302.87C265.321 302.87 263.081 306.43 262.951 307.48" stroke="#263238" stroke-linecap="round"
      stroke-linejoin="round" />
    <path d="M255.68 351.9C255.68 351.9 249.74 354.3 250.47 359.41" stroke="#263238" stroke-linecap="round"
      stroke-linejoin="round" />
    <path d="M249 351C249 351 251.2 348.75 253 349.6" stroke="#263238" stroke-linecap="round" stroke-linejoin="round" />
    <path d="M238.551 334.5C238.551 334.5 242.241 331.74 244.251 332.01" stroke="#263238" stroke-linecap="round"
      stroke-linejoin="round" />
    <path d="M270.461 320.65C268.121 321.215 265.95 322.333 264.131 323.91" stroke="#263238" stroke-linecap="round"
      stroke-linejoin="round" />
    <path d="M288.391 353.44C288.201 353.44 283.621 356.97 280.471 356.79" stroke="#263238" stroke-linecap="round"
      stroke-linejoin="round" />
    <path d="M292.391 368.6C292.391 369.86 304.391 384.04 317.571 381.91" stroke="#263238" stroke-linecap="round"
      stroke-linejoin="round" />
    <path
      d="M121.48 238C121.48 238 131.88 243.57 134.18 248.51C136.48 253.45 144.85 278.93 144.85 278.93C144.85 278.93 151.2 289.38 152.68 291.5C154.16 293.62 153.52 302.5 146.19 302.44C138.86 302.38 130.39 295.39 130.07 292.23C129.75 289.07 125.98 287.23 125.69 284.5C125.4 281.77 116.59 263.75 116.59 263.75L121.48 238Z"
      fill="#263238" />
    <path
      d="M133.209 448.74C133.209 448.74 131.639 458.38 133.209 462.88H165.089C165.089 462.88 166.439 459.5 165.089 457.38C163.739 455.26 153.639 454.04 150.499 451.16C148.09 448.766 145.911 446.151 143.989 443.35L133.209 448.74Z"
      fill="white" stroke="#263238" stroke-linecap="round" stroke-linejoin="round" />
    <path d="M165.69 461.18H132.8L132.51 462.88H165.69V461.18Z" fill="white" stroke="#263238" stroke-linecap="round"
      stroke-linejoin="round" />
    <path
      d="M140.881 447.57C140.881 447.57 143.881 448.29 144.211 448.41C144.541 448.53 147.471 453.01 150.391 453.79C153.311 454.57 156.221 454.43 155.771 455.85"
      stroke="#263238" stroke-linecap="round" stroke-linejoin="round" />
    <path d="M147.52 447.57L144.1 450.09" stroke="#263238" stroke-linecap="round" stroke-linejoin="round" />
    <path d="M149.101 449.78L145.811 452.19" stroke="#263238" stroke-linecap="round" stroke-linejoin="round" />
    <path d="M151.2 451.71L148.35 454.47" stroke="#263238" stroke-linecap="round" stroke-linejoin="round" />
    <path d="M154.09 453.11L152.85 455.85" stroke="#263238" stroke-linecap="round" stroke-linejoin="round" />
    <path
      d="M79.1906 462.88C79.1906 462.88 77.9606 458.19 79.4006 456.45C81.9806 453.33 79.0805 450.71 81.6705 449.63L82.7606 450.89C82.9706 449.61 82.3605 445.72 87.1705 445.22C92.9705 444.61 93.0805 448.83 93.3905 450.22L93.3006 448.28C95.7706 448.28 94.4906 450.75 98.2406 454.79C99.225 455.879 99.9739 457.16 100.44 458.552C100.907 459.944 101.08 461.418 100.951 462.88H79.1906Z"
      fill="white" stroke="#263238" stroke-linecap="round" stroke-linejoin="round" />
    <path
      d="M58.1602 284.47C55.4902 286 48.5702 300.75 52.6102 330C56.6502 359.25 68.7202 416.3 70.7502 425C72.7802 433.7 79.8702 454.75 79.8702 454.75C79.8702 454.75 82.5802 445.63 95.6102 450.51C95.7215 450.549 95.8412 450.558 95.9572 450.536C96.0731 450.515 96.1812 450.462 96.2705 450.385C96.3598 450.308 96.4271 450.209 96.4657 450.097C96.5043 449.986 96.5128 449.866 96.4902 449.75L93.6302 434.86C93.6302 434.86 93.4302 423.97 92.4902 421.24C88.9602 410.96 87.2002 371.24 86.0302 365.69C84.8602 360.14 87.1602 344.2 87.1602 344.2C87.1602 344.2 103.47 383.2 104 387.06C104.53 390.92 114.47 406.84 114.47 406.84L116.19 421.49C116.19 421.49 129.42 444.17 131.75 450.94L147.52 447.53L147.08 436.32L142.83 434.86L135.41 409.37C133.064 400.536 130.182 391.854 126.78 383.37C123.27 374.5 113.32 340.17 113.32 340.17C110.23 336.81 107.32 318.23 107.32 318.23L102.54 294.8L58.1602 284.47Z"
      fill="#29538E" />
    <path opacity="0.2"
      d="M104.829 306.07C96.8295 310.34 79.3694 318.55 71.4494 313.43C64.7994 309.13 57.2795 302.22 52.6895 297.76C54.2295 289.65 56.7695 285.28 58.1595 284.47L102.539 294.83L104.829 306.07Z"
      fill="black" />
    <path opacity="0.2"
      d="M147.519 447.57L131.749 451C129.419 444.23 116.189 421.55 116.189 421.55L114.469 406.9C114.469 406.9 104.529 390.93 103.999 387.1C103.469 383.27 87.1589 344.24 87.1589 344.24C87.1589 344.24 86.7689 346.97 86.3789 350.58C86.4989 348.71 87.3789 336.14 86.8689 332.27L87.2689 329.93C87.2689 329.93 98.0089 322.17 99.4489 325.13C100.889 328.09 93.8189 331.13 93.8189 331.13C93.8189 331.13 100.349 333.13 103.519 333.23C106.689 333.33 102.799 341.1 101.309 341.98C99.8189 342.86 94.0589 341.98 94.0589 341.98C94.0589 341.98 106.419 372.51 117.889 383.13C121.126 386.121 124.98 388.364 129.179 389.7C133.389 401.23 135.409 409.41 135.409 409.41L142.829 434.9L147.079 436.36L147.519 447.57Z"
      fill="black" />
    <path
      d="M58.1602 284.47C55.4902 286 48.5702 300.75 52.6102 330C56.6502 359.25 68.7202 416.3 70.7502 425C72.7802 433.7 79.8702 454.75 79.8702 454.75C79.8702 454.75 82.5802 445.63 95.6102 450.51C95.7215 450.549 95.8412 450.558 95.9572 450.536C96.0731 450.515 96.1812 450.462 96.2705 450.385C96.3598 450.308 96.4271 450.209 96.4657 450.097C96.5043 449.986 96.5128 449.866 96.4902 449.75L93.6302 434.86C93.6302 434.86 93.4302 423.97 92.4902 421.24C88.9602 410.96 87.2002 371.24 86.0302 365.69C84.8602 360.14 87.1602 344.2 87.1602 344.2C87.1602 344.2 103.47 383.2 104 387.06C104.53 390.92 114.47 406.84 114.47 406.84L116.19 421.49C116.19 421.49 129.42 444.17 131.75 450.94L147.52 447.53L147.08 436.32L142.83 434.86L135.41 409.37C133.064 400.536 130.182 391.854 126.78 383.37C123.27 374.5 113.32 340.17 113.32 340.17C110.23 336.81 107.32 318.23 107.32 318.23L102.54 294.8L58.1602 284.47Z"
      stroke="#263238" stroke-linecap="round" stroke-linejoin="round" />
    <path
      d="M123.001 264.12C117.551 274.92 109.001 288.42 109.001 288.42L105.231 303.47C105.231 303.47 91.0709 312.21 74.8309 308.55C55.8309 304.25 52.7109 294.55 52.7109 294.55L57.8309 277.6C60.3009 266.28 65.6709 244.67 76.8309 238.6C87.9909 232.53 107.121 231.97 114.831 234.44C121.701 236.65 125.501 238.32 127.381 240.36C127.381 240.36 130.161 249.9 129.551 253.07C128.941 256.24 123.001 264.12 123.001 264.12Z"
      fill="#263238" />
    <path d="M100.971 461.18H78.7012L79.1912 462.88H100.951L100.971 461.18Z" fill="white" stroke="#263238"
      stroke-linecap="round" stroke-linejoin="round" />
    <path d="M93.8202 454.59C93.8202 454.59 86.5202 452.18 82.9902 455.2" stroke="#263238" stroke-linecap="round"
      stroke-linejoin="round" />
    <path d="M93.8202 453C93.8202 453 87.4002 451 82.9902 453.68" stroke="#263238" stroke-linecap="round"
      stroke-linejoin="round" />
    <path d="M93.4502 451.42C93.4502 451.42 87.4502 449.14 82.9902 452.26" stroke="#263238" stroke-linecap="round"
      stroke-linejoin="round" />
    <g opacity="0.96">
      <path opacity="0.96" d="M92.4902 327.92C91.6202 328.12 74.8102 334.25 71.4902 340.38" stroke="#263238"
        stroke-linecap="round" stroke-linejoin="round" />
      <path opacity="0.96"
        d="M88.4102 336.82C89.2502 338.01 96.4102 360.36 99.4102 366.49C102.41 372.62 112.76 400.12 115.13 401.7C115.13 401.7 118.3 417.7 120.27 420.29C122.24 422.88 132.48 443.35 132.48 443.35"
        stroke="#263238" stroke-linecap="round" stroke-linejoin="round" />
      <path opacity="0.96" d="M143.99 443.35L131.58 446.01" stroke="#263238" stroke-linecap="round"
        stroke-linejoin="round" />
      <path opacity="0.96" d="M93.4504 444.68C93.4504 444.68 83.5104 443.79 80.1504 447.57" stroke="#263238"
        stroke-linecap="round" stroke-linejoin="round" />
      <path opacity="0.96" d="M82.0002 339.39C81.1702 344.14 68.7102 370.45 65.7402 367.48" stroke="#263238"
        stroke-linecap="round" stroke-linejoin="round" />
      <path opacity="0.96"
        d="M86.8008 341.77C86.8008 341.77 88.2608 335.24 86.8708 332.27C86.3508 331.14 97.5608 335.04 101.311 334.15"
        stroke="#263238" stroke-linecap="round" stroke-linejoin="round" />
      <path opacity="0.96"
        d="M88.4094 309.44C88.4094 309.44 86.4094 315.06 85.9694 316.84C85.5294 318.62 89.5394 325.55 88.4094 326.93"
        stroke="#263238" stroke-linecap="round" stroke-linejoin="round" />
      <path opacity="0.96"
        d="M61.1609 304.18C61.1609 304.18 58.3909 308.42 58.3909 311.55C58.3909 314.68 54.6309 316.05 54.6309 316.05"
        stroke="#263238" stroke-linecap="round" stroke-linejoin="round" />
      <path opacity="0.96"
        d="M55.2602 299.55C53.1804 308.873 52.9662 318.515 54.6302 327.92C57.4002 343.55 61.9502 375.39 63.7302 383.5C65.5102 391.61 69.6702 409.81 69.6702 412.38C69.6702 414.95 73.8402 429.59 73.8402 429.59"
        stroke="#263238" stroke-linecap="round" stroke-linejoin="round" />
      <path opacity="0.96" d="M72.8301 407.44C73.4201 407.44 84.5001 418.12 87.2701 418.32" stroke="#263238"
        stroke-linecap="round" stroke-linejoin="round" />
      <path opacity="0.96" d="M121.291 400.91C121.891 401.11 131.181 405.66 131.581 404.27" stroke="#263238"
        stroke-linecap="round" stroke-linejoin="round" />
    </g>
    <path
      d="M109.85 232.56C109.85 232.56 98.5501 233.69 98.1501 239.97C97.7501 246.25 103.03 253.36 111.87 253.76C120.71 254.16 121.79 245.49 122.1 240.76C122.41 236.03 116 232.19 109.85 232.56Z"
      fill="#BFBFBF" stroke="#263238" stroke-linecap="round" stroke-linejoin="round" />
    <path
      d="M106.241 236.38C104.417 231.271 104.132 225.74 105.421 220.47C106.991 213.88 114.841 204.82 126.741 213.06C132.881 217.31 133.251 226.52 131.341 234.96C130.891 236.96 131.231 238.96 130.561 240.79C128.211 247.29 123.901 252.29 121.561 252.4C117.631 252.59 109.781 247.84 110.101 243.7"
      fill="#BFBFBF" />
    <path
      d="M106.241 236.38C104.417 231.271 104.132 225.74 105.421 220.47C106.991 213.88 114.841 204.82 126.741 213.06C132.881 217.31 133.251 226.52 131.341 234.96C130.891 236.96 131.231 238.96 130.561 240.79C128.211 247.29 123.901 252.29 121.561 252.4C117.631 252.59 109.781 247.84 110.101 243.7"
      stroke="#263238" stroke-linecap="round" stroke-linejoin="round" />
    <path
      d="M122.101 232.18C121.064 231.882 119.978 231.799 118.908 231.937C117.838 232.074 116.808 232.429 115.881 232.98"
      stroke="#263238" stroke-linecap="round" stroke-linejoin="round" />
    <path d="M128.09 232C128.09 232 130.49 230.8 132.09 231.11" stroke="#263238" stroke-linecap="round"
      stroke-linejoin="round" />
    <path
      d="M118.281 237.98C118.646 237.98 118.941 237.506 118.941 236.92C118.941 236.335 118.646 235.86 118.281 235.86C117.917 235.86 117.621 236.335 117.621 236.92C117.621 237.506 117.917 237.98 118.281 237.98Z"
      fill="#263238" />
    <path
      d="M128.09 237.39C128.454 237.39 128.75 236.915 128.75 236.33C128.75 235.745 128.454 235.27 128.09 235.27C127.725 235.27 127.43 235.745 127.43 236.33C127.43 236.915 127.725 237.39 128.09 237.39Z"
      fill="#263238" />
    <path
      d="M114.471 224.11L114.151 228.97C114.151 228.97 110.711 230.74 109.851 232.56C109.332 233.745 109.142 235.047 109.301 236.33C109.301 236.33 107.211 232.68 106.091 232.98C105.681 233.08 105.681 234.61 105.681 234.61C105.681 234.61 101.001 224.11 105.231 218.56C109.461 213.01 114.471 224.11 114.471 224.11Z"
      fill="#263238" />
    <path
      d="M107.831 235.27C107.831 235.27 106.891 231.75 103.721 230.81C100.551 229.87 102.721 238.32 105.421 239.44C108.121 240.56 108.801 241.32 108.961 240.32"
      fill="#BFBFBF" />
    <path
      d="M107.831 235.27C107.831 235.27 106.891 231.75 103.721 230.81C100.551 229.87 102.721 238.32 105.421 239.44C108.121 240.56 108.801 241.32 108.961 240.32"
      stroke="#263238" stroke-linecap="round" stroke-linejoin="round" />
    <path
      d="M125.78 236.92C125.636 238.1 125.893 239.294 126.51 240.31C126.721 240.612 126.831 240.972 126.824 241.34C126.817 241.708 126.693 242.065 126.471 242.358C126.249 242.652 125.939 242.867 125.587 242.973C125.234 243.08 124.857 243.071 124.51 242.95"
      stroke="#263238" stroke-linecap="round" stroke-linejoin="round" />
    <path d="M124.53 245.91C122.715 246.395 120.805 246.395 118.99 245.91" stroke="#263238" stroke-linecap="round"
      stroke-linejoin="round" />
    <path
      d="M114.47 224.11C114.47 224.11 122.55 226.06 127.47 225.41C132.39 224.76 135.47 222.5 134.72 217.33C133.97 212.16 128.13 209.77 118.54 208.13C109.11 206.52 99.2304 213.58 103.72 222.2C108.21 230.82 114.47 224.11 114.47 224.11Z"
      fill="#263238" />
    <path
      d="M125.181 300.9C125.452 301.437 125.596 302.029 125.601 302.63C125.701 303.87 121.251 305.35 120.461 304.86C119.671 304.37 117.801 301.86 119.971 300.41C122.141 298.96 125.181 300.9 125.181 300.9Z"
      fill="#BFBFBF" stroke="#263238" stroke-linecap="round" stroke-linejoin="round" />
    <path
      d="M136.881 299.55C137.076 300.93 137.459 302.276 138.021 303.55C138.711 304.69 143.021 303.55 144.201 304.16C145.381 304.77 145.481 302.68 144.201 301.63C142.921 300.58 141.281 298.25 136.881 299.55Z"
      fill="#BFBFBF" stroke="#263238" stroke-linecap="round" stroke-linejoin="round" />
    <path d="M134.18 298.93H129.1V379.18H134.18V298.93Z" fill="#BFBFBF" stroke="#263238" stroke-linecap="round"
      stroke-linejoin="round" />
    <path
      d="M127.43 357H135.85C136.338 357 136.806 357.194 137.151 357.539C137.496 357.884 137.69 358.352 137.69 358.84V462.84H125.6V358.84C125.6 358.354 125.792 357.887 126.135 357.542C126.478 357.198 126.943 357.003 127.43 357Z"
      fill="#757575" stroke="#263238" stroke-linecap="round" stroke-linejoin="round" />
    <path
      d="M146.351 293.4H116.931C116.321 293.4 115.736 293.643 115.305 294.074C114.873 294.505 114.631 295.09 114.631 295.7V297.25C114.631 297.86 114.873 298.445 115.305 298.877C115.736 299.308 116.321 299.55 116.931 299.55H127.791V304.18H135.501V299.55H146.351C146.653 299.55 146.952 299.491 147.231 299.375C147.51 299.26 147.764 299.09 147.977 298.877C148.191 298.663 148.36 298.41 148.476 298.131C148.591 297.852 148.651 297.552 148.651 297.25V295.7C148.651 295.398 148.591 295.099 148.476 294.82C148.36 294.541 148.191 294.288 147.977 294.074C147.764 293.86 147.51 293.691 147.231 293.575C146.952 293.46 146.653 293.4 146.351 293.4Z"
      fill="#29538E" stroke="#263238" stroke-linecap="round" stroke-linejoin="round" />
    <path
      d="M104.631 290.88C104.631 290.88 120.221 288.77 121.761 288.51C123.301 288.25 128.091 296.42 128.091 296.42L124.531 301.9C124.531 301.9 110.931 303.8 110.121 303.01C109.596 302.399 109.213 301.678 109.001 300.9C109.001 300.9 102.001 303.54 101.351 298.79C100.701 294.04 100.201 293.34 104.631 290.88Z"
      fill="#BFBFBF" stroke="#263238" stroke-linecap="round" stroke-linejoin="round" />
    <path
      d="M136.35 293.4C136.35 293.4 138.73 289.17 141.1 289.17C143.47 289.17 152.57 290.75 153.63 292.07C154.69 293.39 157.19 295.5 156.79 297.21C156.39 298.92 153.89 302.5 151.52 301.9C149.15 301.3 143.08 301.97 143.08 301.97C143.08 301.97 139.78 301.36 139.52 299.55L142.29 298.79C142.29 298.79 142.68 294.97 142.15 294.44C141.62 293.91 136.35 293.4 136.35 293.4Z"
      fill="#BFBFBF" stroke="#263238" stroke-linecap="round" stroke-linejoin="round" />
    <path d="M144.85 301.81C144.85 301.81 147.74 298.66 147.52 297.47C147.3 296.28 146.87 292.59 146.16 292.2"
      stroke="#263238" stroke-linecap="round" stroke-linejoin="round" />
    <path d="M148.85 301.65C148.85 301.65 150.99 300.77 150.99 298.79C150.933 297.199 150.752 295.614 150.45 294.05"
      stroke="#263238" stroke-linecap="round" stroke-linejoin="round" />
    <path
      d="M152.68 301.88C153.413 301.086 153.895 300.092 154.064 299.024C154.233 297.956 154.082 296.862 153.63 295.88"
      stroke="#263238" stroke-linecap="round" stroke-linejoin="round" />
    <path d="M122 302C122 302 124.48 298.67 124.08 297C123.531 295.341 122.835 293.735 122 292.2" stroke="#263238"
      stroke-linecap="round" stroke-linejoin="round" />
    <path d="M118.691 302.63C118.691 302.63 120.071 298.63 119.971 297.85C119.871 297.07 117.971 293.19 117.891 292.79"
      stroke="#263238" stroke-linecap="round" stroke-linejoin="round" />
    <path d="M114.631 303C115.521 301.55 117.631 301 116.011 297.81C114.391 294.62 113.641 294.01 113.641 294.01"
      stroke="#263238" stroke-linecap="round" stroke-linejoin="round" />
    <path d="M109 300.9C109.72 300.21 111.11 298.54 111.11 298.54C111.11 298.54 111.4 299.91 112 300.31"
      stroke="#263238" stroke-linecap="round" stroke-linejoin="round" />
    <path
      d="M115.801 460.75H148.001C148.433 460.75 148.847 460.922 149.153 461.227C149.459 461.533 149.631 461.948 149.631 462.38V463.29H114.561V462C114.559 461.836 114.59 461.674 114.652 461.522C114.714 461.371 114.805 461.233 114.92 461.117C115.035 461.001 115.173 460.908 115.324 460.845C115.475 460.782 115.637 460.75 115.801 460.75Z"
      fill="#263238" />
    <path
      d="M67.1499 254.67C63.1499 264.58 58.4999 276.17 57.8299 286.95C57.5799 290.95 61.4299 292.36 64.6799 293.83C71.0622 296.692 77.753 298.809 84.6199 300.14C87.0299 300.61 89.6199 300.59 91.9199 301.14C94.5299 301.79 98.1999 304.08 100.92 302.6"
      stroke="white" stroke-linecap="round" stroke-linejoin="round" />
    <path
      d="M85.9298 260L80.6998 271.25L77.3398 278C78.5925 279.265 80.2131 280.102 81.9698 280.39C82.7777 280.501 83.5525 280.783 84.2424 281.217C84.9323 281.652 85.5212 282.229 85.9698 282.91C85.9698 282.91 99.1398 288.6 100.92 288.54C102.7 288.48 104.14 286.77 105.6 289.21"
      stroke="white" stroke-linecap="round" stroke-linejoin="round" />
    <path d="M77.3404 278C77.3404 278 70.2204 275.62 67.6504 278" stroke="white" stroke-linecap="round"
      stroke-linejoin="round" />
    <path d="M78.5293 243C79.1193 242.53 86.3593 250.44 86.7993 256.38" stroke="white" stroke-linecap="round"
      stroke-linejoin="round" />
    <path d="M88.6102 260C88.6102 260 86.6702 264 83.4902 265.25" stroke="white" stroke-linecap="round"
      stroke-linejoin="round" />
    <path d="M128.761 260.75C128.761 260.75 124.761 267.61 120.621 268.75" stroke="white" stroke-linecap="round"
      stroke-linejoin="round" />
    <path d="M129.711 284.47C129.711 284.47 135.301 280.17 139.051 280.35" stroke="white" stroke-linecap="round"
      stroke-linejoin="round" />
    <path d="M128.091 267C128.091 267 124.621 269.84 122.041 268.78" stroke="white" stroke-linecap="round"
      stroke-linejoin="round" />
    <path d="M134.26 455.87C162.35 455.87 157.81 462.87 186.45 462.87C215.09 462.87 232.45 463.29 232.45 313.29"
      stroke="#263238" stroke-width="3" stroke-linecap="round" stroke-linejoin="round" />
  </g>
  <defs>
    <clipPath id="clip0">
      <rect width="424" height="463" fill="white" />
    </clipPath>
  </defs>
</svg>