<svg width="500" height="500" viewBox="0 0 500 500" fill="none" xmlns="http://www.w3.org/2000/svg">
  <path
    d="M397.309 385C413.859 366.58 426.209 344.23 434.379 320.75C446.029 287.25 449.629 251.41 449.679 215.94C449.739 181.54 446.429 146.65 434.199 114.51C421.969 82.37 400.069 53 369.719 36.78C316.289 8.29996 254.719 21.33 207.419 55.78C184.139 72.73 164.699 95.19 148.569 118.92C131.239 144.41 106.999 164.25 85.7594 186.35C73.7894 198.8 62.4994 212 53.5394 226.86C24.2694 275.35 22.6394 330.07 69.2394 367.53C116.599 405.59 188.999 430.08 248.879 435.76C292.419 439.89 338.379 431.88 373.809 406.24C382.375 400.014 390.252 392.894 397.309 385Z"
    fill="#29538E" />
  <path opacity="0.7"
    d="M397.309 385C413.859 366.58 426.209 344.23 434.379 320.75C446.029 287.25 449.629 251.41 449.679 215.94C449.739 181.54 446.429 146.65 434.199 114.51C421.969 82.37 400.069 53 369.719 36.78C316.289 8.29996 254.719 21.33 207.419 55.78C184.139 72.73 164.699 95.19 148.569 118.92C131.239 144.41 106.999 164.25 85.7594 186.35C73.7894 198.8 62.4994 212 53.5394 226.86C24.2694 275.35 22.6394 330.07 69.2394 367.53C116.599 405.59 188.999 430.08 248.879 435.76C292.419 439.89 338.379 431.88 373.809 406.24C382.375 400.014 390.252 392.894 397.309 385Z"
    fill="white" />
  <path d="M441.23 292.98L463.02 284.76" stroke="#263238" stroke-linecap="round" stroke-linejoin="round" />
  <path d="M70.8203 432.54L432.02 296.44" stroke="#263238" stroke-linecap="round" stroke-linejoin="round" />
  <path d="M44.9297 442.3L58.8697 437.04" stroke="#263238" stroke-linecap="round" stroke-linejoin="round" />
  <path d="M366.881 227.5L157.721 306.34V114.25L366.881 35.4199V227.5Z" fill="white" />
  <path
    d="M180.82 178.337L180.811 177.927L183.309 176.872L183.323 177.492C183.37 179.671 184.29 180.592 186.244 179.809C188.197 179.026 189.13 177.316 189.074 174.746L188.956 169.328C188.676 170.263 188.186 171.123 187.524 171.841C186.862 172.559 186.045 173.116 185.136 173.472C182.052 174.709 180.635 173.019 180.56 169.57L180.48 165.901C180.363 164.124 180.82 162.357 181.783 160.859C182.746 159.362 184.165 158.213 185.83 157.583C189.529 156.092 191.396 157.782 191.476 161.461L191.744 173.768C191.827 177.607 190.163 180.674 186.366 182.207C182.568 183.74 180.901 182.036 180.82 178.337ZM188.883 165.958L188.804 162.329C188.757 160.16 187.836 159.2 185.882 159.982C184.978 160.349 184.219 161 183.719 161.838C183.219 162.676 183.006 163.654 183.113 164.623L183.192 168.253C183.239 170.422 184.19 171.372 186.113 170.6C187.019 170.236 187.781 169.585 188.281 168.746C188.782 167.908 188.993 166.928 188.883 165.958Z"
    fill="#263238" />
  <path
    d="M194.001 160.73C193.921 158.954 194.416 157.2 195.412 155.729C196.408 154.257 197.852 153.145 199.531 152.56C203.261 151.15 205.091 152.84 205.091 156.56V169C205.169 170.784 204.671 172.546 203.669 174.025C202.668 175.504 201.216 176.621 199.531 177.21C195.831 178.61 194.001 176.88 194.001 173.21V160.73ZM196.661 172.37C196.661 174.55 197.591 175.51 199.531 174.78C200.444 174.439 201.221 173.807 201.74 172.981C202.258 172.155 202.491 171.181 202.401 170.21V157.42C202.401 155.21 201.501 154.23 199.531 154.98C198.616 155.329 197.841 155.967 197.323 156.798C196.805 157.628 196.572 158.605 196.661 159.58V172.37Z"
    fill="#263238" />
  <path
    d="M214.4 151V158.64C214.462 159.765 214.158 160.88 213.535 161.819C212.911 162.758 212.001 163.47 210.94 163.85C208.59 164.73 207.49 163.59 207.49 161.24V153.61C207.429 152.486 207.732 151.373 208.353 150.434C208.975 149.496 209.882 148.783 210.94 148.4C213.29 147.46 214.4 148.63 214.4 151ZM209.21 152.85V160.73C209.21 162.04 209.7 162.73 210.94 162.26C211.496 162.039 211.966 161.644 212.278 161.134C212.59 160.623 212.727 160.025 212.67 159.43V151.5C212.67 150.18 212.15 149.5 210.94 149.94C210.38 150.163 209.907 150.563 209.595 151.079C209.283 151.596 209.148 152.2 209.21 152.8V152.85ZM222.38 144.22L212.84 172L211.22 172.61L220.76 144.82L222.38 144.22ZM226.29 155.54V163.14C226.358 164.266 226.057 165.384 225.433 166.324C224.809 167.265 223.895 167.976 222.83 168.35C220.48 169.24 219.38 168.1 219.38 165.75V158.14C219.322 157.021 219.626 155.914 220.248 154.983C220.869 154.051 221.775 153.345 222.83 152.97C225.22 152 226.29 153.17 226.29 155.49V155.54ZM221.1 157.39V165.23C221.1 166.55 221.62 167.23 222.83 166.79C223.389 166.564 223.859 166.163 224.171 165.647C224.483 165.132 224.619 164.529 224.56 163.93V156C224.56 154.69 224.04 154 222.83 154.48C222.268 154.7 221.793 155.1 221.481 155.617C221.168 156.134 221.034 156.739 221.1 157.34V157.39Z"
    fill="#263238" />
  <path d="M352.901 188.38L168.201 256.26V259.37L352.901 191.49V188.38Z" fill="#E5E5E5" />
  <path d="M352.901 170.66L168.201 238.55V241.65L352.901 173.77V170.66Z" fill="#E5E5E5" />
  <path d="M352.901 152.95L168.201 220.83V223.94L352.901 156.05V152.95Z" fill="#E5E5E5" />
  <path d="M352.901 135.23L168.201 203.12V206.22L352.901 138.34V135.23Z" fill="#E5E5E5" />
  <path d="M234.541 161.02V164.12L352.901 120.62V117.52L234.541 161.02Z" fill="#E5E5E5" />
  <path d="M234.541 143.3V146.41L352.901 102.91V99.7998L234.541 143.3Z" fill="#E5E5E5" />
  <path d="M234.541 125.59V128.69L352.901 85.1901V82.0801L234.541 125.59Z" fill="#E5E5E5" />
  <path
    d="M353.001 60.0698C349.771 72.2298 342.821 95.8598 333.191 115.12C319.591 142.32 277.341 193.8 247.711 219.06C218.081 244.32 168.781 274.62 168.781 274.62L353.001 207.62V60.0698Z"
    fill="#29538E" />
  <path d="M169.92 274C169.92 274 324.37 191.52 351.16 62.8301" stroke="#263238" stroke-width="4" stroke-linecap="round"
    stroke-linejoin="round" />
  <path d="M168.391 130.59V282.02" stroke="#263238" stroke-linecap="round" stroke-linejoin="round" />
  <path d="M162.65 277.57L354.97 206.89" stroke="#263238" stroke-linecap="round" stroke-linejoin="round" />
  <path d="M181.102 271.1V277.28" stroke="#263238" stroke-linecap="round" stroke-linejoin="round" />
  <path d="M193.602 266.5V272.69" stroke="#263238" stroke-linecap="round" stroke-linejoin="round" />
  <path d="M206.111 261.91V268.09" stroke="#263238" stroke-linecap="round" stroke-linejoin="round" />
  <path d="M218.621 257.31V263.49" stroke="#263238" stroke-linecap="round" stroke-linejoin="round" />
  <path d="M231.131 252.71V258.9" stroke="#263238" stroke-linecap="round" stroke-linejoin="round" />
  <path d="M243.631 248.12V254.3" stroke="#263238" stroke-linecap="round" stroke-linejoin="round" />
  <path d="M256.141 243.52V249.7" stroke="#263238" stroke-linecap="round" stroke-linejoin="round" />
  <path d="M268.65 238.92V245.1" stroke="#263238" stroke-linecap="round" stroke-linejoin="round" />
  <path d="M281.16 234.32V240.51" stroke="#263238" stroke-linecap="round" stroke-linejoin="round" />
  <path d="M293.66 229.73V235.91" stroke="#263238" stroke-linecap="round" stroke-linejoin="round" />
  <path d="M306.17 225.13V231.31" stroke="#263238" stroke-linecap="round" stroke-linejoin="round" />
  <path d="M318.682 220.53V226.72" stroke="#263238" stroke-linecap="round" stroke-linejoin="round" />
  <path d="M331.191 215.94V222.12" stroke="#263238" stroke-linecap="round" stroke-linejoin="round" />
  <path d="M343.701 211.34V217.52" stroke="#263238" stroke-linecap="round" stroke-linejoin="round" />
  <path d="M355.301 206.79V212.97" stroke="#263238" stroke-linecap="round" stroke-linejoin="round" />
  <path d="M181.17 132.97L226.87 115.3" stroke="#263238" stroke-linecap="round" stroke-linejoin="round" />
  <path d="M181.17 140.89L226.87 123.22" stroke="#263238" stroke-linecap="round" stroke-linejoin="round" />
  <path d="M181.17 148.81L226.87 131.14" stroke="#263238" stroke-linecap="round" stroke-linejoin="round" />
  <path d="M231.632 319.82L214.852 326.14V316.78L231.632 310.45V319.82Z" stroke="#263238" stroke-linecap="round"
    stroke-linejoin="round" />
  <path d="M268.68 305.89L251.9 312.22V302.85L268.68 296.53V305.89Z" stroke="#263238" stroke-linecap="round"
    stroke-linejoin="round" />
  <path d="M305.731 291.97L288.951 298.29V288.93L305.731 282.6V291.97Z" stroke="#263238" stroke-linecap="round"
    stroke-linejoin="round" />
  <path d="M342.78 278.04L326 284.36V275L342.78 268.68V278.04Z" stroke="#263238" stroke-linecap="round"
    stroke-linejoin="round" />
  <path d="M429.15 92.38L378.65 111.41V65.03L429.15 46V92.38Z" stroke="#263238" stroke-linecap="round"
    stroke-linejoin="round" />
  <path d="M378.381 61.1999L399.241 53.6099" stroke="#263238" stroke-linecap="round" stroke-linejoin="round" />
  <path d="M378.381 57.9801L399.241 50.3901" stroke="#263238" stroke-linecap="round" stroke-linejoin="round" />
  <path d="M378.381 54.7499L399.241 47.1699" stroke="#263238" stroke-linecap="round" stroke-linejoin="round" />
  <path d="M383.551 104.59L389.111 92.09L399.421 92.48L408.551 71.46L420.061 72.05L426.201 54" stroke="#263238"
    stroke-linecap="round" stroke-linejoin="round" />
  <path d="M381.57 74.0401L425.61 57.3701" stroke="#263238" stroke-linecap="round" stroke-linejoin="round" />
  <path d="M381.57 79.7899L425.61 63.1299" stroke="#263238" stroke-linecap="round" stroke-linejoin="round" />
  <path d="M381.57 85.5399L425.61 68.8799" stroke="#263238" stroke-linecap="round" stroke-linejoin="round" />
  <path d="M381.57 91.2999L425.61 74.6299" stroke="#263238" stroke-linecap="round" stroke-linejoin="round" />
  <path d="M381.57 97.0499L425.61 80.3799" stroke="#263238" stroke-linecap="round" stroke-linejoin="round" />
  <path d="M381.57 102.8L425.61 86.1401" stroke="#263238" stroke-linecap="round" stroke-linejoin="round" />
  <path
    d="M241.787 57.8648C250.232 48.3024 251.031 35.21 243.572 28.622C236.112 22.034 223.219 24.4452 214.774 34.0076C206.329 43.5699 205.53 56.6624 212.989 63.2504C220.449 69.8384 233.342 67.4272 241.787 57.8648Z"
    stroke="#263238" stroke-linecap="round" stroke-linejoin="round" />
  <path d="M242.279 27.65C238.619 25.11 233.709 24.2 228.279 25.55V46L242.279 27.65Z" stroke="#263238"
    stroke-linecap="round" stroke-linejoin="round" />
  <path d="M256.189 40.3298L279.539 31.8398" stroke="#263238" stroke-linecap="round" stroke-linejoin="round" />
  <path d="M256.189 36.72L279.539 28.23" stroke="#263238" stroke-linecap="round" stroke-linejoin="round" />
  <path d="M256.189 33.1101L279.539 24.6201" stroke="#263238" stroke-linecap="round" stroke-linejoin="round" />
  <path d="M141.052 134.15L84.5117 155.46V103.54L141.052 82.23V134.15Z" stroke="#263238" stroke-linecap="round"
    stroke-linejoin="round" />
  <path d="M126.041 94.33V134.24L135.541 130.66V90.75L126.041 94.33Z" stroke="#263238" stroke-linecap="round"
    stroke-linejoin="round" />
  <path d="M102.311 143.19L111.581 139.69V109.13L102.311 112.62V143.19Z" stroke="#263238" stroke-linecap="round"
    stroke-linejoin="round" />
  <path d="M123.442 101.89L114.172 105.39V138.71L123.442 135.22V101.89Z" stroke="#263238" stroke-linecap="round"
    stroke-linejoin="round" />
  <path d="M99.71 102.35L90 106V147.82L99.71 144.16V102.35Z" stroke="#263238" stroke-linecap="round"
    stroke-linejoin="round" />
  <path d="M84.2109 99.24L107.571 90.75" stroke="#263238" stroke-linecap="round" stroke-linejoin="round" />
  <path d="M84.2109 95.6401L107.571 87.1401" stroke="#263238" stroke-linecap="round" stroke-linejoin="round" />
  <path d="M84.2109 92.0298L107.571 83.5298" stroke="#263238" stroke-linecap="round" stroke-linejoin="round" />
  <path d="M100.87 308.8L58.25 324.87V331.03L100.87 314.97V308.8Z" stroke="#263238" stroke-linecap="round"
    stroke-linejoin="round" />
  <path d="M105.05 323.46L58.25 341.1V334.93L105.05 317.29V323.46Z" stroke="#263238" stroke-linecap="round"
    stroke-linejoin="round" />
  <path d="M90.43 332.87L58.25 345V351.17L90.43 339.04V332.87Z" stroke="#263238" stroke-linecap="round"
    stroke-linejoin="round" />
  <path d="M99.03 339.69L58.25 355.07V361.23L99.03 345.86V339.69Z" stroke="#263238" stroke-linecap="round"
    stroke-linejoin="round" />
  <path d="M52.8594 313.33L72.1994 306.3" stroke="#263238" stroke-linecap="round" stroke-linejoin="round" />
  <path d="M52.8594 310.34L72.1994 303.31" stroke="#263238" stroke-linecap="round" stroke-linejoin="round" />
  <path d="M52.8594 307.35L72.1994 300.32" stroke="#263238" stroke-linecap="round" stroke-linejoin="round" />
  <path d="M109.759 348.94L53.2188 370.24V318.32L109.759 297.01V348.94Z" stroke="#263238" stroke-linecap="round"
    stroke-linejoin="round" />
  <path opacity="0.15"
    d="M336.48 164.23L336.66 164.87L353.27 222.14L351 276.58L363.12 287L363.69 321.17L367.75 336.81L372.96 332.75L370.06 318.85L371.22 284.11L381.07 285.26L386.28 313.64L400.18 346.07L399 328.7L395.53 311.9L399.58 175.23L380.47 161.33C380.47 161.33 382.79 149.17 375.26 143.96C367.73 138.75 359.04 140.48 357.26 146.27C355.48 152.06 356.69 160.75 357.26 162.49C357.83 164.23 358.42 171.75 358.42 171.75L365.37 180.44L361.32 185.07L336.48 164.23Z"
    fill="black" />
  <path
    d="M389.911 278C389.911 278 389.161 291.89 391.981 300.52C394.801 309.15 397.611 330.52 397.611 330.52C397.611 330.52 397.981 340.65 397.981 343.47C397.981 346.29 403.051 350.78 404.171 349.09C405.231 347.617 405.936 345.919 406.229 344.128C406.523 342.338 406.396 340.503 405.861 338.77C404.361 333.71 402.481 329.2 402.481 328.64C402.481 328.08 404.361 304.06 404.171 299.18C403.981 294.3 403.231 289.8 403.231 287.55V275.77L389.911 278Z"
    fill="white" stroke="#263238" stroke-linecap="round" stroke-linejoin="round" />
  <path
    d="M405.861 338.81C405.271 336.81 404.621 334.9 404.041 333.28L404.171 338.81L399.111 339.57L397.791 335.88C397.881 338.79 397.981 342.08 397.981 343.51C397.981 346.32 403.051 350.82 404.171 349.13C405.232 347.658 405.936 345.959 406.23 344.169C406.523 342.378 406.397 340.543 405.861 338.81Z"
    fill="#29538E" stroke="#263238" stroke-linecap="round" stroke-linejoin="round" />
  <path
    d="M374 273.33C372.82 278.82 372.193 284.415 372.13 290.03C372.13 298.66 375.88 325.49 375.88 325.49C375.88 325.49 371 330.56 369.5 333C368 335.44 365.18 337.13 366.5 338.63C367.82 340.13 371.75 338.06 374 337.5C376.25 336.94 377.38 334.5 378.32 333.19C379.26 331.88 381.13 331.12 381.51 327.93C381.735 325.998 381.798 324.052 381.7 322.11C381.7 321.36 382.07 308.98 383.01 302.04C383.95 295.1 385.45 285.9 385.45 278.96C385.45 272.02 374 273.33 374 273.33Z"
    fill="white" stroke="#263238" stroke-linecap="round" stroke-linejoin="round" />
  <path
    d="M380.339 327C379.321 328.755 377.827 330.187 376.029 331.13L372.269 329.82H371.939C371.043 330.837 370.214 331.913 369.459 333.04C367.959 335.48 365.139 337.17 366.459 338.67C367.779 340.17 371.709 338.1 373.959 337.54C376.209 336.98 377.339 334.54 378.279 333.23C379.219 331.92 381.089 331.16 381.469 327.97C381.619 326.64 381.679 325.55 381.699 324.66C381.207 325.416 380.753 326.197 380.339 327Z"
    fill="#29538E" stroke="#263238" stroke-linecap="round" stroke-linejoin="round" />
  <path
    d="M371.001 220.44C371.001 220.44 366.501 230.39 366.501 236.77C366.501 243.15 365.371 267.68 365.371 267.68C368.564 273.233 373.614 277.482 379.631 279.68C389.951 283.62 409.281 276.11 409.281 276.11C409.281 276.11 410.031 241.99 409.281 235.8C408.531 229.61 407.001 222.69 407.001 222.69L372.471 216.31L371.001 220.44Z"
    fill="#263238" stroke="#263238" stroke-linecap="round" stroke-linejoin="round" />
  <path
    d="M371 220.44L371.55 220.89C375.887 224.245 380.619 227.056 385.64 229.26C394.27 233.01 406.64 230.95 406.64 230.95L409.27 206.18L417.9 176.54L389.54 169C389.54 169 380.91 186.08 379.78 191.33C378.65 196.58 378.09 203.53 377.9 205.03C377.71 206.53 371 220.44 371 220.44Z"
    fill="white" stroke="#263238" stroke-linecap="round" stroke-linejoin="round" />
  <path
    d="M340.37 165.09L334.51 163.42C334.51 163.42 330.96 159.66 330.51 158.19C330.06 156.72 327.79 155.68 329.05 155.48C329.569 155.374 330.106 155.395 330.616 155.539C331.126 155.683 331.593 155.948 331.98 156.31C332.6 156.94 332.81 157.78 333.44 158.19C334.07 158.6 335.11 157.98 334.9 157.36C334.69 156.74 332.39 152.97 331.98 152.13C331.57 151.29 329.26 149.41 329.26 148.37C329.26 147.33 330.51 148.37 331.35 148.78C332.19 149.19 335.74 153.59 336.78 154.01C338.278 154.727 339.574 155.806 340.55 157.15C341.348 158.46 341.98 159.864 342.43 161.33L340.37 165.09Z"
    fill="white" stroke="#263238" stroke-linecap="round" stroke-linejoin="round" />
  <path
    d="M397.61 167C397.61 167 380.15 165.31 378.84 166.06C377.53 166.81 362.33 178.63 362.33 178.63L342.44 160.63L338.5 164.38L360.83 193.46L375.09 189.34C375.09 189.34 375.65 198.53 376.03 201.53C376.41 204.53 373.59 209.41 371.34 214.29C369.09 219.17 362.7 229.86 362.7 229.86C362.7 229.86 364.21 233.43 365.7 234.37C367.19 235.31 370.2 237 370.2 237C370.2 237 376.58 217.29 377.89 212.41C379.2 207.53 380.52 204.53 380.71 202.47C380.9 200.41 390.84 178.26 390.84 178.26L397.61 167Z"
    fill="#29538E" stroke="#263238" stroke-linecap="round" stroke-linejoin="round" />
  <path d="M375.09 189.3L377.53 176.54" stroke="#808080" stroke-linecap="round" stroke-linejoin="round" />
  <path
    d="M392.061 166.48C389.173 169.638 386.687 173.141 384.661 176.91C381.471 183.29 379.591 203.37 379.781 205.24C379.781 205.49 379.831 205.75 379.841 205.99C380.251 204.835 380.546 203.643 380.721 202.43C380.911 200.37 390.851 178.22 390.851 178.22L397.611 167C397.611 167 395.171 166.73 392.061 166.48Z"
    fill="#29538E" stroke="#263238" stroke-linecap="round" stroke-linejoin="round" />
  <path d="M362.331 178.6L358.951 180.85" stroke="#808080" stroke-linecap="round" stroke-linejoin="round" />
  <path
    d="M393.291 159.46C393.291 159.46 395.001 164 395.001 165.84C395.001 167.68 390.121 179.16 390.121 179.16L402.121 184.42C402.121 184.42 408.121 170.34 408.311 168.66C408.501 166.98 406.811 161.9 407.941 155.15C409.071 148.4 409.811 147.45 407.561 147.08C405.311 146.71 396.111 148.2 394.431 150.64C393.602 151.935 393.07 153.397 392.873 154.922C392.676 156.447 392.819 157.996 393.291 159.46Z"
    fill="white" stroke="#263238" stroke-linecap="round" stroke-linejoin="round" />
  <path d="M398.911 159.51L394.491 163.62L393.791 161.04L398.911 159.51Z" fill="#263238" stroke="#263238"
    stroke-linecap="round" stroke-linejoin="round" />
  <path
    d="M408.49 168.09C408.49 168.09 400.23 186.29 396.85 193.99C393.47 201.69 391.6 205.99 391.6 207.87C391.6 209.75 389.35 242.58 389.35 242.58C391.2 244.391 393.451 245.741 395.92 246.52C399.856 247.6 404.018 247.537 407.92 246.34C411.11 245.4 415.42 240.71 415.42 240.71C415.42 240.71 410.92 211.25 410.92 210.71C410.92 210.17 415.61 196.63 416.55 194.94C417.49 193.25 424.8 179.18 425.18 177.87C425.56 176.56 408.49 168.09 408.49 168.09Z"
    fill="#29538E" stroke="#263238" stroke-linecap="round" stroke-linejoin="round" />
  <path
    d="M396.85 194C393.48 201.69 391.6 206 391.6 207.88C396.452 202.367 400.846 196.467 404.74 190.24C408.258 184.012 411.352 177.554 414 170.91C410.95 169.32 408.48 168.09 408.48 168.09C408.48 168.09 400.23 186.29 396.85 194Z"
    fill="#29538E" stroke="#263238" stroke-linecap="round" stroke-linejoin="round" />
  <path
    d="M364.21 206.18C364.21 206.18 363.83 202.99 363.83 201.68C363.881 200.758 364.137 199.86 364.58 199.05C364.838 202.055 365.666 204.984 367.02 207.68C369.08 211.25 370.21 213.31 370.21 213.31C370.21 213.31 364.77 208.81 364.21 206.18Z"
    fill="white" stroke="#263238" stroke-linecap="round" stroke-linejoin="round" />
  <path
    d="M379.401 218V213.69C379.401 213.69 373.781 212 371.151 210.87C368.521 209.74 364.211 206.18 364.211 206.18C364.211 206.18 367.021 212.94 368.151 214.44C369.281 215.94 370.021 219.13 370.961 220.44C371.875 222.118 372.628 223.879 373.211 225.7C374.06 226.666 375.005 227.544 376.031 228.32C377.935 229.824 380.097 230.969 382.411 231.7L379.221 221L379.401 218Z"
    fill="white" stroke="#263238" stroke-linecap="round" stroke-linejoin="round" />
  <path
    d="M388.6 219.69H384.47L379.4 218L379.22 221L371.71 220.62C371.71 220.62 370.02 220.43 371.9 221.75C373.184 222.628 374.376 223.633 375.46 224.75C376.21 225.5 377.15 227.19 379.03 227.19C380.91 227.19 385.97 224.75 387.1 224.75C388.23 224.75 390.85 223.06 390.85 223.06L388.6 219.69Z"
    fill="white" stroke="#263238" stroke-linecap="round" stroke-linejoin="round" />
  <path
    d="M410.79 194.76L413.92 214.52L387.66 219.13L389.16 225.13C389.16 225.13 425.16 225.58 426.34 225.39C427.52 225.2 424.81 182.73 424.81 182.73C424.81 182.73 425 177.47 424.81 176.54C424.62 175.61 418.06 173.72 418.06 173.72"
    fill="#29538E" />
  <path
    d="M410.79 194.76L413.92 214.52L387.66 219.13L389.16 225.13C389.16 225.13 425.16 225.58 426.34 225.39C427.52 225.2 424.81 182.73 424.81 182.73C424.81 182.73 425 177.47 424.81 176.54C424.62 175.61 418.06 173.72 418.06 173.72"
    stroke="#263238" stroke-linecap="round" stroke-linejoin="round" />
  <path
    d="M415.18 136.35C415.18 136.35 418.13 131.42 420.6 130.76C423.07 130.1 426.67 130.76 428.32 133.76C429.97 136.76 429.63 143.95 428.32 145.92C427.01 147.89 423.39 148.54 421.09 147.92C418.79 147.3 416.33 144.92 416 142.83C415.67 140.74 415.18 136.35 415.18 136.35Z"
    fill="#263238" stroke="#263238" stroke-linecap="round" stroke-linejoin="round" />
  <path
    d="M404.17 158.36C404.17 158.36 410.25 157.87 412.55 155.36C414.85 152.85 419.61 148.63 417.97 141.24C416.33 133.85 411.73 131.55 408.11 130.07C404.49 128.59 399.11 130.89 399.11 130.89C399.11 130.89 398.49 131.23 397.62 131.78C397.15 131.96 395.83 132.46 394.51 132.86C392.87 133.35 391.39 133.52 391.51 135.32C391.566 135.737 391.76 136.124 392.06 136.42C391.908 136.642 391.781 136.88 391.68 137.13C390.53 139.92 389.87 144.03 389.54 144.69C389.21 145.35 385.76 145.84 385.76 146.82C385.76 147.8 387.41 150.44 387.41 150.44C387.41 150.44 387.41 159.44 387.73 160.62C388.05 161.8 394.96 160.46 394.96 160.46L398.9 159.46L400.12 159.03"
    fill="white" />
  <path
    d="M404.17 158.36C404.17 158.36 410.25 157.87 412.55 155.36C414.85 152.85 419.61 148.63 417.97 141.24C416.33 133.85 411.73 131.55 408.11 130.07C404.49 128.59 399.11 130.89 399.11 130.89C399.11 130.89 398.49 131.23 397.62 131.78C397.15 131.96 395.83 132.46 394.51 132.86C392.87 133.35 391.39 133.52 391.51 135.32C391.566 135.737 391.76 136.124 392.06 136.42C391.908 136.642 391.781 136.88 391.68 137.13C390.53 139.92 389.87 144.03 389.54 144.69C389.21 145.35 385.76 145.84 385.76 146.82C385.76 147.8 387.41 150.44 387.41 150.44C387.41 150.44 387.41 159.44 387.73 160.62C388.05 161.8 394.96 160.46 394.96 160.46L398.9 159.46L400.12 159.03"
    stroke="#263238" stroke-linecap="round" stroke-linejoin="round" />
  <path
    d="M401.211 157.54C401.211 157.54 403.451 157.87 406.011 158.11C408.011 157.76 411.061 157 412.551 155.4C414.851 152.94 419.611 148.67 417.971 141.28C416.331 133.89 411.731 131.59 408.111 130.11C404.491 128.63 399.111 130.93 399.111 130.93C399.111 130.93 398.491 131.27 397.621 131.82C397.151 132 395.831 132.5 394.511 132.9C392.871 133.39 391.391 133.56 391.511 135.36C391.567 135.777 391.761 136.164 392.061 136.46C392.061 136.46 392.171 137.66 394.471 138.46C395.588 138.899 396.742 139.233 397.921 139.46C397.395 140.47 397.107 141.587 397.078 142.725C397.048 143.864 397.278 144.994 397.751 146.03C398.654 147.982 399.814 149.805 401.201 151.45C401.201 151.45 403.201 148.66 404.821 150.45C405.517 151.235 405.915 152.241 405.944 153.291C405.974 154.34 405.632 155.367 404.981 156.19C403.841 157.87 401.211 157.54 401.211 157.54Z"
    fill="#263238" stroke="#263238" stroke-linecap="round" stroke-linejoin="round" />
  <path
    d="M392.081 145.23C391.971 145.96 391.591 146.5 391.221 146.45C390.851 146.4 390.651 145.76 390.761 145.03C390.871 144.3 391.251 143.76 391.611 143.81C391.971 143.86 392.181 144.5 392.081 145.23Z"
    fill="#263238" />
  <path d="M391.41 141.75C391.41 141.75 392.89 141.35 393.3 143.64" stroke="#263238" stroke-linecap="round"
    stroke-linejoin="round" />
  <path opacity="0.15"
    d="M174 422.76L94.5397 424.26L94.9497 415.74C95.5397 412.74 96.2497 408.89 96.4897 406.49C96.9397 401.97 100.15 378.8 100.49 377.6C100.83 376.4 104.85 358.97 105.01 358.26L108.25 347.64C109.25 354.3 112.25 374.73 112.25 381.1C112.25 388.04 112.59 400.67 114.85 407.24C114.97 407.58 115.08 407.95 115.19 408.33L115.51 415.86L138.6 418.86L139.2 416.16L131.4 409.87L130.88 402.61C131.09 394.61 131.43 385.61 131.88 382.24C132.73 376.06 134.44 341.74 134.46 341.39C134.48 341.04 133.03 347.99 132.78 342.94C133.375 342.603 133.894 342.147 134.303 341.6C134.713 341.052 135.005 340.426 135.16 339.76C135.491 338.152 135.721 336.526 135.85 334.89C137.47 333.26 141.39 328.89 145.04 324.65C154.04 314.11 154.04 312.9 154.04 312.5C154.04 310.26 150.79 302.79 150.65 302.5L137.3 272.5C137.21 271.87 136.6 267.57 135.08 265.1C133.913 263.564 132.476 262.252 130.84 261.23C127.56 258.18 122.75 254.05 121.91 254.05C121.41 253.94 119.13 251.89 117.3 250.05C116.427 249.25 115.464 248.555 114.43 247.98L115.18 245.11C116.269 244.891 117.332 244.556 118.35 244.11C119.58 243.5 120.35 240.17 121.65 234.33L121.96 232.96C122.554 229.999 122.752 226.973 122.55 223.96C123.383 222.332 123.919 220.567 124.13 218.75C124.324 216.92 124.371 215.077 124.27 213.24C124.06 209.98 120.73 207.71 118.76 206.65C115.76 205.05 111.76 203.96 110.08 204.91C108.611 205.877 107.523 207.322 107 209H106.58C103.793 209.574 101.207 210.87 99.0797 212.76C98.6797 213.15 98.2497 213.53 97.8097 213.92C95.1397 216.27 91.8097 219.2 93.0697 228.19C93.5597 231.64 97.5597 239.71 98.7297 240.89C98.9097 241.06 99.0497 241.23 99.1997 241.4L98.7997 244.1C95.2597 243.81 92.2397 243.85 91.3797 244.71C90.7297 245.36 87.5197 246.56 85.5997 247.28C84.8497 247.56 84.2197 247.8 83.8597 247.95C83.4997 248.1 82.7597 248.31 81.8597 248.57C78.8597 249.41 74.3197 250.69 73.0497 252.44C71.7797 254.19 59.2897 277.12 54.7897 286.29C54.2803 287.162 53.8293 288.068 53.4397 289C53.2929 289.295 53.1853 289.607 53.1197 289.93C52.8153 290.734 52.7459 291.608 52.9197 292.45C53.6397 294.59 73.6297 313.61 75.1797 314.99C77.0997 316.7 79.8997 318.86 79.9297 318.88C80.0152 318.947 80.1212 318.982 80.2297 318.98H80.3497C80.3497 318.98 80.6997 318.88 81.1297 318.72L76.7497 334.05C76.7296 334.134 76.7309 334.223 76.7536 334.306C76.7763 334.39 76.8197 334.467 76.8797 334.53C78.3618 335.85 79.9772 337.013 81.6997 338C81.7997 345.17 83.6997 356.49 83.6997 358.11C83.6997 358.77 83.5097 361.73 83.2697 365.46C82.8197 372.67 82.1897 382.55 82.1897 386.89C82.1897 391.89 83.2397 406.97 83.9697 415.73L84.6397 427.85L175.91 427.57L174 422.76ZM133.93 309.17L135.17 310.78C134.84 311.41 134.34 312.37 133.74 313.54C133.8 312.56 133.87 311.05 133.93 309.17ZM71.9297 289.9C73.6897 287.9 75.2497 285.9 76.0397 284.8L82.9797 303.37C82.9797 303.68 83.1797 305.21 83.2697 307L71.9297 289.9Z"
    fill="black" />
  <path
    d="M174.319 197.72C174.758 201.385 174.627 205.096 173.929 208.72C172.749 214.03 171.769 218.95 170.589 219.54C169.512 219.993 168.388 220.328 167.239 220.54L166.239 224.27L151.289 221.91L152.289 215.22C152.289 215.22 164.679 195.56 174.319 197.72Z"
    fill="white" stroke="#263238" stroke-linecap="round" stroke-linejoin="round" />
  <path
    d="M158.999 185.36C158.999 185.36 154.509 186.23 151.749 188.99C148.989 191.75 144.449 193.79 145.879 203.99C146.359 207.41 150.369 215.38 151.409 216.41C152.449 217.44 152.609 218.31 155.889 219C159.169 219.69 164.699 219.87 165.559 219.35C166.419 218.83 167.779 215.98 170.029 213.05C172.279 210.12 173.369 204.52 173.369 202.62C173.374 202.084 173.523 201.559 173.799 201.1C175.035 199.113 175.826 196.882 176.119 194.56C176.315 192.76 176.362 190.947 176.259 189.14C175.919 183.62 165.259 179.82 162.799 181.2C161.288 182.149 160.18 183.624 159.689 185.34L158.999 185.36Z"
    fill="#263238" stroke="#263238" stroke-linecap="round" stroke-linejoin="round" />
  <path
    d="M171.29 214.92C171.29 214.92 169.95 216.43 169.45 214.59C169.218 213.027 169.335 211.433 169.79 209.92C169.79 209.92 169.79 207.92 170.79 208.08C171.79 208.24 171.62 212.25 171.62 212.25"
    fill="white" />
  <path
    d="M171.29 214.92C171.29 214.92 169.95 216.43 169.45 214.59C169.218 213.027 169.335 211.433 169.79 209.92C169.79 209.92 169.79 207.92 170.79 208.08C171.79 208.24 171.62 212.25 171.62 212.25"
    stroke="#263238" stroke-linecap="round" stroke-linejoin="round" />
  <path
    d="M108.1 261.37C108.1 261.37 105.1 266.31 105.74 268.24C106.38 270.17 125.92 288.86 127.85 290.58C129.78 292.3 132.58 294.44 132.58 294.44C132.58 294.44 136.01 293.58 136.66 291.01C137.022 289.593 137.309 288.158 137.52 286.71L122.7 264.38L117.12 261.16"
    fill="#29538E" />
  <path
    d="M108.1 261.37C108.1 261.37 105.1 266.31 105.74 268.24C106.38 270.17 125.92 288.86 127.85 290.58C129.78 292.3 132.58 294.44 132.58 294.44C132.58 294.44 136.01 293.58 136.66 291.01C137.022 289.593 137.309 288.158 137.52 286.71L122.7 264.38L117.12 261.16"
    stroke="#263238" stroke-linecap="round" stroke-linejoin="round" />
  <path
    d="M134.509 311.84C134.509 311.84 134.939 344.05 134.939 345.98C134.939 347.91 133.439 368.1 133.439 374.76C133.439 381.42 135.369 406.97 135.799 409.76C136.229 412.55 134.729 415.99 136.659 417.49C138.589 418.99 142.459 419.21 143.959 417.49C145.459 415.77 144.389 407.61 144.389 407.61C144.389 407.61 146.319 398.61 146.749 394.3C147.179 389.99 150.399 366.6 150.829 365.3C151.259 364 155.339 346 155.339 346L159.209 333.33C159.209 333.33 163.499 361.25 163.499 368.98C163.499 376.71 163.929 388.73 166.079 394.98C168.229 401.23 170.159 417.32 170.159 417.32C170.159 417.32 169.509 423.76 169.509 425.05C169.509 426.34 171.229 427.62 172.729 427.62H175.999C176.983 427.317 177.921 426.883 178.789 426.33L184.589 425.48C187.379 425.05 192.319 422.9 194.029 422.04C195.739 421.18 197.259 418.39 196.399 418.39C195.539 418.39 183.939 415.81 182.869 415.6L181.789 415.38C181.674 413.736 181.674 412.085 181.789 410.44C182.009 408.51 180.939 408.3 180.939 404.86C180.939 401.42 181.359 376.3 182.219 370.07C183.079 363.84 184.799 329.27 184.799 329.27C184.799 329.27 185.229 318.75 184.159 312.74C183.355 308.65 182.204 304.635 180.719 300.74C180.719 300.74 162.469 301.81 152.799 300.31C147.329 299.505 141.941 298.213 136.699 296.45C136.699 296.45 134.729 307.11 134.509 311.84Z"
    fill="#263238" stroke="#263238" stroke-linecap="round" stroke-linejoin="round" />
  <path
    d="M106 265.88C106 264.5 124.21 230.78 125.78 228.61C127.35 226.44 135.03 224.87 136.4 224.28C137.77 223.69 143.09 221.92 144.08 220.94C145.07 219.96 150.37 220.15 158.08 221.33C165.79 222.51 169.49 226.25 169.49 226.25C169.49 226.25 173.62 230.38 174.4 230.38C175.18 230.38 185.23 239.04 186.01 240.38C186.79 241.72 186.24 282.48 185.65 289.95C185.06 297.42 182.65 299.59 181.09 302.54C179.53 305.49 172.09 319.66 171.26 320.05C170.43 320.44 154.5 321.37 144.47 318.05C134.44 314.73 129.65 310.11 129.65 310.11C129.65 310.11 135.06 291.16 135.84 288.41C136.62 285.66 135.84 279.16 135.84 279.16L128.56 259.69C128.56 259.69 122.07 268.93 118.33 270.11"
    fill="#29538E" />
  <path
    d="M106 265.88C106 264.5 124.21 230.78 125.78 228.61C127.35 226.44 135.03 224.87 136.4 224.28C137.77 223.69 143.09 221.92 144.08 220.94C145.07 219.96 150.37 220.15 158.08 221.33C165.79 222.51 169.49 226.25 169.49 226.25C169.49 226.25 173.62 230.38 174.4 230.38C175.18 230.38 185.23 239.04 186.01 240.38C186.79 241.72 186.24 282.48 185.65 289.95C185.06 297.42 182.65 299.59 181.09 302.54C179.53 305.49 172.09 319.66 171.26 320.05C170.43 320.44 154.5 321.37 144.47 318.05C134.44 314.73 129.65 310.11 129.65 310.11C129.65 310.11 135.06 291.16 135.84 288.41C136.62 285.66 135.84 279.16 135.84 279.16L128.56 259.69C128.56 259.69 122.07 268.93 118.33 270.11"
    stroke="#263238" stroke-linecap="round" stroke-linejoin="round" />
  <path d="M158.619 283.71C159.399 284.86 160.199 285.96 161.009 287" stroke="#263238" stroke-linecap="round"
    stroke-linejoin="round" />
  <path d="M145.15 257.36C148.406 265.564 152.329 273.487 156.88 281.05" stroke="#263238" stroke-linecap="round"
    stroke-linejoin="round" />
  <path d="M146 244.78C146 244.78 148.4 256.78 151.09 264.24" stroke="#263238" stroke-linecap="round"
    stroke-linejoin="round" />
  <path d="M124.78 242.64C124.59 241.4 124.44 240.25 124.35 239.24L124.78 242.64Z" fill="white" />
  <path d="M124.78 242.64C124.59 241.4 124.44 240.25 124.35 239.24" stroke="#263238" stroke-linecap="round"
    stroke-linejoin="round" />
  <path d="M128.48 259.7C128.48 259.7 126.75 253.03 125.48 246.7L128.48 259.7Z" fill="white" />
  <path d="M128.48 259.7C128.48 259.7 126.75 253.03 125.48 246.7" stroke="#263238" stroke-linecap="round"
    stroke-linejoin="round" />
  <path
    d="M179.829 305C179.829 305 175.899 310.9 175.899 311.68C175.899 312.46 175.109 314.68 175.499 315.23C175.889 315.78 182.589 319.36 183.369 319.16C184.258 318.972 185.078 318.542 185.738 317.917C186.398 317.292 186.872 316.497 187.109 315.62C187.518 313.541 187.782 311.436 187.899 309.32L179.829 305Z"
    fill="white" stroke="#263238" stroke-linecap="round" stroke-linejoin="round" />
  <path
    d="M175.9 311.63C175.9 311.63 180.62 315.37 181.41 315.18C182.2 314.99 180 312 180 312C180 312 181.18 313 180.79 310.42"
    fill="white" />
  <path
    d="M175.9 311.63C175.9 311.63 180.62 315.37 181.41 315.18C182.2 314.99 180 312 180 312C180 312 181.18 313 180.79 310.42"
    stroke="#263238" stroke-linecap="round" stroke-linejoin="round" />
  <path d="M181.6 314L185.54 316.16" stroke="#263238" stroke-linecap="round" stroke-linejoin="round" />
  <path
    d="M173.59 267.84L188.1 286.65C188.1 286.65 178.46 304.95 179.1 307.31C179.74 309.67 186.18 311.83 187.36 311.04C188.54 310.25 206 290.58 206 288.42C206 286.26 202.65 278.58 202.65 278.58L189.28 248.48C189.28 248.48 188.69 243.76 187.11 241.2C185.53 238.64 179.83 235.5 179.83 235.5"
    fill="#29538E" />
  <path
    d="M173.59 267.84L188.1 286.65C188.1 286.65 178.46 304.95 179.1 307.31C179.74 309.67 186.18 311.83 187.36 311.04C188.54 310.25 206 290.58 206 288.42C206 286.26 202.65 278.58 202.65 278.58L189.28 248.48C189.28 248.48 188.69 243.76 187.11 241.2C185.53 238.64 179.83 235.5 179.83 235.5"
    stroke="#263238" stroke-linecap="round" stroke-linejoin="round" />
  <path d="M188.1 286.65L191.55 291.79" stroke="#263238" stroke-linecap="round" stroke-linejoin="round" />
  <path d="M176 255.26C176 255.26 180.5 247.78 186.78 247.48" stroke="#263238" stroke-linecap="round"
    stroke-linejoin="round" />
  <path
    d="M181.999 300C181.999 300 172.549 312.24 171.689 313.1C170.829 313.96 167.609 319.75 167.609 319.75L174.269 322.54C174.269 322.54 177.239 309.47 181.999 300Z"
    fill="#8A8A8A" stroke="#263238" stroke-linecap="round" stroke-linejoin="round" />
  <path d="M141.811 222.5C141.811 222.5 158.561 222.07 170.591 228.09L141.811 222.5Z" fill="#29538E" />
  <path d="M141.811 222.5C141.811 222.5 158.561 222.07 170.591 228.09" stroke="#263238" stroke-linecap="round"
    stroke-linejoin="round" />
  <path
    d="M281.271 365.43C281.271 365.43 279.011 371.63 274.271 372.48C269.531 373.33 261.001 364 266.331 359.23C271.661 354.46 279.001 362.05 281.271 365.43Z"
    fill="#263238" stroke="#263238" stroke-linecap="round" stroke-linejoin="round" />
  <path
    d="M288.591 335C288.591 335 281.591 352.19 284.371 360.64C287.151 369.09 304.661 375.3 309.731 364.31C314.801 353.32 303.531 337.82 299.301 334.44C295.071 331.06 290.001 332.18 288.591 335Z"
    fill="#263238" stroke="#263238" stroke-linecap="round" stroke-linejoin="round" />
  <path
    d="M329.74 342.33C329.74 342.33 317.62 353.33 316.21 364.33C314.8 375.33 322.97 379.26 331.43 377.85C339.89 376.44 344.11 355.03 341.57 345.16C339.03 335.29 329.74 342.33 329.74 342.33Z"
    fill="#263238" stroke="#263238" stroke-linecap="round" stroke-linejoin="round" />
  <path
    d="M332 403.19C332 403.19 318.48 403.76 317.91 410.24C317.34 416.72 323.83 418.13 330.31 412.49C336.79 406.85 337.63 403.48 332 403.19Z"
    fill="#263238" stroke="#263238" stroke-linecap="round" stroke-linejoin="round" />
  <path
    d="M298.461 416.72C298.461 416.72 297.051 423.48 291.981 426.02C286.911 428.56 277.891 423.2 282.681 415.02C287.471 406.84 295.921 413.34 298.461 416.72Z"
    fill="#263238" stroke="#263238" stroke-linecap="round" stroke-linejoin="round" />
  <path
    d="M286.621 395.59C286.621 395.59 284.091 389.95 274.221 393.59C264.351 397.23 260.421 402.89 266.611 404.87C272.801 406.85 286.621 395.59 286.621 395.59Z"
    fill="#263238" stroke="#263238" stroke-linecap="round" stroke-linejoin="round" />
  <path
    d="M314.801 328C314.801 328 316.491 331.95 319.871 331.1C323.251 330.25 324.101 325.19 329.461 326.6C334.821 328.01 339.321 334.2 339.321 331.39C339.321 328.58 332.561 321.24 324.951 321.24C317.341 321.24 315.081 324.29 314.801 328Z"
    fill="#263238" stroke="#263238" stroke-linecap="round" stroke-linejoin="round" />
  <path d="M314.351 460.86L294.111 468.3L291.531 442.68L316.941 433.27L314.351 460.86Z" fill="white" stroke="#263238"
    stroke-linecap="round" stroke-linejoin="round" />
  <path d="M316.941 433.27L327.911 441.23L302.501 450.63L291.531 442.68L316.941 433.27Z" fill="white" stroke="#263238"
    stroke-linecap="round" stroke-linejoin="round" />
  <path d="M316.28 434.92L324.68 441.02L303.81 448.77L295.4 442.67L316.28 434.92Z" fill="#263238" stroke="#263238"
    stroke-linecap="round" stroke-linejoin="round" />
  <path d="M300.861 370.52C300.861 370.52 306.761 387.78 308.021 402.52C309.281 417.26 308.021 440.84 308.021 440.84"
    stroke="#263238" stroke-linecap="round" stroke-linejoin="round" />
  <path d="M321.491 376.41C321.491 376.41 314.761 396.2 313.071 408.84C311.381 421.48 310.971 440.84 310.971 440.84"
    stroke="#263238" stroke-linecap="round" stroke-linejoin="round" />
  <path d="M318.13 411.78C318.13 411.78 315.18 412.63 313.49 441.26" stroke="#263238" stroke-linecap="round"
    stroke-linejoin="round" />
  <path d="M298.461 416.72C298.461 416.72 301.281 414.31 302.971 419.78C304.661 425.25 303.811 440.42 303.811 440.42"
    stroke="#263238" stroke-linecap="round" stroke-linejoin="round" />
  <path d="M305.74 414C307.95 426.34 305.91 440 305.91 440" stroke="#263238" stroke-linecap="round"
    stroke-linejoin="round" />
  <path d="M286.621 395.59C286.621 395.59 298.761 393.26 303.811 406.73C304.311 408.079 304.735 409.455 305.081 410.85"
    stroke="#263238" stroke-linecap="round" stroke-linejoin="round" />
  <path
    d="M337.262 382.53C337.262 382.53 339.802 376.9 349.662 380.53C359.522 384.16 363.472 389.83 357.272 391.8C351.072 393.77 337.262 382.53 337.262 382.53Z"
    fill="#263238" stroke="#263238" stroke-linecap="round" stroke-linejoin="round" />
  <path d="M326.48 385C323.487 387.148 321.247 390.185 320.08 393.68C315.02 407.15 315.6 440.42 315.6 440.42"
    stroke="#263238" stroke-linecap="round" stroke-linejoin="round" />
  <path d="M337.261 382.53C334.409 382.132 331.502 382.53 328.861 383.68" stroke="#263238" stroke-linecap="round"
    stroke-linejoin="round" />
  <path d="M294.561 374C297.724 377.821 300.145 382.2 301.701 386.91C308.441 406.28 310.971 431.12 309.701 440.39"
    stroke="#263238" stroke-linecap="round" stroke-linejoin="round" />
  <path d="M281.271 365.43C281.271 365.43 287.141 366.35 293.091 372.43" stroke="#263238" stroke-linecap="round"
    stroke-linejoin="round" />
  <path d="M311.671 392.16C311.261 416.6 310.971 440.84 310.971 440.84" stroke="#263238" stroke-linecap="round"
    stroke-linejoin="round" />
  <path d="M314.801 328C314.801 328 313.491 326.78 312.651 348.67C312.321 357.18 312.001 373 311.721 389.17"
    stroke="#263238" stroke-linecap="round" stroke-linejoin="round" />
  <path d="M325.32 468.82L305.08 476.26L302.5 450.63L327.91 441.23L325.32 468.82Z" fill="white" stroke="#263238"
    stroke-linecap="round" stroke-linejoin="round" />
  <path d="M302.501 450.63L291.531 442.68L294.111 468.3L305.081 476.26L302.501 450.63Z" fill="white" stroke="#263238"
    stroke-linecap="round" stroke-linejoin="round" />
</svg>