<svg width="500" height="500" viewBox="0 0 500 500" fill="none" xmlns="http://www.w3.org/2000/svg">
  <path
    d="M35.5093 215.39C35.5093 215.39 27.2193 295.39 86.3093 361.73C145.399 428.07 236.789 450.28 310.509 470.24C384.229 490.2 447.129 459.53 464.449 397.54C481.769 335.55 427.449 305.44 406.529 226.72C385.609 148 391.589 124.71 332.409 67C273.229 9.29004 167.409 16.19 103.409 81.87C39.4093 147.55 35.5093 215.39 35.5093 215.39Z"
    fill="#29538E" />
  <path opacity="0.7"
    d="M35.5093 215.39C35.5093 215.39 27.2193 295.39 86.3093 361.73C145.399 428.07 236.789 450.28 310.509 470.24C384.229 490.2 447.129 459.53 464.449 397.54C481.769 335.55 427.449 305.44 406.529 226.72C385.609 148 391.589 124.71 332.409 67C273.229 9.29004 167.409 16.19 103.409 81.87C39.4093 147.55 35.5093 215.39 35.5093 215.39Z"
    fill="white" />
  <path d="M126.721 74.9199L252.521 280.44L405.381 135.63" stroke="#263238" stroke-linecap="round"
    stroke-linejoin="round" />
  <path d="M60.5801 289.79L252.52 280.44L112.83 221.2" stroke="#263238" stroke-linecap="round"
    stroke-linejoin="round" />
  <path d="M283.33 50.5801L254.77 285.28L429.95 320.04" stroke="#263238" stroke-linecap="round"
    stroke-linejoin="round" />
  <path d="M115.75 426.71L252.52 280.44L394.4 387.95" stroke="#263238" stroke-linecap="round" stroke-linejoin="round" />
  <path
    d="M56.3102 263.8C51.4843 263.8 46.7668 265.231 42.7543 267.912C38.7417 270.593 35.6143 274.404 33.7675 278.862C31.9207 283.321 31.4375 288.227 32.379 292.96C33.3205 297.693 35.6444 302.041 39.0568 305.453C42.4692 308.866 46.8168 311.19 51.55 312.131C56.2831 313.072 61.1891 312.589 65.6476 310.742C70.1062 308.896 73.9169 305.768 76.598 301.756C79.2791 297.743 80.7102 293.026 80.7102 288.2C80.7022 281.731 78.129 275.529 73.5548 270.955C68.9806 266.381 62.779 263.808 56.3102 263.8Z"
    fill="#263238" />
  <path fill-rule="evenodd" clip-rule="evenodd"
    d="M71.2503 287.57C71.0015 284.059 69.4391 280.77 66.8743 278.359C64.3096 275.948 60.9307 274.592 57.4107 274.56C53.8908 274.529 50.4881 275.824 47.8806 278.189C45.273 280.554 43.652 283.814 43.3403 287.32C43.3403 287.52 43.3403 287.72 43.3403 287.93C43.3379 290.455 44.0298 292.932 45.3403 295.09L42.8203 302.52L50.5603 300.06C52.6808 301.218 55.0649 301.808 57.4807 301.772C59.8966 301.736 62.2619 301.075 64.3468 299.854C66.4316 298.633 68.1649 296.893 69.3782 294.803C70.5914 292.714 71.2433 290.346 71.2703 287.93C71.2603 287.81 71.2603 287.69 71.2503 287.57ZM57.2503 299.57C54.9546 299.572 52.7086 298.901 50.7903 297.64L46.2803 299.08L47.7503 294.75C46.293 292.771 45.508 290.378 45.5103 287.92C45.5101 287.543 45.5301 287.165 45.5703 286.79C45.8236 283.84 47.1809 281.095 49.3709 279.103C51.5609 277.111 54.4222 276.019 57.3826 276.046C60.3429 276.072 63.1841 277.215 65.3381 279.246C67.4921 281.277 68.8 284.046 69.0003 287C69.0003 287.3 69.0003 287.6 69.0003 287.91C68.9871 291.008 67.7479 293.975 65.5535 296.161C63.3592 298.348 60.3883 299.577 57.2903 299.58L57.2503 299.57Z"
    fill="white" />
  <path fill-rule="evenodd" clip-rule="evenodd"
    d="M63.7006 290.72C63.3506 290.55 61.7006 289.72 61.3506 289.62C61.0006 289.52 60.8106 289.45 60.5806 289.79C60.3506 290.13 59.6906 290.89 59.5006 291.12C59.3106 291.35 59.1006 291.37 58.7506 291.2C57.7413 290.803 56.8103 290.231 56.0006 289.51C55.2519 288.831 54.6112 288.042 54.1006 287.17C53.9006 286.83 54.1006 286.64 54.2506 286.47C54.4006 286.3 54.5906 286.08 54.7606 285.88L54.8906 285.72C54.9706 285.588 55.0408 285.451 55.1006 285.31C55.1505 285.219 55.1767 285.118 55.1767 285.015C55.1767 284.912 55.1505 284.81 55.1006 284.72C55.0106 284.55 54.3306 282.87 54.0406 282.19C53.7506 281.51 53.4706 281.63 53.2706 281.63C53.0706 281.63 52.8406 281.63 52.6106 281.63C52.4381 281.633 52.268 281.671 52.1113 281.744C51.9546 281.816 51.8147 281.92 51.7006 282.05C51.3133 282.413 51.0063 282.853 50.7996 283.343C50.593 283.832 50.4911 284.359 50.5006 284.89C50.5059 285.283 50.5665 285.673 50.6806 286.05C50.9474 286.898 51.3603 287.693 51.9006 288.4C52.0706 288.62 54.2706 292.17 57.7506 293.53C61.2306 294.89 61.2306 294.44 61.8606 294.38C62.3383 294.288 62.7912 294.097 63.1893 293.817C63.5875 293.538 63.922 293.178 64.1706 292.76C64.3886 292.253 64.4579 291.695 64.3706 291.15C64.2606 291 64.0006 290.89 63.7006 290.72Z"
    fill="white" />
  <path
    d="M121 46.6398C114.613 46.7691 108.531 49.3971 104.06 53.9599C99.5884 58.5226 97.084 64.6564 97.084 71.0448C97.084 77.4331 99.5884 83.5669 104.06 88.1297C108.531 92.6924 114.613 95.3205 121 95.4498C124.246 95.5155 127.473 94.9328 130.492 93.7359C133.51 92.5389 136.26 90.7518 138.579 88.479C140.898 86.2063 142.741 83.4937 143.998 80.5001C145.256 77.5064 145.904 74.2919 145.904 71.0448C145.904 67.7976 145.256 64.5831 143.998 61.5895C142.741 58.5958 140.898 55.8832 138.579 53.6105C136.26 51.3378 133.51 49.5506 130.492 48.3537C127.473 47.1567 124.246 46.574 121 46.6398Z"
    fill="#263238" />
  <path
    d="M136.48 63.2197C136.304 62.5293 135.948 61.8984 135.447 61.3921C134.946 60.8858 134.319 60.5225 133.63 60.3397C131.1 59.6597 120.99 59.6597 120.99 59.6597C120.99 59.6597 110.88 59.6597 108.36 60.3397C107.673 60.5266 107.046 60.8911 106.544 61.3966C106.042 61.9022 105.682 62.5309 105.5 63.2197C104.607 68.4015 104.607 73.6979 105.5 78.8797C105.684 79.5675 106.045 80.1953 106.547 80.7005C107.048 81.2058 107.673 81.5709 108.36 81.7597C110.88 82.4397 120.99 82.4397 120.99 82.4397C120.99 82.4397 131.1 82.4397 133.63 81.7597C134.316 81.5712 134.94 81.206 135.44 80.7006C135.94 80.1952 136.299 79.5672 136.48 78.8797C137.387 73.699 137.387 68.4003 136.48 63.2197Z"
    fill="white" />
  <path d="M117.689 75.8597V66.2397L126.139 71.0498L117.689 75.8597Z" fill="#263238" />
  <path
    d="M117.529 396C111.2 396 105.013 397.877 99.7511 401.393C94.4887 404.909 90.3872 409.907 87.9652 415.754C85.5432 421.601 84.9095 428.035 86.1442 434.243C87.3789 440.45 90.4266 446.152 94.9019 450.627C99.3772 455.103 105.079 458.15 111.286 459.385C117.494 460.62 123.928 459.986 129.775 457.564C135.622 455.142 140.62 451.041 144.136 445.778C147.653 440.516 149.529 434.329 149.529 428C149.529 419.513 146.158 411.374 140.157 405.373C134.156 399.371 126.016 396 117.529 396Z"
    fill="#263238" />
  <path
    d="M112.14 448.52H120.42V427.79H126.19L126.81 420.85H120.42V416.85C120.42 415.21 120.74 414.57 122.33 414.57H126.81V407.36H121.08C114.92 407.36 112.14 410.08 112.14 415.27V420.8H107.83V427.8H112.14V448.52Z"
    fill="white" />
  <path
    d="M395.26 364.11C390.431 364.108 385.71 365.538 381.695 368.22C377.679 370.901 374.549 374.713 372.7 379.174C370.851 383.635 370.367 388.544 371.308 393.28C372.25 398.016 374.575 402.366 377.989 405.78C381.404 409.195 385.754 411.52 390.49 412.461C395.226 413.403 400.135 412.919 404.596 411.07C409.057 409.221 412.869 406.091 415.55 402.075C418.232 398.059 419.662 393.339 419.66 388.51C419.652 382.041 417.079 375.839 412.505 371.265C407.93 366.691 401.729 364.118 395.26 364.11Z"
    fill="#263238" />
  <path
    d="M395.26 376.86C399.06 376.86 399.51 376.86 401.01 376.94C401.911 376.952 402.804 377.118 403.65 377.43C404.263 377.662 404.819 378.023 405.28 378.49C405.753 378.949 406.116 379.51 406.34 380.13C406.658 380.974 406.824 381.868 406.83 382.77C406.9 384.27 406.92 384.77 406.92 388.51C406.92 392.25 406.92 392.76 406.83 394.26C406.824 395.162 406.658 396.056 406.34 396.9C406.118 397.518 405.755 398.076 405.28 398.53C404.822 399.003 404.266 399.368 403.65 399.6C402.804 399.912 401.911 400.078 401.01 400.09C399.51 400.16 399.06 400.17 395.26 400.17C391.46 400.17 391.01 400.17 389.51 400.09C388.609 400.076 387.716 399.911 386.87 399.6C386.254 399.368 385.697 399.003 385.24 398.53C384.765 398.076 384.402 397.518 384.18 396.9C383.862 396.056 383.696 395.162 383.69 394.26C383.62 392.76 383.6 392.31 383.6 388.51C383.6 384.71 383.6 384.27 383.69 382.77C383.696 381.868 383.862 380.974 384.18 380.13C384.404 379.51 384.767 378.949 385.24 378.49C385.7 378.023 386.256 377.662 386.87 377.43C387.716 377.119 388.609 376.953 389.51 376.94C391.01 376.87 391.46 376.86 395.26 376.86ZM395.26 374.3C391.4 374.3 390.91 374.3 389.4 374.38C388.24 374.396 387.091 374.606 386 375C385.055 375.365 384.196 375.923 383.48 376.64C382.763 377.356 382.205 378.215 381.84 379.16C381.428 380.265 381.205 381.431 381.18 382.61C381.11 384.13 381.09 384.61 381.09 388.47C381.09 392.33 381.09 392.82 381.18 394.34C381.205 395.519 381.428 396.685 381.84 397.79C382.199 398.744 382.755 399.613 383.471 400.338C384.188 401.063 385.05 401.63 386 402C387.104 402.413 388.271 402.636 389.45 402.66C390.96 402.73 391.45 402.74 395.31 402.74C399.17 402.74 399.66 402.74 401.17 402.66C402.349 402.636 403.515 402.413 404.62 402C405.565 401.635 406.424 401.077 407.14 400.36C407.857 399.644 408.415 398.785 408.78 397.84C409.191 396.735 409.414 395.569 409.44 394.39C409.51 392.87 409.53 392.39 409.53 388.52C409.53 384.65 409.53 384.18 409.44 382.66C409.414 381.481 409.191 380.315 408.78 379.21C408.415 378.265 407.857 377.406 407.14 376.69C406.424 375.973 405.565 375.415 404.62 375.05C403.515 374.636 402.349 374.413 401.17 374.39C399.66 374.32 399.17 374.31 395.31 374.31"
    fill="white" />
  <path
    d="M395.259 381.21C393.813 381.208 392.398 381.635 391.194 382.438C389.991 383.24 389.052 384.382 388.498 385.718C387.943 387.054 387.798 388.525 388.079 389.944C388.361 391.363 389.058 392.666 390.081 393.689C391.103 394.712 392.407 395.408 393.826 395.69C395.245 395.972 396.715 395.826 398.051 395.272C399.388 394.717 400.529 393.779 401.332 392.575C402.134 391.371 402.561 389.957 402.559 388.51C402.559 386.574 401.79 384.717 400.421 383.348C399.052 381.979 397.196 381.21 395.259 381.21ZM395.259 393.21C394.322 393.21 393.406 392.932 392.626 392.411C391.847 391.89 391.239 391.15 390.88 390.284C390.521 389.418 390.428 388.465 390.611 387.545C390.793 386.626 391.245 385.781 391.908 385.118C392.571 384.455 393.415 384.004 394.335 383.821C395.254 383.638 396.207 383.732 397.073 384.091C397.939 384.45 398.68 385.057 399.201 385.837C399.721 386.616 399.999 387.532 399.999 388.47C399.999 389.727 399.5 390.933 398.611 391.822C397.722 392.711 396.517 393.21 395.259 393.21Z"
    fill="white" />
  <path
    d="M404.561 380.92C404.563 381.258 404.464 381.59 404.277 381.872C404.091 382.155 403.824 382.376 403.512 382.507C403.2 382.638 402.856 382.673 402.523 382.608C402.191 382.543 401.885 382.381 401.645 382.142C401.405 381.904 401.241 381.599 401.174 381.267C401.107 380.935 401.141 380.591 401.27 380.278C401.399 379.965 401.618 379.697 401.9 379.509C402.181 379.32 402.512 379.22 402.851 379.22C403.302 379.22 403.736 379.399 404.056 379.717C404.377 380.036 404.558 380.468 404.561 380.92Z"
    fill="white" />
  <path
    d="M404.18 169.64C394.367 169.64 384.956 165.741 378.017 158.803C371.078 151.864 367.18 142.453 367.18 132.64C367.18 122.827 371.078 113.416 378.017 106.477C384.956 99.5379 394.367 95.6396 404.18 95.6396C413.993 95.6396 423.404 99.5379 430.343 106.477C437.281 113.416 441.18 122.827 441.18 132.64C441.18 142.453 437.281 151.864 430.343 158.803C423.404 165.741 413.993 169.64 404.18 169.64Z"
    fill="#263238" stroke="#263238" stroke-linecap="round" stroke-linejoin="round" />
  <path
    d="M384.48 145.05C388.177 147.423 392.478 148.683 396.87 148.68C411.87 148.68 420.36 136 419.87 124.63C421.437 123.48 422.791 122.066 423.87 120.45C422.396 121.103 420.832 121.531 419.23 121.72C420.916 120.709 422.178 119.121 422.78 117.25C421.197 118.203 419.462 118.88 417.65 119.25C416.433 117.951 414.82 117.091 413.064 116.801C411.307 116.512 409.504 116.81 407.934 117.65C406.364 118.49 405.115 119.824 404.38 121.445C403.646 123.067 403.466 124.886 403.87 126.62C400.657 126.461 397.512 125.628 394.642 124.174C391.771 122.72 389.239 120.677 387.21 118.18C386.177 119.959 385.86 122.065 386.324 124.07C386.789 126.074 388 127.827 389.71 128.97C388.429 128.931 387.174 128.588 386.05 127.97C386.036 129.848 386.674 131.672 387.856 133.132C389.038 134.591 390.69 135.594 392.53 135.97C391.344 136.295 390.097 136.339 388.89 136.1C389.404 137.708 390.409 139.115 391.763 140.123C393.117 141.131 394.753 141.689 396.44 141.72C393.049 144.364 388.75 145.561 384.48 145.05Z"
    fill="white" />
  <path
    d="M114.151 200.73C110.34 200.73 106.614 201.86 103.445 203.978C100.276 206.095 97.8062 209.105 96.3477 212.626C94.8892 216.147 94.5076 220.021 95.2511 223.759C95.9947 227.497 97.83 230.931 100.525 233.626C103.22 236.321 106.653 238.156 110.391 238.9C114.129 239.643 118.004 239.262 121.525 237.803C125.046 236.345 128.056 233.875 130.173 230.706C132.291 227.537 133.421 223.811 133.421 220C133.416 214.891 131.384 209.993 127.771 206.38C124.158 202.767 119.26 200.735 114.151 200.73Z"
    fill="#808080" />
  <path d="M108.531 214.95H104.291V228.64H108.531V214.95Z" fill="white" />
  <path
    d="M106.391 213.16C106.892 213.164 107.383 213.019 107.802 212.743C108.221 212.468 108.548 212.074 108.743 211.612C108.937 211.15 108.99 210.641 108.895 210.149C108.799 209.657 108.56 209.204 108.207 208.848C107.854 208.492 107.403 208.249 106.912 208.15C106.421 208.051 105.911 208.1 105.447 208.291C104.984 208.482 104.588 208.806 104.309 209.222C104.03 209.639 103.881 210.129 103.881 210.63C103.88 210.961 103.943 211.289 104.069 211.595C104.194 211.901 104.379 212.18 104.612 212.415C104.845 212.65 105.122 212.837 105.427 212.964C105.733 213.092 106.06 213.159 106.391 213.16Z"
    fill="white" />
  <path
    d="M115.311 221.46C115.311 219.53 116.191 218.39 117.891 218.39C119.591 218.39 120.191 219.49 120.191 221.46V228.64H124.411V220C124.411 216.34 122.331 214.56 119.411 214.56C118.586 214.549 117.773 214.753 117.051 215.151C116.328 215.548 115.722 216.127 115.291 216.83V215H111.221V228.69H115.291L115.311 221.46Z"
    fill="white" />
  <path
    d="M428.939 337.34C426.313 337.34 423.712 336.823 421.286 335.817C418.859 334.812 416.654 333.339 414.797 331.482C412.94 329.625 411.467 327.42 410.462 324.994C409.457 322.567 408.939 319.966 408.939 317.34C408.939 312.036 411.047 306.948 414.797 303.198C418.548 299.447 423.635 297.34 428.939 297.34C434.244 297.34 439.331 299.447 443.082 303.198C446.832 306.948 448.939 312.036 448.939 317.34C448.939 319.966 448.422 322.567 447.417 324.994C446.412 327.42 444.939 329.625 443.082 331.482C441.224 333.339 439.02 334.812 436.593 335.817C434.167 336.823 431.566 337.34 428.939 337.34Z"
    fill="#808080" />
  <path
    d="M426.001 324.92C426.578 324.811 427.122 324.572 427.591 324.22C427.993 323.917 428.332 323.541 428.591 323.11C429.013 322.443 429.232 321.668 429.221 320.88C429.24 320.154 429.049 319.439 428.671 318.82C428.285 318.237 427.715 317.8 427.051 317.58C427.457 317.391 427.821 317.122 428.121 316.79C428.576 316.198 428.806 315.465 428.771 314.72C428.789 313.955 428.561 313.205 428.121 312.58C427.679 312.059 427.119 311.652 426.487 311.393C425.856 311.134 425.171 311.03 424.491 311.09H417.711V325.09H424.001C424.672 325.104 425.342 325.047 426.001 324.92ZM420.501 313.52H423.551C424.113 313.503 424.673 313.577 425.211 313.74C425.458 313.846 425.664 314.028 425.8 314.261C425.935 314.493 425.991 314.763 425.961 315.03C425.986 315.269 425.946 315.51 425.846 315.728C425.745 315.946 425.588 316.133 425.391 316.27C424.938 316.516 424.426 316.634 423.911 316.61H420.501V313.52ZM420.501 322.68V318.94H423.951C424.428 318.919 424.905 318.998 425.351 319.17C425.639 319.297 425.88 319.511 426.041 319.781C426.203 320.052 426.276 320.366 426.251 320.68C426.288 321.031 426.22 321.385 426.054 321.697C425.888 322.009 425.633 322.264 425.321 322.43C424.871 322.615 424.387 322.7 423.901 322.68H420.501Z"
    fill="white" />
  <path
    d="M431.53 324.19C432.56 325.029 433.852 325.479 435.18 325.46C435.902 325.506 436.626 325.395 437.301 325.134C437.976 324.874 438.587 324.47 439.09 323.95C439.618 323.452 439.97 322.796 440.09 322.08H437.32C437.186 322.351 436.999 322.592 436.77 322.79C436.34 323.124 435.805 323.294 435.26 323.27C434.733 323.284 434.213 323.149 433.76 322.88C433.407 322.638 433.122 322.31 432.933 321.926C432.744 321.543 432.657 321.117 432.68 320.69H440.23C440.258 320.002 440.231 319.313 440.15 318.63C440.035 317.861 439.752 317.127 439.32 316.48C438.88 315.811 438.259 315.281 437.53 314.95C436.76 314.618 435.929 314.451 435.09 314.46C434.406 314.433 433.724 314.547 433.086 314.795C432.448 315.043 431.867 315.419 431.38 315.9C430.892 316.459 430.518 317.109 430.281 317.812C430.045 318.516 429.949 319.259 430 320C429.914 320.769 430.007 321.548 430.272 322.275C430.538 323.002 430.968 323.658 431.53 324.19ZM433.47 317.29C433.685 317.086 433.94 316.928 434.219 316.826C434.497 316.725 434.794 316.682 435.09 316.7C435.677 316.684 436.25 316.883 436.7 317.26C436.925 317.47 437.105 317.724 437.229 318.006C437.353 318.288 437.418 318.592 437.42 318.9H432.75C432.811 318.3 433.063 317.735 433.47 317.29Z"
    fill="white" />
  <path d="M437.959 311.89H431.859V313.31H437.959V311.89Z" fill="white" />
  <path
    d="M283 71C277.696 71 272.609 68.8929 268.858 65.1421C265.107 61.3914 263 56.3043 263 51C263 45.6957 265.107 40.6086 268.858 36.8579C272.609 33.1071 277.696 31 283 31C288.304 31 293.391 33.1071 297.142 36.8579C300.893 40.6086 303 45.6957 303 51C303 56.3043 300.893 61.3914 297.142 65.1421C293.391 68.8929 288.304 71 283 71Z"
    fill="#808080" />
  <path
    d="M329.711 85.5898H169.661C161.641 85.5898 155.141 92.0907 155.141 100.11V440.07C155.141 448.089 161.641 454.59 169.661 454.59H329.711C337.73 454.59 344.231 448.089 344.231 440.07V100.11C344.231 92.0907 337.73 85.5898 329.711 85.5898Z"
    fill="#263238" />
  <path opacity="0.2"
    d="M171.431 85.5898C167.11 85.5898 162.967 87.3061 159.912 90.3611C156.857 93.416 155.141 97.5595 155.141 101.88V438.29C155.138 440.674 155.66 443.03 156.669 445.19C157.678 447.35 159.15 449.262 160.981 450.79L271.301 85.5898H171.431Z"
    fill="white" />
  <path
    d="M256.1 443.91C256.1 442.638 255.723 441.394 255.016 440.337C254.309 439.279 253.304 438.455 252.129 437.968C250.953 437.482 249.66 437.355 248.412 437.604C247.165 437.853 246.019 438.467 245.12 439.367C244.221 440.267 243.61 441.414 243.363 442.662C243.116 443.91 243.244 445.203 243.733 446.378C244.221 447.552 245.046 448.556 246.105 449.261C247.164 449.967 248.408 450.342 249.68 450.34C250.524 450.34 251.36 450.174 252.139 449.85C252.919 449.527 253.627 449.053 254.223 448.456C254.82 447.859 255.292 447.15 255.614 446.37C255.936 445.59 256.102 444.754 256.1 443.91V443.91Z"
    stroke="white" stroke-linecap="round" stroke-linejoin="round" />
  <path
    d="M329.711 85.5898H169.661C161.641 85.5898 155.141 92.0907 155.141 100.11V440.07C155.141 448.089 161.641 454.59 169.661 454.59H329.711C337.73 454.59 344.231 448.089 344.231 440.07V100.11C344.231 92.0907 337.73 85.5898 329.711 85.5898Z"
    stroke="#263238" stroke-linecap="round" stroke-linejoin="round" />
  <path d="M335.811 110.65H163.541V432.69H335.811V110.65Z" fill="#29538E" stroke="#263238" stroke-linecap="round"
    stroke-linejoin="round" />
  <path
    d="M246.97 367.51C290.595 367.51 325.96 332.145 325.96 288.52C325.96 244.895 290.595 209.53 246.97 209.53C203.346 209.53 167.98 244.895 167.98 288.52C167.98 332.145 203.346 367.51 246.97 367.51Z"
    fill="#263238" />
  <path d="M330.55 149.3H169.5V185.97H330.55V149.3Z" fill="white" />
  <path d="M330.55 390.07H169.5V426.74H330.55V390.07Z" fill="white" />
  <path d="M330.55 377.32H169.5V378.91H330.55V377.32Z" fill="white" />
  <path d="M330.55 384.49H169.5V386.08H330.55V384.49Z" fill="white" />
  <path d="M329.95 113.99H315.67V121.82H329.95V113.99Z" stroke="#263238" stroke-width="0.821067" stroke-linecap="round"
    stroke-linejoin="round" />
  <path d="M326.81 113.99H315.67V121.82H326.81V113.99Z" fill="#263238" stroke="#263238" stroke-width="0.725073"
    stroke-linecap="round" stroke-linejoin="round" />
  <path d="M331.93 116.18H329.92V119.63H331.93V116.18Z" fill="#263238" stroke="#263238" stroke-width="0.725073"
    stroke-linecap="round" stroke-linejoin="round" />
  <path d="M170.04 116.42H167.42V120.91H170.04V116.42Z" fill="#263238" stroke="#263238" stroke-width="0.883086"
    stroke-linecap="round" stroke-linejoin="round" />
  <path d="M174.161 114.84H171.541V120.91H174.161V114.84Z" fill="#263238" stroke="#263238" stroke-width="0.883086"
    stroke-linecap="round" stroke-linejoin="round" />
  <path d="M178.27 112.98H175.65V120.91H178.27V112.98Z" fill="#263238" stroke="#263238" stroke-width="0.883086"
    stroke-linecap="round" stroke-linejoin="round" />
  <path d="M331.74 126.17H166.32V138.61H331.74V126.17Z" fill="#263238" />
  <path
    d="M164 363C164 363 185.08 289.6 189.06 273.91C193.04 258.22 199.06 248.01 211.48 245.52C223.9 243.03 246.83 240.72 246.83 240.72C246.83 240.72 266.76 238.72 281.2 239.72C295.64 240.72 308.85 248.44 315.82 253.72C322.79 259 342.97 277.13 342.97 277.13L340.48 235.29L358.66 236.78C358.66 236.78 371.86 295.06 373.6 305.78C375.34 316.5 375.35 321.23 373.6 322.47C371.85 323.71 374.85 324.47 358.91 319.23C342.97 313.99 324.29 306.78 314.08 303.79C303.87 300.8 302.62 300.3 302.62 300.3C302.62 300.3 277.62 337.92 269.67 349.13C264.213 357.089 259.36 365.446 255.15 374.13"
    fill="white" />
  <path opacity="0.2"
    d="M373.569 322.39C375.319 321.15 375.319 316.39 373.569 305.7C372.569 299.31 367.419 276 363.459 258.22C365.029 279.22 365.639 299.74 362.459 303.57C355.459 311.85 345.229 300.97 345.229 300.97L343.279 284.83C343.279 284.83 308.419 259.12 295.339 254.76C282.259 250.4 268.339 249.53 254.809 253.89C241.279 258.25 229.969 262.61 221.689 270.89C213.409 279.17 184.689 345.41 184.689 345.41L181.439 365.08L255.119 374C259.329 365.316 264.183 356.959 269.639 349C277.639 337.79 302.589 300.17 302.589 300.17C302.589 300.17 303.839 300.67 314.049 303.66C324.259 306.65 342.939 313.87 358.879 319.1C374.819 324.33 371.829 323.64 373.569 322.39Z"
    fill="black" />
  <path
    d="M164 363C164 363 185.08 289.6 189.06 273.91C193.04 258.22 199.06 248.01 211.48 245.52C223.9 243.03 246.83 240.72 246.83 240.72C246.83 240.72 266.76 238.72 281.2 239.72C295.64 240.72 308.85 248.44 315.82 253.72C322.79 259 342.97 277.13 342.97 277.13L340.48 235.29L358.66 236.78C358.66 236.78 371.86 295.06 373.6 305.78C375.34 316.5 375.35 321.23 373.6 322.47C371.85 323.71 374.85 324.47 358.91 319.23C342.97 313.99 324.29 306.78 314.08 303.79C303.87 300.8 302.62 300.3 302.62 300.3C302.62 300.3 277.62 337.92 269.67 349.13C264.213 357.089 259.36 365.446 255.15 374.13"
    stroke="#263238" stroke-linecap="round" stroke-linejoin="round" />
  <path d="M309.7 288.67L302.59 300.23L323.63 288.67" stroke="#263238" stroke-linecap="round" stroke-linejoin="round" />
  <path d="M342.939 277.06C342.939 277.06 343.939 297.73 345.179 300.97C346.419 304.21 351.909 305.7 351.909 305.7"
    fill="white" />
  <path d="M342.939 277.06C342.939 277.06 343.939 297.73 345.179 300.97C346.419 304.21 351.909 305.7 351.909 305.7"
    stroke="#263238" stroke-linecap="round" stroke-linejoin="round" />
  <path
    d="M233.19 276.43C233.19 276.43 230.47 282.88 231.83 282.88C233.19 282.88 242.02 279.49 246.1 279.49C250.18 279.49 254.59 286.62 254.59 286.62C254.59 286.62 266.48 277.79 270.22 278.81C272.052 279.423 273.732 280.419 275.15 281.73C275.386 281.936 275.676 282.071 275.986 282.119C276.296 282.167 276.613 282.127 276.9 282.002C277.188 281.878 277.435 281.674 277.612 281.416C277.788 281.157 277.888 280.853 277.9 280.54C277.97 278.71 278.03 276.21 278.03 273.03C278.03 265.56 271.58 245.18 259.69 244.16C247.8 243.14 245.76 251.63 240.69 261.82C235.62 272.01 233.19 276.43 233.19 276.43Z"
    fill="#263238" />
  <path
    d="M258.76 232.48C258.76 232.48 247.3 234 242.07 239C236.84 244 238.58 251.95 235.84 259.17C233.1 266.39 228.37 281.09 230.84 280.84C233.31 280.59 242.05 273.62 244.54 275.36C247.03 277.1 252.76 284.36 253.76 284.82C254.76 285.28 267.46 276.11 269.2 275.11C270.94 274.11 279.41 285.11 279.66 282.11C279.91 279.11 280.41 261.44 278.66 250.73C276.91 240.02 264.49 232.73 258.76 232.48Z"
    fill="white" stroke="#263238" stroke-linecap="round" stroke-linejoin="round" />
  <path
    d="M262.74 218.53C262.74 218.53 258.51 231.48 255 236C251.49 240.52 250 241.23 248.78 251.69C247.56 262.15 253.01 285.81 254.78 285.31C256.55 284.81 273.71 257.42 279.44 252.93C285.17 248.44 291.15 243.72 291.15 243.72C291.15 243.72 277.2 239.48 272.47 233.51C268.895 228.739 265.645 223.735 262.74 218.53Z"
    fill="white" />
  <path opacity="0.2"
    d="M281.91 251C286.76 247.19 291.14 243.73 291.14 243.73C291.14 243.73 277.19 239.49 272.46 233.52C268.89 228.759 265.643 223.764 262.74 218.57C261.289 222.954 259.597 227.253 257.67 231.45C259.78 237.36 265.66 247 281.91 251Z"
    fill="black" />
  <path
    d="M272.459 233.48C268.889 228.719 265.642 223.724 262.739 218.53C262.739 218.53 261.319 222.88 259.449 227.41C260.999 231.9 264.109 238.58 269.679 242.52C274.183 245.525 279.179 247.718 284.439 249L291.139 243.72C291.139 243.72 277.189 239.45 272.459 233.48Z"
    fill="#263238" />
  <path
    d="M262.74 218.53C262.74 218.53 258.51 231.48 255 236C251.49 240.52 250 241.23 248.78 251.69C247.56 262.15 253.01 285.81 254.78 285.31C256.55 284.81 273.71 257.42 279.44 252.93C285.17 248.44 291.15 243.72 291.15 243.72C291.15 243.72 277.2 239.48 272.47 233.51C268.895 228.739 265.645 223.735 262.74 218.53V218.53Z"
    stroke="#263238" stroke-linecap="round" stroke-linejoin="round" />
  <path
    d="M315.79 185.41C315.79 185.41 315.05 202.1 315.54 207.57C316.03 213.04 318.03 222.57 313.54 231.48C309.05 240.39 305.32 246.18 301.09 247.67C296.86 249.16 283.16 246.18 272.2 237.96C261.24 229.74 259.25 212.81 257.5 207.33C255.75 201.85 257.75 183.17 268.96 177.19C278.036 172.518 288.567 171.536 298.35 174.45C304.34 176.44 315.79 185.41 315.79 185.41Z"
    fill="white" />
  <path opacity="0.2"
    d="M269.001 177.19C267.402 178.056 265.954 179.173 264.711 180.5L270.481 184.6C270.481 184.6 277.891 177.19 294.481 187.65C303.041 193.05 310.421 193.92 315.571 193.49C315.691 189.05 315.851 185.41 315.851 185.41C315.851 185.41 304.401 176.41 298.421 174.41C288.623 171.5 278.08 172.497 269.001 177.19Z"
    fill="black" />
  <path
    d="M315.79 185.41C315.79 185.41 315.05 202.1 315.54 207.57C316.03 213.04 318.03 222.57 313.54 231.48C309.05 240.39 305.32 246.18 301.09 247.67C296.86 249.16 283.16 246.18 272.2 237.96C261.24 229.74 259.25 212.81 257.5 207.33C255.75 201.85 257.75 183.17 268.96 177.19C278.036 172.518 288.567 171.536 298.35 174.45C304.34 176.44 315.79 185.41 315.79 185.41Z"
    stroke="#263238" stroke-linecap="round" stroke-linejoin="round" />
  <path
    d="M292.269 207.92C292.269 209.69 291.579 211.13 290.729 211.13C289.879 211.13 289.189 209.69 289.189 207.92C289.189 206.15 289.879 204.7 290.729 204.7C291.579 204.7 292.269 206.14 292.269 207.92Z"
    fill="#263238" />
  <path
    d="M310.461 209.59C310.461 211.37 309.771 212.81 308.921 212.81C308.071 212.81 307.381 211.37 307.381 209.59C307.381 207.81 308.071 206.38 308.921 206.38C309.771 206.38 310.461 207.82 310.461 209.59Z"
    fill="#263238" />
  <path
    d="M305.579 204.84C305.579 204.84 300.849 209.57 302.089 211.56C303.329 213.55 306.229 214.67 305.329 217.56C304.429 220.45 297.859 221.56 295.619 217.56"
    stroke="#263238" stroke-linecap="round" stroke-linejoin="round" />
  <path
    d="M281.421 220.28C283.278 222.533 285.594 224.365 288.215 225.653C290.836 226.942 293.702 227.656 296.621 227.75C296.621 227.75 286.401 234.47 281.921 233.75C277.441 233.03 281.421 220.28 281.421 220.28Z"
    fill="#263238" stroke="#263238" stroke-linecap="round" stroke-linejoin="round" />
  <path d="M283.811 198.42C283.811 198.42 288.151 192.42 296.811 196.15" stroke="#263238" stroke-linecap="round"
    stroke-linejoin="round" />
  <path d="M307.32 198.61C307.32 198.61 312.8 197.35 314.79 202.61" stroke="#263238" stroke-linecap="round"
    stroke-linejoin="round" />
  <path
    d="M259.259 214.05C259.259 214.05 261.499 204.34 266.979 200.85C272.459 197.36 277.689 198.11 274.449 193.38C271.209 188.65 269.449 183.91 276.449 181.67C283.449 179.43 297.119 183.17 305.089 186.16C313.059 189.15 328.499 190.16 332.489 178.93C334.949 172.01 327.749 166.5 322.489 163.67C316.659 160.55 310.119 159 303.539 160.16C299.539 160.85 295.729 162.42 291.729 162.82C284.959 163.51 278.989 160.37 272.239 162C266.574 163.352 261.502 166.511 257.789 171C251.539 178.68 249.789 192.63 259.259 214.05Z"
    fill="#263238" />
  <path
    d="M316.93 159.69C316.93 159.69 329.87 166.69 320.81 178.32C311.75 189.95 303.22 181.95 281.73 177.81C260.24 173.67 247.57 184.28 247.57 184.28"
    stroke="#808080" stroke-linecap="round" stroke-linejoin="round" />
  <path d="M249.381 197C249.381 197 253.521 189 266.981 186.65C280.441 184.3 281.221 186.39 281.221 186.39"
    stroke="#808080" stroke-linecap="round" stroke-linejoin="round" />
  <path
    d="M259.259 214.05C259.259 214.05 261.499 204.34 266.979 200.85C272.459 197.36 277.689 198.11 274.449 193.38C271.209 188.65 269.449 183.91 276.449 181.67C283.449 179.43 297.119 183.17 305.089 186.16C313.059 189.15 328.499 190.16 332.489 178.93C334.949 172.01 327.749 166.5 322.489 163.67C316.659 160.55 310.119 159 303.539 160.16C299.539 160.85 295.729 162.42 291.729 162.82C284.959 163.51 278.989 160.37 272.239 162C266.574 163.352 261.502 166.511 257.789 171C251.539 178.68 249.789 192.63 259.259 214.05Z"
    stroke="#263238" stroke-linecap="round" stroke-linejoin="round" />
  <path d="M264.89 210.51C264.89 210.51 258.43 195.72 252.74 203.42C247.05 211.12 257.36 220.86 265.1 218.97"
    fill="white" />
  <path d="M264.89 210.51C264.89 210.51 258.43 195.72 252.74 203.42C247.05 211.12 257.36 220.86 265.1 218.97"
    stroke="#263238" stroke-linecap="round" stroke-linejoin="round" />
  <path
    d="M335.22 208.82C335.22 208.82 330.99 208.32 330.22 211.82C329.45 215.32 328.72 220.82 330.22 220.82C331.72 220.82 334.45 220.08 335.45 217.82C336.45 215.56 337.45 208.6 337.45 208.6L335.22 208.82Z"
    fill="white" stroke="#263238" stroke-linecap="round" stroke-linejoin="round" />
  <path
    d="M341.94 207.57C341.94 207.57 335.94 206.57 335.22 208.82C334.5 211.07 333.48 218.82 334.22 219.03C334.96 219.24 339.45 217.29 339.45 217.29L341.94 207.57Z"
    fill="white" stroke="#263238" stroke-linecap="round" stroke-linejoin="round" />
  <path
    d="M349.909 208.07C349.909 208.07 342.909 203.59 341.199 205.83C339.489 208.07 339.449 217.29 339.449 217.29C340.068 217.427 340.712 217.407 341.321 217.232C341.93 217.058 342.487 216.734 342.939 216.29C344.189 214.8 345.679 212.81 345.679 212.81C345.679 212.81 350.679 214.05 351.409 213.81C352.139 213.57 353.899 213.81 353.409 211.32C352.919 208.83 349.909 208.07 349.909 208.07Z"
    fill="white" stroke="#263238" stroke-linecap="round" stroke-linejoin="round" />
  <path
    d="M359.381 212.56C356.238 210.387 353.673 207.48 351.911 204.09C349.421 198.86 348.171 199.09 346.911 201.35C345.651 203.61 347.151 205.83 348.151 207.82C349.151 209.81 353.381 214.55 353.381 214.55L359.381 212.56Z"
    fill="white" stroke="#263238" stroke-linecap="round" stroke-linejoin="round" />
  <path
    d="M314.58 247.4C314.58 247.4 310.97 278.23 311.53 279.9C312.09 281.57 318.19 283.51 319.58 282.4C320.97 281.29 320.14 279.07 319.58 277.68C319.02 276.29 324.3 250.46 324.3 250.46L314.58 247.4Z"
    fill="#29538E" stroke="#263238" stroke-linecap="round" stroke-linejoin="round" />
  <path
    d="M223.63 258.08L241.91 315.17C241.91 315.17 283.91 290.71 293.75 277.95C303.59 265.19 309.27 250.8 312.75 249.45C316.23 248.1 328.51 251.45 330.31 253.45C332.11 255.45 331.69 257.64 329.51 259.7C327.33 261.76 326.09 262.05 326.09 262.05C326.09 262.05 325.98 266.54 325 267.32C324.02 268.1 324.25 267.09 324 268.09C323.83 269.159 323.438 270.181 322.85 271.09C322.13 272.09 321.85 272.61 321.16 272.88C319.727 273.49 318.236 273.952 316.71 274.26C314.022 274.953 311.289 275.454 308.53 275.76C306.8 276.06 295.53 298.33 284.95 311.6C274.37 324.87 240.95 355.3 235.7 355.46C230.45 355.62 199.61 304.68 193 292.17"
    fill="white" />
  <path opacity="0.2"
    d="M322.849 271.07C323.438 270.161 323.829 269.139 323.999 268.07C324.219 267.07 323.999 268.07 324.999 267.3C325.999 266.53 326.089 262.03 326.089 262.03C326.089 262.03 327.329 261.74 329.509 259.68C331.689 257.62 332.119 255.37 330.309 253.43C328.499 251.49 316.199 248.13 312.749 249.43C311.849 249.78 310.749 251.03 309.549 252.91C311.379 255.91 313.549 257.74 311.549 262.98C308.549 270.98 301.549 280.98 295.549 289.48C289.549 297.98 239.549 344.98 233.549 343.98C228.649 343.16 214.419 325.98 209.359 319.75C220.199 337.14 232.599 355.51 235.749 355.42C240.979 355.26 274.439 324.84 284.999 311.56C295.559 298.28 306.799 276 308.529 275.74C311.288 275.434 314.022 274.933 316.709 274.24C318.236 273.932 319.727 273.47 321.159 272.86C321.899 272.59 322.129 272.09 322.849 271.07Z"
    fill="black" />
  <path
    d="M223.63 258.08L241.91 315.17C241.91 315.17 283.91 290.71 293.75 277.95C303.59 265.19 309.27 250.8 312.75 249.45C316.23 248.1 328.51 251.45 330.31 253.45C332.11 255.45 331.69 257.64 329.51 259.7C327.33 261.76 326.09 262.05 326.09 262.05C326.09 262.05 325.98 266.54 325 267.32C324.02 268.1 324.25 267.09 324 268.09C323.83 269.159 323.438 270.181 322.85 271.09C322.13 272.09 321.85 272.61 321.16 272.88C319.727 273.49 318.236 273.952 316.71 274.26C314.022 274.953 311.289 275.454 308.53 275.76C306.8 276.06 295.53 298.33 284.95 311.6C274.37 324.87 240.95 355.3 235.7 355.46C230.45 355.62 199.61 304.68 193 292.17"
    stroke="#263238" stroke-linecap="round" stroke-linejoin="round" />
  <path d="M241.911 315.17C241.911 315.17 237.121 315.37 233.061 328.17" stroke="#263238" stroke-linecap="round"
    stroke-linejoin="round" />
  <path
    d="M316.71 274.24C318.236 273.932 319.727 273.47 321.16 272.86C321.9 272.59 322.16 272.09 322.85 271.07C323.438 270.161 323.83 269.139 324 268.07C324.22 267.07 324.87 266.73 325.84 265.95C326.81 265.17 326.06 262.03 326.06 262.03C326.06 262.03 327.3 261.74 329.48 259.68C331.66 257.62 332.09 255.37 330.28 253.43C328.47 251.49 316.17 248.13 312.72 249.43C309.27 250.73 304.05 264 295 276.33L303.42 283.23C306.06 278.83 307.94 275.85 308.56 275.74C311.309 275.433 314.032 274.932 316.71 274.24Z"
    fill="white" />
  <path opacity="0.2"
    d="M322.849 271.07C323.438 270.161 323.829 269.139 323.999 268.07C324.219 267.07 323.999 268.07 324.999 267.3C325.999 266.53 326.089 262.03 326.089 262.03C326.089 262.03 327.329 261.74 329.509 259.68C331.689 257.62 332.119 255.37 330.309 253.43C328.499 251.49 316.199 248.13 312.749 249.43C311.849 249.78 310.749 251.03 309.549 252.91C311.379 255.91 313.549 257.74 311.549 262.98C308.549 270.98 301.549 280.98 295.549 289.48C289.549 297.98 239.549 344.98 233.549 343.98C228.649 343.16 214.419 325.98 209.359 319.75C220.199 337.14 232.599 355.51 235.749 355.42C240.979 355.26 274.439 324.84 284.999 311.56C295.559 298.28 306.799 276 308.529 275.74C311.288 275.434 314.022 274.933 316.709 274.24C318.236 273.932 319.727 273.47 321.159 272.86C321.899 272.59 322.129 272.09 322.849 271.07Z"
    fill="black" />
  <path
    d="M316.71 274.24C318.236 273.932 319.727 273.47 321.16 272.86C321.9 272.59 322.16 272.09 322.85 271.07C323.438 270.161 323.83 269.139 324 268.07C324.22 267.07 324.87 266.73 325.84 265.95C326.81 265.17 326.06 262.03 326.06 262.03C326.06 262.03 327.3 261.74 329.48 259.68C331.66 257.62 332.09 255.37 330.28 253.43C328.47 251.49 316.17 248.13 312.72 249.43C309.27 250.73 304.05 264 295 276.33L303.42 283.23C306.06 278.83 307.94 275.85 308.56 275.74C311.309 275.433 314.032 274.932 316.71 274.24Z"
    stroke="#263238" stroke-linecap="round" stroke-linejoin="round" />
  <path
    d="M305.83 227.25C303.08 227.25 300.83 231.25 300.83 236.09C300.83 240.93 303.06 244.93 305.83 244.93L366.83 263.36V208.07L305.83 227.25Z"
    fill="#29538E" stroke="#263238" stroke-linecap="round" stroke-linejoin="round" />
  <path d="M340.15 219.89L316.35 226.74" stroke="#263238" stroke-linecap="round" stroke-linejoin="round" />
  <path d="M348.111 217.6L343.131 219.04" stroke="#263238" stroke-linecap="round" stroke-linejoin="round" />
  <path
    d="M313.64 224.79L305.83 227.25C303.08 227.25 300.83 231.25 300.83 236.09C300.83 240.93 303.06 244.93 305.83 244.93L312.88 247.06C311.223 243.556 310.427 239.707 310.559 235.833C310.692 231.959 311.748 228.173 313.64 224.79Z"
    fill="#263238" stroke="#263238" stroke-linecap="round" stroke-linejoin="round" />
  <path
    d="M372.08 273.22C383.634 273.22 393 256.596 393 236.09C393 215.584 383.634 198.96 372.08 198.96C360.526 198.96 351.16 215.584 351.16 236.09C351.16 256.596 360.526 273.22 372.08 273.22Z"
    fill="#D6D6D6" stroke="#263238" stroke-linecap="round" stroke-linejoin="round" />
  <path d="M372.08 227.85L352.15 222.52L350.41 236.72L352.65 251.16L372.08 244.33L372.83 228.25" fill="#D6D6D6" />
  <path d="M372.08 227.85L352.15 222.52L350.41 236.72L352.65 251.16L372.08 244.33L372.83 228.25" stroke="#263238"
    stroke-linecap="round" stroke-linejoin="round" />
  <path
    d="M372.079 195.62C359.489 195.62 349.279 213.74 349.279 236.09C349.279 258.44 359.489 276.56 372.079 276.56C384.669 276.56 394.879 258.44 394.879 236.09C394.879 213.74 384.669 195.62 372.079 195.62ZM372.639 270.82C362.149 270.82 353.639 255.27 353.639 236.09C353.639 216.91 362.149 201.37 372.639 201.37C383.129 201.37 391.639 216.91 391.639 236.09C391.639 255.27 383.139 270.82 372.639 270.82Z"
    fill="#263238" stroke="#263238" stroke-linecap="round" stroke-linejoin="round" />
  <path
    d="M372.079 244.33C374.642 244.33 376.719 240.641 376.719 236.09C376.719 231.539 374.642 227.85 372.079 227.85C369.517 227.85 367.439 231.539 367.439 236.09C367.439 240.641 369.517 244.33 372.079 244.33Z"
    fill="#29538E" stroke="#263238" stroke-linecap="round" stroke-linejoin="round" />
  <path d="M430.881 194.11L435.511 192.67" stroke="#263238" stroke-linecap="round" stroke-linejoin="round" />
  <path d="M397.73 204.37L425.17 195.87" stroke="#263238" stroke-linecap="round" stroke-linejoin="round" />
  <path d="M401.33 234.05L426.51 234.95" stroke="#263238" stroke-linecap="round" stroke-linejoin="round" />
  <path d="M422.189 271.04L427.409 272.72" stroke="#263238" stroke-linecap="round" stroke-linejoin="round" />
  <path d="M399.529 263.73L418.049 269.71" stroke="#263238" stroke-linecap="round" stroke-linejoin="round" />
  <path d="M400.43 217.86L413.92 216.06" stroke="#263238" stroke-linecap="round" stroke-linejoin="round" />
  <path d="M394.131 273.62L404.031 281.72" stroke="#263238" stroke-linecap="round" stroke-linejoin="round" />
  <path
    d="M294.828 51.3926C294.828 58.3018 290.097 63.2188 283.109 63.2188C276.41 63.2188 271 57.8086 271 51.1094C271 44.4102 276.41 39 283.109 39C286.371 39 289.115 40.1963 291.229 42.1689L287.934 45.3379C283.622 41.1777 275.604 44.3027 275.604 51.1094C275.604 55.333 278.979 58.7559 283.109 58.7559C287.904 58.7559 289.701 55.3184 289.984 53.5361H283.109V49.3711H294.638C294.75 49.9912 294.828 50.5869 294.828 51.3926Z"
    fill="white" />
</svg>