<svg width="22" height="22" viewBox="0 0 22 22" fill="none" xmlns="http://www.w3.org/2000/svg">
  <path fill-rule="evenodd" clip-rule="evenodd"
    d="M8.28727 10.1219C8.91991 11.5137 9.80561 12.3994 11.1974 13.0321C11.3872 13.1586 11.6403 13.0321 11.7668 12.8423L11.9566 12.3994C12.0831 12.2096 12.2729 12.0831 12.526 12.1464L14.9933 12.779C15.1831 12.8423 15.3096 13.0321 15.3096 13.2219V14.8667C15.3096 15.1198 15.1198 15.3096 14.8667 15.3096H13.728C9.42603 15.3096 6.00977 11.8933 6.00977 7.59137V6.45261C6.00977 6.19956 6.19956 6.00977 6.45261 6.00977H8.03422C8.28727 6.00977 8.47707 6.13629 8.54033 6.32609L9.17297 8.79339C9.17297 9.04644 9.10971 9.23623 8.91991 9.36276L8.47707 9.55255C8.22401 9.67908 8.16074 9.93214 8.28727 10.1219Z"
    fill="#EFEFEF" />
  <path
    d="M10.6572 1.12699e-08C8.54953 -9.68995e-05 6.48913 0.624815 4.73658 1.79571C2.98404 2.96661 1.61806 4.6309 0.811388 6.57813C0.00471485 8.52536 -0.206422 10.6681 0.204676 12.7353C0.615775 14.8025 1.63064 16.7014 3.12095 18.1919C4.61125 19.6823 6.51006 20.6973 8.57724 21.1086C10.6444 21.5199 12.7872 21.309 14.7345 20.5025C16.6818 19.696 18.3462 18.3301 19.5172 16.5777C20.6883 14.8253 21.3134 12.7649 21.3135 10.6572C21.3136 9.25776 21.038 7.87199 20.5025 6.57903C19.967 5.28607 19.1821 4.11124 18.1925 3.12163C17.203 2.13201 16.0283 1.34699 14.7354 0.81138C13.4424 0.27577 12.0567 6.30443e-05 10.6572 1.12699e-08ZM10.6572 20.6006C8.69062 20.6006 6.76818 20.0174 5.133 18.9248C3.49782 17.8322 2.22336 16.2793 1.47077 14.4624C0.718179 12.6455 0.521267 10.6462 0.904934 8.71738C1.2886 6.78855 2.23561 5.01682 3.62622 3.62621C5.01682 2.23561 6.78856 1.2886 8.71738 0.904929C10.6462 0.521262 12.6455 0.718174 14.4624 1.47076C16.2793 2.22335 17.8322 3.49782 18.9248 5.133C20.0174 6.76817 20.6006 8.69062 20.6006 10.6572C20.6006 11.963 20.3434 13.256 19.8437 14.4624C19.344 15.6688 18.6116 16.7649 17.6883 17.6882C16.7649 18.6116 15.6688 19.344 14.4624 19.8437C13.256 20.3434 11.963 20.6006 10.6572 20.6006V20.6006Z"
    fill="#EFEFEF" />
</svg>