<svg width="224" height="224" viewBox="0 0 224 224" fill="none" xmlns="http://www.w3.org/2000/svg">
<g clip-path="url(#clip0)">
<path d="M156.687 214.935C160.077 219.049 166.686 217.61 168.084 212.489L223.768 8.3129M156.687 214.935L9.08809 67.3357C4.99089 63.9599 6.40271 57.3388 11.5342 55.9392L215.71 0.25501M156.687 214.935L104.335 151.389L156.687 214.935ZM223.768 8.3129C223.779 8.26993 223.789 8.22657 223.799 8.18321C223.804 8.16167 223.808 8.14014 223.814 8.11865C224.965 3.30833 220.622 -0.93018 215.894 0.21126M223.768 8.3129L223.285 8.18161M223.768 8.3129L223.285 8.18134L223.285 8.18161M215.894 0.21126C215.871 0.216891 215.847 0.222145 215.824 0.227403C215.786 0.236036 215.748 0.244678 215.71 0.25501M215.894 0.21126L216.012 0.697136C216.012 0.697191 216.011 0.697245 216.011 0.697299M215.894 0.21126L216.011 0.697299M215.71 0.25501L215.841 0.737392L215.841 0.737515C215.872 0.729013 215.892 0.724514 215.92 0.718504C215.942 0.713522 215.969 0.707501 216.011 0.697299M215.71 0.25501L215.841 0.737558L11.6657 56.4216C6.92627 57.7143 5.62128 63.8315 9.40603 66.9498L72.9521 119.302L73.2171 119.52L73.1086 119.846L61.4085 154.946C59.8332 159.673 64.3437 164.192 69.0772 162.615L104.177 150.914L104.503 150.806L104.721 151.071L157.073 214.617C160.204 218.417 166.31 217.089 167.601 212.357L223.285 8.18161M223.285 8.18161C223.294 8.14852 223.3 8.12244 223.308 8.08768C223.313 8.06487 223.319 8.03833 223.327 8.00364L223.327 8.00221C224.391 3.55992 220.381 -0.35766 216.011 0.697299M27.0861 64.7839L26.1543 65.0381L26.8998 65.6522L80.0049 109.403L80.3199 109.662L80.6372 109.406L189.308 21.5345L188.862 20.6633L27.0861 64.7839ZM102.796 138.593L102.935 138.547L103.027 138.433L173.73 50.9953L173.027 50.2921L85.5892 120.996L85.4755 121.088L85.4293 121.226L77.0616 146.329L76.7454 147.277L77.6941 146.961L102.796 138.593ZM158.37 197.122L158.984 197.868L159.238 196.936L203.359 35.16L202.488 34.7141L114.616 143.385L114.359 143.702L114.619 144.017L158.37 197.122Z" stroke="white"/>
<path d="M20.124 203.928L20.1241 203.928C22.4929 206.295 22.4945 210.133 20.1281 212.502L20.4818 212.855L20.1281 212.502L10.8513 221.787L10.8513 221.787C8.60173 224.039 4.52977 224.041 2.27774 221.791L2.27772 221.791C-0.0910891 219.424 -0.0927086 215.586 2.27368 213.217L2.27369 213.217L11.55 203.932L11.55 203.932C13.9164 201.563 17.7552 201.561 20.124 203.928Z" stroke="white"/>
<path d="M30.1025 185.364L29.7488 185.01L30.1025 185.364L39.3789 176.079C41.7457 173.71 45.5836 173.708 47.9525 176.074C50.3213 178.441 50.3229 182.28 47.9565 184.648L47.9565 184.648L38.6802 193.933C37.6962 194.918 36.0746 195.448 34.3937 195.448C32.7128 195.449 31.091 194.921 30.1066 193.937C29.0557 192.887 28.5047 191.289 28.5039 189.651C28.5031 188.014 29.0526 186.414 30.1025 185.364Z" stroke="white"/>
</g>
<defs>
<clipPath id="clip0">
<rect width="224" height="224" fill="white"/>
</clipPath>
</defs>
</svg>
