<svg width="22" height="22" viewBox="0 0 22 22" fill="none" xmlns="http://www.w3.org/2000/svg">
  <path
    d="M10.6552 16.1091C10.5718 15.9948 10.4776 15.8644 10.3748 15.7202C9.96595 15.1475 9.42175 14.36 8.8784 13.4988C8.33396 12.6358 7.79615 11.7079 7.39613 10.853C6.98728 9.97916 6.75586 9.24983 6.75586 8.76066C6.75586 7.72649 7.16668 6.73468 7.89795 6.00342C8.62921 5.27215 9.62102 4.86133 10.6552 4.86133C11.6894 4.86133 12.6812 5.27215 13.4124 6.00342C14.1437 6.73468 14.5545 7.72649 14.5545 8.76066C14.5545 9.24983 14.3231 9.97916 13.9142 10.853C13.5142 11.7079 12.9764 12.6358 12.432 13.4988C11.8886 14.36 11.3444 15.1475 10.9356 15.7202C10.8327 15.8644 10.7385 15.9948 10.6552 16.1091ZM9.34476 10.7218C9.73265 10.981 10.1887 11.1194 10.6552 11.1194C10.9649 11.1194 11.2717 11.0584 11.5578 10.9398C11.844 10.8213 12.104 10.6475 12.323 10.4285C12.5421 10.2095 12.7158 9.94947 12.8343 9.6633C12.9529 9.37712 13.0139 9.07041 13.0139 8.76066C13.0139 8.29415 12.8756 7.83812 12.6164 7.45023C12.3572 7.06235 11.9888 6.76002 11.5578 6.5815C11.1268 6.40297 10.6526 6.35626 10.195 6.44727C9.73748 6.53829 9.3172 6.76293 8.98733 7.0928C8.65746 7.42267 8.43282 7.84295 8.34181 8.3005C8.25079 8.75804 8.29751 9.2323 8.47603 9.6633C8.65456 10.0943 8.95688 10.4627 9.34476 10.7218Z"
    stroke="#EFEFEF" />
  <path
    d="M10.6572 1.12699e-08C8.54953 -9.68995e-05 6.48913 0.624815 4.73658 1.79571C2.98404 2.96661 1.61806 4.6309 0.811388 6.57813C0.00471485 8.52536 -0.206422 10.6681 0.204676 12.7353C0.615775 14.8025 1.63064 16.7014 3.12095 18.1919C4.61125 19.6823 6.51006 20.6973 8.57724 21.1086C10.6444 21.5199 12.7872 21.309 14.7345 20.5025C16.6818 19.696 18.3462 18.3301 19.5172 16.5777C20.6883 14.8253 21.3134 12.7649 21.3135 10.6572C21.3136 9.25776 21.038 7.87199 20.5025 6.57903C19.967 5.28607 19.1821 4.11124 18.1925 3.12163C17.203 2.13201 16.0283 1.34699 14.7354 0.81138C13.4424 0.27577 12.0567 6.30443e-05 10.6572 1.12699e-08ZM10.6572 20.6006C8.69062 20.6006 6.76818 20.0174 5.133 18.9248C3.49782 17.8322 2.22336 16.2793 1.47077 14.4624C0.718179 12.6455 0.521267 10.6462 0.904934 8.71738C1.2886 6.78855 2.23561 5.01682 3.62622 3.62621C5.01682 2.23561 6.78856 1.2886 8.71738 0.904929C10.6462 0.521262 12.6455 0.718174 14.4624 1.47076C16.2793 2.22335 17.8322 3.49782 18.9248 5.133C20.0174 6.76817 20.6006 8.69062 20.6006 10.6572C20.6006 11.963 20.3434 13.256 19.8437 14.4624C19.344 15.6688 18.6116 16.7649 17.6883 17.6882C16.7649 18.6116 15.6688 19.344 14.4624 19.8437C13.256 20.3434 11.963 20.6006 10.6572 20.6006V20.6006Z"
    fill="#EFEFEF" />
</svg>