<svg width="22" height="22" viewBox="0 0 22 22" fill="none" xmlns="http://www.w3.org/2000/svg">
  <path
    d="M15.4913 6.63477H5.8233C5.63642 6.65181 5.46021 6.72937 5.32143 6.85568C5.18265 6.98199 5.08889 7.15014 5.05438 7.3346C5.04806 7.36032 5.04488 7.38672 5.04492 7.41321V13.9017C5.05266 14.1057 5.13715 14.2993 5.28147 14.4437C5.42579 14.5881 5.6193 14.6726 5.8233 14.6805H15.4909C15.6974 14.6805 15.8955 14.5984 16.0416 14.4524C16.1876 14.3063 16.2696 14.1083 16.2697 13.9017V7.41321C16.2697 7.20676 16.1876 7.00876 16.0417 6.86278C15.8957 6.71679 15.6977 6.63477 15.4913 6.63477ZM15.2391 7.28296L10.6901 11.1324L6.15056 7.28296H15.2391ZM15.6208 13.9017C15.6208 13.9362 15.6071 13.9692 15.5828 13.9936C15.5584 14.0179 15.5254 14.0316 15.4909 14.0316H5.82462C5.78788 14.0291 5.69315 13.9645 5.69315 13.9017V7.5022L9.18094 10.4599L6.44594 12.9519C6.40081 12.9933 6.37392 13.0509 6.37118 13.1121C6.36844 13.1733 6.39007 13.2331 6.43132 13.2783C6.47257 13.3236 6.53009 13.3507 6.59127 13.3536C6.65245 13.3566 6.7123 13.3352 6.75771 13.2941L9.43721 10.8527C9.46479 10.8276 9.50058 10.8133 9.53788 10.8127C9.57519 10.812 9.61146 10.825 9.63991 10.8491L10.5399 11.6123C10.5817 11.6479 10.6348 11.6675 10.6896 11.6675C10.7445 11.6675 10.7976 11.6479 10.8394 11.6123L11.877 10.7344L14.6862 13.294C14.7087 13.3146 14.735 13.3306 14.7636 13.341C14.7922 13.3514 14.8226 13.3561 14.853 13.3547C14.8835 13.3533 14.9133 13.346 14.9409 13.3331C14.9685 13.3201 14.9932 13.3019 15.0138 13.2794C15.0343 13.2569 15.0501 13.2305 15.0605 13.2019C15.0708 13.1732 15.0753 13.1428 15.0739 13.1124C15.0724 13.0819 15.0649 13.0521 15.0519 13.0246C15.0389 12.997 15.0206 12.9723 14.998 12.9519L12.2333 10.4329L15.6208 7.56662L15.6208 13.9017Z"
    fill="#EFEFEF" />
  <path
    d="M10.6572 1.12699e-08C8.54953 -9.68995e-05 6.48913 0.624815 4.73658 1.79571C2.98404 2.96661 1.61806 4.6309 0.811388 6.57813C0.00471485 8.52536 -0.206422 10.6681 0.204676 12.7353C0.615775 14.8025 1.63064 16.7014 3.12095 18.1919C4.61125 19.6823 6.51006 20.6973 8.57724 21.1086C10.6444 21.5199 12.7872 21.309 14.7345 20.5025C16.6818 19.696 18.3462 18.3301 19.5172 16.5777C20.6883 14.8253 21.3134 12.7649 21.3135 10.6572C21.3136 9.25776 21.038 7.87199 20.5025 6.57903C19.967 5.28607 19.1821 4.11124 18.1925 3.12163C17.203 2.13201 16.0283 1.34699 14.7354 0.81138C13.4424 0.27577 12.0567 6.30443e-05 10.6572 1.12699e-08ZM10.6572 20.6006C8.69062 20.6006 6.76818 20.0174 5.133 18.9248C3.49782 17.8322 2.22336 16.2793 1.47077 14.4624C0.718179 12.6455 0.521267 10.6462 0.904934 8.71738C1.2886 6.78855 2.23561 5.01682 3.62622 3.62621C5.01682 2.23561 6.78856 1.2886 8.71738 0.904929C10.6462 0.521262 12.6455 0.718174 14.4624 1.47076C16.2793 2.22335 17.8322 3.49782 18.9248 5.133C20.0174 6.76817 20.6006 8.69062 20.6006 10.6572C20.6006 11.963 20.3434 13.256 19.8437 14.4624C19.344 15.6688 18.6116 16.7649 17.6883 17.6882C16.7649 18.6116 15.6688 19.344 14.4624 19.8437C13.256 20.3434 11.963 20.6006 10.6572 20.6006V20.6006Z"
    fill="#EFEFEF" />
</svg>