<svg width="22" height="22" viewBox="0 0 22 22" fill="none" xmlns="http://www.w3.org/2000/svg">
  <g clip-path="url(#clip0)">
    <path
      d="M11 0C4.92775 0 -1.69583e-05 4.92745 0 11C8.70838e-06 17.0725 4.92777 22 11 22C17.0722 22 22 17.0725 22 11C22 4.92745 17.0722 0 11 0ZM11 0.461914C16.8228 0.461914 21.5381 5.17697 21.5381 11C21.5381 16.823 16.8228 21.5381 11 21.5381C5.1772 21.5381 0.461922 16.823 0.461914 11C0.461897 5.17697 5.17718 0.461914 11 0.461914ZM11 4.125C10.0606 4.125 9.12039 4.3593 8.27865 4.84115C6.62375 5.78848 5.59185 7.53335 5.55729 9.42448C5.55633 9.47471 5.55743 9.63955 5.55729 9.83984C5.55723 9.92963 5.55728 9.95317 5.55729 10.026H5.04167H4.9987C4.89365 10.0462 4.81062 10.1483 4.8125 10.2552V11V11.487V12.2318C4.81251 12.3518 4.92168 12.4609 5.04167 12.4609H5.78646C6.07259 12.4609 6.32423 12.38 6.5026 12.2031C6.57396 12.1324 6.63354 12.0522 6.67448 11.9596H7.03255C7.42956 11.9596 7.7487 11.6403 7.7487 11.2435C7.7487 10.8468 7.42956 10.513 7.03255 10.513H6.64583C6.60681 10.4341 6.56503 10.3458 6.5026 10.2839C6.37492 10.1573 6.20418 10.0742 6.01562 10.0404C6.01561 9.9646 6.01556 9.93651 6.01562 9.83984C6.01576 9.63964 6.01598 9.40587 6.01562 9.42448C6.04724 7.69478 6.99139 6.11023 8.50781 5.24219C10.0504 4.35916 11.9496 4.35916 13.4922 5.24219C14.9891 6.099 15.9301 7.66342 15.9844 9.36719C15.9852 9.39606 15.9847 9.47233 15.9844 9.53906C15.3784 9.56885 14.8815 10.0603 14.8815 10.6706V11.8021C14.8815 12.3273 15.2523 12.7713 15.7409 12.9049C15.7055 14.9338 14.1711 16.3265 12.1602 16.8008V16.6576C12.1601 16.5376 12.051 16.4284 11.931 16.4284H11.5872H11.2435H10.9141C10.7308 16.4284 10.563 16.5379 10.4701 16.6719C10.3771 16.8059 10.3411 16.9656 10.3411 17.1445C10.3411 17.3236 10.3771 17.4975 10.4701 17.6315C10.563 17.7655 10.7308 17.875 10.9141 17.875H11.2435H11.5872H11.931C12.051 17.875 12.1601 17.7658 12.1602 17.6458V17.2734C14.365 16.7859 16.1483 15.2127 16.1992 12.9336C16.756 12.8555 17.1875 12.3779 17.1875 11.8021V10.6706C17.1875 10.1824 16.8761 9.77086 16.4427 9.61068C16.4429 9.54766 16.4447 9.41502 16.4427 9.35287C16.3833 7.49006 15.3549 5.77624 13.7214 4.84115C12.8796 4.3593 11.9394 4.125 11 4.125ZM16.0417 9.9974C16.4297 9.9974 16.7292 10.289 16.7292 10.6706V11.8021C16.7292 12.1837 16.4298 12.4896 16.0417 12.4896C15.6536 12.4896 15.3398 12.1837 15.3398 11.8021V10.6706C15.3398 10.289 15.6536 9.9974 16.0417 9.9974ZM5.27083 10.4844H5.74349C5.77188 10.4898 5.80104 10.4898 5.82943 10.4844C6.0092 10.4913 6.12336 10.5354 6.1875 10.599C6.25739 10.6683 6.30208 10.7924 6.30208 11V11.487C6.30208 11.6946 6.25739 11.8045 6.1875 11.8737C6.11761 11.943 5.99685 12.0026 5.78646 12.0026H5.27083V11.487V11V10.4844ZM6.76042 10.9714H7.03255C7.1857 10.9714 7.29036 11.0948 7.29036 11.2435C7.29036 11.3922 7.1857 11.5013 7.03255 11.5013H6.76042C6.76046 11.4967 6.76042 11.4916 6.76042 11.487V11C6.76042 10.9899 6.76062 10.981 6.76042 10.9714ZM8.17839 12.375C8.08373 12.4062 8.01589 12.5047 8.02083 12.6042V15.8125C8.02085 15.9325 8.13001 16.0417 8.25 16.0417H8.9375V16.7292C8.94266 16.8984 9.17779 17.0069 9.3099 16.901L10.3411 16.0417H12.8333C12.9533 16.0417 13.0625 15.9325 13.0625 15.8125V12.6042C13.0625 12.4842 12.9533 12.375 12.8333 12.375H8.25C8.22632 12.3704 8.20206 12.3704 8.17839 12.375ZM8.47917 12.8333H12.6042V15.5833H10.2695C10.2188 15.5833 10.1675 15.5965 10.1263 15.6263L9.39583 16.2279V15.8125C9.39582 15.6925 9.28665 15.5833 9.16667 15.5833H8.47917V12.8333ZM9.625 13.9792C9.49843 13.9792 9.39583 14.0818 9.39583 14.2083C9.39583 14.3349 9.49843 14.4375 9.625 14.4375C9.75157 14.4375 9.85417 14.3349 9.85417 14.2083C9.85417 14.0818 9.75157 13.9792 9.625 13.9792ZM10.5417 13.9792C10.4151 13.9792 10.3125 14.0818 10.3125 14.2083C10.3125 14.3349 10.4151 14.4375 10.5417 14.4375C10.6682 14.4375 10.7708 14.3349 10.7708 14.2083C10.7708 14.0818 10.6682 13.9792 10.5417 13.9792ZM11.4583 13.9792C11.3318 13.9792 11.2292 14.0818 11.2292 14.2083C11.2292 14.3349 11.3318 14.4375 11.4583 14.4375C11.5849 14.4375 11.6875 14.3349 11.6875 14.2083C11.6875 14.0818 11.5849 13.9792 11.4583 13.9792ZM10.8997 16.8867C10.9095 16.8817 10.9111 16.8867 10.9141 16.8867H11.2435H11.5872H11.7018V17.0299C11.6965 17.0583 11.6965 17.0875 11.7018 17.1159V17.1445V17.4167H11.5872H11.2435H10.9141C10.9082 17.4167 10.8872 17.4034 10.8568 17.3594C10.8263 17.3154 10.7995 17.2383 10.7995 17.1445C10.7995 17.0509 10.8263 16.9736 10.8568 16.9297C10.872 16.9077 10.89 16.8922 10.8997 16.8867Z"
      fill="black" />
  </g>
  <defs>
    <clipPath id="clip0">
      <rect width="22" height="22" fill="white" />
    </clipPath>
  </defs>
</svg>