<svg width="391" height="422" viewBox="0 0 391 422" fill="none" xmlns="http://www.w3.org/2000/svg">
  <g clip-path="url(#clip0)">
    <path
      d="M0.725127 191.618C0.725127 191.618 -5.84508 262.99 47.5355 320.219C100.916 377.449 182.661 394.548 248.646 410.155C314.63 425.761 370.385 396.659 385.146 341.058C399.906 285.457 351.212 260.259 331.719 190.908C312.227 121.557 317.351 100.646 263.97 51.0778C210.589 1.51012 116.268 10.7102 59.8933 70.9795C3.51883 131.249 0.725127 191.618 0.725127 191.618Z"
      fill="#29538E" />
    <path opacity="0.7"
      d="M0.725127 191.618C0.725127 191.618 -5.84508 262.99 47.5355 320.219C100.916 377.449 182.661 394.548 248.646 410.155C314.63 425.761 370.385 396.659 385.146 341.058C399.906 285.457 351.212 260.259 331.719 190.908C312.227 121.557 317.351 100.646 263.97 51.0778C210.589 1.51012 116.268 10.7102 59.8933 70.9795C3.51883 131.249 0.725127 191.618 0.725127 191.618Z"
      fill="white" />
    <path
      d="M-6.55499 355.547C-4.09799 354.682 -0.0302925 350.76 0.288208 350.442C2.52726 352.777 4.91982 354.96 7.44991 356.976C8.91501 358.15 10.4256 359.296 11.9999 360.425C11.2173 360.015 10.5257 359.651 10.4256 359.615C7.54091 358.486 1.32561 358.004 -0.885693 360.688C-1.24658 361.143 -1.50677 361.669 -1.64902 362.231C-1.79127 362.794 -1.81232 363.38 -1.71079 363.952C-1.60926 364.523 -1.38745 365.066 -1.06008 365.545C-0.732714 366.025 -0.307251 366.429 0.188108 366.731C2.22651 368.087 5.22041 367.705 7.39531 366.931C9.57021 366.158 13.1465 362.882 14.0747 361.999C14.6662 362.427 15.2486 362.863 15.8401 363.282C18.6884 365.32 21.5458 367.341 24.2849 369.406C25.2495 370.134 26.1686 370.89 27.0968 371.636C26.4052 371.272 25.8228 370.971 25.7318 370.935C22.8471 369.807 16.6318 369.324 14.4205 372.009C14.0689 372.465 13.8173 372.991 13.6822 373.551C13.547 374.111 13.5313 374.693 13.636 375.26C13.7407 375.826 13.9636 376.364 14.29 376.839C14.6164 377.314 15.0392 377.714 15.5307 378.015C17.5691 379.362 20.563 378.979 22.7379 378.215C24.9128 377.451 28.1433 374.475 29.2444 373.438C30.1544 374.229 31.0644 375.021 31.9744 375.84C32.5477 376.404 33.1392 376.914 33.6852 377.514L35.3323 379.262C36.3333 380.399 37.3798 381.573 38.3262 382.72C38.9996 383.511 39.6184 384.267 40.2463 385.04C39.3363 384.303 37.398 382.902 37.2342 382.801C34.5042 381.255 28.4709 379.826 25.8956 382.155C25.4786 382.552 25.1499 383.032 24.9309 383.565C24.712 384.097 24.6077 384.669 24.6249 385.245C24.642 385.82 24.7803 386.385 25.0306 386.903C25.2809 387.422 25.6377 387.881 26.0776 388.252C27.8976 389.89 30.9097 389.972 33.1756 389.545C35.6781 389.062 40.128 385.95 40.6831 385.559C41.7114 386.833 42.7124 388.089 43.6315 389.281C46.1158 392.484 48.1815 395.332 49.774 397.634L51.8124 396.561C50.1198 394.231 47.9176 391.301 45.2422 388.007C44.1957 386.705 43.0491 385.34 41.8661 383.948C42.999 382.621 44.0505 381.226 45.0147 379.771C47.4808 380.681 52.5495 380.508 53.2047 380.49C53.3685 382.128 53.505 383.712 53.6142 385.222C53.9054 389.144 54.051 392.584 54.1329 395.341L56.3442 394.167C56.2077 391.583 55.9984 388.507 55.6617 385.067C55.507 383.402 55.3068 381.637 55.0793 379.817C55.7163 379.635 60.9488 378.106 62.878 376.45C64.6434 374.948 66.4634 372.546 66.3178 370.08C66.3025 369.504 66.1662 368.938 65.9177 368.418C65.6692 367.898 65.3141 367.437 64.8755 367.064C64.4369 366.69 63.9246 366.413 63.3719 366.251C62.8192 366.089 62.2386 366.044 61.6677 366.121C58.2552 366.676 55.5525 372.309 55.0884 375.367C55.0884 375.549 54.9792 377.542 54.9519 378.798C54.8609 378.06 54.7699 377.342 54.6698 376.577C54.4605 375.067 54.2148 373.565 53.96 371.954C53.8083 371.184 53.6536 370.401 53.4959 369.606C53.3594 368.815 53.1137 368.005 52.9226 367.195C52.4494 365.32 51.867 363.455 51.2482 361.58C52.5677 361.407 57.2451 360.67 59.2198 359.478C61.1945 358.286 63.3512 356.157 63.5787 353.727C63.6502 353.155 63.6009 352.575 63.4339 352.024C63.2669 351.473 62.986 350.963 62.6094 350.527C62.2328 350.091 61.7689 349.739 61.2477 349.494C60.7265 349.249 60.1596 349.116 59.5838 349.104C56.1258 349.104 52.6041 354.3 51.6759 357.294C51.6213 357.485 51.1936 359.678 50.9843 360.889C50.6021 359.76 50.229 358.641 49.8013 357.522C48.5819 354.282 47.2351 351.043 45.9156 347.803L44.7235 344.827C45.1967 344.763 50.775 344.045 52.9863 342.68C54.9519 341.46 57.1177 339.358 57.3361 336.928C57.4215 336.352 57.3832 335.764 57.2236 335.203C57.064 334.643 56.7869 334.123 56.4107 333.678C56.0345 333.232 55.5678 332.873 55.0417 332.622C54.5156 332.371 53.9421 332.235 53.3594 332.224C49.8923 332.224 46.3706 337.42 45.4515 340.368C45.3787 340.596 44.7781 343.753 44.6598 344.563C43.7498 342.379 42.9399 340.186 42.1937 338.002C41.1728 335.05 40.3429 332.034 39.7094 328.975C39.9278 328.975 45.7609 328.22 48.0268 326.818C49.9833 325.599 52.1491 323.497 52.3766 321.067C52.4495 320.496 52.4014 319.916 52.2355 319.365C52.0697 318.814 51.7897 318.304 51.4138 317.868C51.0379 317.432 50.5745 317.08 50.0537 316.834C49.5329 316.589 48.9663 316.456 48.3908 316.444C44.9237 316.444 41.402 321.64 40.4829 324.589C40.4101 324.825 39.7549 328.229 39.6821 328.848C39.6821 328.666 39.5911 328.493 39.5547 328.311C39.0039 325.223 38.7267 322.092 38.7266 318.956C38.7266 317.227 38.7812 315.571 38.8904 313.96C39.9915 313.96 45.0147 313.778 47.1987 312.741C49.3827 311.703 51.6577 309.892 52.1582 307.499C52.2918 306.939 52.3065 306.358 52.2013 305.792C52.0961 305.226 51.8733 304.689 51.5474 304.214C51.2215 303.74 50.7997 303.34 50.3092 303.038C49.8188 302.737 49.2706 302.543 48.7002 302.467C45.2513 302.121 41.1836 306.862 39.9369 309.701C39.8732 309.856 39.3545 311.521 39.0269 312.695C39.0906 311.976 39.1361 311.221 39.2089 310.529C39.4728 307.918 39.8823 305.552 40.2554 303.449C40.4738 302.257 40.7013 301.193 40.9197 300.192C41.9935 299.6 46.2614 297.189 47.6901 295.296C49.1188 293.403 50.3473 290.746 49.6739 288.362C49.5357 287.8 49.2802 287.274 48.9244 286.818C48.5685 286.362 48.1202 285.986 47.609 285.715C47.0977 285.445 46.535 285.285 45.9577 285.247C45.3804 285.209 44.8017 285.294 44.2594 285.495C41.038 286.769 39.6184 292.857 39.8186 295.942C39.8186 296.215 40.5921 300.355 40.6467 300.319H40.7104C40.4829 301.275 40.2463 302.303 40.0097 303.44C39.5911 305.533 39.0997 307.899 38.8085 310.511C38.428 313.32 38.2122 316.149 38.1624 318.983C38.0925 322.16 38.3057 325.336 38.7994 328.474C38.7994 328.474 38.7994 328.547 38.7994 328.584C38.3444 327.674 36.9794 325.18 36.852 325.007C35.032 322.478 30.1453 318.637 26.842 319.666C26.2982 319.853 25.7997 320.152 25.379 320.544C24.9583 320.937 24.6248 321.413 24.4 321.942C24.1752 322.472 24.0642 323.042 24.0741 323.617C24.0841 324.193 24.2148 324.759 24.4578 325.28C25.4133 327.528 28.0978 328.866 30.3637 329.43C32.8935 330.058 38.4445 329.03 38.8904 328.948C39.4675 332.128 40.2579 335.265 41.2564 338.339C41.8297 340.159 42.4576 341.924 43.0764 343.708C42.6578 342.934 42.2756 342.252 42.2119 342.161C40.3919 339.631 35.5052 335.791 32.2019 336.819C31.6581 337.006 31.1596 337.306 30.7389 337.698C30.3182 338.09 29.9847 338.566 29.7599 339.096C29.5351 339.625 29.4241 340.196 29.434 340.771C29.444 341.346 29.5747 341.913 29.8177 342.434C30.7732 344.691 33.4577 346.019 35.7145 346.583C37.9713 347.148 42.7488 346.374 44.0046 346.147C44.2685 346.829 44.5142 347.512 44.7781 348.194C46.0248 351.47 47.2897 354.728 48.4181 357.958C48.8185 359.096 49.1734 360.233 49.5374 361.371C49.1643 360.688 48.8367 360.115 48.7821 360.033C46.9621 357.504 42.0663 353.663 38.7721 354.692C38.2275 354.878 37.7281 355.177 37.3064 355.568C36.8847 355.96 36.5501 356.436 36.3244 356.966C36.0987 357.495 35.9869 358.066 35.9963 358.642C36.0057 359.217 36.136 359.784 36.3788 360.306C37.3434 362.554 40.0188 363.892 42.2847 364.456C44.5506 365.02 48.8549 364.31 50.3473 364.055C50.684 365.229 51.0207 366.403 51.2573 367.559C51.4211 368.351 51.6395 369.106 51.7669 369.907C51.8943 370.708 52.0399 371.49 52.1764 372.264C52.3766 373.774 52.6041 375.33 52.7679 376.814C52.8862 377.842 52.9863 378.825 53.0864 379.808C52.6951 378.67 51.8943 376.459 51.8033 376.277C50.5094 373.892 48.6305 371.876 46.3433 370.416C46.2085 370.145 46.0502 369.886 45.8701 369.643C45.5397 369.171 45.1138 368.774 44.6201 368.478C44.1263 368.182 43.5757 367.993 43.0041 367.923C42.4325 367.854 41.8527 367.905 41.3023 368.075C40.7519 368.244 40.2433 368.527 39.8095 368.906C37.2615 371.254 38.126 377.442 39.4182 380.253C39.5001 380.417 40.5284 382.119 41.2382 383.184C40.7468 382.619 40.3282 382.064 39.7731 381.491C38.7721 380.344 37.7347 379.225 36.6336 378.024L34.9501 376.313C34.4041 375.74 33.7489 375.194 33.1301 374.621C31.7014 373.328 30.1908 372.082 28.6438 370.871C29.6448 369.961 33.1938 366.822 34.1038 364.711C35.0138 362.599 35.7145 359.669 34.5588 357.513C34.3097 356.992 33.9535 356.53 33.5134 356.157C33.0734 355.784 32.5594 355.508 32.0052 355.347C31.451 355.186 30.8691 355.145 30.2977 355.225C29.7262 355.305 29.1781 355.504 28.6893 355.811C25.8137 357.749 25.7227 364.001 26.5781 366.977C26.6327 367.159 27.4881 369.224 27.9795 370.344C27.0695 369.625 26.1595 368.897 25.1403 368.196C22.3375 366.167 19.4255 364.201 16.5408 362.235L13.9018 360.415C14.2658 360.106 18.5155 356.43 19.6075 354.045C20.5721 351.943 21.2182 349.004 20.0625 346.847C19.8073 346.337 19.4481 345.886 19.008 345.523C18.5679 345.16 18.0566 344.893 17.5071 344.74C16.9576 344.586 16.3821 344.55 15.8176 344.632C15.253 344.715 14.712 344.914 14.2294 345.218C11.3538 347.148 11.2628 353.408 12.1273 356.375C12.191 356.593 13.4286 359.569 13.7744 360.306C11.8452 358.96 9.93421 357.576 8.09601 356.193C5.61226 354.297 3.25349 352.242 1.03441 350.042C1.19821 349.896 5.66631 346.074 6.77651 343.672C7.74111 341.579 8.39631 338.63 7.24061 336.473C6.98554 335.957 6.62471 335.5 6.18156 335.133C5.73842 334.765 5.22287 334.495 4.66843 334.34C4.114 334.184 3.53308 334.147 2.96343 334.231C2.39378 334.315 1.84816 334.518 1.36201 334.826C-1.51359 336.765 -1.60459 343.016 -0.740093 345.983C-0.676394 346.22 0.66131 349.414 0.943409 349.969L0.543007 349.596C-1.62334 347.328 -3.58164 344.87 -5.30829 342.252C-6.28199 340.814 -7.12829 339.395 -7.92909 337.993C-7.01909 337.365 -2.92409 334.453 -1.67739 332.388C-0.430691 330.322 0.479307 327.555 -0.430693 325.289C-0.626482 324.748 -0.934128 324.253 -1.33362 323.838C-1.73311 323.423 -2.21549 323.097 -2.74939 322.881C-3.28329 322.664 -3.85675 322.563 -4.43246 322.583C-5.00816 322.603 -5.57323 322.744 -6.09089 322.996C-9.15759 324.607 -9.93109 330.813 -9.40329 333.862C-9.40329 334.026 -8.90279 335.682 -8.49329 336.874C-8.83909 336.237 -9.21219 335.582 -9.53069 334.963C-10.7501 332.642 -11.7238 330.413 -12.5701 328.493C-13.0342 327.373 -13.4801 326.354 -13.8077 325.399C-13.2435 324.325 -11.014 319.939 -10.8684 317.591C-10.7228 315.243 -11.2506 312.286 -13.0706 310.693C-13.494 310.303 -13.9948 310.006 -14.5405 309.822C-15.0862 309.638 -15.6645 309.57 -16.2378 309.625C-16.8111 309.679 -17.3667 309.853 -17.8683 310.136C-18.3699 310.419 -18.8064 310.804 -19.1494 311.266C-21.1332 314.106 -18.9583 319.966 -17.0837 322.432C-16.9199 322.651 -14.0079 325.681 -13.9806 325.626V325.563C-13.6439 326.473 -13.2708 327.483 -12.8522 328.556C-12.0423 330.531 -11.1141 332.761 -9.94929 335.118C-8.70983 337.672 -7.3212 340.152 -5.79059 342.543C-4.09786 345.229 -2.1702 347.76 -0.0302906 350.105L0.0516071 350.187C-0.858395 349.678 -3.34269 348.367 -3.58839 348.276C-6.47309 347.148 -12.6884 346.665 -14.8906 349.35C-15.2424 349.805 -15.4944 350.329 -15.6302 350.888C-15.766 351.447 -15.7825 352.028 -15.6786 352.594C-15.5747 353.16 -15.3528 353.697 -15.0273 354.172C-14.7018 354.646 -14.28 355.046 -13.7895 355.347C-11.7238 356.721 -8.73899 356.32 -6.55499 355.547Z"
      fill="#263238" />
    <path
      d="M38.4352 313.459C38.4989 313.459 37.5252 309.364 37.4342 309.109C36.3877 306.197 32.6476 301.192 29.1805 301.311C28.6067 301.348 28.0471 301.506 27.5381 301.774C27.029 302.041 26.5816 302.412 26.2249 302.863C25.8682 303.314 25.61 303.835 25.467 304.392C25.3241 304.949 25.2995 305.53 25.3949 306.097C25.7316 308.527 27.9793 310.529 29.9995 311.657C32.3655 312.986 38.4261 313.459 38.4352 313.459Z"
      fill="#263238" />
    <path
      d="M392.034 355.546C389.577 354.682 385.509 350.76 385.182 350.441C382.945 352.778 380.552 354.961 378.02 356.975C376.555 358.149 375.044 359.296 373.515 360.424C374.289 360.014 374.99 359.65 375.09 359.614C377.974 358.486 384.19 358.003 386.392 360.688C386.743 361.143 386.995 361.668 387.13 362.227C387.265 362.787 387.281 363.368 387.176 363.934C387.071 364.5 386.848 365.037 386.522 365.511C386.196 365.985 385.773 366.385 385.282 366.685C383.243 368.041 380.259 367.658 378.075 366.885C375.891 366.111 372.323 362.835 371.404 361.953L369.63 363.236C366.781 365.274 363.933 367.294 361.194 369.36C360.229 370.088 359.301 370.843 358.373 371.59C359.065 371.226 359.647 370.925 359.747 370.889C362.623 369.761 368.847 369.278 371.049 371.963C371.401 372.419 371.653 372.944 371.788 373.505C371.923 374.065 371.939 374.647 371.834 375.213C371.729 375.78 371.506 376.318 371.18 376.793C370.853 377.267 370.431 377.668 369.939 377.969C367.901 379.316 364.907 378.933 362.732 378.169C360.557 377.405 357.327 374.429 356.225 373.391C355.315 374.183 354.405 374.975 353.495 375.794C352.913 376.358 352.322 376.868 351.776 377.468C351.23 378.069 350.674 378.633 350.138 379.215C349.127 380.353 348.09 381.527 347.135 382.673C346.47 383.465 345.842 384.22 345.214 384.994C346.17 384.257 348.063 382.855 348.236 382.755C350.911 381.208 356.999 379.78 359.565 382.109C359.982 382.506 360.311 382.986 360.53 383.518C360.749 384.051 360.853 384.623 360.836 385.198C360.819 385.774 360.68 386.339 360.43 386.857C360.18 387.375 359.823 387.835 359.383 388.206C357.563 389.844 354.56 389.926 352.285 389.498C349.792 389.016 345.342 385.904 344.787 385.513C343.749 386.787 342.757 388.042 341.829 389.235C339.354 392.438 337.279 395.286 335.687 397.588L333.639 396.515C335.332 394.185 337.543 391.255 340.209 387.961C341.256 386.659 342.403 385.294 343.595 383.902C342.461 382.573 341.406 381.178 340.437 379.725C337.971 380.635 332.902 380.462 332.247 380.444C332.092 382.082 331.947 383.665 331.837 385.176C331.546 389.098 331.401 392.538 331.328 395.295L329.107 394.121C329.244 391.537 329.462 388.461 329.79 385.021C329.954 383.356 330.154 381.59 330.372 379.771C329.735 379.589 324.512 378.06 322.574 376.404C320.817 374.902 318.997 372.5 319.143 370.034C319.157 369.458 319.292 368.892 319.54 368.372C319.787 367.853 320.141 367.391 320.579 367.018C321.017 366.644 321.529 366.367 322.081 366.205C322.633 366.042 323.214 365.998 323.784 366.075C327.206 366.63 329.899 372.263 330.363 375.321C330.363 375.503 330.472 377.496 330.5 378.751C330.6 378.014 330.682 377.295 330.791 376.531C330.991 375.02 331.237 373.519 331.501 371.908C331.646 371.135 331.801 370.352 331.956 369.56C332.11 368.769 332.338 367.959 332.529 367.149C333.011 365.274 333.585 363.409 334.203 361.534C332.884 361.361 328.207 360.624 326.232 359.432C324.257 358.24 322.1 356.111 321.882 353.681C321.809 353.11 321.857 352.53 322.023 351.979C322.189 351.427 322.469 350.917 322.845 350.481C323.221 350.045 323.684 349.693 324.205 349.448C324.726 349.203 325.292 349.07 325.868 349.058C329.335 349.058 332.857 354.254 333.776 357.248C333.839 357.439 334.258 359.632 334.467 360.843C334.85 359.714 335.232 358.595 335.65 357.476C336.879 354.236 338.217 350.996 339.536 347.757C339.946 346.765 340.337 345.773 340.728 344.781C340.264 344.717 334.677 343.998 332.465 342.633C330.509 341.414 328.343 339.312 328.116 336.882C328.043 336.311 328.091 335.731 328.257 335.18C328.422 334.629 328.702 334.119 329.078 333.683C329.454 333.247 329.918 332.895 330.438 332.649C330.959 332.404 331.526 332.271 332.101 332.259C335.568 332.259 339.09 337.456 340.018 340.404C340.082 340.631 340.692 343.789 340.801 344.599C341.711 342.415 342.521 340.222 343.276 338.038C344.3 335.086 345.133 332.07 345.77 329.011C345.551 329.011 339.727 328.255 337.461 326.854C335.496 325.635 333.33 323.533 333.102 321.103C333.031 320.531 333.08 319.951 333.247 319.4C333.414 318.849 333.695 318.339 334.072 317.903C334.448 317.467 334.912 317.115 335.433 316.87C335.955 316.625 336.521 316.492 337.097 316.48C340.564 316.48 344.077 321.676 345.005 324.625C345.078 324.861 345.724 328.265 345.797 328.883C345.797 328.701 345.897 328.528 345.924 328.346C346.48 325.259 346.757 322.128 346.752 318.992C346.752 317.263 346.698 315.606 346.589 313.996C345.487 313.996 340.464 313.814 338.289 312.776C336.114 311.739 333.821 309.928 333.33 307.535C333.195 306.975 333.179 306.393 333.284 305.827C333.388 305.26 333.611 304.722 333.937 304.248C334.263 303.773 334.686 303.372 335.177 303.072C335.668 302.771 336.217 302.577 336.788 302.502C340.237 302.157 344.304 306.898 345.542 309.737C345.615 309.892 346.124 311.557 346.452 312.731C346.388 312.012 346.343 311.257 346.27 310.565C346.006 307.953 345.606 305.587 345.224 303.485C345.005 302.293 344.778 301.228 344.559 300.227C343.495 299.636 339.227 297.224 337.798 295.332C336.369 293.439 335.141 290.782 335.805 288.397C335.944 287.839 336.199 287.316 336.553 286.862C336.907 286.409 337.352 286.035 337.86 285.764C338.368 285.494 338.927 285.333 339.501 285.293C340.075 285.253 340.652 285.334 341.192 285.531C344.414 286.805 345.833 292.893 345.633 295.978C345.633 296.251 344.86 300.391 344.805 300.355H344.741C344.969 301.31 345.214 302.339 345.451 303.476C345.87 305.569 346.361 307.935 346.652 310.547C347.03 313.356 347.242 316.185 347.289 319.019C347.362 322.195 347.152 325.371 346.661 328.51V328.619C347.116 327.709 348.481 325.216 348.609 325.043C350.429 322.513 355.315 318.673 358.619 319.701C359.163 319.887 359.663 320.186 360.084 320.578C360.506 320.97 360.84 321.446 361.065 321.976C361.29 322.506 361.401 323.077 361.39 323.653C361.379 324.228 361.247 324.795 361.003 325.316C360.047 327.564 357.363 328.902 355.106 329.466C352.576 330.094 347.016 329.065 346.57 328.983C345.993 332.163 345.203 335.301 344.204 338.375C343.631 340.195 343.003 341.96 342.384 343.744C342.803 342.97 343.185 342.288 343.249 342.197C345.069 339.667 349.965 335.827 353.259 336.855C353.803 337.041 354.303 337.34 354.725 337.732C355.146 338.123 355.481 338.6 355.707 339.129C355.932 339.659 356.044 340.23 356.035 340.805C356.025 341.381 355.895 341.948 355.652 342.47C354.688 344.726 352.012 346.055 349.746 346.619C347.48 347.183 342.712 346.41 341.456 346.182L340.692 348.23C339.436 351.506 338.171 354.764 337.052 357.994C336.651 359.132 336.296 360.269 335.942 361.407C336.315 360.724 336.633 360.151 336.688 360.069C338.508 357.539 343.404 353.699 346.698 354.727C347.242 354.914 347.74 355.214 348.161 355.606C348.581 355.998 348.915 356.474 349.14 357.004C349.365 357.533 349.476 358.104 349.466 358.679C349.456 359.254 349.325 359.821 349.082 360.342C348.117 362.59 345.442 363.927 343.176 364.492C340.91 365.056 336.606 364.346 335.113 364.091C334.786 365.265 334.449 366.439 334.203 367.595C334.04 368.386 333.821 369.142 333.703 369.943C333.585 370.743 333.43 371.526 333.293 372.299C333.084 373.81 332.866 375.366 332.702 376.849C332.575 377.878 332.474 378.861 332.374 379.843C332.766 378.706 333.576 376.495 333.657 376.313C334.933 373.899 336.807 371.853 339.099 370.37C339.227 370.095 339.386 369.836 339.572 369.597C339.902 369.125 340.327 368.729 340.82 368.432C341.313 368.136 341.863 367.947 342.434 367.878C343.005 367.808 343.584 367.86 344.133 368.029C344.683 368.198 345.191 368.481 345.624 368.86C348.172 371.207 347.317 377.395 346.015 380.207C345.933 380.371 344.905 382.073 344.195 383.138C344.687 382.573 345.16 382.018 345.669 381.445C346.67 380.298 347.699 379.179 348.809 377.978L350.483 376.267C351.038 375.694 351.694 375.148 352.303 374.574C353.732 373.282 355.243 372.036 356.799 370.825C355.798 369.915 352.249 366.776 351.339 364.665C350.429 362.553 349.719 359.623 350.875 357.466C351.129 356.949 351.489 356.492 351.932 356.123C352.375 355.755 352.89 355.483 353.445 355.327C353.999 355.171 354.58 355.133 355.15 355.216C355.72 355.3 356.267 355.502 356.753 355.81C359.629 357.749 359.711 364 358.855 366.976C358.801 367.158 357.945 369.224 357.454 370.343C358.364 369.624 359.319 368.896 360.293 368.195C363.105 366.166 366.008 364.2 368.902 362.235L371.532 360.415C371.177 360.105 366.918 356.429 365.826 354.045C364.861 351.943 364.215 349.003 365.371 346.847C365.625 346.329 365.985 345.872 366.428 345.503C366.871 345.135 367.387 344.864 367.942 344.709C368.497 344.553 369.078 344.516 369.648 344.601C370.218 344.686 370.764 344.89 371.25 345.2C374.116 347.129 374.207 353.39 373.352 356.356C373.288 356.575 372.05 359.55 371.695 360.287C373.634 358.941 375.545 357.557 377.374 356.174C379.859 354.28 382.218 352.225 384.435 350.023C384.272 349.877 379.813 346.055 378.693 343.653C377.729 341.56 377.083 338.611 378.238 336.455C378.492 335.939 378.852 335.482 379.295 335.114C379.737 334.747 380.252 334.477 380.806 334.321C381.359 334.166 381.939 334.129 382.508 334.213C383.077 334.296 383.622 334.499 384.108 334.807C386.983 336.746 387.074 342.997 386.21 345.964C386.146 346.201 384.818 349.395 384.536 349.95L384.936 349.577C387.097 347.306 389.052 344.849 390.778 342.233C391.752 340.795 392.598 339.376 393.399 337.974C392.489 337.346 388.394 334.434 387.156 332.369C385.919 330.303 385 327.537 385.91 325.271C386.105 324.729 386.413 324.234 386.813 323.819C387.212 323.404 387.694 323.078 388.228 322.862C388.762 322.645 389.336 322.544 389.911 322.564C390.487 322.584 391.052 322.725 391.57 322.977C394.637 324.588 395.41 330.794 394.882 333.843C394.882 334.007 394.373 335.663 393.972 336.855C394.318 336.218 394.691 335.563 395.019 334.944C396.238 332.623 397.203 330.394 398.049 328.474C398.522 327.355 398.959 326.335 399.296 325.38C398.722 324.306 396.502 319.92 396.347 317.572C396.193 315.224 396.666 312.285 398.513 310.692C398.937 310.302 399.437 310.005 399.983 309.821C400.529 309.637 401.107 309.57 401.68 309.624C402.254 309.678 402.809 309.852 403.311 310.135C403.812 310.418 404.249 310.803 404.592 311.266C406.576 314.105 404.401 319.965 402.535 322.431C402.372 322.65 399.45 325.68 399.423 325.626V325.562C399.096 326.472 398.722 327.482 398.295 328.556C397.494 330.53 396.566 332.76 395.392 335.117C394.158 337.671 392.776 340.15 391.251 342.542C389.565 345.233 387.637 347.764 385.491 350.105L385.409 350.186C386.319 349.677 388.803 348.366 389.049 348.275C391.925 347.147 398.149 346.665 400.351 349.349C400.703 349.805 400.954 350.329 401.089 350.889C401.224 351.448 401.24 352.03 401.135 352.596C401.031 353.161 400.808 353.699 400.481 354.173C400.155 354.647 399.732 355.046 399.241 355.346C397.203 356.72 394.209 356.32 392.034 355.546Z"
      fill="#263238" />
    <path
      d="M347.044 313.459C346.98 313.459 347.954 309.364 348.036 309.109C349.082 306.197 352.832 301.192 356.29 301.311C356.864 301.347 357.424 301.504 357.934 301.771C358.444 302.038 358.892 302.409 359.249 302.861C359.606 303.312 359.864 303.833 360.006 304.391C360.149 304.949 360.172 305.53 360.075 306.097C359.748 308.527 357.491 310.529 355.48 311.657C353.114 312.986 347.044 313.459 347.044 313.459Z"
      fill="#263238" />
    <path d="M49.9297 182.547L50.685 183.047" stroke="#263238" stroke-miterlimit="10" />
    <path d="M52.2129 184.039L191.652 274.702" stroke="#263238" stroke-miterlimit="10" stroke-dasharray="2 2" />
    <path d="M192.418 275.201L193.173 275.693L192.682 274.938" stroke="#263238" stroke-miterlimit="10" />
    <path d="M191.698 273.419L72.0879 89.5078" stroke="#263238" stroke-miterlimit="10" stroke-dasharray="1.98 1.98" />
    <path d="M71.5871 88.7527L71.0957 87.9883" stroke="#263238" stroke-miterlimit="10" />
    <path d="M336.425 182.547L335.67 183.047" stroke="#263238" stroke-miterlimit="10" />
    <path d="M334.14 184.039L194.701 274.702" stroke="#263238" stroke-miterlimit="10" stroke-dasharray="2 2" />
    <path d="M193.936 275.201L193.172 275.693L193.672 274.938" stroke="#263238" stroke-miterlimit="10" />
    <path d="M194.656 273.419L314.267 89.5078" stroke="#263238" stroke-miterlimit="10" stroke-dasharray="1.98 1.98" />
    <path d="M314.758 88.7527L315.258 87.9883" stroke="#263238" stroke-miterlimit="10" />
    <path d="M193.172 59.7598V60.6698" stroke="#263238" stroke-miterlimit="10" />
    <path d="M193.172 62.498V273.873" stroke="#263238" stroke-miterlimit="10" stroke-dasharray="2.01 2.01" />
    <path d="M193.172 274.783V275.693" stroke="#263238" stroke-miterlimit="10" />
    <path
      d="M194.875 83.6291C210.329 83.6291 222.858 71.1009 222.858 55.6466C222.858 40.1923 210.329 27.6641 194.875 27.6641C179.421 27.6641 166.893 40.1923 166.893 55.6466C166.893 71.1009 179.421 83.6291 194.875 83.6291Z"
      fill="#263238" stroke="#263238" stroke-width="2" stroke-miterlimit="10" />
    <path d="M194.875 55.6468L218.426 40.5408C214.946 35.1237 209.709 31.0687 203.593 29.0566L194.875 55.6468Z"
      fill="#29538E" stroke="#263238" stroke-miterlimit="10" />
    <path
      d="M194.875 55.647L208.061 80.3171C211.463 78.4935 214.45 75.986 216.836 72.9521C219.222 69.9182 220.954 66.4236 221.924 62.6879C222.894 58.9522 223.081 55.0562 222.473 51.2448C221.864 47.4335 220.474 43.7892 218.389 40.541L194.875 55.647Z"
      fill="white" stroke="#263238" stroke-miterlimit="10" />
    <path
      d="M330.376 107.591C341.3 96.6664 341.3 78.9547 330.376 68.0304C319.451 57.1061 301.74 57.1061 290.815 68.0304C279.891 78.9546 279.891 96.6664 290.815 107.591C301.74 118.515 319.451 118.515 330.376 107.591Z"
      stroke="#263238" stroke-miterlimit="10" />
    <path
      d="M310.589 112.067C323.983 112.067 334.841 101.21 334.841 87.816C334.841 74.4222 323.983 63.5645 310.589 63.5645C297.196 63.5645 286.338 74.4222 286.338 87.816C286.338 101.21 297.196 112.067 310.589 112.067Z"
      fill="#263238" />
    <path d="M324.54 87.8142L301.053 74.2461V101.373L324.54 87.8142Z" fill="white" />
    <path
      d="M379.068 185.869C382.823 170.189 373.157 154.434 357.478 150.679C341.799 146.923 326.044 156.589 322.288 172.268C318.533 187.948 328.199 203.703 343.878 207.458C359.557 211.214 375.312 201.548 379.068 185.869Z"
      fill="#263238" />
    <path
      d="M370.976 183.932C373.649 172.732 366.736 161.486 355.536 158.814C344.336 156.142 333.091 163.055 330.419 174.254C327.746 185.454 334.659 196.7 345.859 199.372C357.059 202.044 368.304 195.131 370.976 183.932Z"
      fill="white" />
    <path
      d="M362.833 181.954C364.43 175.231 360.274 168.486 353.55 166.889C346.827 165.292 340.082 169.448 338.485 176.172C336.888 182.895 341.044 189.64 347.768 191.237C354.491 192.834 361.236 188.678 362.833 181.954Z"
      fill="#263238" />
    <path
      d="M357.255 180.65C358.113 177.031 355.874 173.403 352.255 172.545C348.637 171.688 345.008 173.926 344.15 177.545C343.293 181.164 345.531 184.793 349.15 185.65C352.769 186.508 356.398 184.269 357.255 180.65Z"
      fill="white" />
    <path
      d="M387.876 165.075L384.164 163.628L385.783 162.836C385.877 162.793 385.962 162.732 386.031 162.656C386.101 162.581 386.155 162.492 386.19 162.395C386.225 162.298 386.24 162.195 386.235 162.092C386.23 161.989 386.204 161.888 386.159 161.795C386.114 161.703 386.051 161.62 385.974 161.552C385.896 161.483 385.806 161.432 385.709 161.399C385.611 161.366 385.508 161.353 385.405 161.361C385.302 161.369 385.202 161.397 385.11 161.444L383.936 162.017L385.802 157.977L378.877 161.071L377.866 164.956L350.339 178.361C350.247 178.405 350.166 178.467 350.098 178.544C350.031 178.62 349.979 178.709 349.946 178.806C349.913 178.902 349.899 179.004 349.906 179.106C349.912 179.207 349.939 179.307 349.984 179.398C350.027 179.49 350.088 179.573 350.163 179.641C350.238 179.709 350.327 179.761 350.423 179.794C350.519 179.827 350.62 179.841 350.722 179.833C350.823 179.826 350.922 179.799 351.012 179.753L378.631 166.303L381.643 168.005L387.876 165.075Z"
      fill="#263238" />
    <path
      d="M73.5353 115.78C89.653 115.78 102.719 102.714 102.719 86.5958C102.719 70.4781 89.653 57.4121 73.5353 57.4121C57.4176 57.4121 44.3516 70.4781 44.3516 86.5958C44.3516 102.714 57.4176 115.78 73.5353 115.78Z"
      fill="white" stroke="#263238" stroke-width="2" stroke-miterlimit="10" />
    <path
      d="M73.5357 115.78C85.2257 115.78 94.7023 102.714 94.7023 86.5958C94.7023 70.4781 85.2257 57.4121 73.5357 57.4121C61.8457 57.4121 52.3691 70.4781 52.3691 86.5958C52.3691 102.714 61.8457 115.78 73.5357 115.78Z"
      fill="white" stroke="#263238" stroke-miterlimit="10" />
    <path
      d="M73.5344 115.78C78.5099 115.78 82.5434 102.714 82.5434 86.5958C82.5434 70.4781 78.5099 57.4121 73.5344 57.4121C68.5589 57.4121 64.5254 70.4781 64.5254 86.5958C64.5254 102.714 68.5589 115.78 73.5344 115.78Z"
      fill="white" stroke="#263238" stroke-miterlimit="10" />
    <path d="M58.0742 61.9434H89.5147" stroke="#263238" stroke-miterlimit="10" />
    <path d="M47.5 73.3828H99.5247" stroke="#263238" stroke-miterlimit="10" />
    <path d="M44.4961 84.8125H102.663" stroke="#263238" stroke-miterlimit="10" />
    <path d="M45.7793 96.25H100.953" stroke="#263238" stroke-miterlimit="10" />
    <path d="M53.6426 107.68H93.9465" stroke="#263238" stroke-miterlimit="10" />
    <path
      d="M35.1837 208.367C51.3014 208.367 64.3674 195.301 64.3674 179.184C64.3674 163.066 51.3014 150 35.1837 150C19.066 150 6 163.066 6 179.184C6 195.301 19.066 208.367 35.1837 208.367Z"
      fill="#263238" stroke="#263238" stroke-width="2" stroke-miterlimit="10" />
    <path d="M48.2539 259.477L193.071 177.969L341.438 259.477V377.641H50.0375L48.2539 259.477Z" fill="#263238"
      stroke="#263238" stroke-linecap="round" stroke-linejoin="round" />
    <path d="M303.245 199.955H86.4648V392.748H303.245V199.955Z" fill="white" stroke="#263238" stroke-miterlimit="10" />
    <path d="M111.336 233.715H275.7" stroke="#263238" stroke-miterlimit="10" />
    <path d="M111.336 250.596H275.7" stroke="#263238" stroke-miterlimit="10" />
    <path d="M111.336 267.477H275.7" stroke="#263238" stroke-miterlimit="10" />
    <path d="M111.336 284.357H275.7" stroke="#263238" stroke-miterlimit="10" />
    <path d="M111.336 301.236H275.7" stroke="#263238" stroke-miterlimit="10" />
    <path d="M111.336 318.117H275.7" stroke="#263238" stroke-miterlimit="10" />
    <path d="M341.438 422.066H48.2539V259.477L194.855 358.985L341.438 259.477V422.066Z" fill="#29538E" stroke="#263238"
      stroke-miterlimit="10" />
    <path d="M48.2539 422.066L154.851 331.785" stroke="#263238" stroke-miterlimit="10" />
    <path d="M340.974 422.067L235.168 331.641" stroke="#263238" stroke-miterlimit="10" />
    <path
      d="M226.56 146.209C226.56 146.209 225.459 151.36 226.933 153.016C228.407 154.672 233.922 160.56 233.922 161.479C233.922 162.398 232.102 188.897 232.102 188.897L223.639 182.827L218.488 198.652C218.488 198.652 231.365 204.176 237.444 205.277C243.522 206.378 244.614 204.722 244.614 199.945C244.614 195.167 239.828 158.54 239.828 158.54C239.828 158.54 241.302 150.077 241.302 148.602C241.302 147.128 241.857 146.391 240.565 145.654C239.273 144.917 228.789 143.834 228.789 143.834C228.789 143.834 226.56 144.735 226.56 146.209Z"
      fill="white" stroke="#263238" stroke-linecap="round" stroke-linejoin="round" />
    <path d="M223.831 185.057L221.037 199.234L218.471 198.652L223.831 185.057Z" fill="#263238" stroke="#263238"
      stroke-linecap="round" stroke-linejoin="round" />
    <path
      d="M244.459 150.341L223.611 147.538V142.342C223.611 142.1 223.707 141.869 223.878 141.698C224.049 141.528 224.28 141.432 224.521 141.432C224.763 141.432 224.994 141.528 225.165 141.698C225.335 141.869 225.431 142.1 225.431 142.342V145.982L242.858 148.329L243.158 144.125C243.139 143.991 243.15 143.854 243.191 143.724C243.232 143.595 243.301 143.476 243.394 143.377C243.486 143.277 243.6 143.2 243.727 143.15C243.853 143.101 243.989 143.08 244.124 143.09C244.26 143.1 244.391 143.14 244.509 143.207C244.627 143.274 244.729 143.367 244.806 143.478C244.884 143.59 244.935 143.717 244.957 143.851C244.979 143.985 244.971 144.122 244.933 144.253L244.459 150.341Z"
      fill="#263238" />
    <path d="M228.408 148.603L239.811 149.704L240.548 145.655L228.772 143.816L228.408 148.603Z" fill="white"
      stroke="#263238" stroke-linecap="round" stroke-linejoin="round" />
    <path
      d="M226.379 149.159C226.379 149.159 226.379 144.554 226.934 144.19C227.489 143.826 235.397 144.372 235.397 145.473C235.397 146.575 235.397 147.13 234.487 147.13C233.577 147.13 231.757 147.312 231.757 147.312C231.757 147.312 235.988 151.179 234.696 154.674"
      fill="white" />
    <path
      d="M226.379 149.159C226.379 149.159 226.379 144.554 226.934 144.19C227.489 143.826 235.397 144.372 235.397 145.473C235.397 146.575 235.397 147.13 234.487 147.13C233.577 147.13 231.757 147.312 231.757 147.312C231.757 147.312 235.988 151.179 234.696 154.674"
      stroke="#263238" stroke-linecap="round" stroke-linejoin="round" />
    <path d="M232.085 188.898L231.348 196.997" stroke="#263238" stroke-linecap="round" stroke-linejoin="round" />
    <path
      d="M138.636 185.367C138.636 185.367 112.629 205.66 113.302 207.853C113.975 210.046 133.267 228.492 139.646 233.015C146.026 237.537 149.547 239.567 149.547 239.567L153.569 242.078C153.569 242.078 151.895 244.808 152.905 245.272C153.915 245.737 157.601 247.62 158.101 246.61C158.602 245.6 161.295 238.056 160.959 236.209C160.622 234.362 150.885 232.851 150.221 232.178C149.556 231.504 133.604 206.698 133.604 206.698L146.026 196.97L138.636 185.367Z"
      fill="white" stroke="#263238" stroke-linecap="round" stroke-linejoin="round" />
    <path d="M138.189 186.041L142.912 198.845L146.025 196.943L138.189 186.041Z" fill="#263238" stroke="#263238"
      stroke-linecap="round" stroke-linejoin="round" />
    <path d="M153.57 242.061C153.57 242.061 154.753 244.581 156.764 244.791" stroke="#263238" stroke-linecap="round"
      stroke-linejoin="round" />
    <path d="M133.604 206.67L130.246 200.801" stroke="#263238" stroke-linecap="round" stroke-linejoin="round" />
    <path d="M155.925 390.408L155.652 405.323L167.874 405.587L168.957 389.334L155.925 390.408Z" fill="white"
      stroke="#263238" stroke-linecap="round" stroke-linejoin="round" />
    <path d="M155.973 389.598V393.283L168.649 393.875L168.94 390.044L155.973 389.598Z" fill="#263238" stroke="#263238"
      stroke-linecap="round" stroke-linejoin="round" />
    <path
      d="M161.696 401.428C161.696 401.428 160.086 395.112 157.665 394.976C155.244 394.839 154.025 396.723 153.115 398.47C152.205 400.217 146.263 406.123 144.242 407.57C142.222 409.017 137.8 410.928 137.126 415.223C136.453 419.518 139.001 421.275 140.766 421.675C142.532 422.076 150.44 422.212 155.144 421.675C159.849 421.138 172.671 422.412 173.417 421.675C174.163 420.938 175.164 418.581 174.491 416.97C173.963 415.798 173.333 414.674 172.607 413.613C172.607 413.613 173.954 409.718 173.144 407.57C172.334 405.423 170.723 402.729 170.996 401.519C171.269 400.308 174.218 397.76 172.207 397.624C170.196 397.487 166.965 399.908 164.927 400.581C163.879 400.965 162.797 401.248 161.696 401.428Z"
      fill="#263238" stroke="#263238" stroke-linecap="round" stroke-linejoin="round" />
    <path
      d="M170.295 414.186C168.412 414.459 161.195 417.945 156.591 419.027C151.986 420.11 148 420.229 145.844 419.155C143.687 418.081 141.812 414.86 140.202 412.84C138.591 410.819 137.253 415.933 137.253 415.933L137.026 416.034C136.753 419.774 139.101 421.33 140.739 421.712C142.377 422.094 150.412 422.249 155.117 421.712C159.821 421.175 172.643 422.449 173.389 421.712C174.136 420.975 175.137 418.618 174.463 417.007C173.935 415.835 173.305 414.711 172.579 413.649C171.779 413.513 172.179 413.922 170.295 414.186Z"
      fill="white" stroke="#263238" stroke-linecap="round" stroke-linejoin="round" />
    <path
      d="M150.729 402.22C150.729 402.22 154.369 401.42 158.919 405.86L156.508 407.871C156.508 407.871 151.803 404.231 148.846 404.231L150.729 402.22Z"
      fill="white" stroke="#263238" stroke-linecap="round" stroke-linejoin="round" />
    <path
      d="M147.327 404.95C147.327 404.95 150.967 404.14 155.517 408.59L153.106 410.61C153.106 410.61 148.401 406.97 145.443 406.97L147.327 404.95Z"
      fill="white" stroke="#263238" stroke-linecap="round" stroke-linejoin="round" />
    <path d="M157.938 404.513L161.696 401.428" stroke="#263238" stroke-linecap="round" stroke-linejoin="round" />
    <path
      d="M153.105 410.564C153.105 410.564 154.015 412.575 152.431 413.785C150.848 414.996 140.201 412.975 140.337 411.501C140.474 410.027 145.442 406.951 145.442 406.951C148.22 407.61 150.829 408.841 153.105 410.564Z"
      fill="white" stroke="#263238" stroke-linecap="round" stroke-linejoin="round" />
    <path d="M233.012 390.408L233.276 405.323L221.054 405.587L219.98 389.334L233.012 390.408Z" fill="white"
      stroke="#263238" stroke-linecap="round" stroke-linejoin="round" />
    <path d="M220.217 392.101V394.312L233.184 394.166L233.039 390.927L219.926 390.781L220.217 392.101Z" fill="#263238"
      stroke="#263238" stroke-linecap="round" stroke-linejoin="round" />
    <path
      d="M227.235 401.428C227.235 401.428 228.846 395.112 231.266 394.976C233.687 394.839 234.906 396.723 235.816 398.47C236.726 400.217 242.668 406.123 244.68 407.57C246.691 409.017 251.131 410.928 251.796 415.223C252.46 419.518 249.921 421.275 248.156 421.675C246.39 422.076 238.482 422.212 233.778 421.675C229.073 421.138 216.251 422.412 215.514 421.675C214.777 420.938 213.767 418.581 214.431 416.97C214.959 415.798 215.589 414.674 216.315 413.613C216.315 413.613 214.968 409.718 215.778 407.57C216.588 405.423 218.199 402.729 217.926 401.519C217.653 400.308 214.704 397.76 216.715 397.624C218.726 397.487 221.957 399.908 223.995 400.581C225.046 400.966 226.13 401.25 227.235 401.428Z"
      fill="#263238" stroke="#263238" stroke-linecap="round" stroke-linejoin="round" />
    <path
      d="M218.634 414.186C220.518 414.459 227.734 417.945 232.339 419.027C236.943 420.11 240.938 420.229 243.086 419.155C245.233 418.081 247.117 414.86 248.728 412.84C250.339 410.819 251.685 415.933 251.685 415.933L251.904 416.034C252.177 419.774 249.829 421.33 248.191 421.712C246.553 422.094 238.518 422.249 233.813 421.712C229.108 421.175 216.286 422.449 215.549 421.712C214.812 420.975 213.802 418.618 214.466 417.007C214.994 415.835 215.624 414.711 216.35 413.649C217.16 413.513 216.75 413.922 218.634 414.186Z"
      fill="white" stroke="#263238" stroke-linecap="round" stroke-linejoin="round" />
    <path
      d="M238.245 402.22C238.245 402.22 234.605 401.42 230.055 405.86L232.475 407.871C232.475 407.871 237.171 404.231 240.128 404.231L238.245 402.22Z"
      fill="white" stroke="#263238" stroke-linecap="round" stroke-linejoin="round" />
    <path
      d="M241.602 404.95C241.602 404.95 237.962 404.14 233.412 408.59L235.833 410.61C235.833 410.61 240.528 406.97 243.486 406.97L241.602 404.95Z"
      fill="white" stroke="#263238" stroke-linecap="round" stroke-linejoin="round" />
    <path d="M230.993 404.513L227.234 401.428" stroke="#263238" stroke-linecap="round" stroke-linejoin="round" />
    <path
      d="M235.834 410.564C235.834 410.564 234.924 412.575 236.498 413.785C238.072 414.996 248.729 412.975 248.592 411.501C248.456 410.027 243.487 406.951 243.487 406.951C240.712 407.61 238.106 408.84 235.834 410.564Z"
      fill="white" stroke="#263238" stroke-linecap="round" stroke-linejoin="round" />
    <path
      d="M161.54 232.96C161.54 232.96 154.433 261.98 151.767 286.568C149.101 311.157 144.951 391.701 144.951 391.701H177.529C177.529 391.701 187.303 309.955 188.786 295.45C190.269 280.945 190.26 271.79 190.26 271.79L208.624 391.737H247.417C247.417 391.737 232.611 315.625 226.687 280.717C220.763 245.81 212.473 232.15 212.473 232.15L161.54 232.96Z"
      fill="#B0B0B0" stroke="#263238" stroke-linecap="round" stroke-linejoin="round" />
    <path
      d="M189.378 235.062C189.096 235.908 181.379 247.501 183.745 248.384C186.111 249.267 190.561 249.294 190.561 246.91V237.428C190.561 237.428 191.153 250.759 193.819 250.168C196.485 249.576 200.034 250.168 199.151 247.201C198.269 244.234 191.453 234.78 191.453 234.78C191.453 234.78 190.261 232.395 189.378 235.062Z"
      fill="#B0B0B0" stroke="#263238" stroke-linecap="round" stroke-linejoin="round" />
    <path
      d="M190.598 236.035C190.598 236.035 197.313 245.572 196.667 246.436C196.021 247.301 195.148 248.165 194.502 246.873C193.855 245.581 190.598 236.035 190.598 236.035Z"
      stroke="#263238" stroke-miterlimit="10" />
    <path
      d="M190.379 234.953C190.379 234.953 185.392 245.573 186.048 246.001C186.281 246.145 186.546 246.232 186.82 246.253C187.094 246.275 187.369 246.231 187.622 246.125C187.876 246.019 188.101 245.854 188.278 245.644C188.455 245.434 188.579 245.185 188.641 244.918C189.078 243.407 190.379 234.953 190.379 234.953Z"
      stroke="#263238" stroke-miterlimit="10" />
    <path d="M210.617 265.219C210.89 266.72 211.127 268.14 211.291 269.414" stroke="#263238" stroke-linecap="round"
      stroke-linejoin="round" />
    <path d="M203.592 235.953C203.592 235.953 207.286 249.148 209.661 260.35" stroke="#263238" stroke-linecap="round"
      stroke-linejoin="round" />
    <path d="M200.926 235.953C200.926 235.953 203.292 252.533 204.475 256.974" stroke="#263238" stroke-linecap="round"
      stroke-linejoin="round" />
    <path d="M168.693 258.914C168.566 260.061 168.457 261.107 168.348 262.008" stroke="#263238" stroke-linecap="round"
      stroke-linejoin="round" />
    <path d="M171.013 235.953C171.013 235.953 170.031 246.081 169.193 254.453" stroke="#263238" stroke-linecap="round"
      stroke-linejoin="round" />
    <path d="M168.647 236.545L167.455 250.759" stroke="#263238" stroke-linecap="round" stroke-linejoin="round" />
    <path
      d="M189.397 115.115C189.397 115.115 200.435 116.216 197.86 121.922C195.285 127.628 192.709 128.729 192.154 128.729C191.599 128.729 187.186 121.922 187.186 121.922L189.397 115.115Z"
      fill="#263238" stroke="#263238" stroke-linecap="round" stroke-linejoin="round" />
    <path
      d="M188.104 120.448C188.104 120.448 192.336 122.841 193.628 127.255C194.92 131.668 198.223 132.96 199.151 132.778C200.08 132.596 201.354 135.354 200.253 137.192L199.151 139.012C199.151 139.012 200.061 151.524 198.96 153.18C197.859 154.837 191.052 153.918 191.052 153.918C191.052 153.918 189.578 159.805 190.87 163.491C192.163 167.176 196.021 169.005 197.495 169.005C198.969 169.005 202.091 167.185 206.322 169.378C210.554 171.572 224.722 182.255 224.722 182.255L217.16 202.93L209.061 198.699L214.767 233.843L159.566 235.135C159.566 235.135 160.122 210.11 158.656 205.505C157.633 202.454 156.338 199.5 154.789 196.678L147.8 202.193L138.045 185.267C138.045 185.267 152.396 170.916 158.065 169.624C163.734 168.332 170.577 169.997 172.789 167.231C175 164.464 173.153 151.406 173.153 151.406C173.153 151.406 167.82 149.586 164.69 140.186C161.559 130.785 172.234 121.076 172.234 121.076C172.234 121.076 177.066 116.034 188.104 120.448Z"
      fill="white" stroke="#263238" stroke-linecap="round" stroke-linejoin="round" />
    <path d="M191.052 153.935L186.074 153.098L190.069 157.693L191.052 153.935Z" fill="#263238" stroke="#263238"
      stroke-linecap="round" stroke-linejoin="round" />
    <path d="M188.713 130.412C188.713 130.412 188.713 126.918 191.843 126.918" stroke="#263238" stroke-width="2"
      stroke-linecap="round" stroke-linejoin="round" />
    <path
      d="M196.941 143.08L190.498 139.949C190.498 139.949 189.952 146.574 192.318 146.392C194.684 146.21 196.941 143.08 196.941 143.08Z"
      fill="#263238" stroke="#263238" stroke-linecap="round" stroke-linejoin="round" />
    <path d="M190.633 133.825C190.633 133.825 192.708 131.577 194.437 133.479" stroke="#263238" stroke-linecap="round"
      stroke-linejoin="round" />
    <path
      d="M190.451 142.05L196.239 143.934C196.488 143.661 196.722 143.376 196.94 143.078L190.497 139.957C190.497 139.957 190.424 140.894 190.451 142.05Z"
      fill="white" stroke="#263238" stroke-linecap="round" stroke-linejoin="round" />
    <path
      d="M154.434 128.365C154.434 128.365 150.384 120.084 144.679 121.003C138.973 121.922 134.559 128.174 136.398 137.01C136.398 137.01 137.308 139.403 138.054 141.423C138.054 141.423 130.883 139.221 127.015 143.999C123.148 148.776 126.105 153.754 130.51 156.147C134.914 158.54 137.508 158.358 137.508 158.358C137.508 158.358 127.753 161.298 131.247 164.983C134.741 168.669 145.416 166.266 143.204 163.163C140.993 160.06 139.346 160.433 139.346 160.433C139.346 160.433 148.173 157.121 147.254 154.727C146.335 152.334 141.921 150.496 141.921 150.496C141.921 150.496 150.384 153.444 154.989 150.678C159.593 147.912 155.535 136.118 155.535 136.118L154.434 128.365Z"
      fill="#263238" stroke="#263238" stroke-linecap="round" stroke-linejoin="round" />
    <path
      d="M191.416 111.065C191.416 111.065 192.89 116.215 190.315 120.629C187.739 125.042 182.216 132.595 181.479 141.058C180.742 149.521 183.135 160.014 184.609 163.508C186.083 167.003 182.789 167.74 180.378 167.558C177.966 167.376 177.065 165.901 177.065 162.589C177.065 159.277 176.328 153.389 176.328 153.389C176.328 153.389 166.946 152.479 162.532 149.885C158.119 147.292 151.676 138.483 154.433 128.364C157.191 118.245 164.553 115.296 168.993 113.458C173.434 111.62 179.486 111.802 183.717 110.883C187.949 109.964 191.234 108.854 191.416 111.065Z"
      fill="#263238" stroke="#263238" stroke-linecap="round" stroke-linejoin="round" />
    <path
      d="M178.031 136.829L176.375 143.453C176.375 143.453 172.88 141.797 172.325 138.849C171.77 135.9 175.965 134.435 178.95 137.029"
      fill="white" />
    <path
      d="M178.031 136.829L176.375 143.453C176.375 143.453 172.88 141.797 172.325 138.849C171.77 135.9 175.965 134.435 178.95 137.029"
      stroke="#263238" stroke-linecap="round" stroke-linejoin="round" />
    <path d="M231.719 147.311L229.326 147.502" stroke="#263238" stroke-linecap="round" stroke-linejoin="round" />
    <path d="M214.502 141.996L275.836 150.578L267.501 105.205L212.609 131.641L214.502 141.996Z" fill="#29538E"
      stroke="#263238" stroke-linecap="round" stroke-linejoin="round" />
    <path d="M212.607 131.643L203.494 133.309L205.379 143.621L214.492 141.955L212.607 131.643Z" fill="#29538E"
      stroke="#263238" stroke-linecap="round" stroke-linejoin="round" />
    <path
      d="M224.722 182.273C224.722 182.273 210.553 171.599 206.322 169.397C202.09 167.195 199.042 168.978 197.558 169.024C195.586 171.865 192.929 174.163 189.835 175.707C186.74 177.252 183.306 177.992 179.85 177.86C167.747 177.705 164.38 170.971 163.652 169.005C161.8 169.023 159.953 169.215 158.137 169.579C152.431 170.871 138.117 185.222 138.117 185.222L147.872 202.148L154.861 196.633C156.411 199.454 157.705 202.408 158.729 205.46C160.203 210.065 159.639 235.09 159.639 235.09L214.839 233.797L209.134 198.653L217.16 202.93L224.722 182.273Z"
      fill="#263238" stroke="#263238" stroke-linecap="round" stroke-linejoin="round" />
    <path
      d="M189.798 217.32C198.921 215.149 204.556 205.992 202.384 196.869C200.213 187.746 191.056 182.111 181.933 184.283C172.81 186.454 167.175 195.611 169.346 204.734C171.518 213.857 180.675 219.492 189.798 217.32Z"
      stroke="white" stroke-miterlimit="10" />
    <path d="M196.24 193.102H176.102L186.03 202.666L196.24 193.102Z" fill="#29538E" />
    <path d="M190.061 200.555L197.068 206.743V193.984L190.061 200.555Z" fill="#29538E" />
    <path d="M182.071 200.537L174.973 193.693V206.452L182.071 200.537Z" fill="#29538E" />
    <path d="M189.169 201.383L186.02 204.34L182.954 201.383L175.564 207.544H196.14L189.169 201.383Z" fill="#29538E" />
    <path d="M-6.41797 422.066H394.273" stroke="#263238" stroke-miterlimit="10" />
    <path
      d="M46 165H24C23.2044 165 22.4413 165.316 21.8787 165.879C21.3161 166.441 21 167.204 21 168V190C21 190.796 21.3161 191.559 21.8787 192.121C22.4413 192.684 23.2044 193 24 193H32.5781V183.481H28.6406V179H32.5781V175.585C32.5781 171.701 34.8906 169.555 38.4325 169.555C40.1287 169.555 41.9025 169.858 41.9025 169.858V173.67H39.9481C38.0225 173.67 37.4219 174.865 37.4219 176.091V179H41.7206L41.0331 183.481H37.4219V193H46C46.7956 193 47.5587 192.684 48.1213 192.121C48.6839 191.559 49 190.796 49 190V168C49 167.204 48.6839 166.441 48.1213 165.879C47.5587 165.316 46.7956 165 46 165Z"
      fill="white" />
  </g>
  <defs>
    <clipPath id="clip0">
      <rect width="391" height="422" fill="white" />
    </clipPath>
  </defs>
</svg>