<svg width="21" height="22" viewBox="0 0 21 22" fill="none" xmlns="http://www.w3.org/2000/svg">
  <g clip-path="url(#clip0)">
    <path
      d="M13.6874 9.01175C13.6874 8.32609 13.4841 7.65583 13.1032 7.08571C12.7223 6.5156 12.1808 6.07124 11.5474 5.80884C10.9139 5.54644 10.2169 5.47777 9.54438 5.61152C8.87189 5.74528 8.25417 6.07545 7.76933 6.56027C7.28448 7.0451 6.9543 7.66282 6.82053 8.3353C6.68675 9.00778 6.7554 9.70484 7.01779 10.3383C7.28018 10.9718 7.72452 11.5132 8.29462 11.8941C8.86473 12.2751 9.53499 12.4784 10.2206 12.4784C11.1398 12.4774 12.0209 12.1118 12.6708 11.4619C13.3207 10.812 13.6863 9.93085 13.6874 9.01175ZM7.39557 9.01175C7.39556 8.453 7.56123 7.9068 7.87164 7.4422C8.18205 6.97761 8.62326 6.6155 9.13948 6.40166C9.65569 6.18782 10.2237 6.13187 10.7717 6.24086C11.3198 6.34986 11.8231 6.61891 12.2182 7.014C12.6133 7.40909 12.8824 7.91247 12.9914 8.46048C13.1004 9.0085 13.0445 9.57653 12.8307 10.0927C12.6169 10.609 12.2548 11.0502 11.7902 11.3606C11.3256 11.671 10.7794 11.8367 10.2206 11.8367C9.47167 11.8359 8.75361 11.538 8.22399 11.0084C7.69437 10.4788 7.39645 9.76073 7.39557 9.01175Z"
      fill="black" />
    <path
      d="M14.7674 9.01101C14.7674 7.80529 14.2884 6.64895 13.4359 5.79638C12.5833 4.94381 11.4269 4.46484 10.2212 4.46484C9.01552 4.46484 7.85919 4.94381 7.00662 5.79638C6.15405 6.64895 5.67508 7.80529 5.67508 9.01101C5.67508 11.4102 7.56341 13.381 9.9009 13.5457V15.3831C9.44257 14.8193 8.86049 14.3896 8.16007 14.162C7.59396 13.9777 6.9912 13.9357 6.40498 14.0395C5.81877 14.1433 5.26713 14.3899 4.79874 14.7574C4.74851 14.7967 4.71115 14.8502 4.69145 14.9109C4.67175 14.9716 4.6706 15.0368 4.68815 15.0981C4.90471 15.8572 5.36264 16.5251 5.99263 17.0006C6.62262 17.4762 7.39038 17.7337 8.17973 17.734C8.78042 17.7317 9.37138 17.5822 9.901 17.2988V19.9647C9.901 20.0498 9.9348 20.1314 9.99497 20.1916C10.0551 20.2517 10.1367 20.2855 10.2218 20.2855C10.3069 20.2855 10.3885 20.2517 10.4487 20.1916C10.5089 20.1314 10.5427 20.0498 10.5427 19.9647V17.2999C11.0721 17.5825 11.6626 17.7315 12.2627 17.7339C13.0522 17.7338 13.8202 17.4764 14.4504 17.0008C15.0805 16.5252 15.5386 15.8572 15.7552 15.098C15.7728 15.0367 15.7716 14.9715 15.7519 14.9108C15.7322 14.8501 15.6948 14.7966 15.6445 14.7573C15.176 14.3898 14.6243 14.1432 14.0379 14.0394C13.4516 13.9356 12.8487 13.9776 12.2825 14.1619C11.5831 14.3891 11.001 14.8178 10.5427 15.3803V13.5454C12.8802 13.3797 14.7674 11.4094 14.7674 9.01101ZM12.4814 14.7723C12.9119 14.6321 13.3687 14.5917 13.8171 14.6541C14.2655 14.7166 14.6939 14.8802 15.0698 15.1326C14.9139 15.5576 14.6635 15.9417 14.3375 16.2558C14.0114 16.5699 13.6183 16.8059 13.1877 16.9458C12.7572 17.0857 12.3005 17.126 11.8521 17.0636C11.4036 17.0012 10.9753 16.8377 10.5993 16.5855C10.755 16.1603 11.0054 15.7761 11.3314 15.462C11.6575 15.1479 12.0507 14.912 12.4814 14.7723ZM6.31738 9.01101C6.31736 8.23877 6.54633 7.48387 6.97534 6.84177C7.40434 6.19967 8.01413 5.69921 8.72757 5.40367C9.44101 5.10813 10.2261 5.03079 10.9835 5.18142C11.7409 5.33206 12.4366 5.70392 12.9826 6.24996C13.5287 6.796 13.9006 7.49171 14.0512 8.2491C14.2019 9.00649 14.1246 9.79155 13.8291 10.505C13.5336 11.2185 13.0331 11.8283 12.391 12.2573C11.749 12.6863 10.9941 12.9153 10.2218 12.9153C9.18669 12.9142 8.19427 12.5024 7.4623 11.7705C6.73034 11.0385 6.31859 10.0461 6.31738 9.01101ZM7.25605 16.9456C6.8254 16.8059 6.43218 16.5701 6.10612 16.2559C5.78006 15.9418 5.5297 15.5577 5.374 15.1326C5.74997 14.8803 6.17833 14.7168 6.62674 14.6544C7.07514 14.592 7.53187 14.6323 7.96243 14.7722C8.39299 14.9122 8.78613 15.1481 9.11216 15.4622C9.43819 15.7763 9.68858 16.1604 9.84444 16.5855C9.46853 16.8378 9.04016 17.0014 8.59173 17.0637C8.1433 17.1261 7.68656 17.0857 7.25605 16.9455V16.9456Z"
      fill="black" />
    <path
      d="M10.9462 1.56656L12.051 0.555611C12.0821 0.527165 12.1073 0.492876 12.1251 0.4547C12.143 0.416524 12.1531 0.37521 12.155 0.333115C12.1568 0.291021 12.1504 0.248972 12.136 0.209367C12.1216 0.169763 12.0996 0.13338 12.0711 0.102295C12.0427 0.0712107 12.0084 0.0460331 11.9702 0.0282001C11.932 0.0103671 11.8907 0.000228036 11.8486 -0.00163823C11.8065 -0.0035045 11.7645 0.00293854 11.7249 0.0173231C11.6853 0.0317076 11.6489 0.053752 11.6178 0.0821974L9.92775 1.62889C9.89637 1.65761 9.87102 1.69228 9.85316 1.73088C9.83531 1.76948 9.82531 1.81125 9.82374 1.85376C9.82218 1.89626 9.82908 1.93866 9.84405 1.97847C9.85901 2.01828 9.88175 2.05472 9.91093 2.08567L11.4876 3.75712C11.5463 3.8178 11.6265 3.85291 11.7109 3.85486C11.7952 3.8568 11.877 3.82542 11.9384 3.76751C11.9998 3.7096 12.0359 3.62983 12.0389 3.54548C12.0419 3.46113 12.0115 3.379 11.9544 3.31689L10.9087 2.20823C15.8456 2.55945 19.7722 6.66965 19.8087 11.7014C19.8224 13.5976 19.2736 15.4552 18.2315 17.0395C17.1895 18.6237 15.7011 19.8633 13.9545 20.6017C12.208 21.34 10.2817 21.5438 8.4193 21.1874C6.5569 20.8309 4.84202 19.9302 3.49151 18.5992C2.4843 17.6063 1.70919 16.4029 1.22173 15.0753C0.734268 13.7477 0.546534 12.3286 0.671979 10.9199C0.797424 9.51119 1.23294 8.14766 1.94732 6.92704C2.6617 5.70643 3.63724 4.65895 4.80404 3.85969C4.83921 3.83604 4.86934 3.80565 4.8927 3.77028C4.91605 3.73492 4.93217 3.69527 4.94012 3.65364C4.94806 3.61201 4.94768 3.56922 4.939 3.52773C4.93031 3.48625 4.91349 3.4469 4.88951 3.41195C4.86553 3.377 4.83486 3.34715 4.79928 3.32413C4.7637 3.3011 4.72391 3.28535 4.6822 3.27779C4.6405 3.27023 4.59771 3.27101 4.55631 3.28008C4.51491 3.28915 4.47572 3.30633 4.44099 3.33064C2.63887 4.56503 1.27919 6.34386 0.560973 8.40676C-0.157246 10.4697 -0.196286 12.7083 0.449567 14.795C1.09542 16.8816 2.39225 18.7068 4.15024 20.0033C5.90822 21.2998 8.03504 21.9995 10.2194 22C10.2447 22 10.2703 22 10.2956 21.9997C12.3187 21.9851 14.292 21.3709 15.9659 20.2347C17.6399 19.0986 18.9394 17.4916 19.7 15.6169C20.4607 13.7422 20.6484 11.6841 20.2393 9.70277C19.8303 7.72144 18.8429 5.9059 17.402 4.48573C15.6707 2.76854 13.379 1.73226 10.9462 1.56656Z"
      fill="black" />
    <path
      d="M10.6091 11.1409C10.6744 11.1409 10.7383 11.121 10.792 11.0838C10.8458 11.0466 10.8869 10.9938 10.9098 10.9326C10.9327 10.8713 10.9364 10.8046 10.9203 10.7412C10.9043 10.6778 10.8692 10.6209 10.8199 10.5779L9.91698 9.79369C10.2036 9.78446 10.4796 9.68272 10.7036 9.50369C10.9277 9.32466 11.0878 9.07794 11.16 8.80039H11.3841C11.4691 8.80039 11.5507 8.76659 11.6109 8.70642C11.6711 8.64625 11.7049 8.56465 11.7049 8.47956C11.7049 8.39447 11.6711 8.31286 11.6109 8.25269C11.5507 8.19253 11.4691 8.15872 11.3841 8.15872H11.1595C11.1253 8.03123 11.0763 7.90817 11.0135 7.79206H11.3839C11.469 7.79206 11.5506 7.75826 11.6108 7.69809C11.6709 7.63792 11.7047 7.55631 11.7047 7.47122C11.7047 7.38613 11.6709 7.30453 11.6108 7.24436C11.5506 7.18419 11.469 7.15039 11.3839 7.15039H9.05948C8.97439 7.15039 8.89279 7.18419 8.83262 7.24436C8.77245 7.30453 8.73865 7.38613 8.73865 7.47122C8.73865 7.55631 8.77245 7.63792 8.83262 7.69809C8.89279 7.75826 8.97439 7.79206 9.05948 7.79206H9.88489C10.0081 7.79091 10.129 7.82477 10.2337 7.88968C10.3383 7.95459 10.4224 8.04789 10.4761 8.15872H9.0599C8.97481 8.15872 8.8932 8.19253 8.83303 8.25269C8.77287 8.31286 8.73906 8.39447 8.73906 8.47956C8.73906 8.56465 8.77287 8.64625 8.83303 8.70642C8.8932 8.76659 8.97481 8.80039 9.0599 8.80039H10.4771C10.4233 8.91127 10.3391 9.00459 10.2344 9.0695C10.1296 9.13441 10.0085 9.16824 9.88531 9.16706H9.05948C8.99472 9.16531 8.93101 9.18372 8.87715 9.21974C8.8233 9.25576 8.78196 9.30762 8.75885 9.36815C8.73574 9.42868 8.732 9.49489 8.74815 9.55764C8.76429 9.62039 8.79952 9.67657 8.84897 9.71843L10.3987 11.0641C10.4572 11.1144 10.5319 11.1417 10.6091 11.1409Z"
      fill="black" />
  </g>
  <defs>
    <clipPath id="clip0">
      <rect width="20.4417" height="22" fill="white" />
    </clipPath>
  </defs>
</svg>