<svg width="22" height="22" viewBox="0 0 22 22" fill="none" xmlns="http://www.w3.org/2000/svg">
  <path
    d="M11 0C8.82441 0 6.69767 0.645139 4.88873 1.85383C3.07979 3.06253 1.66989 4.78049 0.83733 6.79048C0.0047662 8.80047 -0.213071 11.0122 0.211367 13.146C0.635804 15.2798 1.68345 17.2398 3.22183 18.7782C4.76021 20.3165 6.72022 21.3642 8.85401 21.7886C10.9878 22.2131 13.1995 21.9952 15.2095 21.1627C17.2195 20.3301 18.9375 18.9202 20.1462 17.1113C21.3549 15.3023 22 13.1756 22 11C21.9961 8.08383 20.8359 5.28823 18.7738 3.22618C16.7118 1.16414 13.9162 0.00394611 11 0ZM11 20.8814C9.04566 20.8814 7.1352 20.3018 5.51022 19.216C3.88524 18.1303 2.61872 16.587 1.87082 14.7814C1.12293 12.9758 0.927242 10.989 1.30852 9.07224C1.68979 7.15545 2.6309 5.39476 4.01283 4.01283C5.39476 2.63089 7.15545 1.68979 9.07225 1.30851C10.989 0.927237 12.9759 1.12292 14.7814 1.87082C16.587 2.61871 18.1303 3.88523 19.216 5.51021C20.3018 7.13519 20.8814 9.04565 20.8814 11C20.8794 13.6201 19.8377 16.1323 17.985 17.985C16.1323 19.8377 13.6201 20.8794 11 20.8814Z"
    fill="black" />
  <path
    d="M11.0006 1.98438C9.2174 1.98438 7.47419 2.51317 5.99148 3.50389C4.50876 4.49461 3.35312 5.90276 2.6707 7.55027C1.98828 9.19777 1.80973 11.0106 2.15762 12.7596C2.50552 14.5086 3.36424 16.1152 4.62518 17.3761C5.88613 18.6371 7.49268 19.4958 9.24166 19.8437C10.9906 20.1916 12.8035 20.013 14.451 19.3306C16.0985 18.6482 17.5067 17.4925 18.4974 16.0098C19.4881 14.5271 20.0169 12.7839 20.0169 11.0006C20.013 8.61059 19.0618 6.31956 17.3718 4.62954C15.6817 2.93951 13.3907 1.98832 11.0006 1.98438ZM17.6081 11.56H18.8684C18.7499 13.2615 18.0826 14.8787 16.9667 16.1688L16.0718 15.2739C16.0206 15.2189 15.9589 15.1748 15.8903 15.1443C15.8217 15.1137 15.7476 15.0973 15.6725 15.0959C15.5974 15.0946 15.5228 15.1084 15.4531 15.1366C15.3835 15.1647 15.3202 15.2066 15.2671 15.2597C15.214 15.3128 15.1721 15.376 15.144 15.4457C15.1159 15.5153 15.1021 15.5899 15.1034 15.665C15.1047 15.7401 15.1212 15.8142 15.1517 15.8828C15.1823 15.9514 15.2264 16.0132 15.2813 16.0644L16.1762 16.9593C14.8872 18.0778 13.2699 18.7478 11.5674 18.8684V17.6081C11.5674 17.4598 11.5085 17.3175 11.4036 17.2126C11.2987 17.1077 11.1564 17.0488 11.0081 17.0488C10.8598 17.0488 10.7175 17.1077 10.6126 17.2126C10.5077 17.3175 10.4488 17.4598 10.4488 17.6081V18.8684C8.74462 18.7515 7.12458 18.0841 5.83251 16.9667L6.72743 16.0718C6.78238 16.0206 6.82646 15.9589 6.85703 15.8903C6.8876 15.8217 6.90404 15.7476 6.90536 15.6725C6.90669 15.5974 6.89287 15.5228 6.86474 15.4531C6.83661 15.3835 6.79474 15.3202 6.74163 15.2671C6.68851 15.214 6.62525 15.1721 6.5556 15.144C6.48596 15.1159 6.41136 15.1021 6.33626 15.1034C6.26116 15.1047 6.18709 15.1212 6.11848 15.1517C6.04987 15.1823 5.98813 15.2264 5.93692 15.2813L5.03455 16.1688C3.91601 14.8797 3.24606 13.2624 3.1254 11.56H4.39319C4.54153 11.56 4.6838 11.501 4.78869 11.3961C4.89359 11.2913 4.95251 11.149 4.95251 11.0006C4.95251 10.8523 4.89359 10.71 4.78869 10.6051C4.6838 10.5002 4.54153 10.4413 4.39319 10.4413H3.13285C3.25142 8.73976 3.91871 7.12257 5.03455 5.83251L5.92946 6.72742C6.03426 6.83235 6.17642 6.89136 6.32472 6.89149C6.47237 6.88828 6.61344 6.82972 6.71997 6.72742C6.82471 6.62255 6.88355 6.48039 6.88355 6.33217C6.88355 6.18395 6.82471 6.04179 6.71997 5.93692L5.83251 5.03454C7.1216 3.91601 8.73889 3.24606 10.4413 3.12539V4.39319C10.4413 4.54153 10.5003 4.68379 10.6051 4.78869C10.71 4.89358 10.8523 4.95251 11.0006 4.95251C11.149 4.95251 11.2913 4.89358 11.3961 4.78869C11.501 4.68379 11.56 4.54153 11.56 4.39319V3.13285C13.2615 3.25142 14.8787 3.91871 16.1688 5.03454L15.2739 5.92946C15.1691 6.03433 15.1103 6.17649 15.1103 6.32471C15.1103 6.47293 15.1691 6.61509 15.2739 6.71997C15.3804 6.82227 15.5215 6.88082 15.6691 6.88403C15.8174 6.8839 15.9596 6.82489 16.0644 6.71997L16.9667 5.83251C18.0853 7.12159 18.7552 8.73888 18.8759 10.4413H17.6081C17.4598 10.4413 17.3175 10.5002 17.2126 10.6051C17.1077 10.71 17.0488 10.8523 17.0488 11.0006C17.0488 11.149 17.1077 11.2913 17.2126 11.3961C17.3175 11.501 17.4598 11.56 17.6081 11.56Z"
    fill="black" />
  <path
    d="M14.4075 10.8134H13.3634L14.2434 7.08454C14.2625 7.00253 14.2628 6.91728 14.2444 6.83513C14.2259 6.75298 14.1891 6.67606 14.1368 6.6101C14.0845 6.54414 14.0179 6.49085 13.9421 6.4542C13.8663 6.41755 13.7832 6.39849 13.699 6.39844H9.56004C9.43414 6.39983 9.31229 6.4431 9.21371 6.52142C9.11513 6.59974 9.04544 6.70866 9.01563 6.83098L8.01631 11.2459C7.99754 11.3282 7.99717 11.4137 8.01522 11.4962C8.03326 11.5787 8.06929 11.6562 8.12071 11.7232C8.17392 11.7885 8.24103 11.8411 8.31714 11.8773C8.39325 11.9134 8.47646 11.9321 8.56071 11.932H9.50783L8.68749 16.071C8.66264 16.1878 8.67581 16.3094 8.72507 16.4182C8.77433 16.5269 8.8571 16.6171 8.96128 16.6754C9.06545 16.7338 9.18556 16.7572 9.30403 16.7424C9.4225 16.7276 9.53311 16.6752 9.6197 16.593L14.7878 11.7828C14.8703 11.7064 14.9278 11.6069 14.9528 11.4973C14.9779 11.3877 14.9693 11.2731 14.9283 11.1684C14.8872 11.0637 14.8155 10.9739 14.7226 10.9105C14.6297 10.8472 14.5199 10.8133 14.4075 10.8134ZM12.2224 11.7456C12.2749 11.8117 12.3418 11.8649 12.4181 11.9011C12.4944 11.9373 12.578 11.9555 12.6624 11.9544H12.9831L10.1194 14.6167L10.7383 11.5069C10.7634 11.4198 10.7663 11.3277 10.7468 11.2392C10.7272 11.1506 10.6859 11.0683 10.6265 10.9998C10.5744 10.935 10.5086 10.8827 10.4338 10.8466C10.3589 10.8105 10.277 10.7915 10.1939 10.791H9.2319L9.97766 7.50962H12.9607L12.0882 11.2384C12.0667 11.3275 12.0677 11.4204 12.0912 11.509C12.1146 11.5975 12.1597 11.6788 12.2224 11.7456Z"
    fill="black" />
</svg>