<svg width="22" height="22" viewBox="0 0 22 22" fill="none" xmlns="http://www.w3.org/2000/svg">
  <path
    d="M13.0006 6.51989L15.0653 3.43164L11.4705 4.36829L11.9484 5.04094L2.82227 11.5309L3.39647 12.3378L12.5221 5.84779L13.0006 6.51989Z"
    fill="black" />
  <path
    d="M11 0.66C13.3855 0.661527 15.6971 1.48761 17.5433 2.99831C19.3895 4.509 20.6567 6.61143 21.1303 8.94944C21.6038 11.2875 21.2547 13.7173 20.1419 15.8273C19.0292 17.9374 17.2212 19.5979 15.0244 20.5277C12.4992 21.5853 9.65778 21.5986 7.12283 20.5648C4.58788 19.5309 2.56623 17.5342 1.501 15.0122C0.43577 12.4903 0.413866 9.64893 1.44009 7.11088C2.46631 4.57282 4.45694 2.54517 6.97565 1.47235C8.24879 0.933586 9.61756 0.657287 11 0.66ZM11 0C4.9247 0 0 4.9247 0 11C0 17.0753 4.9247 22 11 22C17.0753 22 22 17.0753 22 11C22 4.9247 17.0753 0 11 0Z"
    fill="black" />
  <path
    d="M19.3066 5.94398C19.2393 5.93722 19.1713 5.9438 19.1066 5.96333C19.0418 5.98287 18.9816 6.01498 18.9293 6.05783L16.7122 7.86513H14.526C14.3924 7.86357 14.2635 7.91475 14.1674 8.00758L11.7991 10.3308C11.7897 10.3401 11.7809 10.3484 11.7721 10.3583L9.71238 12.7145L7.72358 11.263C7.65928 11.2161 7.58488 11.1848 7.50633 11.1717C7.45511 11.1618 7.40245 11.1618 7.35123 11.1717L7.33473 11.1745L7.31768 11.1778C7.22724 11.1965 7.1436 11.2395 7.07568 11.3021L4.73158 13.4559L2.38638 15.1477C2.34021 15.1812 2.30005 15.2223 2.26758 15.2692C2.52821 15.8028 2.83752 16.3111 3.19158 16.7878V15.8247L4.56658 14.8545V18.2843C4.87963 18.5621 5.21032 18.8193 5.55658 19.0543V14.0801L6.93158 12.8443V19.8293C7.02673 19.8733 7.12188 19.9162 7.21868 19.9569C7.45041 20.0548 7.68471 20.1433 7.92158 20.2225V12.6831L9.29658 13.6632V20.5701C9.62426 20.628 9.95469 20.6689 10.2866 20.6928V13.5956L11.6616 12.0556V20.6972C11.9934 20.6753 12.3238 20.6364 12.6516 20.5806V10.9088L14.0266 9.58883V20.2401C14.2832 20.1562 14.5359 20.0618 14.7845 19.9569C14.8622 19.9239 14.9396 19.89 15.0166 19.8551V8.85513H16.3916V19.0901C16.7375 18.8591 17.0682 18.6062 17.3816 18.3327V8.65273C17.3816 8.63953 17.3964 8.62633 17.3959 8.61313L18.7566 7.51918V16.8604C19.1387 16.3562 19.4703 15.8157 19.7466 15.2467V6.75303C19.612 6.47583 19.4653 6.20615 19.3066 5.94398Z"
    fill="black" />
</svg>