<svg width="24" height="22" viewBox="0 0 24 22" fill="none" xmlns="http://www.w3.org/2000/svg">
  <g clip-path="url(#clip0)">
    <path
      d="M15.4576 12.4424C15.4209 12.1287 15.315 11.8269 15.1476 11.5591C14.9366 11.2247 14.6599 10.9367 14.3342 10.7124C13.8573 10.3902 13.3251 10.1586 12.7642 10.0291L12.3976 9.93242L12.0642 9.84909V7.40909C12.2181 7.40902 12.37 7.44377 12.5085 7.51073C12.6471 7.57769 12.7687 7.67513 12.8642 7.79575C13.082 8.05908 13.2 8.39072 13.1976 8.73242H15.1542C15.1402 8.30252 15.0369 7.88023 14.8509 7.49242C14.6904 7.15804 14.4636 6.85978 14.1842 6.61575C13.9 6.37527 13.5748 6.18785 13.2242 6.06242C12.849 5.92565 12.4582 5.83607 12.0609 5.79575V4.73242H11.2442V5.79575C10.8363 5.8212 10.4337 5.90194 10.0476 6.03576C9.6753 6.16193 9.3287 6.35386 9.02422 6.60242C8.70914 6.86187 8.45739 7.18978 8.28815 7.5612C8.1189 7.93261 8.03662 8.33774 8.04755 8.74576C8.03398 9.14316 8.1139 9.53821 8.28089 9.89909C8.43252 10.1965 8.64622 10.458 8.90755 10.6658C9.1768 10.8763 9.47702 11.0438 9.79755 11.1624C10.1309 11.2858 10.4642 11.3958 10.7976 11.4958C10.8909 11.5158 10.9742 11.5358 11.0542 11.5591C11.1166 11.5765 11.1778 11.5976 11.2376 11.6224V14.5024C10.8316 14.4287 10.46 14.2265 10.1776 13.9258C10.0284 13.7539 9.91557 13.5537 9.84569 13.3372C9.77581 13.1207 9.75037 12.8923 9.77089 12.6658H7.82422C7.91755 13.7524 8.25089 14.5758 8.82422 15.1358C9.48944 15.7304 10.3455 16.0674 11.2376 16.0858V17.2591H12.0542V16.0958C12.6444 16.0709 13.2232 15.9245 13.7542 15.6658C14.1517 15.4705 14.5098 15.2038 14.8109 14.8791C15.2287 14.4207 15.4749 13.8318 15.5076 13.2124C15.5049 12.955 15.4882 12.698 15.4576 12.4424ZM11.2442 9.66576C10.9007 9.6082 10.5754 9.47123 10.2942 9.26575C10.1942 9.17709 10.1157 9.06672 10.0649 8.94308C10.014 8.81944 9.99216 8.68582 10.0009 8.55242C9.99622 8.37893 10.0316 8.20671 10.1042 8.04909C10.17 7.90999 10.2669 7.78793 10.3876 7.69242C10.5062 7.59589 10.6419 7.52241 10.7876 7.47576C10.9347 7.43194 11.0874 7.40949 11.2409 7.40909L11.2442 9.66576ZM13.4109 13.7291C13.3251 13.8836 13.2122 14.0213 13.0776 14.1358C12.9318 14.2468 12.7684 14.3324 12.5942 14.3891C12.4268 14.4467 12.2535 14.4858 12.0776 14.5058V11.8491C12.4821 11.9384 12.8664 12.1023 13.2109 12.3324C13.326 12.4311 13.4162 12.5557 13.4742 12.6958C13.5321 12.836 13.5561 12.9879 13.5442 13.1391C13.5522 13.3408 13.5062 13.5411 13.4109 13.7191V13.7291Z"
      fill="black" />
    <path
      d="M22.8392 16.4332L20.5558 16.9565C20.506 16.9631 20.4556 16.9631 20.4058 16.9565C20.281 16.9569 20.1586 16.9223 20.0525 16.8565C19.9034 16.762 19.7979 16.6121 19.7592 16.4399L19.2358 14.1565C19.2161 14.0712 19.2134 13.9828 19.2279 13.8964C19.2424 13.81 19.2737 13.7273 19.3202 13.653C19.3666 13.5787 19.4272 13.5143 19.4985 13.4634C19.5698 13.4126 19.6505 13.3762 19.7358 13.3565C19.8212 13.3368 19.9096 13.3342 19.996 13.3486C20.0824 13.3631 20.1651 13.3944 20.2394 13.4409C20.3137 13.4873 20.3781 13.5479 20.429 13.6192C20.4798 13.6905 20.5161 13.7712 20.5358 13.8565L20.6692 14.4332C21.3785 12.5653 21.4892 10.5229 20.986 8.58925C20.4828 6.65556 19.3906 4.92628 17.8607 3.64105C16.3308 2.35583 14.439 1.5783 12.4475 1.41624C10.456 1.25417 8.4634 1.71559 6.74583 2.73655L6.0625 1.59321C8.04991 0.408223 10.3614 -0.117369 12.6658 0.0917265C14.9702 0.300822 17.1493 1.23388 18.891 2.75723C20.6326 4.28059 21.8475 6.31609 22.3615 8.57214C22.8755 10.8282 22.6624 13.1891 21.7525 15.3165L22.5425 15.1365C22.63 15.1101 22.722 15.1019 22.8128 15.1125C22.9036 15.1231 22.9913 15.1522 23.0703 15.1981C23.1494 15.244 23.2181 15.3057 23.2723 15.3793C23.3266 15.4529 23.3651 15.5368 23.3854 15.626C23.4058 15.7151 23.4077 15.8074 23.3909 15.8973C23.374 15.9871 23.3389 16.0726 23.2877 16.1483C23.2365 16.224 23.1702 16.2883 23.093 16.3374C23.0159 16.3864 22.9295 16.419 22.8392 16.4332Z"
      fill="black" />
    <path
      d="M17.2058 20.463C15.2132 21.6262 12.9044 22.1309 10.6082 21.9052C8.31199 21.6796 6.14559 20.735 4.41761 19.2061C2.68963 17.6772 1.48822 15.642 0.984533 13.3904C0.480844 11.1388 0.700573 8.78572 1.61242 6.6663L0.785749 6.8563C0.613359 6.89564 0.432401 6.86489 0.282684 6.77081C0.132967 6.67673 0.0267563 6.52702 -0.0125841 6.35463C-0.0519246 6.18224 -0.0211718 6.00129 0.072909 5.85157C0.16699 5.70185 0.316692 5.59564 0.489082 5.5563L2.77242 5.03297C2.94461 4.99291 3.12566 5.02288 3.27575 5.1163C3.42485 5.21155 3.5312 5.36091 3.57242 5.53297L4.09575 7.81963C4.13456 7.99202 4.10334 8.17276 4.00896 8.32214C3.91459 8.47152 3.76476 8.57732 3.59242 8.6163C3.54263 8.62283 3.4922 8.62283 3.44242 8.6163C3.29218 8.61565 3.14656 8.56426 3.02919 8.47048C2.91181 8.3767 2.82955 8.24602 2.79575 8.09963L2.66575 7.5963C1.96061 9.45844 1.85025 11.4934 2.34987 13.4209C2.8495 15.3484 3.93451 17.0735 5.45545 18.3586C6.97639 19.6437 8.85841 20.4256 10.8422 20.5965C12.8261 20.7675 14.8141 20.319 16.5324 19.313L17.2058 20.463Z"
      fill="black" />
  </g>
  <defs>
    <clipPath id="clip0">
      <rect width="23.3333" height="22" fill="white" />
    </clipPath>
  </defs>
</svg>