<svg width="491" height="403" viewBox="0 0 491 403" fill="none" xmlns="http://www.w3.org/2000/svg">
  <g clip-path="url(#clip0)">
    <path
      d="M63.9072 280.521C119.579 344.332 175.793 352.41 254.81 367.532C333.826 382.654 391.846 372.204 434.599 333.664C483.962 289.117 482.012 187.068 406.474 150.732C382.876 139.355 354.776 135.911 334.103 119.911C294.625 89.3777 262.696 41.8688 199.318 32.9474C135.941 24.0259 93.2119 66.5383 93.2119 66.5383C41.1641 123.534 8.23533 216.662 63.9072 280.521Z"
      fill="#29538E" />
    <path opacity="0.7"
      d="M63.9072 280.521C119.579 344.332 175.793 352.41 254.81 367.532C333.826 382.654 391.846 372.204 434.599 333.664C483.962 289.117 482.012 187.068 406.474 150.732C382.876 139.355 354.776 135.911 334.103 119.911C294.625 89.3777 262.696 41.8688 199.318 32.9474C135.941 24.0259 93.2119 66.5383 93.2119 66.5383C41.1641 123.534 8.23533 216.662 63.9072 280.521Z"
      fill="white" />
    <path d="M488.646 382.561H19.0957V401.824H488.646V382.561Z" fill="#29538E" />
    <path opacity="0.5" d="M488.646 382.561H19.0957V401.824H488.646V382.561Z" fill="white" />
    <path
      d="M129.824 175.368C127.527 176.117 125.273 176.989 123.07 177.98C124.274 177.101 125.478 176.186 126.682 175.259C132.042 170.948 137.144 166.325 141.96 161.414C136.308 166.904 130.273 171.985 123.9 176.62C124.779 175.093 125.551 173.508 126.212 171.876C127.416 168.878 127.633 165.856 124.779 164.255C121.252 162.28 116.99 165.23 118.109 170.275C118.793 173.091 120.124 175.709 121.998 177.92C117.839 180.799 113.496 183.401 108.995 185.71L108.574 185.926C109.525 184.279 110.366 182.569 111.09 180.81C112.222 177.824 112.511 174.79 109.645 173.2C106.118 171.214 101.856 174.176 102.987 179.22C103.659 181.999 104.961 184.586 106.792 186.781C101.386 189.442 95.7996 191.706 90.2372 194.162L89.4306 194.523C90.5162 193.357 91.5256 192.122 92.4525 190.827C94.2585 188.178 95.2337 185.312 92.8258 183.085C89.864 180.34 85.012 182.218 84.9397 187.419C84.9429 190.29 85.6105 193.121 86.8902 195.691C81.6851 198.123 76.7396 201.075 72.1295 204.504L71.985 204.624C72.6085 203.636 73.1792 202.615 73.6946 201.566C75.0551 198.665 75.5608 195.679 72.8157 193.861C72.2579 193.477 71.6204 193.225 70.9511 193.123C70.2818 193.021 69.5982 193.073 68.9516 193.273C68.305 193.474 67.7122 193.818 67.2179 194.281C66.7236 194.743 66.3405 195.312 66.0975 195.944C65.7356 195.379 65.2445 194.908 64.6648 194.571C61.9077 192.982 59.1988 194.703 56.8751 197.135C56.2731 197.774 55.6711 198.46 55.1534 199.134C56.9459 194.159 59.1991 189.363 61.8836 184.807C64.4401 185.923 67.1967 186.509 69.9864 186.528C75.4765 186.528 77.7881 181.953 75.0912 179.112C72.9 176.812 69.8178 177.691 66.9042 179.377C65.9448 179.936 65.0164 180.547 64.123 181.207C66.914 177.003 70.0815 173.062 73.5863 169.432C75.8828 171.29 78.5517 172.632 81.4121 173.369C86.7457 174.681 90.0928 170.817 88.1664 167.409C86.6012 164.64 83.3505 164.749 80.16 165.676C78.6328 166.132 77.1368 166.687 75.6812 167.337C77.138 165.916 78.643 164.556 80.172 163.207C82.1706 161.498 84.2414 159.848 86.3484 158.235C88.6137 160.043 91.2355 161.352 94.0418 162.076C99.3754 163.388 102.722 159.523 100.796 156.116C99.2309 153.347 95.9802 153.455 92.7776 154.382C92.0312 154.599 91.2727 154.864 90.5382 155.141C93.3194 153.154 96.1367 151.216 98.9661 149.289L101.579 147.496C103.933 149.468 106.697 150.891 109.669 151.661C115.003 152.974 118.362 149.109 116.436 145.702C114.859 142.932 111.62 143.041 108.417 143.968C107.157 144.353 105.917 144.799 104.697 145.304L106.31 144.1C107.298 143.39 108.285 142.668 109.248 141.909C110.452 141.006 111.596 140.007 112.764 139.044C113.438 138.514 114.076 137.948 114.714 137.37C117.078 139.363 119.859 140.799 122.853 141.572C128.187 142.884 131.534 139.02 129.607 135.612C128.042 132.843 124.791 132.952 121.601 133.879C119.812 134.431 118.058 135.095 116.351 135.865C118.531 133.842 120.638 131.736 122.636 129.544C122.769 129.388 122.889 129.231 123.034 129.087C123.888 128.136 124.731 127.172 125.55 126.173C126.369 125.174 127.428 123.862 128.319 122.658C131.978 117.855 134.989 112.593 137.277 107.006C134.88 112.527 131.767 117.708 128.018 122.417C124.31 127.145 120.171 131.518 115.653 135.48L115.16 135.901C116.186 134.154 117.095 132.34 117.881 130.471C119.024 127.485 119.301 124.451 116.436 122.862C112.92 120.876 108.646 123.837 109.778 128.882C110.505 131.869 111.956 134.631 114.004 136.925L112.944 137.84L111.74 138.875C111.042 139.441 110.32 139.983 109.597 140.525C109.212 140.814 108.839 141.114 108.393 141.403C107.37 142.162 106.334 142.896 105.287 143.619L103.782 144.642L102.072 145.846C103.072 144.141 103.949 142.366 104.697 140.537C105.841 137.539 106.118 134.517 103.264 132.927C99.7366 130.941 95.4625 133.903 96.5942 138.947C97.2922 141.845 98.6753 144.533 100.628 146.785L99.4236 147.604L94.7401 150.674L93.813 151.276L91.2004 153.022L90.0687 153.78C88.8647 154.611 87.6607 155.454 86.4568 156.321C87.4241 154.588 88.269 152.79 88.9851 150.939C90.1891 147.953 90.4058 144.919 87.5524 143.33C84.0247 141.343 79.7626 144.305 80.8944 149.35C81.6016 152.286 83.015 155.006 85.012 157.272C82.9652 158.777 80.9425 160.318 78.9921 161.931C77.5594 163.135 76.1507 164.339 74.7662 165.639C75.3694 164.524 75.908 163.374 76.3795 162.196C77.5112 159.198 77.8002 156.176 74.9347 154.587C71.4071 152.6 67.145 155.562 68.2767 160.607C68.9487 163.385 70.2504 165.972 72.0813 168.168C68.1819 172.043 64.6697 176.289 61.5947 180.846C61.9438 179.531 62.2092 178.196 62.3893 176.848C62.7746 173.67 62.3171 170.684 59.1506 169.817C55.2497 168.746 51.8304 172.647 54.1541 177.294C55.4908 179.852 57.4031 182.066 59.7405 183.759C56.7077 188.713 54.1749 193.956 52.1796 199.411C52.1275 198.27 52.015 197.133 51.8425 196.004C51.3007 192.837 50.0245 190.104 46.7376 190.164C42.6923 190.249 40.5131 194.98 44.0648 198.761C45.959 200.736 48.2708 202.262 50.8311 203.228C49.4619 207.439 48.3482 211.729 47.4961 216.074C47.3516 216.76 47.2433 217.447 47.1108 218.133C46.9664 218.265 46.8219 218.398 46.6895 218.542C46.545 217.952 46.3764 217.338 46.1838 216.772C45.1724 213.738 43.4869 211.222 40.2482 211.8C36.2751 212.498 34.8423 217.483 38.9359 220.697C41.0163 222.285 43.4144 223.406 45.9671 223.984C45.9671 224.105 46.0634 224.213 46.1236 224.333C45.6781 227.596 45.341 230.883 45.1363 234.182C44.9798 236.59 44.8955 239.106 44.8474 241.574C41.404 241.574 38.972 245.355 41.3438 249.448C42.3447 251.146 43.6272 252.66 45.1363 253.927C45.4253 258.562 45.8828 263.198 46.4968 267.797C46.0099 267.346 45.4141 267.031 44.7681 266.881C44.122 266.731 43.4481 266.752 42.8127 266.942C40.6455 267.532 39.6703 269.278 39.3211 271.421C38.5499 272.219 38.1184 273.285 38.1171 274.395C36.5038 271.987 34.9748 269.579 33.4939 267.038C35.7545 265.305 37.6285 263.12 38.9961 260.621C41.5846 255.805 38.6589 251.579 34.8905 252.603C31.8083 253.445 31.1341 256.576 31.2786 259.935C31.3267 261.209 31.4473 262.479 31.6398 263.739L30.0505 260.946C28.7261 258.538 27.6426 256.13 26.3423 253.722C26.0292 253.132 25.7523 252.518 25.4995 251.916C28.036 250.639 30.2788 248.847 32.0852 246.655C35.5406 242.393 33.4578 237.709 29.5569 238.01C26.3784 238.263 25.1142 241.213 24.5845 244.536C24.378 245.985 24.2494 247.444 24.1992 248.906L23.0675 246.294C20.657 240.367 18.6734 234.275 17.1319 228.066C20.0029 227.048 22.6107 225.403 24.7651 223.25C28.6298 219.337 27.0285 214.485 23.1156 214.388C19.9371 214.316 18.384 217.121 17.5171 220.408C17.0923 222.153 16.7746 223.922 16.566 225.706C15.7232 222.142 15.0008 218.53 14.3988 214.87C13.9895 212.631 13.7246 210.355 13.4477 208.092C16.5337 207.48 19.4403 206.175 21.9478 204.275C26.2821 200.904 25.3309 195.847 21.4541 195.281C18.3118 194.788 16.4095 197.376 15.1333 200.495C14.3861 202.461 13.7588 204.472 13.2551 206.514C13.0143 203.89 12.7373 201.253 12.617 198.616C12.2558 193.172 12.2558 187.71 12.617 182.266C12.0673 187.706 11.8783 193.176 12.0511 198.64C12.0511 201.157 12.2678 203.661 12.4243 206.177C11.7365 204.467 10.932 202.805 10.0164 201.205C8.37896 198.448 6.18772 196.389 3.1537 197.593C-0.590658 199.134 -0.915731 204.311 3.77977 206.575C6.53376 207.84 9.55472 208.414 12.5808 208.248C12.7976 210.5 12.9902 212.739 13.3273 214.966C13.7968 218.578 14.3988 222.046 15.1092 225.549C14.3387 224.207 13.4821 222.916 12.5447 221.685C10.5582 219.168 8.12612 217.386 5.32086 219.012C1.81729 221.022 2.15441 226.236 7.10275 227.837C9.90281 228.707 12.8685 228.905 15.7593 228.415C17.133 234.692 18.9392 240.867 21.1652 246.896L21.8755 248.702C21.2385 247.858 20.551 247.054 19.8167 246.294C17.5894 243.982 15.0008 242.453 12.316 244.367C9.02911 246.775 9.90801 251.832 14.9647 252.964C17.7555 253.529 20.6386 253.446 23.3925 252.723C23.6454 253.337 23.8982 253.927 24.1992 254.553C25.4032 257.033 26.4747 259.574 27.7389 262.006L28.7863 264.113C28.1603 263.571 27.5101 263.053 26.8359 262.572C24.2112 260.729 21.3699 259.718 19.1064 262.09C16.3132 265.016 18.1191 269.88 23.3203 270.036C26.0281 270.099 28.7165 269.565 31.1943 268.471C32.6872 271.168 34.2163 273.829 35.8778 276.441C36.4918 277.441 37.0817 278.428 37.78 279.415C36.8355 278.552 35.8383 277.747 34.7942 277.007C32.1695 275.165 29.3281 274.154 27.0526 276.526C24.2714 279.451 26.0774 284.315 31.2786 284.472C34.2513 284.508 37.1898 283.835 39.8509 282.509C40.7177 283.713 41.6087 284.917 42.5237 286.121C40.5853 288.373 41.2234 292.141 45.1604 293.863C47.0725 294.66 49.1105 295.112 51.1803 295.199C51.4211 295.392 51.6619 295.585 51.9267 295.765L52.0471 295.861C54.5354 305.156 57.4851 314.314 60.8964 323.336C62.3411 327.177 63.8943 330.981 65.4955 334.762H51.0478V391.734H95.1976V334.714H71.696C69.6854 330.319 67.747 325.877 65.941 321.386C62.9913 314.017 60.3185 306.529 57.9948 298.932C58.3902 299.048 58.7922 299.14 59.1988 299.209C59.7335 299.317 60.2819 299.341 60.8241 299.281L60.1981 295.32H59.7767C59.5255 295.284 59.2764 295.236 59.0302 295.175C58.474 295.016 57.9307 294.815 57.4048 294.573L56.7788 294.284C59.1024 293.475 61.2602 292.251 63.1478 290.672C67.3256 287.06 66.1457 282.124 62.2448 281.703C59.0904 281.354 57.3085 284.026 56.2249 287.193C55.8999 288.096 55.635 289.035 55.4062 289.95C55.1775 289.107 54.9487 288.264 54.732 287.422C54.0939 284.929 53.528 282.413 52.9501 279.897C55.4718 279.11 57.8154 277.838 59.8489 276.152C64.0267 272.54 62.8348 267.616 58.9459 267.195C55.7795 266.846 54.0096 269.518 52.926 272.685C52.601 273.6 52.3241 274.551 52.0833 275.49C51.7221 273.66 51.3729 271.818 51.0478 269.976C50.8191 268.615 50.6024 267.243 50.3977 265.87C50.3255 263.92 50.2893 261.97 50.3134 260.007C50.3134 258.936 50.3134 257.864 50.4097 256.792C52.7702 257.538 55.2459 257.852 57.7179 257.72C63.208 257.358 65.2307 252.663 62.3652 250.002C60.0295 247.823 57.0075 248.906 54.2023 250.761C52.9443 251.615 51.7382 252.544 50.5903 253.542C50.9284 248.959 51.6248 244.41 52.6732 239.937C53.2876 237.302 54.0554 234.705 54.9728 232.159C57.4902 233.027 60.1518 233.399 62.8107 233.255C68.3008 232.906 70.3235 228.21 67.458 225.537C65.1344 223.37 62.1003 224.442 59.2951 226.308C58.3158 226.981 57.3752 227.708 56.4778 228.487C57.5364 225.996 58.7675 223.583 60.1619 221.263C62.9273 216.584 66.3951 212.356 70.4439 208.73C72.542 210.665 75.0238 212.138 77.7279 213.052C82.9532 214.762 86.5772 211.15 84.9518 207.61C83.5913 204.733 80.3887 204.6 77.0898 205.286C75.8186 205.558 74.5643 205.904 73.3334 206.322L73.4177 206.25C77.9103 202.744 82.7517 199.71 87.8654 197.196C89.6696 199.558 91.9608 201.504 94.5836 202.903C99.4717 205.419 103.625 202.433 102.542 198.677C101.663 195.618 98.5206 194.98 95.1615 195.065C93.8422 195.136 92.5278 195.281 91.2245 195.498C96.6544 192.934 102.193 190.514 107.538 187.684H107.659C110.052 189.75 112.891 191.234 115.954 192.019C121.288 193.343 124.635 189.466 122.708 185.999C121.143 183.23 117.893 183.35 114.702 184.265C113.799 184.53 112.896 184.855 112.017 185.192C115.587 183.117 119.047 180.859 122.383 178.426L122.66 178.727V178.57C125.077 180.655 127.94 182.158 131.028 182.965C136.349 184.277 139.709 180.412 137.782 176.945C136.265 174.332 133.063 174.441 129.824 175.368ZM45.642 284.46C44.5464 283.184 43.511 281.847 42.4996 280.499C42.7404 280.282 43.0053 280.041 43.2702 279.776C44.7747 280.245 46.3318 280.524 47.9055 280.607V280.86L48.6399 280.703C49.0252 282.606 49.4225 284.496 49.8439 286.386C49.3546 285.746 48.7156 285.235 47.983 284.899C47.2504 284.563 46.4465 284.413 45.642 284.46ZM49.567 239.13C49.1937 240.551 48.8807 241.972 48.5797 243.404L48.3991 243.151C48.3991 240.214 48.4432 237.284 48.5315 234.362C48.6158 232.316 48.7603 230.281 48.9409 228.234C49.9315 229.243 51.0205 230.151 52.1916 230.943C51.1726 233.623 50.3004 236.356 49.579 239.13H49.567ZM54.5033 225.646C54.5755 225.116 54.6357 224.574 54.6598 224.044V223.238C55.0932 223.105 55.5387 222.949 55.9721 222.768C55.4905 223.719 54.9848 224.682 54.5153 225.646H54.5033ZM60.776 215.472C60.5679 214.996 60.2654 214.567 59.8867 214.211C59.508 213.855 59.0609 213.579 58.5727 213.401C55.5989 212.197 53.1909 214.364 51.2766 217.134L51.1803 217.266H50.9876C50.7858 217.22 50.5803 217.192 50.3736 217.182C50.3594 217.013 50.3884 216.843 50.4579 216.688C51.2202 212.339 52.2495 208.04 53.5401 203.818C56.3039 204.168 59.1103 203.951 61.7873 203.179C63.4413 202.745 64.8797 201.722 65.8327 200.302C66.3626 202.729 67.3738 205.026 68.8065 207.056C65.8445 209.576 63.1568 212.4 60.788 215.484L60.776 215.472Z"
      fill="#29538E" />
    <path opacity="0.3"
      d="M129.824 175.368C127.527 176.117 125.273 176.989 123.07 177.98C124.274 177.101 125.478 176.186 126.682 175.259C132.042 170.948 137.144 166.325 141.96 161.414C136.308 166.904 130.273 171.985 123.9 176.62C124.779 175.093 125.551 173.508 126.212 171.876C127.416 168.878 127.633 165.856 124.779 164.255C121.252 162.28 116.99 165.23 118.109 170.275C118.793 173.091 120.124 175.709 121.998 177.92C117.839 180.799 113.496 183.401 108.995 185.71L108.574 185.926C109.525 184.279 110.366 182.569 111.09 180.81C112.222 177.824 112.511 174.79 109.645 173.2C106.118 171.214 101.856 174.176 102.987 179.22C103.659 181.999 104.961 184.586 106.792 186.781C101.386 189.442 95.7996 191.706 90.2372 194.162L89.4306 194.523C90.5162 193.357 91.5256 192.122 92.4525 190.827C94.2585 188.178 95.2337 185.312 92.8258 183.085C89.864 180.34 85.012 182.218 84.9397 187.419C84.9429 190.29 85.6105 193.121 86.8902 195.691C81.6851 198.123 76.7396 201.075 72.1295 204.504L71.985 204.624C72.6085 203.636 73.1792 202.615 73.6946 201.566C75.0551 198.665 75.5608 195.679 72.8157 193.861C72.2579 193.477 71.6204 193.225 70.9511 193.123C70.2818 193.021 69.5982 193.073 68.9516 193.273C68.305 193.474 67.7122 193.818 67.2179 194.281C66.7236 194.743 66.3405 195.312 66.0975 195.944C65.7356 195.379 65.2445 194.908 64.6648 194.571C61.9077 192.982 59.1988 194.703 56.8751 197.135C56.2731 197.774 55.6711 198.46 55.1534 199.134C56.9459 194.159 59.1991 189.363 61.8836 184.807C64.4401 185.923 67.1967 186.509 69.9864 186.528C75.4765 186.528 77.7881 181.953 75.0912 179.112C72.9 176.812 69.8178 177.691 66.9042 179.377C65.9448 179.936 65.0164 180.547 64.123 181.207C66.914 177.003 70.0815 173.062 73.5863 169.432C75.8828 171.29 78.5517 172.632 81.4121 173.369C86.7457 174.681 90.0928 170.817 88.1664 167.409C86.6012 164.64 83.3505 164.749 80.16 165.676C78.6328 166.132 77.1368 166.687 75.6812 167.337C77.138 165.916 78.643 164.556 80.172 163.207C82.1706 161.498 84.2414 159.848 86.3484 158.235C88.6137 160.043 91.2355 161.352 94.0418 162.076C99.3754 163.388 102.722 159.523 100.796 156.116C99.2309 153.347 95.9802 153.455 92.7776 154.382C92.0312 154.599 91.2727 154.864 90.5382 155.141C93.3194 153.154 96.1367 151.216 98.9661 149.289L101.579 147.496C103.933 149.468 106.697 150.891 109.669 151.661C115.003 152.974 118.362 149.109 116.436 145.702C114.859 142.932 111.62 143.041 108.417 143.968C107.157 144.353 105.917 144.799 104.697 145.304L106.31 144.1C107.298 143.39 108.285 142.668 109.248 141.909C110.452 141.006 111.596 140.007 112.764 139.044C113.438 138.514 114.076 137.948 114.714 137.37C117.078 139.363 119.859 140.799 122.853 141.572C128.187 142.884 131.534 139.02 129.607 135.612C128.042 132.843 124.791 132.952 121.601 133.879C119.812 134.431 118.058 135.095 116.351 135.865C118.531 133.842 120.638 131.736 122.636 129.544C122.769 129.388 122.889 129.231 123.034 129.087C123.888 128.136 124.731 127.172 125.55 126.173C126.369 125.174 127.428 123.862 128.319 122.658C131.978 117.855 134.989 112.593 137.277 107.006C134.88 112.527 131.767 117.708 128.018 122.417C124.31 127.145 120.171 131.518 115.653 135.48L115.16 135.901C116.186 134.154 117.095 132.34 117.881 130.471C119.024 127.485 119.301 124.451 116.436 122.862C112.92 120.876 108.646 123.837 109.778 128.882C110.505 131.869 111.956 134.631 114.004 136.925L112.944 137.84L111.74 138.875C111.042 139.441 110.32 139.983 109.597 140.525C109.212 140.814 108.839 141.114 108.393 141.403C107.37 142.162 106.334 142.896 105.287 143.619L103.782 144.642L102.072 145.846C103.072 144.141 103.949 142.366 104.697 140.537C105.841 137.539 106.118 134.517 103.264 132.927C99.7366 130.941 95.4625 133.903 96.5942 138.947C97.2922 141.845 98.6753 144.533 100.628 146.785L99.4236 147.604L94.7401 150.674L93.813 151.276L91.2004 153.022L90.0687 153.78C88.8647 154.611 87.6607 155.454 86.4568 156.321C87.4241 154.588 88.269 152.79 88.9851 150.939C90.1891 147.953 90.4058 144.919 87.5524 143.33C84.0247 141.343 79.7626 144.305 80.8944 149.35C81.6016 152.286 83.015 155.006 85.012 157.272C82.9652 158.777 80.9425 160.318 78.9921 161.931C77.5594 163.135 76.1507 164.339 74.7662 165.639C75.3694 164.524 75.908 163.374 76.3795 162.196C77.5112 159.198 77.8002 156.176 74.9347 154.587C71.4071 152.6 67.145 155.562 68.2767 160.607C68.9487 163.385 70.2504 165.972 72.0813 168.168C68.1819 172.043 64.6697 176.289 61.5947 180.846C61.9438 179.531 62.2092 178.196 62.3893 176.848C62.7746 173.67 62.3171 170.684 59.1506 169.817C55.2497 168.746 51.8304 172.647 54.1541 177.294C55.4908 179.852 57.4031 182.066 59.7405 183.759C56.7077 188.713 54.1749 193.956 52.1796 199.411C52.1275 198.27 52.015 197.133 51.8425 196.004C51.3007 192.837 50.0245 190.104 46.7376 190.164C42.6923 190.249 40.5131 194.98 44.0648 198.761C45.959 200.736 48.2708 202.262 50.8311 203.228C49.4619 207.439 48.3482 211.729 47.4961 216.074C47.3516 216.76 47.2433 217.447 47.1108 218.133C46.9664 218.265 46.8219 218.398 46.6895 218.542C46.545 217.952 46.3764 217.338 46.1838 216.772C45.1724 213.738 43.4869 211.222 40.2482 211.8C36.2751 212.498 34.8423 217.483 38.9359 220.697C41.0163 222.285 43.4144 223.406 45.9671 223.984C45.9671 224.105 46.0634 224.213 46.1236 224.333C45.6781 227.596 45.341 230.883 45.1363 234.182C44.9798 236.59 44.8955 239.106 44.8474 241.574C41.404 241.574 38.972 245.355 41.3438 249.448C42.3447 251.146 43.6272 252.66 45.1363 253.927C45.4253 258.562 45.8828 263.198 46.4968 267.797C46.0099 267.346 45.4141 267.031 44.7681 266.881C44.122 266.731 43.4481 266.752 42.8127 266.942C40.6455 267.532 39.6703 269.278 39.3211 271.421C38.5499 272.219 38.1184 273.285 38.1171 274.395C36.5038 271.987 34.9748 269.579 33.4939 267.038C35.7545 265.305 37.6285 263.12 38.9961 260.621C41.5846 255.805 38.6589 251.579 34.8905 252.603C31.8083 253.445 31.1341 256.576 31.2786 259.935C31.3267 261.209 31.4473 262.479 31.6398 263.739L30.0505 260.946C28.7261 258.538 27.6426 256.13 26.3423 253.722C26.0292 253.132 25.7523 252.518 25.4995 251.916C28.036 250.639 30.2788 248.847 32.0852 246.655C35.5406 242.393 33.4578 237.709 29.5569 238.01C26.3784 238.263 25.1142 241.213 24.5845 244.536C24.378 245.985 24.2494 247.444 24.1992 248.906L23.0675 246.294C20.657 240.367 18.6734 234.275 17.1319 228.066C20.0029 227.048 22.6107 225.403 24.7651 223.25C28.6298 219.337 27.0285 214.485 23.1156 214.388C19.9371 214.316 18.384 217.121 17.5171 220.408C17.0923 222.153 16.7746 223.922 16.566 225.706C15.7232 222.142 15.0008 218.53 14.3988 214.87C13.9895 212.631 13.7246 210.355 13.4477 208.092C16.5337 207.48 19.4403 206.175 21.9478 204.275C26.2821 200.904 25.3309 195.847 21.4541 195.281C18.3118 194.788 16.4095 197.376 15.1333 200.495C14.3861 202.461 13.7588 204.472 13.2551 206.514C13.0143 203.89 12.7373 201.253 12.617 198.616C12.2558 193.172 12.2558 187.71 12.617 182.266C12.0673 187.706 11.8783 193.176 12.0511 198.64C12.0511 201.157 12.2678 203.661 12.4243 206.177C11.7365 204.467 10.932 202.805 10.0164 201.205C8.37896 198.448 6.18772 196.389 3.1537 197.593C-0.590658 199.134 -0.915731 204.311 3.77977 206.575C6.53376 207.84 9.55472 208.414 12.5808 208.248C12.7976 210.5 12.9902 212.739 13.3273 214.966C13.7968 218.578 14.3988 222.046 15.1092 225.549C14.3387 224.207 13.4821 222.916 12.5447 221.685C10.5582 219.168 8.12612 217.386 5.32086 219.012C1.81729 221.022 2.15441 226.236 7.10275 227.837C9.90281 228.707 12.8685 228.905 15.7593 228.415C17.133 234.692 18.9392 240.867 21.1652 246.896L21.8755 248.702C21.2385 247.858 20.551 247.054 19.8167 246.294C17.5894 243.982 15.0008 242.453 12.316 244.367C9.02911 246.775 9.90801 251.832 14.9647 252.964C17.7555 253.529 20.6386 253.446 23.3925 252.723C23.6454 253.337 23.8982 253.927 24.1992 254.553C25.4032 257.033 26.4747 259.574 27.7389 262.006L28.7863 264.113C28.1603 263.571 27.5101 263.053 26.8359 262.572C24.2112 260.729 21.3699 259.718 19.1064 262.09C16.3132 265.016 18.1191 269.88 23.3203 270.036C26.0281 270.099 28.7165 269.565 31.1943 268.471C32.6872 271.168 34.2163 273.829 35.8778 276.441C36.4918 277.441 37.0817 278.428 37.78 279.415C36.8355 278.552 35.8383 277.747 34.7942 277.007C32.1695 275.165 29.3281 274.154 27.0526 276.526C24.2714 279.451 26.0774 284.315 31.2786 284.472C34.2513 284.508 37.1898 283.835 39.8509 282.509C40.7177 283.713 41.6087 284.917 42.5237 286.121C40.5853 288.373 41.2234 292.141 45.1604 293.863C47.0725 294.66 49.1105 295.112 51.1803 295.199C51.4211 295.392 51.6619 295.585 51.9267 295.765L52.0471 295.861C54.5354 305.156 57.4851 314.314 60.8964 323.336C62.3411 327.177 63.8943 330.981 65.4955 334.762H51.0478V391.734H95.1976V334.714H71.696C69.6854 330.319 67.747 325.877 65.941 321.386C62.9913 314.017 60.3185 306.529 57.9948 298.932C58.3902 299.048 58.7922 299.14 59.1988 299.209C59.7335 299.317 60.2819 299.341 60.8241 299.281L60.1981 295.32H59.7767C59.5255 295.284 59.2764 295.236 59.0302 295.175C58.474 295.016 57.9307 294.815 57.4048 294.573L56.7788 294.284C59.1024 293.475 61.2602 292.251 63.1478 290.672C67.3256 287.06 66.1457 282.124 62.2448 281.703C59.0904 281.354 57.3085 284.026 56.2249 287.193C55.8999 288.096 55.635 289.035 55.4062 289.95C55.1775 289.107 54.9487 288.264 54.732 287.422C54.0939 284.929 53.528 282.413 52.9501 279.897C55.4718 279.11 57.8154 277.838 59.8489 276.152C64.0267 272.54 62.8348 267.616 58.9459 267.195C55.7795 266.846 54.0096 269.518 52.926 272.685C52.601 273.6 52.3241 274.551 52.0833 275.49C51.7221 273.66 51.3729 271.818 51.0478 269.976C50.8191 268.615 50.6024 267.243 50.3977 265.87C50.3255 263.92 50.2893 261.97 50.3134 260.007C50.3134 258.936 50.3134 257.864 50.4097 256.792C52.7702 257.538 55.2459 257.852 57.7179 257.72C63.208 257.358 65.2307 252.663 62.3652 250.002C60.0295 247.823 57.0075 248.906 54.2023 250.761C52.9443 251.615 51.7382 252.544 50.5903 253.542C50.9284 248.959 51.6248 244.41 52.6732 239.937C53.2876 237.302 54.0554 234.705 54.9728 232.159C57.4902 233.027 60.1518 233.399 62.8107 233.255C68.3008 232.906 70.3235 228.21 67.458 225.537C65.1344 223.37 62.1003 224.442 59.2951 226.308C58.3158 226.981 57.3752 227.708 56.4778 228.487C57.5364 225.996 58.7675 223.583 60.1619 221.263C62.9273 216.584 66.3951 212.356 70.4439 208.73C72.542 210.665 75.0238 212.138 77.7279 213.052C82.9532 214.762 86.5772 211.15 84.9518 207.61C83.5913 204.733 80.3887 204.6 77.0898 205.286C75.8186 205.558 74.5643 205.904 73.3334 206.322L73.4177 206.25C77.9103 202.744 82.7517 199.71 87.8654 197.196C89.6696 199.558 91.9608 201.504 94.5836 202.903C99.4717 205.419 103.625 202.433 102.542 198.677C101.663 195.618 98.5206 194.98 95.1615 195.065C93.8422 195.136 92.5278 195.281 91.2245 195.498C96.6544 192.934 102.193 190.514 107.538 187.684H107.659C110.052 189.75 112.891 191.234 115.954 192.019C121.288 193.343 124.635 189.466 122.708 185.999C121.143 183.23 117.893 183.35 114.702 184.265C113.799 184.53 112.896 184.855 112.017 185.192C115.587 183.117 119.047 180.859 122.383 178.426L122.66 178.727V178.57C125.077 180.655 127.94 182.158 131.028 182.965C136.349 184.277 139.709 180.412 137.782 176.945C136.265 174.332 133.063 174.441 129.824 175.368ZM45.642 284.46C44.5464 283.184 43.511 281.847 42.4996 280.499C42.7404 280.282 43.0053 280.041 43.2702 279.776C44.7747 280.245 46.3318 280.524 47.9055 280.607V280.86L48.6399 280.703C49.0252 282.606 49.4225 284.496 49.8439 286.386C49.3546 285.746 48.7156 285.235 47.983 284.899C47.2504 284.563 46.4465 284.413 45.642 284.46ZM49.567 239.13C49.1937 240.551 48.8807 241.972 48.5797 243.404L48.3991 243.151C48.3991 240.214 48.4432 237.284 48.5315 234.362C48.6158 232.316 48.7603 230.281 48.9409 228.234C49.9315 229.243 51.0205 230.151 52.1916 230.943C51.1726 233.623 50.3004 236.356 49.579 239.13H49.567ZM54.5033 225.646C54.5755 225.116 54.6357 224.574 54.6598 224.044V223.238C55.0932 223.105 55.5387 222.949 55.9721 222.768C55.4905 223.719 54.9848 224.682 54.5153 225.646H54.5033ZM60.776 215.472C60.5679 214.996 60.2654 214.567 59.8867 214.211C59.508 213.855 59.0609 213.579 58.5727 213.401C55.5989 212.197 53.1909 214.364 51.2766 217.134L51.1803 217.266H50.9876C50.7858 217.22 50.5803 217.192 50.3736 217.182C50.3594 217.013 50.3884 216.843 50.4579 216.688C51.2202 212.339 52.2495 208.04 53.5401 203.818C56.3039 204.168 59.1103 203.951 61.7873 203.179C63.4413 202.745 64.8797 201.722 65.8327 200.302C66.3626 202.729 67.3738 205.026 68.8065 207.056C65.8445 209.576 63.1568 212.4 60.788 215.484L60.776 215.472Z"
      fill="white" />
    <path
      d="M426.689 339.205C426.689 339.205 420.862 326.19 419.465 324.854C418.069 323.517 406.908 319.472 403.814 309.202C400.719 298.932 394.844 271.518 409.653 273.312C424.462 275.105 420.862 303.82 426.244 302.917C431.625 302.014 421.765 256.275 431.18 249.942C440.595 243.609 455.849 249.497 454.055 273.721C452.262 297.945 448.674 311.839 451.816 310.502C454.958 309.166 463.928 304.218 463.928 314.536C463.928 324.854 455.404 332.029 450.468 332.475C445.531 332.92 443.244 333.378 443.244 333.378V340.096L426.689 339.205Z"
      fill="#2E353A" stroke="#2E353A" stroke-linecap="round" stroke-linejoin="round" />
    <path
      d="M421.944 313.982C418.561 310.78 415.454 307.673 414.022 304.82C411.18 299.125 409.037 283.148 409.037 283.148"
      stroke="white" stroke-width="0.5" stroke-linecap="round" stroke-linejoin="round" />
    <path
      d="M403.992 290.949C406.232 300.28 406.545 307.311 413.311 315.498C416.923 319.929 426.482 323.685 427.554 327.598C428.513 332.306 429.232 337.06 429.709 341.841L435.055 342.202C435.055 342.202 436.138 332.932 433.08 326.322"
      stroke="white" stroke-width="0.5" stroke-linecap="round" stroke-linejoin="round" />
    <path d="M405.487 275.984C405.487 275.984 401.49 279.055 402.911 286.616" stroke="white" stroke-width="0.5"
      stroke-linecap="round" stroke-linejoin="round" />
    <path d="M431.096 303.52L428.977 306.951" stroke="white" stroke-width="0.5" stroke-linecap="round"
      stroke-linejoin="round" />
    <path d="M431.828 302.326L431.094 303.518" stroke="white" stroke-width="0.5" stroke-linecap="round"
      stroke-linejoin="round" />
    <path
      d="M438.945 251.061C438.945 251.061 430.758 250.712 430.758 258.538C430.758 265.147 432.78 287.71 432.347 298.028"
      stroke="white" stroke-width="0.5" stroke-linecap="round" stroke-linejoin="round" />
    <path
      d="M445.363 315.172C445.17 317.857 445.05 319.759 445.05 320.482C445.05 324.395 455.007 309.441 459.642 309.092C459.642 309.092 464.266 308.731 462.484 317.279C461.835 320.452 460.333 323.388 458.14 325.771C455.946 328.154 453.143 329.892 450.034 330.8C446.109 331.871 442.907 330.089 442.197 331.871C441.629 333.966 441.27 336.111 441.125 338.276"
      stroke="white" stroke-width="0.5" stroke-linecap="round" stroke-linejoin="round" />
    <path
      d="M447.686 258.49C448.305 261.072 448.596 263.722 448.553 266.376C448.553 274.708 446.964 294.357 445.904 307.625"
      stroke="white" stroke-width="0.5" stroke-linecap="round" stroke-linejoin="round" />
    <path d="M443.568 251.783C444.638 252.396 445.504 253.308 446.061 254.408" stroke="white" stroke-width="0.5"
      stroke-linecap="round" stroke-linejoin="round" />
    <path d="M437.776 313.006L437.523 317.99" stroke="white" stroke-width="0.5" stroke-linecap="round"
      stroke-linejoin="round" />
    <path
      d="M439.655 256.047C439.655 256.047 437.524 256.757 438.234 264.234C438.824 270.41 438.234 298.451 437.957 308.022"
      stroke="white" stroke-width="0.5" stroke-linecap="round" stroke-linejoin="round" />
    <path
      d="M462.085 311.225C459.032 316.938 454.141 321.456 448.203 324.047C438.571 327.96 438.234 326.178 438.234 330.067C438.234 333.956 437.873 341.107 437.873 341.107"
      stroke="white" stroke-width="0.5" stroke-linecap="round" stroke-linejoin="round" />
    <path d="M448.734 391.698H417.623L410.965 346.633H455.392L448.734 391.698Z" fill="#29538E" stroke="#2E353A"
      stroke-linecap="round" stroke-linejoin="round" />
    <path d="M459.208 339.529H407.148V351.593H459.208V339.529Z" fill="#29538E" stroke="#2E353A" stroke-linecap="round"
      stroke-linejoin="round" />
    <path
      d="M277.912 361.359V336.895H205.866V361.359C205.855 369.328 203.157 377.061 198.209 383.308L195.055 387.281H288.724L285.57 383.308C280.622 377.061 277.924 369.328 277.912 361.359Z"
      fill="white" stroke="#2E353A" stroke-linecap="round" stroke-linejoin="round" />
    <path
      d="M201.436 378.492H282.343C279.438 373.249 277.914 367.353 277.912 361.359V336.895H205.866V361.359C205.865 367.353 204.34 373.249 201.436 378.492Z"
      fill="#29538E" />
    <path
      d="M376.458 127.426H107.309C101.671 127.426 97.0996 131.997 97.0996 137.635V334.401C97.0996 340.04 101.671 344.611 107.309 344.611H376.458C382.097 344.611 386.668 340.04 386.668 334.401V137.635C386.668 131.997 382.097 127.426 376.458 127.426Z"
      fill="#2E353A" stroke="#2E353A" stroke-linecap="round" stroke-linejoin="round" />
    <path
      d="M97.0996 310.852H386.68V334.389C386.68 337.097 385.604 339.694 383.689 341.609C381.775 343.523 379.178 344.599 376.47 344.599H107.321C104.614 344.599 102.017 343.523 100.102 341.609C98.1873 339.694 97.1117 337.097 97.1117 334.389V310.852H97.0996Z"
      fill="white" stroke="#2E353A" stroke-linecap="round" stroke-linejoin="round" />
    <path d="M372.112 140.945H111.668V294.38H372.112V140.945Z" fill="white" stroke="#2E353A" stroke-linecap="round"
      stroke-linejoin="round" />
    <path
      d="M247.234 327.73C247.234 326.673 246.921 325.64 246.333 324.761C245.746 323.881 244.911 323.196 243.934 322.792C242.958 322.387 241.883 322.281 240.846 322.487C239.809 322.694 238.856 323.203 238.109 323.95C237.361 324.698 236.852 325.651 236.646 326.688C236.439 327.724 236.545 328.799 236.95 329.776C237.354 330.753 238.04 331.588 238.919 332.175C239.798 332.763 240.831 333.076 241.889 333.076C243.306 333.076 244.666 332.513 245.669 331.51C246.671 330.508 247.234 329.148 247.234 327.73Z"
      fill="#2E353A" stroke="#2E353A" stroke-linecap="round" stroke-linejoin="round" />
    <path d="M288.736 387.328H195.055V391.699H288.736V387.328Z" fill="white" stroke="#2E353A" stroke-linecap="round"
      stroke-linejoin="round" />
    <path d="M369.668 151.758H113.715V165.206H369.668V151.758Z" fill="white" stroke="#2E353A" stroke-linecap="round"
      stroke-linejoin="round" />
    <path d="M155.95 165.206L152.88 156.898H113.715V165.206V176.222V287.843H369.668V165.206H155.95Z" fill="#29538E"
      stroke="#2E353A" stroke-linecap="round" stroke-linejoin="round" />
    <path d="M182.605 226.02H302.618" stroke="#2E353A" stroke-width="2" stroke-linecap="round"
      stroke-linejoin="round" />
    <path d="M182.605 237.818H302.618" stroke="#2E353A" stroke-width="2" stroke-linecap="round"
      stroke-linejoin="round" />
    <path d="M182.605 249.617H302.618" stroke="#2E353A" stroke-width="2" stroke-linecap="round"
      stroke-linejoin="round" />
    <path d="M182.605 261.428H302.618" stroke="#2E353A" stroke-width="2" stroke-linecap="round"
      stroke-linejoin="round" />
    <path
      d="M296.274 194.56H187.519C186.399 194.562 185.29 194.343 184.256 193.916C183.221 193.489 182.28 192.862 181.488 192.072C180.695 191.281 180.066 190.343 179.636 189.309C179.206 188.275 178.984 187.167 178.982 186.048C178.981 184.929 179.2 183.82 179.627 182.785C180.054 181.75 180.68 180.81 181.471 180.017C182.261 179.224 183.2 178.595 184.233 178.165C185.267 177.735 186.375 177.513 187.495 177.512H296.274C297.395 177.51 298.506 177.73 299.542 178.158C300.579 178.587 301.52 179.215 302.313 180.008C303.106 180.801 303.735 181.743 304.163 182.779C304.592 183.816 304.812 184.926 304.81 186.048C304.808 187.167 304.586 188.275 304.156 189.309C303.727 190.343 303.097 191.281 302.305 192.072C301.512 192.862 300.572 193.489 299.537 193.916C298.502 194.343 297.393 194.562 296.274 194.56Z"
      fill="white" stroke="#2E353A" stroke-linecap="round" stroke-linejoin="round" />
    <path
      d="M296.273 194.559H281.416V177.486H296.273C297.395 177.485 298.505 177.704 299.542 178.133C300.578 178.561 301.52 179.19 302.313 179.983C303.106 180.776 303.734 181.718 304.163 182.754C304.591 183.79 304.811 184.901 304.809 186.023C304.811 187.144 304.591 188.255 304.163 189.291C303.734 190.327 303.106 191.269 302.313 192.062C301.52 192.855 300.578 193.484 299.542 193.912C298.505 194.341 297.395 194.56 296.273 194.559Z"
      fill="#2E353A" stroke="#2E353A" stroke-linecap="round" stroke-linejoin="round" />
    <path
      d="M292.961 179.654C292.254 178.992 291.366 178.554 290.41 178.396C289.453 178.238 288.471 178.367 287.588 178.767C286.706 179.167 285.961 179.82 285.449 180.643C284.938 181.467 284.682 182.423 284.714 183.392C284.746 184.361 285.064 185.298 285.629 186.086C286.194 186.874 286.98 187.476 287.887 187.817C288.795 188.158 289.783 188.222 290.727 188.002C291.671 187.781 292.528 187.285 293.19 186.577C293.631 186.11 293.976 185.56 294.204 184.96C294.432 184.359 294.539 183.719 294.518 183.077C294.498 182.435 294.351 181.803 294.086 181.217C293.821 180.632 293.443 180.105 292.973 179.666L292.961 179.654ZM292.48 185.915C291.948 186.479 291.261 186.874 290.506 187.048C289.75 187.222 288.96 187.169 288.235 186.895C287.509 186.621 286.881 186.138 286.43 185.507C285.979 184.876 285.725 184.126 285.7 183.351C285.675 182.576 285.88 181.811 286.289 181.152C286.698 180.494 287.293 179.971 287.999 179.65C288.705 179.329 289.49 179.225 290.256 179.35C291.021 179.475 291.732 179.824 292.299 180.353C293.06 181.067 293.507 182.053 293.541 183.096C293.575 184.139 293.193 185.153 292.48 185.915Z"
      fill="white" />
    <path
      d="M296.646 188.358C296.538 188.253 296.402 188.182 296.255 188.152C296.108 188.122 295.955 188.135 295.815 188.19L294.045 186.528C293.955 186.44 293.834 186.391 293.708 186.391C293.582 186.391 293.461 186.44 293.371 186.528L293.214 186.697C293.128 186.79 293.08 186.913 293.08 187.04C293.08 187.167 293.128 187.29 293.214 187.383L294.96 189.021C294.908 189.17 294.9 189.33 294.936 189.484C294.973 189.637 295.052 189.777 295.165 189.887L298.175 192.837C298.373 193.034 298.642 193.145 298.921 193.145C299.201 193.145 299.469 193.034 299.668 192.837C299.865 192.639 299.975 192.37 299.975 192.091C299.975 191.811 299.865 191.543 299.668 191.344L296.646 188.358Z"
      fill="white" />
    <path
      d="M327.733 246.053C328.085 246.926 328.608 247.718 329.272 248.384C329.936 249.05 330.727 249.576 331.598 249.93C332.958 250.484 334.776 250.364 336.871 251.544C341.603 254.204 353.414 251.833 361.974 252.748C370.534 253.663 382.069 244.187 382.069 244.187L416.033 246.053V212.342C416.033 212.342 380.588 213.823 372.906 210.861C365.225 207.899 356.665 201.711 352.824 202C348.983 202.289 317.379 205.841 317.379 205.841L327.721 246.053H327.733Z"
      fill="white" stroke="#2E353A" stroke-linecap="round" stroke-linejoin="round" />
    <path
      d="M318.944 110.123C311.931 110.9 305.306 113.738 299.907 118.28C294.507 122.821 290.575 128.862 288.609 135.638C286.642 142.414 286.729 149.621 288.859 156.347C290.988 163.074 295.065 169.018 300.572 173.428C306.08 177.838 312.772 180.515 319.801 181.122C326.831 181.729 333.882 180.238 340.064 176.837C346.246 173.436 351.281 168.278 354.531 162.016C357.782 155.754 359.103 148.668 358.326 141.655C357.814 136.998 356.388 132.487 354.131 128.381C351.874 124.275 348.83 120.654 345.172 117.725C341.514 114.797 337.315 112.618 332.815 111.314C328.314 110.009 323.601 109.605 318.944 110.123ZM326.024 174.03C320.398 174.655 314.714 173.598 309.689 170.992C304.664 168.387 300.525 164.349 297.795 159.391C295.064 154.433 293.866 148.777 294.35 143.137C294.835 137.498 296.981 132.129 300.516 127.709C304.052 123.289 308.819 120.017 314.215 118.307C319.61 116.596 325.392 116.524 330.829 118.099C336.265 119.674 341.112 122.826 344.758 127.156C348.403 131.487 350.682 136.8 351.307 142.426C351.722 146.161 351.398 149.942 350.352 153.552C349.306 157.161 347.559 160.53 345.211 163.465C342.863 166.399 339.96 168.843 336.668 170.656C333.376 172.469 329.759 173.615 326.024 174.03Z"
      fill="white" stroke="#2E353A" stroke-linecap="round" stroke-linejoin="round" />
    <path
      d="M318.751 108.088C311.738 108.865 305.113 111.703 299.713 116.245C294.314 120.786 290.382 126.827 288.416 133.603C286.449 140.379 286.536 147.586 288.666 154.313C290.795 161.039 294.871 166.983 300.379 171.393C305.887 175.803 312.578 178.481 319.608 179.087C326.637 179.694 333.689 178.203 339.871 174.802C346.053 171.401 351.087 166.243 354.338 159.981C357.589 153.719 358.909 146.633 358.133 139.621C357.089 130.218 352.354 121.615 344.969 115.702C337.584 109.789 328.154 107.051 318.751 108.088ZM325.83 171.995C320.205 172.62 314.52 171.563 309.495 168.957C304.471 166.352 300.332 162.315 297.601 157.356C294.871 152.398 293.672 146.742 294.157 141.102C294.641 135.463 296.787 130.094 300.323 125.674C303.859 121.254 308.626 117.982 314.022 116.272C319.417 114.561 325.199 114.489 330.635 116.064C336.072 117.639 340.919 120.791 344.564 125.122C348.209 129.452 350.489 134.766 351.114 140.391C351.529 144.126 351.204 147.907 350.158 151.517C349.112 155.127 347.365 158.495 345.018 161.43C342.67 164.365 339.767 166.808 336.475 168.621C333.183 170.434 329.566 171.58 325.83 171.995Z"
      fill="white" stroke="#2E353A" stroke-linecap="round" stroke-linejoin="round" />
    <path
      d="M327.776 179.666L326.089 179.853C324.186 180.063 322.813 181.777 323.024 183.681L325.762 208.404C325.973 210.307 327.687 211.679 329.591 211.468L331.278 211.281C333.181 211.071 334.553 209.357 334.343 207.453L331.604 182.73C331.394 180.827 329.68 179.455 327.776 179.666Z"
      fill="#29538E" stroke="#2E353A" stroke-linecap="round" stroke-linejoin="round" />
    <path
      d="M327.228 200.302L330.84 199.917C332.393 199.75 333.949 200.203 335.171 201.177C336.392 202.15 337.181 203.566 337.365 205.118L342.771 254.011C342.991 256.01 342.408 258.014 341.15 259.583C339.893 261.152 338.064 262.158 336.065 262.379H335.824C334.834 262.489 333.832 262.403 332.876 262.126C331.919 261.848 331.026 261.385 330.249 260.762C329.472 260.139 328.825 259.369 328.346 258.495C327.867 257.622 327.565 256.663 327.457 255.673L322.051 206.791C321.964 206.017 322.03 205.234 322.246 204.485C322.463 203.737 322.824 203.038 323.311 202.43C323.797 201.822 324.399 201.315 325.082 200.94C325.764 200.564 326.514 200.327 327.288 200.242L327.228 200.302Z"
      fill="#2E353A" stroke="#2E353A" stroke-linecap="round" stroke-linejoin="round" />
    <path
      d="M332.476 241.045C332.476 241.045 323.916 241.358 322.712 242.839C321.508 244.32 321.725 249.473 324.048 250.063C329.972 251.616 342.565 250.713 343.059 249.653C343.553 248.594 344.564 242.43 341.963 241.767C338.824 241.286 335.652 241.045 332.476 241.045Z"
      fill="white" stroke="#2E353A" stroke-linecap="round" stroke-linejoin="round" />
    <path
      d="M330.009 229.101C330.009 229.101 320.052 228.727 318.499 230.521C316.946 232.315 316.645 239.021 319.269 240.033C325.964 242.597 341.025 241.598 341.712 240.274C342.398 238.949 343.891 232.074 340.941 230.967C337.991 229.859 330.009 229.101 330.009 229.101Z"
      fill="white" stroke="#2E353A" stroke-linecap="round" stroke-linejoin="round" />
    <path
      d="M328.575 215.616C328.575 215.616 317.932 215.207 316.271 217.134C314.609 219.06 314.284 226.211 317.09 227.295C324.313 230.04 339.965 230.04 340.7 228.619C341.434 227.199 343.408 218.795 340.254 217.603C337.1 216.411 328.575 215.616 328.575 215.616Z"
      fill="white" stroke="#2E353A" stroke-linecap="round" stroke-linejoin="round" />
    <path
      d="M322.435 202.999C322.435 202.999 311.792 202.602 310.13 204.516C308.469 206.43 308.072 213.811 310.949 214.678C313.827 215.544 333.825 217.423 334.559 216.014C335.294 214.605 337.268 206.178 334.114 204.986C330.959 203.794 322.435 202.999 322.435 202.999Z"
      fill="white" stroke="#2E353A" stroke-linecap="round" stroke-linejoin="round" />
    <path
      d="M357.291 238.408C355.38 237.882 353.57 237.044 351.933 235.928C343.373 230.016 343.662 216.435 343.662 216.435L341.603 215.845C339.902 215.198 338.308 214.301 336.871 213.185C337.561 215.99 337.964 218.858 338.075 221.745C338.044 223.331 337.424 224.85 336.336 226.004C335.248 227.159 333.769 227.868 332.188 227.993C329.527 228.294 328.347 228.583 327.456 225.044C326.565 221.504 322.147 207.321 321.846 205.25C321.581 203.372 324.735 200.025 329.756 199.23C337.473 199.857 345.082 202.012 352.86 202.012C355.566 202.266 358.16 203.22 360.385 204.781"
      fill="white" />
    <path
      d="M357.291 238.408C355.38 237.882 353.57 237.044 351.933 235.928C343.373 230.016 343.662 216.435 343.662 216.435L341.603 215.845C339.902 215.198 338.308 214.301 336.871 213.185C337.561 215.99 337.964 218.858 338.075 221.745C338.044 223.331 337.424 224.85 336.336 226.004C335.248 227.159 333.769 227.868 332.188 227.993C329.527 228.294 328.347 228.583 327.456 225.044C326.565 221.504 322.147 207.321 321.846 205.25C321.581 203.372 324.735 200.025 329.756 199.23C337.473 199.857 345.082 202.012 352.86 202.012C355.566 202.266 358.16 203.22 360.385 204.781"
      stroke="#2E353A" stroke-linecap="round" stroke-linejoin="round" />
    <path d="M365.429 239.154C364.49 239.203 363.55 239.203 362.611 239.154H365.429Z" fill="white" />
    <path d="M365.429 239.154C364.49 239.203 363.55 239.203 362.611 239.154" stroke="#2E353A" stroke-linecap="round"
      stroke-linejoin="round" />
    <path d="M371.726 237.986C369.682 238.633 367.569 239.037 365.43 239.19L371.726 237.986Z" fill="white" />
    <path d="M371.726 237.986C369.682 238.633 367.569 239.037 365.43 239.19" stroke="#2E353A" stroke-linecap="round"
      stroke-linejoin="round" />
    <path d="M382.357 234.158H392.988" stroke="#2E353A" stroke-linecap="round" stroke-linejoin="round" />
    <path d="M383.248 237.107H387.679" stroke="#2E353A" stroke-linecap="round" stroke-linejoin="round" />
    <path d="M343.66 216.435C343.66 216.435 349.536 216.435 353.388 212.932" stroke="#2E353A" stroke-linecap="round"
      stroke-linejoin="round" />
    <path d="M336.738 212.8C336.568 211.196 336.233 209.615 335.738 208.08" stroke="#2E353A" stroke-linecap="round"
      stroke-linejoin="round" />
    <path
      d="M327.371 223.491C327.371 223.491 326.251 220.384 327.612 219.265C328.972 218.145 332.584 216.532 333.21 217.772C333.836 219.012 335.197 224.731 334.823 225.85L334.45 226.97"
      stroke="#2E353A" stroke-width="0.5" stroke-linecap="round" stroke-linejoin="round" />
    <path d="M490.569 261.162H388.773V211.125H490.569" fill="#29538E" />
    <path d="M490.569 261.162H388.773V211.125H490.569" stroke="#2E353A" stroke-linecap="round"
      stroke-linejoin="round" />
    <path
      d="M396.239 257.815C397.502 257.815 398.526 256.791 398.526 255.528C398.526 254.264 397.502 253.24 396.239 253.24C394.975 253.24 393.951 254.264 393.951 255.528C393.951 256.791 394.975 257.815 396.239 257.815Z"
      fill="white" stroke="#2E353A" stroke-linecap="round" stroke-linejoin="round" />
    <path
      d="M234.461 163.473C235.333 163.121 236.125 162.598 236.791 161.934C237.457 161.27 237.983 160.479 238.337 159.608C238.891 158.248 238.759 156.442 239.951 154.335C242.599 149.615 240.24 137.804 241.155 129.232C242.07 120.66 232.582 109.15 232.582 109.15L234.424 75.1855H200.713C200.713 75.1855 202.182 110.631 199.232 118.3C196.283 125.969 190.082 134.554 190.371 138.394C190.66 142.235 194.236 173.815 194.236 173.815L234.4 163.473H234.461Z"
      fill="white" stroke="#2E353A" stroke-linecap="round" stroke-linejoin="round" />
    <path
      d="M98.6152 172.238C99.3862 179.252 102.22 185.879 106.758 191.282C111.295 196.686 117.333 200.622 124.108 202.593C130.883 204.564 138.09 204.482 144.819 202.357C151.547 200.233 157.494 196.16 161.908 190.655C166.321 185.15 169.004 178.46 169.615 171.431C170.226 164.401 168.739 157.349 165.342 151.165C161.945 144.98 156.791 139.942 150.53 136.688C144.27 133.433 137.185 132.108 130.171 132.88H130.087C120.699 133.936 112.113 138.673 106.213 146.052C100.313 153.43 97.5803 162.848 98.6152 172.238ZM162.426 165.147C163.053 170.774 161.997 176.462 159.392 181.489C156.787 186.517 152.75 190.659 147.79 193.392C142.831 196.125 137.173 197.326 131.531 196.844C125.889 196.361 120.517 194.216 116.094 190.681C111.671 187.145 108.396 182.377 106.683 176.98C104.97 171.583 104.895 165.799 106.469 160.36C108.043 154.921 111.194 150.07 115.524 146.422C119.855 142.773 125.17 140.491 130.797 139.863C138.344 139.025 145.915 141.217 151.845 145.958C157.776 150.699 161.582 157.601 162.426 165.147Z"
      fill="white" stroke="#2E353A" stroke-linecap="round" stroke-linejoin="round" />
    <path
      d="M96.5323 172.455C97.3105 179.464 100.149 186.085 104.69 191.481C109.231 196.877 115.269 200.805 122.043 202.77C128.816 204.734 136.019 204.646 142.742 202.517C149.465 200.388 155.406 196.313 159.814 190.808C164.222 185.303 166.899 178.615 167.506 171.589C168.113 164.563 166.623 157.515 163.225 151.335C159.827 145.156 154.672 140.122 148.414 136.872C142.156 133.621 135.074 132.299 128.064 133.073C123.408 133.587 118.898 135.013 114.792 137.271C110.687 139.528 107.067 142.573 104.138 146.23C101.21 149.887 99.031 154.086 97.7259 158.586C96.4208 163.085 96.0152 167.798 96.5323 172.455ZM160.439 165.387C161.064 171.013 160.007 176.697 157.401 181.722C154.796 186.747 150.758 190.886 145.8 193.616C140.842 196.347 135.186 197.545 129.546 197.061C123.907 196.576 118.538 194.43 114.118 190.895C109.698 187.359 106.426 182.592 104.715 177.196C103.005 171.801 102.933 166.019 104.508 160.582C106.083 155.146 109.235 150.299 113.565 146.653C117.896 143.008 123.209 140.729 128.835 140.104C132.57 139.689 136.351 140.013 139.961 141.059C143.57 142.105 146.939 143.852 149.874 146.2C152.808 148.548 155.252 151.451 157.065 154.743C158.878 158.035 160.024 161.652 160.439 165.387Z"
      fill="white" stroke="#2E353A" stroke-linecap="round" stroke-linejoin="round" />
    <path
      d="M195.906 156.882L171.183 159.62C169.279 159.831 167.907 161.545 168.118 163.448L168.305 165.136C168.516 167.039 170.23 168.411 172.133 168.2L196.856 165.462C198.759 165.251 200.131 163.537 199.921 161.634L199.734 159.947C199.523 158.043 197.809 156.671 195.906 156.882Z"
      fill="#29538E" stroke="#2E353A" stroke-linecap="round" stroke-linejoin="round" />
    <path
      d="M188.746 163.989L188.348 160.377C188.176 158.813 188.632 157.244 189.617 156.016C190.601 154.787 192.033 154 193.598 153.828L242.479 148.422C243.473 148.306 244.48 148.388 245.443 148.663C246.405 148.938 247.303 149.4 248.087 150.023C248.87 150.647 249.522 151.418 250.006 152.294C250.49 153.17 250.796 154.133 250.907 155.128V155.369C251.022 156.363 250.94 157.37 250.666 158.332C250.391 159.295 249.928 160.193 249.305 160.977C248.682 161.76 247.91 162.412 247.034 162.896C246.158 163.38 245.195 163.686 244.201 163.797L195.319 169.203C193.757 169.379 192.188 168.929 190.957 167.953C189.725 166.976 188.93 165.551 188.746 163.989Z"
      fill="#2E353A" stroke="#2E353A" stroke-linecap="round" stroke-linejoin="round" />
    <path
      d="M229.477 158.74C229.477 158.74 229.802 167.289 231.27 168.493C232.739 169.697 237.916 169.48 238.494 167.156C240.06 161.245 239.144 148.639 238.085 148.158C237.025 147.676 230.861 146.641 230.211 149.253C229.726 152.392 229.48 155.564 229.477 158.74Z"
      fill="white" stroke="#2E353A" stroke-linecap="round" stroke-linejoin="round" />
    <path
      d="M217.545 161.197C217.545 161.197 217.159 171.154 218.953 172.707C220.747 174.26 227.453 174.573 228.465 171.937C231.041 165.243 230.03 150.181 228.705 149.507C227.381 148.832 220.506 147.327 219.399 150.277C218.291 153.227 217.545 161.197 217.545 161.197Z"
      fill="white" stroke="#2E353A" stroke-linecap="round" stroke-linejoin="round" />
    <path
      d="M204.06 162.654C204.06 162.654 203.651 173.297 205.565 174.958C207.479 176.62 214.655 176.945 215.739 174.127C218.484 166.976 218.484 151.252 217.063 150.529C215.642 149.807 207.227 147.821 206.047 150.975C204.867 154.129 204.06 162.654 204.06 162.654Z"
      fill="white" stroke="#2E353A" stroke-linecap="round" stroke-linejoin="round" />
    <path
      d="M191.443 168.781C191.443 168.781 191.033 179.424 192.96 181.085C194.886 182.747 202.254 183.144 203.121 180.255C203.988 177.365 205.866 157.379 204.446 156.645C203.025 155.91 194.621 153.948 193.429 157.102C192.237 160.257 191.443 168.781 191.443 168.781Z"
      fill="white" stroke="#2E353A" stroke-linecap="round" stroke-linejoin="round" />
    <path
      d="M227.587 125.752C228.078 130.494 226.94 135.263 224.36 139.273C218.461 147.845 204.868 147.544 204.868 147.544L204.278 149.615C203.636 151.314 202.738 152.905 201.617 154.334C204.427 153.645 207.299 153.241 210.189 153.13C211.77 153.176 213.279 153.806 214.423 154.897C215.568 155.988 216.269 157.465 216.39 159.042C216.691 161.703 216.98 162.883 213.44 163.761C209.9 164.64 195.718 169.083 193.647 169.384C191.769 169.649 188.422 166.494 187.627 161.474C188.265 153.756 190.42 146.135 190.42 138.37C190.672 135.659 191.627 133.061 193.189 130.833"
      fill="white" />
    <path
      d="M227.587 125.752C228.078 130.494 226.94 135.263 224.36 139.273C218.461 147.845 204.868 147.544 204.868 147.544L204.278 149.615C203.636 151.314 202.738 152.905 201.617 154.334C204.427 153.645 207.299 153.241 210.189 153.13C211.77 153.176 213.279 153.806 214.423 154.897C215.568 155.988 216.269 157.465 216.39 159.042C216.691 161.703 216.98 162.883 213.44 163.761C209.9 164.64 195.718 169.083 193.647 169.384C191.769 169.649 188.422 166.494 187.627 161.474C188.265 153.756 190.42 146.135 190.42 138.37C190.672 135.659 191.627 133.061 193.189 130.833"
      stroke="#2E353A" stroke-linecap="round" stroke-linejoin="round" />
    <path d="M226.43 119.492C226.786 120.619 227.06 121.769 227.248 122.936L226.43 119.492Z" fill="white" />
    <path d="M226.43 119.492C226.786 120.619 227.06 121.769 227.248 122.936" stroke="#2E353A" stroke-linecap="round"
      stroke-linejoin="round" />
    <path d="M222.59 108.848V98.2168" stroke="#2E353A" stroke-linecap="round" stroke-linejoin="round" />
    <path d="M225.539 107.97V103.539" stroke="#2E353A" stroke-linecap="round" stroke-linejoin="round" />
    <path d="M204.867 147.544C204.867 147.544 204.867 141.669 201.363 137.816" stroke="#2E353A" stroke-linecap="round"
      stroke-linejoin="round" />
    <path d="M201.243 154.479C199.64 154.644 198.058 154.975 196.523 155.466" stroke="#2E353A" stroke-linecap="round"
      stroke-linejoin="round" />
    <path
      d="M211.934 163.797C211.934 163.797 208.828 164.917 207.708 163.544C206.588 162.172 204.975 158.572 206.215 157.958C207.455 157.344 213.174 155.971 214.294 156.345L215.413 156.706"
      stroke="#2E353A" stroke-width="0.5" stroke-linecap="round" stroke-linejoin="round" />
    <path d="M249.606 0.634766V102.431H199.557V0.634766" fill="#29538E" />
    <path d="M249.606 0.634766V102.431H199.557V0.634766" stroke="#2E353A" stroke-linecap="round"
      stroke-linejoin="round" />
    <path
      d="M243.959 97.2529C245.223 97.2529 246.247 96.2287 246.247 94.9653C246.247 93.7019 245.223 92.6777 243.959 92.6777C242.696 92.6777 241.672 93.7019 241.672 94.9653C241.672 96.2287 242.696 97.2529 243.959 97.2529Z"
      fill="white" stroke="#2E353A" stroke-linecap="round" stroke-linejoin="round" />
    <path
      d="M184.099 344.779C183.749 345.652 183.226 346.445 182.562 347.111C181.898 347.778 181.106 348.303 180.234 348.655C178.874 349.221 177.068 349.089 174.961 350.269C170.241 352.929 158.43 350.57 149.858 351.473C141.286 352.376 129.776 342.912 129.776 342.912L95.7754 344.779V311.067C95.7754 311.067 131.22 312.548 138.902 309.598C146.583 306.649 155.143 300.436 158.984 300.737C162.825 301.038 194.429 304.578 194.429 304.578L184.099 344.779Z"
      fill="white" stroke="#2E353A" stroke-linecap="round" stroke-linejoin="round" />
    <path
      d="M192.827 208.922C199.84 209.698 206.465 212.536 211.865 217.078C217.264 221.619 221.196 227.66 223.162 234.436C225.129 241.212 225.042 248.419 222.912 255.146C220.783 261.872 216.707 267.816 211.199 272.226C205.691 276.636 199 279.314 191.97 279.92C184.941 280.527 177.889 279.036 171.707 275.635C165.525 272.234 160.491 267.076 157.24 260.814C153.989 254.552 152.669 247.466 153.445 240.454C154.486 231.053 159.219 222.451 166.602 216.54C173.985 210.629 183.415 207.893 192.815 208.934L192.827 208.922ZM185.748 272.829C191.375 273.456 197.063 272.4 202.09 269.795C207.118 267.19 211.26 263.152 213.993 258.193C216.726 253.234 217.927 247.576 217.445 241.934C216.962 236.292 214.817 230.92 211.282 226.497C207.746 222.074 202.978 218.799 197.581 217.086C192.184 215.372 186.4 215.298 180.961 216.872C175.522 218.445 170.671 221.597 167.023 225.927C163.374 230.258 161.092 235.573 160.464 241.2C159.626 248.747 161.818 256.317 166.559 262.248C171.3 268.179 178.202 271.985 185.748 272.829Z"
      fill="white" stroke="#2E353A" stroke-linecap="round" stroke-linejoin="round" />
    <path
      d="M193.044 206.888C200.053 207.666 206.675 210.506 212.071 215.047C217.467 219.589 221.395 225.628 223.359 232.402C225.322 239.176 225.233 246.38 223.103 253.103C220.973 259.826 216.897 265.767 211.391 270.174C205.885 274.581 199.196 277.256 192.169 277.862C185.142 278.467 178.094 276.976 171.915 273.576C165.736 270.176 160.704 265.02 157.455 258.76C154.206 252.5 152.886 245.418 153.662 238.408C154.177 233.752 155.605 229.243 157.863 225.139C160.121 221.035 163.166 217.417 166.823 214.49C170.48 211.562 174.678 209.385 179.177 208.08C183.676 206.776 188.388 206.371 193.044 206.888ZM185.965 270.795C191.592 271.422 197.279 270.366 202.307 267.761C207.335 265.156 211.477 261.119 214.21 256.159C216.943 251.2 218.144 245.542 217.661 239.9C217.179 234.258 215.034 228.886 211.498 224.463C207.963 220.04 203.195 216.765 197.798 215.052C192.401 213.339 186.617 213.264 181.178 214.838C175.738 216.412 170.888 219.563 167.239 223.893C163.591 228.224 161.309 233.539 160.681 239.166C159.846 246.71 162.04 254.276 166.781 260.202C171.522 266.128 178.422 269.93 185.965 270.771V270.795Z"
      fill="white" stroke="#2E353A" stroke-linecap="round" stroke-linejoin="round" />
    <path
      d="M180.182 281.53L177.444 306.253C177.233 308.156 178.606 309.87 180.509 310.081L182.196 310.268C184.1 310.479 185.813 309.107 186.024 307.203L188.762 282.48C188.973 280.577 187.601 278.863 185.698 278.652L184.01 278.465C182.107 278.254 180.393 279.627 180.182 281.53Z"
      fill="#29538E" stroke="#2E353A" stroke-linecap="round" stroke-linejoin="round" />
    <path
      d="M175.995 361.224H175.754C174.759 361.115 173.795 360.81 172.918 360.327C172.042 359.843 171.269 359.191 170.646 358.407C170.022 357.624 169.56 356.725 169.286 355.762C169.012 354.799 168.931 353.791 169.048 352.797L174.454 303.915C174.538 303.14 174.774 302.389 175.149 301.705C175.524 301.021 176.03 300.418 176.639 299.93C177.247 299.443 177.946 299.08 178.695 298.863C179.444 298.646 180.229 298.579 181.004 298.666L184.616 299.063C186.18 299.236 187.612 300.023 188.597 301.251C189.581 302.479 190.037 304.048 189.865 305.613L184.459 354.554C184.347 355.548 184.04 356.511 183.555 357.386C183.071 358.261 182.419 359.032 181.636 359.655C180.853 360.278 179.955 360.74 178.993 361.016C178.032 361.291 177.025 361.374 176.031 361.261L175.995 361.224Z"
      fill="#2E353A" stroke="#2E353A" stroke-linecap="round" stroke-linejoin="round" />
    <path
      d="M179.282 339.83C179.282 339.83 187.83 340.155 189.034 341.624C190.238 343.093 190.021 348.258 187.697 348.848C181.786 350.413 169.18 349.498 168.699 348.439C168.217 347.379 167.182 341.215 169.794 340.552C172.934 340.071 176.105 339.83 179.282 339.83Z"
      fill="white" stroke="#2E353A" stroke-linecap="round" stroke-linejoin="round" />
    <path
      d="M181.787 327.923C181.787 327.923 191.744 327.538 193.297 329.332C194.85 331.126 195.163 337.832 192.526 338.844C185.832 341.408 170.771 340.409 170.096 339.084C169.422 337.76 167.917 330.885 170.867 329.778C173.817 328.67 181.787 327.923 181.787 327.923Z"
      fill="white" stroke="#2E353A" stroke-linecap="round" stroke-linejoin="round" />
    <path
      d="M183.243 314.403C183.243 314.403 193.886 314.006 195.548 315.92C197.209 317.835 197.534 325.01 194.729 326.082C187.505 328.839 171.853 328.827 171.119 327.418C170.385 326.01 168.41 317.582 171.565 316.39C174.719 315.198 183.243 314.403 183.243 314.403Z"
      fill="white" stroke="#2E353A" stroke-linecap="round" stroke-linejoin="round" />
    <path
      d="M189.371 301.796C189.371 301.796 200.014 301.387 201.675 303.301C203.337 305.216 203.734 312.608 200.845 313.475C197.955 314.342 177.969 316.208 177.235 314.799C176.5 313.391 174.538 304.963 177.692 303.783C180.846 302.603 189.371 301.796 189.371 301.796Z"
      fill="white" stroke="#2E353A" stroke-linecap="round" stroke-linejoin="round" />
    <path
      d="M147.98 338.001C152.179 338.166 156.325 337.017 159.84 334.714C168.412 328.802 168.111 315.221 168.111 315.221L170.182 314.631C171.881 313.989 173.472 313.092 174.901 311.971C174.212 314.776 173.809 317.644 173.697 320.531C173.743 322.113 174.372 323.623 175.463 324.77C176.554 325.916 178.031 326.619 179.609 326.743C182.27 327.032 183.45 327.333 184.341 323.782C185.231 320.23 189.65 306.059 189.951 304C190.252 301.942 187.062 298.763 182.041 297.98C174.323 298.619 166.702 300.774 158.937 300.774C156.228 301.026 153.632 301.976 151.4 303.531"
      fill="white" />
    <path
      d="M147.98 338.001C152.179 338.166 156.325 337.017 159.84 334.714C168.412 328.802 168.111 315.221 168.111 315.221L170.182 314.631C171.881 313.989 173.472 313.092 174.901 311.971C174.212 314.776 173.809 317.644 173.697 320.531C173.743 322.113 174.372 323.623 175.463 324.77C176.554 325.916 178.031 326.619 179.609 326.743C182.27 327.032 183.45 327.333 184.341 323.782C185.231 320.23 189.65 306.059 189.951 304C190.252 301.942 187.062 298.763 182.041 297.98C174.323 298.619 166.702 300.774 158.937 300.774C156.228 301.026 153.632 301.976 151.4 303.531"
      stroke="#2E353A" stroke-linecap="round" stroke-linejoin="round" />
    <path d="M140.082 336.785C141.765 337.302 143.495 337.653 145.247 337.833L140.082 336.785Z" fill="white" />
    <path d="M140.082 336.785C141.765 337.302 143.495 337.653 145.247 337.833" stroke="#2E353A" stroke-linecap="round"
      stroke-linejoin="round" />
    <path d="M129.438 332.945H118.807" stroke="#2E353A" stroke-linecap="round" stroke-linejoin="round" />
    <path d="M128.559 335.895H124.129" stroke="#2E353A" stroke-linecap="round" stroke-linejoin="round" />
    <path d="M168.134 315.222C168.134 315.222 162.259 315.222 158.406 311.719" stroke="#2E353A" stroke-linecap="round"
      stroke-linejoin="round" />
    <path d="M175.068 311.585C175.234 309.982 175.564 308.4 176.056 306.865" stroke="#2E353A" stroke-linecap="round"
      stroke-linejoin="round" />
    <path
      d="M184.387 322.276C184.387 322.276 185.507 319.17 184.134 318.05C182.762 316.93 179.162 315.317 178.548 316.557C177.934 317.797 176.561 323.528 176.934 324.636L177.308 325.755"
      stroke="#2E353A" stroke-width="0.5" stroke-linecap="round" stroke-linejoin="round" />
    <path d="M21.2246 359.961H123.021V309.912H21.2246" fill="#29538E" />
    <path d="M21.2246 359.961H123.021V309.912H21.2246" stroke="#2E353A" stroke-linecap="round"
      stroke-linejoin="round" />
    <path
      d="M113.268 354.315C113.268 354.767 113.402 355.21 113.653 355.586C113.904 355.962 114.262 356.255 114.68 356.428C115.098 356.602 115.558 356.647 116.001 356.559C116.445 356.47 116.853 356.252 117.173 355.932C117.493 355.613 117.71 355.205 117.799 354.761C117.887 354.317 117.842 353.858 117.669 353.44C117.495 353.022 117.202 352.664 116.826 352.413C116.45 352.162 116.008 352.027 115.555 352.027C114.948 352.027 114.367 352.268 113.938 352.697C113.509 353.126 113.268 353.708 113.268 354.315Z"
      fill="white" stroke="#2E353A" stroke-linecap="round" stroke-linejoin="round" />
  </g>
  <defs>
    <clipPath id="clip0">
      <rect width="491" height="401.727" fill="white" transform="translate(0 0.636719)" />
    </clipPath>
  </defs>
</svg>