<svg width="22" height="22" viewBox="0 0 22 22" fill="none" xmlns="http://www.w3.org/2000/svg">
  <g clip-path="url(#clip0)">
    <path
      d="M10.7078 4.9004C12.4426 4.9004 14.0131 5.60355 15.1499 6.74038C16.2867 7.87721 16.9899 9.44773 16.9899 11.1824C16.9899 12.9172 16.2867 14.4877 15.1499 15.6245C14.0131 16.7613 12.4425 17.4645 10.7078 17.4645C8.97312 17.4645 7.40258 16.7613 6.26577 15.6245C5.12894 14.4877 4.42578 12.9171 4.42578 11.1824C4.42578 9.44772 5.12894 7.87718 6.26576 6.74037C7.40259 5.60355 8.97312 4.90039 10.7078 4.90039L10.7078 4.9004ZM14.9988 6.89152C13.9006 5.79339 12.3835 5.11418 10.7078 5.11418C9.03212 5.11418 7.51503 5.7934 6.41691 6.89152C5.31879 7.98965 4.63957 9.50674 4.63957 11.1824C4.63957 12.8582 5.31879 14.3752 6.41692 15.4734C7.51504 16.5715 9.03213 17.2507 10.7078 17.2507C12.3836 17.2507 13.9006 16.5715 14.9988 15.4734C16.0969 14.3752 16.7761 12.8582 16.7761 11.1825C16.7761 9.50673 16.0969 7.98966 14.9988 6.89153L14.9988 6.89152Z"
      fill="black" />
    <path
      d="M10.7074 6.61719C11.9684 6.61719 13.1101 7.12835 13.9365 7.95476C14.7629 8.78119 15.2741 9.92287 15.2741 11.1839C15.2741 12.445 14.7629 13.5867 13.9365 14.4131C13.1101 15.2395 11.9684 15.7506 10.7074 15.7506C9.4463 15.7506 8.30461 15.2395 7.4782 14.4131C6.65178 13.5867 6.14062 12.445 6.14062 11.1839C6.14062 9.92287 6.65179 8.78118 7.4782 7.95476C8.30461 7.12835 9.44631 6.61719 10.7074 6.61719ZM13.7854 8.10591C12.9976 7.31819 11.9094 6.83097 10.7074 6.83097C9.50532 6.83097 8.41705 7.3182 7.62935 8.10591C6.84163 8.89362 6.3544 9.98188 6.3544 11.1839C6.3544 12.386 6.84162 13.4742 7.62935 14.2619C8.41706 15.0496 9.50531 15.5369 10.7074 15.5369C11.9094 15.5369 12.9977 15.0496 13.7854 14.2619C14.5731 13.4742 15.0603 12.3859 15.0603 11.1839C15.0603 9.98188 14.5731 8.89364 13.7854 8.10591Z"
      fill="black" />
    <path
      d="M10.7084 8.13867C11.5491 8.13867 12.3102 8.47944 12.8611 9.03034C13.412 9.58126 13.7527 10.3423 13.7527 11.183C13.7527 12.0236 13.412 12.7847 12.8611 13.3357C12.3102 13.8866 11.5491 14.2273 10.7084 14.2273C9.86775 14.2273 9.10666 13.8866 8.55574 13.3357C8.00483 12.7847 7.66406 12.0237 7.66406 11.183C7.66406 10.3423 8.00483 9.58126 8.55574 9.03034C9.10666 8.47944 9.86775 8.13868 10.7084 8.13868V8.13867ZM12.7099 9.18148C12.1977 8.66928 11.49 8.35245 10.7084 8.35245C9.92676 8.35245 9.2191 8.66928 8.70689 9.18148C8.19467 9.6937 7.87784 10.4014 7.87784 11.183C7.87784 11.9646 8.19467 12.6723 8.70689 13.1845C9.2191 13.6967 9.92676 14.0136 10.7084 14.0136C11.49 14.0136 12.1977 13.6967 12.7099 13.1845C13.2221 12.6723 13.539 11.9646 13.539 11.183C13.539 10.4014 13.2221 9.6937 12.7099 9.18148Z"
      fill="black" />
    <path
      d="M10.7093 9.43945C11.191 9.43945 11.6271 9.63472 11.9428 9.9504C12.2584 10.2661 12.4537 10.7022 12.4537 11.1839C12.4537 11.6656 12.2585 12.1017 11.9428 12.4174C11.6271 12.7331 11.191 12.9283 10.7093 12.9283C10.2276 12.9283 9.79147 12.7331 9.47579 12.4174C9.16011 12.1017 8.96484 11.6656 8.96484 11.1839C8.96484 10.7022 9.16011 10.2661 9.47579 9.9504C9.79147 9.63472 10.2276 9.43945 10.7093 9.43945ZM11.7916 10.1015C11.5146 9.82456 11.132 9.65323 10.7093 9.65323C10.2866 9.65323 9.90391 9.82456 9.62694 10.1015C9.34996 10.3785 9.17862 10.7612 9.17862 11.1839C9.17862 11.6066 9.34996 11.9893 9.62694 12.2662C9.90391 12.5432 10.2866 12.7145 10.7093 12.7145C11.132 12.7145 11.5146 12.5432 11.7916 12.2662C12.0686 11.9893 12.2399 11.6066 12.2399 11.1839C12.2399 10.7612 12.0686 10.3785 11.7916 10.1015Z"
      fill="black" />
    <path
      d="M10.6329 11.1079C10.5911 11.1496 10.5911 11.2173 10.6329 11.259C10.6746 11.3008 10.7423 11.3008 10.784 11.259L16.4446 5.59846C16.4863 5.55673 16.4863 5.48904 16.4446 5.44731C16.4028 5.40558 16.3352 5.40558 16.2934 5.44731L10.6329 11.1079V11.1079Z"
      fill="black" />
    <path
      d="M16.7241 4.52539L16.8132 5.16993L16.7075 5.18454L16.8134 5.16991C16.8183 5.20493 16.8055 5.23833 16.782 5.26123L16.1066 5.93666L16.1066 5.93667C16.0648 5.97841 15.9972 5.97841 15.9554 5.93667C15.9364 5.91765 15.9261 5.89325 15.9244 5.86837L15.8353 5.22382L15.9409 5.20921L15.835 5.22384C15.8302 5.18882 15.8429 5.15542 15.8664 5.13253L16.5419 4.4571L16.5418 4.45709C16.5836 4.41535 16.6513 4.41535 16.693 4.45709C16.712 4.4761 16.7224 4.5005 16.7241 4.52539H16.7241ZM16.5946 5.14633L16.5412 4.76003L16.0538 5.24742L16.1072 5.63372L16.5946 5.14633H16.5946Z"
      fill="black" />
    <path
      d="M17.1298 5.35136L16.7435 5.29795L16.2561 5.78534L16.6424 5.83876L17.1298 5.35137V5.35136ZM16.7053 5.18502L16.7199 5.07939L17.3645 5.16851C17.3893 5.17019 17.4137 5.18055 17.4328 5.19956C17.4745 5.2413 17.4745 5.30899 17.4328 5.35073L17.4327 5.35072L16.7573 6.02615C16.7344 6.04969 16.701 6.0624 16.666 6.05756L16.6806 5.95169L16.666 6.05731L16.0215 5.9682C15.9966 5.96651 15.9722 5.95616 15.9532 5.93714C15.9114 5.8954 15.9114 5.82772 15.9532 5.78598L15.9532 5.78599L16.6286 5.11056C16.6515 5.08702 16.6849 5.07431 16.7199 5.07914L16.7053 5.18502V5.18502Z"
      fill="black" />
    <path
      d="M10.9453 0C13.9677 0 16.704 1.2251 18.6848 3.20582C20.6655 5.18654 21.8906 7.92285 21.8906 10.9453C21.8906 13.9677 20.6655 16.704 18.6848 18.6848C16.704 20.6655 13.9677 21.8906 10.9453 21.8906C7.92286 21.8906 5.18654 20.6655 3.20582 18.6848C1.2251 16.704 0 13.9677 0 10.9453C0 7.92286 1.2251 5.18654 3.20582 3.20582C5.18654 1.2251 7.92285 0 10.9453 0V0ZM18.3072 3.58331C16.4232 1.69923 13.8203 0.53391 10.9453 0.53391C8.07024 0.53391 5.46738 1.69923 3.58333 3.58331C1.69926 5.46738 0.533933 8.07022 0.533933 10.9453C0.533933 13.8203 1.69926 16.4232 3.58333 18.3072C5.4674 20.1913 8.07025 21.3566 10.9453 21.3566C13.8203 21.3566 16.4232 20.1913 18.3072 18.3072C20.1913 16.4231 21.3566 13.8203 21.3566 10.9453C21.3566 8.07022 20.1913 5.46736 18.3072 3.58331Z"
      fill="black" />
  </g>
  <defs>
    <clipPath id="clip0">
      <rect width="22" height="22" fill="white" />
    </clipPath>
  </defs>
</svg>